<?xml version="1.0" encoding="UTF-8"?>
<!DOCTYPE svg PUBLIC "-//W3C//DTD SVG 1.1//EN" "http://www.w3.org/Graphics/SVG/1.1/DTD/svg11.dtd">
<svg version="1.2" viewBox="15149 11176 93172 34090" preserveAspectRatio="xMidYMid" fill-rule="evenodd" stroke-width="28.222" stroke-linejoin="round" xmlns="http://www.w3.org/2000/svg" xmlns:ooo="http://xml.openoffice.org/svg/export" xmlns:xlink="http://www.w3.org/1999/xlink" xmlns:presentation="http://sun.com/xmlns/staroffice/presentation" xmlns:smil="http://www.w3.org/2001/SMIL20/" xmlns:anim="urn:oasis:names:tc:opendocument:xmlns:animation:1.0" xml:space="preserve">
 <defs class="EmbeddedBulletChars">
  <g id="bullet-char-template-57356" transform="scale(0.00048828125,-0.00048828125)">
   <path d="M 580,1141 L 1163,571 580,0 -4,571 580,1141 Z"/>
  </g>
  <g id="bullet-char-template-57354" transform="scale(0.00048828125,-0.00048828125)">
   <path d="M 8,1128 L 1137,1128 1137,0 8,0 8,1128 Z"/>
  </g>
  <g id="bullet-char-template-10146" transform="scale(0.00048828125,-0.00048828125)">
   <path d="M 174,0 L 602,739 174,1481 1456,739 174,0 Z M 1358,739 L 309,1346 659,739 1358,739 Z"/>
  </g>
  <g id="bullet-char-template-10132" transform="scale(0.00048828125,-0.00048828125)">
   <path d="M 2015,739 L 1276,0 717,0 1260,543 174,543 174,936 1260,936 717,1481 1274,1481 2015,739 Z"/>
  </g>
  <g id="bullet-char-template-10007" transform="scale(0.00048828125,-0.00048828125)">
   <path d="M 0,-2 C -7,14 -16,27 -25,37 L 356,567 C 262,823 215,952 215,954 215,979 228,992 255,992 264,992 276,990 289,987 310,991 331,999 354,1012 L 381,999 492,748 772,1049 836,1024 860,1049 C 881,1039 901,1025 922,1006 886,937 835,863 770,784 769,783 710,716 594,584 L 774,223 C 774,196 753,168 711,139 L 727,119 C 717,90 699,76 672,76 641,76 570,178 457,381 L 164,-76 C 142,-110 111,-127 72,-127 30,-127 9,-110 8,-76 1,-67 -2,-52 -2,-32 -2,-23 -1,-13 0,-2 Z"/>
  </g>
  <g id="bullet-char-template-10004" transform="scale(0.00048828125,-0.00048828125)">
   <path d="M 285,-33 C 182,-33 111,30 74,156 52,228 41,333 41,471 41,549 55,616 82,672 116,743 169,778 240,778 293,778 328,747 346,684 L 369,508 C 377,444 397,411 428,410 L 1163,1116 C 1174,1127 1196,1133 1229,1133 1271,1133 1292,1118 1292,1087 L 1292,965 C 1292,929 1282,901 1262,881 L 442,47 C 390,-6 338,-33 285,-33 Z"/>
  </g>
  <g id="bullet-char-template-9679" transform="scale(0.00048828125,-0.00048828125)">
   <path d="M 813,0 C 632,0 489,54 383,161 276,268 223,411 223,592 223,773 276,916 383,1023 489,1130 632,1184 813,1184 992,1184 1136,1130 1245,1023 1353,916 1407,772 1407,592 1407,412 1353,268 1245,161 1136,54 992,0 813,0 Z"/>
  </g>
  <g id="bullet-char-template-8226" transform="scale(0.00048828125,-0.00048828125)">
   <path d="M 346,457 C 273,457 209,483 155,535 101,586 74,649 74,723 74,796 101,859 155,911 209,963 273,989 346,989 419,989 480,963 531,910 582,859 608,796 608,723 608,648 583,586 532,535 482,483 420,457 346,457 Z"/>
  </g>
  <g id="bullet-char-template-8211" transform="scale(0.00048828125,-0.00048828125)">
   <path d="M -4,459 L 1135,459 1135,606 -4,606 -4,459 Z"/>
  </g>
  <g id="bullet-char-template-61548" transform="scale(0.00048828125,-0.00048828125)">
   <path d="M 173,740 C 173,903 231,1043 346,1159 462,1274 601,1332 765,1332 928,1332 1067,1274 1183,1159 1299,1043 1357,903 1357,740 1357,577 1299,437 1183,322 1067,206 928,148 765,148 601,148 462,206 346,322 231,437 173,577 173,740 Z"/>
  </g>
 </defs>
 <g ooo:name="page5" class="Page">
  <g class="Group">
   <g class="com.sun.star.drawing.CustomShape">
    <g id="id3">
     <rect class="BoundingBox" stroke="none" fill="none" x="15149" y="11176" width="93172" height="34090"/>
     <path fill="none" stroke="rgb(169,169,169)" stroke-width="81" stroke-linejoin="miter" d="M 15191,12020 L 15191,12020 C 15191,11879 15228,11741 15299,11619 15369,11497 15470,11395 15592,11325 15714,11255 15853,11217 15994,11217 L 107476,11218 107476,11218 C 107617,11218 107755,11255 107877,11326 107999,11396 108101,11497 108171,11619 108241,11741 108279,11880 108279,12021 L 108279,12021 108279,44421 108279,44421 C 108279,44562 108242,44700 108171,44822 108101,44944 108000,45046 107878,45116 107756,45186 107617,45224 107476,45224 L 15993,45224 15993,45224 C 15852,45224 15714,45187 15592,45116 15470,45046 15368,44945 15298,44823 15228,44701 15190,44562 15190,44421 L 15191,12020 Z"/>
    </g>
   </g>
   <g class="Group">
    <g class="Group">
     <g class="com.sun.star.drawing.CustomShape">
      <g id="id4">
       <rect class="BoundingBox" stroke="none" fill="none" x="24951" y="36054" width="6943" height="6983"/>
       <path fill="none" stroke="rgb(169,169,169)" stroke-width="106" stroke-linejoin="miter" d="M 25005,36500 L 25005,36500 C 25005,36431 25023,36363 25058,36304 25092,36244 25142,36194 25201,36160 25261,36125 25329,36107 25398,36107 L 31447,36108 31447,36108 C 31516,36108 31584,36126 31643,36161 31703,36195 31753,36245 31787,36304 31822,36364 31840,36432 31840,36501 L 31840,36501 31840,42590 31840,42590 C 31840,42659 31822,42727 31787,42786 31753,42846 31703,42896 31644,42930 31584,42965 31516,42983 31447,42983 L 25397,42983 25397,42983 C 25328,42983 25260,42965 25201,42930 25141,42896 25091,42846 25057,42787 25022,42727 25004,42659 25004,42590 L 25005,36500 Z"/>
      </g>
     </g>
     <g class="com.sun.star.drawing.CustomShape">
      <g id="id5">
       <rect class="BoundingBox" stroke="none" fill="none" x="17548" y="36054" width="6943" height="6983"/>
       <path fill="none" stroke="rgb(169,169,169)" stroke-width="106" stroke-linejoin="miter" d="M 17602,36500 L 17602,36500 C 17602,36431 17620,36363 17655,36304 17689,36244 17739,36194 17798,36160 17858,36125 17926,36107 17995,36107 L 24044,36108 24044,36108 C 24113,36108 24181,36126 24240,36161 24300,36195 24350,36245 24384,36304 24419,36364 24437,36432 24437,36501 L 24437,36501 24437,42590 24437,42590 C 24437,42659 24419,42727 24384,42786 24350,42846 24300,42896 24241,42930 24181,42965 24113,42983 24044,42983 L 17994,42983 17994,42983 C 17925,42983 17857,42965 17798,42930 17738,42896 17688,42846 17654,42787 17619,42727 17601,42659 17601,42590 L 17602,36500 Z"/>
      </g>
     </g>
     <g class="com.sun.star.drawing.CustomShape">
      <g id="id6">
       <rect class="BoundingBox" stroke="none" fill="none" x="39757" y="36054" width="6944" height="6983"/>
       <path fill="none" stroke="rgb(169,169,169)" stroke-width="106" stroke-linejoin="miter" d="M 39811,36500 L 39811,36500 C 39811,36431 39829,36363 39864,36304 39898,36244 39948,36194 40007,36160 40067,36125 40135,36107 40204,36107 L 46253,36108 46253,36108 C 46322,36108 46390,36126 46449,36161 46509,36195 46559,36245 46593,36304 46628,36364 46646,36432 46646,36501 L 46646,36501 46646,42590 46646,42590 C 46646,42659 46628,42727 46593,42786 46559,42846 46509,42896 46450,42930 46390,42965 46322,42983 46253,42983 L 40203,42983 40203,42983 C 40134,42983 40066,42965 40007,42930 39947,42896 39897,42846 39863,42787 39828,42727 39810,42659 39810,42590 L 39811,36500 Z"/>
      </g>
     </g>
     <g class="com.sun.star.drawing.CustomShape">
      <g id="id7">
       <rect class="BoundingBox" stroke="none" fill="none" x="32354" y="36054" width="6943" height="6983"/>
       <path fill="none" stroke="rgb(169,169,169)" stroke-width="106" stroke-linejoin="miter" d="M 32408,36500 L 32408,36500 C 32408,36431 32426,36363 32461,36304 32495,36244 32545,36194 32604,36160 32664,36125 32732,36107 32801,36107 L 38850,36108 38850,36108 C 38919,36108 38987,36126 39046,36161 39106,36195 39156,36245 39190,36304 39225,36364 39243,36432 39243,36501 L 39243,36501 39243,42590 39243,42590 C 39243,42659 39225,42727 39190,42786 39156,42846 39106,42896 39047,42930 38987,42965 38919,42983 38850,42983 L 32800,42983 32800,42983 C 32731,42983 32663,42965 32604,42930 32544,42896 32494,42846 32460,42787 32425,42727 32407,42659 32407,42590 L 32408,36500 Z"/>
      </g>
     </g>
     <g class="com.sun.star.drawing.CustomShape">
      <g id="id8">
       <rect class="BoundingBox" stroke="none" fill="none" x="54563" y="36054" width="6944" height="6983"/>
       <path fill="none" stroke="rgb(169,169,169)" stroke-width="106" stroke-linejoin="miter" d="M 54617,36500 L 54617,36500 C 54617,36431 54635,36363 54670,36304 54704,36244 54754,36194 54813,36160 54873,36125 54941,36107 55010,36107 L 61059,36108 61059,36108 C 61128,36108 61196,36126 61255,36161 61315,36195 61365,36245 61399,36304 61434,36364 61452,36432 61452,36501 L 61452,36501 61452,42590 61452,42590 C 61452,42659 61434,42727 61399,42786 61365,42846 61315,42896 61256,42930 61196,42965 61128,42983 61059,42983 L 55009,42983 55009,42983 C 54940,42983 54872,42965 54813,42930 54753,42896 54703,42846 54669,42787 54634,42727 54616,42659 54616,42590 L 54617,36500 Z"/>
      </g>
     </g>
     <g class="com.sun.star.drawing.CustomShape">
      <g id="id9">
       <rect class="BoundingBox" stroke="none" fill="none" x="47160" y="36054" width="6943" height="6983"/>
       <path fill="none" stroke="rgb(169,169,169)" stroke-width="106" stroke-linejoin="miter" d="M 47214,36500 L 47214,36500 C 47214,36431 47232,36363 47267,36304 47301,36244 47351,36194 47410,36160 47470,36125 47538,36107 47607,36107 L 53656,36108 53656,36108 C 53725,36108 53793,36126 53852,36161 53912,36195 53962,36245 53996,36304 54031,36364 54049,36432 54049,36501 L 54049,36501 54049,42590 54049,42590 C 54049,42659 54031,42727 53996,42786 53962,42846 53912,42896 53853,42930 53793,42965 53725,42983 53656,42983 L 47606,42983 47606,42983 C 47537,42983 47469,42965 47410,42930 47350,42896 47300,42846 47266,42787 47231,42727 47213,42659 47213,42590 L 47214,36500 Z"/>
      </g>
     </g>
     <g class="com.sun.star.drawing.CustomShape">
      <g id="id10">
       <rect class="BoundingBox" stroke="none" fill="none" x="69369" y="36054" width="6943" height="6983"/>
       <path fill="none" stroke="rgb(169,169,169)" stroke-width="106" stroke-linejoin="miter" d="M 69423,36500 L 69423,36500 C 69423,36431 69441,36363 69476,36304 69510,36244 69560,36194 69619,36160 69679,36125 69747,36107 69816,36107 L 75865,36108 75865,36108 C 75934,36108 76002,36126 76061,36161 76121,36195 76171,36245 76205,36304 76240,36364 76258,36432 76258,36501 L 76258,36501 76258,42590 76258,42590 C 76258,42659 76240,42727 76205,42786 76171,42846 76121,42896 76062,42930 76002,42965 75934,42983 75865,42983 L 69815,42983 69815,42983 C 69746,42983 69678,42965 69619,42930 69559,42896 69509,42846 69475,42787 69440,42727 69422,42659 69422,42590 L 69423,36500 Z"/>
      </g>
     </g>
     <g class="com.sun.star.drawing.CustomShape">
      <g id="id11">
       <rect class="BoundingBox" stroke="none" fill="none" x="61966" y="36054" width="6944" height="6983"/>
       <path fill="none" stroke="rgb(169,169,169)" stroke-width="106" stroke-linejoin="miter" d="M 62020,36500 L 62020,36500 C 62020,36431 62038,36363 62073,36304 62107,36244 62157,36194 62216,36160 62276,36125 62344,36107 62413,36107 L 68462,36108 68462,36108 C 68531,36108 68599,36126 68658,36161 68718,36195 68768,36245 68802,36304 68837,36364 68855,36432 68855,36501 L 68855,36501 68855,42590 68855,42590 C 68855,42659 68837,42727 68802,42786 68768,42846 68718,42896 68659,42930 68599,42965 68531,42983 68462,42983 L 62412,42983 62412,42983 C 62343,42983 62275,42965 62216,42930 62156,42896 62106,42846 62072,42787 62037,42727 62019,42659 62019,42590 L 62020,36500 Z"/>
      </g>
     </g>
     <g class="com.sun.star.drawing.CustomShape">
      <g id="id12">
       <rect class="BoundingBox" stroke="none" fill="none" x="84175" y="36054" width="6943" height="6983"/>
       <path fill="none" stroke="rgb(169,169,169)" stroke-width="106" stroke-linejoin="miter" d="M 84229,36500 L 84229,36500 C 84229,36431 84247,36363 84282,36304 84316,36244 84366,36194 84425,36160 84485,36125 84553,36107 84622,36107 L 90671,36108 90671,36108 C 90740,36108 90808,36126 90867,36161 90927,36195 90977,36245 91011,36304 91046,36364 91064,36432 91064,36501 L 91064,36501 91064,42590 91064,42590 C 91064,42659 91046,42727 91011,42786 90977,42846 90927,42896 90868,42930 90808,42965 90740,42983 90671,42983 L 84621,42983 84621,42983 C 84552,42983 84484,42965 84425,42930 84365,42896 84315,42846 84281,42787 84246,42727 84228,42659 84228,42590 L 84229,36500 Z"/>
      </g>
     </g>
     <g class="com.sun.star.drawing.CustomShape">
      <g id="id13">
       <rect class="BoundingBox" stroke="none" fill="none" x="76772" y="36054" width="6943" height="6983"/>
       <path fill="none" stroke="rgb(169,169,169)" stroke-width="106" stroke-linejoin="miter" d="M 76826,36500 L 76826,36500 C 76826,36431 76844,36363 76879,36304 76913,36244 76963,36194 77022,36160 77082,36125 77150,36107 77219,36107 L 83268,36108 83268,36108 C 83337,36108 83405,36126 83464,36161 83524,36195 83574,36245 83608,36304 83643,36364 83661,36432 83661,36501 L 83661,36501 83661,42590 83661,42590 C 83661,42659 83643,42727 83608,42786 83574,42846 83524,42896 83465,42930 83405,42965 83337,42983 83268,42983 L 77218,42983 77218,42983 C 77149,42983 77081,42965 77022,42930 76962,42896 76912,42846 76878,42787 76843,42727 76825,42659 76825,42590 L 76826,36500 Z"/>
      </g>
     </g>
     <g class="com.sun.star.drawing.CustomShape">
      <g id="id14">
       <rect class="BoundingBox" stroke="none" fill="none" x="98981" y="36054" width="6943" height="6983"/>
       <path fill="none" stroke="rgb(169,169,169)" stroke-width="106" stroke-linejoin="miter" d="M 99035,36500 L 99035,36500 C 99035,36431 99053,36363 99088,36304 99122,36244 99172,36194 99231,36160 99291,36125 99359,36107 99428,36107 L 105477,36108 105477,36108 C 105546,36108 105614,36126 105673,36161 105733,36195 105783,36245 105817,36304 105852,36364 105870,36432 105870,36501 L 105870,36501 105870,42590 105870,42590 C 105870,42659 105852,42727 105817,42786 105783,42846 105733,42896 105674,42930 105614,42965 105546,42983 105477,42983 L 99427,42983 99427,42983 C 99358,42983 99290,42965 99231,42930 99171,42896 99121,42846 99087,42787 99052,42727 99034,42659 99034,42590 L 99035,36500 Z"/>
      </g>
     </g>
     <g class="com.sun.star.drawing.CustomShape">
      <g id="id15">
       <rect class="BoundingBox" stroke="none" fill="none" x="91578" y="36054" width="6943" height="6983"/>
       <path fill="none" stroke="rgb(169,169,169)" stroke-width="106" stroke-linejoin="miter" d="M 91632,36500 L 91632,36500 C 91632,36431 91650,36363 91685,36304 91719,36244 91769,36194 91828,36160 91888,36125 91956,36107 92025,36107 L 98074,36108 98074,36108 C 98143,36108 98211,36126 98270,36161 98330,36195 98380,36245 98414,36304 98449,36364 98467,36432 98467,36501 L 98467,36501 98467,42590 98467,42590 C 98467,42659 98449,42727 98414,42786 98380,42846 98330,42896 98271,42930 98211,42965 98143,42983 98074,42983 L 92024,42983 92024,42983 C 91955,42983 91887,42965 91828,42930 91768,42896 91718,42846 91684,42787 91649,42727 91631,42659 91631,42590 L 91632,36500 Z"/>
      </g>
     </g>
    </g>
    <g class="Group">
     <g class="com.sun.star.drawing.CustomShape">
      <g id="id16">
       <rect class="BoundingBox" stroke="none" fill="none" x="24951" y="13407" width="6943" height="6983"/>
       <path fill="none" stroke="rgb(169,169,169)" stroke-width="106" stroke-linejoin="miter" d="M 25005,13853 L 25005,13853 C 25005,13784 25023,13716 25058,13657 25092,13597 25142,13547 25201,13513 25261,13478 25329,13460 25398,13460 L 31447,13461 31447,13461 C 31516,13461 31584,13479 31643,13514 31703,13548 31753,13598 31787,13657 31822,13717 31840,13785 31840,13854 L 31840,13854 31840,19943 31840,19943 C 31840,20012 31822,20080 31787,20139 31753,20199 31703,20249 31644,20283 31584,20318 31516,20336 31447,20336 L 25397,20336 25397,20336 C 25328,20336 25260,20318 25201,20283 25141,20249 25091,20199 25057,20140 25022,20080 25004,20012 25004,19943 L 25005,13853 Z"/>
      </g>
     </g>
     <g class="com.sun.star.drawing.CustomShape">
      <g id="id17">
       <rect class="BoundingBox" stroke="none" fill="none" x="39757" y="13407" width="6944" height="6983"/>
       <path fill="none" stroke="rgb(169,169,169)" stroke-width="106" stroke-linejoin="miter" d="M 39811,13853 L 39811,13853 C 39811,13784 39829,13716 39864,13657 39898,13597 39948,13547 40007,13513 40067,13478 40135,13460 40204,13460 L 46253,13461 46253,13461 C 46322,13461 46390,13479 46449,13514 46509,13548 46559,13598 46593,13657 46628,13717 46646,13785 46646,13854 L 46646,13854 46646,19943 46646,19943 C 46646,20012 46628,20080 46593,20139 46559,20199 46509,20249 46450,20283 46390,20318 46322,20336 46253,20336 L 40203,20336 40203,20336 C 40134,20336 40066,20318 40007,20283 39947,20249 39897,20199 39863,20140 39828,20080 39810,20012 39810,19943 L 39811,13853 Z"/>
      </g>
     </g>
     <g class="com.sun.star.drawing.CustomShape">
      <g id="id18">
       <rect class="BoundingBox" stroke="none" fill="none" x="32354" y="13407" width="6943" height="6983"/>
       <path fill="none" stroke="rgb(169,169,169)" stroke-width="106" stroke-linejoin="miter" d="M 32408,13853 L 32408,13853 C 32408,13784 32426,13716 32461,13657 32495,13597 32545,13547 32604,13513 32664,13478 32732,13460 32801,13460 L 38850,13461 38850,13461 C 38919,13461 38987,13479 39046,13514 39106,13548 39156,13598 39190,13657 39225,13717 39243,13785 39243,13854 L 39243,13854 39243,19943 39243,19943 C 39243,20012 39225,20080 39190,20139 39156,20199 39106,20249 39047,20283 38987,20318 38919,20336 38850,20336 L 32800,20336 32800,20336 C 32731,20336 32663,20318 32604,20283 32544,20249 32494,20199 32460,20140 32425,20080 32407,20012 32407,19943 L 32408,13853 Z"/>
      </g>
     </g>
     <g class="com.sun.star.drawing.CustomShape">
      <g id="id19">
       <rect class="BoundingBox" stroke="none" fill="none" x="54563" y="13407" width="6944" height="6983"/>
       <path fill="none" stroke="rgb(169,169,169)" stroke-width="106" stroke-linejoin="miter" d="M 54617,13853 L 54617,13853 C 54617,13784 54635,13716 54670,13657 54704,13597 54754,13547 54813,13513 54873,13478 54941,13460 55010,13460 L 61059,13461 61059,13461 C 61128,13461 61196,13479 61255,13514 61315,13548 61365,13598 61399,13657 61434,13717 61452,13785 61452,13854 L 61452,13854 61452,19943 61452,19943 C 61452,20012 61434,20080 61399,20139 61365,20199 61315,20249 61256,20283 61196,20318 61128,20336 61059,20336 L 55009,20336 55009,20336 C 54940,20336 54872,20318 54813,20283 54753,20249 54703,20199 54669,20140 54634,20080 54616,20012 54616,19943 L 54617,13853 Z"/>
      </g>
     </g>
     <g class="com.sun.star.drawing.CustomShape">
      <g id="id20">
       <rect class="BoundingBox" stroke="none" fill="none" x="47160" y="13407" width="6943" height="6983"/>
       <path fill="none" stroke="rgb(169,169,169)" stroke-width="106" stroke-linejoin="miter" d="M 47214,13853 L 47214,13853 C 47214,13784 47232,13716 47267,13657 47301,13597 47351,13547 47410,13513 47470,13478 47538,13460 47607,13460 L 53656,13461 53656,13461 C 53725,13461 53793,13479 53852,13514 53912,13548 53962,13598 53996,13657 54031,13717 54049,13785 54049,13854 L 54049,13854 54049,19943 54049,19943 C 54049,20012 54031,20080 53996,20139 53962,20199 53912,20249 53853,20283 53793,20318 53725,20336 53656,20336 L 47606,20336 47606,20336 C 47537,20336 47469,20318 47410,20283 47350,20249 47300,20199 47266,20140 47231,20080 47213,20012 47213,19943 L 47214,13853 Z"/>
      </g>
     </g>
     <g class="com.sun.star.drawing.CustomShape">
      <g id="id21">
       <rect class="BoundingBox" stroke="none" fill="none" x="69369" y="13407" width="6943" height="6983"/>
       <path fill="none" stroke="rgb(169,169,169)" stroke-width="106" stroke-linejoin="miter" d="M 69423,13853 L 69423,13853 C 69423,13784 69441,13716 69476,13657 69510,13597 69560,13547 69619,13513 69679,13478 69747,13460 69816,13460 L 75865,13461 75865,13461 C 75934,13461 76002,13479 76061,13514 76121,13548 76171,13598 76205,13657 76240,13717 76258,13785 76258,13854 L 76258,13854 76258,19943 76258,19943 C 76258,20012 76240,20080 76205,20139 76171,20199 76121,20249 76062,20283 76002,20318 75934,20336 75865,20336 L 69815,20336 69815,20336 C 69746,20336 69678,20318 69619,20283 69559,20249 69509,20199 69475,20140 69440,20080 69422,20012 69422,19943 L 69423,13853 Z"/>
      </g>
     </g>
     <g class="com.sun.star.drawing.CustomShape">
      <g id="id22">
       <rect class="BoundingBox" stroke="none" fill="none" x="61966" y="13407" width="6944" height="6983"/>
       <path fill="none" stroke="rgb(169,169,169)" stroke-width="106" stroke-linejoin="miter" d="M 62020,13853 L 62020,13853 C 62020,13784 62038,13716 62073,13657 62107,13597 62157,13547 62216,13513 62276,13478 62344,13460 62413,13460 L 68462,13461 68462,13461 C 68531,13461 68599,13479 68658,13514 68718,13548 68768,13598 68802,13657 68837,13717 68855,13785 68855,13854 L 68855,13854 68855,19943 68855,19943 C 68855,20012 68837,20080 68802,20139 68768,20199 68718,20249 68659,20283 68599,20318 68531,20336 68462,20336 L 62412,20336 62412,20336 C 62343,20336 62275,20318 62216,20283 62156,20249 62106,20199 62072,20140 62037,20080 62019,20012 62019,19943 L 62020,13853 Z"/>
      </g>
     </g>
     <g class="com.sun.star.drawing.CustomShape">
      <g id="id23">
       <rect class="BoundingBox" stroke="none" fill="none" x="84175" y="13407" width="6943" height="6983"/>
       <path fill="none" stroke="rgb(169,169,169)" stroke-width="106" stroke-linejoin="miter" d="M 84229,13853 L 84229,13853 C 84229,13784 84247,13716 84282,13657 84316,13597 84366,13547 84425,13513 84485,13478 84553,13460 84622,13460 L 90671,13461 90671,13461 C 90740,13461 90808,13479 90867,13514 90927,13548 90977,13598 91011,13657 91046,13717 91064,13785 91064,13854 L 91064,13854 91064,19943 91064,19943 C 91064,20012 91046,20080 91011,20139 90977,20199 90927,20249 90868,20283 90808,20318 90740,20336 90671,20336 L 84621,20336 84621,20336 C 84552,20336 84484,20318 84425,20283 84365,20249 84315,20199 84281,20140 84246,20080 84228,20012 84228,19943 L 84229,13853 Z"/>
      </g>
     </g>
     <g class="com.sun.star.drawing.CustomShape">
      <g id="id24">
       <rect class="BoundingBox" stroke="none" fill="none" x="76772" y="13407" width="6943" height="6983"/>
       <path fill="none" stroke="rgb(169,169,169)" stroke-width="106" stroke-linejoin="miter" d="M 76826,13853 L 76826,13853 C 76826,13784 76844,13716 76879,13657 76913,13597 76963,13547 77022,13513 77082,13478 77150,13460 77219,13460 L 83268,13461 83268,13461 C 83337,13461 83405,13479 83464,13514 83524,13548 83574,13598 83608,13657 83643,13717 83661,13785 83661,13854 L 83661,13854 83661,19943 83661,19943 C 83661,20012 83643,20080 83608,20139 83574,20199 83524,20249 83465,20283 83405,20318 83337,20336 83268,20336 L 77218,20336 77218,20336 C 77149,20336 77081,20318 77022,20283 76962,20249 76912,20199 76878,20140 76843,20080 76825,20012 76825,19943 L 76826,13853 Z"/>
      </g>
     </g>
     <g class="com.sun.star.drawing.CustomShape">
      <g id="id25">
       <rect class="BoundingBox" stroke="none" fill="none" x="98981" y="13407" width="6943" height="6983"/>
       <path fill="none" stroke="rgb(169,169,169)" stroke-width="106" stroke-linejoin="miter" d="M 99035,13853 L 99035,13853 C 99035,13784 99053,13716 99088,13657 99122,13597 99172,13547 99231,13513 99291,13478 99359,13460 99428,13460 L 105477,13461 105477,13461 C 105546,13461 105614,13479 105673,13514 105733,13548 105783,13598 105817,13657 105852,13717 105870,13785 105870,13854 L 105870,13854 105870,19943 105870,19943 C 105870,20012 105852,20080 105817,20139 105783,20199 105733,20249 105674,20283 105614,20318 105546,20336 105477,20336 L 99427,20336 99427,20336 C 99358,20336 99290,20318 99231,20283 99171,20249 99121,20199 99087,20140 99052,20080 99034,20012 99034,19943 L 99035,13853 Z"/>
      </g>
     </g>
     <g class="com.sun.star.drawing.CustomShape">
      <g id="id26">
       <rect class="BoundingBox" stroke="none" fill="none" x="91578" y="13407" width="6943" height="6983"/>
       <path fill="none" stroke="rgb(169,169,169)" stroke-width="106" stroke-linejoin="miter" d="M 91632,13853 L 91632,13853 C 91632,13784 91650,13716 91685,13657 91719,13597 91769,13547 91828,13513 91888,13478 91956,13460 92025,13460 L 98074,13461 98074,13461 C 98143,13461 98211,13479 98270,13514 98330,13548 98380,13598 98414,13657 98449,13717 98467,13785 98467,13854 L 98467,13854 98467,19943 98467,19943 C 98467,20012 98449,20080 98414,20139 98380,20199 98330,20249 98271,20283 98211,20318 98143,20336 98074,20336 L 92024,20336 92024,20336 C 91955,20336 91887,20318 91828,20283 91768,20249 91718,20199 91684,20140 91649,20080 91631,20012 91631,19943 L 91632,13853 Z"/>
      </g>
     </g>
     <g class="com.sun.star.drawing.CustomShape">
      <g id="id27">
       <rect class="BoundingBox" stroke="none" fill="none" x="17543" y="13407" width="6943" height="6983"/>
       <path fill="none" stroke="rgb(169,169,169)" stroke-width="106" stroke-linejoin="miter" d="M 17597,13853 L 17597,13853 C 17597,13784 17615,13716 17650,13657 17684,13597 17734,13547 17793,13513 17853,13478 17921,13460 17990,13460 L 24039,13461 24039,13461 C 24108,13461 24176,13479 24235,13514 24295,13548 24345,13598 24379,13657 24414,13717 24432,13785 24432,13854 L 24432,13854 24432,19943 24432,19943 C 24432,20012 24414,20080 24379,20139 24345,20199 24295,20249 24236,20283 24176,20318 24108,20336 24039,20336 L 17989,20336 17989,20336 C 17920,20336 17852,20318 17793,20283 17733,20249 17683,20199 17649,20140 17614,20080 17596,20012 17596,19943 L 17597,13853 Z"/>
      </g>
     </g>
    </g>
    <g class="Group">
     <g class="com.sun.star.drawing.CustomShape">
      <g id="id28">
       <rect class="BoundingBox" stroke="none" fill="none" x="24951" y="28505" width="6943" height="6983"/>
       <path fill="none" stroke="rgb(169,169,169)" stroke-width="106" stroke-linejoin="miter" d="M 25005,28951 L 25005,28951 C 25005,28882 25023,28814 25058,28755 25092,28695 25142,28645 25201,28611 25261,28576 25329,28558 25398,28558 L 31447,28559 31447,28559 C 31516,28559 31584,28577 31643,28612 31703,28646 31753,28696 31787,28755 31822,28815 31840,28883 31840,28952 L 31840,28952 31840,35041 31840,35041 C 31840,35110 31822,35178 31787,35237 31753,35297 31703,35347 31644,35381 31584,35416 31516,35434 31447,35434 L 25397,35434 25397,35434 C 25328,35434 25260,35416 25201,35381 25141,35347 25091,35297 25057,35238 25022,35178 25004,35110 25004,35041 L 25005,28951 Z"/>
      </g>
     </g>
     <g class="com.sun.star.drawing.CustomShape">
      <g id="id29">
       <rect class="BoundingBox" stroke="none" fill="none" x="17548" y="28505" width="6943" height="6983"/>
       <path fill="none" stroke="rgb(169,169,169)" stroke-width="106" stroke-linejoin="miter" d="M 17602,28951 L 17602,28951 C 17602,28882 17620,28814 17655,28755 17689,28695 17739,28645 17798,28611 17858,28576 17926,28558 17995,28558 L 24044,28559 24044,28559 C 24113,28559 24181,28577 24240,28612 24300,28646 24350,28696 24384,28755 24419,28815 24437,28883 24437,28952 L 24437,28952 24437,35041 24437,35041 C 24437,35110 24419,35178 24384,35237 24350,35297 24300,35347 24241,35381 24181,35416 24113,35434 24044,35434 L 17994,35434 17994,35434 C 17925,35434 17857,35416 17798,35381 17738,35347 17688,35297 17654,35238 17619,35178 17601,35110 17601,35041 L 17602,28951 Z"/>
      </g>
     </g>
     <g class="com.sun.star.drawing.CustomShape">
      <g id="id30">
       <rect class="BoundingBox" stroke="none" fill="none" x="39757" y="28505" width="6944" height="6983"/>
       <path fill="none" stroke="rgb(169,169,169)" stroke-width="106" stroke-linejoin="miter" d="M 39811,28951 L 39811,28951 C 39811,28882 39829,28814 39864,28755 39898,28695 39948,28645 40007,28611 40067,28576 40135,28558 40204,28558 L 46253,28559 46253,28559 C 46322,28559 46390,28577 46449,28612 46509,28646 46559,28696 46593,28755 46628,28815 46646,28883 46646,28952 L 46646,28952 46646,35041 46646,35041 C 46646,35110 46628,35178 46593,35237 46559,35297 46509,35347 46450,35381 46390,35416 46322,35434 46253,35434 L 40203,35434 40203,35434 C 40134,35434 40066,35416 40007,35381 39947,35347 39897,35297 39863,35238 39828,35178 39810,35110 39810,35041 L 39811,28951 Z"/>
      </g>
     </g>
     <g class="com.sun.star.drawing.CustomShape">
      <g id="id31">
       <rect class="BoundingBox" stroke="none" fill="none" x="32354" y="28505" width="6943" height="6983"/>
       <path fill="none" stroke="rgb(169,169,169)" stroke-width="106" stroke-linejoin="miter" d="M 32408,28951 L 32408,28951 C 32408,28882 32426,28814 32461,28755 32495,28695 32545,28645 32604,28611 32664,28576 32732,28558 32801,28558 L 38850,28559 38850,28559 C 38919,28559 38987,28577 39046,28612 39106,28646 39156,28696 39190,28755 39225,28815 39243,28883 39243,28952 L 39243,28952 39243,35041 39243,35041 C 39243,35110 39225,35178 39190,35237 39156,35297 39106,35347 39047,35381 38987,35416 38919,35434 38850,35434 L 32800,35434 32800,35434 C 32731,35434 32663,35416 32604,35381 32544,35347 32494,35297 32460,35238 32425,35178 32407,35110 32407,35041 L 32408,28951 Z"/>
      </g>
     </g>
     <g class="com.sun.star.drawing.CustomShape">
      <g id="id32">
       <rect class="BoundingBox" stroke="none" fill="none" x="54563" y="28505" width="6944" height="6983"/>
       <path fill="none" stroke="rgb(169,169,169)" stroke-width="106" stroke-linejoin="miter" d="M 54617,28951 L 54617,28951 C 54617,28882 54635,28814 54670,28755 54704,28695 54754,28645 54813,28611 54873,28576 54941,28558 55010,28558 L 61059,28559 61059,28559 C 61128,28559 61196,28577 61255,28612 61315,28646 61365,28696 61399,28755 61434,28815 61452,28883 61452,28952 L 61452,28952 61452,35041 61452,35041 C 61452,35110 61434,35178 61399,35237 61365,35297 61315,35347 61256,35381 61196,35416 61128,35434 61059,35434 L 55009,35434 55009,35434 C 54940,35434 54872,35416 54813,35381 54753,35347 54703,35297 54669,35238 54634,35178 54616,35110 54616,35041 L 54617,28951 Z"/>
      </g>
     </g>
     <g class="com.sun.star.drawing.CustomShape">
      <g id="id33">
       <rect class="BoundingBox" stroke="none" fill="none" x="47160" y="28505" width="6943" height="6983"/>
       <path fill="none" stroke="rgb(169,169,169)" stroke-width="106" stroke-linejoin="miter" d="M 47214,28951 L 47214,28951 C 47214,28882 47232,28814 47267,28755 47301,28695 47351,28645 47410,28611 47470,28576 47538,28558 47607,28558 L 53656,28559 53656,28559 C 53725,28559 53793,28577 53852,28612 53912,28646 53962,28696 53996,28755 54031,28815 54049,28883 54049,28952 L 54049,28952 54049,35041 54049,35041 C 54049,35110 54031,35178 53996,35237 53962,35297 53912,35347 53853,35381 53793,35416 53725,35434 53656,35434 L 47606,35434 47606,35434 C 47537,35434 47469,35416 47410,35381 47350,35347 47300,35297 47266,35238 47231,35178 47213,35110 47213,35041 L 47214,28951 Z"/>
      </g>
     </g>
     <g class="com.sun.star.drawing.CustomShape">
      <g id="id34">
       <rect class="BoundingBox" stroke="none" fill="none" x="69369" y="28505" width="6943" height="6983"/>
       <path fill="none" stroke="rgb(169,169,169)" stroke-width="106" stroke-linejoin="miter" d="M 69423,28951 L 69423,28951 C 69423,28882 69441,28814 69476,28755 69510,28695 69560,28645 69619,28611 69679,28576 69747,28558 69816,28558 L 75865,28559 75865,28559 C 75934,28559 76002,28577 76061,28612 76121,28646 76171,28696 76205,28755 76240,28815 76258,28883 76258,28952 L 76258,28952 76258,35041 76258,35041 C 76258,35110 76240,35178 76205,35237 76171,35297 76121,35347 76062,35381 76002,35416 75934,35434 75865,35434 L 69815,35434 69815,35434 C 69746,35434 69678,35416 69619,35381 69559,35347 69509,35297 69475,35238 69440,35178 69422,35110 69422,35041 L 69423,28951 Z"/>
      </g>
     </g>
     <g class="com.sun.star.drawing.CustomShape">
      <g id="id35">
       <rect class="BoundingBox" stroke="none" fill="none" x="61966" y="28505" width="6944" height="6983"/>
       <path fill="none" stroke="rgb(169,169,169)" stroke-width="106" stroke-linejoin="miter" d="M 62020,28951 L 62020,28951 C 62020,28882 62038,28814 62073,28755 62107,28695 62157,28645 62216,28611 62276,28576 62344,28558 62413,28558 L 68462,28559 68462,28559 C 68531,28559 68599,28577 68658,28612 68718,28646 68768,28696 68802,28755 68837,28815 68855,28883 68855,28952 L 68855,28952 68855,35041 68855,35041 C 68855,35110 68837,35178 68802,35237 68768,35297 68718,35347 68659,35381 68599,35416 68531,35434 68462,35434 L 62412,35434 62412,35434 C 62343,35434 62275,35416 62216,35381 62156,35347 62106,35297 62072,35238 62037,35178 62019,35110 62019,35041 L 62020,28951 Z"/>
      </g>
     </g>
     <g class="com.sun.star.drawing.CustomShape">
      <g id="id36">
       <rect class="BoundingBox" stroke="none" fill="none" x="84175" y="28505" width="6943" height="6983"/>
       <path fill="none" stroke="rgb(169,169,169)" stroke-width="106" stroke-linejoin="miter" d="M 84229,28951 L 84229,28951 C 84229,28882 84247,28814 84282,28755 84316,28695 84366,28645 84425,28611 84485,28576 84553,28558 84622,28558 L 90671,28559 90671,28559 C 90740,28559 90808,28577 90867,28612 90927,28646 90977,28696 91011,28755 91046,28815 91064,28883 91064,28952 L 91064,28952 91064,35041 91064,35041 C 91064,35110 91046,35178 91011,35237 90977,35297 90927,35347 90868,35381 90808,35416 90740,35434 90671,35434 L 84621,35434 84621,35434 C 84552,35434 84484,35416 84425,35381 84365,35347 84315,35297 84281,35238 84246,35178 84228,35110 84228,35041 L 84229,28951 Z"/>
      </g>
     </g>
     <g class="com.sun.star.drawing.CustomShape">
      <g id="id37">
       <rect class="BoundingBox" stroke="none" fill="none" x="76772" y="28505" width="6943" height="6983"/>
       <path fill="none" stroke="rgb(169,169,169)" stroke-width="106" stroke-linejoin="miter" d="M 76826,28951 L 76826,28951 C 76826,28882 76844,28814 76879,28755 76913,28695 76963,28645 77022,28611 77082,28576 77150,28558 77219,28558 L 83268,28559 83268,28559 C 83337,28559 83405,28577 83464,28612 83524,28646 83574,28696 83608,28755 83643,28815 83661,28883 83661,28952 L 83661,28952 83661,35041 83661,35041 C 83661,35110 83643,35178 83608,35237 83574,35297 83524,35347 83465,35381 83405,35416 83337,35434 83268,35434 L 77218,35434 77218,35434 C 77149,35434 77081,35416 77022,35381 76962,35347 76912,35297 76878,35238 76843,35178 76825,35110 76825,35041 L 76826,28951 Z"/>
      </g>
     </g>
     <g class="com.sun.star.drawing.CustomShape">
      <g id="id38">
       <rect class="BoundingBox" stroke="none" fill="none" x="98981" y="28505" width="6943" height="6983"/>
       <path fill="none" stroke="rgb(169,169,169)" stroke-width="106" stroke-linejoin="miter" d="M 99035,28951 L 99035,28951 C 99035,28882 99053,28814 99088,28755 99122,28695 99172,28645 99231,28611 99291,28576 99359,28558 99428,28558 L 105477,28559 105477,28559 C 105546,28559 105614,28577 105673,28612 105733,28646 105783,28696 105817,28755 105852,28815 105870,28883 105870,28952 L 105870,28952 105870,35041 105870,35041 C 105870,35110 105852,35178 105817,35237 105783,35297 105733,35347 105674,35381 105614,35416 105546,35434 105477,35434 L 99427,35434 99427,35434 C 99358,35434 99290,35416 99231,35381 99171,35347 99121,35297 99087,35238 99052,35178 99034,35110 99034,35041 L 99035,28951 Z"/>
      </g>
     </g>
     <g class="com.sun.star.drawing.CustomShape">
      <g id="id39">
       <rect class="BoundingBox" stroke="none" fill="none" x="91578" y="28505" width="6943" height="6983"/>
       <path fill="none" stroke="rgb(169,169,169)" stroke-width="106" stroke-linejoin="miter" d="M 91632,28951 L 91632,28951 C 91632,28882 91650,28814 91685,28755 91719,28695 91769,28645 91828,28611 91888,28576 91956,28558 92025,28558 L 98074,28559 98074,28559 C 98143,28559 98211,28577 98270,28612 98330,28646 98380,28696 98414,28755 98449,28815 98467,28883 98467,28952 L 98467,28952 98467,35041 98467,35041 C 98467,35110 98449,35178 98414,35237 98380,35297 98330,35347 98271,35381 98211,35416 98143,35434 98074,35434 L 92024,35434 92024,35434 C 91955,35434 91887,35416 91828,35381 91768,35347 91718,35297 91684,35238 91649,35178 91631,35110 91631,35041 L 91632,28951 Z"/>
      </g>
     </g>
    </g>
    <g class="Group">
     <g class="com.sun.star.drawing.CustomShape">
      <g id="id40">
       <rect class="BoundingBox" stroke="none" fill="none" x="24951" y="20956" width="6943" height="6983"/>
       <path fill="none" stroke="rgb(169,169,169)" stroke-width="106" stroke-linejoin="miter" d="M 25005,21402 L 25005,21402 C 25005,21333 25023,21265 25058,21206 25092,21146 25142,21096 25201,21062 25261,21027 25329,21009 25398,21009 L 31447,21010 31447,21010 C 31516,21010 31584,21028 31643,21063 31703,21097 31753,21147 31787,21206 31822,21266 31840,21334 31840,21403 L 31840,21403 31840,27492 31840,27492 C 31840,27561 31822,27629 31787,27688 31753,27748 31703,27798 31644,27832 31584,27867 31516,27885 31447,27885 L 25397,27885 25397,27885 C 25328,27885 25260,27867 25201,27832 25141,27798 25091,27748 25057,27689 25022,27629 25004,27561 25004,27492 L 25005,21402 Z"/>
      </g>
     </g>
     <g class="com.sun.star.drawing.CustomShape">
      <g id="id41">
       <rect class="BoundingBox" stroke="none" fill="none" x="17548" y="20956" width="6943" height="6983"/>
       <path fill="none" stroke="rgb(169,169,169)" stroke-width="106" stroke-linejoin="miter" d="M 17602,21402 L 17602,21402 C 17602,21333 17620,21265 17655,21206 17689,21146 17739,21096 17798,21062 17858,21027 17926,21009 17995,21009 L 24044,21010 24044,21010 C 24113,21010 24181,21028 24240,21063 24300,21097 24350,21147 24384,21206 24419,21266 24437,21334 24437,21403 L 24437,21403 24437,27492 24437,27492 C 24437,27561 24419,27629 24384,27688 24350,27748 24300,27798 24241,27832 24181,27867 24113,27885 24044,27885 L 17994,27885 17994,27885 C 17925,27885 17857,27867 17798,27832 17738,27798 17688,27748 17654,27689 17619,27629 17601,27561 17601,27492 L 17602,21402 Z"/>
      </g>
     </g>
     <g class="com.sun.star.drawing.CustomShape">
      <g id="id42">
       <rect class="BoundingBox" stroke="none" fill="none" x="39757" y="20956" width="6944" height="6983"/>
       <path fill="none" stroke="rgb(169,169,169)" stroke-width="106" stroke-linejoin="miter" d="M 39811,21402 L 39811,21402 C 39811,21333 39829,21265 39864,21206 39898,21146 39948,21096 40007,21062 40067,21027 40135,21009 40204,21009 L 46253,21010 46253,21010 C 46322,21010 46390,21028 46449,21063 46509,21097 46559,21147 46593,21206 46628,21266 46646,21334 46646,21403 L 46646,21403 46646,27492 46646,27492 C 46646,27561 46628,27629 46593,27688 46559,27748 46509,27798 46450,27832 46390,27867 46322,27885 46253,27885 L 40203,27885 40203,27885 C 40134,27885 40066,27867 40007,27832 39947,27798 39897,27748 39863,27689 39828,27629 39810,27561 39810,27492 L 39811,21402 Z"/>
      </g>
     </g>
     <g class="com.sun.star.drawing.CustomShape">
      <g id="id43">
       <rect class="BoundingBox" stroke="none" fill="none" x="32354" y="20956" width="6943" height="6983"/>
       <path fill="none" stroke="rgb(169,169,169)" stroke-width="106" stroke-linejoin="miter" d="M 32408,21402 L 32408,21402 C 32408,21333 32426,21265 32461,21206 32495,21146 32545,21096 32604,21062 32664,21027 32732,21009 32801,21009 L 38850,21010 38850,21010 C 38919,21010 38987,21028 39046,21063 39106,21097 39156,21147 39190,21206 39225,21266 39243,21334 39243,21403 L 39243,21403 39243,27492 39243,27492 C 39243,27561 39225,27629 39190,27688 39156,27748 39106,27798 39047,27832 38987,27867 38919,27885 38850,27885 L 32800,27885 32800,27885 C 32731,27885 32663,27867 32604,27832 32544,27798 32494,27748 32460,27689 32425,27629 32407,27561 32407,27492 L 32408,21402 Z"/>
      </g>
     </g>
     <g class="com.sun.star.drawing.CustomShape">
      <g id="id44">
       <rect class="BoundingBox" stroke="none" fill="none" x="54563" y="20956" width="6944" height="6983"/>
       <path fill="none" stroke="rgb(169,169,169)" stroke-width="106" stroke-linejoin="miter" d="M 54617,21402 L 54617,21402 C 54617,21333 54635,21265 54670,21206 54704,21146 54754,21096 54813,21062 54873,21027 54941,21009 55010,21009 L 61059,21010 61059,21010 C 61128,21010 61196,21028 61255,21063 61315,21097 61365,21147 61399,21206 61434,21266 61452,21334 61452,21403 L 61452,21403 61452,27492 61452,27492 C 61452,27561 61434,27629 61399,27688 61365,27748 61315,27798 61256,27832 61196,27867 61128,27885 61059,27885 L 55009,27885 55009,27885 C 54940,27885 54872,27867 54813,27832 54753,27798 54703,27748 54669,27689 54634,27629 54616,27561 54616,27492 L 54617,21402 Z"/>
      </g>
     </g>
     <g class="com.sun.star.drawing.CustomShape">
      <g id="id45">
       <rect class="BoundingBox" stroke="none" fill="none" x="47160" y="20956" width="6943" height="6983"/>
       <path fill="none" stroke="rgb(169,169,169)" stroke-width="106" stroke-linejoin="miter" d="M 47214,21402 L 47214,21402 C 47214,21333 47232,21265 47267,21206 47301,21146 47351,21096 47410,21062 47470,21027 47538,21009 47607,21009 L 53656,21010 53656,21010 C 53725,21010 53793,21028 53852,21063 53912,21097 53962,21147 53996,21206 54031,21266 54049,21334 54049,21403 L 54049,21403 54049,27492 54049,27492 C 54049,27561 54031,27629 53996,27688 53962,27748 53912,27798 53853,27832 53793,27867 53725,27885 53656,27885 L 47606,27885 47606,27885 C 47537,27885 47469,27867 47410,27832 47350,27798 47300,27748 47266,27689 47231,27629 47213,27561 47213,27492 L 47214,21402 Z"/>
      </g>
     </g>
     <g class="com.sun.star.drawing.CustomShape">
      <g id="id46">
       <rect class="BoundingBox" stroke="none" fill="none" x="69369" y="20956" width="6943" height="6983"/>
       <path fill="none" stroke="rgb(169,169,169)" stroke-width="106" stroke-linejoin="miter" d="M 69423,21402 L 69423,21402 C 69423,21333 69441,21265 69476,21206 69510,21146 69560,21096 69619,21062 69679,21027 69747,21009 69816,21009 L 75865,21010 75865,21010 C 75934,21010 76002,21028 76061,21063 76121,21097 76171,21147 76205,21206 76240,21266 76258,21334 76258,21403 L 76258,21403 76258,27492 76258,27492 C 76258,27561 76240,27629 76205,27688 76171,27748 76121,27798 76062,27832 76002,27867 75934,27885 75865,27885 L 69815,27885 69815,27885 C 69746,27885 69678,27867 69619,27832 69559,27798 69509,27748 69475,27689 69440,27629 69422,27561 69422,27492 L 69423,21402 Z"/>
      </g>
     </g>
     <g class="com.sun.star.drawing.CustomShape">
      <g id="id47">
       <rect class="BoundingBox" stroke="none" fill="none" x="61966" y="20956" width="6944" height="6983"/>
       <path fill="none" stroke="rgb(169,169,169)" stroke-width="106" stroke-linejoin="miter" d="M 62020,21402 L 62020,21402 C 62020,21333 62038,21265 62073,21206 62107,21146 62157,21096 62216,21062 62276,21027 62344,21009 62413,21009 L 68462,21010 68462,21010 C 68531,21010 68599,21028 68658,21063 68718,21097 68768,21147 68802,21206 68837,21266 68855,21334 68855,21403 L 68855,21403 68855,27492 68855,27492 C 68855,27561 68837,27629 68802,27688 68768,27748 68718,27798 68659,27832 68599,27867 68531,27885 68462,27885 L 62412,27885 62412,27885 C 62343,27885 62275,27867 62216,27832 62156,27798 62106,27748 62072,27689 62037,27629 62019,27561 62019,27492 L 62020,21402 Z"/>
      </g>
     </g>
     <g class="com.sun.star.drawing.CustomShape">
      <g id="id48">
       <rect class="BoundingBox" stroke="none" fill="none" x="84175" y="20956" width="6943" height="6983"/>
       <path fill="none" stroke="rgb(169,169,169)" stroke-width="106" stroke-linejoin="miter" d="M 84229,21402 L 84229,21402 C 84229,21333 84247,21265 84282,21206 84316,21146 84366,21096 84425,21062 84485,21027 84553,21009 84622,21009 L 90671,21010 90671,21010 C 90740,21010 90808,21028 90867,21063 90927,21097 90977,21147 91011,21206 91046,21266 91064,21334 91064,21403 L 91064,21403 91064,27492 91064,27492 C 91064,27561 91046,27629 91011,27688 90977,27748 90927,27798 90868,27832 90808,27867 90740,27885 90671,27885 L 84621,27885 84621,27885 C 84552,27885 84484,27867 84425,27832 84365,27798 84315,27748 84281,27689 84246,27629 84228,27561 84228,27492 L 84229,21402 Z"/>
      </g>
     </g>
     <g class="com.sun.star.drawing.CustomShape">
      <g id="id49">
       <rect class="BoundingBox" stroke="none" fill="none" x="76772" y="20956" width="6943" height="6983"/>
       <path fill="none" stroke="rgb(169,169,169)" stroke-width="106" stroke-linejoin="miter" d="M 76826,21402 L 76826,21402 C 76826,21333 76844,21265 76879,21206 76913,21146 76963,21096 77022,21062 77082,21027 77150,21009 77219,21009 L 83268,21010 83268,21010 C 83337,21010 83405,21028 83464,21063 83524,21097 83574,21147 83608,21206 83643,21266 83661,21334 83661,21403 L 83661,21403 83661,27492 83661,27492 C 83661,27561 83643,27629 83608,27688 83574,27748 83524,27798 83465,27832 83405,27867 83337,27885 83268,27885 L 77218,27885 77218,27885 C 77149,27885 77081,27867 77022,27832 76962,27798 76912,27748 76878,27689 76843,27629 76825,27561 76825,27492 L 76826,21402 Z"/>
      </g>
     </g>
     <g class="com.sun.star.drawing.CustomShape">
      <g id="id50">
       <rect class="BoundingBox" stroke="none" fill="none" x="98981" y="20956" width="6943" height="6983"/>
       <path fill="none" stroke="rgb(169,169,169)" stroke-width="106" stroke-linejoin="miter" d="M 99035,21402 L 99035,21402 C 99035,21333 99053,21265 99088,21206 99122,21146 99172,21096 99231,21062 99291,21027 99359,21009 99428,21009 L 105477,21010 105477,21010 C 105546,21010 105614,21028 105673,21063 105733,21097 105783,21147 105817,21206 105852,21266 105870,21334 105870,21403 L 105870,21403 105870,27492 105870,27492 C 105870,27561 105852,27629 105817,27688 105783,27748 105733,27798 105674,27832 105614,27867 105546,27885 105477,27885 L 99427,27885 99427,27885 C 99358,27885 99290,27867 99231,27832 99171,27798 99121,27748 99087,27689 99052,27629 99034,27561 99034,27492 L 99035,21402 Z"/>
      </g>
     </g>
     <g class="com.sun.star.drawing.CustomShape">
      <g id="id51">
       <rect class="BoundingBox" stroke="none" fill="none" x="91578" y="20956" width="6943" height="6983"/>
       <path fill="none" stroke="rgb(169,169,169)" stroke-width="106" stroke-linejoin="miter" d="M 91632,21402 L 91632,21402 C 91632,21333 91650,21265 91685,21206 91719,21146 91769,21096 91828,21062 91888,21027 91956,21009 92025,21009 L 98074,21010 98074,21010 C 98143,21010 98211,21028 98270,21063 98330,21097 98380,21147 98414,21206 98449,21266 98467,21334 98467,21403 L 98467,21403 98467,27492 98467,27492 C 98467,27561 98449,27629 98414,27688 98380,27748 98330,27798 98271,27832 98211,27867 98143,27885 98074,27885 L 92024,27885 92024,27885 C 91955,27885 91887,27867 91828,27832 91768,27798 91718,27748 91684,27689 91649,27629 91631,27561 91631,27492 L 91632,21402 Z"/>
      </g>
     </g>
    </g>
   </g>
  </g>
 </g>
</svg>