<?xml version="1.0" encoding="UTF-8"?>
<!DOCTYPE svg PUBLIC "-//W3C//DTD SVG 1.1//EN" "http://www.w3.org/Graphics/SVG/1.1/DTD/svg11.dtd">
<svg version="1.2" viewBox="2624 4025 23286 7629" preserveAspectRatio="xMidYMid" fill-rule="evenodd" stroke-width="28.222" stroke-linejoin="round" xmlns="http://www.w3.org/2000/svg" xmlns:ooo="http://xml.openoffice.org/svg/export" xmlns:xlink="http://www.w3.org/1999/xlink" xmlns:presentation="http://sun.com/xmlns/staroffice/presentation" xmlns:smil="http://www.w3.org/2001/SMIL20/" xmlns:anim="urn:oasis:names:tc:opendocument:xmlns:animation:1.0" xml:space="preserve">
 <defs class="EmbeddedBulletChars">
  <g id="bullet-char-template-57356" transform="scale(0.00048828125,-0.00048828125)">
   <path d="M 580,1141 L 1163,571 580,0 -4,571 580,1141 Z"/>
  </g>
  <g id="bullet-char-template-57354" transform="scale(0.00048828125,-0.00048828125)">
   <path d="M 8,1128 L 1137,1128 1137,0 8,0 8,1128 Z"/>
  </g>
  <g id="bullet-char-template-10146" transform="scale(0.00048828125,-0.00048828125)">
   <path d="M 174,0 L 602,739 174,1481 1456,739 174,0 Z M 1358,739 L 309,1346 659,739 1358,739 Z"/>
  </g>
  <g id="bullet-char-template-10132" transform="scale(0.00048828125,-0.00048828125)">
   <path d="M 2015,739 L 1276,0 717,0 1260,543 174,543 174,936 1260,936 717,1481 1274,1481 2015,739 Z"/>
  </g>
  <g id="bullet-char-template-10007" transform="scale(0.00048828125,-0.00048828125)">
   <path d="M 0,-2 C -7,14 -16,27 -25,37 L 356,567 C 262,823 215,952 215,954 215,979 228,992 255,992 264,992 276,990 289,987 310,991 331,999 354,1012 L 381,999 492,748 772,1049 836,1024 860,1049 C 881,1039 901,1025 922,1006 886,937 835,863 770,784 769,783 710,716 594,584 L 774,223 C 774,196 753,168 711,139 L 727,119 C 717,90 699,76 672,76 641,76 570,178 457,381 L 164,-76 C 142,-110 111,-127 72,-127 30,-127 9,-110 8,-76 1,-67 -2,-52 -2,-32 -2,-23 -1,-13 0,-2 Z"/>
  </g>
  <g id="bullet-char-template-10004" transform="scale(0.00048828125,-0.00048828125)">
   <path d="M 285,-33 C 182,-33 111,30 74,156 52,228 41,333 41,471 41,549 55,616 82,672 116,743 169,778 240,778 293,778 328,747 346,684 L 369,508 C 377,444 397,411 428,410 L 1163,1116 C 1174,1127 1196,1133 1229,1133 1271,1133 1292,1118 1292,1087 L 1292,965 C 1292,929 1282,901 1262,881 L 442,47 C 390,-6 338,-33 285,-33 Z"/>
  </g>
  <g id="bullet-char-template-9679" transform="scale(0.00048828125,-0.00048828125)">
   <path d="M 813,0 C 632,0 489,54 383,161 276,268 223,411 223,592 223,773 276,916 383,1023 489,1130 632,1184 813,1184 992,1184 1136,1130 1245,1023 1353,916 1407,772 1407,592 1407,412 1353,268 1245,161 1136,54 992,0 813,0 Z"/>
  </g>
  <g id="bullet-char-template-8226" transform="scale(0.00048828125,-0.00048828125)">
   <path d="M 346,457 C 273,457 209,483 155,535 101,586 74,649 74,723 74,796 101,859 155,911 209,963 273,989 346,989 419,989 480,963 531,910 582,859 608,796 608,723 608,648 583,586 532,535 482,483 420,457 346,457 Z"/>
  </g>
  <g id="bullet-char-template-8211" transform="scale(0.00048828125,-0.00048828125)">
   <path d="M -4,459 L 1135,459 1135,606 -4,606 -4,459 Z"/>
  </g>
  <g id="bullet-char-template-61548" transform="scale(0.00048828125,-0.00048828125)">
   <path d="M 173,740 C 173,903 231,1043 346,1159 462,1274 601,1332 765,1332 928,1332 1067,1274 1183,1159 1299,1043 1357,903 1357,740 1357,577 1299,437 1183,322 1067,206 928,148 765,148 601,148 462,206 346,322 231,437 173,577 173,740 Z"/>
  </g>
 </defs>
 <g ooo:name="page1" class="Page">
  <g class="com.sun.star.drawing.CustomShape">
   <g id="id3">
    <rect class="BoundingBox" stroke="none" fill="none" x="2624" y="4025" width="23286" height="7629"/>
    <path fill="rgb(0,0,0)" stroke="none" d="M 16594,4028 C 16584,4030 16517,4045 16447,4060 16173,4116 15245,4337 14895,4433 14792,4460 14657,4496 14522,4532 14385,4567 14250,4603 14148,4630 13941,4687 13482,4807 13127,4900 11170,5412 10391,5647 8546,6296 6865,6886 5824,7280 4462,7846 3692,8167 3369,8296 3077,8406 2634,8574 2574,8620 2655,8721 2714,8794 2789,8795 3103,8733 4418,8475 4738,8425 5307,8394 6504,8329 7075,8462 7274,8849 7319,8934 7345,9136 7313,9136 7215,9136 6099,9615 5703,9826 4451,10492 3697,11283 4024,11578 4514,12022 7151,10367 7522,9384 L 7555,9293 7973,9163 C 8816,8900 9169,8809 9801,8691 10445,8571 10754,8556 10789,8640 10819,8713 10503,9043 9958,9505 9645,9771 9350,10043 9272,10141 9208,10222 9205,10254 9262,10303 9339,10374 9355,10365 9711,10043 10015,9766 10042,9740 10250,9568 10460,9394 10762,9109 10858,8994 11211,8568 11036,8310 10440,8362 9809,8418 8755,8657 7888,8937 7808,8964 7734,8987 7680,9004 7626,9020 7590,9029 7589,9028 7588,9025 7583,9013 7579,8995 7575,8977 7568,8952 7563,8925 7429,8291 6651,8051 5114,8170 4844,8191 4245,8268 3988,8318 3925,8330 3978,8304 4209,8207 5690,7587 6919,7117 8680,6500 10479,5869 11237,5637 13242,5114 13631,5012 14126,4882 14341,4824 15067,4629 15472,4525 15870,4433 16570,4272 16687,4242 16720,4202 16754,4162 16749,4112 16723,4076 16696,4039 16648,4017 16594,4028 Z M 16019,8126 C 15715,8160 15397,8299 15098,8516 14800,8733 14523,9029 14302,9379 L 14220,9509 14133,9539 C 12928,9944 11590,10197 11068,10114 10925,10091 10926,10077 11079,9883 11384,9500 11903,9160 12474,8971 12758,8878 12805,8829 12727,8713 12688,8659 12454,8711 12117,8848 11557,9077 10940,9566 10752,9932 10447,10526 11657,10514 13768,9900 13947,9848 14096,9806 14099,9809 14101,9814 14094,9863 14081,9924 14055,10052 14049,10229 14071,10308 14153,10622 14774,10676 15898,10463 16509,10347 16772,10271 18352,9740 19357,9403 19853,9244 19881,9244 19915,9244 19905,9256 19755,9416 19366,9831 19273,9969 19270,10126 L 19270,10209 19316,10249 C 19409,10325 19448,10337 19615,10335 19920,10332 20175,10264 20971,9966 22014,9576 22656,9404 22717,9497 22735,9521 22752,9708 22764,10018 22780,10463 22838,10556 23147,10630 23513,10716 24475,10665 25343,10514 25782,10438 25908,10389 25908,10293 25908,10192 25821,10175 25583,10227 24733,10413 23461,10497 23150,10384 23029,10340 23027,10332 23011,9924 22992,9455 22980,9392 22907,9328 22773,9207 22624,9213 22088,9345 21750,9427 21609,9475 20714,9809 20175,10010 19647,10146 19543,10109 19485,10087 19597,9936 19963,9548 20274,9221 20340,9114 20296,9013 20234,8870 20058,8913 17854,9654 16367,10154 15736,10305 14940,10352 14480,10379 14302,10325 14302,10158 14302,10040 14385,9708 14419,9699 15697,9278 16623,8730 16623,8391 16623,8182 16401,8084 16019,8126 Z M 16347,8379 C 16368,8393 16378,8400 16369,8417 16361,8434 16335,8459 16285,8507 16143,8647 15917,8799 15643,8943 15370,9088 15048,9226 14715,9337 14653,9357 14622,9367 14609,9366 14597,9365 14604,9353 14620,9330 14852,8964 15406,8536 15814,8409 15985,8354 16279,8337 16347,8379 Z M 7195,9493 C 6798,10188 4933,11416 4279,11416 4001,11416 4570,10795 5230,10377 5744,10051 6618,9625 7118,9458 7172,9441 7200,9433 7210,9437 7220,9442 7213,9459 7195,9493 L 7195,9493 Z"/>
   </g>
  </g>
 </g>
</svg>