<?xml version="1.0" standalone="no"?>
<!DOCTYPE svg PUBLIC "-//W3C//DTD SVG 1.1//EN" "http://www.w3.org/Graphics/SVG/1.1/DTD/svg11.dtd" >
<svg xmlns="http://www.w3.org/2000/svg" xmlns:xlink="http://www.w3.org/1999/xlink" version="1.1">
<metadata>
Created by FontForge 20170731 at Wed Feb 16 03:59:27 2022
 By Aleksey,,,
</metadata>
<defs>
<font id="C2022-Regular" horiz-adv-x="250" >
  <font-face 
    font-family="C2022"
    font-weight="400"
    font-stretch="normal"
    units-per-em="1000"
    panose-1="2 0 5 3 0 0 0 0 0 0"
    ascent="800"
    descent="-200"
    cap-height="713"
    bbox="33 -141 801 737"
    underline-thickness="50"
    underline-position="-150"
    unicode-range="U+000D-00A0"
  />
<missing-glyph horiz-adv-x="364" 
d="M33 0v666h265v-666h-265zM66 33h199v600h-199v-600z" />
    <glyph glyph-name=".notdef" horiz-adv-x="364" 
d="M33 0v666h265v-666h-265zM66 33h199v600h-199v-600z" />
    <glyph glyph-name=".null" 
 />
    <glyph glyph-name=".null" 
 />
    <glyph glyph-name="nonmarkingreturn" horiz-adv-x="333" 
 />
    <glyph glyph-name="CR" unicode="&#xd;" 
 />
    <glyph glyph-name="space" unicode=" " 
 />
    <glyph glyph-name="a" unicode="A" horiz-adv-x="366" 
d="M227 467q5 5 14.5 5t13.5 -5q3 -3 7 -37q2 -27 12 -71q1 -3 8 -29t13 -52t11.5 -69.5t5.5 -86.5q0 -13 -9.5 -23t-23.5 -13q-15 -2 -27 10l-13 13l2 65q1 17 1 45q0 42 -9 110q-11 80 -11 113q0 20 5 25zM54 454q7 10 19 10q14 0 20 -11.5t8 -41.5q0 -8 14.5 -151.5
t14.5 -155.5q0 -7 -11 -18q-10 -11 -25 -11q-17 0 -30 13q-12 12 -12 23q0 9 6 25q5 15 9 78q0 6 0.5 16t0.5 15q0 37 -10 114q-8 57 -8 77q0 13 4 18z" />
    <glyph glyph-name="a" unicode="a" horiz-adv-x="366" 
d="M227 467q5 5 14.5 5t13.5 -5q3 -3 7 -37q2 -27 12 -71q1 -3 8 -29t13 -52t11.5 -69.5t5.5 -86.5q0 -13 -9.5 -23t-23.5 -13q-15 -2 -27 10l-13 13l2 65q1 17 1 45q0 42 -9 110q-11 80 -11 113q0 20 5 25zM54 454q7 10 19 10q14 0 20 -11.5t8 -41.5q0 -8 14.5 -151.5
t14.5 -155.5q0 -7 -11 -18q-10 -11 -25 -11q-17 0 -30 13q-12 12 -12 23q0 9 6 25q5 15 9 78q0 6 0.5 16t0.5 15q0 37 -10 114q-8 57 -8 77q0 13 4 18z" />
    <glyph glyph-name="b" unicode="B" horiz-adv-x="522" 
d="M284 679q35 33 45 40t23 7q34 0 34 -30q0 -16 -12.5 -28.5t-50.5 -33.5q-81 -45 -125 -84q-20 -17 -33 -17q-11 0 -16 10q-3 6 -3 12q0 15 17 24q36 21 121 100zM345 437q-22 11 -48 11q-29 0 -52 -16q-16 -11 -44 -40.5t-36 -44.5q-24 -44 -31 -108q-2 -16 -2 -17
q0 -10 15 -25q36 -36 81 -36q39 0 81 22.5t62 52.5q32 50 32 109q0 23 -5 34q-6 16 -22 33.5t-31 24.5zM246 506q12 4 45 4h20q42 -2 61 -10t45 -37q50 -56 50 -118q0 -40 -20 -102q-7 -23 -14 -33t-29 -32q-78 -78 -167 -78q-49 0 -93 27l-20 13l-3 -13q-3 -17 -3 -42
q0 -89 21 -147q8 -24 8 -34q0 -14 -12 -28q-11 -11 -27 -11q-33 0 -39 25q-3 13 -10 67q-5 47 -5 82q0 67 14 162q13 93 26 133t42 78q60 78 110 94z" />
    <glyph glyph-name="b" unicode="b" horiz-adv-x="522" 
d="M284 679q35 33 45 40t23 7q34 0 34 -30q0 -16 -12.5 -28.5t-50.5 -33.5q-81 -45 -125 -84q-20 -17 -33 -17q-11 0 -16 10q-3 6 -3 12q0 15 17 24q36 21 121 100zM345 437q-22 11 -48 11q-29 0 -52 -16q-16 -11 -44 -40.5t-36 -44.5q-24 -44 -31 -108q-2 -16 -2 -17
q0 -10 15 -25q36 -36 81 -36q39 0 81 22.5t62 52.5q32 50 32 109q0 23 -5 34q-6 16 -22 33.5t-31 24.5zM246 506q12 4 45 4h20q42 -2 61 -10t45 -37q50 -56 50 -118q0 -40 -20 -102q-7 -23 -14 -33t-29 -32q-78 -78 -167 -78q-49 0 -93 27l-20 13l-3 -13q-3 -17 -3 -42
q0 -89 21 -147q8 -24 8 -34q0 -14 -12 -28q-11 -11 -27 -11q-33 0 -39 25q-3 13 -10 67q-5 47 -5 82q0 67 14 162q13 93 26 133t42 78q60 78 110 94z" />
    <glyph glyph-name="c" unicode="C" horiz-adv-x="479" 
d="M62 459q8 5 14 5q17 0 27 -31q7 -20 38 -76q20 -36 60 -114q25 -51 31 -51q1 0 4 3q8 11 59 115t56 118q10 31 38 31q16 0 26 -9.5t10 -25.5q0 -17 -18 -35q-51 -52 -124 -244q-18 -45 -27 -56.5t-29 -11.5t-28.5 10.5t-15.5 42.5q-8 40 -21 72t-56 121q-51 103 -51 123
q0 8 7 13z" />
    <glyph glyph-name="c" unicode="c" horiz-adv-x="479" 
d="M62 459q8 5 14 5q17 0 27 -31q7 -20 38 -76q20 -36 60 -114q25 -51 31 -51q1 0 4 3q8 11 59 115t56 118q10 31 38 31q16 0 26 -9.5t10 -25.5q0 -17 -18 -35q-51 -52 -124 -244q-18 -45 -27 -56.5t-29 -11.5t-28.5 10.5t-15.5 42.5q-8 40 -21 72t-56 121q-51 103 -51 123
q0 8 7 13z" />
    <glyph glyph-name="d" unicode="D" horiz-adv-x="478" 
d="M197 697q13 12 29 12q14 0 23 -9.5t9 -24.5q0 -11 -8.5 -22t-42.5 -47q-47 -49 -68 -72q-14 -17 -22 -17q-4 0 -6 1q-19 5 -19 20q0 14 17 37q5 7 24 36t37 53.5t27 32.5zM291 695q11 8 21 8q19 0 33 -29q8 -16 32 -84.5t34 -103.5q15 -50 15 -104q0 -58 -18 -123
q-22 -82 -65 -125q-57 -55 -121 -58h-14q-23 0 -48 12q-50 25 -78.5 78.5t-28.5 120.5q0 27 4 48q7 43 39 89t67 63q24 12 55 12q26 0 43 -9q16 -8 30 -20.5t15 -18.5v-7q0 -21 -17 -21q-11 0 -22 5q-28 12 -46 12q-29 0 -59 -37q-27 -32 -34 -50.5t-9 -59.5
q0 -4 -0.5 -11.5t-0.5 -10.5q0 -61 37 -98q29 -30 58 -30q5 0 19 2q96 18 131 158q8 34 8 62q0 50 -29 150q-33 114 -55 132q-7 5 -7 22t11 26z" />
    <glyph glyph-name="d" unicode="d" horiz-adv-x="478" 
d="M197 697q13 12 29 12q14 0 23 -9.5t9 -24.5q0 -11 -8.5 -22t-42.5 -47q-47 -49 -68 -72q-14 -17 -22 -17q-4 0 -6 1q-19 5 -19 20q0 14 17 37q5 7 24 36t37 53.5t27 32.5zM291 695q11 8 21 8q19 0 33 -29q8 -16 32 -84.5t34 -103.5q15 -50 15 -104q0 -58 -18 -123
q-22 -82 -65 -125q-57 -55 -121 -58h-14q-23 0 -48 12q-50 25 -78.5 78.5t-28.5 120.5q0 27 4 48q7 43 39 89t67 63q24 12 55 12q26 0 43 -9q16 -8 30 -20.5t15 -18.5v-7q0 -21 -17 -21q-11 0 -22 5q-28 12 -46 12q-29 0 -59 -37q-27 -32 -34 -50.5t-9 -59.5
q0 -4 -0.5 -11.5t-0.5 -10.5q0 -61 37 -98q29 -30 58 -30q5 0 19 2q96 18 131 158q8 34 8 62q0 50 -29 150q-33 114 -55 132q-7 5 -7 22t11 26z" />
    <glyph glyph-name="e" unicode="E" horiz-adv-x="577" 
d="M108 465q18 12 35 12q33 0 51 -43q9 -20 22 -75q33 -140 77 -204q11 -17 11 -28q0 -9 -7 -20q-7 -10 -23 -10q-12 0 -19 6q-7 5 -31 75q-69 206 -97 225q-1 0 -3 1q-17 0 -29 -16q-7 -7 -20 -7q-10 0 -15 5t-5 14t18.5 31.5t34.5 33.5zM308 450q0 11 8.5 19t20.5 8
q24 0 30 -38q8 -58 40 -128q4 -10 17 -40.5t18 -42.5q19 -46 51 -95q29 -42 29 -54q0 -4 -1 -7q-4 -31 -33 -31q-32 0 -43 35q-1 4 -6.5 16.5t-15 37.5t-16.5 41q-36 85 -67.5 174t-31.5 105z" />
    <glyph glyph-name="e" unicode="e" horiz-adv-x="577" 
d="M108 465q18 12 35 12q33 0 51 -43q9 -20 22 -75q33 -140 77 -204q11 -17 11 -28q0 -9 -7 -20q-7 -10 -23 -10q-12 0 -19 6q-7 5 -31 75q-69 206 -97 225q-1 0 -3 1q-17 0 -29 -16q-7 -7 -20 -7q-10 0 -15 5t-5 14t18.5 31.5t34.5 33.5zM308 450q0 11 8.5 19t20.5 8
q24 0 30 -38q8 -58 40 -128q4 -10 17 -40.5t18 -42.5q19 -46 51 -95q29 -42 29 -54q0 -4 -1 -7q-4 -31 -33 -31q-32 0 -43 35q-1 4 -6.5 16.5t-15 37.5t-16.5 41q-36 85 -67.5 174t-31.5 105z" />
    <glyph glyph-name="f" unicode="F" horiz-adv-x="519" 
d="M89 681q4 10 12 10q9 0 12.5 -5.5t3.5 -21.5q0 -5 -2 -37q-7 -77 -7 -163q0 -184 29 -244q10 -21 35 -47t43 -35q25 -13 66 -13q17 0 30 3q18 5 40 25t32 42q19 40 19 96q0 3 -0.5 7.5t-0.5 6.5q-4 38 -52 83q-38 37 -89 45q-17 3 -26 3q-10 0 -28 -5q-33 -10 -43 -10
q-8 0 -16 5q-11 7 -11 24q0 16 10 26q19 18 84 18q48 0 79.5 -10t66.5 -36q56 -42 79 -89q10 -22 10 -74q0 -74 -24 -122q-53 -105 -169 -105q-3 0 -9.5 0.5t-10.5 0.5q-39 2 -66.5 16t-57.5 47q-48 50 -66 121q-10 43 -10 109q0 75 5 127q4 43 15.5 115.5t16.5 86.5z" />
    <glyph glyph-name="f" unicode="f" horiz-adv-x="519" 
d="M89 681q4 10 12 10q9 0 12.5 -5.5t3.5 -21.5q0 -5 -2 -37q-7 -77 -7 -163q0 -184 29 -244q10 -21 35 -47t43 -35q25 -13 66 -13q17 0 30 3q18 5 40 25t32 42q19 40 19 96q0 3 -0.5 7.5t-0.5 6.5q-4 38 -52 83q-38 37 -89 45q-17 3 -26 3q-10 0 -28 -5q-33 -10 -43 -10
q-8 0 -16 5q-11 7 -11 24q0 16 10 26q19 18 84 18q48 0 79.5 -10t66.5 -36q56 -42 79 -89q10 -22 10 -74q0 -74 -24 -122q-53 -105 -169 -105q-3 0 -9.5 0.5t-10.5 0.5q-39 2 -66.5 16t-57.5 47q-48 50 -66 121q-10 43 -10 109q0 75 5 127q4 43 15.5 115.5t16.5 86.5z" />
    <glyph glyph-name="g" unicode="G" horiz-adv-x="484" 
d="M308 718q3 1 8 1q11 0 19.5 -7.5t8.5 -18.5q0 -10 -24 -45q-49 -72 -57 -83q-33 -49 -44 -53q-6 -3 -13 -3q-13 0 -22.5 10t-9.5 24q0 20 28 35q12 6 35.5 36t43.5 66t27 38zM61 493q5 5 17 5q14 0 16 -5q4 -4 17 -34q14 -31 49.5 -97t44.5 -83l29 -56l15 25
q17 29 60.5 119t45.5 101q5 26 35 26q26 0 35 -18q4 -7 4 -17q0 -19 -15 -31q-24 -20 -61 -95q-65 -130 -79 -182q-12 -37 -43 -38q-21 0 -30.5 13t-19.5 58q-15 67 -104 240q-21 40 -21 56q0 8 5 13z" />
    <glyph glyph-name="g" unicode="g" horiz-adv-x="484" 
d="M308 718q3 1 8 1q11 0 19.5 -7.5t8.5 -18.5q0 -10 -24 -45q-49 -72 -57 -83q-33 -49 -44 -53q-6 -3 -13 -3q-13 0 -22.5 10t-9.5 24q0 20 28 35q12 6 35.5 36t43.5 66t27 38zM61 493q5 5 17 5q14 0 16 -5q4 -4 17 -34q14 -31 49.5 -97t44.5 -83l29 -56l15 25
q17 29 60.5 119t45.5 101q5 26 35 26q26 0 35 -18q4 -7 4 -17q0 -19 -15 -31q-24 -20 -61 -95q-65 -130 -79 -182q-12 -37 -43 -38q-21 0 -30.5 13t-19.5 58q-15 67 -104 240q-21 40 -21 56q0 8 5 13z" />
    <glyph glyph-name="h" unicode="H" horiz-adv-x="582" 
d="M264 512q9 8 24 8q17 0 28 -10q12 -10 13 -31q9 -127 24.5 -179t56.5 -95l25 -26l37 3q24 2 26 2q12 0 20 -11q9 -12 9 -22q0 -8 -4 -16q-5 -11 -15 -16t-38 -9q-16 -3 -29 -3q-28 0 -48 17t-47 62q-30 50 -64 176l-14 54l-20 -30q-26 -41 -85 -158q-50 -97 -60 -113
t-20 -17h-6q-21 0 -21 21q0 13 136 247q52 89 58 120q3 17 14 26z" />
    <glyph glyph-name="h" unicode="h" horiz-adv-x="582" 
d="M264 512q9 8 24 8q17 0 28 -10q12 -10 13 -31q9 -127 24.5 -179t56.5 -95l25 -26l37 3q24 2 26 2q12 0 20 -11q9 -12 9 -22q0 -8 -4 -16q-5 -11 -15 -16t-38 -9q-16 -3 -29 -3q-28 0 -48 17t-47 62q-30 50 -64 176l-14 54l-20 -30q-26 -41 -85 -158q-50 -97 -60 -113
t-20 -17h-6q-21 0 -21 21q0 13 136 247q52 89 58 120q3 17 14 26z" />
    <glyph glyph-name="i" unicode="I" horiz-adv-x="529" 
d="M259 710q8 3 13 3q13 0 22 -9.5t9 -23.5q0 -8 -3 -17q-2 -7 -54 -51q-54 -46 -102 -96q-50 -52 -58 -52q-11 0 -19.5 8t-8.5 18q0 13 35 47q33 32 87 93q65 75 79 80zM341 687q11 8 25 8q9 0 13 -2q15 -6 57 -128q25 -74 33 -107.5t8 -69.5q0 -4 -0.5 -14.5t-0.5 -16.5
q-9 -209 -140 -273q-30 -15 -65 -15q-38 0 -58 10q-47 23 -75 71t-31 112q0 4 -0.5 12t-0.5 12q0 78 52 144q50 63 110 63q12 0 19 -1q21 -3 46.5 -22t25.5 -32q0 -22 -19 -22q-13 0 -29 8q-19 9 -36 9q-21 0 -34 -12q-37 -32 -56 -69q-14 -28 -15 -72v-9q0 -65 30 -99
q29 -35 68 -35q21 0 41 8q36 13 59.5 44t41.5 87q12 37 12 85q0 36 -3.5 55.5t-23.5 86.5q-22 74 -30 94t-22 37q-12 14 -12 31q0 15 10 22zM274 341q6 3 14 3q23 0 35 -12q11 -11 11 -27q0 -19 -12 -31t-30 -12t-31 12q-12 10 -12 27q0 26 25 40z" />
    <glyph glyph-name="i" unicode="i" horiz-adv-x="529" 
d="M259 710q8 3 13 3q13 0 22 -9.5t9 -23.5q0 -8 -3 -17q-2 -7 -54 -51q-54 -46 -102 -96q-50 -52 -58 -52q-11 0 -19.5 8t-8.5 18q0 13 35 47q33 32 87 93q65 75 79 80zM341 687q11 8 25 8q9 0 13 -2q15 -6 57 -128q25 -74 33 -107.5t8 -69.5q0 -4 -0.5 -14.5t-0.5 -16.5
q-9 -209 -140 -273q-30 -15 -65 -15q-38 0 -58 10q-47 23 -75 71t-31 112q0 4 -0.5 12t-0.5 12q0 78 52 144q50 63 110 63q12 0 19 -1q21 -3 46.5 -22t25.5 -32q0 -22 -19 -22q-13 0 -29 8q-19 9 -36 9q-21 0 -34 -12q-37 -32 -56 -69q-14 -28 -15 -72v-9q0 -65 30 -99
q29 -35 68 -35q21 0 41 8q36 13 59.5 44t41.5 87q12 37 12 85q0 36 -3.5 55.5t-23.5 86.5q-22 74 -30 94t-22 37q-12 14 -12 31q0 15 10 22zM274 341q6 3 14 3q23 0 35 -12q11 -11 11 -27q0 -19 -12 -31t-30 -12t-31 12q-12 10 -12 27q0 26 25 40z" />
    <glyph glyph-name="j" unicode="J" horiz-adv-x="452" 
d="M243 711q10 5 18 3q18 -6 18 -21q0 -16 -23 -50q-85 -121 -98 -132q-7 -7 -14 -7l-15 5q-20 9 -20 26q0 20 26 37q16 10 39.5 40t41.5 63q16 31 27 36zM166 488q36 11 63 11q79 0 118 -86q13 -28 14 -62v-13q0 -40 -21 -75.5t-90 -116.5q-14 -16 -12 -16q1 0 8 2
q43 16 81 42q21 15 38 15q13 0 22 -9q10 -10 10 -24t-9 -25.5t-23 -11.5q-15 0 -84 -30.5t-74 -39.5q-3 -6 -22.5 -11.5t-35.5 -5.5q-2 0 -4 0.5t-3 0.5q-14 3 -22 14t-8 25q0 18 12 28q10 10 17 10q21 0 81.5 75.5t71.5 115.5q5 16 5 38q0 56 -43 92q-16 15 -36 15
q-14 0 -41 -6q-51 -11 -81 -40q-13 -11 -24 -11q-18 0 -18 18q0 16 36 42t74 39zM179 339q12 11 29 11q27 0 36 -30q5 -17 -2 -30q-12 -22 -36 -22q-17 0 -29 11.5t-12 30.5q0 18 14 29z" />
    <glyph glyph-name="j" unicode="j" horiz-adv-x="452" 
d="M243 711q10 5 18 3q18 -6 18 -21q0 -16 -23 -50q-85 -121 -98 -132q-7 -7 -14 -7l-15 5q-20 9 -20 26q0 20 26 37q16 10 39.5 40t41.5 63q16 31 27 36zM166 488q36 11 63 11q79 0 118 -86q13 -28 14 -62v-13q0 -40 -21 -75.5t-90 -116.5q-14 -16 -12 -16q1 0 8 2
q43 16 81 42q21 15 38 15q13 0 22 -9q10 -10 10 -24t-9 -25.5t-23 -11.5q-15 0 -84 -30.5t-74 -39.5q-3 -6 -22.5 -11.5t-35.5 -5.5q-2 0 -4 0.5t-3 0.5q-14 3 -22 14t-8 25q0 18 12 28q10 10 17 10q21 0 81.5 75.5t71.5 115.5q5 16 5 38q0 56 -43 92q-16 15 -36 15
q-14 0 -41 -6q-51 -11 -81 -40q-13 -11 -24 -11q-18 0 -18 18q0 16 36 42t74 39zM179 339q12 11 29 11q27 0 36 -30q5 -17 -2 -30q-12 -22 -36 -22q-17 0 -29 11.5t-12 30.5q0 18 14 29z" />
    <glyph glyph-name="k" unicode="K" horiz-adv-x="855" 
d="M252 488q8 6 19 6q30 0 43 -26q5 -7 18 -77q38 -193 79 -244q5 -5 7 -5q4 0 19 15q38 36 98 170q36 80 54.5 106t46.5 37q14 6 28 6q19 0 36 -10q24 -16 48 -112q22 -93 45 -133q8 -14 8 -23q0 -10 -13 -20q-10 -6 -22 -3q-8 2 -12 7t-9 22q-44 141 -62 180
q-15 31 -21 31q-2 0 -4 -1q-34 -11 -55.5 -42.5t-63.5 -133.5q-30 -72 -41 -93.5t-24 -36.5q-26 -29 -51 -29q-31 0 -50 39q-6 11 -44 123q-59 179 -75 179q-9 0 -53.5 -84.5t-85.5 -179.5q-16 -36 -21 -43t-16 -7q-22 0 -22 18q0 22 156 300q30 57 40 64z" />
    <glyph glyph-name="k" unicode="k" horiz-adv-x="855" 
d="M252 488q8 6 19 6q30 0 43 -26q5 -7 18 -77q38 -193 79 -244q5 -5 7 -5q4 0 19 15q38 36 98 170q36 80 54.5 106t46.5 37q14 6 28 6q19 0 36 -10q24 -16 48 -112q22 -93 45 -133q8 -14 8 -23q0 -10 -13 -20q-10 -6 -22 -3q-8 2 -12 7t-9 22q-44 141 -62 180
q-15 31 -21 31q-2 0 -4 -1q-34 -11 -55.5 -42.5t-63.5 -133.5q-30 -72 -41 -93.5t-24 -36.5q-26 -29 -51 -29q-31 0 -50 39q-6 11 -44 123q-59 179 -75 179q-9 0 -53.5 -84.5t-85.5 -179.5q-16 -36 -21 -43t-16 -7q-22 0 -22 18q0 22 156 300q30 57 40 64z" />
    <glyph glyph-name="l" unicode="L" horiz-adv-x="507" 
d="M227 521q24 8 68 8q47 0 68 -10q43 -20 67 -77t24 -140q0 -48 -5 -74.5t-21 -57.5l-11 -21l13 -14q21 -21 21 -76v-21q-2 -36 -4.5 -48.5t-17.5 -41.5q-25 -51 -32.5 -60t-22.5 -9q-35 0 -35 28q0 16 15 34q37 45 37 89q0 15 -5 33q-3 11 -6 13.5t-12 2.5
q-14 0 -27.5 11.5t-13.5 25.5q0 11 6 24.5t10 13.5t22.5 29.5t26.5 49.5q9 24 9 57q0 42 -12 84q-12 41 -24.5 60t-31.5 27q-15 7 -28 7q-9 0 -30 -3q-37 -4 -61.5 -17.5t-53.5 -43.5q-44 -46 -53 -93q-4 -19 -4 -56q0 -45 6 -77q4 -24 4 -29q0 -19 -14 -24q-1 0 -2.5 -0.5
t-2.5 -0.5q-17 0 -23 15q-11 43 -18 120q0 3 -0.5 8.5t-0.5 8.5q0 66 22 112q16 34 65 77t88 56z" />
    <glyph glyph-name="l" unicode="l" horiz-adv-x="507" 
d="M227 521q24 8 68 8q47 0 68 -10q43 -20 67 -77t24 -140q0 -48 -5 -74.5t-21 -57.5l-11 -21l13 -14q21 -21 21 -76v-21q-2 -36 -4.5 -48.5t-17.5 -41.5q-25 -51 -32.5 -60t-22.5 -9q-35 0 -35 28q0 16 15 34q37 45 37 89q0 15 -5 33q-3 11 -6 13.5t-12 2.5
q-14 0 -27.5 11.5t-13.5 25.5q0 11 6 24.5t10 13.5t22.5 29.5t26.5 49.5q9 24 9 57q0 42 -12 84q-12 41 -24.5 60t-31.5 27q-15 7 -28 7q-9 0 -30 -3q-37 -4 -61.5 -17.5t-53.5 -43.5q-44 -46 -53 -93q-4 -19 -4 -56q0 -45 6 -77q4 -24 4 -29q0 -19 -14 -24q-1 0 -2.5 -0.5
t-2.5 -0.5q-17 0 -23 15q-11 43 -18 120q0 3 -0.5 8.5t-0.5 8.5q0 66 22 112q16 34 65 77t88 56z" />
    <glyph glyph-name="m" unicode="M" horiz-adv-x="564" 
d="M68 697q10 11 41 11q27 0 85 -6q71 -9 263 -13q30 0 40 -5t10 -19q0 -16 -15 -19.5t-92 -3.5h-64l-158 1l8 -11q10 -12 46 -60q91 -121 132.5 -208.5t50.5 -179.5q2 -24 2 -37q0 -77 -18 -123l-10 -30t-9 -26q-13 -39 -33 -43l-2 -1h-3q-9 0 -19.5 5.5t-13.5 12.5
q-3 8 -3 16q0 16 15 34q40 47 51 111q3 17 3 38q0 47 -12 101q-21 99 -94.5 207.5t-152.5 157.5q-38 24 -48.5 35t-10.5 27q0 17 11 28z" />
    <glyph glyph-name="m" unicode="m" horiz-adv-x="564" 
d="M68 697q10 11 41 11q27 0 85 -6q71 -9 263 -13q30 0 40 -5t10 -19q0 -16 -15 -19.5t-92 -3.5h-64l-158 1l8 -11q10 -12 46 -60q91 -121 132.5 -208.5t50.5 -179.5q2 -24 2 -37q0 -77 -18 -123l-10 -30t-9 -26q-13 -39 -33 -43l-2 -1h-3q-9 0 -19.5 5.5t-13.5 12.5
q-3 8 -3 16q0 16 15 34q40 47 51 111q3 17 3 38q0 47 -12 101q-21 99 -94.5 207.5t-152.5 157.5q-38 24 -48.5 35t-10.5 27q0 17 11 28z" />
    <glyph glyph-name="n" unicode="N" horiz-adv-x="521" 
d="M248 542q14 2 20 2q24 0 48 -14.5t60 -50.5q55 -55 73.5 -105t18.5 -147v-10q0 -52 -2 -71t-11 -47q-11 -35 -44.5 -103.5t-47.5 -84.5q-13 -14 -26 -14q-18 0 -18 21q0 6 1 10q2 13 33 64q38 64 52.5 107.5t14.5 95.5q0 12 -2 46q-5 52 -10.5 77.5t-19.5 54.5
q-26 52 -71 82q-37 24 -58 24q-4 0 -14 -2q-24 -5 -69.5 -42t-58.5 -61q-21 -40 -21 -124q0 -46 5 -78q5 -38 5 -47q0 -10 -3 -13q-6 -6 -14 -6q-11 0 -16 8q-5 10 -13.5 72.5t-8.5 92.5q0 68 25 118q24 47 77.5 92.5t94.5 52.5z" />
    <glyph glyph-name="n" unicode="n" horiz-adv-x="521" 
d="M248 542q14 2 20 2q24 0 48 -14.5t60 -50.5q55 -55 73.5 -105t18.5 -147v-10q0 -52 -2 -71t-11 -47q-11 -35 -44.5 -103.5t-47.5 -84.5q-13 -14 -26 -14q-18 0 -18 21q0 6 1 10q2 13 33 64q38 64 52.5 107.5t14.5 95.5q0 12 -2 46q-5 52 -10.5 77.5t-19.5 54.5
q-26 52 -71 82q-37 24 -58 24q-4 0 -14 -2q-24 -5 -69.5 -42t-58.5 -61q-21 -40 -21 -124q0 -46 5 -78q5 -38 5 -47q0 -10 -3 -13q-6 -6 -14 -6q-11 0 -16 8q-5 10 -13.5 72.5t-8.5 92.5q0 68 25 118q24 47 77.5 92.5t94.5 52.5z" />
    <glyph glyph-name="o" unicode="O" horiz-adv-x="451" 
d="M203 717q10 9 26 9q17 0 28.5 -12.5t11.5 -30.5q0 -11 -6 -23q-12 -22 -37 -22q-27 0 -37 24q-4 12 -4 18q0 22 18 37zM73 445q81 61 153 61q50 0 83 -33q51 -51 51 -122q0 -9 -2 -25q-6 -34 -26.5 -67t-67.5 -86q-27 -31 -27 -35h1q6 0 41.5 18t48.5 28q14 13 33 13
q22 0 31 -20q4 -8 4 -17q0 -29 -42 -37q-34 -5 -133 -55q-46 -23 -70 -23q-43 0 -43 35q0 29 34 44q27 11 72 62t67 94q17 33 17 65q0 14 -2 21q-6 28 -23.5 52t-37.5 32q-6 2 -15 2q-34 0 -72 -14q-22 -7 -44 -24q-20 -15 -33 -15q-15 0 -15 22q0 11 17 24z" />
    <glyph glyph-name="o" unicode="o" horiz-adv-x="451" 
d="M203 717q10 9 26 9q17 0 28.5 -12.5t11.5 -30.5q0 -11 -6 -23q-12 -22 -37 -22q-27 0 -37 24q-4 12 -4 18q0 22 18 37zM73 445q81 61 153 61q50 0 83 -33q51 -51 51 -122q0 -9 -2 -25q-6 -34 -26.5 -67t-67.5 -86q-27 -31 -27 -35h1q6 0 41.5 18t48.5 28q14 13 33 13
q22 0 31 -20q4 -8 4 -17q0 -29 -42 -37q-34 -5 -133 -55q-46 -23 -70 -23q-43 0 -43 35q0 29 34 44q27 11 72 62t67 94q17 33 17 65q0 14 -2 21q-6 28 -23.5 52t-37.5 32q-6 2 -15 2q-34 0 -72 -14q-22 -7 -44 -24q-20 -15 -33 -15q-15 0 -15 22q0 11 17 24z" />
    <glyph glyph-name="p" unicode="P" horiz-adv-x="521" 
d="M346 432q-27 12 -55 12q-7 0 -17 -2q-22 -5 -58 -39t-52 -65q-23 -45 -30 -108q-1 -6 -1 -14q0 -10 15 -25q35 -35 78 -35q36 0 80 22q62 31 84 88q13 34 13 73q0 26 -6 38q-19 40 -51 55zM247 501q17 6 49 6q55 0 79 -12q18 -9 43.5 -37t36.5 -51q12 -25 12 -66
q0 -112 -66 -173q-78 -72 -159 -72q-53 0 -93 25q-24 15 -27 8q-3 -6 -3 -39q0 -70 7 -107q5 -30 15 -56q7 -21 7 -29q0 -15 -12 -27q-10 -10 -26 -10q-14 0 -25.5 7t-14.5 18q-4 15 -10 70.5t-6 84.5q0 48 12.5 144t24.5 135q18 62 80 127q40 42 76 54z" />
    <glyph glyph-name="p" unicode="p" horiz-adv-x="521" 
d="M346 432q-27 12 -55 12q-7 0 -17 -2q-22 -5 -58 -39t-52 -65q-23 -45 -30 -108q-1 -6 -1 -14q0 -10 15 -25q35 -35 78 -35q36 0 80 22q62 31 84 88q13 34 13 73q0 26 -6 38q-19 40 -51 55zM247 501q17 6 49 6q55 0 79 -12q18 -9 43.5 -37t36.5 -51q12 -25 12 -66
q0 -112 -66 -173q-78 -72 -159 -72q-53 0 -93 25q-24 15 -27 8q-3 -6 -3 -39q0 -70 7 -107q5 -30 15 -56q7 -21 7 -29q0 -15 -12 -27q-10 -10 -26 -10q-14 0 -25.5 7t-14.5 18q-4 15 -10 70.5t-6 84.5q0 48 12.5 144t24.5 135q18 62 80 127q40 42 76 54z" />
    <glyph glyph-name="q" unicode="Q" horiz-adv-x="516" 
d="M254 642q7 5 27 5q40 0 40 -39q0 -20 -12.5 -32t-32.5 -12q-18 0 -31 14q-11 13 -11 24q0 10 6.5 23t13.5 17zM326 437q-18 6 -34 6q-38 0 -91 -53q-48 -50 -63 -114q-11 -50 -11 -58q0 -10 15 -27q34 -36 78 -36q32 0 77 20q57 28 80 72q23 46 23 86q0 28 -10 47
q-9 18 -28 35t-36 22zM251 501q19 6 47 6t54 -7q27 -8 55 -38q32 -33 43.5 -58.5t11.5 -62.5q0 -75 -28 -127q-23 -44 -85 -82.5t-113 -38.5q-48 0 -95 28l-25 15v-62q0 -61 4 -75q26 -88 26 -106q0 -14 -10 -23q-13 -11 -29 -11q-17 0 -26 10q-20 19 -26 156q-2 44 -2 54
q0 33 9 101q16 119 34.5 165t72.5 103q37 40 82 53z" />
    <glyph glyph-name="q" unicode="q" horiz-adv-x="516" 
d="M254 642q7 5 27 5q40 0 40 -39q0 -20 -12.5 -32t-32.5 -12q-18 0 -31 14q-11 13 -11 24q0 10 6.5 23t13.5 17zM326 437q-18 6 -34 6q-38 0 -91 -53q-48 -50 -63 -114q-11 -50 -11 -58q0 -10 15 -27q34 -36 78 -36q32 0 77 20q57 28 80 72q23 46 23 86q0 28 -10 47
q-9 18 -28 35t-36 22zM251 501q19 6 47 6t54 -7q27 -8 55 -38q32 -33 43.5 -58.5t11.5 -62.5q0 -75 -28 -127q-23 -44 -85 -82.5t-113 -38.5q-48 0 -95 28l-25 15v-62q0 -61 4 -75q26 -88 26 -106q0 -14 -10 -23q-13 -11 -29 -11q-17 0 -26 10q-20 19 -26 156q-2 44 -2 54
q0 33 9 101q16 119 34.5 165t72.5 103q37 40 82 53z" />
    <glyph glyph-name="r" unicode="R" horiz-adv-x="419" 
d="M240 411q-25 14 -37 14q-5 0 -15 -4q-24 -13 -40.5 -36.5t-31.5 -67.5q-11 -35 -11 -82q0 -31 6 -43q15 -28 75 -33q3 0 8 -0.5t7 -0.5q17 0 39 11q68 33 68 119q0 31 -7 50q-6 17 -25 40t-36 33zM165 483q9 6 22 6q34 0 80 -30.5t70 -69.5q28 -46 28 -105
q0 -89 -56 -139q-42 -39 -106 -43h-15q-110 0 -133 72q-4 11 -4 34q0 40 10 93t25 84q14 29 42 56q27 25 27 31q0 4 10 11z" />
    <glyph glyph-name="r" unicode="r" horiz-adv-x="419" 
d="M240 411q-25 14 -37 14q-5 0 -15 -4q-24 -13 -40.5 -36.5t-31.5 -67.5q-11 -35 -11 -82q0 -31 6 -43q15 -28 75 -33q3 0 8 -0.5t7 -0.5q17 0 39 11q68 33 68 119q0 31 -7 50q-6 17 -25 40t-36 33zM165 483q9 6 22 6q34 0 80 -30.5t70 -69.5q28 -46 28 -105
q0 -89 -56 -139q-42 -39 -106 -43h-15q-110 0 -133 72q-4 11 -4 34q0 40 10 93t25 84q14 29 42 56q27 25 27 31q0 4 10 11z" />
    <glyph glyph-name="s" unicode="S" horiz-adv-x="451" 
d="M202 518q10 2 19 2q39 0 63 -14q35 -20 56 -60.5t21 -84.5q0 -23 -6 -42q-9 -28 -38.5 -68.5t-54.5 -69.5t-25 -31h1q6 0 36.5 15.5t49.5 27.5q24 17 39 17q14 0 23 -11.5t9 -25.5q0 -15 -8 -23q-11 -11 -43 -16q-27 -7 -93 -39q-78 -37 -99 -37q-14 0 -19.5 2.5
t-13.5 11.5q-10 10 -10 24q0 13 9 24t22 14q14 3 54 43.5t61 72.5q25 37 33.5 60.5t8.5 50.5q0 26 -6 41t-25 36q-23 27 -48 27q-12 0 -28 -3q-47 -8 -90 -39q-15 -10 -27 -10q-17 0 -17 22q0 11 20 26q54 39 126 57z" />
    <glyph glyph-name="s" unicode="s" horiz-adv-x="451" 
d="M202 518q10 2 19 2q39 0 63 -14q35 -20 56 -60.5t21 -84.5q0 -23 -6 -42q-9 -28 -38.5 -68.5t-54.5 -69.5t-25 -31h1q6 0 36.5 15.5t49.5 27.5q24 17 39 17q14 0 23 -11.5t9 -25.5q0 -15 -8 -23q-11 -11 -43 -16q-27 -7 -93 -39q-78 -37 -99 -37q-14 0 -19.5 2.5
t-13.5 11.5q-10 10 -10 24q0 13 9 24t22 14q14 3 54 43.5t61 72.5q25 37 33.5 60.5t8.5 50.5q0 26 -6 41t-25 36q-23 27 -48 27q-12 0 -28 -3q-47 -8 -90 -39q-15 -10 -27 -10q-17 0 -17 22q0 11 20 26q54 39 126 57z" />
    <glyph glyph-name="t" unicode="T" horiz-adv-x="476" 
d="M287 702q11 11 22 11q22 0 39 -37q11 -23 42 -119q22 -67 26.5 -88t6.5 -58v-15q0 -59 -14.5 -120t-37.5 -97q-32 -50 -90 -79q-28 -14 -66 -14q-36 0 -61 13q-19 11 -44 35q-57 60 -57 163q0 52 11.5 84t43.5 71q48 58 105 58q36 0 68 -24q25 -19 25 -35q0 -5 -3 -9
q-5 -8 -19 -8q-13 0 -25 6q-20 10 -39 10q-18 0 -30 -9q-40 -31 -62 -78q-11 -23 -11 -72t11 -72q23 -46 53 -60q12 -6 28 -6q25 0 54 13.5t48 34.5q25 28 41.5 80t16.5 102q0 29 -4 48.5t-21 80.5q-35 118 -57 145q-11 13 -11 23q0 11 11 22z" />
    <glyph glyph-name="t" unicode="t" horiz-adv-x="476" 
d="M287 702q11 11 22 11q22 0 39 -37q11 -23 42 -119q22 -67 26.5 -88t6.5 -58v-15q0 -59 -14.5 -120t-37.5 -97q-32 -50 -90 -79q-28 -14 -66 -14q-36 0 -61 13q-19 11 -44 35q-57 60 -57 163q0 52 11.5 84t43.5 71q48 58 105 58q36 0 68 -24q25 -19 25 -35q0 -5 -3 -9
q-5 -8 -19 -8q-13 0 -25 6q-20 10 -39 10q-18 0 -30 -9q-40 -31 -62 -78q-11 -23 -11 -72t11 -72q23 -46 53 -60q12 -6 28 -6q25 0 54 13.5t48 34.5q25 28 41.5 80t16.5 102q0 29 -4 48.5t-21 80.5q-35 118 -57 145q-11 13 -11 23q0 11 11 22z" />
    <glyph glyph-name="u" unicode="U" horiz-adv-x="477" 
d="M286 699q7 10 24 10q16 0 23 -9q15 -17 50 -121t40 -148q2 -24 2 -38q0 -118 -48 -209q-12 -21 -40 -47t-51 -37q-38 -18 -77 -18q-8 0 -22 2q-46 10 -81 52.5t-48 101.5q-5 25 -5 54q0 48 10 78q10 33 42 73.5t59 53.5q19 8 46 10q3 0 8 0.5t7 0.5q15 0 33 -9
q48 -25 48 -50q0 -9 -5 -14q-5 -6 -12 -6q-9 0 -28 9q-18 8 -41 8q-17 0 -23.5 -4t-27.5 -25q-30 -32 -40 -54.5t-11 -64.5v-21q0 -49 24 -83q30 -44 75 -44q1 0 4 0.5t5 0.5q49 7 82 43q25 29 43 79.5t18 103.5v15q-1 33 -7.5 58.5t-39.5 132.5q-12 41 -28 62
q-15 18 -15 34q0 10 7 20zM169 645q10 6 22 6q17 0 29 -13t12 -30q0 -15 -12 -30q-11 -14 -29 -14q-26 0 -37 25q-4 8 -4 20q0 27 19 36z" />
    <glyph glyph-name="u" unicode="u" horiz-adv-x="477" 
d="M286 699q7 10 24 10q16 0 23 -9q15 -17 50 -121t40 -148q2 -24 2 -38q0 -118 -48 -209q-12 -21 -40 -47t-51 -37q-38 -18 -77 -18q-8 0 -22 2q-46 10 -81 52.5t-48 101.5q-5 25 -5 54q0 48 10 78q10 33 42 73.5t59 53.5q19 8 46 10q3 0 8 0.5t7 0.5q15 0 33 -9
q48 -25 48 -50q0 -9 -5 -14q-5 -6 -12 -6q-9 0 -28 9q-18 8 -41 8q-17 0 -23.5 -4t-27.5 -25q-30 -32 -40 -54.5t-11 -64.5v-21q0 -49 24 -83q30 -44 75 -44q1 0 4 0.5t5 0.5q49 7 82 43q25 29 43 79.5t18 103.5v15q-1 33 -7.5 58.5t-39.5 132.5q-12 41 -28 62
q-15 18 -15 34q0 10 7 20zM169 645q10 6 22 6q17 0 29 -13t12 -30q0 -15 -12 -30q-11 -14 -29 -14q-26 0 -37 25q-4 8 -4 20q0 27 19 36z" />
    <glyph glyph-name="v" unicode="V" horiz-adv-x="517" 
d="M344 732q12 5 20 5q15 0 25.5 -9t10.5 -23q0 -20 -28 -39q-21 -15 -76.5 -45.5t-60.5 -30.5q-23 0 -23 22q0 13 20 27q22 14 59 50q41 37 53 43zM85 694q4 16 6.5 19.5t11.5 3.5h13v-29q0 -23 -6 -103q-3 -37 -3 -84q0 -167 24 -239q12 -36 52 -72q22 -21 38.5 -27
t50.5 -8q10 -1 23 -1q18 0 37 10q57 33 67 121q2 26 2 33q0 27 -9.5 46.5t-35.5 45.5q-53 53 -120 53q-21 0 -35 -5q-24 -7 -36 -7q-18 0 -26 11q-5 8 -5 16q0 17 15 29q19 16 75 16q46 0 86 -12q36 -11 77 -45t63 -70q10 -16 11.5 -27t1.5 -60q0 -65 -10 -92
q-16 -42 -45.5 -75t-64.5 -46q-24 -10 -69 -10q-47 0 -77 11q-26 10 -63 46t-50 64q-19 39 -25 73t-6 101q0 161 32 313z" />
    <glyph glyph-name="v" unicode="v" horiz-adv-x="517" 
d="M344 732q12 5 20 5q15 0 25.5 -9t10.5 -23q0 -20 -28 -39q-21 -15 -76.5 -45.5t-60.5 -30.5q-23 0 -23 22q0 13 20 27q22 14 59 50q41 37 53 43zM85 694q4 16 6.5 19.5t11.5 3.5h13v-29q0 -23 -6 -103q-3 -37 -3 -84q0 -167 24 -239q12 -36 52 -72q22 -21 38.5 -27
t50.5 -8q10 -1 23 -1q18 0 37 10q57 33 67 121q2 26 2 33q0 27 -9.5 46.5t-35.5 45.5q-53 53 -120 53q-21 0 -35 -5q-24 -7 -36 -7q-18 0 -26 11q-5 8 -5 16q0 17 15 29q19 16 75 16q46 0 86 -12q36 -11 77 -45t63 -70q10 -16 11.5 -27t1.5 -60q0 -65 -10 -92
q-16 -42 -45.5 -75t-64.5 -46q-24 -10 -69 -10q-47 0 -77 11q-26 10 -63 46t-50 64q-19 39 -25 73t-6 101q0 161 32 313z" />
    <glyph glyph-name="w" unicode="W" horiz-adv-x="566" 
d="M67 706q7 7 15 9t34 2q33 0 85 -6q61 -7 170 -10q122 -3 130 -11t8 -17q0 -6 -4 -13q-3 -5 -26 -6t-136 -1q-158 0 -160 -2q-2 -5 15 -24q69 -84 123 -173.5t72 -148.5q24 -81 24 -157t-24 -134q-17 -45 -18 -49q-5 -17 -13 -23.5t-25 -6.5q-31 0 -31 28q0 18 17 40
q33 43 46 89q5 20 5 57q0 45 -7 85q-21 108 -94 219.5t-158 163.5q-38 23 -48 33.5t-10 26.5q0 18 10 29zM291 567q0 17 13 33t31 16q11 0 18 -5q21 -11 21 -37q0 -20 -13 -32.5t-29 -12.5q-19 0 -30 14q-11 13 -11 24z" />
    <glyph glyph-name="w" unicode="w" horiz-adv-x="566" 
d="M67 706q7 7 15 9t34 2q33 0 85 -6q61 -7 170 -10q122 -3 130 -11t8 -17q0 -6 -4 -13q-3 -5 -26 -6t-136 -1q-158 0 -160 -2q-2 -5 15 -24q69 -84 123 -173.5t72 -148.5q24 -81 24 -157t-24 -134q-17 -45 -18 -49q-5 -17 -13 -23.5t-25 -6.5q-31 0 -31 28q0 18 17 40
q33 43 46 89q5 20 5 57q0 45 -7 85q-21 108 -94 219.5t-158 163.5q-38 23 -48 33.5t-10 26.5q0 18 10 29zM291 567q0 17 13 33t31 16q11 0 18 -5q21 -11 21 -37q0 -20 -13 -32.5t-29 -12.5q-19 0 -30 14q-11 13 -11 24z" />
    <glyph glyph-name="x" unicode="X" horiz-adv-x="480" 
d="M61 472q6 6 18 4q13 -1 22 -21q12 -28 96 -187l35 -65l8 11q10 15 57 109.5t53 111.5q7 19 12.5 26.5t15.5 11.5q6 2 9 2q26 0 35 -16q4 -5 4 -24q0 -16 -14 -30q-38 -35 -98 -174q-22 -49 -38 -92q-11 -29 -20 -37.5t-28 -8.5t-28 10.5t-15 39.5q-9 43 -21.5 74
t-54.5 116q-52 105 -52 127q0 8 4 12z" />
    <glyph glyph-name="x" unicode="x" horiz-adv-x="480" 
d="M61 472q6 6 18 4q13 -1 22 -21q12 -28 96 -187l35 -65l8 11q10 15 57 109.5t53 111.5q7 19 12.5 26.5t15.5 11.5q6 2 9 2q26 0 35 -16q4 -5 4 -24q0 -16 -14 -30q-38 -35 -98 -174q-22 -49 -38 -92q-11 -29 -20 -37.5t-28 -8.5t-28 10.5t-15 39.5q-9 43 -21.5 74
t-54.5 116q-52 105 -52 127q0 8 4 12z" />
    <glyph glyph-name="y" unicode="Y" horiz-adv-x="418" 
d="M176 618q10 12 31 12q17 0 27 -10q12 -12 12 -31q0 -17 -12.5 -29.5t-32.5 -12.5q-16 0 -26.5 12.5t-10.5 28.5t12 30zM231 400q-15 8 -26 8q-13 0 -28 -11q-29 -19 -49.5 -63.5t-22.5 -96.5q0 -4 -0.5 -11.5t-0.5 -10.5q0 -27 7 -39.5t26 -21.5q25 -12 63 -12q17 0 29 3
q16 5 35.5 24t30.5 39q12 23 12 64q0 29 -2 39t-11 26q-10 18 -29 37t-34 26zM164 465q7 7 21 7h9q46 -4 94.5 -45t67.5 -92q8 -24 8 -63q0 -50 -11 -80q-20 -51 -64 -79.5t-100 -28.5q-20 0 -47 5q-60 13 -84 60q-7 14 -7 46q0 47 14.5 107.5t34.5 89.5q15 21 35 38
q21 18 21 22q0 3 8 13z" />
    <glyph glyph-name="y" unicode="y" horiz-adv-x="418" 
d="M176 618q10 12 31 12q17 0 27 -10q12 -12 12 -31q0 -17 -12.5 -29.5t-32.5 -12.5q-16 0 -26.5 12.5t-10.5 28.5t12 30zM231 400q-15 8 -26 8q-13 0 -28 -11q-29 -19 -49.5 -63.5t-22.5 -96.5q0 -4 -0.5 -11.5t-0.5 -10.5q0 -27 7 -39.5t26 -21.5q25 -12 63 -12q17 0 29 3
q16 5 35.5 24t30.5 39q12 23 12 64q0 29 -2 39t-11 26q-10 18 -29 37t-34 26zM164 465q7 7 21 7h9q46 -4 94.5 -45t67.5 -92q8 -24 8 -63q0 -50 -11 -80q-20 -51 -64 -79.5t-100 -28.5q-20 0 -47 5q-60 13 -84 60q-7 14 -7 46q0 47 14.5 107.5t34.5 89.5q15 21 35 38
q21 18 21 22q0 3 8 13z" />
    <glyph glyph-name="z" unicode="Z" horiz-adv-x="453" 
d="M239 693q46 29 64 29q10 0 20 -8q8 -8 8 -24q0 -15 -8 -23q-5 -5 -46 -25.5t-46 -24.5q-13 -8 -25 -8t-20 6.5t-8 18.5q0 13 11 23.5t50 35.5zM165 524q29 10 60 10q33 0 57 -12q39 -20 64 -71q9 -19 11 -29.5t2 -40.5t-2 -41t-12 -31q-25 -53 -89 -119q-18 -18 -15 -21
h1q7 0 37.5 14.5t46.5 25.5q22 14 38 14q15 0 24 -9.5t9 -25.5q0 -14 -10 -24t-24 -10q-23 0 -119 -48q-73 -35 -92 -35q-7 0 -11 1q-13 3 -22 13.5t-9 24.5q0 1 0.5 3.5t0.5 3.5q2 11 11 21.5t17 10.5q9 0 40 28t53 56q33 42 48 71q13 25 15.5 35t2.5 35q0 36 -11 56
q-12 19 -31 36q-16 15 -30 15q-10 0 -17 -1q-53 -5 -99 -36q-21 -14 -37 -14q-17 0 -17 19q0 13 36 37.5t73 37.5z" />
    <glyph glyph-name="z" unicode="z" horiz-adv-x="453" 
d="M239 693q46 29 64 29q10 0 20 -8q8 -8 8 -24q0 -15 -8 -23q-5 -5 -46 -25.5t-46 -24.5q-13 -8 -25 -8t-20 6.5t-8 18.5q0 13 11 23.5t50 35.5zM165 524q29 10 60 10q33 0 57 -12q39 -20 64 -71q9 -19 11 -29.5t2 -40.5t-2 -41t-12 -31q-25 -53 -89 -119q-18 -18 -15 -21
h1q7 0 37.5 14.5t46.5 25.5q22 14 38 14q15 0 24 -9.5t9 -25.5q0 -14 -10 -24t-24 -10q-23 0 -119 -48q-73 -35 -92 -35q-7 0 -11 1q-13 3 -22 13.5t-9 24.5q0 1 0.5 3.5t0.5 3.5q2 11 11 21.5t17 10.5q9 0 40 28t53 56q33 42 48 71q13 25 15.5 35t2.5 35q0 36 -11 56
q-12 19 -31 36q-16 15 -30 15q-10 0 -17 -1q-53 -5 -99 -36q-21 -14 -37 -14q-17 0 -17 19q0 13 36 37.5t73 37.5z" />
    <glyph glyph-name="nbsp" unicode="&#xa0;" 
 />
  </font>
</defs>
</svg>
