<svg width="2000" height="2000" viewBox="0 0 2000 2000" fill="none" xmlns="http://www.w3.org/2000/svg">
<rect width="2000" height="2000" fill="#FEF6DF"/>
<rect opacity="0.2" x="97" y="97" width="1807" height="1807" rx="3" stroke="black" stroke-width="4"/>
<path d="M271.215 1756.02C270.343 1754.85 277.612 1754.44 278.141 1754.37C281.171 1753.94 284.283 1753.52 287.193 1752.54C288.385 1752.13 290.886 1751.46 291.566 1750.23C293.147 1747.35 284.837 1745.74 283.556 1745.58C280.964 1745.24 259.536 1747.2 262.28 1751.17C263.663 1753.17 267.035 1754.55 269.101 1755.58C272.744 1757.39 276.539 1758.7 280.433 1759.85C287.477 1761.93 295.924 1763.79 301.27 1769.27C305.103 1773.21 301.327 1777.67 297.503 1779.95C290.884 1783.9 281.581 1783.52 274.194 1782.95C260.747 1781.91 245.786 1778.32 234.391 1770.85C211.943 1756.13 232.648 1728.3 247.846 1716.88C261.176 1706.86 277.72 1700.73 294.501 1701.15C305.742 1701.44 319.527 1704.89 328.17 1712.57C332.916 1716.79 335.013 1723.39 331.595 1729.08C328.849 1733.65 323.703 1735.76 319.363 1738.37C317.078 1739.75 314.487 1741.44 317.277 1743.86C320.921 1747.03 325.744 1749.06 329.787 1751.64C339.391 1757.79 346.159 1765.29 348.761 1776.6C349.471 1779.69 351.107 1785.87 348.814 1788.76C343.916 1794.94 337.481 1782.18 337.04 1779.4C334.976 1766.45 338.829 1750.66 346.215 1740.41C352.283 1731.99 355.939 1735.21 355.939 1735.21" stroke="black" stroke-width="2" stroke-linecap="round"/>
<path d="M356.068 1735.28C358.339 1736.66 360.009 1739.25 361.221 1741.53C363.698 1746.21 365.178 1751.42 367.019 1756.36C367.232 1756.93 367.43 1753.92 367.464 1753.67C368.377 1747.12 369.524 1740.5 374.673 1735.84C379.598 1731.39 386.192 1727.65 392.829 1726.63C394.911 1726.31 395.546 1727.25 396.057 1729.14C398.205 1737.12 396.063 1746.42 394.424 1754.27C392.892 1761.62 389.435 1773.03 395.624 1779.23C404.086 1787.7 416.598 1781.5 423.822 1774.79C433.735 1765.59 437.101 1750.18 427.268 1739.5C424.375 1736.36 420.576 1734.69 416.632 1733.3C415.902 1733.05 413.731 1732.37 414.504 1732.38C425.962 1732.58 437.113 1728.14 448.641 1728.34C452.356 1728.4 456.899 1728.88 459.364 1732.06C462.353 1735.92 463.699 1742.11 462.18 1746.79C461.75 1748.11 458.996 1752.4 457.058 1750.19C455.045 1747.9 456.661 1742.79 457.758 1740.5C459.705 1736.43 468.702 1725.05 474.024 1730.66C479.513 1736.45 480.137 1745.01 486.818 1749.96" stroke="black" stroke-width="2" stroke-linecap="round"/>
<path d="M486.118 1731.91C486.405 1731.63 486.273 1732.69 486.341 1733.09C486.675 1735.02 487.201 1736.79 488.058 1738.56C490.205 1742.98 492.929 1747.31 497.12 1750.05C506.719 1756.35 521.679 1754.51 531.401 1749.24C536.01 1746.74 539.752 1741.86 542.001 1737.22C546.014 1728.93 543.374 1719.09 541.404 1710.64C538.771 1699.35 536.786 1688.11 538.418 1676.5C538.566 1675.45 538.688 1672.07 540.054 1673.96" stroke="black" stroke-width="2" stroke-linecap="round"/>
<path d="M342.853 1687.03C347.821 1686.5 335.297 1676.96 334.302 1676.58C327.577 1673.99 319.265 1675.32 313.828 1680.07C312.103 1681.57 311.218 1684.19 312.84 1681.09" stroke="black" stroke-width="2" stroke-linecap="round"/>
<path d="M475.709 1667.67C472.58 1674.21 466.816 1679.48 462.157 1684.9" stroke="black" stroke-width="2" stroke-linecap="round"/>
<path d="M417.911 1666.06C414.05 1672.4 409.739 1678.39 405.542 1684.51" stroke="black" stroke-width="2" stroke-linecap="round"/>
<path d="M264.971 1662.78C266.559 1664.16 251.944 1678.29 250.203 1680.6" stroke="black" stroke-width="2" stroke-linecap="round"/>
<path d="M357.083 1803.54C351.409 1809.71 345.654 1815.81 339.897 1821.91" stroke="black" stroke-width="2" stroke-linecap="round"/>
<path d="M395.63 1706.7C395.323 1705.37 394.276 1705.77 397.153 1706.37C410.041 1709.04 423.852 1708.96 436.93 1708.67C459.147 1708.17 481.311 1706.13 502.826 1700.36C503.928 1700.06 513.005 1698.45 508.278 1697.42" stroke="black" stroke-width="2" stroke-linecap="round"/>
<path d="M585.333 1755.1C585.333 1755.12 586.892 1752.01 587.303 1751.32C590.018 1746.76 592.589 1741.98 594.65 1737.08C594.795 1736.74 594.975 1734.75 595.018 1735.79C595.095 1737.65 596.615 1739.58 597.61 1741.03C605.423 1752.41 624.37 1757.23 632.534 1743.63C632.917 1742.99 638.441 1731.51 635.898 1736.85C635.064 1738.6 634.678 1740.65 634.803 1742.59C635.381 1751.62 639.55 1761.32 642.421 1769.77C645.902 1780.01 651.873 1790.88 653.116 1801.72C653.903 1808.59 648.729 1804.35 646.803 1801.4C641.621 1793.45 639.388 1783.7 643.503 1774.77C649.674 1761.37 661.125 1751.02 664.817 1736.36C665.414 1733.99 665.077 1734.44 665.124 1736.15C665.225 1739.83 665.794 1743.4 666.753 1746.95C669.241 1756.19 672.983 1762.67 681.739 1766.13" stroke="black" stroke-width="2" stroke-linecap="round"/>
<path d="M675.998 1737.98C680.475 1734.53 682.407 1751.99 682.913 1753.42C685.412 1760.54 690.791 1763.9 698.026 1765.29C712.566 1768.07 728.298 1763.59 742.902 1763.04C782.879 1761.53 823.02 1764.5 863.03 1763.84C883.626 1763.5 935.679 1764.33 915.083 1763.97" stroke="black" stroke-width="2" stroke-linecap="round"/>
<path d="M705.282 1728.98C705.192 1734.14 704.241 1738.71 710.833 1743.28C717.425 1747.86 734.711 1747.45 744.203 1743.13C755.915 1739.7 770.171 1732.31 772.482 1707.3C772.735 1702.03 772.627 1696.83 771.196 1691.74C770.938 1690.82 771.023 1693.64 770.973 1694.59C770.396 1705.56 767.9 1723.05 770.502 1733.86C774.19 1749.18 796.46 1743.95 807.57 1742.56C807.595 1742.55 811.675 1742.33 812.172 1741.73C812.509 1741.32 811.273 1741.32 811.184 1741.32C805.93 1741.23 801.771 1743.51 797.378 1746.27C788.152 1752.07 779.966 1760.45 777.12 1771.28C774.704 1780.48 776.512 1795.63 785.692 1800.86C795.203 1806.28 804.891 1790.31 809.953 1784.58C822.657 1770.19 837.247 1754.69 854.092 1745.19C866.736 1738.05 875.953 1738.11 882.198 1739.7C884.356 1740.25 909.787 1749.22 906.943 1752.73C899.392 1762.04 881.942 1743.61 896.656 1742.03" stroke="black" stroke-width="2" stroke-linecap="round"/>
<path d="M831.684 1713.09C831.325 1708.78 827.009 1706.2 823.652 1704.19C820.098 1702.07 816.185 1700.24 812.078 1699.5C804.862 1698.18 802.585 1701.22 796.838 1704.19" stroke="black" stroke-width="2" stroke-linecap="round"/>
<path d="M896.186 1790.94C897.216 1790.94 897.572 1790.75 898.41 1790.2" stroke="black" stroke-width="2" stroke-linecap="round"/>
<path d="M906.566 1790.94L907.307 1790.94" stroke="black" stroke-width="2" stroke-linecap="round"/>
<path d="M961.271 1758.69C965.344 1754.04 969.21 1747.07 969.839 1740.78C969.917 1740 969.881 1743.19 969.882 1743.2C970.137 1747.27 972.254 1751.67 976.676 1752.46C982.5 1753.51 988.243 1749.35 992.427 1745.89C993.61 1744.91 1005.81 1733.11 1006.19 1739.74C1006.4 1743.4 1003.32 1747.08 1001.51 1750C998.951 1754.15 1004.16 1757.8 1007.05 1760.3C1013.22 1765.61 1033.57 1777.87 1029.04 1788.6C1027.26 1792.81 1020.69 1794.41 1016.75 1792.71C1008.39 1789.1 1009.68 1776.48 1011.81 1769.6C1014.77 1760.03 1021.1 1751.44 1027.17 1743.64C1027.55 1743.15 1034.28 1733.7 1035.27 1736.8C1037.59 1744.06 1039.19 1753.73 1045.39 1758.69" stroke="black" stroke-width="2" stroke-linecap="round"/>
<path d="M1048.51 1733.77C1051.03 1741.64 1054.06 1748.71 1058.63 1755.58" stroke="black" stroke-width="2" stroke-linecap="round"/>
<path d="M976.849 1776.61C972.575 1773.19 967.466 1781.97 970.445 1785.78C972.939 1788.98 977.142 1787.37 979.445 1784.83C981.024 1783.09 982.529 1780.31 982.128 1777.86C981.491 1773.97 977.831 1773.94 975.291 1771.94" stroke="black" stroke-width="2" stroke-linecap="round"/>
<path d="M972.176 1708.85C970.804 1707.3 972.285 1707.09 973.734 1706.51" stroke="black" stroke-width="2" stroke-linecap="round"/>
<path d="M1043.83 1718.97C1042.67 1714.32 1035.66 1712.35 1031.8 1711.27C1027.04 1709.93 1021.88 1709.04 1016.92 1709.71C1008.94 1710.79 1005.24 1715.81 999.437 1720.53" stroke="black" stroke-width="2" stroke-linecap="round"/>
<path d="M1056.3 1683.92C1052.49 1687.46 1048.94 1691.06 1045.39 1694.82" stroke="black" stroke-width="2" stroke-linecap="round"/>
<path d="M1155.09 1681.44C1143.53 1681.44 1100.81 1683.3 1089.23 1680.99C1088.45 1680.83 1088.23 1680.14 1088.75 1680.42C1091.37 1681.85 1093.88 1686.34 1095.41 1688.69C1100.5 1696.46 1104.32 1705.21 1107.79 1713.79C1113.02 1726.72 1118.04 1741.12 1118.48 1755.2C1118.82 1766.07 1111.25 1785.2 1098.23 1779.84C1092.7 1777.57 1091.24 1766.56 1091 1761.13C1090.48 1749.49 1095.6 1738.97 1103.81 1730.92C1110.95 1723.92 1135.09 1708.33 1142.29 1722.57C1147.17 1732.23 1145.34 1775.65 1145.53 1786.14" stroke="black" stroke-width="2" stroke-linecap="round"/>
<path d="M1089.79 1712.92C1089.09 1713.27 1091.79 1719.28 1091.95 1720.11C1093.25 1726.77 1090.18 1728.31 1085.12 1730.84" stroke="black" stroke-width="2" stroke-linecap="round"/>
<path d="M1258.84 1680.14C1250.18 1681.48 1231.26 1681.08 1222.53 1681.08C1208.51 1681.08 1166.44 1681.33 1180.47 1681.33C1181.67 1681.33 1183.17 1681.09 1184.33 1681.4C1188.43 1682.5 1192.15 1686.67 1194.8 1689.65C1204.5 1700.5 1212.21 1713.52 1217.49 1727.05C1221.89 1738.32 1225.22 1750.51 1226.71 1762.54C1227.73 1770.8 1226.95 1779.28 1219.75 1784.6C1214.93 1788.16 1208.93 1787.2 1205 1782.79C1199.48 1776.6 1200.91 1766.46 1202.91 1759.2C1205.9 1748.36 1210.85 1739.02 1218.99 1731.23C1221.41 1728.9 1229.69 1720.18 1233.39 1724.89C1238.14 1730.96 1239.01 1741.09 1240.9 1748.27C1241.86 1751.91 1242.58 1756.91 1245.29 1759.62" stroke="black" stroke-width="2" stroke-linecap="round"/>
<path d="M1245.29 1734.57C1246.32 1735.72 1246.79 1737.12 1247.17 1738.6C1248.53 1743.92 1249.53 1749.38 1251.86 1754.4C1254.03 1759.05 1258.43 1760.25 1261.92 1755.79C1265.43 1751.31 1265.97 1745.31 1268.7 1740.45C1270.17 1737.84 1269.78 1746.36 1270.79 1749.18C1273.15 1755.72 1278.12 1757.07 1283.35 1752.45C1285.58 1750.49 1292.76 1739.29 1295.46 1744.27C1297.55 1748.14 1299.32 1752.13 1301.65 1755.86" stroke="black" stroke-width="2" stroke-linecap="round"/>
<path d="M1236.52 1708.89C1237.63 1708.37 1238.46 1708.26 1239.65 1708.26" stroke="black" stroke-width="2" stroke-linecap="round"/>
<path d="M1248.42 1710.77C1249.62 1710.69 1250.37 1709.81 1251.55 1709.52" stroke="black" stroke-width="2" stroke-linecap="round"/>
<path d="M1201.45 1730.81C1198.51 1730.48 1194.43 1737.12 1198.21 1737.84C1200.98 1738.36 1203.04 1736.45 1204.37 1734.25C1206.97 1729.96 1203.54 1730.3 1200.2 1729.56" stroke="black" stroke-width="2" stroke-linecap="round"/>
<path d="M1190.18 1735.19C1189.33 1735.14 1189.01 1734.92 1188.3 1734.57" stroke="black" stroke-width="2" stroke-linecap="round"/>
<path d="M1244.04 1773.4C1251.76 1774.68 1245.65 1782.43 1242.78 1785.29" stroke="black" stroke-width="2" stroke-linecap="round"/>
<path d="M1261.57 1779.66H1262.2" stroke="black" stroke-width="2" stroke-linecap="round"/>
<path d="M1340.71 1741.19C1336.9 1741.98 1344.89 1756.36 1346.65 1758.63" stroke="black" stroke-width="2" stroke-linecap="round"/>
<path d="M1349.49 1741.66C1349.56 1745.66 1349.67 1749.66 1353.56 1751.86C1357.62 1754.14 1362.74 1754.53 1367.26 1754.99C1373.72 1755.66 1380.24 1756.01 1386.73 1756.01C1404.59 1756.01 1422.39 1753.77 1440.26 1754.59C1455.71 1755.3 1471.16 1756.75 1486.65 1756.77C1495.95 1756.79 1505.25 1756.23 1514.55 1756.46C1526.84 1756.77 1538.76 1757.06 1551.01 1755.96C1562.74 1754.92 1574.72 1755.2 1586.49 1755.07C1590.53 1755.02 1594.48 1756.18 1598.41 1756.11" stroke="black" stroke-width="2" stroke-linecap="round"/>
<path d="M1477.49 1682.57C1467 1680.97 1455.98 1682.6 1445.4 1682.22C1423.85 1681.45 1402.55 1679.49 1380.95 1679.87C1379.13 1679.9 1373.66 1680 1375.49 1679.96C1380.72 1679.87 1385.6 1682.57 1390.02 1685.14C1414.98 1699.68 1427.42 1731.74 1427.82 1759.85C1427.95 1768.23 1426.6 1776.86 1422.58 1784.3C1421.03 1787.17 1418.09 1791.37 1414.24 1790.99C1410.21 1790.59 1406.68 1785.93 1405.67 1782.37C1403.26 1773.88 1409.09 1762.95 1412.58 1755.66C1418.66 1742.96 1428.21 1725.81 1442.31 1720.31C1446.04 1718.85 1447.53 1720.84 1448.64 1724.34C1450.7 1730.84 1452.24 1738.14 1452.76 1744.94C1452.79 1745.39 1452.77 1751.2 1450.87 1750.37C1449.06 1749.57 1449.86 1742.33 1449.98 1741.02C1450.77 1732.34 1457.63 1716.83 1469.26 1721.55C1478.44 1725.27 1469.22 1735.66 1468.59 1741.12C1468.51 1741.87 1471.62 1742.19 1472.13 1742.45C1476.55 1744.67 1477.51 1751.66 1478.91 1755.83C1480.53 1760.66 1483.07 1765.98 1481.82 1771.19C1480.83 1775.31 1476.35 1782.49 1471.07 1781.16C1461.35 1778.71 1484.46 1743.35 1486.19 1740.67C1490 1734.79 1494.03 1728.78 1498.95 1723.74C1500.94 1721.7 1502.18 1721.48 1502.65 1724.51C1503.98 1733.02 1504.4 1744.33 1509.38 1751.54" stroke="black" stroke-width="2" stroke-linecap="round"/>
<path d="M1513.35 1723.28C1517.04 1731.44 1519.17 1740.05 1520.68 1748.84" stroke="black" stroke-width="2" stroke-linecap="round"/>
<path d="M1438.38 1702.67C1438.96 1702.85 1439.09 1703.25 1439.51 1703.69C1441.25 1705.55 1443.84 1706.48 1446.22 1707.19C1459.21 1711.11 1474.12 1710.59 1487.46 1709.54C1497.27 1708.76 1507.02 1706.98 1516.72 1705.34C1520.94 1704.62 1516.14 1705.51 1514.85 1705.72" stroke="black" stroke-width="2" stroke-linecap="round"/>
<path d="M1421.43 1664.76C1422.01 1664.22 1422.62 1663.89 1423.29 1663.47" stroke="black" stroke-width="2" stroke-linecap="round"/>
<path d="M1518.72 1676.07C1515.25 1682.06 1511.16 1687.59 1507.11 1693.19" stroke="black" stroke-width="2" stroke-linecap="round"/>
<path d="M1564.63 1722.88C1561.5 1720.87 1568.23 1729.42 1570.43 1732.41C1570.99 1733.17 1576.24 1741.81 1577.35 1741.79C1577.96 1741.78 1577.24 1740.57 1577.21 1739.95C1577.08 1736.81 1578.32 1733.85 1580.41 1731.51C1585.55 1725.73 1591.78 1725.89 1598.53 1727.3" stroke="black" stroke-width="2" stroke-linecap="round"/>
<path d="M1590.36 1689.86C1590.85 1689.55 1593.66 1687.29 1593.46 1688.06C1592.07 1693.39 1588.09 1698.87 1585.59 1703.72" stroke="black" stroke-width="2" stroke-linecap="round"/>
<path d="M1572.52 1780.36C1566.98 1780.86 1565 1790.12 1571.53 1789.22C1576.93 1788.47 1582.04 1781.9 1575.02 1779.69" stroke="black" stroke-width="2" stroke-linecap="round"/>
<path d="M1590.79 1786.31L1591.43 1786.92" stroke="black" stroke-width="2" stroke-linecap="round"/>
<path d="M1709.98 1751.83C1708.3 1751.62 1709.09 1750.7 1710.29 1750.23C1713.78 1748.85 1717.5 1748.11 1720.98 1746.68C1721.23 1746.57 1725.98 1744.52 1724.73 1744.03C1721.2 1742.66 1715.47 1743.69 1711.86 1744.07C1707.79 1744.49 1703.5 1745.12 1699.54 1746.19C1696.68 1746.97 1704.88 1749.42 1705.32 1749.6C1714.44 1753.26 1723.13 1757.79 1730.37 1764.56C1734.11 1768.06 1740.06 1774.42 1737.99 1780.25C1735.07 1788.47 1723.49 1787.1 1716.97 1785.82C1707.22 1783.9 1697.38 1781.06 1688.06 1777.64C1676.82 1773.52 1665.88 1766.48 1662.11 1754.4C1655.67 1733.81 1691.8 1733.37 1703.23 1730.5C1718.79 1726.59 1774.21 1715.98 1805.63 1689.67" stroke="black" stroke-width="2" stroke-linecap="round"/>
<path d="M1698.62 1715.31C1716.78 1714.75 1734.27 1706.35 1751.16 1700.69" stroke="black" stroke-width="2" stroke-linecap="round"/>
<path d="M1693.07 1804.43H1694.32" stroke="black" stroke-width="2" stroke-linecap="round"/>
<path d="M1713.11 1801.93C1713.18 1801.35 1713.32 1801.51 1713.74 1801.3" stroke="black" stroke-width="2" stroke-linecap="round"/>
<path d="M210.873 1552.49C209.837 1551.79 209.464 1555.47 209.413 1555.75C208.316 1561.85 208.869 1568.51 213.496 1573.13C226.897 1586.51 251.464 1576.26 254.878 1558.79C256.573 1550.11 253.863 1540.82 252.175 1532.36C251.629 1529.62 249.744 1524.71 251.711 1522.1C253.202 1520.12 252.264 1523.66 252.317 1524.63C252.516 1528.27 253.331 1531.89 253.658 1535.53C254.333 1543.03 254.526 1550.79 256.839 1558.03C259.57 1566.58 271.625 1579.92 281.618 1573.35C286.639 1570.05 289.623 1564.72 290.593 1558.9C290.741 1558.01 290.137 1550.39 290.904 1549.86C291.266 1549.61 295.187 1558.51 295.324 1558.81C297.991 1564.68 300.701 1569.54 305.026 1574.17" stroke="black" stroke-width="2" stroke-linecap="round"/>
<path d="M303.19 1556.72C303.203 1556.58 303.21 1555.68 303.509 1556.14C304.966 1558.39 305.406 1561.39 306.79 1563.76C310.413 1569.96 320.659 1579.1 327.603 1571.66C330.226 1568.86 331.519 1564.69 330.784 1560.92C330.531 1559.63 329.208 1554.92 327.128 1555.13C325.22 1555.33 325.022 1560.13 324.984 1561.35C324.847 1565.77 327 1569.87 330.427 1572.63C338.491 1579.14 350.368 1572.77 355.96 1565.93C357.746 1563.74 358.546 1561.11 360.099 1558.87C360.494 1558.3 360.043 1560.26 360.077 1560.95C360.165 1562.75 360.603 1564.35 361.65 1565.84C367.476 1574.13 376.012 1565.94 381.821 1562.48C386.797 1559.52 389.299 1568.57 392.768 1570.32" stroke="black" stroke-width="2" stroke-linecap="round"/>
<path d="M334.754 1591.18C333.215 1590.44 331.064 1589.76 329.439 1590.64C326.564 1592.18 328.185 1596.96 330.456 1598.22C333.56 1599.95 338.202 1598.04 340.25 1595.45C343.468 1591.38 335.413 1589.16 333.098 1588.15" stroke="black" stroke-width="2" stroke-linecap="round"/>
<path d="M264.794 1512.54C264.534 1512.26 263.468 1511.29 264.245 1512.41C266.021 1514.99 268.368 1517.17 271.205 1518.55C278.814 1522.24 288.377 1521.92 296.551 1521.3C305.531 1520.61 313.383 1518.68 321.676 1515.6" stroke="black" stroke-width="2" stroke-linecap="round"/>
<path d="M450.688 1559.41C450.289 1554.22 450.487 1562.05 450.742 1563.53C451.516 1568.01 453.061 1572.24 454.037 1576.63" stroke="black" stroke-width="2" stroke-linecap="round"/>
<path d="M458.343 1558.93C459.851 1557.42 460.016 1560.36 460.257 1561.53C461.289 1566.55 461.439 1571.56 465.041 1575.57C469.681 1580.72 476.816 1579.41 483.062 1578.97C497.373 1577.95 511.552 1577.42 525.907 1577.69C531.439 1577.8 536.962 1578.09 542.492 1578.25C546.907 1578.38 551.548 1578.6 555.755 1577C561.813 1574.69 563.623 1567.86 564.34 1562.01C565.774 1550.31 565.231 1538.07 564.792 1526.32C564.777 1525.9 565.254 1517.23 564.075 1520.18" stroke="black" stroke-width="2" stroke-linecap="round"/>
<path d="M447.818 1541.23C446.934 1540.98 446.54 1540.75 445.904 1540.27" stroke="black" stroke-width="2" stroke-linecap="round"/>
<path d="M455.473 1536.98L454.994 1536.02" stroke="black" stroke-width="2" stroke-linecap="round"/>
<path d="M506.185 1595.29C504.174 1593.28 508.794 1598.73 509.109 1599.51C510.902 1603.97 508.835 1609.08 504.272 1610.6" stroke="black" stroke-width="2" stroke-linecap="round"/>
<path d="M518.624 1600.07H519.581" stroke="black" stroke-width="2" stroke-linecap="round"/>
<path d="M611.439 1554.65C610.603 1554.65 609.979 1554.72 611.385 1554.54C616.245 1553.94 621.107 1553.48 626.004 1553.32C633.229 1553.08 640.465 1553.25 647.692 1553.21C648.91 1553.21 651.151 1553.68 651.626 1552.26" stroke="black" stroke-width="2" stroke-linecap="round"/>
<path d="M786.365 1512.94C787.528 1512.94 790.983 1512.46 789.82 1512.46C779.212 1512.46 768.776 1512.53 758.138 1511.98C737.061 1510.9 716.013 1510.09 694.987 1508.18C692.283 1507.93 693.655 1507.92 695.89 1509.43C708.853 1518.17 714.337 1535.34 720.874 1548.85C729.995 1567.7 740.39 1585.23 743.201 1606.31C743.846 1611.15 745.068 1617.74 742.244 1622.18C740.196 1625.4 737.338 1624.78 734.882 1622.39C730.173 1617.81 726.825 1611.15 723.745 1605.43C720.237 1598.93 717.407 1591.49 718.376 1583.96C720.32 1568.85 734.768 1556.05 748.357 1550.89C752.329 1549.38 758.533 1547.98 761.966 1551.48C765.264 1554.83 763.697 1560.07 762.231 1563.86C760.917 1567.26 759.122 1570.51 758.005 1573.99C757.548 1575.41 761.494 1576.26 762.231 1576.73C769.126 1581.06 774.858 1587.4 777.355 1595.25C778.685 1599.44 778.955 1604.34 774.617 1606.76C766.981 1611.02 767.793 1599.48 768.504 1595.39C769.592 1589.13 771.845 1583.17 773.953 1577.21C776.103 1571.13 778.152 1564.98 780.89 1559.13C781.958 1556.85 783.153 1554.24 784.85 1552.33C785.781 1551.28 785.575 1554.25 785.621 1554.56C786.438 1560.12 787.832 1565.84 790.166 1570.96C791.429 1573.73 792.467 1575.57 794.525 1577.79C796.664 1580.1 798.624 1580.45 801.196 1581.83" stroke="black" stroke-width="2" stroke-linecap="round"/>
<path d="M795.934 1556.47C795.981 1556.19 797.258 1559.66 797.369 1560.04C799.425 1566.96 802.045 1573.17 807.815 1577.87C817.224 1585.54 829.823 1584.18 841.198 1583.88C850.861 1583.62 861.729 1582.79 871.046 1582.79" stroke="black" stroke-width="2" stroke-linecap="round"/>
<path d="M757.181 1536.38C757.936 1535.25 761.249 1534.97 762.391 1534.65C769.303 1532.74 776.584 1531.75 783.76 1532.5C788.478 1532.99 793.54 1534.74 796.625 1538.56C797.412 1539.53 798.293 1541.2 797.369 1542.12" stroke="black" stroke-width="2" stroke-linecap="round"/>
<path d="M816.506 1506.24C813.135 1509.09 809.865 1512.06 806.459 1514.85" stroke="black" stroke-width="2" stroke-linecap="round"/>
<path d="M733.739 1490.93V1490.45" stroke="black" stroke-width="2" stroke-linecap="round"/>
<path d="M691.159 1571.78V1571.31" stroke="black" stroke-width="2" stroke-linecap="round"/>
<path d="M698.813 1570.83H698.336" stroke="black" stroke-width="2" stroke-linecap="round"/>
<path d="M945.387 1575.5C951.25 1572.29 959.012 1569.43 963.448 1564.24C964.777 1562.68 963.539 1561.7 961.868 1561.5C957.808 1561 953.294 1563.66 949.968 1565.63C947.73 1566.96 943.262 1569.4 942.78 1572.34C942.325 1575.13 947.171 1576.53 948.941 1577.16C960.37 1581.21 973.024 1584.86 978.982 1596.62C984.293 1607.11 974.045 1612.36 965.344 1614.79C948.203 1619.57 925.613 1617.26 910.607 1607.36C903.818 1602.88 898.335 1595.94 896.758 1587.83C894.993 1578.75 899.235 1569.81 903.814 1562.26C910.554 1551.14 919.509 1541.65 929.642 1533.56C937.976 1526.91 947.708 1520.51 958.024 1517.37C968.902 1514.06 975.753 1521.08 980.772 1529.9C989.039 1544.44 995.201 1559.69 999.254 1575.9C999.424 1576.58 1000.38 1583.61 1001.57 1584.09C1002.28 1584.37 1004.71 1576.57 1004.76 1576.45C1006.68 1571.3 1008.76 1566.11 1011.97 1561.6C1013.58 1559.35 1017.5 1554.33 1021 1555.86C1024.04 1557.19 1025.4 1562.42 1026.32 1565.13C1028.4 1571.23 1030.06 1577.58 1031.43 1583.88C1034.41 1597.58 1034.26 1611.66 1036.85 1625.37C1037.48 1628.69 1037.93 1626.54 1038.35 1624.61C1039.31 1620.24 1040.14 1615.76 1041.99 1611.65C1043.42 1608.45 1047.59 1600.68 1052.02 1601.57" stroke="black" stroke-width="2" stroke-linecap="round"/>
<path d="M1036.85 1539.96C1038.81 1534.53 1034.55 1531.18 1029.74 1529.64C1025.06 1528.14 1019.94 1527.74 1015.16 1529.01C1010.51 1530.24 1007.47 1533.02 1003.68 1535.7" stroke="black" stroke-width="2" stroke-linecap="round"/>
<path d="M1016.95 1503C1011.76 1506.35 1007.18 1509.65 1002.73 1513.9" stroke="black" stroke-width="2" stroke-linecap="round"/>
<path d="M963.32 1627.11H962.847" stroke="black" stroke-width="2" stroke-linecap="round"/>
<path d="M1072.67 1560.7C1069.39 1560.5 1077.6 1560.15 1077.73 1560.15C1087.03 1559.75 1096.3 1558.44 1105.61 1558.44" stroke="black" stroke-width="2" stroke-linecap="round"/>
<path d="M1147.48 1556.82C1147.42 1556.56 1147.18 1555.83 1146.87 1555.76C1146.57 1555.7 1147.1 1556.33 1147.22 1556.62C1148.06 1558.58 1148.84 1560.57 1149.63 1562.56C1151.48 1567.21 1153.19 1571.94 1155.27 1576.49C1156.02 1578.13 1156.98 1580.19 1158.3 1581.18" stroke="black" stroke-width="2" stroke-linecap="round"/>
<path d="M1158.75 1560.88C1158.75 1560.55 1158.59 1559.79 1158.9 1560.55C1160.54 1564.5 1162.29 1568.54 1164.57 1572.16C1169.93 1580.66 1179.42 1587.98 1187.23 1577.97C1197.03 1565.41 1198.47 1548.61 1195.3 1533.41C1194.96 1531.77 1194.4 1530.21 1194.4 1528.52C1194.4 1528.48 1194.98 1530.67 1195.15 1531.15C1199.56 1543.89 1198.28 1561.63 1209.79 1570.75C1219.15 1578.18 1230.55 1573.83 1233.45 1562.58C1234.31 1559.25 1234.15 1555.84 1234.8 1552.51C1235.16 1550.65 1236.03 1552.32 1236.46 1553.16C1239.78 1559.6 1242.2 1566.26 1248.99 1569.45" stroke="black" stroke-width="2" stroke-linecap="round"/>
<path d="M1246.73 1552.3C1248.17 1560.91 1256.65 1567.64 1265.11 1568.07C1270.06 1568.32 1278.13 1566.26 1281 1561.83C1282.04 1560.23 1281.93 1558.38 1281.93 1556.57C1281.93 1555.69 1281.42 1558.3 1281.5 1559.17C1281.79 1562.34 1283.09 1565.44 1284.33 1568.32C1288.61 1578.25 1293.62 1587.82 1297.62 1597.87C1300.05 1604 1303.63 1611.17 1303.63 1617.93C1303.63 1620.74 1300.98 1624.74 1297.69 1623.36C1293.54 1621.64 1293.28 1615.9 1293.61 1612.16C1294.47 1602.08 1300.13 1592.5 1304.28 1583.49C1307.64 1576.18 1311.11 1568.85 1312.76 1560.93C1313.46 1557.52 1312.97 1554.08 1313.53 1550.73C1313.65 1550.05 1314.04 1552 1314.26 1552.66C1315.23 1555.53 1316.38 1558.31 1317.74 1561.03C1320.79 1567.12 1324.38 1572.99 1328.4 1578.47" stroke="black" stroke-width="2" stroke-linecap="round"/>
<path d="M1332.01 1551.85C1333.26 1550.72 1333.83 1550.72 1333.58 1552.46C1332.79 1558.16 1334.21 1563.48 1336.97 1568.47C1340.18 1574.29 1346.63 1575.26 1352.73 1575.06C1361.67 1574.77 1370.61 1574.86 1379.55 1574.86C1386.48 1574.86 1393.26 1574.3 1400.13 1573.51C1407.73 1572.64 1414.37 1571.35 1420.24 1566.09C1429.53 1557.76 1426.72 1544.65 1425.95 1533.51C1425.59 1528.35 1424.91 1522.8 1425.65 1517.64C1425.96 1515.45 1426.39 1517.05 1426.75 1518.02" stroke="black" stroke-width="2" stroke-linecap="round"/>
<path d="M1391.11 1527.94C1390.57 1527.87 1390.56 1527.4 1390.26 1526.99C1388.76 1524.91 1386.35 1523.56 1383.89 1522.93C1378.45 1521.54 1373.94 1524.19 1369.9 1527.49" stroke="black" stroke-width="2" stroke-linecap="round"/>
<path d="M1226.88 1512.15C1229.04 1512.15 1226.15 1509.43 1225.53 1508.99C1220.23 1505.26 1214.43 1506.36 1209.29 1509.44" stroke="black" stroke-width="2" stroke-linecap="round"/>
<path d="M1149.73 1537.87C1150.26 1537.8 1150.18 1537.41 1150.18 1536.97" stroke="black" stroke-width="2" stroke-linecap="round"/>
<path d="M1155.6 1534.26L1156.05 1533.81" stroke="black" stroke-width="2" stroke-linecap="round"/>
<path d="M1169.13 1600.13C1166.65 1599.24 1168.5 1599.01 1169.93 1599.93C1171.64 1601.02 1173.17 1602.94 1173.64 1604.94C1174.87 1610.16 1170.27 1611.62 1167.33 1614.57" stroke="black" stroke-width="2" stroke-linecap="round"/>
<path d="M1304.03 1594.72C1304.29 1596.33 1304.07 1600.44 1306.82 1598.75C1309.94 1596.83 1311.23 1592.5 1312.61 1589.3" stroke="black" stroke-width="2" stroke-linecap="round"/>
<path d="M1464.87 1551.75C1450.81 1551.75 1520.76 1552.37 1506.98 1549.62" stroke="black" stroke-width="2" stroke-linecap="round"/>
<path d="M1541.09 1561.34C1539.82 1559.08 1540.42 1562.1 1540.89 1563.03C1543.03 1567.32 1544.65 1572.14 1549.15 1574.55C1565.21 1583.16 1598.56 1576.88 1607.53 1561.34" stroke="black" stroke-width="2" stroke-linecap="round"/>
<path d="M1604.53 1526.16C1603.18 1526.84 1604.42 1531.77 1604.53 1532.8C1605.29 1539.98 1605.43 1547.33 1606.9 1554.42C1610.39 1571.32 1628.95 1574.37 1639.15 1560.9C1640.76 1558.77 1642.39 1555.43 1641.58 1552.67C1641.06 1550.91 1641.2 1552.82 1641.78 1553.82C1644.22 1558.03 1646.71 1562.3 1649.6 1566.2C1649.9 1566.61 1654.5 1572.11 1654.61 1571.35C1654.86 1569.54 1654.19 1567.93 1654.75 1566.08C1656.28 1561.06 1660.53 1557.18 1665.12 1554.95C1668.74 1553.19 1674.51 1550.77 1678.68 1551.99C1682.7 1553.16 1676.39 1559.63 1675.25 1560.69C1673.37 1562.44 1670.93 1564.49 1674.15 1566.41C1679.81 1569.78 1686.12 1571.08 1690.94 1575.97C1695.73 1580.83 1705.58 1602.5 1693.84 1605.2C1689.9 1606.11 1688.99 1600.11 1688.57 1597.44C1687.48 1590.46 1688.22 1583.93 1691.06 1577.45C1694.17 1570.36 1698.27 1563.87 1702.4 1557.35C1702.95 1556.48 1705.21 1553.46 1703.68 1552.4C1702.88 1551.86 1703.41 1552.29 1703.68 1552.93C1704.89 1555.83 1706.44 1558.47 1708 1561.2C1714.73 1572.97 1722.48 1584.45 1728.61 1596.53C1729.08 1597.45 1732.04 1602.16 1729.14 1601.74C1725.96 1601.28 1720.97 1598.75 1718.78 1596.44C1715.47 1592.94 1719.19 1587.14 1720.85 1583.79C1724.57 1576.29 1729.14 1568.68 1731.57 1560.63C1732.26 1558.36 1733.2 1555.25 1731.1 1553.47C1730.17 1552.68 1729.85 1552.47 1730.98 1553.5C1737.46 1559.39 1740.33 1567.59 1745.79 1574.14" stroke="black" stroke-width="2" stroke-linecap="round"/>
<path d="M1744.8 1554.42C1744.94 1553.29 1748.46 1559.11 1748.76 1559.57C1751.87 1564.25 1754.83 1569.08 1758.12 1573.6" stroke="black" stroke-width="2" stroke-linecap="round"/>
<path d="M1572.01 1599.72C1570.02 1599.97 1572.89 1604.69 1573.43 1605.2C1576.12 1607.74 1580.23 1604.47 1582.52 1602.98C1589.06 1598.75 1594.37 1593.55 1599.73 1588" stroke="black" stroke-width="2" stroke-linecap="round"/>
<path d="M1743.12 1534.16C1746.92 1532.02 1740.31 1527.97 1738.71 1527.23C1733.86 1524.98 1728.09 1523.5 1722.72 1523.88C1716.47 1524.33 1713.48 1527.36 1709.54 1531.49" stroke="black" stroke-width="2" stroke-linecap="round"/>
<path d="M244.195 1385.18C233.449 1384.05 248.17 1374.08 253.103 1374.01C266.604 1373.84 263.18 1392.49 252.352 1395.37C243.43 1397.75 213.572 1395.79 217.041 1380.56C219.899 1368.01 239.615 1357.16 249.561 1350.83C256.673 1346.31 264.917 1341.59 273.71 1342.35C282.49 1343.12 289.686 1351.31 294.531 1357.92C308.412 1376.83 310.845 1401.15 310.845 1423.81C310.845 1424.49 311.717 1434.7 309.45 1432.83C304.56 1428.8 302.946 1418.9 302.044 1413.19C300.243 1401.78 302.058 1390.54 307.733 1380.45C310.288 1375.91 315.482 1367.82 321.793 1368.22C326.648 1368.52 328.97 1381.56 330.164 1384.96C332.11 1390.5 333.955 1396.08 335.96 1401.6" stroke="black" stroke-width="2" stroke-linecap="round"/>
<path d="M340.79 1371.65C337.801 1371.32 342.124 1385.57 342.936 1388.29C347.893 1404.87 370.073 1403.71 382.325 1396.34C388.554 1392.59 394.651 1387.49 397.351 1380.56C398.069 1378.72 398.514 1376.73 398.693 1374.77C398.745 1374.2 398.342 1372.64 398.747 1373.05C404.91 1379.21 403.575 1393.04 413.236 1395.8" stroke="black" stroke-width="2" stroke-linecap="round"/>
<path d="M414.202 1372.62C409.111 1372.62 417.195 1390.84 419.997 1393.44C425.247 1398.31 435.066 1396.77 441.57 1396.77C469.475 1396.77 448.569 1396.77 476.457 1397.18C493.444 1397.44 527.382 1397.96 528.886 1373.89C529.629 1362.01 523.248 1350.51 522.071 1338.74C521.559 1333.63 523.055 1336.34 523.895 1339.28" stroke="black" stroke-width="2" stroke-linecap="round"/>
<path d="M250.956 1330.12C247.704 1332.18 227.768 1343.64 227.773 1343.64" stroke="black" stroke-width="2" stroke-linecap="round"/>
<path d="M251.922 1410.29C245.116 1410.94 239.678 1417.01 235.501 1421.88" stroke="black" stroke-width="2" stroke-linecap="round"/>
<path d="M338.858 1338.81C341.177 1340.87 340.312 1337.95 337.999 1336.88C335.045 1335.52 331.551 1334.61 328.34 1334.2C320.92 1333.24 318.04 1336.07 311.811 1338.81" stroke="black" stroke-width="2" stroke-linecap="round"/>
<path d="M347.551 1305.97C343.094 1309.83 339.413 1313.78 335.96 1318.53" stroke="black" stroke-width="2" stroke-linecap="round"/>
<path d="M357.211 1415.12C354.262 1415.12 363.411 1415.77 365.69 1417.64C373.035 1423.68 359.475 1430.14 355.279 1431.54" stroke="black" stroke-width="2" stroke-linecap="round"/>
<path d="M554.265 1366.82C548.106 1366.82 566.568 1367.42 572.725 1367.58C580.046 1367.76 590.54 1368.97 596.766 1365.86" stroke="black" stroke-width="2" stroke-linecap="round"/>
<path d="M928.642 1368.45C916.345 1368.45 953.229 1367.69 965.526 1367.69" stroke="black" stroke-width="2" stroke-linecap="round"/>
<path d="M1399.6 1390.67C1399.08 1390.08 1400.3 1390.31 1400.63 1390.31C1403.8 1390.31 1406.65 1389.43 1409.52 1388.12C1410.61 1387.63 1415.09 1385.59 1413.61 1383.63C1412.15 1381.71 1407.62 1382.25 1405.65 1382.6C1401.94 1383.26 1398.31 1384.86 1395.19 1386.95C1394.44 1387.45 1389.79 1390.42 1391.38 1391.65C1394.9 1394.35 1400.96 1393.93 1405.1 1394.48C1411.18 1395.28 1417.17 1396.71 1422.67 1399.46C1427.51 1401.87 1442.95 1410.27 1437.61 1417.96C1434.85 1421.94 1428.64 1424.1 1424.23 1425.39C1416.25 1427.72 1407.63 1427.79 1399.38 1427.79C1384.35 1427.79 1365.27 1427.52 1354.71 1414.88C1350.67 1410.05 1349.94 1402.81 1350.9 1396.79C1352.51 1386.75 1358.46 1378.49 1366.24 1372.22C1374.72 1365.38 1384.53 1359.67 1394.48 1355.27C1405.95 1350.21 1418.76 1345.99 1431.44 1346.25C1440.46 1346.43 1448.73 1349.8 1456.45 1354.26C1461.8 1357.35 1468.73 1361.5 1471.98 1366.97C1474.14 1370.62 1472.06 1373.89 1469.18 1376.34C1463.42 1381.26 1456.23 1384.24 1450.08 1388.61C1449.15 1389.27 1446.18 1391.01 1446.31 1392.6C1446.44 1394.15 1449.59 1394.7 1450.56 1394.96C1456.09 1396.48 1461.87 1397.43 1466.96 1400.23C1470.98 1402.44 1473.17 1406.08 1474.14 1410.49C1474.95 1414.14 1475.85 1419.67 1474.32 1423.26C1472.55 1427.41 1466.57 1423.93 1464.35 1422.17C1459.44 1418.3 1457.16 1411.52 1460.78 1405.95C1464.35 1400.48 1471.6 1397.17 1476.87 1393.67C1482.21 1390.12 1483.07 1386.49 1487.63 1381.97C1488.18 1381.42 1488.94 1381.73 1488.94 1381.73C1488.94 1381.73 1489.75 1385.18 1490.51 1387.31C1491.84 1391.09 1493.46 1393.53 1495.05 1396.5" stroke="black" stroke-width="2" stroke-linecap="round"/>
<path d="M1497.96 1383.02C1497.96 1382.02 1497.95 1383.2 1497.96 1383.55C1498.12 1387.22 1499.81 1390.68 1502.88 1392.78C1506.82 1395.47 1512.24 1396.04 1516.63 1394.15C1521.35 1392.12 1523.81 1387.75 1524.96 1382.94C1525.31 1381.51 1524.89 1379.38 1525.9 1381.61C1527.43 1385 1528.8 1388.47 1530.96 1391.54C1532.47 1393.71 1534.38 1396.21 1536.89 1397.29C1539.55 1398.44 1540.66 1393.3 1541.48 1391.69C1543.99 1386.78 1547.95 1383.23 1552.77 1380.63C1557.75 1377.95 1564.69 1374.97 1570.5 1376.08C1574.13 1376.77 1574.85 1379.93 1573.07 1382.84C1571.88 1384.8 1567.46 1388.05 1569.86 1390.47C1573.28 1393.93 1578.56 1395.43 1582.32 1398.57C1587.21 1402.62 1591.38 1408.87 1588.98 1415.47C1587.6 1419.28 1583.01 1422.55 1579.19 1419.78C1575.66 1417.22 1576.64 1414.18 1579.21 1411.8" stroke="black" stroke-width="2" stroke-linecap="round"/>
<path d="M1468.82 1439.13C1468.82 1438.56 1468.93 1438.27 1468.46 1438.03" stroke="black" stroke-width="2" stroke-linecap="round"/>
<path d="M1628.4 1377.07C1625.34 1374.01 1630.44 1380.62 1630.73 1380.98C1631.89 1382.42 1645.45 1396.62 1644.76 1397.54C1644.56 1397.79 1643.87 1397.63 1643.79 1397.34C1643.55 1396.47 1645.04 1394.87 1645.44 1394.31C1653.75 1382.95 1663.01 1372.32 1671.17 1360.81C1674.9 1355.55 1678.74 1350.26 1681.94 1344.66C1683.19 1342.48 1684.22 1340.2 1684.53 1337.7C1684.86 1335.05 1684.06 1334.88 1683.24 1337.44C1680.8 1345.07 1682.09 1353.93 1683.57 1361.62C1684.76 1367.79 1686.86 1373.69 1688.75 1379.66C1691.61 1388.68 1693.77 1397.88 1696.35 1406.99C1698.25 1413.72 1700.75 1420.35 1702.26 1427.18C1703.15 1431.19 1704.09 1436.49 1701.78 1440.24C1700.21 1442.79 1697.01 1443.34 1694.29 1442.68C1689.82 1441.59 1687.94 1437.14 1687.99 1432.85C1688.06 1427.23 1691.17 1422.18 1694.24 1417.71C1698.44 1411.58 1703.28 1405.96 1707.04 1399.52C1710.16 1394.17 1712.76 1388.48 1714.86 1382.66C1715.76 1380.18 1716.98 1377.05 1716.62 1374.32C1716.58 1374.05 1716.29 1377.46 1716.29 1377.47C1716.52 1382.65 1717.75 1387.74 1719 1392.74C1722.28 1405.86 1725.23 1418.64 1726.5 1432.14C1726.63 1433.57 1726.01 1437.72 1726.7 1436.46C1728.14 1433.82 1729.27 1431.05 1730.92 1428.48C1731.74 1427.2 1738.04 1417.67 1739.96 1419.59" stroke="black" stroke-width="2" stroke-linecap="round"/>
<path d="M1654.92 1332.26C1655.09 1332.04 1655.57 1331.39 1655.27 1331.09C1654.28 1330.1 1653.35 1333.14 1652.48 1334.24C1648.96 1338.67 1645.19 1342.89 1641.2 1346.89" stroke="black" stroke-width="2" stroke-linecap="round"/>
<path d="M1631.6 1431.48C1628.9 1430.88 1636.97 1424.21 1637.44 1423.81C1639.44 1422.08 1641.48 1420.41 1643.74 1419.03C1644.39 1418.64 1643.19 1419.47 1643.03 1419.59" stroke="black" stroke-width="2" stroke-linecap="round"/>
<path d="M1653.54 1411.36C1653.24 1410.76 1653.49 1410.96 1653.54 1411.36" stroke="black" stroke-width="2" stroke-linecap="round"/>
<path d="M1775.61 1368.54C1775.44 1368.45 1774.05 1367.67 1774.14 1367.65C1777.31 1366.74 1782.41 1368.01 1785.64 1368.05C1793.42 1368.16 1816.77 1368.54 1808.99 1368.54" stroke="black" stroke-width="2" stroke-linecap="round"/>
<path d="M618.06 1382.32C616.058 1380.72 613.219 1381.02 615.269 1384.15C622.851 1395.69 638.532 1396.6 650.312 1391.98C669.503 1384.46 676.723 1366.93 674.299 1347.55C673.664 1342.46 672.761 1337.51 671.616 1332.52C670.738 1328.7 671.244 1330.72 671.777 1333.33C674.057 1344.47 676.143 1355.16 677.573 1366.49C679.782 1383.99 688.973 1395.99 708 1390.16C717.522 1387.23 729.01 1376.49 726.085 1365.52C724.025 1357.8 721.566 1357.97 718.304 1364.18C714.634 1371.17 712.328 1381.03 719.592 1386.72C731.479 1396.04 750.189 1390.16 752.058 1376.53C754.016 1362.25 752.793 1348.19 753.482 1331.34C753.102 1329.52 753.689 1330.2 753.49 1331.77C753.294 1337.16 753.145 1342.77 753.28 1348.19C753.508 1359.68 751.276 1382.57 764.884 1388.17C776.698 1393.04 786.173 1373.6 786.886 1364.83C787.13 1361.83 786.943 1358.58 785.384 1355.92C783.636 1352.93 786.368 1362.18 786.403 1362.25C790.304 1370.57 795.547 1380.18 802.556 1386.19" stroke="black" stroke-width="2" stroke-linecap="round"/>
<path d="M724.448 1335.46L724.002 1335.91" stroke="black" stroke-width="2" stroke-linecap="round"/>
<path d="M799.188 1358.13C799.188 1356.78 799.035 1356.7 799.296 1358.4C800.043 1363.26 802.509 1368.2 804.555 1372.62C811.908 1388.5 842.763 1394.22 842.763 1394.22C842.763 1394.22 867.549 1397.81 876.829 1395.03C894.899 1389.62 897.148 1367.87 895.354 1349.33C894.466 1340.15 891.444 1332.31 887.775 1323.31" stroke="black" stroke-width="2" stroke-linecap="round"/>
<path d="M717.19 1408.33C712.563 1408.16 718.104 1407.17 720.324 1408.18C728.116 1411.7 720.958 1417.95 717.19 1420.86" stroke="black" stroke-width="2" stroke-linecap="round"/>
<path d="M793.743 1314.32C792.801 1310.55 783.934 1308.85 780.984 1308.27C774.53 1307.01 768.96 1308.26 763.749 1312.08" stroke="black" stroke-width="2" stroke-linecap="round"/>
<path d="M1211.67 1372.21C1208.6 1371.83 1216.29 1380.27 1217.27 1381.08C1230.67 1392 1250.62 1394.77 1267.2 1390.94C1276.64 1388.77 1294.75 1380.87 1287.61 1367.69C1282.3 1357.89 1265.87 1355.13 1256.46 1352.81C1237.38 1348.11 1217.93 1344.84 1198.75 1340.55C1188.75 1338.32 1178.74 1336.09 1168.85 1333.4C1165.34 1332.45 1171.64 1333.88 1171.73 1333.9C1190.54 1337.95 1209.23 1338.62 1228.44 1337.92C1256.39 1336.9 1289.47 1335.02 1314.04 1320.1C1317.67 1317.9 1321.06 1311.62 1315.55 1315.76" stroke="black" stroke-width="2" stroke-linecap="round"/>
<path d="M1073.77 1305.07C1072.33 1303.64 1074.95 1307.72 1075.12 1307.91C1085.12 1319.16 1103.47 1319.98 1117.21 1318.14C1124.57 1317.15 1131.6 1315.03 1138.3 1311.86C1140.92 1310.62 1143.94 1309.25 1146.13 1307.26C1147.04 1306.42 1145.56 1307.69 1145.26 1307.84" stroke="black" stroke-width="2" stroke-linecap="round"/>
<path d="M1177.93 1428.65C1175.76 1428.51 1181.37 1423.97 1181.84 1423.54C1183.42 1422.07 1185.93 1419.1 1188.35 1419.1" stroke="black" stroke-width="2" stroke-linecap="round"/>
<path d="M1195.73 1414.33C1195.33 1414.12 1194.55 1413.59 1194.42 1413.46" stroke="black" stroke-width="2" stroke-linecap="round"/>
<path d="M1032.22 1414.23C1030.02 1412.47 1025.55 1419.53 1030.82 1420.79C1033.83 1421.5 1038 1419.82 1038.19 1416.28C1038.44 1411.74 1032.57 1414.53 1030.91 1415.53" stroke="black" stroke-width="2" stroke-linecap="round"/>
<path d="M1013.55 1372.73C1013.27 1372.69 1013.13 1372.62 1013.13 1372.31C1013.13 1371.96 1014.89 1373.66 1014.92 1373.69C1020.31 1378.34 1026.36 1385.28 1028.99 1391.98C1029.49 1393.24 1030.77 1395.91 1030.77 1397.32C1030.77 1400.43 1029.78 1391.13 1030.02 1388.04C1030.75 1378.48 1038.39 1370.19 1045.07 1363.96C1053.1 1356.46 1060.8 1349.59 1061.33 1337.87C1061.43 1335.74 1061.05 1333.64 1061.01 1331.52C1061 1330.91 1061.01 1330.78 1061.01 1331.38C1061.01 1335.35 1061.65 1339.29 1062.08 1343.23C1064.11 1361.87 1066.21 1380.5 1069.22 1399C1070.2 1405.04 1071.05 1411.08 1071.69 1417.16C1072.12 1421.12 1071.59 1424.87 1069.17 1428.15C1067.34 1430.64 1063.42 1431.55 1060.91 1429.29C1054.84 1423.83 1058.77 1411.75 1060.68 1405.49C1062.63 1399.11 1065.43 1393.23 1069.22 1387.73C1072.53 1382.93 1076.34 1378.48 1079.44 1373.52C1080.47 1371.88 1084.44 1365.92 1082.43 1363.91" stroke="black" stroke-width="2" stroke-linecap="round"/>
<path d="M1082.01 1364.75C1081.34 1365.5 1081.96 1365.87 1082.2 1366.71C1082.79 1368.83 1083.19 1371.26 1083.6 1373.43C1084.4 1377.73 1084.21 1382.23 1084.55 1386.59C1084.88 1390.78 1085.65 1394.89 1085.88 1399.1C1086.3 1406.58 1087.18 1414.33 1089.34 1421.54C1090.92 1426.85 1096.47 1429.37 1101.47 1429.55C1112.53 1429.94 1119.46 1418.3 1124.01 1408.48C1127.25 1401.48 1128.1 1393.18 1127.46 1385.56C1127.04 1380.51 1125.49 1373.86 1121.12 1370.72C1117.96 1368.46 1114.61 1368.11 1110.87 1368.11C1109.85 1368.11 1106.8 1368.11 1107.82 1368.11C1109.32 1368.11 1110.74 1367.61 1112.18 1367.25C1119.08 1365.49 1126.27 1364.5 1133.39 1364.52C1136.41 1364.52 1164.82 1366.27 1158.78 1374.13C1156.69 1376.85 1151.99 1378.15 1150.94 1381.62C1149.78 1385.43 1154.97 1388.74 1157.47 1390.56C1162.31 1394.07 1166.62 1397.54 1168.18 1403.6C1169.46 1408.56 1169.89 1415.61 1165.51 1421.1C1163.48 1423.65 1159.09 1427.55 1155.3 1423.17C1154.44 1422.17 1153.73 1420.24 1154.5 1416.77C1155.06 1414.21 1159.83 1405.22 1161.77 1401.01C1165.66 1392.57 1171.03 1384.38 1172.41 1375.02C1172.66 1373.27 1172.83 1371.36 1172.55 1369.6C1172.52 1369.46 1171.56 1367.49 1171.75 1368.67C1172.65 1374.07 1176.31 1379.38 1178.5 1384.3C1180.46 1388.73 1182.59 1393.39 1183.89 1398.07C1183.95 1398.29 1184.14 1399.16 1183.61 1398.63C1182.22 1397.24 1182.49 1394.09 1182.6 1392.45C1182.91 1388.1 1184 1383.82 1185.99 1379.92C1187.48 1377 1190.99 1370.88 1195.23 1371.56C1200.13 1372.35 1201.37 1381.93 1202.83 1385.56C1204.36 1389.35 1207.53 1393.34 1210.74 1395.83" stroke="black" stroke-width="2" stroke-linecap="round"/>
<path d="M1224.98 1325.05C1233.62 1325.05 1242.22 1325.4 1250.85 1325.79" stroke="black" stroke-width="2" stroke-linecap="round"/>
<path d="M237.534 620.335C237.88 618.951 243.013 618.373 244.108 617.981C248.721 616.328 253.22 614.115 257.498 611.732C259.325 610.715 261.958 609.099 258.391 608.08C250.852 605.926 239.706 610.98 233.355 614.694C225.742 619.147 247.286 625.294 249.87 626.502C252.649 627.802 272.169 635.791 265.37 641.354C261.425 644.582 254.528 646.224 249.707 647.197C238.297 649.5 226.74 648.64 215.379 646.466C205.673 644.609 164.498 631.927 181.943 615.912C189.224 609.228 198.485 605.091 207.629 601.669C223.245 595.825 239.377 591.513 254.901 585.398C273.378 578.119 291.311 568.438 305.379 554.153C308.92 550.558 314.956 544.208 314.956 538.531" stroke="black" stroke-width="2" stroke-linecap="round"/>
<path d="M200.284 586.737C211.758 583.635 223.246 580.739 234.612 577.241" stroke="black" stroke-width="2" stroke-linecap="round"/>
<path d="M230.96 670.731H232.421" stroke="black" stroke-width="2" stroke-linecap="round"/>
<path d="M249.22 669.27C249.285 668.752 249.724 668.263 249.951 667.81" stroke="black" stroke-width="2" stroke-linecap="round"/>
<path d="M319.741 617.275C318.115 613.204 325.041 603.19 327.065 600.024C329.364 596.429 331.289 604.229 332.17 605.737C335.522 611.474 340.684 613.843 346.845 615.689C361.86 620.185 376.993 619.136 392.085 619.281C414.795 619.735 437.52 620.153 460.371 619.612C474.331 619.47 502.345 619.764 516.372 619.623C524.103 619.545 542.525 604.248 549.552 608.234C556.775 612.332 558.788 624.505 551.525 625.888C544.023 627.317 534.768 625.01 539.093 616.956" stroke="black" stroke-width="2" stroke-linecap="round"/>
<path d="M317.983 650.827C322.728 648.196 326.797 643.937 330.956 640.536" stroke="black" stroke-width="2" stroke-linecap="round"/>
<path d="M330.902 571.782L332.361 571.859" stroke="black" stroke-width="2" stroke-linecap="round"/>
<path d="M383.886 607.472C381.193 607.084 383.758 604.692 384.559 603.159C387.132 598.236 389.345 593.07 391.412 587.915C391.437 587.854 392.628 583.754 392.937 585.192C393.944 589.883 394.451 594.363 396.778 598.721C404.661 613.481 422.514 594.333 430.187 589.257C431.147 588.622 443.673 580.583 444.426 584.274C445.884 591.417 432.703 597.231 432.662 604.827C432.648 607.596 434.947 609.131 436.743 610.689C440.609 614.04 444.708 616.953 447.947 620.987C453.314 627.672 457.979 638.275 453.749 646.728C451.113 651.995 444.634 651.86 440.889 647.882C432.928 639.426 437.988 626.374 442.868 617.877C448.351 608.331 455.603 599.956 461.325 590.563C463.168 587.537 464.874 584.367 465.931 580.972C465.968 580.853 466.407 577.725 466.641 577.514C467.754 576.512 467.29 580.441 467.712 581.878C468.801 585.579 470.169 589.19 471.694 592.732C473.5 596.925 475.626 600.972 477.63 605.071" stroke="black" stroke-width="2" stroke-linecap="round"/>
<path d="M480.618 575.971C483.083 583.762 486.224 590.996 489.683 598.388" stroke="black" stroke-width="2" stroke-linecap="round"/>
<path d="M472.092 557.24C469.996 552.761 463.615 550.085 458.987 549.889C449.253 549.477 442.358 555.563 435.316 561.163" stroke="black" stroke-width="2" stroke-linecap="round"/>
<path d="M487.323 517.811C481.935 519.95 477.25 522.281 472.315 525.07" stroke="black" stroke-width="2" stroke-linecap="round"/>
<path d="M399.844 554.185C400.682 554.021 400.443 553.437 400.65 552.764" stroke="black" stroke-width="2" stroke-linecap="round"/>
<path d="M391.377 632C384.574 632.166 385.379 644.712 392.299 641.557C394.984 640.332 398.904 635.864 397.114 632.626C395.526 629.752 391.077 630.685 388.498 631.118" stroke="black" stroke-width="2" stroke-linecap="round"/>
<path d="M629.481 608.36C630.191 600.551 643.062 592.493 648.461 600.335C660.384 617.652 633.047 626.365 620.613 619.646C609.315 613.54 606.165 601.851 611.16 590.296C614.769 581.945 621.178 575.321 628.052 569.556C634.391 564.239 642.658 557.229 651.319 556.512C660.099 555.784 668.742 561.044 675.283 566.295C687.122 575.798 698.081 589.837 700.86 605.136C701.976 611.285 700.061 618.409 693.458 620.379C688.684 621.803 684.888 618.188 683.638 613.856C680.733 603.789 688.296 592.483 696.902 587.914C706.326 582.911 710.626 596.415 713.904 603.084C719.594 614.66 726.527 625.868 730.173 638.333C732.184 645.206 733.899 661.472 726.143 666.108C718.484 670.685 720.289 654.991 720.646 652.294C722.511 638.208 725.777 623.604 729.367 609.862C730.287 606.343 733.406 595.831 738.528 595.609C741.746 595.469 744.956 609.989 745.563 611.658C747.479 616.926 749.666 621.843 752.158 626.828" stroke="black" stroke-width="2" stroke-linecap="round"/>
<path d="M748.201 591.871C751.243 600.268 754.37 608.48 758.754 616.274" stroke="black" stroke-width="2" stroke-linecap="round"/>
<path d="M755.456 568.127C758.173 567.787 753.771 562.477 753.111 562.044C743.152 555.519 733.565 562.017 725.116 567.468" stroke="black" stroke-width="2" stroke-linecap="round"/>
<path d="M761.392 524.596C757.237 527.193 753.77 531.226 750.18 534.49" stroke="black" stroke-width="2" stroke-linecap="round"/>
<path d="M680.926 638.04C682.56 634.771 687.989 637.663 689.684 639.213C697.156 646.049 684.155 651.375 679.607 653.87" stroke="black" stroke-width="2" stroke-linecap="round"/>
<path d="M802.944 603.999C802.555 603.934 802.706 603.736 803.128 603.816C805.282 604.22 807.089 607.188 808.221 608.762C811.254 612.982 813.814 617.548 816.795 621.807" stroke="black" stroke-width="2" stroke-linecap="round"/>
<path d="M814.816 600.701C820.43 603.508 822.909 610.288 826.395 615.138C830.688 621.11 831.64 613.112 833.943 609.056C836.076 605.301 839.283 601.171 843.983 600.701C850.955 600.004 845.412 608.146 843.983 610.301C842.506 612.53 839.53 615.4 842.371 617.85C847.178 621.993 853.084 624.037 857.688 628.732C864.136 635.31 878.513 652.735 870.256 662.296C868.083 664.812 863.877 666.709 860.729 664.788C854.031 660.702 855.05 648.148 856.075 641.814C858.54 626.583 867.123 613.199 873.59 599.455C873.673 599.279 874.695 595.936 875.496 596.231C877.087 596.817 879.179 600.897 880.003 602.02C883.629 606.966 887.087 612.038 890.299 617.263C893.183 621.954 897.005 627.431 897.847 633.019C898.208 635.411 897.11 638.751 894.11 638.516C888.228 638.054 887.09 629.11 887.331 624.885C887.87 615.436 892.809 607.886 898.397 600.664C899.472 599.275 901.172 595.774 902.757 594.765C903.222 594.47 903.27 599.553 903.27 599.565C903.676 606.261 906.218 612.526 908.767 618.656C913.797 630.753 918.381 642.614 922.178 655.151C922.42 655.953 924.314 660.208 923.204 661.087C921.019 662.817 920.543 656.212 920.565 655.811C921.032 647.413 925.152 634.359 931.448 628.512C933.25 626.839 935.515 626.459 935.515 629.062" stroke="black" stroke-width="2" stroke-linecap="round"/>
<path d="M820.901 561.787C813.249 566.691 807.417 573.201 801.774 580.255" stroke="black" stroke-width="2" stroke-linecap="round"/>
<path d="M800.455 561.128H801.115" stroke="black" stroke-width="2" stroke-linecap="round"/>
<path d="M810.348 549.255L808.37 550.574" stroke="black" stroke-width="2" stroke-linecap="round"/>
<path d="M804.923 664.678C804.695 664.221 810.107 659.78 810.493 659.402C811.13 658.776 817.386 651.608 816.685 655.114C816.517 655.953 814.64 662.195 817.235 661.454C821.215 660.316 824.258 655.185 826.688 652.146" stroke="black" stroke-width="2" stroke-linecap="round"/>
<path d="M888.027 576.957C888.103 576.349 888.241 576.52 888.687 576.297" stroke="black" stroke-width="2" stroke-linecap="round"/>
<path d="M966.128 599.447C963.505 597.492 962.659 599.641 962.794 602.134C963.198 609.541 968.125 616.393 974.679 619.709C995.113 630.046 1021.55 618.733 1024.47 595.239" stroke="black" stroke-width="2" stroke-linecap="round"/>
<path d="M1024.04 549.645C1024.2 549.307 1023.73 556.989 1023.73 558.104C1023.74 567.118 1022.49 576.029 1023.34 585.053C1024.28 594.934 1025.89 607.552 1033.3 614.929C1043.08 624.657 1069.71 616.837 1070.51 601.489" stroke="black" stroke-width="2" stroke-linecap="round"/>
<path d="M1071.57 553.48C1072.58 556.797 1071.89 560.75 1071.53 564.118C1070.48 573.697 1070.45 573.981 1070.11 583.614C1069.4 591.835 1068.4 605.259 1076.87 610.461C1090.66 618.931 1111.12 610.248 1124.62 605.331C1132.1 602.605 1142.06 598.141 1150.18 600.58C1154 601.727 1160.65 607.243 1158.1 611.929C1154.6 618.361 1144.02 620.658 1137.4 620.385C1130.8 620.112 1132.97 617.306 1136.03 614.295" stroke="black" stroke-width="2" stroke-linecap="round"/>
<path d="M997.088 639.376C996.731 639.292 994.421 638.267 995.194 637.699C998.109 635.559 1003.85 641.381 1005.29 643.182C1011.08 650.42 1006.38 659.143 997.959 660.557" stroke="black" stroke-width="2" stroke-linecap="round"/>
<path d="M1018.63 649.091L1019.95 649.16" stroke="black" stroke-width="2" stroke-linecap="round"/>
<path d="M1192.08 601.722C1188.79 597.49 1181.14 606.858 1188.57 609.857C1191.29 610.955 1196.6 610.742 1197.62 607.255C1198.92 602.795 1191.88 602.462 1189.45 601.722" stroke="black" stroke-width="2" stroke-linecap="round"/>
<path d="M1224.22 616.159C1220.71 619.282 1226.07 611.016 1226.54 610.15C1228.24 606.994 1230.22 603.891 1231.43 600.493C1231.63 599.939 1231.95 596.835 1231.95 599.076C1231.95 608.749 1231.97 620.421 1243.28 623.542C1256.3 627.137 1270.72 623.998 1283.8 622.426C1297.05 620.833 1310.28 620.056 1323.63 620.022C1341.16 619.978 1359.04 622.099 1376.51 620.022C1381.17 619.468 1389.73 618.656 1391.53 613.069C1392.49 610.077 1388.16 599.921 1391.44 605.858C1394.68 611.699 1397.95 617.596 1402.69 622.34" stroke="black" stroke-width="2" stroke-linecap="round"/>
<path d="M1406.55 599.162C1407.72 609.274 1411.33 615.836 1417.37 623.885" stroke="black" stroke-width="2" stroke-linecap="round"/>
<path d="M1275.98 607.661C1275.98 603.18 1278.87 599.588 1279.85 595.299C1280.91 590.605 1279.44 589.454 1281.13 593.754C1284.5 602.285 1292.57 604.021 1300.88 604.399C1318.89 605.218 1337.08 601.995 1354.87 599.677C1358.36 599.223 1362.96 599.261 1366.38 598.218C1370.32 597.012 1369.94 586.703 1370.07 583.796C1370.55 572.835 1368.83 562.52 1367.32 551.776C1367.12 550.365 1367.85 548.802 1368.7 550.488" stroke="black" stroke-width="2" stroke-linecap="round"/>
<path d="M1237.35 577.529C1237.7 577.144 1238.13 575.87 1238.13 576.757" stroke="black" stroke-width="2" stroke-linecap="round"/>
<path d="M1235.04 644.746V645.518" stroke="black" stroke-width="2" stroke-linecap="round"/>
<path d="M1283.71 573.666L1284.48 572.894" stroke="black" stroke-width="2" stroke-linecap="round"/>
<path d="M1286.03 650.927C1283.64 650.254 1282.26 649.88 1285.25 649.381" stroke="black" stroke-width="2" stroke-linecap="round"/>
<path d="M1674.41 617.357C1677.14 611.105 1680.22 605.014 1681.96 598.385C1682.2 597.476 1683.34 605.137 1684.02 606.884C1688.36 617.893 1699.4 620.765 1710.38 617.786C1715.94 616.277 1721.09 613.006 1724.8 608.6C1726.52 606.558 1726.93 603.512 1728.66 601.647C1730.41 599.766 1730.8 606.36 1730.81 606.712C1731.05 616.411 1735.84 621.114 1745.75 622.421C1754.92 623.633 1764.09 621.919 1772.96 619.674C1780.09 617.87 1788.23 616.01 1794.51 611.948C1799.86 608.483 1799.81 603.25 1794.16 601.132" stroke="black" stroke-width="2" stroke-linecap="round"/>
<path d="M1445.96 624.658C1447.92 618.759 1452.05 613.78 1454.71 608.176C1456.56 604.291 1457.37 600.201 1458.92 596.244C1460.29 592.735 1459.46 603.851 1460.72 607.404C1464.52 618.141 1472.6 620.484 1483.17 620.667C1513.23 621.185 1543.47 620.023 1573.56 620.023C1591.56 620.023 1609.55 619.25 1627.52 619.25" stroke="black" stroke-width="2" stroke-linecap="round"/>
<path d="M1493.86 590.664C1495.47 594.086 1504.01 607.887 1508.79 606.931C1510.21 606.649 1511.41 598.634 1511.8 597.445C1513.24 593.065 1514.73 588.458 1516.95 584.397C1519.38 579.934 1519.91 584.929 1521.03 587.445C1527.64 602.321 1536.64 616.504 1540.73 632.384C1541.75 636.35 1542.73 640.949 1541.16 644.917C1539.49 649.121 1536.11 649.219 1534.2 645.089C1526.38 628.164 1534.84 608.268 1543.56 593.668C1545.51 590.401 1548.34 586.847 1549.36 583.109C1549.96 580.897 1549.78 583.552 1550.34 585.084C1551.61 588.514 1558.28 607.661 1560.3 607.661" stroke="black" stroke-width="2" stroke-linecap="round"/>
<path d="M1559.53 583.71C1559.72 580.898 1562.15 589.135 1562.49 589.848C1565.55 596.275 1572.89 614.206 1581.8 614.4C1591.27 614.605 1589.31 570.649 1599.87 579.89C1606.15 585.381 1610.55 595.771 1610.61 604.056C1610.65 610.008 1604.85 615.992 1603.14 607.06C1599.91 590.206 1606.74 569.084 1616.01 555.124C1618 552.136 1622.63 548.464 1618.25 553.579" stroke="black" stroke-width="2" stroke-linecap="round"/>
<path d="M1527.08 565.168C1525.71 558.664 1541.53 557.211 1545.19 558.301C1551.73 560.248 1555.62 564.21 1557.21 570.576" stroke="black" stroke-width="2" stroke-linecap="round"/>
<path d="M1499.27 646.291C1499.27 653.859 1513.98 642.974 1516.26 641.655" stroke="black" stroke-width="2" stroke-linecap="round"/>
<path d="M1460.64 567.486C1461.49 567.243 1460.77 566.494 1460.64 565.941" stroke="black" stroke-width="2" stroke-linecap="round"/>
<path d="M1444.41 651.699C1443.14 650.066 1453.61 644.31 1455.23 643.201" stroke="black" stroke-width="2" stroke-linecap="round"/>
<path d="M1467.59 636.247H1468.36" stroke="black" stroke-width="2" stroke-linecap="round"/>
<path d="M170.693 440.609C174.059 434.184 177.753 428.068 180.422 421.28C180.659 420.677 181.529 416.408 181.775 418.993C182.249 423.966 183.705 429.455 186.929 433.393C189.786 436.882 194.026 437.041 198.14 436.453C203.689 435.661 209.174 434.741 214.763 434.23C216.173 434.102 228.581 433.27 228.1 434.23" stroke="black" stroke-width="2" stroke-linecap="round"/>
<path d="M172.955 465.753C172.955 465.86 172.995 465.543 173.028 465.441C173.523 463.88 174.642 462.399 175.344 460.926C175.513 460.571 178.176 454.463 178.601 455.331C180.236 458.672 180.069 463.209 184.27 464.793C190.061 466.976 191.774 457.448 192.931 454.082" stroke="black" stroke-width="2" stroke-linecap="round"/>
<path d="M263.486 440.316C259.868 442.837 266.769 432.131 268.427 428.046C268.625 427.557 270.394 423.427 270.42 423.602C270.909 426.958 270.725 429.043 273.622 431.58C278.171 435.561 284.594 436.352 290.354 437.063C300.649 438.335 311.133 438.681 321.499 438.731C338.576 438.814 355.747 438.826 372.809 438.041C385.162 437.472 411.917 438.371 424.268 438.323C428.327 438.307 432.256 437.361 436.299 437.196C441.007 437.004 445.615 437.217 450.148 435.681C460.424 432.2 465.34 423.291 467.794 413.153C469.319 406.852 469.194 400.43 468.041 394.078C467.811 392.812 466.363 385.24 465.684 385.873" stroke="black" stroke-width="2" stroke-linecap="round"/>
<path d="M302.552 418.237C304.966 415.094 309.39 413.433 313.012 412.22C317.11 410.847 324.508 409.858 319.586 415.963C317.984 417.951 310.401 422.674 314.772 424.595C323.639 428.492 330.339 431.537 331.92 442.149C332.862 448.468 333.192 457.743 328.269 462.717C324.967 466.053 321.439 461.705 321.725 458.104C322.015 454.464 324.217 450.942 325.982 447.905C330.146 440.741 334.826 433.871 339.508 427.038C343.379 421.388 348.297 415.23 350.339 408.559C350.754 407.204 349.905 408.45 349.855 409.509C349.645 413.912 348.732 419.33 350.397 423.518C352.781 429.516 361.889 428.435 366.986 428.481C376.336 428.567 385.767 429.12 395.11 428.948C401.021 428.839 411.754 424.34 411.297 416.813C411.261 416.221 409.388 411.25 408.169 412.223C405.805 414.11 414.235 427.656 415.294 429.717" stroke="black" stroke-width="2" stroke-linecap="round"/>
<path d="M416.501 411.772C419.605 415.436 422.447 419.315 425.389 423.107" stroke="black" stroke-width="2" stroke-linecap="round"/>
<path d="M261.436 465.774C260.097 465.558 261.941 464.35 262.268 464.126C267.919 460.259 274.192 457.662 280.386 454.831" stroke="black" stroke-width="2" stroke-linecap="round"/>
<path d="M413.916 383.892C410.466 377.62 406.109 374.044 399.322 371.668C390.156 368.46 386.289 372.913 382.484 380.524" stroke="black" stroke-width="2" stroke-linecap="round"/>
<path d="M525.574 439.682C524.536 439.682 524.329 439.682 525.928 439.682C532.084 439.682 537.954 438.429 543.582 435.881C545.516 435.006 552.526 431.974 550.251 428.665C546.965 423.886 537.615 426.338 533.306 427.409C527.621 428.82 516.859 431.181 513.751 437.009C511.222 441.75 523.043 443.962 525.477 444.547C534.347 446.678 543.222 447.952 551.861 451.022C554.725 452.04 564.279 454.529 564.393 458.85C564.478 462.091 558.953 464.481 556.758 465.519C545.765 470.717 533.95 473.76 521.708 472.542C510.972 471.474 500.255 465.771 493.488 457.272C483.502 444.73 496.072 428.682 503.861 418.485C510.896 409.275 519.071 400.949 527.861 393.422C531.104 390.645 535.13 386.995 539.233 385.368C546.526 382.477 551.155 394.112 553.923 398.705C561.257 410.873 572.437 428.671 581.246 439.682" stroke="black" stroke-width="2" stroke-linecap="round"/>
<path d="M580.469 419.965C580.551 417.619 581.059 419.644 581.599 420.842C583.26 424.533 584.751 428.218 587.487 431.299C591.363 435.664 597.467 436.388 602.954 436.996C613.794 438.197 622.477 437.32 633.356 437.247C644.236 437.173 636.034 437.34 648.833 436.507C661.632 435.674 659.869 420.865 659.852 418.417C659.766 405.635 656.124 380.25 656.124 380.25" stroke="black" stroke-width="2" stroke-linecap="round"/>
<path d="M596.898 388.654C592.64 389.234 572.309 403.841 571.384 401.991" stroke="black" stroke-width="2" stroke-linecap="round"/>
<path d="M572.544 384.015C571.58 383.951 571.964 383.985 571.964 383.435" stroke="black" stroke-width="2" stroke-linecap="round"/>
<path d="M578.342 378.216H579.502" stroke="black" stroke-width="2" stroke-linecap="round"/>
<path d="M522.675 495.35C522.042 495.811 521.394 495.93 520.613 495.93C519.601 495.93 523.402 494.077 523.48 494.03C526.742 492.049 529.975 490.115 533.467 488.553C534.343 488.161 537.328 487.076 537.751 486.652" stroke="black" stroke-width="2" stroke-linecap="round"/>
<path d="M553.988 479.114H555.147" stroke="black" stroke-width="2" stroke-linecap="round"/>
<path d="M688.146 450.53C687.533 450.952 690.149 446.198 690.354 445.865C693.297 441.065 696.322 436.281 699.112 431.39C699.617 430.505 700.098 427.937 700.101 430.118C700.105 433.052 700.461 436.083 702.796 438.156C709.53 444.134 720.13 444.505 728.582 444.985C738.441 445.546 748.023 444.936 757.851 444.208C780.462 442.532 803.284 443.841 825.931 444.236C841.309 444.504 919.887 444.962 935.267 445.532C944.154 445.862 953.175 445.894 962.021 444.872C962.68 444.795 964.42 444.065 962.836 444.37C958.508 445.203 954.072 446.505 949.856 447.752C939.698 450.758 928.388 455.365 920.88 463.099C910.819 473.462 909.706 487.194 908.946 500.781" stroke="black" stroke-width="2" stroke-linecap="round"/>
<path d="M746.82 431.904C747.115 429.184 749.984 427.239 751.544 425.221C753.226 423.043 754.494 420.609 755.375 418.006C755.684 417.094 755.806 415.421 756.369 414.608C756.761 414.041 756.408 415.988 756.494 416.672C756.792 419.052 757.14 420.722 758.696 422.961C763.822 430.34 783.181 437.988 792.154 426.316" stroke="black" stroke-width="2" stroke-linecap="round"/>
<path d="M790.523 386.851C791.405 377.517 792.416 405.539 792.385 414.914C792.369 419.953 791.421 428.31 796.314 431.673C801.622 435.321 809.755 433.761 814.263 429.666C818.615 425.713 821.003 419.892 821.462 414.101C821.527 413.278 820.037 407.455 821.338 408.267C828.26 412.586 826.556 424.114 833.288 428.774" stroke="black" stroke-width="2" stroke-linecap="round"/>
<path d="M835.362 409.672C835.332 409.645 837.859 415.661 838.428 416.717C841.404 422.237 850.774 436.754 858.742 430.604C864.945 425.817 865.752 415.428 872.701 411.741C878.942 408.429 884.108 419.125 885.773 423.343C887.814 428.517 888.876 435.327 881.615 436.319C870.963 437.775 873.875 427.533 877.872 421.884C886.944 409.062 893.749 397.091 906.772 388.3C910.316 385.907 914.81 384.035 918.044 381.215C918.407 380.898 916.351 380.375 916.255 380.346" stroke="black" stroke-width="2" stroke-linecap="round"/>
<path d="M810.846 385.466C807.524 384.153 820.395 377.586 820.878 377.392C827.464 374.751 834.15 373.226 835.858 381.262" stroke="black" stroke-width="2" stroke-linecap="round"/>
<path d="M755.259 466.526C755.357 465.841 755.852 465.956 756.429 465.966" stroke="black" stroke-width="2" stroke-linecap="round"/>
<path d="M697.662 403.719C697.494 404.489 696.956 404.855 696.472 405.439" stroke="black" stroke-width="2" stroke-linecap="round"/>
<path d="M697.159 465.766C696.681 466.359 696.953 466.335 697.139 466.926" stroke="black" stroke-width="2" stroke-linecap="round"/>
<path d="M999.908 440.962C999.395 437.882 1002.05 434.505 1003.26 431.813C1003.62 431.007 1005.36 425.404 1005.8 426.433C1009.49 434.91 1023.31 436.161 1031.09 436.516C1039.88 436.918 1049.43 436.194 1058.09 434.519C1062.47 433.671 1067.72 432.103 1070.23 428.044C1074.65 420.922 1071.76 409.399 1070.78 401.789C1070.15 396.867 1069.59 391.955 1069.27 387.002C1069.06 383.848 1068.35 379.712 1069.24 376.564C1069.77 374.64 1070.53 377.14 1070.65 377.756" stroke="black" stroke-width="2" stroke-linecap="round"/>
<path d="M1003.97 406.17C1004.5 406.237 1004.35 406.358 1004.55 406.749" stroke="black" stroke-width="2" stroke-linecap="round"/>
<path d="M1003.97 466.477C1005.41 462.16 1010.82 458.117 1013.83 454.879" stroke="black" stroke-width="2" stroke-linecap="round"/>
<path d="M1104.88 440.368C1107.65 431.728 1111.42 423.693 1113.32 414.746C1113.48 413.972 1113.94 410.643 1113.98 413.479C1114.03 418.333 1114.73 423.603 1118.93 426.707C1123.99 430.445 1131.3 429.055 1136.97 427.885C1142.46 426.755 1148.5 425.153 1153.41 422.335C1153.78 422.127 1155.39 420.646 1155.1 421.91C1154.47 424.734 1154.7 427.746 1155.12 430.582C1157.16 444.042 1161.63 456.964 1164.51 470.236C1165.28 473.812 1167.64 482.919 1163.07 485.562C1159.56 487.591 1159.74 478.87 1159.79 477.937C1160.43 464.915 1165.23 452.631 1171.32 441.27C1174.75 434.881 1178.83 428.696 1180.49 421.54C1181.28 418.11 1180.81 413.382 1181.96 420.012C1183.07 426.426 1183.74 432.885 1185.45 439.184C1186.26 442.168 1186.83 444.972 1189.37 446.8" stroke="black" stroke-width="2" stroke-linecap="round"/>
<path d="M1189.28 416.045C1188.51 415.218 1188.28 415.133 1188.49 416.597C1189.17 421.324 1190.48 426.063 1191.81 430.638C1192.22 432.057 1197.5 450.618 1201.73 445.426C1207.7 438.099 1208.62 427.658 1216.93 422.038C1218.02 421.297 1224.05 417.823 1224.5 421.078C1225.25 426.455 1218.36 432.774 1215.49 436.526C1211.23 442.086 1213.41 443.601 1218.63 447.176C1226.86 452.817 1233.96 459.848 1234.09 470.539C1234.11 472.053 1232.45 482.65 1228.36 480.589C1226.51 479.661 1226.62 475.731 1226.64 474.34C1226.71 468.407 1227.87 462.343 1229.45 456.645C1231.97 447.538 1236.48 439.921 1241.94 432.324C1243.4 430.281 1248.02 425.61 1247.85 422.731C1247.81 422.059 1246.94 421.314 1246.59 420.754C1246.3 420.278 1246.52 421.869 1246.5 422.427C1246.4 425.271 1246.29 428.114 1246.24 430.96C1246.11 438.342 1246.32 445.816 1247.3 453.142C1247.94 457.963 1248.96 464.64 1253.14 467.851C1263.79 476.037 1275.32 450.032 1277.03 443.672C1279.64 433.975 1275.61 424.118 1266.25 419.99C1265.7 419.747 1267.44 419.214 1267.7 419.105C1273.14 416.865 1279.57 416.164 1285.39 416.564C1289.18 416.824 1298.59 417.366 1300.32 421.856C1301.77 425.608 1297.15 430.291 1294.88 432.691C1293.45 434.21 1288.98 437.071 1292.24 439.045C1298.68 442.933 1306.76 442.911 1313.2 447.191C1325.87 455.611 1318.93 471.335 1305.74 474.523C1301.47 475.553 1295.83 474.18 1297.56 468.629C1298.84 464.532 1302.21 461.414 1305.57 458.98" stroke="black" stroke-width="2" stroke-linecap="round"/>
<path d="M1117.14 388.575L1117.71 388.596" stroke="black" stroke-width="2" stroke-linecap="round"/>
<path d="M1188.61 402.096C1188.1 398.613 1183.45 396.324 1180.52 395.56C1171.86 393.292 1164.73 396.036 1159.57 402.822" stroke="black" stroke-width="2" stroke-linecap="round"/>
<path d="M1200.34 365.371C1199.8 364.195 1192.46 374.13 1191.88 374.939" stroke="black" stroke-width="2" stroke-linecap="round"/>
<path d="M1192.24 464.307C1191.81 463.472 1191.16 462.076 1192.61 463.772C1196.99 468.871 1193.14 474.767 1190.56 479.334" stroke="black" stroke-width="2" stroke-linecap="round"/>
<path d="M1286.19 399.121C1286.27 396.945 1286.13 395.753 1284.04 394.404C1275.62 388.98 1266.47 394.538 1260.05 399.949" stroke="black" stroke-width="2" stroke-linecap="round"/>
<path d="M1268.76 366.6C1263.82 372.14 1259.1 377.888 1254.25 383.5" stroke="black" stroke-width="2" stroke-linecap="round"/>
<path d="M1372.19 443.395C1369.97 440.551 1373.95 429.745 1375.6 426.997C1376.54 425.425 1378.14 429.616 1378.5 430.122C1381.55 434.384 1386.17 436.641 1391.19 437.789C1402.01 440.265 1414.08 438.33 1425.02 438.208C1443.74 438 1462.48 438.04 1481.2 438.305C1507.21 438.673 1533.97 434.61 1544.6 407.572C1549.63 394.786 1545.23 382.589 1542.54 370.041C1542.21 368.525 1542.67 363.712 1542.67 367.432" stroke="black" stroke-width="2" stroke-linecap="round"/>
<path d="M1419.16 416.141C1417.69 416.141 1417.53 416.648 1419.03 417.72C1425.13 422.101 1434.09 423.02 1441.32 423.518C1450.59 424.157 1484.29 421.443 1472.95 404.286C1460.09 384.82 1427.98 385.612 1408.23 390.659C1403.75 391.806 1399.21 393.35 1395.06 395.427C1391.69 397.111 1401.71 391.892 1405.08 390.208C1415.93 384.781 1427.56 380.493 1439 376.516C1447.53 373.553 1456.17 371.037 1465 369.139C1470.09 368.044 1476.03 366.542 1481.33 367.045C1487.5 367.632 1488.38 373.378 1489 378.449C1491.57 399.524 1493.47 420.729 1495.25 441.881C1496.44 456.129 1496.09 452.684 1497.02 464.625C1497.11 465.829 1497.04 470.997 1497.89 472.775C1498.3 473.638 1498.66 471.021 1499.02 470.133C1500.06 467.538 1501.25 464.985 1502.46 462.466C1503.59 460.136 1509.46 445.225 1512.16 451.98" stroke="black" stroke-width="2" stroke-linecap="round"/>
<path d="M1398.86 376.71C1398.32 376.633 1398.66 376.336 1398.99 376.13C1403.62 373.207 1408.84 370.915 1413.78 368.592C1420.71 365.328 1442.08 356.89 1434.81 359.314" stroke="black" stroke-width="2" stroke-linecap="round"/>
<path d="M1454.53 351.775H1455.69" stroke="black" stroke-width="2" stroke-linecap="round"/>
<path d="M1431.91 464.85C1430.61 462.064 1426.46 466.157 1425.92 467.685C1424.47 471.812 1426.37 478.504 1431.72 477.994C1436.56 477.532 1442.91 472.213 1441.19 466.783C1439.68 461.995 1433.85 464.336 1430.75 465.43" stroke="black" stroke-width="2" stroke-linecap="round"/>
<path d="M1459.75 474.708C1460.6 474.308 1460.33 474.292 1460.33 474.708" stroke="black" stroke-width="2" stroke-linecap="round"/>
<path d="M1374.51 410.921C1375.04 410.855 1374.89 410.733 1375.08 410.342" stroke="black" stroke-width="2" stroke-linecap="round"/>
<path d="M1581.52 393.406H1580.94" stroke="black" stroke-width="2" stroke-linecap="round"/>
<path d="M1573.98 438.523C1570.63 438.668 1574.71 431.707 1575.27 430.598C1576.97 427.228 1578.29 424.105 1579.2 420.482C1579.37 419.81 1579.64 421.796 1579.88 422.448C1580.55 424.289 1581.41 426.129 1583 427.376C1590.35 433.126 1602.89 432.024 1611.48 431.307C1619.74 430.617 1627.91 428.743 1636.22 428.665C1637.36 428.654 1639.51 429.567 1639.51 429.567C1639.51 429.567 1649.63 446.26 1655 454.405C1659.68 461.493 1668.56 472.002 1667.02 481.24C1666.28 485.638 1661.35 490.911 1656.68 487.941C1649.34 483.282 1649.85 470.744 1651.84 463.683C1655.14 452.001 1662.42 441.725 1666.53 430.308C1668.6 424.572 1666.75 403.411 1666.75 394.732C1666.75 394.732 1666.76 393.664 1666.76 395.428C1666.76 406.21 1665.69 435.693 1679.65 438.354C1688.35 440.014 1698.53 436.815 1707.03 435.197C1708.27 434.96 1711.97 434.23 1710.7 434.23C1702.32 434.23 1698.13 445.101 1696.72 452.955C1694.72 464.118 1702.04 489.914 1716.37 488.432C1722.75 487.772 1726.33 476.626 1728.55 471.318C1732.73 461.301 1734.04 455.214 1738.47 445.264C1739.79 442.305 1753.55 420.252 1757.22 430.638C1759.2 436.252 1759.36 442.564 1760.44 448.388C1761.1 451.955 1764.24 461.414 1759.99 464.013C1758.15 465.138 1756.33 463.559 1755.61 461.822C1753.49 456.728 1754.74 450.819 1756.99 446.037C1759.98 439.713 1767.24 431.588 1775.07 431.733C1780.15 431.827 1782.62 441.149 1784.12 444.78C1785.95 449.203 1787.5 454.535 1790.85 457.892" stroke="black" stroke-width="2" stroke-linecap="round"/>
<path d="M1789.11 430.638C1793.23 432.322 1795.34 439.646 1796.84 443.331C1798.23 446.717 1799.51 450.051 1801.29 453.253" stroke="black" stroke-width="2" stroke-linecap="round"/>
<path d="M1579.78 458.818C1580.81 458.818 1582.21 458.465 1582.68 459.398" stroke="black" stroke-width="2" stroke-linecap="round"/>
<path d="M1642.99 366.619C1642.18 364.057 1651.33 367.863 1651.88 368.036C1666.06 372.516 1680.41 374.132 1695.3 373.641C1707.66 373.234 1721.82 371.691 1733.12 366.168C1737.08 364.236 1735.39 363.958 1732.29 363.719" stroke="black" stroke-width="2" stroke-linecap="round"/>
<path d="M1708.51 464.037H1709.09" stroke="black" stroke-width="2" stroke-linecap="round"/>
<path d="M1717.79 462.877H1718.95" stroke="black" stroke-width="2" stroke-linecap="round"/>
<path d="M1797.81 385.175C1793.25 391.04 1788.56 396.794 1783.89 402.571" stroke="black" stroke-width="2" stroke-linecap="round"/>
<path d="M203.315 244.777C204.39 237.438 208.988 229.761 214.293 225.425C219.865 220.87 221.359 243.32 217.295 245.952C208.331 251.757 193.47 246.418 185.491 241.251C176.335 235.322 169.964 225.304 169.121 213.344C168.139 199.416 178.722 192.848 189.334 191.825C204.041 190.408 293.071 191.552 310.352 191.691C359.378 192.085 385.593 191.204 385.593 191.204C394.4 190.411 400.975 186.463 400.975 181.415C400.975 171.494 387.82 174.904 386.602 184.405" stroke="black" stroke-width="2" stroke-linecap="round"/>
<path d="M351.972 212.551C351.647 211.252 341.021 213.294 340.077 213.325C324.26 213.85 308.263 212.461 292.446 212.019C284.622 211.801 277.052 212.269 269.284 212.551C268.608 212.576 265.772 213.482 266.238 212.551" stroke="black" stroke-width="2" stroke-linecap="round"/>
<path d="M266.238 213.422C267.703 213.317 269.214 212.845 270.686 213.083C274.111 213.637 277.678 217.02 280.043 219.297C288.509 227.449 294.227 239.079 298.781 249.737C303.36 260.453 307.171 271.759 309.661 283.15C310.01 284.747 314.091 299.452 310.338 299.639C305.762 299.868 302.1 293.828 300.981 290.259C298.179 281.323 301.277 270.578 303.955 261.971C306.735 253.036 310.537 244.18 317.543 237.744C319.232 236.193 323.217 232.332 325.981 233.151C328.63 233.936 327.595 244.822 327.601 246.69C327.643 260.547 328.134 274.534 327.359 288.373C327.137 292.333 326.866 289.696 326.827 288.373C326.66 282.699 327.314 276.98 327.939 271.352C329.058 261.286 330.632 250.549 337.054 242.338C337.948 241.196 347.376 230.87 348.539 236.294C349.335 240.011 348.536 244.412 348.273 248.117C347.866 253.842 347.38 259.56 348.515 265.235C348.964 267.482 349.793 270.856 348.926 266.951" stroke="black" stroke-width="2" stroke-linecap="round"/>
<path d="M358.377 239.968C358.377 239.815 358.427 239.123 358.183 239.678C356.863 242.686 356.612 246.368 356.539 249.591C356.468 252.79 357.081 262.599 361.858 262.599" stroke="black" stroke-width="2" stroke-linecap="round"/>
<path d="M272.331 257.377C272.178 255.853 270.585 255.327 269.284 256.023C265.93 257.818 263.844 263.175 266.866 266.129C270.921 270.092 278.196 264.699 276.586 259.601C275.361 255.721 270.251 255.008 267.543 257.377" stroke="black" stroke-width="2" stroke-linecap="round"/>
<path d="M284.081 262.164C282.219 261.117 284.524 261.294 285.387 261.294" stroke="black" stroke-width="2" stroke-linecap="round"/>
<path d="M331.953 308.73C329.577 307.033 335.642 313.674 338.384 314.678C344.322 316.852 348.866 313.466 352.407 309.165" stroke="black" stroke-width="2" stroke-linecap="round"/>
<path d="M472.532 243.45C472.111 244.293 485.777 240.748 483.944 238.228C482.624 236.413 474.492 238.361 474.176 238.421C467.263 239.732 458.426 241.123 452.392 245.094C449.384 247.074 454.041 248.173 455.173 248.479C459.701 249.705 464.438 250.174 469.002 251.284C480.277 254.025 492.161 259.657 498.717 269.732C505.922 280.803 480.059 280.829 475.434 280.829C465.736 280.829 455.998 280.288 446.469 278.411C437.357 276.617 427.106 274.276 420.018 267.821C407.523 256.443 427.235 240.833 436.604 236.149C446.875 231.013 458.309 228.564 469.123 224.858C481.209 220.715 493.272 215.929 504.834 210.472C506.377 209.744 512.557 207.341 511.483 204.548C510.98 203.241 511.919 206.843 511.942 206.99C513.762 218.595 510.015 230.588 508.944 242.072C507.884 253.446 509.813 268.93 520.839 275.268C528.526 279.687 537.838 270.752 541.415 264.678C548.703 252.3 539.766 238.599 529.253 231.797C528.19 231.109 524.705 230.21 525.941 229.935C526.91 229.72 527.836 229.347 528.794 229.089C533.078 227.935 537.697 227.485 542.116 227.42C548.415 227.329 556.043 227.403 561.893 230.153C565.805 231.991 563.589 234.001 560.878 235.617C559.528 236.421 557.597 237.151 556.598 238.446C555.222 240.23 558.641 242.033 559.693 242.652C565.677 246.18 572.044 248.597 577.077 253.581C580.991 257.457 585.792 264.236 579.736 268.498C576.345 270.886 566.139 273.61 564.263 267.894C563.069 264.259 566.48 260.291 568.711 257.812" stroke="black" stroke-width="2" stroke-linecap="round"/>
<path d="M444.679 295.675C447.42 296.954 450.059 301.028 450.337 303.968C450.807 308.936 447.127 311.206 443.374 313.083" stroke="black" stroke-width="2" stroke-linecap="round"/>
<path d="M461.652 304.378C460.471 304.231 463.028 304.378 463.393 304.378" stroke="black" stroke-width="2" stroke-linecap="round"/>
<path d="M608.468 237.122C608.259 236.956 606.891 236.232 607.459 235.802C608.722 234.843 612.922 234.724 613.45 234.687C618.487 234.335 623.528 234.339 628.574 234.42C635.852 234.537 657.459 236.573 650.409 234.758" stroke="black" stroke-width="2" stroke-linecap="round"/>
<path d="M686.009 228.628C684.9 228.457 686.577 227.953 686.774 227.914C689.807 227.316 692.37 228.705 694.676 230.565C701.585 236.138 708.037 244.301 710.122 253.098C710.609 255.149 710.648 253.972 711.091 252.282C712.5 246.91 713.423 241.394 715.195 236.122C716.387 232.575 719.577 222.333 725.161 224.932C729.065 226.749 732.834 230.136 735.561 233.369C738.317 236.637 740.475 239.659 741.398 243.947C741.448 244.18 742.026 256.963 737.243 253.659C732.986 250.718 736.598 240.532 738.059 237.091C739.714 233.191 742.202 228.864 745.833 226.487C751.68 222.66 753.881 230.973 754.831 235.306C758.406 251.62 758.165 268.501 759.521 285.062C759.917 289.899 760.575 294.677 761.509 299.438C761.598 299.891 762.534 302.451 761.025 301.987C757.027 300.757 759.609 288.809 759.878 286.489C762.103 267.292 763.741 239.376 782.691 228.322C784.021 227.546 783.969 231.408 784.016 231.763C784.882 238.289 786.115 244.734 787.967 251.059C789.041 254.725 790.445 258.261 791.689 261.866C792.357 263.804 791.845 261.802 791.765 261C790.893 252.277 796.876 241.335 802.904 235.408C803.779 234.548 811.682 229.448 808.512 233.675" stroke="black" stroke-width="2" stroke-linecap="round"/>
<path d="M745.655 207.523C743.399 203.011 758.931 199.003 760.999 198.653C768.19 197.434 771.048 201.687 773.642 207.523" stroke="black" stroke-width="2" stroke-linecap="round"/>
<path d="M706.656 273.592C708.083 271.308 705.27 272.307 704.056 273.107C701.028 275.105 694.665 281.965 698.881 285.521C702.611 288.665 711.055 285.539 713.283 281.748C714.844 279.093 712.861 276.576 710.275 275.784C707.232 274.851 704.88 276.016 702.068 276.803" stroke="black" stroke-width="2" stroke-linecap="round"/>
<path d="M772.724 279.097C772.818 279.844 773.994 279.556 774.56 279.556" stroke="black" stroke-width="2" stroke-linecap="round"/>
<path d="M797.959 287.356C799.115 285.815 802.459 284.596 804.026 283.788C808.813 281.317 813.73 279.092 818.606 276.803" stroke="black" stroke-width="2" stroke-linecap="round"/>
<path d="M705.279 296.073C704.518 295.65 704.82 304.892 704.82 306.167" stroke="black" stroke-width="2" stroke-linecap="round"/>
<path d="M854.852 256.616C854.523 256.616 853.936 256.743 854.291 256.259C856.429 253.344 858.439 250.399 860.077 247.159C862.124 243.111 863.518 238.678 863.518 234.109C863.518 233.321 862.702 230.66 862.702 232.885C862.702 237.208 863.632 242.076 864.563 246.267C865.495 250.462 867.491 253.433 871.675 254.73C878.249 256.767 885.364 256.038 892.092 255.418C902.547 254.453 912.895 253.889 923.393 253.633C949.231 253.003 974.904 256.465 1000.65 252.945C1004.15 252.467 1007.63 251.595 1010.85 250.09C1015.93 247.711 1017.41 243.602 1018.09 238.263C1019.75 225.212 1019.11 185.649 1019.11 198.806" stroke="black" stroke-width="2" stroke-linecap="round"/>
<path d="M901.192 224.04C901.894 223.425 901.904 229.857 901.956 230.387C902.352 234.384 902.878 238.92 904.862 242.393" stroke="black" stroke-width="2" stroke-linecap="round"/>
<path d="M914.038 225.417C914.038 228.536 913.472 232.448 915.262 235.205C919.12 241.145 930.678 239.099 936.291 238.952C948.158 238.639 960.054 239.181 971.848 239.181" stroke="black" stroke-width="2" stroke-linecap="round"/>
<path d="M864.946 287.356C864.489 287.878 865.158 287.781 865.404 288.274" stroke="black" stroke-width="2" stroke-linecap="round"/>
<path d="M1061.73 252.28C1059.16 252.138 1060.82 250.609 1062.04 249.472C1066.25 245.535 1071.69 240.919 1073.35 235.197C1074.28 231.956 1073.51 233.536 1073.88 236.397C1074.81 243.542 1078.11 250.893 1085.58 253.149C1094.02 255.699 1102.56 245.399 1106.26 239.232C1111.16 231.073 1112.92 221.425 1117.27 212.981C1117.75 212.049 1120.44 209.536 1119.16 210.708C1116.92 212.758 1116.76 216.904 1116.45 219.646C1115.37 229.266 1116.72 239.13 1118.93 248.501C1121.6 259.811 1126.63 271.486 1127.15 283.179C1127.25 285.364 1124.29 292.613 1120.97 289.154C1119.27 287.378 1119.35 283.654 1119.49 281.442C1119.87 275.582 1121.94 269.873 1124.14 264.486C1127.71 255.742 1132.64 247.624 1136.6 239.053C1137.52 237.055 1139.79 229.389 1142.42 228.43C1144.97 227.504 1149.11 231.228 1150.36 232.924C1154.82 238.96 1151.35 245.026 1145.92 248.731C1142.79 250.868 1141.13 251.639 1144.57 254.374C1150.44 259.042 1156.86 263.277 1159.63 270.615C1161.54 275.667 1163.31 283.303 1160.02 288.158C1156.22 293.756 1152.17 288.315 1151.72 283.766C1149.63 262.881 1167.58 246.73 1174.6 228.43C1174.66 228.267 1175.75 224.931 1174.7 225.979C1173.83 226.846 1175.82 229.315 1176.18 230.167C1179.23 237.396 1180.89 245.115 1182.92 252.663C1184.5 258.543 1186.43 264.354 1187.72 270.309C1188.37 273.293 1189.09 276.718 1186.83 279.221C1183.65 282.736 1176.29 282.329 1176.03 276.641C1175.83 272.428 1178.19 267.818 1180.01 264.18C1182.65 258.91 1186 254.072 1189 249.012C1192.97 242.31 1196.95 234.697 1197.68 226.796C1197.74 226.192 1197.58 220.038 1197.89 223.017C1198.74 231.315 1200.97 239.329 1202.89 247.429C1203.11 248.351 1205.18 256.67 1204.68 256.417" stroke="black" stroke-width="2" stroke-linecap="round"/>
<path d="M1212.49 221.944C1209.35 222.313 1210.17 230.904 1210.22 232.899C1210.32 237.067 1210.61 241.557 1212.7 245.283C1216.19 251.516 1222.82 252.423 1229.04 254.119" stroke="black" stroke-width="2" stroke-linecap="round"/>
<path d="M1064.03 271.585C1059.3 267.116 1054.87 279.772 1059.53 281.697C1062.59 282.959 1068.24 279.557 1068.57 276.284C1069.08 271.318 1061.7 273.082 1059.43 273.883" stroke="black" stroke-width="2" stroke-linecap="round"/>
<path d="M1077.36 275.722C1077.57 274.971 1078.14 275.973 1078.28 276.182" stroke="black" stroke-width="2" stroke-linecap="round"/>
<path d="M1208.64 204.986C1207.9 201.153 1206.05 199.948 1201.93 199.345C1194.23 198.22 1186.77 200.005 1180.43 204.382" stroke="black" stroke-width="2" stroke-linecap="round"/>
<path d="M1207.62 170.924C1203.94 175.221 1199.82 178.699 1195.21 181.955" stroke="black" stroke-width="2" stroke-linecap="round"/>
<path d="M1291.86 259.494C1291.96 259.897 1292.27 258.77 1292.46 258.398C1294.2 254.908 1296.27 251.584 1298.1 248.139C1300.32 243.951 1305.01 237.339 1305.01 232.268C1305.01 229.235 1304.39 238.352 1304.74 241.366C1306.18 253.89 1319.87 262.789 1329.34 251.592C1333.15 247.087 1335.21 241.196 1336.28 235.456C1336.48 234.411 1336.66 229.274 1336.68 229.878C1336.89 237.098 1336.31 246.022 1342.46 250.994C1348.28 255.698 1356.71 256.105 1363.84 256.373C1378.16 256.91 1392.54 256.797 1406.87 257.103C1425.24 257.496 1446.46 258.278 1463.97 251.426C1466.49 250.44 1472.82 245.471 1468.76 242.76" stroke="black" stroke-width="2" stroke-linecap="round"/>
<path d="M1305.01 209.293H1307.99" stroke="black" stroke-width="2" stroke-linecap="round"/>
<path d="M1416.76 199.133C1414.94 199.741 1413.34 201.145 1411.72 202.121C1407.4 204.717 1402.8 206.599 1398.24 208.695" stroke="black" stroke-width="2" stroke-linecap="round"/>
<path d="M1519.55 260.137C1521.7 255.243 1524.77 251.211 1528.12 247.089C1528.4 246.741 1531.47 242.084 1531.51 243.669C1531.64 248.774 1532.03 252.061 1536.82 254.958C1545.41 260.155 1548.87 258.091 1566.14 258.046C1586.38 258.091 1606.51 257.987 1626.8 257.903C1647.44 257.817 1667.75 258.091 1688.72 258.091C1723.05 258.091 1754.88 258.343 1787.89 256.022C1791.62 255.76 1795.34 255.291 1799.08 255.291C1801.87 255.291 1798.56 254.809 1797.22 255.092C1781.1 258.502 1761.22 269.652 1762.19 288.161" stroke="black" stroke-width="2" stroke-linecap="round"/>
<path d="M1535.09 218.901H1534.5" stroke="black" stroke-width="2" stroke-linecap="round"/>
<path d="M1574.07 194.54H1573.47" stroke="black" stroke-width="2" stroke-linecap="round"/>
<path d="M1561.39 244.001C1560.06 244.829 1562.78 239.542 1562.85 239.42C1566.24 233.524 1568.71 227.321 1569.99 220.627C1570.89 215.893 1570.57 220.392 1571.22 223.018C1573.1 230.708 1578.07 239.422 1586.39 241.445C1605.87 246.183 1617.7 221.342 1619.49 206.019C1619.52 205.766 1620.06 201.112 1619.06 203.562C1616.98 208.658 1618.61 215.679 1619.62 220.76C1622.27 234.005 1627.26 246.566 1631.51 259.341C1635.35 270.879 1639.83 284.673 1636.22 296.858C1635.1 300.648 1629.89 308.925 1626.33 302.104C1621.14 292.148 1628.34 277.61 1633.2 269.035C1638.52 259.672 1646.27 252.025 1651.63 242.707C1654.06 238.489 1657.61 231.631 1656.88 226.471C1656.59 224.457 1655.87 225.564 1655.78 226.836C1655.39 232.359 1654.65 237.781 1654.49 243.337C1654.15 255.007 1654.82 266.78 1656.54 278.332C1657.42 284.18 1658.23 295.68 1663.78 299.382C1670.62 303.942 1678.69 296.204 1682.71 291.28C1689.54 282.892 1694.99 271.488 1694.99 260.503C1694.99 252.853 1692.05 244.335 1686.53 238.888C1682.85 235.27 1678.93 234.965 1674.61 233.111C1674.15 232.917 1678.97 231.953 1679.22 231.883C1688.25 229.341 1696.74 226.385 1706.28 226.803C1713.08 227.101 1721.37 228.65 1726.07 234.107C1729.63 238.244 1728.62 243.98 1722.72 244.964C1718.1 245.734 1712.03 242.207 1715.18 236.963C1718.81 230.91 1728.45 228.514 1734.67 226.737C1740.45 225.086 1747.41 223.245 1753.43 224.811C1759.07 226.28 1763.23 232.25 1765.51 237.295C1766.69 239.899 1766.56 246.321 1762.59 242.009C1759.69 238.863 1760.86 236.369 1763.39 233.842" stroke="black" stroke-width="2" stroke-linecap="round"/>
<path d="M1677.93 189.617C1680.18 186.032 1680.12 183.289 1675.54 181.715C1669.57 179.669 1662.83 179.56 1656.68 180.719C1649.34 182.101 1645.05 185.735 1639.08 189.617" stroke="black" stroke-width="2" stroke-linecap="round"/>
<path d="M1570.35 276.273C1567.82 273.743 1575.67 278.519 1576.46 279.361C1580.13 283.287 1578.37 288.12 1573.94 290.019" stroke="black" stroke-width="2" stroke-linecap="round"/>
<path d="M1382.79 931.602C1368.94 940.155 1358.25 951.032 1352.91 969.296C1351.61 973.958 1349.59 977.841 1348.28 977.795C1347.15 977.755 1343.95 972.372 1340.97 966.055C1338.18 959.745 1334.63 953.596 1333.54 952.428C1332.26 951.254 1331.2 949.146 1331.25 947.83C1327.95 942.153 1323.31 934.246 1317.38 931.591C1311.44 929.124 1305.14 931.54 1304.59 936.416C1303.43 948.236 1302.68 957.375 1307.94 957.559C1312.08 957.704 1316.25 962.368 1333.69 985.758C1340.7 995.228 1347.39 1008.37 1348.12 1008.77C1349.05 1009.18 1350.28 1006.21 1351.17 1002.29C1351.88 998.359 1353.44 986.447 1354.54 981.779C1355.64 977.111 1357.19 970.575 1357.88 967.022C1360.51 956.383 1367.34 946.195 1374.93 938.93C1379.02 935.119 1382.89 934.053 1383.64 934.08C1386.84 934.191 1403.42 940.748 1404.27 943.226C1404.78 944.75 1403.94 947.356 1402.18 949.177C1395.73 956.106 1392.81 964.288 1392.37 976.699C1391.95 988.733 1392.11 992.492 1399.02 999.699C1404.45 1005.73 1407.41 1007.33 1412.67 1007.52C1422.26 1007.85 1431.46 1003.47 1437 995.566C1441.15 990.063 1442.01 984.08 1442.01 973.161C1442.09 960.173 1440.36 955.782 1430.44 943.386C1427.18 939.507 1427.21 938.755 1429.93 936.215C1434.6 931.859 1445.69 932.623 1450.78 937.696C1459.15 946.083 1467.59 968.406 1470.97 990.175C1472.66 1001.34 1473.94 1012.03 1473.9 1013.16C1473.85 1014.47 1468.31 1016.74 1456.49 1015.76C1446.92 1014.86 1436.31 1017.91 1430.53 1017.23C1426.73 1018.04 1434.47 1015.5 1447.43 1016.33C1458.33 1016.9 1469.59 1016.59 1471.66 1016.66C1475.97 1017.19 1475.02 1014.6 1477 1054.77C1477.9 1072.31 1479.04 1088.17 1479.73 1089.89C1480.58 1092.55 1489.75 1099.46 1492.38 1099.55C1492.95 1099.57 1493.03 1097.32 1492.76 1094.3C1492.48 1091.46 1492.03 1077.33 1491.97 1062.83C1492.1 1048.34 1491.54 1031.94 1491.18 1026.28L1490.16 1016L1523.85 1016.27C1569.73 1015.37 1613 1016.1 1671.98 1014.77C1686.51 1013.77 1685.5 1013.45 1664.98 1013.48C1652.55 1013.61 1631.79 1014.52 1618.82 1013.96C1584.51 1015.4 1567.43 1014.25 1526.17 1014.46L1491.03 1012.59L1489.3 1004.56C1484.23 977.083 1487.4 961.943 1501.06 948.112C1508.09 941.015 1510 940.14 1517.15 940.39C1528.8 940.797 1532.41 945.441 1539.44 970.35C1544.64 988.794 1551.37 1006.35 1553.76 1007.94C1557.81 1010.53 1558.87 1007.18 1559.43 991.193C1559.94 976.526 1560.59 973.913 1565.78 965.622C1568.97 960.462 1573.9 954.232 1576.43 951.685C1582.67 945.502 1597.97 936.882 1604.92 937.125C1611.13 937.341 1619.34 944.782 1619.16 949.86C1619.09 951.928 1620 952.901 1620.96 952.37C1624.22 950.601 1623.38 942.288 1619.57 938.201C1614.49 932.752 1603.94 932.948 1590.37 938.876C1577.75 944.271 1571.56 951.138 1564.23 961.426C1558.5 969.321 1557.17 969.651 1555.49 963.756C1553.49 956.344 1544.16 943.216 1538.61 940.198C1518.3 928.757 1497.98 939.156 1486.86 966.631L1484.59 972.2L1478.85 958.821C1472.75 944.676 1465.89 936.34 1457.35 932.842C1450.67 929.973 1436.57 929.48 1427.26 931.791C1421.38 933.092 1418.38 934.799 1409.84 931.3C1397.6 926.166 1389.15 927.494 1382.79 931.602ZM1416.81 956.09C1425.97 968.835 1431.76 983.898 1431.54 990.292C1431.44 993.112 1429.23 996.989 1426.32 999.523C1418.95 1005.86 1408.42 1005.3 1400.96 998.073C1396.22 993.577 1395.36 988.099 1394.77 978.1C1394.2 967.537 1394.63 965.858 1400.8 956.284C1404.57 950.767 1407.94 945.99 1408.51 946.009C1409.07 946.029 1412.86 950.68 1416.81 956.09Z" fill="black"/>
<path d="M1112.44 943.102C1111.24 945.131 1110.02 947.724 1109.98 949.04C1109.67 952.418 1076.29 1002.46 1069.66 1009.2C1066.72 1012.29 1065.13 1014.87 1066.07 1014.91C1068.51 1014.99 1082.1 997.77 1094.05 979.172C1099.83 969.96 1105 962.233 1105.2 961.864C1106.58 960.029 1107.76 963.836 1109.92 977.655C1122.95 1004.5 1130.39 1014.94 1173.87 1020.79C1192.42 1023.32 1198.81 1023.54 1215.25 1021.67C1250.8 1017.45 1286.95 1018.02 1364.69 1017.62C1384.46 1017.75 1416.05 1017.67 1435.27 1017.21C1454.48 1016.94 1471.82 1016.61 1473.7 1016.67C1475.77 1016.75 1476.91 1016.41 1476.36 1015.83C1475.82 1015.24 1458.13 1015.55 1437.04 1015.75C1415.94 1016.14 1373.19 1017.04 1342.14 1016.52C1311.09 1016 1270.54 1017.45 1252.14 1016.8C1207.63 1018.83 1192.09 1016.53 1176.07 1011.64C1159.67 1006.74 1148.24 999.751 1139.95 989.107C1131.29 978.449 1124.95 967.637 1122.95 954.953C1121.59 945.304 1118.97 939.564 1116.15 939.466C1115.58 939.446 1113.83 941.079 1112.44 943.102Z" fill="black"/>
<path d="M1418.15 864.064C1403.69 868.266 1392.19 874.265 1382.49 882.399C1377.25 886.734 1373.34 890.928 1373.89 891.512C1374.43 892.096 1375.96 891.396 1377.33 889.938C1380.87 885.731 1395.73 875.33 1403.58 871.462C1428.87 858.978 1461.68 862.76 1479.33 880.321C1483.7 884.615 1484.63 884.836 1486.22 882.632C1488.79 879.145 1481.31 872.294 1469.79 867.75C1458.47 863.212 1428.04 861.02 1418.15 864.064Z" fill="black"/>
<path d="M1740.86 1012.63C1724.46 1013.19 1724.27 1013.18 1734.39 1014.67C1740.2 1015.44 1750.75 1015.24 1757.94 1014.17C1771.75 1012.21 1768.37 1011.9 1740.86 1012.63Z" fill="black"/>
<path d="M1726.6 1019.09C1708.14 1024.85 1708.32 1024.85 1686.71 1034.45C1663.57 1044.75 1647.38 1055.48 1628.72 1072.53C1614.9 1085.23 1611.37 1089.43 1607.25 1099.64C1601.5 1113.19 1598.98 1131.55 1601.71 1139.55C1602.91 1142.98 1606.37 1146.3 1611.37 1148.74C1621.73 1154 1627 1153.99 1618.15 1148.79C1605.04 1141.36 1600.77 1128.79 1606.03 1112.97C1613.2 1090.82 1617.37 1084.75 1636.56 1068.85C1646.64 1060.54 1659.59 1051.02 1665.36 1047.45C1684.97 1035.9 1724.68 1020.15 1744.59 1016.14C1750.08 1015.2 1750.85 1014.67 1747.47 1014.36C1744.84 1014.27 1735.54 1016.39 1726.6 1019.09Z" fill="black"/>
<path d="M1358.7 1072.84C1358.7 1077.11 1357.37 1079.83 1355.6 1081.48C1353.81 1083.16 1351.4 1083.9 1349 1083.9C1346.89 1083.9 1344.09 1082.37 1341.71 1079.97C1340.56 1078.81 1339.57 1077.51 1338.89 1076.24C1338.19 1074.95 1337.85 1073.77 1337.85 1072.84C1337.85 1071.03 1339.17 1069.12 1341.48 1067.57C1343.76 1066.04 1346.63 1065.12 1349 1065.12C1351.34 1065.12 1353.82 1066.03 1355.7 1067.5C1357.59 1068.98 1358.7 1070.89 1358.7 1072.84Z" stroke="black" stroke-width="3"/>
<path d="M1187.22 1019.16L1742.25 1014.24" stroke="black" stroke-width="2"/>
<path d="M454.654 883.748C442.312 886.194 416.646 896.726 416.646 898.419C416.646 898.796 432.632 892.027 438.924 889.957C464.818 881.302 489.502 881.49 502.086 890.522C510.314 896.354 517.09 898.424 517.09 895.037C517.09 891.462 509.104 886.382 498.456 883.372C486.598 880.173 470.868 880.173 454.654 883.748Z" fill="black"/>
<path d="M933.19 905.385C931.497 908.584 931.873 910.089 934.883 913.288C936.953 915.546 939.964 920.25 941.657 923.637C943.35 927.023 945.608 929.281 946.549 928.717C949.183 927.023 948.807 906.326 946.173 903.692C942.598 900.117 935.636 901.058 933.19 905.385Z" fill="black"/>
<path d="M375.686 833.51C370.417 838.967 370.417 839.155 372.487 851.009C376.815 874.716 377.943 886.006 378.132 911.783C378.32 926.271 379.825 945.651 381.518 955.059C385.093 975.38 385.093 973.686 382.083 984.223C378.696 997.017 373.051 1006.8 367.971 1009.06C364.208 1010.75 361.762 1010.19 353.295 1006.05C336.926 998.146 323.567 984.035 314.535 964.843C310.019 955.623 305.504 948.661 304.375 949.038C303.246 949.414 301.74 952.048 300.988 954.871C300.047 957.881 297.413 963.338 294.967 967.101C292.521 970.864 286.5 980.272 281.608 987.986C276.904 995.7 270.695 1004.92 268.061 1008.12C265.238 1011.51 263.921 1014.33 265.05 1014.33C267.308 1014.33 277.28 1000.97 291.016 980.083C299.859 966.16 303.058 963.902 303.058 970.864C303.058 976.32 315.664 1000.03 321.121 1005.3C333.162 1016.21 353.295 1019.41 366.842 1012.45C374.18 1008.87 381.142 999.463 383.212 990.244C385.282 981.589 385.846 981.965 392.62 995.136C398.076 1005.67 400.522 1008.49 406.543 1011.13C420.278 1016.96 433.449 1014.52 439.847 1005.11C446.244 995.7 449.631 988.362 450.76 981.589C451.512 977.826 452.641 974.815 453.394 974.815C454.146 974.815 457.157 978.014 459.979 981.777C462.802 985.728 468.446 993.631 472.586 999.275C479.171 1007.93 491.778 1017.71 497.234 1018.09C497.987 1018.09 497.234 1014.52 495.541 1010.19C489.708 995.512 469.575 964.843 456.592 950.919C451.324 945.086 450.76 944.898 447.561 947.909C443.422 951.672 443.233 955.811 447.373 964.278C450.007 969.923 450.195 972.369 448.125 981.024C445.491 993.066 436.648 1007.74 431.191 1009.62C426.864 1010.94 418.585 1007.18 412.752 1000.78C408.237 995.888 400.146 970.864 395.442 946.78C392.996 934.926 392.055 919.874 391.867 890.145C391.303 828.618 388.856 819.775 375.686 833.51Z" fill="black"/>
<path d="M299.295 903.672C295.343 907.623 297.225 913.832 297.225 913.832C297.225 913.832 299.483 917.972 300.047 921.547C302.305 933.024 307.009 928.697 309.455 913.268C311.336 901.038 306.444 896.522 299.295 903.672Z" fill="black"/>
<path d="M299.454 837.465C295.602 845.334 297.436 848.775 297.436 848.775C297.436 848.775 301.599 865.943 302.149 873.062C304.35 895.919 304.03 887.301 306.414 856.575C312.694 833.797 306.422 823.226 299.454 837.465Z" fill="black"/>
<path d="M1114.32 1055.13C1118.16 1056.41 1118.31 1060.5 1116.39 1065.29C1115.5 1067.5 1113.57 1073 1113.57 1073C1111.31 1084.48 1106.6 1080.15 1104.16 1064.72C1102.28 1052.49 1106.5 1052.5 1114.32 1055.13Z" fill="black"/>
<path d="M957.086 906.326C955.769 909.525 966.682 930.222 968.752 928.905C969.881 928.34 970.257 914.417 969.316 905.574C968.94 902.187 958.403 902.751 957.086 906.326Z" fill="black"/>
<path d="M484.439 949.226C482.746 956.564 491.777 973.686 509.464 996.076C517.555 1006.24 523.199 1010.56 530.349 1011.69C533.172 1012.26 538.816 1013.57 542.956 1014.52C547.095 1015.64 553.492 1016.77 557.067 1017.34C560.642 1017.71 564.97 1018.66 566.475 1019.22C570.05 1020.54 676.17 1020.16 700.818 1018.84C711.355 1018.28 749.614 1018.17 777.147 1016.98C818.309 1015.21 828.375 1012.69 828.94 1011.94C829.693 1011.19 806.042 1016.03 706.087 1015.64C580.587 1016.77 581.339 1016.77 554.998 1006.61C538.44 1000.22 529.785 993.066 515.673 973.874C494.035 944.522 487.074 939.065 484.439 949.226Z" fill="black"/>
<path d="M830.458 953.119C816.346 968.359 817.098 979.272 832.904 996.018C838.925 1002.23 842.499 1007.31 841.371 1008.06C840.242 1008.62 835.726 1009.94 831.398 1010.88C823.761 1012.54 821.853 1014.39 832.715 1011.45C846.263 1009.94 848.709 1010.13 858.116 1013.7C864.702 1016.34 869.029 1016.72 877.873 1015.77C888.409 1014.46 889.915 1013.7 898.946 1004.11C908.354 994.137 914.563 981.53 914.563 971.934C914.563 965.161 916.821 966.666 924.347 978.52C939.964 1002.42 944.48 1008.62 951.441 1014.27C963.295 1024.05 965.177 1022.92 964.048 1005.61C962.919 988.492 967.058 969.112 973.456 962.338C983.052 951.99 990.766 949.732 1003 953.307L1007.7 954.812L1003.56 950.673C998.48 945.216 989.637 946.533 978.912 954.436C968.376 961.962 965.365 967.23 962.919 982.283C961.602 989.433 959.909 995.454 959.156 995.642C958.215 995.83 953.511 990.185 948.807 983.035C936.389 964.408 922.466 946.91 919.267 945.592C914.187 943.711 910.424 948.791 911.741 955.188C915.127 971.182 910.424 987.927 898.946 1000.72C889.35 1011.26 878.813 1014.46 868.465 1010.13C859.998 1006.55 858.493 1002.42 863.385 997.147C872.604 987.363 875.615 970.993 870.158 959.704C865.831 950.861 858.869 946.345 847.768 945.404C838.548 944.652 837.984 944.84 830.458 953.119ZM861.127 951.99C866.96 955.753 872.04 969.488 870.535 977.391C868.841 986.046 861.503 998.464 857.552 999.217C853.412 999.969 840.43 980.213 836.102 966.101L832.904 955.941L838.172 951.237C842.688 947.474 844.945 946.91 850.214 947.85C853.789 948.603 858.681 950.296 861.127 951.99Z" fill="black"/>
<path d="M306.633 1056.1C302.117 1061.55 294.026 1070.96 288.57 1076.8C278.409 1087.52 277.092 1090.34 280.479 1092.41C281.608 1092.98 283.301 1091.28 284.43 1088.27C285.371 1085.45 290.451 1078.68 295.343 1073.6C306.633 1061.74 316.981 1048.38 315.664 1047.07C315.288 1046.5 311.148 1050.64 306.633 1056.1Z" fill="black"/>
<path d="M1570.82 1056.1C1566.31 1061.55 1558.22 1070.96 1552.76 1076.8C1542.6 1087.52 1541.28 1090.34 1544.67 1092.41C1545.8 1092.98 1547.49 1091.28 1548.62 1088.27C1549.56 1085.45 1554.64 1078.68 1559.54 1073.6C1570.82 1061.74 1581.17 1048.38 1579.86 1047.07C1579.48 1046.5 1575.34 1050.64 1570.82 1056.1Z" fill="black"/>
<path d="M844.967 1054.85C842.293 1056.04 840.011 1057.78 840.025 1058.8C840.013 1060.4 848.389 1082.16 849.267 1082.5C849.443 1082.56 851.155 1077.58 853.272 1071.54C858.328 1055.74 855.663 1050.09 844.967 1054.85Z" fill="black"/>
</svg>
