<svg width="2000" height="2000" viewBox="0 0 2000 2000" fill="none" xmlns="http://www.w3.org/2000/svg">
<rect width="2000" height="2000" fill="#FFF8E5"/>
<rect opacity="0.2" x="97" y="97" width="1807" height="1807" rx="3" stroke="black" stroke-width="4"/>
<path d="M251.215 1666.02C250.343 1664.85 257.612 1664.44 258.141 1664.37C261.171 1663.94 264.283 1663.52 267.193 1662.54C268.385 1662.13 270.886 1661.46 271.566 1660.23C273.147 1657.35 264.837 1655.74 263.556 1655.58C260.964 1655.24 239.536 1657.2 242.28 1661.17C243.663 1663.17 247.035 1664.55 249.101 1665.58C252.744 1667.39 256.539 1668.7 260.433 1669.85C267.477 1671.93 275.924 1673.79 281.27 1679.27C285.103 1683.21 281.327 1687.67 277.503 1689.95C270.884 1693.9 261.581 1693.52 254.194 1692.95C240.747 1691.91 225.786 1688.32 214.391 1680.85C191.943 1666.13 212.648 1638.3 227.846 1626.88C241.176 1616.86 257.72 1610.73 274.501 1611.15C285.742 1611.44 299.527 1614.89 308.17 1622.57C312.916 1626.79 315.013 1633.39 311.595 1639.08C308.849 1643.65 303.703 1645.76 299.363 1648.37C297.078 1649.75 294.487 1651.44 297.277 1653.86C300.921 1657.03 305.744 1659.06 309.787 1661.64C319.391 1667.79 326.159 1675.29 328.761 1686.6C329.471 1689.69 331.107 1695.87 328.814 1698.76C323.916 1704.94 317.481 1692.18 317.04 1689.4C314.976 1676.45 318.829 1660.66 326.215 1650.41C332.283 1641.99 335.939 1645.21 335.939 1645.21" stroke="black" stroke-width="2" stroke-linecap="round"/>
<path d="M336.068 1645.28C338.339 1646.66 340.009 1649.25 341.221 1651.53C343.698 1656.21 345.178 1661.42 347.019 1666.36C347.232 1666.93 347.43 1663.92 347.464 1663.67C348.377 1657.12 349.524 1650.5 354.673 1645.84C359.598 1641.39 366.192 1637.65 372.829 1636.63C374.911 1636.31 375.546 1637.25 376.057 1639.14C378.205 1647.12 376.063 1656.42 374.424 1664.27C372.892 1671.62 369.435 1683.03 375.624 1689.23C384.086 1697.7 396.598 1691.5 403.822 1684.79C413.735 1675.59 417.101 1660.18 407.268 1649.5C404.375 1646.36 400.576 1644.69 396.632 1643.3C395.902 1643.05 393.731 1642.37 394.504 1642.38C405.962 1642.58 417.113 1638.14 428.641 1638.34C432.356 1638.4 436.899 1638.88 439.364 1642.06C442.353 1645.92 443.699 1652.11 442.18 1656.79C441.75 1658.11 438.996 1662.4 437.058 1660.19C435.045 1657.9 436.661 1652.79 437.758 1650.5C439.705 1646.43 448.702 1635.05 454.024 1640.66C459.513 1646.45 460.137 1655.01 466.818 1659.96" stroke="black" stroke-width="2" stroke-linecap="round"/>
<path d="M466.118 1641.91C466.405 1641.63 466.273 1642.69 466.341 1643.09C466.675 1645.02 467.201 1646.79 468.058 1648.56C470.205 1652.98 472.929 1657.31 477.12 1660.05C486.719 1666.35 501.679 1664.51 511.401 1659.24C516.01 1656.74 519.752 1651.86 522.001 1647.22C526.014 1638.93 523.374 1629.09 521.404 1620.64C518.771 1609.35 516.786 1598.11 518.418 1586.5C518.566 1585.45 518.688 1582.07 520.054 1583.96" stroke="black" stroke-width="2" stroke-linecap="round"/>
<path d="M322.853 1597.03C327.821 1596.5 315.297 1586.96 314.302 1586.58C307.577 1583.99 299.265 1585.32 293.828 1590.07C292.103 1591.57 291.218 1594.19 292.84 1591.09" stroke="black" stroke-width="2" stroke-linecap="round"/>
<path d="M465.709 1577.67C462.58 1584.21 456.816 1589.48 452.157 1594.9" stroke="black" stroke-width="2" stroke-linecap="round"/>
<path d="M397.911 1576.06C394.05 1582.4 389.739 1588.39 385.542 1594.51" stroke="black" stroke-width="2" stroke-linecap="round"/>
<path d="M244.971 1572.78C246.559 1574.16 231.944 1588.29 230.203 1590.6" stroke="black" stroke-width="2" stroke-linecap="round"/>
<path d="M337.083 1713.54C331.409 1719.71 325.654 1725.81 319.897 1731.91" stroke="black" stroke-width="2" stroke-linecap="round"/>
<path d="M375.63 1616.7C375.323 1615.37 374.276 1615.77 377.153 1616.37C390.041 1619.04 403.852 1618.96 416.93 1618.67C439.147 1618.17 461.311 1616.13 482.826 1610.36C483.928 1610.06 493.005 1608.45 488.278 1607.42" stroke="black" stroke-width="2" stroke-linecap="round"/>
<path d="M775.508 1613.72C775.271 1612.38 774.204 1612.73 777.046 1613.47C789.777 1616.81 803.573 1617.46 816.648 1617.85C838.86 1618.51 861.101 1617.64 882.888 1613C884.005 1612.76 893.154 1611.63 888.487 1610.35" stroke="black" stroke-width="2" stroke-linecap="round"/>
<path d="M565.333 1665.1C565.333 1665.12 566.892 1662.01 567.303 1661.32C570.018 1656.76 572.589 1651.98 574.65 1647.08C574.795 1646.74 574.975 1644.75 575.018 1645.79C575.095 1647.65 576.615 1649.58 577.61 1651.03C585.423 1662.41 604.37 1667.23 612.534 1653.63C612.917 1652.99 618.441 1641.51 615.898 1646.85C615.064 1648.6 614.678 1650.65 614.803 1652.59C615.381 1661.62 619.55 1671.32 622.421 1679.77C625.902 1690.01 631.873 1700.88 633.116 1711.72C633.903 1718.59 628.729 1714.35 626.803 1711.4C621.621 1703.45 619.388 1693.7 623.503 1684.77C629.674 1671.37 641.125 1661.02 644.817 1646.36C645.414 1643.99 645.077 1644.44 645.124 1646.15C645.225 1649.83 645.794 1653.4 646.753 1656.95C649.241 1666.19 652.983 1672.67 661.739 1676.13" stroke="black" stroke-width="2" stroke-linecap="round"/>
<path d="M655.998 1647.98C660.475 1644.53 662.407 1661.99 662.912 1663.42C665.412 1670.54 670.791 1673.9 678.026 1675.29C692.566 1678.07 708.298 1673.59 722.902 1673.04C762.879 1671.53 803.02 1674.5 843.03 1673.84C863.626 1673.5 915.679 1674.33 895.083 1673.97" stroke="black" stroke-width="2" stroke-linecap="round"/>
<path d="M685.282 1638.98C685.192 1644.14 684.241 1648.71 690.833 1653.28C697.425 1657.86 714.711 1657.45 724.203 1653.13C735.915 1649.7 750.171 1642.31 752.482 1617.3C752.735 1612.03 752.627 1606.83 751.196 1601.74C750.938 1600.82 751.023 1603.64 750.973 1604.59C750.396 1615.56 747.9 1633.05 750.502 1643.86C754.19 1659.18 776.46 1653.95 787.57 1652.56C787.595 1652.55 791.675 1652.33 792.172 1651.73C792.509 1651.32 791.273 1651.32 791.184 1651.32C785.93 1651.23 781.771 1653.51 777.378 1656.27C768.152 1662.07 759.966 1670.45 757.12 1681.28C754.704 1690.48 756.512 1705.63 765.692 1710.86C775.203 1716.28 784.891 1700.31 789.953 1694.58C802.657 1680.19 817.247 1664.69 834.092 1655.19C846.736 1648.05 855.953 1648.11 862.198 1649.7C864.356 1650.25 889.787 1659.22 886.943 1662.73C879.392 1672.04 861.942 1653.61 876.656 1652.03" stroke="black" stroke-width="2" stroke-linecap="round"/>
<path d="M876.186 1700.94C877.216 1700.94 877.572 1700.75 878.41 1700.2" stroke="black" stroke-width="2" stroke-linecap="round"/>
<path d="M886.566 1700.94L887.307 1700.94" stroke="black" stroke-width="2" stroke-linecap="round"/>
<path d="M941.271 1668.69C945.344 1664.04 949.21 1657.07 949.839 1650.78C949.917 1650 949.881 1653.19 949.882 1653.2C950.137 1657.27 952.254 1661.67 956.676 1662.46C962.5 1663.51 968.243 1659.35 972.427 1655.89C973.61 1654.91 985.811 1643.11 986.188 1649.74C986.396 1653.4 983.316 1657.08 981.514 1660C978.951 1664.15 984.162 1667.8 987.053 1670.3C993.223 1675.61 1013.57 1687.87 1009.04 1698.6C1007.26 1702.81 1000.69 1704.41 996.746 1702.71C988.386 1699.1 989.684 1686.48 991.813 1679.6C994.772 1670.03 1001.1 1661.44 1007.17 1653.64C1007.55 1653.15 1014.28 1643.7 1015.27 1646.8C1017.59 1654.06 1019.19 1663.73 1025.39 1668.69" stroke="black" stroke-width="2" stroke-linecap="round"/>
<path d="M1028.51 1643.77C1031.03 1651.64 1034.06 1658.71 1038.63 1665.58" stroke="black" stroke-width="2" stroke-linecap="round"/>
<path d="M956.849 1686.61C952.575 1683.19 947.466 1691.97 950.445 1695.78C952.939 1698.98 957.142 1697.37 959.445 1694.83C961.024 1693.09 962.529 1690.31 962.128 1687.86C961.491 1683.97 957.831 1683.94 955.291 1681.94" stroke="black" stroke-width="2" stroke-linecap="round"/>
<path d="M952.176 1618.85C950.804 1617.3 952.285 1617.09 953.734 1616.51" stroke="black" stroke-width="2" stroke-linecap="round"/>
<path d="M1023.83 1628.97C1022.67 1624.32 1015.66 1622.35 1011.8 1621.27C1007.04 1619.93 1001.88 1619.04 996.919 1619.71C988.938 1620.79 985.242 1625.81 979.437 1630.53" stroke="black" stroke-width="2" stroke-linecap="round"/>
<path d="M1036.3 1593.92C1032.49 1597.46 1028.94 1601.06 1025.39 1604.82" stroke="black" stroke-width="2" stroke-linecap="round"/>
<path d="M1135.09 1591.44C1123.53 1591.44 1080.81 1593.3 1069.23 1590.99C1068.45 1590.83 1068.23 1590.14 1068.75 1590.42C1071.37 1591.85 1073.88 1596.34 1075.41 1598.69C1080.5 1606.46 1084.32 1615.21 1087.79 1623.79C1093.02 1636.72 1098.04 1651.12 1098.48 1665.2C1098.82 1676.07 1091.25 1695.2 1078.23 1689.84C1072.7 1687.57 1071.24 1676.56 1071 1671.13C1070.48 1659.49 1075.6 1648.97 1083.81 1640.92C1090.95 1633.92 1115.09 1618.33 1122.29 1632.57C1127.17 1642.23 1125.34 1685.65 1125.53 1696.14" stroke="black" stroke-width="2" stroke-linecap="round"/>
<path d="M1069.79 1622.92C1069.09 1623.27 1071.79 1629.28 1071.95 1630.11C1073.25 1636.77 1070.18 1638.31 1065.12 1640.84" stroke="black" stroke-width="2" stroke-linecap="round"/>
<path d="M1238.84 1590.14C1230.18 1591.48 1211.26 1591.08 1202.53 1591.08C1188.51 1591.08 1146.44 1591.33 1160.47 1591.33C1161.67 1591.33 1163.17 1591.09 1164.33 1591.4C1168.43 1592.5 1172.15 1596.67 1174.8 1599.65C1184.5 1610.5 1192.21 1623.52 1197.49 1637.05C1201.89 1648.32 1205.22 1660.51 1206.71 1672.54C1207.73 1680.8 1206.95 1689.28 1199.75 1694.6C1194.93 1698.16 1188.93 1697.2 1185 1692.79C1179.48 1686.6 1180.91 1676.46 1182.91 1669.2C1185.9 1658.36 1190.85 1649.02 1198.99 1641.23C1201.41 1638.9 1209.69 1630.18 1213.39 1634.89C1218.14 1640.96 1219.01 1651.09 1220.9 1658.27C1221.86 1661.91 1222.58 1666.91 1225.29 1669.62" stroke="black" stroke-width="2" stroke-linecap="round"/>
<path d="M1225.29 1644.57C1226.32 1645.72 1226.79 1647.12 1227.17 1648.6C1228.53 1653.92 1229.53 1659.38 1231.86 1664.4C1234.03 1669.05 1238.43 1670.25 1241.92 1665.79C1245.43 1661.31 1245.97 1655.31 1248.7 1650.45C1250.17 1647.84 1249.78 1656.36 1250.79 1659.18C1253.15 1665.72 1258.12 1667.07 1263.35 1662.45C1265.58 1660.49 1272.76 1649.29 1275.46 1654.27C1277.55 1658.14 1279.32 1662.13 1281.65 1665.86" stroke="black" stroke-width="2" stroke-linecap="round"/>
<path d="M1216.52 1618.89C1217.63 1618.37 1218.46 1618.26 1219.65 1618.26" stroke="black" stroke-width="2" stroke-linecap="round"/>
<path d="M1228.42 1620.77C1229.62 1620.69 1230.37 1619.81 1231.55 1619.52" stroke="black" stroke-width="2" stroke-linecap="round"/>
<path d="M1181.45 1640.81C1178.51 1640.48 1174.43 1647.12 1178.21 1647.84C1180.98 1648.36 1183.04 1646.45 1184.37 1644.25C1186.97 1639.96 1183.54 1640.3 1180.2 1639.56" stroke="black" stroke-width="2" stroke-linecap="round"/>
<path d="M1170.18 1645.19C1169.33 1645.14 1169.01 1644.92 1168.3 1644.57" stroke="black" stroke-width="2" stroke-linecap="round"/>
<path d="M1200.18 1575.19C1199.33 1575.14 1199.01 1574.92 1198.3 1574.57" stroke="black" stroke-width="2" stroke-linecap="round"/>
<path d="M1320.71 1651.19C1316.9 1651.98 1324.89 1666.36 1326.65 1668.63" stroke="black" stroke-width="2" stroke-linecap="round"/>
<path d="M1329.49 1651.66C1329.56 1655.66 1329.67 1659.66 1333.56 1661.86C1337.62 1664.14 1342.74 1664.53 1347.26 1664.99C1353.72 1665.66 1360.24 1666.01 1366.73 1666.01C1384.59 1666.01 1402.39 1663.77 1420.26 1664.59C1435.71 1665.3 1451.16 1666.75 1466.65 1666.77C1475.95 1666.79 1485.25 1666.23 1494.55 1666.46C1506.84 1666.77 1518.76 1667.06 1531.01 1665.96C1542.74 1664.92 1554.72 1665.2 1566.49 1665.07C1570.53 1665.02 1574.48 1666.18 1578.41 1666.11" stroke="black" stroke-width="2" stroke-linecap="round"/>
<path d="M1457.49 1592.57C1447 1590.97 1435.98 1592.6 1425.4 1592.22C1403.85 1591.45 1382.55 1589.49 1360.95 1589.87C1359.13 1589.9 1353.66 1590 1355.49 1589.96C1360.72 1589.87 1365.6 1592.57 1370.02 1595.14C1394.98 1609.68 1407.42 1641.74 1407.82 1669.85C1407.95 1678.23 1406.6 1686.86 1402.58 1694.3C1401.03 1697.17 1398.09 1701.37 1394.24 1700.99C1390.21 1700.59 1386.68 1695.93 1385.67 1692.37C1383.26 1683.88 1389.09 1672.95 1392.58 1665.66C1398.66 1652.96 1408.21 1635.81 1422.31 1630.31C1426.04 1628.85 1427.53 1630.84 1428.64 1634.34C1430.7 1640.84 1432.24 1648.14 1432.76 1654.94C1432.79 1655.39 1432.77 1661.2 1430.87 1660.37C1429.06 1659.57 1429.86 1652.33 1429.98 1651.02C1430.77 1642.34 1437.63 1626.83 1449.26 1631.55C1458.44 1635.27 1449.22 1645.66 1448.59 1651.12C1448.51 1651.87 1451.62 1652.19 1452.13 1652.45C1456.55 1654.67 1457.51 1661.66 1458.91 1665.83C1460.53 1670.66 1463.07 1675.98 1461.82 1681.19C1460.83 1685.31 1456.35 1692.49 1451.07 1691.16C1441.35 1688.71 1464.46 1653.35 1466.19 1650.67C1470 1644.79 1474.03 1638.78 1478.95 1633.74C1480.94 1631.7 1482.18 1631.48 1482.65 1634.51C1483.98 1643.02 1484.4 1654.33 1489.38 1661.54" stroke="black" stroke-width="2" stroke-linecap="round"/>
<path d="M1493.35 1633.28C1497.04 1641.44 1499.17 1650.05 1500.68 1658.84" stroke="black" stroke-width="2" stroke-linecap="round"/>
<path d="M1418.38 1612.67C1418.96 1612.85 1419.09 1613.25 1419.51 1613.69C1421.25 1615.55 1423.84 1616.48 1426.22 1617.19C1439.21 1621.11 1454.12 1620.59 1467.46 1619.54C1477.27 1618.76 1487.02 1616.98 1496.72 1615.34C1500.94 1614.62 1496.14 1615.51 1494.85 1615.72" stroke="black" stroke-width="2" stroke-linecap="round"/>
<path d="M1401.43 1574.76C1402.01 1574.22 1402.62 1573.89 1403.29 1573.47" stroke="black" stroke-width="2" stroke-linecap="round"/>
<path d="M1498.72 1586.07C1495.25 1592.06 1491.16 1597.59 1487.11 1603.19" stroke="black" stroke-width="2" stroke-linecap="round"/>
<path d="M1544.63 1632.88C1541.5 1630.87 1548.23 1639.42 1550.43 1642.41C1550.99 1643.17 1556.24 1651.81 1557.35 1651.79C1557.96 1651.78 1557.24 1650.57 1557.21 1649.95C1557.08 1646.81 1558.32 1643.85 1560.41 1641.51C1565.55 1635.73 1571.78 1635.89 1578.53 1637.3" stroke="black" stroke-width="2" stroke-linecap="round"/>
<path d="M1552.52 1690.36C1546.98 1690.86 1545 1700.12 1551.53 1699.22C1556.93 1698.47 1562.04 1691.9 1555.02 1689.69" stroke="black" stroke-width="2" stroke-linecap="round"/>
<path d="M1570.79 1696.31L1571.43 1696.92" stroke="black" stroke-width="2" stroke-linecap="round"/>
<path d="M1689.98 1661.83C1688.3 1661.62 1689.09 1660.7 1690.29 1660.23C1693.78 1658.85 1697.5 1658.11 1700.98 1656.68C1701.23 1656.57 1705.98 1654.52 1704.73 1654.03C1701.2 1652.66 1695.47 1653.69 1691.86 1654.07C1687.79 1654.49 1683.5 1655.12 1679.54 1656.19C1676.68 1656.97 1684.88 1659.42 1685.32 1659.6C1694.44 1663.26 1703.13 1667.79 1710.37 1674.56C1714.11 1678.06 1720.06 1684.42 1717.99 1690.25C1715.07 1698.47 1703.49 1697.1 1696.97 1695.82C1687.22 1693.9 1677.38 1691.06 1668.06 1687.64C1656.82 1683.52 1645.88 1676.48 1642.11 1664.4C1635.67 1643.81 1671.8 1643.37 1683.23 1640.5C1698.79 1636.59 1754.21 1625.98 1785.63 1599.67" stroke="black" stroke-width="2" stroke-linecap="round"/>
<path d="M1678.62 1625.31C1696.78 1624.75 1714.27 1616.35 1731.16 1610.69" stroke="black" stroke-width="2" stroke-linecap="round"/>
<path d="M1673.07 1714.43H1674.32" stroke="black" stroke-width="2" stroke-linecap="round"/>
<path d="M1693.11 1711.93C1693.18 1711.35 1693.32 1711.51 1693.74 1711.3" stroke="black" stroke-width="2" stroke-linecap="round"/>
<path d="M190.873 1462.49C189.837 1461.79 189.464 1465.47 189.413 1465.75C188.316 1471.85 188.869 1478.51 193.496 1483.13C206.897 1496.51 231.464 1486.26 234.878 1468.79C236.573 1460.11 233.863 1450.82 232.175 1442.36C231.629 1439.62 229.744 1434.71 231.711 1432.1C233.202 1430.12 232.264 1433.66 232.317 1434.63C232.516 1438.27 233.331 1441.89 233.658 1445.53C234.333 1453.03 234.526 1460.79 236.839 1468.03C239.57 1476.58 251.625 1489.92 261.618 1483.35C266.639 1480.05 269.623 1474.72 270.593 1468.9C270.741 1468.01 270.137 1460.39 270.904 1459.86C271.266 1459.61 275.187 1468.51 275.324 1468.81C277.991 1474.68 280.701 1479.54 285.026 1484.17" stroke="black" stroke-width="2" stroke-linecap="round"/>
<path d="M283.19 1466.72C283.203 1466.58 283.21 1465.68 283.509 1466.14C284.966 1468.39 285.406 1471.39 286.79 1473.76C290.413 1479.96 300.659 1489.1 307.603 1481.66C310.226 1478.86 311.519 1474.69 310.784 1470.92C310.531 1469.63 309.208 1464.92 307.128 1465.13C305.22 1465.33 305.022 1470.13 304.984 1471.35C304.847 1475.77 307 1479.87 310.427 1482.63C318.491 1489.14 330.368 1482.77 335.96 1475.93C337.746 1473.74 338.546 1471.11 340.099 1468.87C340.494 1468.3 340.043 1470.26 340.077 1470.95C340.165 1472.75 340.603 1474.35 341.65 1475.84C347.476 1484.13 356.012 1475.94 361.821 1472.48C366.797 1469.52 369.299 1478.57 372.768 1480.32" stroke="black" stroke-width="2" stroke-linecap="round"/>
<path d="M314.754 1501.18C313.215 1500.44 311.064 1499.76 309.439 1500.64C306.564 1502.18 308.185 1506.96 310.456 1508.22C313.56 1509.95 318.202 1508.04 320.25 1505.45C323.468 1501.38 315.413 1499.16 313.098 1498.15" stroke="black" stroke-width="2" stroke-linecap="round"/>
<path d="M244.794 1422.54C244.534 1422.26 243.468 1421.29 244.245 1422.41C246.021 1424.99 248.368 1427.17 251.205 1428.55C258.814 1432.24 268.377 1431.92 276.551 1431.3C285.531 1430.61 293.383 1428.68 301.676 1425.6" stroke="black" stroke-width="2" stroke-linecap="round"/>
<path d="M430.688 1469.41C430.289 1464.22 430.487 1472.05 430.742 1473.53C431.516 1478.01 433.061 1482.24 434.037 1486.63" stroke="black" stroke-width="2" stroke-linecap="round"/>
<path d="M438.343 1468.93C439.851 1467.42 440.016 1470.36 440.257 1471.53C441.289 1476.55 441.439 1481.56 445.041 1485.57C449.681 1490.72 456.816 1489.41 463.062 1488.97C477.373 1487.95 491.552 1487.42 505.907 1487.69C511.439 1487.8 516.962 1488.09 522.492 1488.25C526.907 1488.38 531.548 1488.6 535.755 1487C541.813 1484.69 543.623 1477.86 544.34 1472.01C545.774 1460.31 545.231 1448.07 544.792 1436.32C544.777 1435.9 545.254 1427.23 544.075 1430.18" stroke="black" stroke-width="2" stroke-linecap="round"/>
<path d="M427.818 1451.23C426.934 1450.98 426.54 1450.75 425.904 1450.27" stroke="black" stroke-width="2" stroke-linecap="round"/>
<path d="M435.473 1446.98L434.994 1446.02" stroke="black" stroke-width="2" stroke-linecap="round"/>
<path d="M486.185 1505.29C484.174 1503.28 488.794 1508.73 489.109 1509.51C490.902 1513.97 488.835 1519.08 484.272 1520.6" stroke="black" stroke-width="2" stroke-linecap="round"/>
<path d="M498.624 1510.07H499.581" stroke="black" stroke-width="2" stroke-linecap="round"/>
<path d="M591.439 1464.65C590.603 1464.65 589.979 1464.72 591.385 1464.54C596.245 1463.94 601.107 1463.48 606.004 1463.32C613.229 1463.08 620.465 1463.25 627.692 1463.21C628.91 1463.21 631.151 1463.68 631.626 1462.26" stroke="black" stroke-width="2" stroke-linecap="round"/>
<path d="M766.365 1422.94C767.528 1422.94 770.983 1422.46 769.82 1422.46C759.212 1422.46 748.776 1422.53 738.138 1421.98C717.061 1420.9 696.013 1420.09 674.987 1418.18C672.283 1417.93 673.655 1417.92 675.89 1419.43C688.853 1428.17 694.337 1445.34 700.874 1458.85C709.995 1477.7 720.39 1495.23 723.201 1516.31C723.846 1521.15 725.068 1527.74 722.244 1532.18C720.196 1535.4 717.338 1534.78 714.882 1532.39C710.173 1527.81 706.825 1521.15 703.745 1515.43C700.237 1508.93 697.407 1501.49 698.376 1493.96C700.32 1478.85 714.768 1466.05 728.357 1460.89C732.329 1459.38 738.533 1457.98 741.966 1461.48C745.264 1464.83 743.697 1470.07 742.231 1473.86C740.917 1477.26 739.122 1480.51 738.005 1483.99C737.548 1485.41 741.494 1486.26 742.231 1486.73C749.126 1491.06 754.858 1497.4 757.355 1505.25C758.685 1509.44 758.955 1514.34 754.617 1516.76C746.981 1521.02 747.793 1509.48 748.504 1505.39C749.592 1499.13 751.845 1493.17 753.953 1487.21C756.103 1481.13 758.152 1474.98 760.89 1469.13C761.958 1466.85 763.153 1464.24 764.85 1462.33C765.781 1461.28 765.575 1464.25 765.621 1464.56C766.438 1470.12 767.832 1475.84 770.166 1480.96C771.429 1483.73 772.467 1485.57 774.525 1487.79C776.664 1490.1 778.624 1490.45 781.196 1491.83" stroke="black" stroke-width="2" stroke-linecap="round"/>
<path d="M775.934 1466.47C775.981 1466.19 777.258 1469.66 777.369 1470.04C779.425 1476.96 782.045 1483.17 787.815 1487.87C797.224 1495.54 809.823 1494.18 821.198 1493.88C830.861 1493.62 841.729 1492.79 851.046 1492.79" stroke="black" stroke-width="2" stroke-linecap="round"/>
<path d="M737.181 1446.38C737.936 1445.25 741.249 1444.97 742.391 1444.65C749.303 1442.74 756.584 1441.75 763.76 1442.5C768.478 1442.99 773.54 1444.74 776.625 1448.56C777.412 1449.53 778.293 1451.2 777.369 1452.12" stroke="black" stroke-width="2" stroke-linecap="round"/>
<path d="M713.739 1400.93V1400.45" stroke="black" stroke-width="2" stroke-linecap="round"/>
<path d="M671.159 1481.78V1481.31" stroke="black" stroke-width="2" stroke-linecap="round"/>
<path d="M678.813 1480.83H678.336" stroke="black" stroke-width="2" stroke-linecap="round"/>
<path d="M925.387 1485.5C931.25 1482.29 939.012 1479.43 943.448 1474.24C944.777 1472.68 943.539 1471.7 941.868 1471.5C937.808 1471 933.294 1473.66 929.968 1475.63C927.73 1476.96 923.262 1479.4 922.78 1482.34C922.325 1485.13 927.171 1486.53 928.941 1487.16C940.37 1491.21 953.024 1494.86 958.982 1506.62C964.293 1517.11 954.045 1522.36 945.344 1524.79C928.203 1529.57 905.613 1527.26 890.607 1517.36C883.818 1512.88 878.335 1505.94 876.758 1497.83C874.993 1488.75 879.235 1479.81 883.814 1472.26C890.554 1461.14 899.509 1451.65 909.642 1443.56C917.976 1436.91 927.708 1430.51 938.024 1427.37C948.902 1424.06 955.753 1431.08 960.772 1439.9C969.039 1454.44 975.201 1469.69 979.254 1485.9C979.424 1486.58 980.376 1493.61 981.571 1494.09C982.277 1494.37 984.713 1486.57 984.757 1486.45C986.682 1481.3 988.76 1476.11 991.971 1471.6C993.58 1469.35 997.499 1464.33 1001 1465.86C1004.04 1467.19 1005.4 1472.42 1006.32 1475.13C1008.4 1481.23 1010.06 1487.58 1011.43 1493.88C1014.41 1507.58 1014.26 1521.66 1016.85 1535.37C1017.48 1538.69 1017.93 1536.54 1018.35 1534.61C1019.31 1530.24 1020.14 1525.76 1021.99 1521.65C1023.42 1518.45 1027.59 1510.68 1032.02 1511.57" stroke="black" stroke-width="2" stroke-linecap="round"/>
<path d="M1016.85 1449.96C1018.81 1444.53 1014.55 1441.18 1009.74 1439.64C1005.06 1438.14 999.941 1437.74 995.157 1439.01C990.506 1440.24 987.469 1443.02 983.677 1445.7" stroke="black" stroke-width="2" stroke-linecap="round"/>
<path d="M996.947 1413C991.762 1416.35 987.175 1419.65 982.73 1423.9" stroke="black" stroke-width="2" stroke-linecap="round"/>
<path d="M943.32 1537.11H942.847" stroke="black" stroke-width="2" stroke-linecap="round"/>
<path d="M1052.67 1470.7C1049.39 1470.5 1057.6 1470.15 1057.73 1470.15C1067.03 1469.75 1076.3 1468.44 1085.61 1468.44" stroke="black" stroke-width="2" stroke-linecap="round"/>
<path d="M1127.48 1466.82C1127.42 1466.56 1127.18 1465.83 1126.87 1465.76C1126.57 1465.7 1127.1 1466.33 1127.22 1466.62C1128.06 1468.58 1128.84 1470.57 1129.63 1472.56C1131.48 1477.21 1133.19 1481.94 1135.27 1486.49C1136.02 1488.13 1136.98 1490.19 1138.3 1491.18" stroke="black" stroke-width="2" stroke-linecap="round"/>
<path d="M1138.75 1470.88C1138.75 1470.55 1138.59 1469.79 1138.9 1470.55C1140.54 1474.5 1142.29 1478.54 1144.57 1482.16C1149.93 1490.66 1159.42 1497.98 1167.23 1487.97C1177.03 1475.41 1178.47 1458.61 1175.3 1443.41C1174.96 1441.77 1174.4 1440.21 1174.4 1438.52C1174.4 1438.48 1174.98 1440.67 1175.15 1441.15C1179.56 1453.89 1178.28 1471.63 1189.79 1480.75C1199.15 1488.18 1210.55 1483.83 1213.45 1472.58C1214.31 1469.25 1214.15 1465.84 1214.8 1462.51C1215.16 1460.65 1216.03 1462.32 1216.46 1463.16C1219.78 1469.6 1222.2 1476.26 1228.99 1479.45" stroke="black" stroke-width="2" stroke-linecap="round"/>
<path d="M1226.73 1462.3C1228.17 1470.91 1236.65 1477.64 1245.11 1478.07C1250.06 1478.32 1258.13 1476.26 1261 1471.83C1262.04 1470.23 1261.93 1468.38 1261.93 1466.57C1261.93 1465.69 1261.42 1468.3 1261.5 1469.17C1261.79 1472.34 1263.09 1475.44 1264.33 1478.32C1268.61 1488.25 1273.62 1497.82 1277.62 1507.87C1280.05 1514 1283.63 1521.17 1283.63 1527.93C1283.63 1530.74 1280.98 1534.74 1277.69 1533.36C1273.54 1531.64 1273.28 1525.9 1273.61 1522.16C1274.47 1512.08 1280.13 1502.5 1284.28 1493.49C1287.64 1486.18 1291.11 1478.85 1292.76 1470.93C1293.46 1467.52 1292.97 1464.08 1293.53 1460.73C1293.65 1460.05 1294.04 1462 1294.26 1462.66C1295.23 1465.53 1296.38 1468.31 1297.74 1471.03C1300.79 1477.12 1304.38 1482.99 1308.4 1488.47" stroke="black" stroke-width="2" stroke-linecap="round"/>
<path d="M1312.01 1461.85C1313.26 1460.72 1313.83 1460.72 1313.58 1462.46C1312.79 1468.16 1314.21 1473.48 1316.97 1478.47C1320.18 1484.29 1326.63 1485.26 1332.73 1485.06C1341.67 1484.77 1350.61 1484.86 1359.55 1484.86C1366.48 1484.86 1373.26 1484.3 1380.13 1483.51C1387.73 1482.64 1394.37 1481.35 1400.24 1476.09C1409.53 1467.76 1406.72 1454.65 1405.95 1443.51C1405.59 1438.35 1404.91 1432.8 1405.65 1427.64C1405.96 1425.45 1406.39 1427.05 1406.75 1428.02" stroke="black" stroke-width="2" stroke-linecap="round"/>
<path d="M1371.11 1437.94C1370.57 1437.87 1370.56 1437.4 1370.26 1436.99C1368.76 1434.91 1366.35 1433.56 1363.89 1432.93C1358.45 1431.54 1353.94 1434.19 1349.9 1437.49" stroke="black" stroke-width="2" stroke-linecap="round"/>
<path d="M1206.88 1422.15C1209.04 1422.15 1206.15 1419.43 1205.53 1418.99C1200.23 1415.26 1194.43 1416.36 1189.29 1419.44" stroke="black" stroke-width="2" stroke-linecap="round"/>
<path d="M1129.73 1447.87C1130.26 1447.8 1130.18 1447.41 1130.18 1446.97" stroke="black" stroke-width="2" stroke-linecap="round"/>
<path d="M1135.6 1444.26L1136.05 1443.81" stroke="black" stroke-width="2" stroke-linecap="round"/>
<path d="M1149.13 1510.13C1146.65 1509.24 1148.5 1509.01 1149.93 1509.93C1151.64 1511.02 1153.17 1512.94 1153.64 1514.94C1154.87 1520.16 1150.27 1521.62 1147.33 1524.57" stroke="black" stroke-width="2" stroke-linecap="round"/>
<path d="M1274.03 1474.72C1274.29 1476.33 1274.07 1480.44 1276.82 1478.75C1279.94 1476.83 1281.23 1472.5 1282.61 1469.3" stroke="black" stroke-width="2" stroke-linecap="round"/>
<path d="M1444.87 1461.75C1430.81 1461.75 1500.76 1462.37 1486.98 1459.62" stroke="black" stroke-width="2" stroke-linecap="round"/>
<path d="M1521.09 1471.34C1519.82 1469.08 1520.42 1472.1 1520.89 1473.03C1523.03 1477.32 1524.65 1482.14 1529.15 1484.55C1545.21 1493.16 1578.56 1486.88 1587.53 1471.34" stroke="black" stroke-width="2" stroke-linecap="round"/>
<path d="M1584.53 1436.16C1583.18 1436.84 1584.42 1441.77 1584.53 1442.8C1585.29 1449.98 1585.43 1457.33 1586.9 1464.42C1590.39 1481.32 1608.95 1484.37 1619.15 1470.9C1620.76 1468.77 1622.39 1465.43 1621.58 1462.67C1621.06 1460.91 1621.2 1462.82 1621.78 1463.82C1624.22 1468.03 1626.71 1472.3 1629.6 1476.2C1629.9 1476.61 1634.5 1482.11 1634.61 1481.35C1634.86 1479.54 1634.19 1477.93 1634.75 1476.08C1636.28 1471.06 1640.53 1467.18 1645.12 1464.95C1648.74 1463.19 1654.51 1460.77 1658.68 1461.99C1662.7 1463.16 1656.39 1469.63 1655.25 1470.69C1653.37 1472.44 1650.93 1474.49 1654.15 1476.41C1659.81 1479.78 1666.12 1481.08 1670.94 1485.97C1675.73 1490.83 1685.58 1512.5 1673.84 1515.2C1669.9 1516.11 1668.99 1510.11 1668.57 1507.44C1667.48 1500.46 1668.22 1493.93 1671.06 1487.45C1674.17 1480.36 1678.27 1473.87 1682.4 1467.35C1682.95 1466.48 1685.21 1463.46 1683.68 1462.4C1682.88 1461.86 1683.41 1462.29 1683.68 1462.93C1684.89 1465.83 1686.44 1468.47 1688 1471.2C1694.73 1482.97 1702.48 1494.45 1708.61 1506.53C1709.08 1507.45 1712.04 1512.16 1709.14 1511.74C1705.96 1511.28 1700.97 1508.75 1698.78 1506.44C1695.47 1502.94 1699.19 1497.14 1700.85 1493.79C1704.57 1486.29 1709.14 1478.68 1711.57 1470.63C1712.26 1468.36 1713.2 1465.25 1711.1 1463.47C1710.17 1462.68 1709.85 1462.47 1710.98 1463.5C1717.46 1469.39 1720.33 1477.59 1725.79 1484.14" stroke="black" stroke-width="2" stroke-linecap="round"/>
<path d="M1724.8 1464.42C1724.94 1463.29 1728.46 1469.11 1728.76 1469.57C1731.87 1474.25 1734.83 1479.08 1738.12 1483.6" stroke="black" stroke-width="2" stroke-linecap="round"/>
<path d="M1552.01 1509.72C1550.02 1509.97 1552.89 1514.69 1553.43 1515.2C1556.12 1517.74 1560.23 1514.47 1562.52 1512.98C1569.06 1508.75 1574.37 1503.55 1579.73 1498" stroke="black" stroke-width="2" stroke-linecap="round"/>
<path d="M1723.12 1444.16C1726.92 1442.02 1720.31 1437.97 1718.71 1437.23C1713.86 1434.98 1708.09 1433.5 1702.72 1433.88C1696.47 1434.33 1693.48 1437.36 1689.54 1441.49" stroke="black" stroke-width="2" stroke-linecap="round"/>
<path d="M224.195 1295.18C213.449 1294.05 228.17 1284.08 233.103 1284.01C246.604 1283.84 243.18 1302.49 232.352 1305.37C223.43 1307.75 193.572 1305.79 197.041 1290.56C199.899 1278.01 219.615 1267.16 229.561 1260.83C236.673 1256.31 244.917 1251.59 253.71 1252.35C262.49 1253.12 269.686 1261.31 274.531 1267.92C288.412 1286.83 290.845 1311.15 290.845 1333.81C290.845 1334.49 291.717 1344.7 289.45 1342.83C284.56 1338.8 282.946 1328.9 282.044 1323.19C280.243 1311.78 282.058 1300.54 287.733 1290.45C290.288 1285.91 295.482 1277.82 301.793 1278.22C306.648 1278.52 308.97 1291.56 310.164 1294.96C312.11 1300.5 313.955 1306.08 315.96 1311.6" stroke="black" stroke-width="2" stroke-linecap="round"/>
<path d="M320.79 1281.65C317.801 1281.32 322.124 1295.57 322.936 1298.29C327.893 1314.87 350.073 1313.71 362.325 1306.34C368.554 1302.59 374.651 1297.49 377.351 1290.56C378.069 1288.72 378.514 1286.73 378.693 1284.77C378.745 1284.2 378.342 1282.64 378.747 1283.05C384.91 1289.21 383.575 1303.04 393.236 1305.8" stroke="black" stroke-width="2" stroke-linecap="round"/>
<path d="M394.202 1282.62C389.111 1282.62 397.195 1300.84 399.997 1303.44C405.247 1308.31 415.066 1306.77 421.57 1306.77C449.475 1306.77 428.569 1306.77 456.457 1307.18C473.444 1307.44 507.382 1307.96 508.886 1283.89C509.629 1272.01 503.248 1260.51 502.071 1248.74C501.559 1243.63 503.055 1246.34 503.895 1249.28" stroke="black" stroke-width="2" stroke-linecap="round"/>
<path d="M230.956 1240.12C227.704 1242.18 207.768 1253.64 207.773 1253.64" stroke="black" stroke-width="2" stroke-linecap="round"/>
<path d="M231.922 1320.29C225.116 1320.94 219.678 1327.01 215.501 1331.88" stroke="black" stroke-width="2" stroke-linecap="round"/>
<path d="M318.858 1248.81C321.177 1250.87 320.312 1247.95 317.999 1246.88C315.045 1245.52 311.551 1244.61 308.34 1244.2C300.92 1243.24 298.04 1246.07 291.811 1248.81" stroke="black" stroke-width="2" stroke-linecap="round"/>
<path d="M317.551 1215.97C313.094 1219.83 309.413 1223.78 305.96 1228.53" stroke="black" stroke-width="2" stroke-linecap="round"/>
<path d="M337.211 1325.12C334.262 1325.12 343.411 1325.77 345.69 1327.64C353.035 1333.68 339.475 1340.14 335.279 1341.54" stroke="black" stroke-width="2" stroke-linecap="round"/>
<path d="M534.265 1276.82C528.106 1276.82 546.568 1277.42 552.725 1277.58C560.046 1277.76 570.54 1278.97 576.766 1275.86" stroke="black" stroke-width="2" stroke-linecap="round"/>
<path d="M908.642 1278.45C896.345 1278.45 933.229 1277.69 945.526 1277.69" stroke="black" stroke-width="2" stroke-linecap="round"/>
<path d="M1379.6 1300.67C1379.08 1300.08 1380.3 1300.31 1380.63 1300.31C1383.8 1300.31 1386.65 1299.43 1389.52 1298.12C1390.61 1297.63 1395.09 1295.59 1393.61 1293.63C1392.15 1291.71 1387.62 1292.25 1385.65 1292.6C1381.94 1293.26 1378.31 1294.86 1375.19 1296.95C1374.44 1297.45 1369.79 1300.42 1371.38 1301.65C1374.9 1304.35 1380.96 1303.93 1385.1 1304.48C1391.18 1305.28 1397.17 1306.71 1402.67 1309.46C1407.51 1311.87 1422.95 1320.27 1417.61 1327.96C1414.85 1331.94 1408.64 1334.1 1404.23 1335.39C1396.25 1337.72 1387.63 1337.79 1379.38 1337.79C1364.35 1337.79 1345.27 1337.52 1334.71 1324.88C1330.67 1320.05 1329.94 1312.81 1330.9 1306.79C1332.51 1296.75 1338.46 1288.49 1346.24 1282.22C1354.72 1275.38 1364.53 1269.67 1374.48 1265.27C1385.95 1260.21 1398.76 1255.99 1411.44 1256.25C1420.46 1256.43 1428.73 1259.8 1436.45 1264.26C1441.8 1267.35 1448.73 1271.5 1451.98 1276.97C1454.14 1280.62 1452.06 1283.89 1449.18 1286.34C1443.42 1291.26 1436.23 1294.24 1430.08 1298.61C1429.15 1299.27 1426.18 1301.01 1426.31 1302.6C1426.44 1304.15 1429.59 1304.7 1430.56 1304.96C1436.09 1306.48 1441.87 1307.43 1446.96 1310.23C1450.98 1312.44 1453.17 1316.08 1454.14 1320.49C1454.95 1324.14 1455.85 1329.67 1454.32 1333.26C1452.55 1337.41 1446.57 1333.93 1444.35 1332.17C1439.44 1328.3 1437.16 1321.52 1440.78 1315.95C1444.35 1310.48 1451.6 1307.17 1456.87 1303.67C1462.21 1300.12 1463.07 1296.49 1467.63 1291.97C1468.18 1291.42 1468.94 1291.73 1468.94 1291.73C1468.94 1291.73 1469.75 1295.18 1470.51 1297.31C1471.84 1301.09 1473.46 1303.53 1475.05 1306.5" stroke="black" stroke-width="2" stroke-linecap="round"/>
<path d="M1477.96 1293.02C1477.96 1292.02 1477.95 1293.2 1477.96 1293.55C1478.12 1297.22 1479.81 1300.68 1482.88 1302.78C1486.82 1305.47 1492.24 1306.04 1496.63 1304.15C1501.35 1302.12 1503.81 1297.75 1504.96 1292.94C1505.31 1291.51 1504.89 1289.38 1505.9 1291.61C1507.43 1295 1508.8 1298.47 1510.96 1301.54C1512.47 1303.71 1514.38 1306.21 1516.89 1307.29C1519.55 1308.44 1520.66 1303.3 1521.48 1301.69C1523.99 1296.78 1527.95 1293.23 1532.77 1290.63C1537.75 1287.95 1544.69 1284.97 1550.5 1286.08C1554.13 1286.77 1554.85 1289.93 1553.07 1292.84C1551.88 1294.8 1547.46 1298.05 1549.86 1300.47C1553.28 1303.93 1558.56 1305.43 1562.32 1308.57C1567.21 1312.62 1571.38 1318.87 1568.98 1325.47C1567.6 1329.28 1563.01 1332.55 1559.19 1329.78C1555.66 1327.22 1556.64 1324.18 1559.21 1321.8" stroke="black" stroke-width="2" stroke-linecap="round"/>
<path d="M1448.82 1349.13C1448.82 1348.56 1448.93 1348.27 1448.46 1348.03" stroke="black" stroke-width="2" stroke-linecap="round"/>
<path d="M1608.4 1287.07C1605.34 1284.01 1610.44 1290.62 1610.73 1290.98C1611.89 1292.42 1625.45 1306.62 1624.76 1307.54C1624.56 1307.79 1623.87 1307.63 1623.79 1307.34C1623.55 1306.47 1625.04 1304.87 1625.44 1304.31C1633.75 1292.95 1643.01 1282.32 1651.17 1270.81C1654.9 1265.55 1658.74 1260.26 1661.94 1254.66C1663.19 1252.48 1664.22 1250.2 1664.53 1247.7C1664.86 1245.05 1664.06 1244.88 1663.24 1247.44C1660.8 1255.07 1662.09 1263.93 1663.57 1271.62C1664.76 1277.79 1666.86 1283.69 1668.75 1289.66C1671.61 1298.68 1673.77 1307.88 1676.35 1316.99C1678.25 1323.72 1680.75 1330.35 1682.26 1337.18C1683.15 1341.19 1684.09 1346.49 1681.78 1350.24C1680.21 1352.79 1677.01 1353.34 1674.29 1352.68C1669.82 1351.59 1667.94 1347.14 1667.99 1342.85C1668.06 1337.23 1671.17 1332.18 1674.24 1327.71C1678.44 1321.58 1683.28 1315.96 1687.04 1309.52C1690.16 1304.17 1692.76 1298.48 1694.86 1292.66C1695.76 1290.18 1696.98 1287.05 1696.62 1284.32C1696.58 1284.05 1696.29 1287.46 1696.29 1287.47C1696.52 1292.65 1697.75 1297.74 1699 1302.74C1702.28 1315.86 1705.23 1328.64 1706.5 1342.14C1706.63 1343.57 1706.01 1347.72 1706.7 1346.46C1708.14 1343.82 1709.27 1341.05 1710.92 1338.48C1711.74 1337.2 1718.04 1327.67 1719.96 1329.59" stroke="black" stroke-width="2" stroke-linecap="round"/>
<path d="M1634.92 1242.26C1635.09 1242.04 1635.57 1241.39 1635.27 1241.09C1634.28 1240.1 1633.35 1243.14 1632.48 1244.24C1628.96 1248.67 1625.19 1252.89 1621.2 1256.89" stroke="black" stroke-width="2" stroke-linecap="round"/>
<path d="M1611.6 1341.48C1608.9 1340.88 1616.97 1334.21 1617.44 1333.81C1619.44 1332.08 1621.48 1330.41 1623.74 1329.03C1624.39 1328.64 1623.19 1329.47 1623.03 1329.59" stroke="black" stroke-width="2" stroke-linecap="round"/>
<path d="M1633.54 1321.36C1633.24 1320.76 1633.49 1320.96 1633.54 1321.36" stroke="black" stroke-width="2" stroke-linecap="round"/>
<path d="M1755.61 1278.54C1755.44 1278.45 1754.05 1277.67 1754.14 1277.65C1757.31 1276.74 1762.41 1278.01 1765.64 1278.05C1773.42 1278.16 1796.77 1278.54 1788.99 1278.54" stroke="black" stroke-width="2" stroke-linecap="round"/>
<path d="M598.06 1292.32C596.058 1290.72 593.219 1291.02 595.269 1294.15C602.851 1305.69 618.532 1306.6 630.312 1301.98C649.503 1294.46 656.723 1276.93 654.299 1257.55C653.664 1252.46 652.761 1247.51 651.616 1242.52C650.738 1238.7 651.244 1240.72 651.777 1243.33C654.057 1254.47 656.143 1265.16 657.573 1276.49C659.782 1293.99 668.973 1305.99 688 1300.16C697.522 1297.23 709.01 1286.49 706.085 1275.52C704.025 1267.8 701.566 1267.97 698.304 1274.18C694.634 1281.17 692.328 1291.03 699.592 1296.72C711.479 1306.04 730.189 1300.16 732.058 1286.53C734.016 1272.25 732.793 1258.19 733.482 1241.34C733.102 1239.52 733.689 1240.2 733.49 1241.77C733.294 1247.16 733.145 1252.77 733.28 1258.19C733.508 1269.68 731.276 1292.57 744.884 1298.17C756.698 1303.04 766.173 1283.6 766.886 1274.83C767.13 1271.83 766.943 1268.58 765.384 1265.92C763.636 1262.93 766.368 1272.18 766.403 1272.25C770.304 1280.57 775.547 1290.18 782.556 1296.19" stroke="black" stroke-width="2" stroke-linecap="round"/>
<path d="M704.448 1245.46L704.002 1245.91" stroke="black" stroke-width="2" stroke-linecap="round"/>
<path d="M779.188 1268.13C779.188 1266.78 779.035 1266.7 779.296 1268.4C780.043 1273.26 782.509 1278.2 784.555 1282.62C791.908 1298.5 822.763 1304.22 822.763 1304.22C822.763 1304.22 847.549 1307.81 856.829 1305.03C874.899 1299.62 877.148 1277.87 875.354 1259.33C874.466 1250.15 871.444 1242.31 867.775 1233.31" stroke="black" stroke-width="2" stroke-linecap="round"/>
<path d="M697.19 1318.33C692.563 1318.16 698.104 1317.17 700.324 1318.18C708.116 1321.7 700.958 1327.95 697.19 1330.86" stroke="black" stroke-width="2" stroke-linecap="round"/>
<path d="M773.743 1224.32C772.801 1220.55 763.934 1218.85 760.984 1218.27C754.53 1217.01 748.96 1218.26 743.749 1222.08" stroke="black" stroke-width="2" stroke-linecap="round"/>
<path d="M1191.67 1282.21C1188.6 1281.83 1196.29 1290.27 1197.27 1291.08C1210.67 1302 1230.62 1304.77 1247.2 1300.94C1256.64 1298.77 1274.75 1290.87 1267.61 1277.69C1262.3 1267.89 1245.87 1265.13 1236.46 1262.81C1217.38 1258.11 1197.93 1254.84 1178.75 1250.55C1168.75 1248.32 1158.74 1246.09 1148.85 1243.4C1145.34 1242.45 1151.64 1243.88 1151.73 1243.9C1170.54 1247.95 1189.23 1248.62 1208.44 1247.92C1236.39 1246.9 1269.47 1245.02 1294.04 1230.1C1297.67 1227.9 1301.06 1221.62 1295.55 1225.76" stroke="black" stroke-width="2" stroke-linecap="round"/>
<path d="M1053.77 1215.07C1052.33 1213.64 1054.95 1217.72 1055.12 1217.91C1065.12 1229.16 1083.47 1229.98 1097.21 1228.14C1104.57 1227.15 1111.6 1225.03 1118.3 1221.86C1120.92 1220.62 1123.94 1219.25 1126.13 1217.26C1127.04 1216.42 1125.56 1217.69 1125.26 1217.84" stroke="black" stroke-width="2" stroke-linecap="round"/>
<path d="M1157.93 1338.65C1155.76 1338.51 1161.37 1333.97 1161.84 1333.54C1163.42 1332.07 1165.93 1329.1 1168.35 1329.1" stroke="black" stroke-width="2" stroke-linecap="round"/>
<path d="M1175.73 1324.33C1175.33 1324.12 1174.55 1323.59 1174.42 1323.46" stroke="black" stroke-width="2" stroke-linecap="round"/>
<path d="M1012.22 1324.23C1010.02 1322.47 1005.55 1329.53 1010.82 1330.79C1013.83 1331.5 1018 1329.82 1018.19 1326.28C1018.44 1321.74 1012.57 1324.53 1010.91 1325.53" stroke="black" stroke-width="2" stroke-linecap="round"/>
<path d="M993.546 1282.73C993.267 1282.69 993.126 1282.62 993.126 1282.31C993.126 1281.96 994.895 1283.66 994.922 1283.69C1000.31 1288.34 1006.36 1295.28 1008.99 1301.98C1009.49 1303.24 1010.77 1305.91 1010.77 1307.32C1010.77 1310.43 1009.78 1301.13 1010.02 1298.04C1010.75 1288.48 1018.39 1280.19 1025.07 1273.96C1033.1 1266.46 1040.8 1259.59 1041.33 1247.87C1041.43 1245.74 1041.05 1243.64 1041.01 1241.52C1041 1240.91 1041.01 1240.78 1041.01 1241.38C1041.01 1245.35 1041.65 1249.29 1042.08 1253.23C1044.11 1271.87 1046.21 1290.5 1049.22 1309C1050.2 1315.04 1051.05 1321.08 1051.69 1327.16C1052.12 1331.12 1051.59 1334.87 1049.17 1338.15C1047.34 1340.64 1043.42 1341.55 1040.91 1339.29C1034.84 1333.83 1038.77 1321.75 1040.68 1315.49C1042.63 1309.11 1045.43 1303.23 1049.22 1297.73C1052.53 1292.93 1056.34 1288.48 1059.44 1283.52C1060.47 1281.88 1064.44 1275.92 1062.43 1273.91" stroke="black" stroke-width="2" stroke-linecap="round"/>
<path d="M1062.01 1274.75C1061.34 1275.5 1061.96 1275.87 1062.2 1276.71C1062.79 1278.83 1063.19 1281.26 1063.6 1283.43C1064.4 1287.73 1064.21 1292.23 1064.55 1296.59C1064.88 1300.78 1065.65 1304.89 1065.88 1309.1C1066.3 1316.58 1067.18 1324.33 1069.34 1331.54C1070.92 1336.85 1076.47 1339.37 1081.47 1339.55C1092.53 1339.94 1099.46 1328.3 1104.01 1318.48C1107.25 1311.48 1108.1 1303.18 1107.46 1295.56C1107.04 1290.51 1105.49 1283.86 1101.12 1280.72C1097.96 1278.46 1094.61 1278.11 1090.87 1278.11C1089.85 1278.11 1086.8 1278.11 1087.82 1278.11C1089.32 1278.11 1090.74 1277.61 1092.18 1277.25C1099.08 1275.49 1106.27 1274.5 1113.39 1274.52C1116.41 1274.52 1144.82 1276.27 1138.78 1284.13C1136.69 1286.85 1131.99 1288.15 1130.94 1291.62C1129.78 1295.43 1134.97 1298.74 1137.47 1300.56C1142.31 1304.07 1146.62 1307.54 1148.18 1313.6C1149.46 1318.56 1149.89 1325.61 1145.51 1331.1C1143.48 1333.65 1139.09 1337.55 1135.3 1333.17C1134.44 1332.17 1133.73 1330.24 1134.5 1326.77C1135.06 1324.21 1139.83 1315.22 1141.77 1311.01C1145.66 1302.57 1151.03 1294.38 1152.41 1285.02C1152.66 1283.27 1152.83 1281.36 1152.55 1279.6C1152.52 1279.46 1151.56 1277.49 1151.75 1278.67C1152.65 1284.07 1156.31 1289.38 1158.5 1294.3C1160.46 1298.73 1162.59 1303.39 1163.89 1308.07C1163.95 1308.29 1164.14 1309.16 1163.61 1308.63C1162.22 1307.24 1162.49 1304.09 1162.6 1302.45C1162.91 1298.1 1164 1293.82 1165.99 1289.92C1167.48 1287 1170.99 1280.88 1175.23 1281.56C1180.13 1282.35 1181.37 1291.93 1182.83 1295.56C1184.36 1299.35 1187.53 1303.34 1190.74 1305.83" stroke="black" stroke-width="2" stroke-linecap="round"/>
<path d="M1204.98 1235.05C1213.62 1235.05 1222.22 1235.4 1230.85 1235.79" stroke="black" stroke-width="2" stroke-linecap="round"/>
<path d="M237.534 1110.33C237.88 1108.95 243.013 1108.37 244.108 1107.98C248.721 1106.33 253.22 1104.12 257.498 1101.73C259.325 1100.71 261.958 1099.1 258.391 1098.08C250.852 1095.93 239.706 1100.98 233.355 1104.69C225.742 1109.15 247.286 1115.29 249.87 1116.5C252.649 1117.8 272.169 1125.79 265.37 1131.35C261.425 1134.58 254.528 1136.22 249.707 1137.2C238.297 1139.5 226.74 1138.64 215.379 1136.47C205.673 1134.61 164.498 1121.93 181.943 1105.91C189.224 1099.23 198.485 1095.09 207.629 1091.67C223.245 1085.82 239.377 1081.51 254.901 1075.4C273.378 1068.12 291.311 1058.44 305.379 1044.15C308.92 1040.56 314.956 1034.21 314.956 1028.53" stroke="black" stroke-width="2" stroke-linecap="round"/>
<path d="M200.284 1076.74C211.758 1073.64 223.246 1070.74 234.612 1067.24" stroke="black" stroke-width="2" stroke-linecap="round"/>
<path d="M230.96 1160.73H232.421" stroke="black" stroke-width="2" stroke-linecap="round"/>
<path d="M249.22 1159.27C249.285 1158.75 249.724 1158.26 249.951 1157.81" stroke="black" stroke-width="2" stroke-linecap="round"/>
<path d="M319.741 1107.28C318.115 1103.2 325.041 1093.19 327.065 1090.02C329.364 1086.43 331.289 1094.23 332.17 1095.74C335.522 1101.47 340.684 1103.84 346.845 1105.69C361.86 1110.19 376.993 1109.14 392.085 1109.28C414.795 1109.73 437.52 1110.15 460.371 1109.61C474.331 1109.47 502.345 1109.76 516.372 1109.62C524.103 1109.54 542.525 1094.25 549.552 1098.23C556.775 1102.33 558.788 1114.51 551.525 1115.89C544.023 1117.32 534.768 1115.01 539.093 1106.96" stroke="black" stroke-width="2" stroke-linecap="round"/>
<path d="M317.983 1140.83C322.728 1138.2 326.797 1133.94 330.956 1130.54" stroke="black" stroke-width="2" stroke-linecap="round"/>
<path d="M330.902 1061.78L332.361 1061.86" stroke="black" stroke-width="2" stroke-linecap="round"/>
<path d="M383.886 1097.47C381.193 1097.08 383.758 1094.69 384.559 1093.16C387.132 1088.24 389.345 1083.07 391.412 1077.92C391.437 1077.85 392.628 1073.75 392.937 1075.19C393.944 1079.88 394.451 1084.36 396.778 1088.72C404.661 1103.48 422.514 1084.33 430.187 1079.26C431.147 1078.62 443.673 1070.58 444.426 1074.27C445.884 1081.42 432.703 1087.23 432.662 1094.83C432.648 1097.6 434.947 1099.13 436.743 1100.69C440.609 1104.04 444.708 1106.95 447.947 1110.99C453.314 1117.67 457.979 1128.28 453.749 1136.73C451.113 1142 444.634 1141.86 440.889 1137.88C432.928 1129.43 437.988 1116.37 442.868 1107.88C448.351 1098.33 455.603 1089.96 461.325 1080.56C463.168 1077.54 464.874 1074.37 465.931 1070.97C465.968 1070.85 466.407 1067.73 466.641 1067.51C467.754 1066.51 467.29 1070.44 467.712 1071.88C468.801 1075.58 470.169 1079.19 471.694 1082.73C473.5 1086.93 475.626 1090.97 477.63 1095.07" stroke="black" stroke-width="2" stroke-linecap="round"/>
<path d="M480.618 1065.97C483.083 1073.76 486.224 1081 489.683 1088.39" stroke="black" stroke-width="2" stroke-linecap="round"/>
<path d="M472.092 1047.24C469.996 1042.76 463.615 1040.08 458.987 1039.89C449.253 1039.48 442.358 1045.56 435.316 1051.16" stroke="black" stroke-width="2" stroke-linecap="round"/>
<path d="M487.323 1007.81C481.935 1009.95 477.25 1012.28 472.315 1015.07" stroke="black" stroke-width="2" stroke-linecap="round"/>
<path d="M399.844 1044.18C400.682 1044.02 400.443 1043.44 400.65 1042.76" stroke="black" stroke-width="2" stroke-linecap="round"/>
<path d="M391.377 1122C384.574 1122.17 385.379 1134.71 392.299 1131.56C394.984 1130.33 398.904 1125.86 397.114 1122.63C395.526 1119.75 391.077 1120.68 388.498 1121.12" stroke="black" stroke-width="2" stroke-linecap="round"/>
<path d="M629.481 1098.36C630.191 1090.55 643.062 1082.49 648.461 1090.34C660.384 1107.65 633.047 1116.37 620.613 1109.65C609.315 1103.54 606.165 1091.85 611.16 1080.3C614.769 1071.95 621.178 1065.32 628.052 1059.56C634.391 1054.24 642.658 1047.23 651.319 1046.51C660.099 1045.78 668.742 1051.04 675.283 1056.29C687.122 1065.8 698.081 1079.84 700.86 1095.14C701.976 1101.29 700.061 1108.41 693.458 1110.38C688.684 1111.8 684.888 1108.19 683.638 1103.86C680.733 1093.79 688.296 1082.48 696.902 1077.91C706.326 1072.91 710.626 1086.42 713.904 1093.08C719.594 1104.66 726.527 1115.87 730.173 1128.33C732.184 1135.21 733.899 1151.47 726.143 1156.11C718.484 1160.69 720.289 1144.99 720.646 1142.29C722.511 1128.21 725.777 1113.6 729.367 1099.86C730.287 1096.34 733.406 1085.83 738.528 1085.61C741.746 1085.47 744.956 1099.99 745.563 1101.66C747.479 1106.93 749.666 1111.84 752.158 1116.83" stroke="black" stroke-width="2" stroke-linecap="round"/>
<path d="M748.201 1081.87C751.243 1090.27 754.37 1098.48 758.754 1106.27" stroke="black" stroke-width="2" stroke-linecap="round"/>
<path d="M755.456 1058.13C758.173 1057.79 753.771 1052.48 753.111 1052.04C743.152 1045.52 733.565 1052.02 725.116 1057.47" stroke="black" stroke-width="2" stroke-linecap="round"/>
<path d="M761.392 1014.6C757.237 1017.19 753.77 1021.23 750.18 1024.49" stroke="black" stroke-width="2" stroke-linecap="round"/>
<path d="M680.926 1128.04C682.56 1124.77 687.989 1127.66 689.684 1129.21C697.156 1136.05 684.155 1141.38 679.607 1143.87" stroke="black" stroke-width="2" stroke-linecap="round"/>
<path d="M802.944 1094C802.555 1093.93 802.706 1093.74 803.128 1093.82C805.282 1094.22 807.089 1097.19 808.221 1098.76C811.254 1102.98 813.814 1107.55 816.795 1111.81" stroke="black" stroke-width="2" stroke-linecap="round"/>
<path d="M814.816 1090.7C820.43 1093.51 822.909 1100.29 826.395 1105.14C830.688 1111.11 831.64 1103.11 833.943 1099.06C836.076 1095.3 839.283 1091.17 843.983 1090.7C850.955 1090 845.412 1098.15 843.983 1100.3C842.506 1102.53 839.53 1105.4 842.371 1107.85C847.178 1111.99 853.084 1114.04 857.688 1118.73C864.136 1125.31 878.513 1142.73 870.256 1152.3C868.083 1154.81 863.877 1156.71 860.729 1154.79C854.031 1150.7 855.05 1138.15 856.075 1131.81C858.54 1116.58 867.123 1103.2 873.59 1089.46C873.673 1089.28 874.695 1085.94 875.496 1086.23C877.087 1086.82 879.179 1090.9 880.003 1092.02C883.629 1096.97 887.087 1102.04 890.299 1107.26C893.183 1111.95 897.005 1117.43 897.847 1123.02C898.208 1125.41 897.11 1128.75 894.11 1128.52C888.228 1128.05 887.09 1119.11 887.331 1114.88C887.87 1105.44 892.809 1097.89 898.397 1090.66C899.472 1089.27 901.172 1085.77 902.757 1084.77C903.222 1084.47 903.27 1089.55 903.27 1089.57C903.676 1096.26 906.218 1102.53 908.767 1108.66C913.797 1120.75 918.381 1132.61 922.178 1145.15C922.42 1145.95 924.314 1150.21 923.204 1151.09C921.019 1152.82 920.543 1146.21 920.565 1145.81C921.032 1137.41 925.152 1124.36 931.448 1118.51C933.25 1116.84 935.515 1116.46 935.515 1119.06" stroke="black" stroke-width="2" stroke-linecap="round"/>
<path d="M820.901 1051.79C813.249 1056.69 807.417 1063.2 801.774 1070.25" stroke="black" stroke-width="2" stroke-linecap="round"/>
<path d="M800.455 1051.13H801.115" stroke="black" stroke-width="2" stroke-linecap="round"/>
<path d="M810.348 1039.26L808.37 1040.57" stroke="black" stroke-width="2" stroke-linecap="round"/>
<path d="M804.923 1154.68C804.695 1154.22 810.107 1149.78 810.493 1149.4C811.13 1148.78 817.386 1141.61 816.685 1145.11C816.517 1145.95 814.64 1152.19 817.235 1151.45C821.215 1150.32 824.258 1145.18 826.688 1142.15" stroke="black" stroke-width="2" stroke-linecap="round"/>
<path d="M888.027 1066.96C888.103 1066.35 888.241 1066.52 888.687 1066.3" stroke="black" stroke-width="2" stroke-linecap="round"/>
<path d="M966.128 1089.45C963.505 1087.49 962.659 1089.64 962.794 1092.13C963.198 1099.54 968.125 1106.39 974.679 1109.71C995.113 1120.05 1021.55 1108.73 1024.47 1085.24" stroke="black" stroke-width="2" stroke-linecap="round"/>
<path d="M1024.04 1039.64C1024.2 1039.31 1023.73 1046.99 1023.73 1048.1C1023.74 1057.12 1022.49 1066.03 1023.34 1075.05C1024.28 1084.93 1025.89 1097.55 1033.3 1104.93C1043.08 1114.66 1069.71 1106.84 1070.51 1091.49" stroke="black" stroke-width="2" stroke-linecap="round"/>
<path d="M1071.57 1043.48C1072.58 1046.8 1071.89 1050.75 1071.53 1054.12C1070.48 1063.7 1070.45 1063.98 1070.11 1073.61C1069.4 1081.83 1068.4 1095.26 1076.87 1100.46C1090.66 1108.93 1111.12 1100.25 1124.62 1095.33C1132.1 1092.6 1142.06 1088.14 1150.18 1090.58C1154 1091.73 1160.65 1097.24 1158.1 1101.93C1154.6 1108.36 1144.02 1110.66 1137.4 1110.38C1130.8 1110.11 1132.97 1107.31 1136.03 1104.3" stroke="black" stroke-width="2" stroke-linecap="round"/>
<path d="M997.088 1129.38C996.731 1129.29 994.421 1128.27 995.194 1127.7C998.109 1125.56 1003.85 1131.38 1005.29 1133.18C1011.08 1140.42 1006.38 1149.14 997.959 1150.56" stroke="black" stroke-width="2" stroke-linecap="round"/>
<path d="M1018.63 1139.09L1019.95 1139.16" stroke="black" stroke-width="2" stroke-linecap="round"/>
<path d="M1191.7 1093.44C1190.36 1091.71 1187.26 1095.54 1190.27 1096.76C1191.37 1097.21 1193.52 1097.12 1193.94 1095.7C1194.46 1093.88 1191.61 1093.74 1190.63 1093.44" stroke="black" stroke-width="7" stroke-linecap="round"/>
<path d="M1224.22 1106.16C1220.71 1109.28 1226.07 1101.02 1226.54 1100.15C1228.24 1096.99 1230.22 1093.89 1231.43 1090.49C1231.63 1089.94 1231.95 1086.84 1231.95 1089.08C1231.95 1098.75 1231.97 1110.42 1243.28 1113.54C1256.3 1117.14 1270.72 1114 1283.8 1112.43C1297.05 1110.83 1310.28 1110.06 1323.63 1110.02C1341.16 1109.98 1359.04 1112.1 1376.51 1110.02C1381.17 1109.47 1389.73 1108.66 1391.53 1103.07C1392.49 1100.08 1388.16 1089.92 1391.44 1095.86C1394.68 1101.7 1397.95 1107.6 1402.69 1112.34" stroke="black" stroke-width="2" stroke-linecap="round"/>
<path d="M1406.55 1089.16C1407.72 1099.27 1411.33 1105.84 1417.37 1113.89" stroke="black" stroke-width="2" stroke-linecap="round"/>
<path d="M1275.98 1097.66C1275.98 1093.18 1278.87 1089.59 1279.85 1085.3C1280.91 1080.61 1279.44 1079.45 1281.13 1083.75C1284.5 1092.29 1292.57 1094.02 1300.88 1094.4C1318.89 1095.22 1337.08 1091.99 1354.87 1089.68C1358.36 1089.22 1362.96 1089.26 1366.38 1088.22C1370.32 1087.01 1369.94 1076.7 1370.07 1073.8C1370.55 1062.83 1368.83 1052.52 1367.32 1041.78C1367.12 1040.37 1367.85 1038.8 1368.7 1040.49" stroke="black" stroke-width="2" stroke-linecap="round"/>
<path d="M1237.35 1067.53C1237.7 1067.14 1238.13 1065.87 1238.13 1066.76" stroke="black" stroke-width="2" stroke-linecap="round"/>
<path d="M1235.04 1134.75V1135.52" stroke="black" stroke-width="2" stroke-linecap="round"/>
<path d="M1283.71 1063.67L1284.48 1062.89" stroke="black" stroke-width="2" stroke-linecap="round"/>
<path d="M1286.03 1140.93C1283.64 1140.25 1282.26 1139.88 1285.25 1139.38" stroke="black" stroke-width="2" stroke-linecap="round"/>
<path d="M1674.41 1107.36C1677.14 1101.11 1680.22 1095.01 1681.96 1088.38C1682.2 1087.48 1683.34 1095.14 1684.02 1096.88C1688.36 1107.89 1699.4 1110.77 1710.38 1107.79C1715.94 1106.28 1721.09 1103.01 1724.8 1098.6C1726.52 1096.56 1726.93 1093.51 1728.66 1091.65C1730.41 1089.77 1730.8 1096.36 1730.81 1096.71C1731.05 1106.41 1735.84 1111.11 1745.75 1112.42C1754.92 1113.63 1764.09 1111.92 1772.96 1109.67C1780.09 1107.87 1788.23 1106.01 1794.51 1101.95C1799.86 1098.48 1799.81 1093.25 1794.16 1091.13" stroke="black" stroke-width="2" stroke-linecap="round"/>
<path d="M1445.96 1114.66C1447.92 1108.76 1452.05 1103.78 1454.71 1098.18C1456.56 1094.29 1457.37 1090.2 1458.92 1086.24C1460.29 1082.73 1459.46 1093.85 1460.72 1097.4C1464.52 1108.14 1472.6 1110.48 1483.17 1110.67C1513.23 1111.18 1543.47 1110.02 1573.56 1110.02C1591.56 1110.02 1609.55 1109.25 1627.52 1109.25" stroke="black" stroke-width="2" stroke-linecap="round"/>
<path d="M1493.86 1080.66C1495.47 1084.09 1504.01 1097.89 1508.79 1096.93C1510.21 1096.65 1511.41 1088.63 1511.8 1087.45C1513.24 1083.06 1514.73 1078.46 1516.95 1074.4C1519.38 1069.93 1519.91 1074.93 1521.03 1077.44C1527.64 1092.32 1536.64 1106.5 1540.73 1122.38C1541.75 1126.35 1542.73 1130.95 1541.16 1134.92C1539.49 1139.12 1536.11 1139.22 1534.2 1135.09C1526.38 1118.16 1534.84 1098.27 1543.56 1083.67C1545.51 1080.4 1548.34 1076.85 1549.36 1073.11C1549.96 1070.9 1549.78 1073.55 1550.34 1075.08C1551.61 1078.51 1558.28 1097.66 1560.3 1097.66" stroke="black" stroke-width="2" stroke-linecap="round"/>
<path d="M1559.53 1073.71C1559.72 1070.9 1562.15 1079.14 1562.49 1079.85C1565.55 1086.28 1572.89 1104.21 1581.8 1104.4C1591.27 1104.61 1589.31 1060.65 1599.87 1069.89C1606.15 1075.38 1610.55 1085.77 1610.61 1094.06C1610.65 1100.01 1604.85 1105.99 1603.14 1097.06C1599.91 1080.21 1606.74 1059.08 1616.01 1045.12C1618 1042.14 1622.63 1038.46 1618.25 1043.58" stroke="black" stroke-width="2" stroke-linecap="round"/>
<path d="M1527.08 1055.17C1525.71 1048.66 1541.53 1047.21 1545.19 1048.3C1551.73 1050.25 1555.62 1054.21 1557.21 1060.58" stroke="black" stroke-width="2" stroke-linecap="round"/>
<path d="M1499.27 1136.29C1499.27 1143.86 1513.98 1132.97 1516.26 1131.66" stroke="black" stroke-width="2" stroke-linecap="round"/>
<path d="M1460.64 1057.49C1461.49 1057.24 1460.77 1056.49 1460.64 1055.94" stroke="black" stroke-width="2" stroke-linecap="round"/>
<path d="M1444.41 1141.7C1443.14 1140.07 1453.61 1134.31 1455.23 1133.2" stroke="black" stroke-width="2" stroke-linecap="round"/>
<path d="M1467.59 1126.25H1468.36" stroke="black" stroke-width="2" stroke-linecap="round"/>
<path d="M170.693 930.609C174.059 924.184 177.753 918.068 180.422 911.28C180.659 910.677 181.529 906.408 181.775 908.993C182.249 913.966 183.705 919.455 186.929 923.393C189.786 926.882 194.026 927.041 198.14 926.453C203.689 925.661 209.174 924.741 214.763 924.23C216.173 924.102 228.581 923.27 228.1 924.23" stroke="black" stroke-width="2" stroke-linecap="round"/>
<path d="M172.955 955.753C172.955 955.86 172.995 955.543 173.028 955.441C173.523 953.88 174.642 952.399 175.344 950.926C175.513 950.571 178.176 944.463 178.601 945.331C180.236 948.672 180.069 953.209 184.27 954.793C190.061 956.976 191.774 947.448 192.931 944.082" stroke="black" stroke-width="2" stroke-linecap="round"/>
<path d="M263.486 930.316C259.868 932.837 266.769 922.131 268.427 918.046C268.625 917.557 270.394 913.427 270.42 913.602C270.909 916.958 270.725 919.043 273.622 921.58C278.171 925.561 284.594 926.352 290.354 927.063C300.649 928.335 311.133 928.681 321.499 928.731C338.576 928.814 355.747 928.826 372.809 928.041C385.162 927.472 411.917 928.371 424.268 928.323C428.327 928.307 432.256 927.361 436.299 927.196C441.007 927.004 445.615 927.217 450.148 925.681C460.424 922.2 465.34 913.291 467.794 903.153C469.319 896.852 469.194 890.43 468.041 884.078C467.811 882.812 466.363 875.24 465.684 875.873" stroke="black" stroke-width="2" stroke-linecap="round"/>
<path d="M302.552 908.237C304.966 905.094 309.39 903.433 313.012 902.22C317.11 900.847 324.508 899.858 319.586 905.963C317.984 907.951 310.401 912.674 314.772 914.595C323.639 918.492 330.339 921.537 331.92 932.149C332.862 938.468 333.192 947.743 328.269 952.717C324.967 956.053 321.439 951.705 321.725 948.104C322.015 944.464 324.217 940.942 325.982 937.905C330.146 930.741 334.826 923.871 339.508 917.038C343.379 911.388 348.297 905.23 350.339 898.559C350.754 897.204 349.905 898.45 349.855 899.509C349.645 903.912 348.732 909.33 350.397 913.518C352.781 919.516 361.889 918.435 366.986 918.481C376.336 918.567 385.767 919.12 395.11 918.948C401.021 918.839 411.754 914.34 411.297 906.813C411.261 906.221 409.388 901.25 408.169 902.223C405.805 904.11 414.235 917.656 415.294 919.717" stroke="black" stroke-width="2" stroke-linecap="round"/>
<path d="M416.501 901.772C419.605 905.436 422.447 909.315 425.389 913.107" stroke="black" stroke-width="2" stroke-linecap="round"/>
<path d="M261.436 955.774C260.097 955.558 261.941 954.35 262.268 954.126C267.919 950.259 274.192 947.662 280.386 944.831" stroke="black" stroke-width="2" stroke-linecap="round"/>
<path d="M413.916 873.892C410.466 867.62 406.109 864.044 399.322 861.668C390.156 858.46 386.289 862.913 382.484 870.524" stroke="black" stroke-width="2" stroke-linecap="round"/>
<path d="M525.574 929.682C524.536 929.682 524.329 929.682 525.928 929.682C532.084 929.682 537.954 928.429 543.582 925.881C545.516 925.006 552.526 921.974 550.251 918.665C546.965 913.886 537.615 916.338 533.306 917.409C527.621 918.82 516.859 921.181 513.751 927.009C511.222 931.75 523.043 933.962 525.477 934.547C534.347 936.678 543.222 937.952 551.861 941.022C554.725 942.04 564.279 944.529 564.393 948.85C564.478 952.091 558.953 954.481 556.758 955.519C545.765 960.717 533.95 963.76 521.708 962.542C510.972 961.474 500.255 955.771 493.488 947.272C483.502 934.73 496.072 918.682 503.861 908.485C510.896 899.275 519.071 890.949 527.861 883.422C531.104 880.645 535.13 876.995 539.233 875.368C546.526 872.477 551.155 884.112 553.923 888.705C561.257 900.873 572.437 918.671 581.246 929.682" stroke="black" stroke-width="2" stroke-linecap="round"/>
<path d="M580.469 909.965C580.551 907.619 581.059 909.644 581.599 910.842C583.26 914.533 584.751 918.218 587.487 921.299C591.363 925.664 597.467 926.388 602.954 926.996C613.794 928.197 622.477 927.32 633.356 927.247C644.236 927.173 636.034 927.34 648.833 926.507C661.632 925.674 659.869 910.865 659.852 908.417C659.766 895.635 656.124 870.25 656.124 870.25" stroke="black" stroke-width="2" stroke-linecap="round"/>
<path d="M596.898 878.654C592.64 879.234 572.309 893.841 571.384 891.991" stroke="black" stroke-width="2" stroke-linecap="round"/>
<path d="M572.544 874.015C571.58 873.951 571.964 873.985 571.964 873.435" stroke="black" stroke-width="2" stroke-linecap="round"/>
<path d="M578.342 868.216H579.502" stroke="black" stroke-width="2" stroke-linecap="round"/>
<path d="M522.675 985.35C522.042 985.811 521.394 985.93 520.613 985.93C519.601 985.93 523.402 984.077 523.48 984.03C526.742 982.049 529.975 980.115 533.467 978.553C534.343 978.161 537.328 977.076 537.751 976.652" stroke="black" stroke-width="2" stroke-linecap="round"/>
<path d="M553.988 969.114H555.147" stroke="black" stroke-width="2" stroke-linecap="round"/>
<path d="M688.146 940.53C687.533 940.952 690.149 936.198 690.354 935.865C693.297 931.065 696.322 926.281 699.112 921.39C699.617 920.505 700.098 917.937 700.101 920.118C700.105 923.052 700.461 926.083 702.796 928.156C709.53 934.134 720.13 934.505 728.582 934.985C738.441 935.546 748.023 934.936 757.851 934.208C780.462 932.532 803.284 933.841 825.931 934.236C841.309 934.504 919.887 934.962 935.267 935.532C944.154 935.862 953.175 935.894 962.021 934.872C962.68 934.795 964.42 934.065 962.836 934.37C958.508 935.203 954.072 936.505 949.856 937.752C939.698 940.758 928.388 945.365 920.88 953.099C910.819 963.462 909.706 977.194 908.946 990.781" stroke="black" stroke-width="2" stroke-linecap="round"/>
<path d="M746.82 921.904C747.115 919.184 749.984 917.239 751.544 915.221C753.226 913.043 754.494 910.609 755.375 908.006C755.684 907.094 755.806 905.421 756.369 904.608C756.761 904.041 756.408 905.988 756.494 906.672C756.792 909.052 757.14 910.722 758.696 912.961C763.822 920.34 783.181 927.988 792.154 916.316" stroke="black" stroke-width="2" stroke-linecap="round"/>
<path d="M790.523 876.851C791.405 867.517 792.416 895.539 792.385 904.914C792.369 909.953 791.421 918.31 796.314 921.673C801.622 925.321 809.755 923.761 814.263 919.666C818.615 915.713 821.003 909.892 821.462 904.101C821.527 903.278 820.037 897.455 821.338 898.267C828.26 902.586 826.556 914.114 833.288 918.774" stroke="black" stroke-width="2" stroke-linecap="round"/>
<path d="M835.362 899.672C835.332 899.645 837.859 905.661 838.428 906.717C841.404 912.237 850.774 926.754 858.742 920.604C864.945 915.817 865.752 905.428 872.701 901.741C878.942 898.429 884.108 909.125 885.773 913.343C887.814 918.517 888.876 925.327 881.615 926.319C870.963 927.775 873.875 917.533 877.872 911.884C886.944 899.062 893.749 887.091 906.772 878.3C910.316 875.907 914.81 874.035 918.044 871.215C918.407 870.898 916.351 870.375 916.255 870.346" stroke="black" stroke-width="2" stroke-linecap="round"/>
<path d="M810.846 875.466C807.524 874.153 820.395 867.586 820.878 867.392C827.464 864.751 834.15 863.226 835.858 871.262" stroke="black" stroke-width="2" stroke-linecap="round"/>
<path d="M755.259 956.526C755.357 955.841 755.852 955.956 756.429 955.966" stroke="black" stroke-width="2" stroke-linecap="round"/>
<path d="M697.662 893.719C697.494 894.489 696.956 894.855 696.472 895.439" stroke="black" stroke-width="2" stroke-linecap="round"/>
<path d="M697.159 955.766C696.681 956.359 696.953 956.335 697.139 956.926" stroke="black" stroke-width="2" stroke-linecap="round"/>
<path d="M999.908 930.962C999.395 927.882 1002.05 924.505 1003.26 921.813C1003.62 921.007 1005.36 915.404 1005.8 916.433C1009.49 924.91 1023.31 926.161 1031.09 926.516C1039.88 926.918 1049.43 926.194 1058.09 924.519C1062.47 923.671 1067.72 922.103 1070.23 918.044C1074.65 910.922 1071.76 899.399 1070.78 891.789C1070.15 886.867 1069.59 881.955 1069.27 877.002C1069.06 873.848 1068.35 869.712 1069.24 866.564C1069.77 864.64 1070.53 867.14 1070.65 867.756" stroke="black" stroke-width="2" stroke-linecap="round"/>
<path d="M1003.97 896.17C1004.5 896.237 1004.35 896.358 1004.55 896.749" stroke="black" stroke-width="2" stroke-linecap="round"/>
<path d="M1003.97 956.477C1005.41 952.16 1010.82 948.117 1013.83 944.879" stroke="black" stroke-width="2" stroke-linecap="round"/>
<path d="M1104.88 930.368C1107.65 921.728 1111.42 913.693 1113.32 904.746C1113.48 903.972 1113.94 900.643 1113.98 903.479C1114.03 908.333 1114.73 913.603 1118.93 916.707C1123.99 920.445 1131.3 919.055 1136.97 917.885C1142.46 916.755 1148.5 915.153 1153.41 912.335C1153.78 912.127 1155.39 910.646 1155.1 911.91C1154.47 914.734 1154.7 917.746 1155.12 920.582C1157.16 934.042 1161.63 946.964 1164.51 960.236C1165.28 963.812 1167.64 972.919 1163.07 975.562C1159.56 977.591 1159.74 968.87 1159.79 967.937C1160.43 954.915 1165.23 942.631 1171.32 931.27C1174.75 924.881 1178.83 918.696 1180.49 911.54C1181.28 908.11 1180.81 903.382 1181.96 910.012C1183.07 916.426 1183.74 922.885 1185.45 929.184C1186.26 932.168 1186.83 934.972 1189.37 936.8" stroke="black" stroke-width="2" stroke-linecap="round"/>
<path d="M1189.28 906.045C1188.51 905.218 1188.28 905.133 1188.49 906.597C1189.17 911.324 1190.48 916.063 1191.81 920.638C1192.22 922.057 1197.5 940.618 1201.73 935.426C1207.7 928.099 1208.62 917.658 1216.93 912.038C1218.02 911.297 1224.05 907.823 1224.5 911.078C1225.25 916.455 1218.36 922.774 1215.49 926.526C1211.23 932.086 1213.41 933.601 1218.63 937.176C1226.86 942.817 1233.96 949.848 1234.09 960.539C1234.11 962.053 1232.45 972.65 1228.36 970.589C1226.51 969.661 1226.62 965.731 1226.64 964.34C1226.71 958.407 1227.87 952.343 1229.45 946.645C1231.97 937.538 1236.48 929.921 1241.94 922.324C1243.4 920.281 1248.02 915.61 1247.85 912.731C1247.81 912.059 1246.94 911.314 1246.59 910.754C1246.3 910.278 1246.52 911.869 1246.5 912.427C1246.4 915.271 1246.29 918.114 1246.24 920.96C1246.11 928.342 1246.32 935.816 1247.3 943.142C1247.94 947.963 1248.96 954.64 1253.14 957.851C1263.79 966.037 1275.32 940.032 1277.03 933.672C1279.64 923.975 1275.61 914.118 1266.25 909.99C1265.7 909.747 1267.44 909.214 1267.7 909.105C1273.14 906.865 1279.57 906.164 1285.39 906.564C1289.18 906.824 1298.59 907.366 1300.32 911.856C1301.77 915.608 1297.15 920.291 1294.88 922.691C1293.45 924.21 1288.98 927.071 1292.24 929.045C1298.68 932.933 1306.76 932.911 1313.2 937.191C1325.87 945.611 1318.93 961.335 1305.74 964.523C1301.47 965.553 1295.83 964.18 1297.56 958.629C1298.84 954.532 1302.21 951.414 1305.57 948.98" stroke="black" stroke-width="2" stroke-linecap="round"/>
<path d="M1117.14 878.575L1117.71 878.596" stroke="black" stroke-width="2" stroke-linecap="round"/>
<path d="M1188.61 892.096C1188.1 888.613 1183.45 886.324 1180.52 885.56C1171.86 883.292 1164.73 886.036 1159.57 892.822" stroke="black" stroke-width="2" stroke-linecap="round"/>
<path d="M1200.34 855.371C1199.8 854.195 1192.46 864.13 1191.88 864.939" stroke="black" stroke-width="2" stroke-linecap="round"/>
<path d="M1192.24 954.307C1191.81 953.472 1191.16 952.076 1192.61 953.772C1196.99 958.871 1193.14 964.767 1190.56 969.334" stroke="black" stroke-width="2" stroke-linecap="round"/>
<path d="M1286.19 889.121C1286.27 886.945 1286.13 885.753 1284.04 884.404C1275.62 878.98 1266.47 884.538 1260.05 889.949" stroke="black" stroke-width="2" stroke-linecap="round"/>
<path d="M1268.76 856.6C1263.82 862.14 1259.1 867.888 1254.25 873.5" stroke="black" stroke-width="2" stroke-linecap="round"/>
<path d="M1372.19 933.395C1369.97 930.551 1373.95 919.745 1375.6 916.997C1376.54 915.425 1378.14 919.616 1378.5 920.122C1381.55 924.384 1386.17 926.641 1391.19 927.789C1402.01 930.265 1414.08 928.33 1425.02 928.208C1443.74 928 1462.48 928.04 1481.2 928.305C1507.21 928.673 1533.97 924.61 1544.6 897.572C1549.63 884.786 1545.23 872.589 1542.54 860.041C1542.21 858.525 1542.67 853.712 1542.67 857.432" stroke="black" stroke-width="2" stroke-linecap="round"/>
<path d="M1419.16 906.141C1417.69 906.141 1417.53 906.648 1419.03 907.72C1425.13 912.101 1434.09 913.02 1441.32 913.518C1450.59 914.157 1484.29 911.443 1472.95 894.286C1460.09 874.82 1427.98 875.612 1408.23 880.659C1403.75 881.806 1399.21 883.35 1395.06 885.427C1391.69 887.111 1401.71 881.892 1405.08 880.208C1415.93 874.781 1427.56 870.493 1439 866.516C1447.53 863.553 1456.17 861.037 1465 859.139C1470.09 858.044 1476.03 856.542 1481.33 857.045C1487.5 857.632 1488.38 863.378 1489 868.449C1491.57 889.524 1493.47 910.729 1495.25 931.881C1496.44 946.129 1496.09 942.684 1497.02 954.625C1497.11 955.829 1497.04 960.997 1497.89 962.775C1498.3 963.638 1498.66 961.021 1499.02 960.133C1500.06 957.538 1501.25 954.985 1502.46 952.466C1503.59 950.136 1509.46 935.225 1512.16 941.98" stroke="black" stroke-width="2" stroke-linecap="round"/>
<path d="M1398.86 866.71C1398.32 866.633 1398.66 866.336 1398.99 866.13C1403.62 863.207 1408.84 860.915 1413.78 858.592C1420.71 855.328 1442.08 846.89 1434.81 849.314" stroke="black" stroke-width="2" stroke-linecap="round"/>
<path d="M1454.53 841.775H1455.69" stroke="black" stroke-width="2" stroke-linecap="round"/>
<path d="M1431.91 954.85C1430.61 952.064 1426.46 956.157 1425.92 957.685C1424.47 961.812 1426.37 968.504 1431.72 967.994C1436.56 967.532 1442.91 962.213 1441.19 956.783C1439.68 951.995 1433.85 954.336 1430.75 955.43" stroke="black" stroke-width="2" stroke-linecap="round"/>
<path d="M1459.75 964.708C1460.6 964.308 1460.33 964.292 1460.33 964.708" stroke="black" stroke-width="2" stroke-linecap="round"/>
<path d="M1374.51 900.921C1375.04 900.855 1374.89 900.733 1375.08 900.342" stroke="black" stroke-width="2" stroke-linecap="round"/>
<path d="M1581.52 883.406H1580.94" stroke="black" stroke-width="2" stroke-linecap="round"/>
<path d="M1573.98 928.523C1570.63 928.668 1574.71 921.707 1575.27 920.598C1576.97 917.228 1578.29 914.105 1579.2 910.482C1579.37 909.81 1579.64 911.796 1579.88 912.448C1580.55 914.289 1581.41 916.129 1583 917.376C1590.35 923.126 1602.89 922.024 1611.48 921.307C1619.74 920.617 1627.91 918.743 1636.22 918.665C1637.36 918.654 1639.51 919.567 1639.51 919.567C1639.51 919.567 1649.63 936.26 1655 944.405C1659.68 951.493 1668.56 962.002 1667.02 971.24C1666.28 975.638 1661.35 980.911 1656.68 977.941C1649.34 973.282 1649.85 960.744 1651.84 953.683C1655.14 942.001 1662.42 931.725 1666.53 920.308C1668.6 914.572 1666.75 893.411 1666.75 884.732C1666.75 884.732 1666.76 883.664 1666.76 885.428C1666.76 896.21 1665.69 925.693 1679.65 928.354C1688.35 930.014 1698.53 926.815 1707.03 925.197C1708.27 924.96 1711.97 924.23 1710.7 924.23C1702.32 924.23 1698.13 935.101 1696.72 942.955C1694.72 954.118 1702.04 979.914 1716.37 978.432C1722.75 977.772 1726.33 966.626 1728.55 961.318C1732.73 951.301 1734.04 945.214 1738.47 935.264C1739.79 932.305 1753.55 910.252 1757.22 920.638C1759.2 926.252 1759.36 932.564 1760.44 938.388C1761.1 941.955 1764.24 951.414 1759.99 954.013C1758.15 955.138 1756.33 953.559 1755.61 951.822C1753.49 946.728 1754.74 940.819 1756.99 936.037C1759.98 929.713 1767.24 921.588 1775.07 921.733C1780.15 921.827 1782.62 931.149 1784.12 934.78C1785.95 939.203 1787.5 944.535 1790.85 947.892" stroke="black" stroke-width="2" stroke-linecap="round"/>
<path d="M1789.11 920.638C1793.23 922.322 1795.34 929.646 1796.84 933.331C1798.23 936.717 1799.51 940.051 1801.29 943.253" stroke="black" stroke-width="2" stroke-linecap="round"/>
<path d="M1579.78 948.818C1580.81 948.818 1582.21 948.465 1582.68 949.398" stroke="black" stroke-width="2" stroke-linecap="round"/>
<path d="M1642.99 856.619C1642.18 854.057 1651.33 857.863 1651.88 858.036C1666.06 862.516 1680.41 864.132 1695.3 863.641C1707.66 863.234 1721.82 861.691 1733.12 856.168C1737.08 854.236 1735.39 853.958 1732.29 853.719" stroke="black" stroke-width="2" stroke-linecap="round"/>
<path d="M1708.51 954.037H1709.09" stroke="black" stroke-width="2" stroke-linecap="round"/>
<path d="M1717.79 952.877H1718.95" stroke="black" stroke-width="2" stroke-linecap="round"/>
<path d="M1797.81 875.175C1793.25 881.04 1788.56 886.794 1783.89 892.571" stroke="black" stroke-width="2" stroke-linecap="round"/>
<path d="M203.315 734.777C204.39 727.438 208.988 719.761 214.293 715.425C219.865 710.87 221.359 733.32 217.295 735.952C208.331 741.757 193.47 736.418 185.491 731.251C176.335 725.322 169.964 715.304 169.121 703.344C168.139 689.416 178.722 682.848 189.334 681.825C204.041 680.408 293.071 681.552 310.352 681.691C359.378 682.085 385.593 681.204 385.593 681.204C394.4 680.411 400.975 676.463 400.975 671.415C400.975 661.494 387.82 664.904 386.602 674.405" stroke="black" stroke-width="2" stroke-linecap="round"/>
<path d="M351.972 702.551C351.647 701.252 341.021 703.294 340.077 703.325C324.26 703.85 308.263 702.461 292.446 702.019C284.622 701.801 277.052 702.269 269.284 702.551C268.608 702.576 265.772 703.482 266.238 702.551" stroke="black" stroke-width="2" stroke-linecap="round"/>
<path d="M266.238 703.422C267.703 703.317 269.214 702.845 270.686 703.083C274.111 703.637 277.678 707.02 280.043 709.297C288.509 717.449 294.227 729.079 298.781 739.737C303.36 750.453 307.171 761.759 309.661 773.15C310.01 774.747 314.091 789.452 310.338 789.639C305.762 789.868 302.1 783.828 300.981 780.259C298.179 771.323 301.277 760.578 303.955 751.971C306.735 743.036 310.537 734.18 317.543 727.744C319.232 726.193 323.217 722.332 325.981 723.151C328.63 723.936 327.595 734.822 327.601 736.69C327.643 750.547 328.134 764.534 327.359 778.373C327.137 782.333 326.866 779.696 326.827 778.373C326.66 772.699 327.314 766.98 327.939 761.352C329.058 751.286 330.632 740.549 337.054 732.338C337.948 731.196 347.376 720.87 348.539 726.294C349.335 730.011 348.536 734.412 348.273 738.117C347.866 743.842 347.38 749.56 348.515 755.235C348.964 757.482 349.793 760.856 348.926 756.951" stroke="black" stroke-width="2" stroke-linecap="round"/>
<path d="M358.377 729.968C358.377 729.815 358.427 729.123 358.183 729.678C356.863 732.686 356.612 736.368 356.539 739.591C356.468 742.79 357.081 752.599 361.858 752.599" stroke="black" stroke-width="2" stroke-linecap="round"/>
<path d="M272.331 747.377C272.178 745.853 270.585 745.327 269.284 746.023C265.93 747.818 263.844 753.175 266.866 756.129C270.921 760.092 278.196 754.699 276.586 749.601C275.361 745.721 270.251 745.008 267.543 747.377" stroke="black" stroke-width="2" stroke-linecap="round"/>
<path d="M284.081 752.164C282.219 751.117 284.524 751.294 285.387 751.294" stroke="black" stroke-width="2" stroke-linecap="round"/>
<path d="M331.953 798.73C329.577 797.033 335.642 803.674 338.384 804.678C344.322 806.852 348.866 803.466 352.407 799.165" stroke="black" stroke-width="2" stroke-linecap="round"/>
<path d="M472.532 733.45C472.111 734.293 485.777 730.748 483.944 728.228C482.624 726.413 474.492 728.361 474.176 728.421C467.263 729.732 458.426 731.123 452.392 735.094C449.384 737.074 454.041 738.173 455.173 738.479C459.701 739.705 464.438 740.174 469.002 741.284C480.277 744.025 492.161 749.657 498.717 759.732C505.922 770.803 480.059 770.829 475.434 770.829C465.736 770.829 455.998 770.288 446.469 768.411C437.357 766.617 427.106 764.276 420.018 757.821C407.523 746.443 427.235 730.833 436.604 726.149C446.875 721.013 458.309 718.564 469.123 714.858C481.209 710.715 493.272 705.929 504.834 700.472C506.377 699.744 512.557 697.341 511.483 694.548C510.98 693.241 511.919 696.843 511.942 696.99C513.762 708.595 510.015 720.588 508.944 732.072C507.884 743.446 509.813 758.93 520.839 765.268C528.526 769.687 537.838 760.752 541.415 754.678C548.703 742.3 539.766 728.599 529.253 721.797C528.19 721.109 524.705 720.21 525.941 719.935C526.91 719.72 527.836 719.347 528.794 719.089C533.078 717.935 537.697 717.485 542.116 717.42C548.415 717.329 556.043 717.403 561.893 720.153C565.805 721.991 563.589 724.001 560.878 725.617C559.528 726.421 557.597 727.151 556.598 728.446C555.222 730.23 558.641 732.033 559.693 732.652C565.677 736.18 572.044 738.597 577.077 743.581C580.991 747.457 585.792 754.236 579.736 758.498C576.345 760.886 566.139 763.61 564.263 757.894C563.069 754.259 566.48 750.291 568.711 747.812" stroke="black" stroke-width="2" stroke-linecap="round"/>
<path d="M444.679 785.675C447.42 786.954 450.059 791.028 450.337 793.968C450.807 798.936 447.127 801.206 443.374 803.083" stroke="black" stroke-width="2" stroke-linecap="round"/>
<path d="M461.652 794.378C460.471 794.231 463.028 794.378 463.393 794.378" stroke="black" stroke-width="2" stroke-linecap="round"/>
<path d="M608.468 727.122C608.259 726.956 606.891 726.232 607.459 725.802C608.722 724.843 612.922 724.724 613.45 724.687C618.487 724.335 623.528 724.339 628.574 724.42C635.852 724.537 657.459 726.573 650.409 724.758" stroke="black" stroke-width="2" stroke-linecap="round"/>
<path d="M686.009 718.628C684.9 718.458 686.577 717.953 686.774 717.914C689.807 717.316 692.37 718.706 694.676 720.565C701.585 726.138 708.037 734.301 710.122 743.098C710.609 745.149 710.648 743.972 711.091 742.282C712.5 736.91 713.423 731.394 715.195 726.122C716.387 722.575 719.577 712.333 725.161 714.932C729.065 716.75 732.834 720.136 735.561 723.369C738.317 726.637 740.475 729.659 741.398 733.947C741.448 734.18 742.026 746.963 737.243 743.659C732.986 740.718 736.598 730.532 738.059 727.091C739.714 723.191 742.202 718.864 745.833 716.487C751.68 712.66 753.881 720.973 754.831 725.306C758.406 741.62 758.165 758.501 759.521 775.062C759.917 779.899 760.575 784.677 761.509 789.438C761.598 789.891 762.534 792.451 761.025 791.987C757.027 790.757 759.609 778.809 759.878 776.489C762.103 757.292 763.741 729.376 782.691 718.322C784.021 717.546 783.969 721.408 784.016 721.763C784.882 728.289 786.115 734.734 787.967 741.059C789.041 744.725 790.445 748.261 791.689 751.866C792.357 753.804 791.845 751.802 791.765 751C790.893 742.278 796.876 721.335 802.904 715.408C817 695.5 838.67 691.273 835.5 695.5" stroke="black" stroke-width="2" stroke-linecap="round"/>
<path d="M745.655 697.523C743.399 693.011 758.931 689.003 760.999 688.653C768.19 687.434 771.048 691.687 773.642 697.523" stroke="black" stroke-width="2" stroke-linecap="round"/>
<path d="M706.656 763.592C708.083 761.308 705.27 762.307 704.056 763.107C701.028 765.105 694.665 771.965 698.881 775.521C702.611 778.665 711.055 775.539 713.283 771.748C714.844 769.093 712.861 766.576 710.275 765.784C707.232 764.851 704.88 766.016 702.068 766.803" stroke="black" stroke-width="2" stroke-linecap="round"/>
<path d="M761 729C761.093 729.747 762.27 729.459 762.835 729.459" stroke="black" stroke-width="2" stroke-linecap="round"/>
<path d="M705.279 786.073C704.518 785.65 704.82 794.892 704.82 796.167" stroke="black" stroke-width="2" stroke-linecap="round"/>
<path d="M854.852 746.616C854.523 746.616 853.936 746.743 854.291 746.259C856.429 743.344 858.439 740.399 860.077 737.159C862.124 733.111 863.518 728.678 863.518 724.109C863.518 723.321 862.702 720.66 862.702 722.885C862.702 727.208 863.632 732.076 864.563 736.267C865.495 740.462 867.491 743.433 871.675 744.73C878.249 746.767 885.364 746.038 892.092 745.418C902.547 744.453 912.895 743.889 923.393 743.633C949.231 743.003 974.904 746.465 1000.65 742.945C1004.15 742.467 1007.63 741.595 1010.85 740.09C1015.93 737.711 1017.41 733.602 1018.09 728.263C1019.75 715.212 1019.11 675.649 1019.11 688.806" stroke="black" stroke-width="2" stroke-linecap="round"/>
<path d="M901.192 714.04C901.894 713.425 901.904 719.857 901.956 720.387C902.352 724.384 902.878 728.92 904.862 732.393" stroke="black" stroke-width="2" stroke-linecap="round"/>
<path d="M914.038 715.417C914.038 718.536 913.472 722.448 915.262 725.205C919.12 731.145 930.678 729.099 936.291 728.952C948.158 728.639 960.054 729.181 971.848 729.181" stroke="black" stroke-width="2" stroke-linecap="round"/>
<path d="M864.946 777.356C864.489 777.878 865.158 777.781 865.404 778.274" stroke="black" stroke-width="2" stroke-linecap="round"/>
<path d="M1061.73 742.28C1059.16 742.138 1060.82 740.609 1062.04 739.472C1066.25 735.535 1071.69 730.919 1073.35 725.197C1074.28 721.956 1073.51 723.536 1073.88 726.397C1074.81 733.542 1078.11 740.893 1085.58 743.149C1094.02 745.699 1102.56 735.399 1106.26 729.232C1111.16 721.073 1112.92 711.425 1117.27 702.981C1117.75 702.049 1120.44 699.536 1119.16 700.708C1116.92 702.758 1116.76 706.904 1116.45 709.646C1115.37 719.266 1116.72 729.13 1118.93 738.501C1121.6 749.811 1126.63 761.486 1127.15 773.179C1127.25 775.364 1124.29 782.613 1120.97 779.154C1119.27 777.378 1119.35 773.654 1119.49 771.442C1119.87 765.582 1121.94 759.873 1124.14 754.486C1127.71 745.742 1132.64 737.624 1136.6 729.053C1137.52 727.055 1139.79 719.389 1142.42 718.43C1144.97 717.504 1149.11 721.228 1150.36 722.924C1154.82 728.96 1151.35 735.026 1145.92 738.731C1142.79 740.868 1141.13 741.639 1144.57 744.374C1150.44 749.042 1156.86 753.277 1159.63 760.615C1161.54 765.667 1163.31 773.303 1160.02 778.158C1156.22 783.756 1152.17 778.315 1151.72 773.766C1149.63 752.881 1167.58 736.73 1174.6 718.43C1174.66 718.267 1175.75 714.931 1174.7 715.979C1173.83 716.846 1175.82 719.315 1176.18 720.167C1179.23 727.396 1180.89 735.115 1182.92 742.663C1184.5 748.543 1186.43 754.354 1187.72 760.309C1188.37 763.293 1189.98 775.656 1187.72 778.158C1184.54 781.673 1176.29 772.329 1176.03 766.641C1175.83 762.428 1178.19 757.818 1180.01 754.18C1182.65 748.91 1186 744.072 1189 739.012C1192.97 732.31 1196.95 724.697 1197.68 716.796C1197.74 716.192 1197.58 710.038 1197.89 713.017C1198.74 721.315 1200.97 729.329 1202.89 737.429C1203.11 738.351 1205.18 746.67 1204.68 746.417" stroke="black" stroke-width="2" stroke-linecap="round"/>
<path d="M1212.49 711.944C1209.35 712.313 1210.17 720.904 1210.22 722.899C1210.32 727.067 1210.61 731.557 1212.7 735.283C1216.19 741.516 1222.82 742.423 1229.04 744.119" stroke="black" stroke-width="2" stroke-linecap="round"/>
<path d="M1064.03 761.585C1059.3 757.116 1054.87 769.772 1059.53 771.697C1062.59 772.959 1068.24 769.557 1068.57 766.284C1069.08 761.318 1061.7 763.082 1059.43 763.883" stroke="black" stroke-width="2" stroke-linecap="round"/>
<path d="M1077.36 765.722C1077.57 764.971 1078.14 765.973 1078.28 766.182" stroke="black" stroke-width="2" stroke-linecap="round"/>
<path d="M1208.64 694.986C1207.9 691.153 1206.05 689.948 1201.93 689.345C1194.23 688.22 1186.77 690.005 1180.43 694.382" stroke="black" stroke-width="2" stroke-linecap="round"/>
<path d="M1214.62 660.924C1208.86 665.221 1202.43 668.699 1195.21 671.955" stroke="black" stroke-width="2" stroke-linecap="round"/>
<path d="M1291.86 749.494C1291.96 749.897 1292.27 748.77 1292.46 748.398C1294.2 744.908 1296.27 741.584 1298.1 738.139C1300.32 733.951 1305.01 727.339 1305.01 722.268C1305.01 719.235 1304.39 728.352 1304.74 731.366C1306.18 743.89 1319.87 752.789 1329.34 741.592C1333.15 737.087 1335.21 731.196 1336.28 725.456C1336.48 724.411 1336.66 719.274 1336.68 719.878C1336.89 727.098 1336.31 736.022 1342.46 740.994C1348.28 745.698 1356.71 746.105 1363.84 746.373C1378.16 746.91 1392.54 746.797 1406.87 747.103C1425.24 747.496 1446.46 748.278 1463.97 741.426C1466.49 740.44 1472.82 735.471 1468.76 732.76" stroke="black" stroke-width="2" stroke-linecap="round"/>
<path d="M1305.01 699.293H1307.99" stroke="black" stroke-width="2" stroke-linecap="round"/>
<path d="M1416.76 689.133C1414.94 689.741 1413.34 691.145 1411.72 692.121C1407.4 694.717 1402.8 696.599 1398.24 698.695" stroke="black" stroke-width="2" stroke-linecap="round"/>
<path d="M1519.55 750.137C1521.7 745.243 1524.77 741.211 1528.12 737.089C1528.4 736.741 1531.47 732.084 1531.51 733.669C1531.64 738.774 1532.03 742.061 1536.82 744.958C1545.41 750.155 1548.87 748.091 1566.14 748.046C1586.38 748.091 1606.51 747.987 1626.8 747.903C1647.44 747.817 1667.75 748.091 1688.72 748.091C1723.05 748.091 1754.88 748.343 1787.89 746.022C1791.62 745.76 1795.34 745.291 1799.08 745.291C1801.87 745.291 1798.56 744.809 1797.22 745.092C1781.1 748.502 1761.22 759.652 1762.19 778.161" stroke="black" stroke-width="2" stroke-linecap="round"/>
<path d="M1535.09 708.901H1534.5" stroke="black" stroke-width="2" stroke-linecap="round"/>
<path d="M1574.07 684.54H1573.47" stroke="black" stroke-width="2" stroke-linecap="round"/>
<path d="M1561.39 734.001C1560.06 734.829 1562.78 729.542 1562.85 729.42C1566.24 723.524 1568.71 717.321 1569.99 710.627C1570.89 705.893 1570.57 710.392 1571.22 713.018C1573.1 720.708 1578.07 729.422 1586.39 731.445C1605.87 736.183 1617.7 711.342 1619.49 696.019C1619.52 695.766 1620.06 691.112 1619.06 693.562C1616.98 698.658 1618.61 705.679 1619.62 710.76C1622.27 724.005 1627.26 736.566 1631.51 749.341C1635.35 760.879 1639.83 774.673 1636.22 786.858C1635.1 790.648 1629.89 798.925 1626.33 792.104C1621.14 782.148 1628.34 767.61 1633.2 759.035C1638.52 749.672 1646.27 742.025 1651.63 732.707C1654.06 728.489 1657.61 721.631 1656.88 716.471C1656.59 714.457 1655.87 715.564 1655.78 716.836C1655.39 722.359 1654.65 727.781 1654.49 733.337C1654.15 745.007 1654.82 756.78 1656.54 768.332C1657.42 774.18 1658.23 785.68 1663.78 789.382C1670.62 793.942 1678.69 786.204 1682.71 781.28C1689.54 772.892 1694.99 761.488 1694.99 750.503C1694.99 742.853 1692.05 734.335 1686.53 728.888C1682.85 725.27 1678.93 724.965 1674.61 723.111C1674.15 722.917 1678.97 721.953 1679.22 721.883C1688.25 719.341 1696.74 716.385 1706.28 716.803C1713.08 717.101 1721.37 718.65 1726.07 724.107C1729.63 728.244 1728.62 733.98 1722.72 734.964C1718.1 735.734 1712.03 732.207 1715.18 726.963C1718.81 720.91 1728.45 718.514 1734.67 716.737C1740.45 715.086 1747.41 713.245 1753.43 714.811C1759.07 716.28 1763.23 722.25 1765.51 727.295C1766.69 729.899 1766.56 736.321 1762.59 732.009C1759.69 728.863 1760.86 726.369 1763.39 723.842" stroke="black" stroke-width="2" stroke-linecap="round"/>
<path d="M1677.93 679.617C1680.18 676.032 1680.12 673.289 1675.54 671.715C1669.57 669.669 1662.83 669.56 1656.68 670.719C1649.34 672.101 1645.05 675.735 1639.08 679.617" stroke="black" stroke-width="2" stroke-linecap="round"/>
<path d="M1570.35 766.273C1567.82 763.743 1575.67 768.519 1576.46 769.361C1580.13 773.287 1578.37 778.12 1573.94 780.019" stroke="black" stroke-width="2" stroke-linecap="round"/>
<path d="M1297.29 328.413C1286.68 334.964 1278.5 343.293 1274.41 357.28C1273.42 360.85 1271.87 363.824 1270.86 363.789C1270 363.758 1267.55 359.636 1265.27 354.798C1263.13 349.965 1260.41 345.257 1259.57 344.363C1258.6 343.463 1257.79 341.849 1257.82 340.841C1255.29 336.494 1251.74 330.438 1247.2 328.405C1242.65 326.516 1237.83 328.366 1237.41 332.1C1236.52 341.152 1235.94 348.151 1239.97 348.292C1243.14 348.402 1246.33 351.974 1259.69 369.887C1265.06 377.139 1270.18 387.202 1270.75 387.51C1271.46 387.824 1272.4 385.55 1273.08 382.546C1273.62 379.537 1274.81 370.415 1275.66 366.84C1276.5 363.265 1277.69 358.26 1278.22 355.539C1280.23 347.391 1285.46 339.589 1291.28 334.025C1294.41 331.106 1297.37 330.291 1297.95 330.311C1300.4 330.396 1313.09 335.418 1313.74 337.315C1314.14 338.482 1313.49 340.478 1312.14 341.873C1307.2 347.179 1304.96 353.445 1304.63 362.949C1304.31 372.166 1304.43 375.044 1309.72 380.563C1313.88 385.178 1316.15 386.411 1320.18 386.552C1327.52 386.808 1334.56 383.449 1338.81 377.398C1341.99 373.183 1342.64 368.602 1342.65 360.24C1342.7 350.293 1341.38 346.931 1333.78 337.438C1331.29 334.467 1331.31 333.891 1333.4 331.946C1336.97 328.61 1345.46 329.195 1349.36 333.08C1355.77 339.503 1362.24 356.598 1364.83 373.27C1366.11 381.821 1367.1 390.004 1367.07 390.868C1367.03 391.877 1362.79 393.614 1353.73 392.866C1346.4 392.177 1338.28 394.508 1333.85 393.987C1330.94 394.606 1336.87 392.664 1346.8 393.299C1355.14 393.735 1363.76 393.5 1365.35 393.555C1368.65 393.959 1367.92 391.977 1369.44 422.741C1370.13 436.173 1371 448.315 1371.53 449.631C1372.18 451.672 1379.21 456.964 1381.22 457.034C1381.65 457.049 1381.71 455.321 1381.51 453.007C1381.29 450.837 1380.95 440.012 1380.91 428.908C1381.01 417.81 1380.58 405.251 1380.3 400.916L1379.52 393.049L1405.32 393.25C1440.46 392.565 1473.59 393.123 1518.76 392.104C1529.89 391.339 1529.12 391.09 1513.4 391.118C1503.88 391.218 1487.98 391.911 1478.05 391.486C1451.77 392.587 1438.69 391.705 1407.1 391.87L1380.19 390.432L1378.86 384.285C1374.98 363.243 1377.4 351.649 1387.87 341.057C1393.25 335.622 1394.71 334.952 1400.18 335.143C1409.11 335.455 1411.87 339.012 1417.26 358.087C1421.24 372.212 1426.39 385.656 1428.22 386.874C1431.33 388.856 1432.14 386.289 1432.56 374.049C1432.96 362.817 1433.46 360.816 1436.43 354.466C1437.87 350.515 1441.59 343.793 1441.59 343.793C1447.37 337.058 1457.5 313.5 1497.41 309.643C1502.16 309.809 1503 311.318 1507.31 312.395C1507.26 313.979 1508.69 312.318 1508.69 312.318L1508.62 311.467C1492 301 1463 317 1453.26 326.984C1445.44 334.996 1439.85 343.375 1436.24 351.253C1432.85 357.299 1430.83 357.552 1429.55 353.038C1428.02 347.361 1420.87 337.307 1416.63 334.996C1401.07 326.235 1385.51 334.198 1376.99 355.239L1375.26 359.504L1370.86 349.258C1366.19 338.425 1360.93 332.042 1354.39 329.363C1349.28 327.166 1338.48 326.788 1331.35 328.558C1326.85 329.554 1324.55 330.861 1318.01 328.182C1308.63 324.25 1302.16 325.267 1297.29 328.413ZM1323.35 347.166C1330.36 356.927 1334.8 368.463 1334.63 373.359C1334.55 375.519 1332.86 378.488 1330.63 380.428C1324.98 385.278 1316.92 384.852 1311.2 379.318C1307.58 375.875 1306.92 371.68 1306.47 364.023C1306.03 355.933 1306.36 354.647 1311.09 347.315C1313.98 343.09 1316.55 339.432 1316.99 339.447C1317.42 339.462 1320.32 343.024 1323.35 347.166Z" fill="black"/>
<path d="M1090.26 337.22C1089.34 338.774 1088.4 340.76 1088.37 341.768C1088.13 344.355 1062.57 382.679 1057.49 387.837C1055.24 390.209 1054.02 392.185 1054.74 392.21C1056.61 392.276 1067.02 379.086 1076.17 364.843C1080.6 357.789 1084.55 351.871 1084.71 351.588C1085.77 350.184 1086.67 353.099 1088.32 363.682C1098.3 384.24 1104 392.237 1137.3 396.716C1151.5 398.654 1156.4 398.825 1168.99 397.39C1196.21 394.159 1223.9 394.594 1283.43 394.288C1298.57 394.384 1322.77 394.328 1337.48 393.977C1352.2 393.77 1365.47 393.513 1366.91 393.563C1368.5 393.618 1369.37 393.36 1368.95 392.913C1368.54 392.466 1354.99 392.699 1338.84 392.856C1322.68 393.157 1289.94 393.839 1266.16 393.442C1242.39 393.044 1211.33 394.155 1197.24 393.663C1163.16 395.212 1151.25 393.454 1138.98 389.71C1126.42 385.955 1117.67 380.603 1111.32 372.452C1104.69 364.29 1099.84 356.01 1098.3 346.296C1097.26 338.906 1095.25 334.511 1093.09 334.435C1092.66 334.42 1091.32 335.671 1090.26 337.22Z" fill="black"/>
<path d="M1324.37 276.691C1313.3 279.909 1304.49 284.504 1297.06 290.733C1293.05 294.053 1290.06 297.264 1290.47 297.712C1290.89 298.159 1292.06 297.623 1293.11 296.506C1295.82 293.284 1307.2 285.319 1313.21 282.357C1332.58 272.797 1357.71 275.693 1371.23 289.141C1374.57 292.43 1375.29 292.599 1376.5 290.911C1378.47 288.241 1372.74 282.994 1363.92 279.514C1355.25 276.04 1331.95 274.361 1324.37 276.691Z" fill="black"/>
<path d="M1571.51 390.469C1558.95 390.896 1558.81 390.891 1566.55 392.027C1571 392.614 1579.08 392.464 1584.59 391.647C1595.17 390.142 1592.58 389.908 1571.51 390.469Z" fill="black"/>
<path d="M1560.59 395.414C1546.45 399.822 1546.59 399.827 1530.04 407.179C1512.32 415.067 1499.92 423.285 1485.63 436.339C1475.05 446.062 1472.34 449.283 1469.19 457.103C1464.79 467.475 1462.85 481.537 1464.95 487.666C1465.86 490.293 1468.52 492.837 1472.34 494.7C1480.28 498.726 1484.31 498.723 1477.53 494.737C1467.49 489.052 1464.23 479.422 1468.25 467.307C1473.75 450.342 1476.94 445.695 1491.64 433.521C1499.36 427.158 1509.27 419.863 1513.69 417.133C1528.71 408.286 1559.12 396.227 1574.36 393.155C1578.57 392.437 1579.16 392.025 1576.57 391.791C1574.56 391.72 1567.44 393.346 1560.59 395.414Z" fill="black"/>
<path d="M1278.5 436.574C1278.5 439.771 1277.5 441.749 1276.23 442.936C1274.94 444.147 1273.18 444.697 1271.41 444.697C1269.94 444.697 1267.88 443.602 1266.08 441.79C1265.22 440.919 1264.49 439.951 1263.98 439.01C1263.46 438.053 1263.23 437.213 1263.23 436.574C1263.23 435.359 1264.12 433.99 1265.86 432.829C1267.55 431.696 1269.68 431.016 1271.41 431.016C1273.12 431.016 1274.95 431.679 1276.33 432.764C1277.72 433.853 1278.5 435.222 1278.5 436.574Z" stroke="black" stroke-width="3"/>
<path d="M1147.52 395.464L1572.58 391.702" stroke="black" stroke-width="2"/>
<path d="M586.511 291.766C577.059 293.639 557.404 301.705 557.404 303.002C557.404 303.29 569.646 298.106 574.464 296.521C594.294 289.893 613.198 290.037 622.835 296.953C629.136 301.42 634.325 303.005 634.325 300.411C634.325 297.674 628.21 293.783 620.055 291.478C610.974 289.028 598.928 289.028 586.511 291.766Z" fill="black"/>
<path d="M952.982 304.507C951.685 306.957 951.973 308.11 954.279 310.559C955.864 312.288 958.169 315.891 959.466 318.484C960.763 321.078 962.492 322.807 963.212 322.375C965.23 321.078 964.941 305.228 962.924 303.21C960.186 300.473 954.855 301.193 952.982 304.507Z" fill="black"/>
<path d="M526.035 253.293C522.001 257.472 522.001 257.616 523.586 266.694C526.9 284.849 527.764 293.495 527.909 313.236C528.053 324.331 529.205 339.172 530.502 346.377C533.24 361.939 533.24 360.642 530.934 368.711C528.341 378.51 524.018 386.002 520.127 387.731C517.246 389.028 515.372 388.596 508.888 385.426C496.352 379.374 486.122 368.567 479.205 353.87C475.747 346.809 472.289 341.478 471.424 341.766C470.56 342.054 469.407 344.071 468.83 346.233C468.11 348.538 466.093 352.717 464.22 355.599C462.346 358.481 457.735 365.685 453.989 371.593C450.387 377.501 445.632 384.561 443.614 387.011C441.453 389.605 440.444 391.766 441.309 391.766C443.038 391.766 450.675 381.536 461.194 365.541C467.966 354.878 470.416 353.149 470.416 358.481C470.416 362.659 480.07 380.815 484.248 384.85C493.47 393.207 508.888 395.657 519.263 390.325C524.883 387.587 530.214 380.383 531.799 373.322C533.384 366.694 533.816 366.982 539.004 377.069C543.182 385.138 545.056 387.299 549.667 389.317C560.185 393.783 570.272 391.91 575.171 384.706C580.07 377.501 582.664 371.881 583.528 366.694C584.105 363.812 584.969 361.507 585.546 361.507C586.122 361.507 588.427 363.956 590.589 366.838C592.75 369.864 597.073 375.916 600.243 380.239C605.286 386.867 614.94 394.36 619.119 394.648C619.696 394.648 619.119 391.91 617.822 388.596C613.355 377.357 597.938 353.87 587.995 343.207C583.961 338.74 583.528 338.596 581.079 340.901C577.909 343.783 577.765 346.953 580.935 353.437C582.952 357.76 583.096 359.633 581.511 366.262C579.494 375.484 572.721 386.723 568.543 388.164C565.229 389.172 558.888 386.291 554.422 381.391C550.963 377.645 544.767 358.481 541.165 340.037C539.292 330.959 538.571 319.432 538.427 296.665C537.995 249.547 536.122 242.774 526.035 253.293Z" fill="black"/>
<path d="M467.534 307.024C464.508 310.05 465.949 314.805 465.949 314.805C465.949 314.805 467.678 317.975 468.11 320.713C469.839 329.503 473.442 326.188 475.315 314.373C476.756 305.007 473.009 301.549 467.534 307.024Z" fill="black"/>
<path d="M467.656 256.322C464.706 262.348 466.111 264.984 466.111 264.984C466.111 264.984 469.298 278.13 469.72 283.582C471.405 301.087 471.16 294.487 472.986 270.957C477.795 253.513 472.992 245.418 467.656 256.322Z" fill="black"/>
<path d="M1091.69 423.01C1094.63 423.997 1094.75 427.126 1093.28 430.791C1092.6 432.486 1091.12 436.698 1091.12 436.698C1089.39 445.488 1085.78 442.174 1083.91 430.358C1082.47 420.992 1085.71 420.999 1091.69 423.01Z" fill="black"/>
<path d="M971.282 305.228C970.273 307.677 978.63 323.527 980.215 322.519C981.08 322.087 981.368 311.424 980.648 304.651C980.36 302.058 972.29 302.49 971.282 305.228Z" fill="black"/>
<path d="M609.321 341.91C608.024 347.53 614.94 360.642 628.485 377.789C634.681 385.57 639.004 388.884 644.479 389.749C646.641 390.181 650.964 391.19 654.134 391.91C657.304 392.775 662.203 393.639 664.941 394.072C667.678 394.36 670.993 395.08 672.145 395.513C674.883 396.521 756.151 396.233 775.028 395.224C783.097 394.792 812.397 394.706 833.481 393.798C865.004 392.441 872.713 390.512 873.145 389.936C873.722 389.36 855.61 393.067 779.062 392.775C682.952 393.639 683.529 393.639 663.356 385.858C650.675 380.959 644.047 375.484 633.24 360.786C616.67 338.308 611.338 334.129 609.321 341.91Z" fill="black"/>
<path d="M874.307 344.891C863.5 356.563 864.077 364.92 876.181 377.744C880.792 382.5 883.529 386.39 882.665 386.966C881.8 387.399 878.342 388.407 875.028 389.128C869.179 390.399 867.718 391.815 876.037 389.56C886.411 388.407 888.284 388.551 895.489 391.289C900.532 393.307 903.846 393.595 910.619 392.874C918.688 391.866 919.841 391.289 926.757 383.94C933.962 376.304 938.717 366.649 938.717 359.301C938.717 354.113 940.446 355.266 946.21 364.344C958.169 382.644 961.628 387.399 966.959 391.721C976.037 399.214 977.478 398.35 976.613 385.093C975.749 371.981 978.919 357.139 983.818 351.952C991.167 344.027 997.074 342.298 1006.44 345.035L1010.04 346.188L1006.87 343.018C1002.98 338.839 996.21 339.848 987.997 345.9C979.927 351.664 977.622 355.698 975.749 367.226C974.74 372.701 973.443 377.312 972.867 377.456C972.146 377.6 968.544 373.278 964.942 367.802C955.432 353.537 944.769 340.136 942.319 339.128C938.429 337.687 935.547 341.577 936.555 346.476C939.149 358.724 935.547 371.548 926.757 381.347C919.408 389.416 911.339 391.866 903.414 388.551C896.93 385.814 895.777 382.644 899.524 378.609C906.584 371.116 908.89 358.58 904.711 349.935C901.397 343.162 896.065 339.704 887.564 338.984C880.503 338.407 880.071 338.551 874.307 344.891ZM897.795 344.027C902.261 346.909 906.152 357.427 904.999 363.479C903.702 370.108 898.083 379.618 895.057 380.194C891.887 380.77 881.944 365.641 878.63 354.834L876.181 347.053L880.215 343.45C883.673 340.569 885.403 340.136 889.437 340.857C892.175 341.433 895.921 342.73 897.795 344.027Z" fill="black"/>
<path d="M473.153 423.755C469.695 427.933 463.499 435.138 459.32 439.605C451.539 447.818 450.531 449.979 453.124 451.564C453.989 451.997 455.286 450.7 456.15 448.394C456.871 446.233 460.761 441.046 464.508 437.155C473.153 428.077 481.078 417.847 480.07 416.838C479.782 416.406 476.611 419.576 473.153 423.755Z" fill="black"/>
<path d="M885.419 422.797C883.371 423.709 881.624 425.044 881.634 425.82C881.625 427.051 888.04 443.713 888.712 443.972C888.847 444.023 890.158 440.205 891.779 435.58C895.651 423.483 893.61 419.15 885.419 422.797Z" fill="black"/>
</svg>
