<svg width="1864" height="452" viewBox="0 0 1864 452" fill="none" xmlns="http://www.w3.org/2000/svg">
<g opacity="0.3">
<path d="M360.989 260.545C361.221 261.458 362.157 259.455 362.193 259.407C364.911 255.752 368.051 252.306 370.777 248.656C380 236.306 385.235 222.793 387.545 208.625C388.055 205.501 387.077 192.247 391.637 199.076C403.352 216.621 402.585 251.339 429.506 260.731C457.926 270.647 466.836 255.474 475.805 233.036C490.107 197.256 496.07 160.76 496.07 135.557C496.07 128.554 494.786 121.619 494.786 114.625C494.786 112.424 494.786 113.567 494.786 114.941C494.786 135.114 497.41 144.437 504.955 196.547C512.5 248.656 512.5 248.656 521.637 294C530.773 339.344 544.528 373.786 536.704 416.351C535.913 420.655 524.015 457.809 509.907 446.453C503.149 441.013 501.351 430.501 499.958 423.56C496.412 400.904 496.624 396.939 497.231 374.123C501.783 334.28 520.456 297.958 541.999 262.189C549.661 249.467 557.528 236.814 565.426 224.182C568.489 219.284 572.193 209.557 577.541 205.59C578.997 204.509 589.119 230.875 589.896 233.036C594.102 244.736 598.005 263.725 604.097 274.93C606.473 279.3 605.76 275.306 606.183 272.907C608.038 262.377 613.5 248.5 618.742 235.502C624.5 224.182 636 198 654.16 200.341C664.5 201.674 667.538 220.939 667.96 224.182C675.453 281.766 675.242 339.959 671.41 398.028C670.812 407.083 667.96 434.162 667.96 425.094C667.96 411.388 675.399 395.922 683.685 384.115" stroke="black" stroke-width="5" stroke-linecap="round"/>
<path d="M390.181 144.965C382.645 140.961 383.024 139.941 390.181 139.941" stroke="black" stroke-width="8" stroke-linecap="round"/>
<path d="M817.986 146.138C814.649 138.285 815.586 137.73 821.148 142.234" stroke="black" stroke-width="8" stroke-linecap="round"/>
<path d="M648.3 80.5227C648.3 74.9375 637.728 89.1156 636.671 90.1054C620.674 105.087 602.364 117.979 584.664 130.762" stroke="black" stroke-width="6" stroke-linecap="round"/>
<path d="M581.315 83.8721C580.977 86.5691 581.001 85.5467 584.664 85.5467" stroke="black" stroke-width="6" stroke-linecap="round"/>
<path d="M608.109 70.4751C604.784 70.4751 605.481 71.2739 608.109 72.1497" stroke="black" stroke-width="6" stroke-linecap="round"/>
</g>
<g opacity="0.3">
<path d="M774.824 269.277C774.456 271.849 771.957 271.602 774.16 269.277C785.552 257.257 797.501 239.233 805.139 225.198C810.481 215.379 814.34 204.176 814.653 193.456C814.792 188.734 817.343 203.163 817.973 204.725C825.023 222.214 829.943 255.363 853.377 263.894C876.706 272.387 900.537 254.814 917.436 239.564C926.837 231.08 929.186 221.993 932.593 211.693C934.094 207.154 932.63 214.648 932.704 215.048C936.243 234.309 948.593 254.109 957.154 272.252C972.609 305 988.233 337.597 993.001 372.552C996.395 397.434 996.594 412.905 982.065 435.498C969.505 455.03 963.793 431.417 962.925 421.219C959.218 377.664 963.82 345.793 983.044 304.94C998.147 272.842 1016.11 241.283 1028.41 208.424C1029.04 206.724 1030.32 198.252 1032.61 196.725C1034.55 195.43 1033.81 200.602 1034.16 202.575C1035.97 212.882 1036.42 216.364 1039.58 227.521C1046.86 253.21 1046.25 267.411 1068.2 287.321" stroke="black" stroke-width="5" stroke-linecap="round"/>
<path d="M1063.2 190.454C1074.42 197.399 1079.22 220.33 1084.44 231.824C1091 253 1094.44 271.5 1120.99 284.034" stroke="black" stroke-width="5" stroke-linecap="round"/>
</g>
<g opacity="0.3">
<path d="M1262.41 268.524C1261.77 265.751 1256.38 265.252 1257.83 268.262C1267.57 288.337 1277 293.474 1295.18 294.854C1332.74 297.706 1371.77 283.723 1403.85 263.022C1420.64 252.191 1433.05 233.727 1415.16 216.651C1389.95 192.581 1350.67 185.343 1318.4 184.164C1277.03 182.653 1255.65 191.756 1215.95 203.42C1213.67 204.093 1188.98 214.169 1190.92 214.293C1200.93 214.934 1210.48 207.688 1219.08 203.289C1301.01 161.389 1371.55 97.7313 1453.92 57.4465C1459.78 54.5773 1481.2 44.8711 1488.14 44.8711C1490.64 44.8711 1474.44 82.9024 1474.24 83.9072C1457.31 123.575 1449.13 204.321 1449.66 244.945C1450.11 322.112 1453.53 376.513 1485.64 393.889C1518.52 411.68 1540.38 372.013 1548.63 358.002C1564.04 331.819 1575.14 247 1538.38 216.651C1521.86 204.226 1512.17 199.652 1493.11 200.669C1485.87 201.056 1464.72 206.898 1471.69 204.73C1517.91 190.355 1564.47 174.905 1613.22 184.033C1672.69 195.17 1583.13 226.952 1599.98 244.028C1620.68 265.005 1673.02 319.5 1662.47 391.095C1660.13 407 1650.9 413.622 1640.18 400.002C1624.3 379.837 1647.45 289.893 1657.51 273.24C1674.41 245.248 1695.22 215.642 1717.44 192.286C1721.75 187.762 1721.7 193.57 1722.5 197.526C1725.19 210.998 1728.64 223.92 1733.81 236.562C1739.43 250.314 1746.92 272.053 1757.04 283.064C1758.35 284.495 1758.34 279.192 1758.36 277.17C1758.5 263.785 1757.04 255.5 1761.25 237.348C1772.56 188.621 1825.7 131.425 1846.78 123.166C1852.17 121.055 1858.38 118.065 1860.5 125" stroke="black" stroke-width="5" stroke-linecap="round"/>
<path d="M1806.54 74.0161C1806.64 72.9658 1807.62 71.3011 1806.37 72.8996C1797.05 84.7762 1785.71 94.6881 1774.64 104.532C1767.05 111.289 1758.55 117.618 1751.81 125.465C1747.2 130.846 1752.36 127.27 1754.21 125.93" stroke="black" stroke-width="6" stroke-linecap="round"/>
<path d="M1746.51 76.8871C1746.51 75.1159 1745.34 75.6906 1746.51 75.6906" stroke="black" stroke-width="6" stroke-linecap="round"/>
<path d="M1769.52 56.2855C1769.52 54.5143 1768.35 55.089 1769.52 55.089" stroke="black" stroke-width="6" stroke-linecap="round"/>
</g>
<g opacity="0.3">
<path d="M276.037 58.099C285.805 57.014 264.083 55.2525 263.495 55.2057C207.039 50.7134 85.1248 54.4402 28.7917 58.7419C20.6874 59.3608 -3.19891 58.4229 4.51195 60.9922C8.89695 62.4534 12.8473 67.3498 15.9283 70.4757C38.1235 92.9942 50.9097 115.153 63.4711 139.582C81.6055 174.849 85.8358 213.248 94.5253 252.098C101.385 282.766 103.988 315.025 99.3392 346.048C96.3248 366.164 90.5 391 75.3909 398.012C62 402 57.1141 371 56.2962 357.392C53.4259 309.639 54.9196 280.518 70.8579 235.14C78.7955 212.541 100.096 187.798 119.609 172.694C122.894 170.152 132.075 164.31 137.296 165.622C150.751 169.001 156.195 197.126 158.923 206.207C168.887 239.373 161.958 241.716 177.825 272.797C181.176 279.361 182.006 274.945 182.006 271.19" stroke="black" stroke-width="5" stroke-linecap="round"/>
<path d="M189.821 184.313C187.659 181.68 186.012 171.249 187.092 174.477C195.156 198.578 198.923 224.455 208.604 248.131C221.636 280 238.856 279.776 265.902 275.645" stroke="black" stroke-width="5" stroke-linecap="round"/>
<path d="M90.6893 4.46338C86.7229 4.72781 90.8719 10.6144 92.364 6.13803" stroke="black" stroke-width="8" stroke-linecap="round"/>
<path d="M159.279 100.529C155.312 100.793 159.461 106.68 160.953 102.203" stroke="black" stroke-width="8" stroke-linecap="round"/>
</g>
<g opacity="0.3">
<path d="M395.67 306C391.704 306.264 395.853 312.151 397.345 307.675" stroke="black" stroke-width="8" stroke-linecap="round"/>
<path d="M1513.32 301.26C1510.63 295.88 1495.36 307.557 1503.8 313.649C1507.52 316.34 1514.16 312.898 1514.74 308.47C1515.21 304.866 1512.2 300.126 1508.75 298.976" stroke="black" stroke-width="6" stroke-linecap="round"/>
</g>
<path d="M1507.12 370.52C1507.12 364.897 1504 366.856 1504 370.521C1504 383.948 1504 397.374 1504 410.801" stroke="black" stroke-width="6" stroke-linecap="round"/>
<path d="M1860.55 154.102C1860.55 154.102 1858.33 145.302 1829.63 177.44C1817.13 191.439 1811.63 198.44 1806 206.667" stroke="black" stroke-width="5" stroke-linecap="round"/>
<path d="M1757.04 283.065C1758.35 284.495 1758.34 279.192 1758.36 277.17C1758.5 263.785 1757.04 255.5 1761.25 237.348C1772.56 188.621 1825.7 131.425 1846.78 123.166C1852.17 121.055 1858.38 118.065 1860.5 125" stroke="black" stroke-width="5" stroke-linecap="round"/>
</svg>
