<svg width="1883" height="480" viewBox="0 0 1883 480" fill="none" xmlns="http://www.w3.org/2000/svg">
<g clip-path="url(#clip0_394_60)">
<path d="M380.99 298.545C381.222 299.459 382.157 297.456 382.193 297.407C384.912 293.752 388.052 290.307 390.778 286.656C400.001 274.306 405.235 260.793 407.546 246.626C408.056 243.501 407.078 230.247 411.638 237.077C423.353 254.622 422.586 289.339 449.506 298.732C477.927 308.647 486.837 293.475 495.806 271.036C510.107 235.257 516.07 198.76 516.07 173.558C516.07 166.554 514.787 159.62 514.787 152.625C514.787 150.425 514.787 151.568 514.787 152.942C514.787 173.114 517.411 182.438 524.956 234.547C532.501 286.656 532.501 286.656 541.637 332C550.774 377.345 564.528 401.787 556.704 444.351C555.913 448.656 544.015 485.81 529.908 474.453C523.15 469.013 521.352 458.502 519.959 451.561C516.413 428.905 516.624 434.94 517.231 412.124C521.784 372.281 540.456 335.958 562 300.19C569.662 287.468 577.528 274.815 585.427 262.183C588.49 257.284 592.194 247.558 597.541 243.59C598.998 242.51 609.12 268.875 609.897 271.036C614.103 282.737 618.005 301.726 624.098 312.931C626.473 317.3 625.761 313.306 626.184 310.907C628.039 300.378 633.501 286.5 638.742 273.503C644.501 262.183 656.001 236 674.161 238.341C684.501 239.674 687.539 258.94 687.961 262.183C695.453 319.767 695.243 377.96 691.411 436.028C690.813 445.083 687.961 472.162 687.961 463.095C687.961 449.389 695.399 433.923 703.686 422.115" stroke="black" stroke-width="5" stroke-linecap="round"/>
<path d="M410.181 182.965C402.646 178.962 403.025 177.941 410.181 177.941" stroke="black" stroke-width="8" stroke-linecap="round"/>
<path d="M668.301 118.523C668.301 112.938 657.729 127.116 656.672 128.106C640.674 143.088 622.365 155.979 604.664 168.763" stroke="black" stroke-width="5" stroke-linecap="round"/>
<path d="M601.315 121.873C600.978 124.57 601.002 123.547 604.664 123.547" stroke="black" stroke-width="6" stroke-linecap="round"/>
<path d="M628.11 108.476C624.784 108.476 625.482 109.274 628.11 110.15" stroke="black" stroke-width="6" stroke-linecap="round"/>
<path d="M794.824 295.278C794.456 297.85 791.957 297.602 794.16 295.278C805.552 283.257 817.501 265.234 825.139 251.199C830.481 241.38 834.34 230.176 834.653 219.457C834.792 214.734 837.343 229.164 837.973 230.726C845.023 248.214 849.943 281.364 873.377 289.895C896.706 298.387 920.537 280.815 937.436 265.564C946.837 257.08 949.186 247.994 952.593 237.693C954.094 233.155 952.63 240.648 952.704 241.048C956.243 260.309 968.593 280.109 977.154 298.252C992.609 331.001 1008.23 363.598 1013 398.553C1016.4 423.434 1016.59 438.906 1002.06 461.499C994.026 474 983.793 457.418 982.925 447.219C979.218 403.665 983.82 371.793 1003.04 330.94C1018.15 298.842 1036.11 267.283 1048.41 234.425C1049.04 232.724 1050.32 224.252 1052.61 222.726C1054.55 221.43 1053.81 226.603 1054.16 228.575C1055.97 238.883 1056.42 242.365 1059.58 253.521C1066.86 279.21 1066.25 283.412 1088.2 303.322" stroke="black" stroke-width="5" stroke-linecap="round"/>
<path d="M1083.2 216.455C1094.42 223.399 1099.22 246.33 1104.44 257.824C1111 279 1111.44 287.5 1137.99 300.034" stroke="black" stroke-width="5" stroke-linecap="round"/>
<path d="M1242.41 296.525C1241.77 293.752 1236.38 293.253 1237.84 296.263C1247.57 316.337 1257 321.474 1275.18 322.854C1312.74 325.707 1351.77 311.724 1383.85 291.023C1400.64 280.192 1413.05 261.728 1395.17 244.651C1369.96 220.581 1330.67 213.343 1298.41 212.165C1257.03 210.654 1235.65 219.756 1195.96 231.421C1193.67 232.093 1168.99 242.169 1170.92 242.293C1180.93 242.934 1190.48 235.689 1199.08 231.29C1281.01 189.39 1351.56 125.732 1433.92 85.447C1439.78 82.5778 1461.21 72.8716 1468.14 72.8716C1470.65 72.8716 1454.44 110.903 1454.25 111.908C1437.31 151.575 1429.13 232.322 1429.66 272.946C1430.11 350.113 1433.54 404.513 1465.65 421.889C1498.53 439.68 1520.38 400.014 1528.63 386.003C1544.04 359.819 1555.15 275 1518.38 244.651C1501.87 232.227 1492.17 227.652 1473.11 228.67C1465.87 229.057 1444.72 234.898 1451.69 232.731C1497.92 218.355 1544.48 202.906 1593.22 212.034C1652.69 223.17 1563.13 254.953 1579.98 272.029C1600.68 293.005 1653.02 347.5 1642.48 419.095C1640.13 435 1630.9 441.622 1620.18 428.003C1604.3 407.838 1627.45 317.893 1637.51 301.24C1654.42 273.249 1675.22 243.643 1697.44 220.286C1701.75 215.762 1701.71 221.57 1702.5 225.526C1705.19 238.999 1708.64 251.921 1713.81 264.562C1719.43 278.315 1726.92 300.053 1737.04 311.065C1738.35 312.495 1738.34 307.193 1738.36 305.17" stroke="black" stroke-width="5" stroke-linecap="round"/>
<path d="M1821.54 97.0165C1821.65 95.9663 1822.62 94.3016 1821.37 95.9001C1812.05 107.777 1800.72 117.689 1789.65 127.532C1782.05 134.29 1773.55 140.619 1766.82 148.466C1762.2 153.847 1767.36 150.271 1769.21 148.931" stroke="black" stroke-width="5" stroke-linecap="round"/>
<path d="M1766.52 104.888C1766.52 103.116 1765.34 103.691 1766.52 103.691" stroke="black" stroke-width="6" stroke-linecap="round"/>
<path d="M1789.53 84.286C1789.53 82.5148 1788.35 83.0895 1789.53 83.0895" stroke="black" stroke-width="6" stroke-linecap="round"/>
<path d="M1294.67 395C1290.71 395.265 1294.86 401.152 1296.35 396.675" stroke="black" stroke-width="8" stroke-linecap="round"/>
<path d="M1334.67 390C1330.71 390.265 1334.86 396.152 1336.35 391.675" stroke="black" stroke-width="8" stroke-linecap="round"/>
<path d="M412 61.9998C296 19.4999 -114 51.4998 35.0002 111C154.256 158.622 144.34 412.049 144.34 412.049C141.325 432.164 135.5 457 120.391 464.012C107 468 103.352 432 101 416.5C96.359 385.912 96 279 139.61 215.694C142.894 213.152 152.076 207.31 157.297 208.622C170.751 212.001 176.195 240.126 178.924 249.208C188.888 282.373 181.958 284.716 197.826 315.797C201.177 322.361 202.006 317.945 202.006 314.19" stroke="black" stroke-width="5" stroke-linecap="round"/>
<path d="M209.822 227.314C207.66 224.681 206.013 214.25 207.093 217.477C215.156 241.578 218.924 267.456 228.605 291.131C230.686 296.22 254.066 321.789 292.001 324.178C491.623 336.744 1072 307.5 1125.5 333" stroke="black" stroke-width="5" stroke-linecap="round"/>
<path d="M126.67 4C122.704 4.26443 126.853 10.1511 128.345 5.67465" stroke="black" stroke-width="8" stroke-linecap="round"/>
<path d="M179.28 143.529C175.313 143.794 179.462 149.68 180.954 145.204" stroke="black" stroke-width="8" stroke-linecap="round"/>
<path d="M415.671 394C411.704 394.265 415.853 400.152 417.345 395.675" stroke="black" stroke-width="8" stroke-linecap="round"/>
<path d="M1493.32 329.261C1490.63 323.88 1475.36 335.557 1483.8 341.65C1487.52 344.34 1494.16 340.899 1494.74 336.471C1495.21 332.866 1492.2 328.127 1488.75 326.976" stroke="black" stroke-width="6" stroke-linecap="round"/>
<path d="M1858.55 164.102C1858.55 164.102 1856.33 155.303 1827.63 187.44C1815.13 201.44 1809.63 208.44 1804 216.668" stroke="black" stroke-width="5" stroke-linecap="round"/>
<path d="M1737.04 311.065C1738.35 312.495 1738.34 307.193 1738.36 305.17C1738.5 291.785 1737.04 283.501 1741.25 265.348C1758.04 193 1845.71 119.425 1866.78 111.167C1872.17 109.055 1878.38 106.065 1880.5 113.001" stroke="black" stroke-width="5" stroke-linecap="round"/>
</g>
<defs>
<clipPath id="clip0_394_60">
<rect width="1883" height="480" fill="white"/>
</clipPath>
</defs>
</svg>
