<svg id="svg" xmlns="http://www.w3.org/2000/svg" xmlns:xlink="http://www.w3.org/1999/xlink" width="400" height="135.96193065941534" viewBox="0, 0, 400,135.96193065941534"><g id="svgg"><path id="path0" d="M282.581 0.389 C 281.526 0.970,280.367 1.908,278.527 3.667 C 273.468 8.506,262.123 16.436,250.817 23.035 C 249.146 24.010,248.819 24.609,249.492 25.464 C 250.436 26.665,256.908 24.325,263.369 20.449 C 273.521 14.357,280.869 8.415,284.955 2.991 C 286.454 1.002,284.786 -0.827,282.581 0.389 M191.230 32.005 C 190.363 32.280,189.933 32.545,187.941 34.031 C 179.329 40.458,169.140 46.866,158.600 52.483 C 153.316 55.298,146.405 59.193,145.838 59.676 C 145.210 60.209,145.361 61.352,146.083 61.533 C 147.794 61.962,161.289 56.860,170.564 52.276 C 181.647 46.799,193.262 38.945,194.633 35.999 C 195.775 33.546,193.776 31.200,191.230 32.005 M271.108 38.890 C 270.697 38.958,268.341 39.199,265.874 39.426 C 230.711 42.669,201.689 51.572,171.108 68.497 C 153.094 78.466,141.756 90.113,138.818 101.666 L 138.671 102.243 136.263 102.243 C 128.814 102.240,119.138 101.857,112.237 101.291 C 103.207 100.550,98.150 100.224,90.075 99.863 C 85.069 99.639,82.626 99.458,76.343 98.846 C 74.099 98.628,69.878 98.230,66.961 97.961 C 57.950 97.133,55.621 96.524,51.462 93.906 C 48.464 92.019,48.443 92.168,52.556 85.928 C 59.802 74.937,60.942 72.307,58.981 71.111 C 58.005 70.516,56.976 70.797,54.531 72.323 C 53.321 73.078,46.942 76.738,43.440 78.686 C 38.805 81.264,35.549 82.791,28.315 85.780 C 24.204 87.479,21.292 88.754,16.791 90.825 C 10.717 93.622,7.605 94.926,4.138 96.128 C 1.852 96.921,1.180 97.229,0.649 97.726 C -0.486 98.789,0.056 100.612,1.507 100.612 C 2.485 100.612,7.622 99.065,10.877 97.790 C 16.899 95.432,40.078 84.618,45.723 81.532 C 47.769 80.414,48.758 79.938,48.632 80.130 C 43.101 88.582,42.901 88.982,42.917 91.570 C 42.943 95.663,44.985 98.059,50.918 100.956 C 58.571 104.694,63.722 104.974,122.579 104.857 L 138.224 104.825 138.102 105.812 C 136.934 115.189,140.886 122.759,150.189 128.967 C 164.034 138.207,182.219 138.274,195.853 129.136 C 204.280 123.488,210.247 114.314,210.704 106.303 L 210.779 104.991 235.743 104.923 C 250.330 104.883,262.205 104.792,264.310 104.705 C 266.292 104.623,270.513 104.462,273.691 104.348 C 292.956 103.656,301.762 103.249,310.469 102.647 C 347.675 100.077,360.914 97.467,384.021 88.146 C 397.943 82.530,400.132 80.942,399.979 76.563 C 399.830 72.308,394.234 72.072,393.680 76.297 C 393.512 77.576,390.651 81.107,388.726 82.410 C 385.247 84.765,372.658 90.025,364.038 92.724 C 352.441 96.355,338.269 98.745,319.714 100.196 C 304.715 101.369,297.951 101.716,271.856 102.653 C 269.687 102.731,266.353 102.860,264.446 102.940 C 262.478 103.023,250.129 103.115,235.886 103.154 L 210.794 103.223 210.627 101.975 C 209.572 94.045,203.393 90.986,188.375 90.958 L 185.928 90.954 188.513 89.619 C 194.449 86.554,198.330 84.386,201.292 82.481 C 204.613 80.344,205.984 79.567,207.464 78.981 C 212.164 77.119,213.410 75.793,212.239 73.899 C 211.095 72.048,205.182 72.373,197.820 74.693 C 189.663 77.264,185.911 78.760,177.838 82.661 C 175.408 83.836,171.370 85.758,168.865 86.932 C 162.843 89.755,161.965 90.400,161.824 92.101 C 161.617 94.600,163.756 95.588,169.477 95.634 C 171.805 95.653,172.099 95.681,172.462 95.924 C 173.071 96.332,174.420 96.291,175.401 95.835 C 176.286 95.423,176.808 95.391,186.200 95.169 C 196.078 94.935,199.248 95.250,202.273 96.765 C 204.813 98.037,205.904 99.593,206.328 102.549 L 206.421 103.195 192.911 103.193 C 178.127 103.190,160.622 102.997,156.560 102.793 C 155.139 102.721,151.302 102.587,148.033 102.495 L 142.088 102.327 142.172 101.979 C 143.389 96.937,147.163 90.988,152.477 85.737 C 168.350 70.048,194.760 56.209,223.603 48.468 C 243.619 43.096,273.450 39.128,271.910 42.042 C 270.618 44.488,267.613 47.191,254.181 57.987 C 244.876 65.467,240.466 69.085,236.370 72.600 C 232.511 75.912,231.799 76.460,230.455 77.149 C 228.622 78.089,227.512 78.733,225.493 80.024 C 224.521 80.646,223.144 81.487,222.434 81.893 C 219.983 83.294,219.442 85.545,221.164 87.178 C 222.800 88.731,224.845 88.131,230.116 84.551 C 233.151 82.489,240.540 76.644,241.002 75.940 C 241.596 75.033,241.271 73.833,240.299 73.342 L 239.742 73.060 242.067 71.423 C 244.684 69.580,247.873 67.444,252.277 64.587 C 264.419 56.708,272.652 49.785,275.405 45.139 C 277.836 41.037,275.829 38.118,271.108 38.890 M264.629 67.171 C 262.939 67.505,260.915 68.655,257.264 71.356 C 254.459 73.431,253.067 74.416,249.830 76.613 C 244.320 80.353,239.834 83.965,239.196 85.177 C 238.764 85.996,238.994 87.406,239.653 87.985 C 240.937 89.113,242.105 88.892,243.967 87.167 C 245.516 85.732,247.794 84.036,252.756 80.622 C 257.621 77.275,258.118 76.911,261.387 74.303 C 264.008 72.211,265.714 70.983,266.678 70.495 C 267.709 69.973,267.974 68.614,267.219 67.717 C 266.698 67.098,265.874 66.924,264.629 67.171 M201.360 78.233 C 201.360 78.290,188.323 84.975,184.092 87.087 C 182.784 87.741,180.402 88.880,178.799 89.620 L 175.886 90.964 172.103 91.051 C 170.023 91.099,168.321 91.103,168.321 91.061 C 168.321 90.616,174.683 87.352,178.586 85.794 C 183.761 83.729,201.360 77.886,201.360 78.233 M178.142 104.912 L 206.522 104.999 206.464 105.287 C 206.433 105.445,206.371 106.040,206.326 106.609 C 205.756 113.981,199.775 122.698,192.114 127.322 C 185.896 131.076,180.765 132.490,173.351 132.493 C 161.214 132.498,152.438 129.120,145.953 121.946 C 142.027 117.604,140.448 111.737,141.483 105.341 L 141.565 104.835 143.216 104.784 C 144.124 104.756,145.969 104.754,147.315 104.779 C 148.661 104.804,162.533 104.864,178.142 104.912 M27.838 116.161 C 25.514 117.028,24.917 120.055,26.745 121.704 C 28.691 123.457,31.870 122.271,32.177 119.676 C 32.456 117.316,30.024 115.346,27.838 116.161 M333.515 119.111 C 298.996 121.969,292.078 122.291,275.187 121.822 C 272.757 121.755,266.730 121.635,261.795 121.556 C 249.904 121.365,248.557 121.287,242.556 120.448 C 239.299 119.993,237.297 122.591,239.383 124.567 C 242.221 127.256,257.599 127.976,273.623 126.170 C 282.356 125.185,294.970 123.957,306.390 122.979 C 322.839 121.570,344.050 119.464,344.358 119.210 C 344.573 119.032,344.576 118.662,344.364 118.450 C 344.142 118.228,344.319 118.217,333.515 119.111 " stroke="none" fill="#000000" fill-rule="evenodd"></path></g></svg>