<svg width="520" height="520" viewBox="0 0 520 520" fill="none" xmlns="http://www.w3.org/2000/svg">
<path d="M42.2832 276.044L111.77 369.7" stroke="black" stroke-width="3"/>
<path d="M36.2408 291.581L110.044 393.87" stroke="black" stroke-width="3"/>
<path d="M37.9673 283.812L109.181 380.49" stroke="black" stroke-width="3"/>
<path d="M483.376 320.93C483.376 320.93 410.005 254.617 293.905 268.275C205.707 278.65 146.519 330.195 120.612 357.795C110.59 368.471 107.6 383.486 111.18 397.685C117.723 423.632 129.447 467.405 142.414 503.064C145.867 512.559 162.267 515.58 162.267 515.58" stroke="black" stroke-width="3"/>
<path d="M371.55 336.322L218.98 354.961C210.954 355.942 204.921 362.757 204.921 370.843V431.535C204.921 441.244 213.499 448.716 223.116 447.383L375.686 426.246C383.598 425.15 389.49 418.386 389.49 410.398V352.204C389.49 342.598 381.085 335.157 371.55 336.322Z" stroke="black" stroke-width="3"/>
<path d="M139.393 199.219L55.9819 262.422C55.7692 262.583 55.5667 262.741 55.3624 262.913C53.2565 264.683 40.6981 275.618 37.5357 287.265C34.4994 298.448 36.7993 317.639 37.4017 322.129C37.4881 322.772 37.6015 323.375 37.7519 324.006C39.6676 332.053 54.149 391.052 74.6531 424.513C82.6213 437.517 96.9735 455.598 99.5125 458.772C99.7739 459.099 100.025 459.426 100.271 459.765L123.971 492.378C124.756 493.458 125.618 494.468 126.588 495.385C130.781 499.352 143.301 510.674 152.772 513.854C163.159 517.341 180.356 514.554 183.704 513.959C184.093 513.89 184.475 513.826 184.866 513.769L400.409 482.425C400.764 482.373 401.113 482.315 401.464 482.244C404.619 481.606 421.234 478.051 428.995 472.421C436.292 467.127 442.708 454.959 444.48 451.402C444.81 450.74 445.091 450.061 445.343 449.365L482.561 346.911C483.104 345.419 483.505 343.885 483.698 342.309C484.269 337.651 485.233 327.109 483.376 320.067C481.471 312.838 474.927 302.975 472.137 298.98C471.299 297.781 470.326 296.686 469.263 295.68L373.75 205.261" stroke="black" stroke-width="3"/>
<path d="M393.33 63.2657C393.33 70.6365 389.864 77.8241 383.255 84.5428C376.636 91.2702 366.961 97.4203 354.847 102.628C330.627 113.042 297.027 119.531 259.809 119.531C222.59 119.531 188.991 113.042 164.77 102.628C152.657 97.4203 142.981 91.2702 136.363 84.5428C129.753 77.8241 126.287 70.6365 126.287 63.2657C126.287 55.895 129.753 48.7073 136.363 41.9887C142.981 35.2613 152.657 29.1111 164.77 23.903C188.991 13.4898 222.59 7 259.809 7C297.027 7 330.627 13.4898 354.847 23.903C366.961 29.1111 376.636 35.2613 383.255 41.9887C389.864 48.7073 393.33 55.895 393.33 63.2657Z" stroke="black" stroke-width="4"/>
<path d="M126.5 62.5V175.805C126.5 175.935 126.501 176.055 126.509 176.185C126.738 179.691 132.294 232 260 232C387.706 232 393.262 179.691 393.491 176.185C393.499 176.055 393.5 175.935 393.5 175.805V62.5" stroke="black" stroke-width="3"/>
</svg>
