<svg width="572" height="572" viewBox="0 0 572 572" fill="none" xmlns="http://www.w3.org/2000/svg">
<path d="M139.5 84.8882C131.765 89.8885 126.989 110.067 135.5 119.888C149.043 135.514 161.5 149.057 173.5 160.906C196.058 183.182 213.166 196.328 240.5 212.388M139.5 84.8882C100.1 113.955 44 375.889 44 375.889C44 375.889 178.608 475.233 265.5 538.889M139.5 84.8882C165.9 67.8213 185.332 58.2924 205 51.5985C222.209 45.7415 239.6 42.0549 262 37.3882C279.547 33.7326 298 34.7128 309 37.3882C315.9 39.0664 343.651 57.3275 373.5 81.5665C391.238 95.9711 409.717 112.487 425 128.888M139.5 84.8882C139.5 84.8882 119.303 107.5 131 122C178.597 181 221.5 211.063 244.5 221.5C252.213 225 274.773 227.088 294 226C337.434 223.543 406.545 190.755 427.872 162M425 128.888C435.367 140.014 430.583 154.729 419.5 164.888C405.44 177.777 387.184 188.487 369.5 196.86C341.906 209.925 320.162 214.16 290 218.889M425 128.888C427.052 131.371 429.073 133.91 431.064 136.5M290 218.889C277.5 245 269.98 428.889 265.5 538.889M290 218.889C284.669 219.724 274.496 219.145 264.5 217.808M240.5 212.388C253.5 298 270 428.389 265.5 538.889M240.5 212.388C245.284 214.506 254.809 216.512 264.5 217.808M265.5 538.889C367.817 484.41 528.5 399.389 528.5 399.389M265.5 538.889C265.5 538.889 267.695 411.135 267.5 348.5C267.305 285.745 264.5 217.808 264.5 217.808M528.5 399.389C528.5 399.389 496.021 221.001 431.064 136.5M528.5 399.389C528.5 399.389 487 214.5 427.872 162M528.5 399.389C528.5 399.389 498.374 262.5 460.5 193.5C437.963 152.441 433.878 150 433.878 150M431.064 136.5C434.194 140.573 435.121 145.016 433.878 150M427.872 162C430.925 157.884 432.413 154.911 433.878 150" stroke="black" stroke-width="3"/>
<path d="M205 51.5C205 51.5 237.5 126.5 369 197M173.5 161C276 164.5 373 81.5 373 81.5" stroke="black" stroke-width="3" stroke-dasharray="6 6"/>
</svg>
