<svg width="558" height="558" viewBox="0 0 558 558" fill="none" xmlns="http://www.w3.org/2000/svg">
<path d="M171 195C171 195 199.16 163.306 222.5 153.5C254.5 140.055 263 147.5 263 147.5" stroke="black" stroke-width="3" stroke-dasharray="4 4"/>
<path d="M207 259L114.5 92.5C114.5 92.5 104.5 77.368 104.5 65.5C104.5 53.632 114.5 47.5 114.5 47.5L161 19.5C161 19.5 168.295 15.5 172 15.5C177.5 15.5 180 19.5 180 19.5L425 393C425 393 435.088 440.739 443.25 470.75C451.628 501.555 474 542 474 542C474 542 390 468 296 432C280.848 426.197 282.5 417.441 282.5 406C282.5 382.5 290.885 336.2 267.5 307.5C245.5 280.5 207 259 207 259Z" stroke="black" stroke-width="4"/>
<path d="M473.5 542.5C391 425.5 352.638 356.453 280 235" stroke="black" stroke-width="3"/>
<path d="M283.5 380C283.5 380 318.635 389.37 340 398C362.026 406.897 392 422 392 422C392 422 389.477 395.515 388.5 378.5C387.526 361.53 387 335 387 335" stroke="black"/>
<path d="M283 393.5C283 393.5 325.635 403.87 347 412.5C369.026 421.397 404 442 404 442C404 442 400.477 416.515 399.5 399.5C398.526 382.53 396.5 348 396.5 348" stroke="black" stroke-width="2"/>
<path d="M283.5 404C283.5 404 336.135 420.37 357.5 429C379.526 437.897 416 461.5 416 461.5C416 461.5 409.477 424.015 408.5 407C407.526 390.03 406.5 365 406.5 365" stroke="black"/>
</svg>
