<svg width="558" height="558" viewBox="0 0 558 558" fill="none" xmlns="http://www.w3.org/2000/svg">
<g clip-path="url(#clip0_11_615)">
<path d="M236.464 231.452C236.464 231.452 229.311 234.005 223.762 251.108C216.949 272.11 223.094 321.244 223.094 321.244" stroke="black" stroke-width="3" stroke-dasharray="5 5"/>
<path d="M421.266 295.069C421.266 295.069 364.154 346.265 336.506 345.278C289.193 343.589 217.953 341.734 210.488 341.541C210.046 341.53 209.668 341.377 209.322 341.101C207.077 339.307 198.132 332.286 191.673 329.013C178.312 322.243 155.171 318.662 155.171 318.662" stroke="black" stroke-width="3"/>
<path d="M400.244 233.489C400.244 233.489 391.48 255.742 390.205 270.262C388.93 284.781 392.736 306.449 392.736 306.449" stroke="black" stroke-width="3" stroke-dasharray="5 5"/>
<path d="M389.144 255.086C389.144 255.086 437.426 253.796 468.346 255.413C499.267 257.03 547.496 263.368 547.496 263.368" stroke="black" stroke-width="3"/>
<path d="M345.504 251.686C358.085 251.305 384.739 252.503 386.792 252.597C386.885 252.601 386.963 252.611 387.053 252.635C387.558 252.771 389.318 253.384 389.456 255.358C389.586 257.21 388.133 258.075 387.556 258.343C387.405 258.414 387.258 258.445 387.092 258.457C384.341 258.663 357.962 260.599 345.492 259.898C338.389 259.499 331.501 258.002 326.665 256.709C324.716 256.188 324.879 253.751 326.874 253.451C331.707 252.724 338.51 251.898 345.504 251.686Z" stroke="black" stroke-width="3"/>
<path d="M356.259 324.047C334.958 323.818 183.29 321.95 83.8954 314.262C71.2063 313.28 59.5541 311.605 59.3696 311.578C59.3638 311.577 59.3726 311.579 59.3668 311.578C59.1788 311.552 14.9536 305.496 12.7359 273.783C11.8788 261.526 13.1165 254.405 19.5725 245.738C26.8378 235.986 46.045 234.789 46.6492 234.754C46.6684 234.753 46.6458 234.753 46.665 234.753C47.2866 234.737 303.391 228.127 399.348 233.258C477.968 237.463 528.476 254.707 545.05 261.21C546.884 261.93 546.586 264.447 544.644 264.778C528.208 267.584 483.735 275.517 454.506 283.947C422.589 293.153 377.491 311.995 366.809 316.522C365.617 317.027 364.267 316.288 364.049 315.012L360.883 296.511C360.683 295.344 361.534 294.261 362.715 294.178L378.834 293.051C379.067 293.035 379.298 292.979 379.495 292.852C380.067 292.483 381.22 291.5 381.005 289.673C380.783 287.776 379.148 286.991 378.459 286.742C378.26 286.67 378.047 286.656 377.836 286.673L310.488 292.255C310.31 292.27 310.134 292.307 309.974 292.386C309.369 292.684 307.866 293.62 307.953 295.515C308.04 297.414 309.533 298.139 310.121 298.352C310.275 298.408 310.439 298.425 310.603 298.423L350.391 297.884C351.312 297.872 352.122 298.489 352.354 299.38L358.12 321.545C358.451 322.819 357.575 324.061 356.259 324.047Z" stroke="black" stroke-width="4"/>
</g>
<defs>
<clipPath id="clip0_11_615">
<rect width="558" height="558" fill="white"/>
</clipPath>
</defs>
</svg>
