<svg width="1068" height="262" viewBox="0 0 1068 262" fill="none" xmlns="http://www.w3.org/2000/svg">
<g clip-path="url(#clip0_11_634)">
<path d="M576.536 83.4518C576.536 83.4518 583.689 86.0048 589.238 103.108C596.052 124.11 589.906 173.244 589.906 173.244" stroke="black" stroke-width="1.5" stroke-dasharray="5 5"/>
<path d="M391.735 147.069C391.735 147.069 448.846 198.265 476.494 197.278C523.807 195.59 595.047 193.734 602.512 193.541C602.954 193.53 603.332 193.377 603.678 193.101C605.924 191.307 614.868 184.286 621.328 181.013C634.688 174.243 657.829 170.662 657.829 170.662" stroke="black" stroke-width="1.5"/>
<path d="M412.756 85.489C412.756 85.489 421.52 107.742 422.795 122.262C424.07 136.781 420.265 158.449 420.265 158.449" stroke="black" stroke-width="1.5" stroke-dasharray="5 5"/>
<path d="M423.856 107.086C423.856 107.086 375.574 105.796 344.654 107.413C313.734 109.03 265.505 115.368 265.505 115.368" stroke="black" stroke-width="1.5"/>
<path d="M467.496 103.686C454.915 103.305 428.261 104.503 426.208 104.597C426.115 104.601 426.038 104.611 425.948 104.635C425.442 104.771 423.682 105.384 423.544 107.358C423.414 109.211 424.867 110.075 425.444 110.344C425.595 110.414 425.742 110.445 425.908 110.457C428.659 110.664 455.039 112.599 467.508 111.898C474.612 111.499 481.499 110.003 486.335 108.709C488.284 108.188 488.121 105.751 486.126 105.451C481.293 104.725 474.49 103.898 467.496 103.686Z" stroke="black" stroke-width="2"/>
<path d="M455.416 176.061C470.601 175.906 627.282 174.138 729.105 166.262C741.845 165.276 753.54 163.591 753.632 163.578C753.635 163.578 753.63 163.578 753.633 163.578C753.727 163.565 798.044 157.53 800.264 125.783C801.121 113.526 799.884 106.405 793.428 97.7385C786.104 87.9075 766.647 86.7706 766.34 86.7533C766.331 86.7527 766.346 86.7533 766.336 86.7531C766.025 86.745 509.667 80.1237 413.652 85.2583C329.411 89.7633 277.445 109.24 264.918 114.432C264.008 114.809 264.169 116.071 265.14 116.234C278.011 118.393 327.065 126.882 358.494 135.947C391.794 145.551 439.442 165.646 447.382 169.028C447.977 169.281 448.628 168.902 448.737 168.264L452.304 147.422C452.404 146.838 451.978 146.297 451.388 146.255L433.99 145.039C433.873 145.031 433.759 145.003 433.657 144.945C433.176 144.67 431.759 143.682 431.995 141.673C432.236 139.617 434.137 138.867 434.693 138.691C434.794 138.659 434.9 138.651 435.005 138.66L502.647 144.266C502.736 144.273 502.823 144.292 502.904 144.329C503.39 144.546 505.141 145.474 505.047 147.515C504.954 149.559 503.232 150.243 502.762 150.392C502.684 150.417 502.603 150.425 502.521 150.424L461.825 149.874C461.365 149.867 460.96 150.176 460.844 150.622L454.552 174.809C454.386 175.446 454.758 176.068 455.416 176.061Z" stroke="black" stroke-width="2"/>
</g>
<defs>
<clipPath id="clip0_11_634">
<rect width="1068" height="262" fill="white" transform="matrix(-1 0 0 1 1068 0)"/>
</clipPath>
</defs>
</svg>
