<svg width="3092" height="2703" viewBox="0 0 3092 2703" fill="none" xmlns="http://www.w3.org/2000/svg">
<line y1="153.262" x2="3090" y2="153.262" stroke="black" stroke-dasharray="10 10"/>
<line y1="241.262" x2="3090" y2="241.262" stroke="black" stroke-dasharray="10 10"/>
<line y1="93.2617" x2="3090" y2="93.2617" stroke="black" stroke-dasharray="10 10"/>
<line y1="3.26172" x2="3090" y2="3.26172" stroke="black" stroke-dasharray="10 10"/>
<path d="M73.5458 156.924C68.6773 156.924 74.1326 155.432 76.1066 154.971C105.173 148.186 126.378 143.987 152.063 128.467C163.777 121.389 176.422 107.956 156.843 100.685C126.117 89.2744 92.1136 93.8995 66.3757 111.834C60.2899 116.074 45.1787 126.866 50.6697 136.687C56.7114 147.492 75.9695 145.613 85.6668 145.385C118.616 144.609 159.901 128.975 189.292 149.794C205.19 161.054 214.906 194.033 197.743 209.278C173.549 230.767 146.205 241.499 99.6656 238.507C81.9504 236.616 66.5376 234.191 47.8528 227.334C36.6175 223.21 24.1427 216.224 17.7212 204.955C-1.73297 170.819 32.7912 106.652 56.0473 85.4427C95.7575 49.2272 149.493 25.6656 200.56 13.4585C244.84 2.87343 294.526 0.519895 333.719 26.9499C351.833 39.165 378.871 56.7848 381.691 81.4485C385.069 110.999 360.158 136.166 335.171 145.089C322.6 149.578 306.616 151.627 295.82 141.628C287.92 134.31 282.398 124.107 289.077 114.23C298.42 100.413 322.029 96.7002 336.622 94.0818C344.779 92.6182 356.662 89.0721 360.864 97.8097" stroke="black" stroke-opacity="0.3" stroke-width="5" stroke-linecap="round"/>
<path d="M73.5458 156.924C68.6773 156.924 74.1326 155.432 76.1066 154.971C105.173 148.186 126.378 143.987 152.063 128.467C163.777 121.389 176.422 107.956 156.843 100.685C126.117 89.2744 92.1136 93.8995 66.3757 111.834C60.2899 116.074 45.1787 126.866 50.6697 136.687C56.7114 147.492 75.9695 145.613 85.6668 145.385C118.616 144.609 159.901 128.975 189.292 149.794C205.19 161.054 214.906 194.033 197.743 209.278C173.549 230.767 146.205 241.499 99.6656 238.507C81.9504 236.616 66.5376 234.191 47.8528 227.334C36.6175 223.21 24.1427 216.224 17.7212 204.956C-1.73297 170.819 32.7912 106.652 56.0473 85.4427C95.7575 49.2272 149.493 25.6656 200.56 13.4585C244.84 2.87343 294.526 0.519894 333.719 26.9499" stroke="black" stroke-width="5" stroke-linecap="round"/>
<path d="M524.392 145.756C537.001 147.017 547.913 154.366 561.085 155.299C583.856 156.913 611.191 149.971 628.85 135.029C641.942 123.951 638.247 112.35 624.559 104.18C596.874 87.6558 563.047 85.9248 531.642 85.8332C509.123 85.7676 487.995 88.0117 466.541 94.9326C462.435 96.2568 455.009 101.807 461.658 97.3739C509.432 65.5248 559.482 35.615 614.35 17.477C635.615 10.4471 663.136 1.71505 685.591 8.37768C704.269 13.9195 704.853 36.5261 702.458 52.6908C698.952 76.3584 689.595 99.5647 683.15 122.527C674.797 152.285 667.183 185.164 670.13 216.331C670.871 224.18 673.941 245.928 686.183 236.747C708.736 219.832 727.157 200.678 750.766 184.743C768.566 172.728 789.678 160.246 811.577 158.036C817.358 157.453 818.25 159.93 816.015 164.398" stroke="black" stroke-opacity="0.3" stroke-width="5" stroke-linecap="round"/>
<path d="M685.591 8.37744C704.269 13.9193 704.853 36.5259 702.458 52.6906C698.952 76.3581 689.595 99.5645 683.15 122.526C674.797 152.284 667.183 185.163 670.13 216.331C670.871 224.18 673.941 245.928 686.183 236.747C708.736 219.832 727.157 200.678 750.766 184.742C768.566 172.727 789.678 160.246 811.577 158.036C817.358 157.453 818.25 159.929 816.015 164.398" stroke="black" stroke-width="5" stroke-linecap="round"/>
<path d="M968.107 123.407C980.835 126.818 983.405 131.446 996.583 128.873C1004.44 127.34 1018.78 124.129 1022.18 115.239C1027.38 101.662 1007.26 94.3364 997.671 93.3386C978.922 91.3873 963.974 97.9983 953.095 113.69C944.45 126.158 946.412 141.307 962.015 146.033C997.834 156.882 1034.17 134.525 1070.36 138.056C1071.51 138.168 1080 138.675 1074.85 139.144C1063.75 140.153 1051.03 147.117 1041.64 152.56C1023.2 163.256 1006.92 178.905 998.419 198.681C992.481 212.493 988.755 223.638 1002.34 234.002C1014.81 243.519 1031.7 239.186 1044.76 233.349C1070.06 222.037 1091.52 208.008 1110.39 188.094C1132.3 164.965 1152.27 139.216 1182.69 126.815C1205.69 117.44 1232.17 115.225 1256.15 121.667C1263.82 123.727 1271.4 126.367 1278.92 128.918C1280.45 129.436 1284.7 130.568 1283.2 131.167C1281.69 131.771 1279.09 131.239 1277.47 131.239" stroke="black" stroke-opacity="0.3" stroke-width="5" stroke-linecap="round"/>
<path d="M1074.85 139.144C1063.75 140.154 1051.03 147.117 1041.64 152.56C1023.2 163.256 1006.92 178.905 998.419 198.682C992.481 212.494 988.755 223.638 1002.34 234.002C1014.81 243.519 1031.7 239.187 1044.76 233.349C1070.06 222.037 1091.52 208.009 1110.39 188.094C1132.3 164.965 1152.27 139.217 1182.69 126.816C1205.69 117.44 1232.17 115.225 1256.15 121.667C1263.82 123.728 1271.4 126.367 1278.92 128.919C1280.45 129.436 1284.7 130.568 1283.2 131.167C1281.69 131.771 1279.09 131.239 1277.47 131.239" stroke="black" stroke-width="5" stroke-linecap="round"/>
<path d="M1549.15 14.9218C1551.21 14.9218 1552.61 14.7602 1554.52 14.1211C1557.6 13.0963 1548.85 13.8989 1548.12 13.8924C1526.99 13.7054 1506.02 12.4116 1484.87 13.3205C1467.11 14.0834 1449.75 17.0256 1432.14 18.9824C1431.07 19.1011 1436.64 19.8451 1437.85 20.4122C1459.93 30.7432 1476.46 56.4764 1488.64 76.4022C1511 112.998 1527.43 151.529 1531.13 194.673C1532.27 207.905 1533.52 249.39 1509.34 246.261C1499.18 244.947 1492.18 237.47 1487.38 229.388C1480.5 217.789 1474.9 204.372 1472.4 191.07C1467.22 163.521 1477.92 120.374 1501.11 105.503C1514.07 97.1909 1537.89 109.095 1548.12 124.957C1554.05 132.687 1556.9 142.802 1559.67 151.952C1564.73 168.649 1568.16 185.874 1573.97 202.337C1576.44 209.342 1587.93 250.835 1600.51 245.05C1605.89 242.571 1608.14 234.707 1610 229.723C1614.01 219.008 1617.5 198.181 1622.52 187.868C1629.75 173.017 1641.6 148.68 1659.36 143.945C1662.38 143.138 1664.45 143.501 1664.45 146.69" stroke="black" stroke-opacity="0.3" stroke-width="5" stroke-linecap="round"/>
<path d="M1501.11 105.503C1514.07 97.1907 1537.89 109.095 1548.12 124.957C1554.05 132.687 1556.9 142.801 1559.67 151.951C1564.73 168.649 1568.16 185.874 1573.97 202.337C1576.44 209.341 1587.93 250.835 1600.51 245.05C1605.9 242.571 1608.14 234.707 1610 229.723C1614.01 219.008 1617.5 198.18 1622.52 187.867C1629.75 173.017 1641.6 148.68 1659.36 143.945C1662.38 143.138 1664.45 143.501 1664.45 146.69" stroke="black" stroke-width="5" stroke-linecap="round"/>
<path d="M2370.94 143.334C2366.43 140.93 2384.19 146.527 2384.77 146.647C2408.84 151.671 2435.79 147.297 2456.13 133.011C2468.05 124.645 2469.98 115.925 2458.21 104.073C2446.65 92.4382 2431.37 90.4525 2420.65 104.583C2408.41 120.727 2422.34 132.961 2435.36 140.466C2454.18 151.311 2483.03 156.298 2503.35 146.966C2519.65 139.479 2525.71 118.398 2519.6 102.234C2512.87 84.4264 2496.09 68.8226 2479.77 59.7964C2438.65 37.0471 2390.33 52.2252 2346.22 51.5765C2331.84 51.3651 2312.52 49.4774 2301.42 38.9599C2290.81 28.9083 2318.15 14.4744 2324.11 12.2652C2371.58 -5.33374 2421.5 5.53528 2468.05 19.7841C2498.5 29.1025 2529.3 31.3965 2561.34 27.5581C2566.22 26.9726 2576.53 26.2839 2571.66 19.7842" stroke="black" stroke-opacity="0.3" stroke-width="5" stroke-linecap="round"/>
<path d="M2503.35 146.966C2519.65 139.479 2525.71 118.398 2519.6 102.234C2512.87 84.4264 2496.09 68.8227 2479.77 59.7965C2438.65 37.0471 2390.33 52.2252 2346.22 51.5766C2331.84 51.3651 2312.52 49.4774 2301.42 38.96C2290.81 28.9084 2318.15 14.4745 2324.11 12.2652C2371.58 -5.3337 2421.5 5.53532 2468.05 19.7842C2498.5 29.1025 2529.3 31.3965 2561.34 27.5582C2566.22 26.9726 2576.53 26.2839 2571.66 19.7843" stroke="black" stroke-width="5" stroke-linecap="round"/>
<path d="M1869.51 140.996C1869.51 137.712 1872.85 145.498 1876.07 147.433C1900.09 161.842 1937.29 149.838 1959.5 137.902C1982.92 125.318 1992.4 110.237 1969.03 91.7144C1954.66 80.3169 1935.76 77.0613 1917.91 76.7368C1896.59 76.3491 1874.67 78.6375 1853.67 82.307C1837.67 85.1032 1790.24 96.2415 1806.26 93.5712C1807.86 93.3043 1810.63 89.8279 1811.89 88.9293C1818.82 84.0051 1825.58 79.2264 1832.13 73.766C1859.6 50.8737 1890.19 27.0572 1924.1 14.8456C1948.34 6.11738 1988.32 -3.58391 2008.89 18.4353C2017.98 28.1649 2017.21 40.4954 2013.9 52.4754C2008.98 70.3265 2000.57 86.9001 1996.14 104.959C1986.96 142.408 1982.27 193.21 2010.13 224.419C2028.24 244.715 2060.77 243.46 2076.97 221.696C2096 196.135 2101.28 150.128 2080.31 124.269C2071.03 112.828 2058.9 103.791 2045.53 97.7798C2045.47 97.751 2033.77 93.4561 2033.77 92.9523C2033.77 90.4147 2038.72 94.0663 2041.2 94.6233C2048.27 96.2145 2055.51 96.8277 2062.74 97.1609C2098.1 98.7905 2133.4 101.613 2168.82 101.865C2172.75 101.892 2178 101.877 2182.06 102.112C2183.49 102.195 2187.46 102.124 2186.27 102.917C2185.76 103.258 2184.27 102.979 2183.67 102.979" stroke="black" stroke-opacity="0.3" stroke-width="5" stroke-linecap="round"/>
<path d="M2008.89 18.4351C2017.98 28.1647 2017.21 40.4952 2013.9 52.4752C2008.98 70.3263 2000.57 86.8998 1996.14 104.959C1986.96 142.407 1982.27 193.21 2010.13 224.419C2028.24 244.714 2060.77 243.46 2076.97 221.695C2096 196.135 2101.28 150.128 2080.31 124.269C2071.04 112.828 2058.9 103.79 2045.53 97.7796C2045.47 97.7508 2033.77 93.4559 2033.77 92.952C2033.77 90.4145 2038.72 94.0661 2041.2 94.6231C2048.27 96.2143 2055.51 96.8275 2062.74 97.1606C2098.1 98.7903 2133.4 101.613 2168.82 101.864C2172.75 101.892 2178 101.877 2182.06 102.112C2183.49 102.195 2187.46 102.124 2186.27 102.917C2185.76 103.258 2184.28 102.978 2183.67 102.978" stroke="black" stroke-width="5" stroke-linecap="round"/>
<path d="M2902.52 4.92059C2903.39 4.79801 2873.46 5.25254 2871.82 4.8961C2843.79 4.05749 2827.01 6.98341 2797.41 5.50944C2796.27 5.45271 2778.61 3.6603 2787.48 4.05736C2804.78 4.83124 2823.43 15.3721 2832.26 27.8632C2845.4 46.4328 2854.27 64.2397 2862.09 85.3704C2871.7 111.294 2880.29 138.012 2884.82 165.301C2887.17 179.454 2898.97 235.066 2873.56 238.697C2849.37 242.155 2839.1 200.56 2838.7 184.442C2837.84 149.892 2853.64 121.448 2881.74 101.541C2887.26 97.6271 2912.15 88.343 2916.73 102.037C2923.94 123.592 2916.5 138.51 2915.12 160.285C2913.59 184.321 2913.84 214.722 2932.15 233.417C2947.08 248.663 2968.29 234.507 2977.46 220.48C2985.91 207.564 2986.73 192.13 2985.24 177.248C2983.37 158.639 2979.64 138.347 2971.7 121.211C2968.82 114.997 2959.35 106.173 2958.63 99.4292C2958.36 96.9282 2968.68 99.8594 2969.42 100.089C2987.35 105.647 3005.14 107.706 3023.99 107.878C3025.76 107.894 3033.63 109.066 3028.01 109.066" stroke="black" stroke-opacity="0.3" stroke-width="5" stroke-linecap="round"/>
<path d="M2916.73 102.037C2923.94 123.593 2916.5 138.51 2915.12 160.285C2913.59 184.321 2913.84 214.722 2932.15 233.417C2947.08 248.664 2968.29 234.507 2977.46 220.48C2985.91 207.564 2986.73 192.131 2985.24 177.248C2983.37 158.639 2979.64 138.347 2971.7 121.211C2968.82 114.997 2959.35 106.173 2958.63 99.4293C2958.36 96.9282 2968.68 99.8595 2969.42 100.089C2987.35 105.647 3005.14 107.706 3023.99 107.878C3025.76 107.894 3033.63 109.066 3028.01 109.066" stroke="black" stroke-width="5" stroke-linecap="round"/>
<line y1="504.5" x2="3090" y2="504.5" stroke="black" stroke-dasharray="10 10"/>
<line y1="592.5" x2="3090" y2="592.5" stroke="black" stroke-dasharray="10 10"/>
<line y1="444.5" x2="3090" y2="444.5" stroke="black" stroke-dasharray="10 10"/>
<line y1="354.5" x2="3090" y2="354.5" stroke="black" stroke-dasharray="10 10"/>
<path d="M163.973 356.104C182.985 356.104 126.382 359.194 107.41 360.418C102.65 360.725 12 362.566 12 357.686C12 357.416 30.1293 375.2 31.017 375.933C57.3689 397.702 78.909 424.125 94.8945 454.358C110.404 483.691 127.894 518.17 130.49 551.8C130.977 558.102 131.511 598.301 115.049 590.07C99.9615 582.526 90.1007 558.359 87.6615 542.697C84.0788 519.693 88.7013 497.201 104.484 479.795C120.337 462.311 138.837 453.237 160.023 443.161C170.038 438.397 182.871 432.692 191.149 443.161C197.112 450.702 228.745 491.762 201.245 502.262C182.745 504.262 164.245 484.762 164.245 475.262C164.245 465.762 170.245 456.762 185.745 456.762" stroke="black" stroke-opacity="0.3" stroke-width="5" stroke-linecap="round"/>
<path d="M163.973 356.104C182.985 356.104 126.382 359.194 107.41 360.418C102.65 360.725 12 362.566 12 357.686C12 357.416 30.1293 375.2 31.017 375.933C57.3689 397.702 78.909 424.125 94.8945 454.358C110.404 483.691 127.894 518.17 130.49 551.8C130.977 558.102 131.511 598.301 115.049 590.07C99.9615 582.526 90.1007 558.359 87.6615 542.697C84.0788 519.693 88.7013 497.201 104.484 479.795C120.337 462.311 138.837 453.237 160.023 443.161" stroke="black" stroke-width="5" stroke-linecap="round"/>
<path d="M529.705 491.04C525.044 495.701 533.946 498.191 537.994 499.817C559.933 508.629 586.431 502.222 605.773 490.065C614.799 484.391 630.155 465.283 624.952 452.133C618.114 434.848 593.533 426.73 577.654 422.063C548.7 413.555 516.264 410.222 486.145 412.474C481.471 412.823 458.856 415.975 459.001 415.887C515.367 381.577 584.592 376.882 646.407 358.023C656.9 354.822 653.555 361.641 655.103 370.214C660.348 399.263 675.707 426.23 687.692 452.864C702.1 484.882 715.176 517.761 713.454 553.638C712.757 568.163 705.647 585.913 690.13 591.085C676.299 595.696 677.493 575.54 677.777 567.86C678.777 540.855 686.712 513.597 702.727 491.711C717.973 470.874 724.979 462.957 746.696 448.717C748.592 447.474 755.652 441.99 758.48 444.166C760.493 445.714 759.038 447.265 758.074 448.229" stroke="black" stroke-opacity="0.3" stroke-width="5" stroke-linecap="round"/>
<path d="M655.103 370.214C660.348 399.263 675.707 426.231 687.692 452.865C702.1 484.882 715.176 517.762 713.454 553.638C712.757 568.164 705.647 585.913 690.13 591.085C676.299 595.696 677.493 575.54 677.777 567.86C678.777 540.855 686.712 513.598 702.727 491.711C717.973 470.875 724.979 462.957 746.696 448.717C748.592 447.474 755.652 441.99 758.48 444.166C760.493 445.714 759.038 447.266 758.074 448.229" stroke="black" stroke-width="5" stroke-linecap="round"/>
<path d="M960.576 480.131C962.16 494.39 1007.86 476.655 1013.73 472.816C1020.12 468.637 1028.53 461.25 1020.07 454.612C1008.7 445.702 994.324 446.78 981.056 449.736C971.679 451.825 952.419 455.572 948.711 466.478C944.719 478.219 958.446 489.075 967.403 493.296C987.596 502.814 1011.65 502.336 1033.39 501.423C1071.35 499.83 1111.16 496.238 1148.31 488.014C1163.62 484.622 1181.56 480.509 1189.92 465.99C1197.58 452.669 1193.79 441.826 1185.53 429.744C1163.01 396.793 1117.99 366.156 1079.47 363.975C1074.74 363.707 1052.85 360.741 1050.22 367.064C1046.43 376.143 1053.8 393.493 1055.82 402.009C1071.1 466.469 1070.68 528.753 1073.22 594.712" stroke="black" stroke-opacity="0.3" stroke-width="5" stroke-linecap="round"/>
<path d="M1033.39 501.423C1071.35 499.83 1111.16 496.238 1148.31 488.014C1163.62 484.622 1181.56 480.509 1189.92 465.99C1197.58 452.669 1193.79 441.826 1185.53 429.744C1163.01 396.793 1117.99 366.156 1079.47 363.975C1074.74 363.707 1052.85 360.741 1050.22 367.064C1046.43 376.143 1053.8 393.493 1055.82 402.009C1071.1 466.469 1070.68 528.753 1073.21 594.712" stroke="black" stroke-width="5" stroke-linecap="round"/>
<path d="M1557.25 363.975C1556.64 359.099 1446.95 370.01 1435.51 370.964C1426.81 371.689 1436.5 372.742 1440.87 376.653C1472.83 405.248 1488.48 433.128 1501.82 472.617C1510.18 497.372 1514.88 522.887 1516.69 548.929C1517.71 563.54 1520.77 578.314 1511.57 591.284C1496.22 612.93 1476 584.738 1474.52 570.79C1471.21 539.692 1500.25 516.382 1521.49 498.623C1552.36 472.814 1582.11 460.041 1595.61 420.471C1600.56 405.941 1598.44 394.917 1596.83 380.405C1595.98 372.791 1600.87 395.339 1601.05 402.998C1601.93 439.336 1601.71 464.994 1600.32 501.305C1599.52 522.086 1599.18 537.066 1597.56 557.801C1596.63 569.644 1595.2 581.99 1588.78 592.259C1579.23 607.537 1575.8 593.829 1573.5 581.532C1568.35 553.953 1582.99 527.39 1600.64 506.832C1610.77 495.04 1623.56 485.832 1636.57 477.493C1645.44 471.803 1655.82 466.572 1662.08 457.745C1666.16 452.008 1660.31 449.374 1655.26 449.374" stroke="black" stroke-opacity="0.3" stroke-width="5" stroke-linecap="round"/>
<path d="M1595.61 420.471C1600.56 405.942 1598.44 394.917 1596.83 380.406C1595.98 372.791 1600.87 395.339 1601.05 402.999C1601.93 439.336 1601.71 464.995 1600.32 501.305C1599.52 522.086 1599.18 537.066 1597.56 557.801C1596.63 569.644 1595.2 581.99 1588.78 592.26C1579.23 607.538 1575.8 593.829 1573.5 581.532C1568.35 553.954 1582.99 527.39 1600.64 506.832C1610.77 495.04 1623.56 485.832 1636.57 477.494C1645.44 471.804 1655.82 466.572 1662.08 457.745C1666.16 452.008 1660.31 449.375 1655.26 449.375" stroke="black" stroke-width="5" stroke-linecap="round"/>
<path d="M2299 478.718C2299 499.538 2336.5 498.933 2350.29 496.917C2362.78 495.091 2385.6 491.561 2393.56 479.991C2401.48 468.472 2388.87 459.466 2378.92 456.701C2368.21 453.726 2353.34 453.91 2344.24 461.219C2334.41 469.118 2342.58 479.998 2350.35 485.59C2368.58 498.715 2393.26 502.629 2415.13 504.235C2444.39 506.384 2474.01 504.276 2503.01 500.226C2535.78 495.648 2604.82 487.271 2597.31 439.139C2589.87 391.474 2526.5 366.906 2485.89 361.134C2469.08 358.746 2446.84 357.348 2433.77 370.807C2420.54 384.436 2432.16 413.722 2437.85 427.939C2448.88 455.537 2457.6 481.696 2459.61 511.616C2461.02 532.665 2460.5 571.845 2460.5 592.93" stroke="black" stroke-opacity="0.3" stroke-width="5" stroke-linecap="round"/>
<path d="M2415.13 504.235C2444.39 506.384 2474.01 504.276 2503.01 500.226C2535.78 495.648 2604.82 487.271 2597.31 439.139C2589.87 391.474 2526.5 366.906 2485.89 361.134C2469.08 358.746 2446.84 357.348 2433.77 370.807C2420.54 384.436 2432.16 413.722 2437.85 427.939C2448.88 455.537 2457.6 481.696 2459.61 511.616C2461.02 532.665 2460.5 571.845 2460.5 592.93" stroke="black" stroke-width="5" stroke-linecap="round"/>
<path d="M1831.49 484.591C1832.42 490.161 1837.36 492.849 1842.18 494.838C1866.48 504.872 1893.47 508.422 1919.56 505.457C1947.69 502.261 2020.68 472.887 1979.71 436.174C1963.99 422.092 1941.93 414.137 1921.94 408.698C1893.97 401.092 1864.69 398.518 1835.94 402.534C1826.37 403.871 1811.98 404.263 1803.19 408.995C1801.86 409.715 1807.81 406.128 1808.62 405.727C1823.37 398.352 1839.78 393.644 1855.7 389.687C1892.32 380.582 1929.62 373.111 1967.08 368.524C1989.96 365.722 2013.42 362.764 2036.52 363.177C2050.32 363.423 2055.88 365.433 2058.72 379.143C2070.23 434.692 2053.47 490.395 2046.17 545.26C2044.69 556.369 2030.85 603.01 2045.35 603.01" stroke="black" stroke-opacity="0.3" stroke-width="5" stroke-linecap="round"/>
<path d="M2036.52 363.177C2050.32 363.423 2055.88 365.433 2058.72 379.142C2070.22 434.692 2053.47 490.395 2046.17 545.26C2044.69 556.369 2030.85 603.01 2045.35 603.01" stroke="black" stroke-width="5" stroke-linecap="round"/>
<path d="M2895.22 357.954C2865.08 356.116 2835.59 357.954 2804.92 358.003C2792.96 358.022 2780.88 358.141 2786.36 361.181C2793.85 365.346 2799.21 372.087 2803.36 378.87C2818.79 404.092 2831.79 412.82 2842.79 440.253C2856.17 473.616 2869.86 511.817 2865.81 548.374C2863.83 566.28 2857.12 581.28 2839.23 590.059C2825.47 596.81 2809.08 589.211 2808.41 573.424C2807.49 551.754 2823.45 540.827 2835.59 524.388C2854.81 498.367 2875.52 473.43 2895.29 447.827C2910.48 428.157 2930.04 407.818 2939.4 384.41C2940.81 380.901 2941.49 377.337 2941.11 373.568C2941.09 373.393 2940 367.412 2938.74 370.152C2932.86 382.891 2935.35 403.52 2935.02 416.935C2934.03 457.231 2935.74 497.567 2933.31 537.829C2932.47 551.765 2930.72 565.661 2930.72 579.637C2930.72 581.833 2931.69 575.89 2932.05 574.81" stroke="black" stroke-opacity="0.3" stroke-width="5" stroke-linecap="round"/>
<path d="M2939.4 384.41C2940.81 380.901 2941.49 377.337 2941.11 373.568C2941.09 373.393 2940 367.412 2938.74 370.152C2932.86 382.891 2935.35 403.52 2935.02 416.936C2934.03 457.231 2935.74 497.567 2933.31 537.83C2932.47 551.765 2930.72 565.661 2930.72 579.637C2930.72 581.833 2931.69 575.89 2932.05 574.811" stroke="black" stroke-width="5" stroke-linecap="round"/>
<line y1="855.5" x2="3090" y2="855.5" stroke="black" stroke-dasharray="10 10"/>
<line y1="943.5" x2="3090" y2="943.5" stroke="black" stroke-dasharray="10 10"/>
<line y1="795.5" x2="3090" y2="795.5" stroke="black" stroke-dasharray="10 10"/>
<line y1="705.5" x2="3090" y2="705.5" stroke="black" stroke-dasharray="10 10"/>
<path d="M85.4218 791.792C84.3272 781.941 107.334 785.017 113.228 785.687C128.052 787.371 146.958 794.483 151.984 810.307C155.93 822.728 145.048 834.637 135.393 840.636C100.063 862.588 51.4077 858.581 26.4911 827.408C12.1216 809.431 6.20189 785.484 19.1911 765.159C33.8064 742.291 59.405 733.142 83.9618 723.245C128.522 705.287 175.388 697.5 218.414 725.426C236.388 737.092 247.888 745.5 262.944 758.757C279.888 773.676 282.097 781.158 286.37 796.039C293.477 820.791 277.39 853.507 249.074 854.306C234.935 854.706 226.187 841.473 232.35 828.425C239.074 814.19 255.969 809.809 269.381 804.932" stroke="black" stroke-opacity="0.3" stroke-width="5" stroke-linecap="round"/>
<path d="M85.4218 791.792C84.3272 781.941 107.334 785.017 113.228 785.687C128.052 787.371 146.958 794.483 151.984 810.307C155.93 822.728 145.048 834.637 135.393 840.636C100.063 862.588 51.4077 858.581 26.4911 827.408C12.1216 809.431 6.20189 785.484 19.1911 765.159C33.8064 742.291 59.405 733.142 83.9618 723.245C128.522 705.287 175.388 697.5 218.414 725.426" stroke="black" stroke-width="5" stroke-linecap="round"/>
<path d="M546.028 841.468C546.911 841.468 544.981 841.308 545.458 842.322C548.181 848.107 557.772 851.582 563.33 852.851C576.711 855.908 591.447 854.426 604.251 849.778C613.604 846.383 627.784 836.764 632.993 827.451C643.128 809.332 592.257 800.442 584.388 798.767C552.346 791.944 516.855 788.105 484.332 793.872C476.26 795.303 468.401 797.866 460.485 799.962C457.059 800.869 460.487 799.558 461.566 798.539C470.675 789.937 480.035 781.93 490.365 774.749C523.931 751.416 561.404 736.702 600.438 724.704C617.586 719.434 635.032 714.298 652.685 710.988C663.414 708.976 676.245 705.887 687.176 708.199C704.827 711.933 704.037 735.314 705.844 749.405C709.367 776.892 710.962 801.659 716.088 828.931C716.336 830.25 723.451 857.99 725.536 856.136C727.871 854.061 726.394 847.038 726.609 842.729C727.219 830.505 727.53 819.873 735.179 810.832C743.981 800.43 762.331 797.279 775.247 798.994C787.53 800.626 796.374 804.859 809.054 801.84C812.662 800.981 819.451 799.231 812.583 797.514" stroke="black" stroke-opacity="0.3" stroke-width="5" stroke-linecap="round"/>
<path d="M687.176 708.199C704.827 711.933 704.037 735.315 705.843 749.405C709.367 776.892 710.962 801.659 716.088 828.931C716.336 830.25 723.451 857.99 725.536 856.137C727.871 854.061 726.394 847.038 726.609 842.729C727.219 830.505 727.53 819.873 735.179 810.833C743.981 800.43 762.331 797.279 775.247 798.994C787.53 800.626 796.374 804.859 809.054 801.84C812.662 800.981 819.451 799.232 812.583 797.515" stroke="black" stroke-width="5" stroke-linecap="round"/>
<path d="M959.56 830.045C956.252 830.045 958.063 832.336 960.176 833.498C971.524 839.739 985.143 840.958 997.416 836.828C1006.48 833.776 1021.42 825.079 1014.56 813.83C1006.77 801.069 989.991 796.6 976.207 801.067C964.084 804.996 943.973 818.466 948.708 833.806C954.066 851.166 980.285 855.233 995.32 856.434C1019.37 858.355 1051.04 856.033 1070.82 842.262C1083.56 833.389 1089.87 813.976 1090.02 797.244M1089.16 792.559C1094.74 810.535 1083.18 830.742 1097.82 845.762C1124.32 861.262 1163.93 853.655 1191.82 851.132C1203.8 850.047 1215.42 851.132 1227.45 851.132C1231.85 851.132 1227.23 851.979 1225.91 852.242" stroke="black" stroke-opacity="0.3" stroke-width="5" stroke-linecap="round"/>
<path d="M1089.16 792.559C1094.74 810.535 1083.18 830.742 1097.82 845.762C1124.32 861.262 1163.93 853.655 1191.82 851.132C1203.8 850.047 1215.42 851.132 1227.46 851.132C1231.85 851.132 1227.23 851.979 1225.91 852.242" stroke="black" stroke-width="5" stroke-linecap="round"/>
<path d="M1570.44 717.281C1539.34 717.281 1512.18 716.156 1480.84 716.156C1464.18 716.156 1448.46 715.088 1432.2 712.586C1431.24 712.438 1434.08 714.392 1434.29 714.62C1440.54 721.324 1444.97 729.963 1449.77 737.68C1469.2 768.919 1484.24 789.605 1493.43 825.487C1500.46 852.919 1505.83 910.695 1492.75 937.293C1487.14 948.701 1474.86 952.14 1471.91 937.416C1466.61 910.9 1471.68 856.01 1485.11 832.516C1494.82 815.524 1513.57 803.639 1533.57 804.586C1552.08 805.462 1557.72 818.577 1558.05 835.475C1558.3 848.356 1557.18 849.856 1559.37 862.49C1559.84 864.109 1561.72 859.913 1562.2 858.298C1564.49 850.718 1565.18 843.356 1566.66 835.793C1569.6 820.856 1569.47 811.408 1585.35 807.218C1601.12 803.054 1628.73 804.815 1644.24 807.322C1659.66 809.814 1675.47 809.351 1691.04 810.686C1696.79 811.178 1697.62 810.153 1692.52 807.603" stroke="black" stroke-opacity="0.3" stroke-width="5" stroke-linecap="round"/>
<path d="M1558.05 835.475C1558.3 848.356 1557.18 849.856 1559.37 862.49C1559.84 864.109 1561.72 859.913 1562.2 858.297C1564.49 850.718 1565.18 843.356 1566.66 835.793C1569.6 820.856 1569.47 811.408 1585.35 807.218C1601.12 803.054 1628.73 804.815 1644.24 807.322C1659.66 809.813 1675.47 809.351 1691.04 810.686C1696.79 811.178 1697.62 810.153 1692.52 807.603" stroke="black" stroke-width="5" stroke-linecap="round"/>
<path d="M1559.37 862.49C1559.84 864.109 1561.72 859.913 1562.2 858.297C1564.49 850.718 1565.18 843.356 1566.66 835.793C1569.6 820.856 1569.47 811.408 1585.35 807.218C1601.12 803.054 1628.73 804.815 1644.24 807.322C1659.66 809.813 1675.47 809.351 1691.04 810.686C1696.79 811.178 1697.62 810.153 1692.52 807.603" stroke="black" stroke-width="5" stroke-linecap="round"/>
<path d="M2299.51 848.135C2296.36 848.135 2308.74 853.532 2309.67 853.785C2331.32 859.619 2355.02 853.401 2373.22 841.197C2381.32 835.762 2388.96 828.97 2390.89 818.94C2392.14 812.461 2390.65 804.904 2385.24 800.665C2378.35 795.266 2365.47 794.463 2358.89 800.893C2350.94 808.658 2343.82 821.05 2347.59 832.362C2352.93 848.369 2372.82 851.5 2387.36 852.458C2399.36 853.248 2411.42 852.546 2423.19 850.031C2432.24 848.1 2442.33 845.135 2448.63 837.898C2457.27 827.988 2458.47 812.487 2451.48 801.575C2450.52 800.073 2448.61 798.937 2450.19 800.513C2452.25 802.57 2454.02 807.152 2454.69 809.841C2457.54 821.215 2457.82 832.817 2465.81 841.841C2474.96 852.174 2487.22 848.765 2501.03 850.785C2524.53 850.785 2541.03 852.762 2562.53 852.762C2574.03 852.762 2585.88 851.914 2596.39 849.23C2602.82 847.588 2610.42 845.746 2615.43 841.041C2623.86 833.102 2620.03 819.882 2613.3 812.267C2610.74 809.371 2607.3 806.998 2603.82 805.329C2602.23 804.563 2603.56 806.055 2603.9 806.504" stroke="black" stroke-opacity="0.3" stroke-width="5" stroke-linecap="round"/>
<path d="M2448.63 837.898C2457.27 827.988 2458.47 812.487 2451.48 801.575C2450.52 800.073 2448.61 798.937 2450.19 800.513C2452.25 802.57 2454.02 807.152 2454.69 809.841C2457.54 821.215 2457.82 832.817 2465.81 841.841C2474.96 852.174 2487.22 848.765 2501.03 850.785C2524.53 850.785 2541.03 852.762 2562.53 852.762C2574.03 852.762 2585.88 851.914 2596.39 849.23C2602.82 847.588 2610.42 845.746 2615.43 841.04C2623.86 833.102 2620.03 819.882 2613.3 812.267C2610.74 809.371 2607.3 806.998 2603.82 805.329C2602.23 804.563 2603.56 806.055 2603.9 806.504" stroke="black" stroke-width="5" stroke-linecap="round"/>
<path d="M1863.15 846.162C1864.45 846.162 1862.28 846.568 1862.03 846.8C1858.94 849.721 1874.42 851.869 1874.63 851.903C1891.5 854.748 1908.53 854.513 1925.18 850.309C1939.71 846.642 1958.99 840.616 1969.28 828.86C1987.98 807.488 1948.75 793.182 1933.95 790.507C1898.18 784.039 1860.99 789.936 1826.47 800.234C1819.4 802.344 1812.73 805.157 1805.9 807.889C1804.32 808.519 1801.64 808.801 1803.82 806.613C1819.25 791.192 1842.63 779.135 1860.84 767.782C1901.88 742.191 1915.23 723.823 1962.51 712.698C1976.72 709.354 1994.48 704.604 2008.76 710.465C2019.19 714.748 2021.97 726.659 2023.75 736.618C2029.8 770.6 2030.87 785.63 2036.39 819.797C2036.66 821.483 2041.08 855.976 2043.55 854.243C2045.05 846.262 2045.05 844.262 2045.05 839.332C2045.05 818.262 2054.59 814.18 2070.79 805.617C2093.84 793.426 2102.24 793.324 2135.66 794.294C2154.57 794.844 2168.18 797.262 2183.74 799.102C2199.3 800.942 2213.09 801.25 2224.96 809.332C2244.63 822.712 2243.55 838.754 2226.24 851.738" stroke="black" stroke-opacity="0.3" stroke-width="5" stroke-linecap="round"/>
<path d="M2036.39 819.797C2036.66 821.483 2041.08 855.976 2043.55 854.243C2045.05 846.262 2045.05 844.262 2045.05 839.332C2045.05 818.262 2054.59 814.181 2070.79 805.617C2093.84 793.426 2102.24 793.324 2135.66 794.295C2154.57 794.844 2168.18 797.262 2183.74 799.102C2199.3 800.942 2213.09 801.25 2224.96 809.332C2244.63 822.712 2243.55 838.754 2226.24 851.738" stroke="black" stroke-width="5" stroke-linecap="round"/>
<path d="M2966.38 713.167C2962.57 713.167 2959.77 711.601 2956.02 711.014C2938.57 708.287 2920.5 708.861 2902.91 708.861C2863.63 708.861 2824.35 708.861 2785.06 708.861C2784.45 708.861 2788.58 709.835 2788.73 709.897C2797.23 713.349 2804.01 721.514 2810.1 727.997C2843 763.049 2868.32 806.589 2877.56 854.14C2883.02 882.268 2884.5 918.763 2858.9 938.5C2833.64 957.968 2844.41 892.722 2846.3 885.715C2854.19 856.521 2874.08 822.233 2898.61 803.747C2915.94 790.681 2923.97 806.262 2928.91 822.724C2932.22 833.762 2931.22 830.262 2932.73 835.974C2934.62 843.123 2935.93 849.901 2939.11 854.393C2940.04 855.697 2941.28 842.823 2941.34 842.193C2942.49 831.391 2942.8 829.021 2946.72 821.762C2957.59 801.637 2980.78 803.692 3001.47 800.956C3025.46 797.784 3054.75 801.897 3070.2 822.963C3075.46 830.141 3079.77 837.654 3079.77 846.645C3079.77 853.292 3073.9 855.491 3073.22 852.762" stroke="black" stroke-opacity="0.3" stroke-width="5" stroke-linecap="round"/>
<path d="M2939.11 854.393C2940.04 855.697 2941.28 842.823 2941.34 842.193C2942.49 831.391 2942.8 829.021 2946.72 821.762C2957.59 801.637 2980.78 803.692 3001.47 800.956C3025.46 797.784 3054.75 801.897 3070.2 822.963C3075.46 830.141 3079.77 837.654 3079.77 846.645C3079.77 853.292 3073.9 855.491 3073.22 852.762" stroke="black" stroke-width="5" stroke-linecap="round"/>
<line y1="1206.5" x2="3090" y2="1206.5" stroke="black" stroke-dasharray="10 10"/>
<line y1="1294.5" x2="3090" y2="1294.5" stroke="black" stroke-dasharray="10 10"/>
<line y1="1146.5" x2="3090" y2="1146.5" stroke="black" stroke-dasharray="10 10"/>
<line y1="1056.5" x2="3090" y2="1056.5" stroke="black" stroke-dasharray="10 10"/>
<path d="M69.7138 1188.61C74.455 1214.69 122.001 1206.37 137.362 1201.1C153.69 1195.51 181.109 1182.1 182.783 1162C184.546 1140.85 155.933 1134.79 140.336 1133.6C111.415 1131.39 91.0533 1133.66 62.9132 1139.46C39.771 1143.12 39.271 1143.12 14.5886 1144.92C7.44975 1146.7 17.1721 1141.47 18.7516 1140.38C41.3692 1124.86 42.8984 1121.2 66.4814 1107.19C120.396 1075.18 155.675 1064.01 219.394 1055.77C236.057 1053.62 240.271 1057.5 252.995 1072.28C271.271 1096 277.46 1106.42 290.246 1133.45C297.863 1149.56 309.93 1173.66 299.984 1191.36C290.998 1207.36 264.77 1201.5 252.853 1192.33C235.355 1178.87 244.271 1161.76 257.771 1155.26C270.771 1149.76 274.271 1149.76 290.771 1151.76" stroke="black" stroke-opacity="0.3" stroke-width="5" stroke-linecap="round"/>
<path d="M69.7138 1188.61C74.455 1214.69 122.001 1206.37 137.362 1201.1C153.69 1195.51 181.109 1182.1 182.783 1162C184.546 1140.85 155.933 1134.79 140.336 1133.6C111.415 1131.39 91.0533 1133.66 62.9132 1139.46C39.771 1143.12 39.271 1143.12 14.5886 1144.92C7.44975 1146.7 17.1721 1141.47 18.7516 1140.38C41.3692 1124.86 42.8984 1121.2 66.4814 1107.19C120.396 1075.18 155.675 1064.01 219.394 1055.77" stroke="black" stroke-width="5" stroke-linecap="round"/>
<path d="M540.437 1193.71C538.012 1191.56 540.05 1193.01 542.37 1194.01C555.439 1199.61 568.379 1203.87 582.736 1204.71C603.963 1205.96 625.475 1200.25 644.363 1190.81C657.822 1184.08 673.049 1174.84 675.734 1158.73C682.098 1120.55 607.621 1124.96 586.378 1125.41C544.2 1126.31 502.176 1136.33 463.273 1152.25C442.98 1160.55 500.535 1129.13 519.325 1117.83C562.446 1091.9 608.61 1062.28 659.974 1057.17C678.403 1055.33 690.376 1061.62 698.779 1078.43C710.262 1101.4 715.539 1125.98 730.298 1147.57C744.716 1168.65 764.012 1188.13 786.052 1201.24C791.511 1204.48 798.035 1208.07 804.34 1209.49C808.261 1210.37 805.381 1208.27 805.381 1206.74" stroke="black" stroke-opacity="0.3" stroke-width="5" stroke-linecap="round"/>
<path d="M698.779 1078.43C710.262 1101.4 715.539 1125.98 730.298 1147.57C744.716 1168.65 764.012 1188.13 786.052 1201.24C791.511 1204.48 798.035 1208.07 804.34 1209.49C808.261 1210.37 805.381 1208.27 805.381 1206.74" stroke="black" stroke-width="5" stroke-linecap="round"/>
<path d="M767.252 1146.85C781.142 1146.85 794.425 1160.77 804.421 1168.56C823.634 1183.51 843.278 1199.52 867.609 1204.39" stroke="black" stroke-width="5" stroke-linecap="round"/>
<path d="M982.778 1176.25C974.584 1176.25 999.34 1176.59 1007.31 1174.69C1023.51 1170.82 1020.65 1158.39 1008.65 1149.71C994.159 1139.23 973.704 1145.68 960.178 1154.54C939.979 1167.78 946.96 1187.74 966.126 1197.66C992.301 1211.2 1025.43 1211.62 1050.95 1196.24C1065.18 1187.67 1077.07 1165.36 1071.69 1148.44C1071.06 1146.47 1069.69 1145.82 1070.05 1148.74C1071.06 1156.82 1076.44 1164.56 1080.76 1171.19C1089.84 1185.14 1101.78 1202.31 1117.93 1208.36" stroke="black" stroke-opacity="0.3" stroke-width="5" stroke-linecap="round"/>
<path d="M1071.69 1148.44C1071.06 1146.47 1069.69 1145.82 1070.05 1148.74C1071.06 1156.82 1076.44 1164.56 1080.76 1171.19C1089.84 1185.14 1101.78 1202.31 1117.93 1208.36" stroke="black" stroke-width="5" stroke-linecap="round"/>
<path d="M1107.22 1145.47C1107.52 1145.47 1117.88 1164.14 1119.86 1168.96C1128.03 1188.91 1133.39 1201.06 1156.73 1202.71C1183.87 1204.64 1211.11 1201.01 1238.28 1201.75C1248.97 1202.03 1259.37 1203.97 1269.8 1206.21C1276.94 1207.74 1269.31 1208.01 1266.45 1208.36" stroke="black" stroke-width="5" stroke-linecap="round"/>
<path d="M1559.47 1065.25C1560.86 1065.25 1565.02 1065.25 1563.63 1065.25C1555.6 1065.25 1547.57 1065.25 1539.55 1065.25C1503.75 1065.25 1468.92 1061.4 1433.54 1066.98C1430.32 1067.49 1432.89 1067.8 1434.58 1070.11C1442.34 1080.68 1450.08 1097.47 1456.43 1108.96C1468.63 1131.02 1477 1155.27 1484.83 1179.14C1493.6 1205.84 1504.52 1237.31 1497.32 1265.67C1494.07 1278.48 1486.68 1294.46 1473.16 1299.05C1463.84 1302.21 1456.41 1299.23 1454.06 1289.31C1449.11 1268.43 1456.8 1243.31 1463.35 1223.67C1470.82 1201.24 1482.53 1180.25 1499.33 1163.45C1508.51 1154.27 1523.51 1141.13 1537.76 1142.12C1550.02 1142.96 1555.85 1162.66 1559.39 1171.85C1565.59 1187.93 1571.02 1203.96 1579.76 1218.91C1583.36 1225.06 1583.55 1223.17 1583.55 1217.79" stroke="black" stroke-opacity="0.3" stroke-width="5" stroke-linecap="round"/>
<path d="M1499.33 1163.45C1508.51 1154.27 1523.51 1141.14 1537.76 1142.12C1550.02 1142.96 1555.85 1162.66 1559.39 1171.85C1565.59 1187.93 1571.02 1203.96 1579.76 1218.91C1583.36 1225.06 1583.55 1223.17 1583.55 1217.8" stroke="black" stroke-width="5" stroke-linecap="round"/>
<path d="M1583.55 1149.55C1576.13 1130.59 1580.01 1196.27 1595.52 1209.47C1609.46 1221.33 1638.92 1218.58 1655.96 1217.5C1657.05 1217.43 1669.42 1215.01 1663.84 1217.8" stroke="black" stroke-width="5" stroke-linecap="round"/>
<path d="M2362.52 1201.32C2359.81 1194.1 2366.8 1200.02 2372.34 1201.24C2390.37 1205.25 2410.2 1204.9 2427.79 1199.09C2439.15 1195.34 2458.92 1186.86 2458.35 1171.96C2457.84 1158.77 2439.77 1157.27 2430.02 1158.35C2418.71 1159.6 2405.65 1168 2412.7 1180.65C2422.99 1199.12 2450.33 1202.24 2468.98 1203.7C2493.57 1205.62 2522.93 1206.53 2546.44 1197.53C2561.64 1191.7 2579.47 1178.47 2568.74 1160.58C2558.42 1143.38 2536.57 1134.64 2518.78 1128.02C2490.28 1117.41 2460.16 1111.93 2430.02 1108.54C2397.22 1104.86 2362.76 1105.65 2330.26 1111.67C2320.13 1113.54 2290.95 1123.55 2301.12 1121.93C2305.35 1121.25 2309.47 1118.71 2313.31 1117.02C2326.18 1111.34 2339.57 1107 2353.01 1102.89C2394.6 1090.19 2437.63 1082.11 2480.5 1075.09C2518.63 1068.85 2557 1064.34 2595.35 1059.78C2595.6 1059.75 2616.85 1058.14 2607.4 1058.14" stroke="black" stroke-opacity="0.3" stroke-width="5" stroke-linecap="round"/>
<path d="M2468.98 1203.7C2493.57 1205.62 2522.93 1206.53 2546.44 1197.53C2561.64 1191.7 2579.47 1178.47 2568.74 1160.58C2558.42 1143.38 2536.57 1134.64 2518.78 1128.02C2490.28 1117.41 2460.16 1111.93 2430.02 1108.54C2397.22 1104.86 2362.76 1105.65 2330.26 1111.67C2320.13 1113.54 2290.95 1123.55 2301.12 1121.93C2305.35 1121.25 2309.47 1118.71 2313.31 1117.02C2326.18 1111.34 2339.57 1107 2353.01 1102.89C2394.6 1090.19 2437.63 1082.11 2480.5 1075.09C2518.63 1068.85 2557 1064.34 2595.35 1059.78C2595.6 1059.75 2616.85 1058.14 2607.4 1058.14" stroke="black" stroke-width="5" stroke-linecap="round"/>
<path d="M1876.69 1194.33C1886.47 1197.52 1895.24 1202.66 1905.46 1204.67C1926.07 1208.72 1945.79 1206.5 1964.71 1197.53C1980.07 1190.25 1990.43 1182.76 1993.25 1165.44C1995.49 1151.75 1990.09 1141.51 1977.27 1136.08C1958.04 1127.93 1933.72 1129.94 1913.64 1132.81C1889.82 1136.21 1866.27 1143.05 1843.02 1149.09C1830.36 1152.37 1818.01 1156.18 1805.62 1160.31C1798.61 1162.65 1807.75 1158.21 1809.04 1157.56C1850.26 1136.96 1892.82 1119.29 1932.89 1096.38C1950.72 1086.19 1966.83 1073.41 1984.48 1063.08C1990.59 1059.5 1998.23 1056.59 2005 1060.25C2020.14 1068.45 2026.87 1088.62 2033.55 1103.22C2045.17 1128.63 2055.98 1154.34 2071.01 1178.01C2078.4 1189.64 2078 1195.03 2090.9 1201.84C2095.92 1204.49 2092.43 1198.78 2091.49 1197.38" stroke="black" stroke-opacity="0.3" stroke-width="5" stroke-linecap="round"/>
<path d="M2033.55 1103.22C2045.17 1128.63 2055.98 1154.34 2071.01 1178.01C2078.4 1189.64 2078 1195.03 2090.9 1201.84C2095.92 1204.49 2092.43 1198.78 2091.49 1197.38" stroke="black" stroke-width="5" stroke-linecap="round"/>
<path d="M2088.82 1146.12C2088.82 1141.76 2096.51 1154.85 2097.44 1156.67C2102.3 1166.22 2105.16 1177.03 2111.27 1185.89C2120.69 1199.56 2137.62 1202.87 2153.19 1203.36C2186.39 1204.41 2219.67 1200.02 2252.96 1201.06C2253.77 1201.08 2267.88 1201.77 2264.11 1203.66" stroke="black" stroke-width="5" stroke-linecap="round"/>
<path d="M2941.91 1057.16C2943.21 1057.16 2945.17 1057.16 2942.35 1057.16C2931.6 1057.16 2920.84 1057.2 2910.09 1056.86C2869.77 1055.57 2829.53 1058.33 2789.21 1057.47C2785.48 1057.39 2784.05 1055.42 2785.65 1057.02C2792.72 1064.1 2799 1073.37 2804.38 1081.7C2820.43 1106.54 2831.45 1126.95 2842.14 1154.39C2856.85 1192.15 2862.16 1196.81 2868.5 1237.1C2871.02 1253.09 2873.03 1274.32 2860.32 1286.91C2850.67 1296.47 2839.18 1291.65 2834.6 1280.07C2815.44 1231.57 2855.02 1206.59 2894.03 1176.84C2907.06 1166.91 2929.13 1150.28 2946.66 1150.67C2960.25 1150.98 2960.54 1176.39 2962.27 1185.32C2964.49 1196.74 2966.37 1210.6 2972.38 1220.85C2974.36 1224.22 2974.02 1216.03 2974.02 1215.05" stroke="black" stroke-opacity="0.3" stroke-width="5" stroke-linecap="round"/>
<path d="M2946.66 1150.67C2960.25 1150.98 2960.54 1176.39 2962.27 1185.32C2964.49 1196.74 2966.37 1210.6 2972.38 1220.85C2974.36 1224.22 2974.02 1216.03 2974.02 1215.05" stroke="black" stroke-width="5" stroke-linecap="round"/>
<path d="M2980.71 1147.49C2981.6 1139.48 2987.06 1151.57 2987.33 1153.88C2989.2 1169.78 2982.27 1196.28 3000.48 1204.13C3010.65 1208.52 3054.79 1206.43 3065.42 1206.29" stroke="black" stroke-width="5" stroke-linecap="round"/>
<line y1="1557.5" x2="3090" y2="1557.5" stroke="black" stroke-dasharray="10 10"/>
<line y1="1645.5" x2="3090" y2="1645.5" stroke="black" stroke-dasharray="10 10"/>
<line y1="1497.5" x2="3090" y2="1497.5" stroke="black" stroke-dasharray="10 10"/>
<line y1="1407.5" x2="3090" y2="1407.5" stroke="black" stroke-dasharray="10 10"/>
<path d="M13.3521 1510.29C13.3521 1510.13 13.4314 1507.82 12.7802 1508.32C9.81248 1510.62 16.2038 1524.41 17.1012 1526.5C30.5439 1557.71 79.1411 1565.83 106.635 1547.57C123.761 1536.19 126.125 1517.11 125.635 1498.4C125.118 1478.67 121.715 1447.07 120.361 1427.38C119.997 1422.1 119.725 1416.84 119.725 1411.55C119.725 1407.64 119.981 1419.36 120.361 1423.25C122.963 1449.92 125.268 1490.23 130.01 1516.08C141.516 1553.3 188.943 1569.26 221.26 1557.3C235.102 1552.17 248.504 1544.4 255.955 1531.54C261.569 1521.85 266.087 1506.96 256.082 1498.27C245.749 1489.31 230.432 1494.54 224.945 1506.04C218.306 1519.94 234.623 1531.39 242.992 1539.8" stroke="black" stroke-opacity="0.3" stroke-width="5" stroke-linecap="round"/>
<path d="M13.3521 1510.29C13.3521 1510.13 13.4314 1507.82 12.7802 1508.32C9.81248 1510.62 16.2038 1524.41 17.1012 1526.5C30.5439 1557.71 79.1411 1565.83 106.635 1547.57C123.761 1536.19 126.125 1517.11 125.635 1498.4C125.118 1478.67 121.715 1447.07 120.361 1427.38C119.997 1422.1 119.725 1416.84 119.725 1411.55C119.725 1407.64 119.981 1419.36 120.361 1423.25" stroke="black" stroke-width="5" stroke-linecap="round"/>
<path d="M548.64 1536.5C541.939 1545.89 552.081 1550.62 560.162 1553.6C586.267 1563.2 614.615 1555.44 636.708 1539.81C652.736 1528.47 665.701 1514.22 652.468 1495.88C633.674 1469.85 595.11 1478.98 567.909 1484.24C536.239 1490.37 504.901 1500.72 474.809 1512.28C469.792 1514.21 455.244 1521.11 459.91 1518.44C466.124 1514.89 472.362 1509.84 478.053 1505.52C508.736 1482.21 538.812 1459.03 571.816 1438.91C593.164 1425.89 625.179 1403.94 652.07 1409.35C678.708 1414.7 690.173 1446.08 697.627 1468.6C707.479 1498.36 713.662 1529.3 717.889 1560.33C721.748 1588.65 726.437 1608.13 729.676 1636.5C731.577 1653.15 733.549 1630.4 734.046 1625.7C736.84 1599.25 741.065 1582.58 751.527 1557.94C759.135 1540.03 771.939 1516.39 790.529 1507.44C792.526 1506.48 805.012 1503.36 801.322 1508.9" stroke="black" stroke-opacity="0.3" stroke-width="5" stroke-linecap="round"/>
<path d="M697.627 1468.6C707.479 1498.36 713.662 1529.3 717.889 1560.33C721.748 1588.65 726.437 1608.13 729.676 1636.5C731.577 1653.15 733.549 1630.4 734.046 1625.7C736.84 1599.25 741.065 1582.58 751.527 1557.94C759.135 1540.03 771.939 1516.39 790.529 1507.44C792.526 1506.48 805.012 1503.36 801.322 1508.9" stroke="black" stroke-width="5" stroke-linecap="round"/>
<path d="M959.313 1528.33C967.886 1528.82 975.654 1534.15 984.645 1534.72C993.74 1535.29 1019.78 1531.89 1015.12 1515.93C1009.47 1496.63 981.07 1497.54 967.129 1503.68C949.843 1511.29 938.247 1536.62 959.457 1549.33C981.976 1562.83 1017.04 1558.1 1040.95 1551.66C1069.63 1543.94 1104.54 1526.85 1111.6 1493.94C1112.15 1471.37 1110.96 1445.35 1109.71 1421.18C1109.71 1417.78 1109.13 1415.02 1109.13 1411.86C1109.13 1400.37 1111.14 1427.2 1111.14 1427.2C1112.46 1450.56 1111.44 1468.1 1114.49 1488.3C1117.38 1507.49 1124.09 1523.33 1138.52 1536.1C1150 1546.27 1163.14 1548.88 1177.89 1549.56C1199.88 1550.56 1222.65 1551.13 1244.48 1548.62C1262.36 1546.57 1280.34 1547.38 1298.18 1544.98C1301.43 1544.54 1294.04 1547.36 1292.83 1547.98" stroke="black" stroke-opacity="0.3" stroke-width="5" stroke-linecap="round"/>
<path d="M1109.71 1421.18C1109.71 1417.78 1109.13 1415.02 1109.13 1411.86C1109.13 1400.37 1111.14 1427.2 1111.14 1427.2C1112.46 1450.56 1111.44 1468.1 1114.49 1488.3C1117.38 1507.49 1124.09 1523.33 1138.52 1536.1C1150 1546.27 1163.14 1548.88 1177.89 1549.56C1199.88 1550.56 1222.65 1551.13 1244.48 1548.62C1262.36 1546.57 1280.34 1547.38 1298.18 1544.98C1301.43 1544.54 1294.04 1547.36 1292.83 1547.98" stroke="black" stroke-width="5" stroke-linecap="round"/>
<path d="M1573.98 1417.09C1596.81 1417.09 1528.31 1418.01 1505.48 1418.64C1481.67 1419.3 1455.59 1419.65 1432.14 1424.4C1431.06 1424.62 1436.55 1424.8 1437.69 1425.24C1449.07 1429.64 1457.89 1438.83 1465.89 1447.58C1486.7 1470.37 1500.94 1496.19 1512.31 1524.72C1527.84 1563.68 1539.52 1569.47 1535.95 1611.71C1534.29 1631.44 1522.14 1662.9 1498.14 1642.76C1477.41 1625.35 1487.52 1597.33 1492.46 1574.74C1501.12 1551.74 1513.12 1527.97 1541.86 1507.09C1548.95 1501.94 1559.69 1496.08 1568.92 1498.8C1577.18 1501.23 1579.3 1511.91 1580.88 1518.96C1588.26 1551.87 1587.7 1587.11 1589.85 1620.62C1590.48 1630.43 1590.14 1659.93 1589.43 1650.12C1587.67 1625.88 1592.7 1598.48 1601.03 1575.8C1609.93 1551.56 1627.79 1536.04 1652.01 1526.97C1653.44 1526.44 1669.64 1519.98 1663.69 1525.85" stroke="black" stroke-opacity="0.3" stroke-width="5" stroke-linecap="round"/>
<path d="M1568.92 1498.8C1577.18 1501.23 1579.3 1511.91 1580.88 1518.96C1588.26 1551.87 1587.7 1587.11 1589.85 1620.62C1590.48 1630.43 1590.14 1659.93 1589.43 1650.12C1587.67 1625.88 1592.7 1598.48 1601.03 1575.8C1609.93 1551.56 1627.79 1536.04 1652.01 1526.97C1653.44 1526.44 1669.64 1519.98 1663.69 1525.85" stroke="black" stroke-width="5" stroke-linecap="round"/>
<path d="M2305.61 1540.59C2289.14 1541.37 2307.88 1548.92 2314.06 1550.99C2340.51 1559.8 2370.21 1559.65 2395.46 1547.09C2412.24 1538.73 2428.25 1517.5 2406.73 1503.89C2390.77 1493.8 2361.2 1502 2366.14 1525.06C2372.11 1552.95 2411.5 1556.61 2434.17 1555.9C2464.93 1554.93 2495.72 1543.94 2502.07 1510.47C2508.6 1475.97 2498.28 1450.8 2495.71 1416.55C2494.7 1403.1 2499.88 1408.59 2500.62 1418.28" stroke="black" stroke-opacity="0.3" stroke-width="5" stroke-linecap="round"/>
<path d="M2434.17 1555.9C2464.93 1554.93 2495.72 1543.94 2502.07 1510.47C2508.6 1475.97 2498.28 1450.8 2495.71 1416.55C2494.7 1403.1 2499.88 1408.59 2500.62 1418.28" stroke="black" stroke-width="5" stroke-linecap="round"/>
<path d="M1851.83 1541.22C1851.07 1541.22 1849.48 1540.9 1850.61 1542.19C1857.18 1549.67 1866.75 1554.26 1875.66 1556.46C1904.41 1563.59 1946.46 1545.76 1948.08 1507.05C1949.79 1466.25 1896.6 1471.12 1873.84 1471.44C1855.04 1471.7 1836.36 1473.57 1817.65 1475.66C1815.69 1475.88 1802.88 1476.92 1803 1476.84C1809.48 1472.68 1817.72 1470.57 1824.71 1468.04C1849.99 1458.89 1875.7 1452.97 1901.69 1447.11C1929.16 1440.92 1956.66 1434.87 1984.14 1428.68C1996.98 1425.79 2009.78 1423 2021.84 1417.04C2023.14 1416.39 2028.8 1414.08 2024.27 1413.99C2015.11 1413.8 2005.94 1414.07 1996.79 1413.99C1985 1413.89 1972.02 1414.31 1960.55 1410.52C1957.83 1409.63 1966.12 1409.32 1968.94 1409" stroke="black" stroke-opacity="0.3" stroke-width="5" stroke-linecap="round"/>
<path d="M2021.84 1417.04C2023.14 1416.39 2028.8 1414.08 2024.27 1413.99C2015.11 1413.8 2005.94 1414.07 1996.79 1413.99C1985 1413.89 1972.02 1414.31 1960.55 1410.52C1957.83 1409.63 1966.12 1409.32 1968.94 1409" stroke="black" stroke-width="5" stroke-linecap="round"/>
<path d="M2913.67 1412.87C2915.49 1412.87 2910.03 1412.85 2908.22 1412.72C2885.15 1411.1 2862.38 1415.15 2839.35 1413.05C2821.5 1411.43 2803.57 1410.39 2785.7 1409.01C2782.86 1408.79 2789.53 1412.41 2790.37 1413.05C2829.41 1442.7 2846.25 1489.3 2852.37 1535.41C2855.47 1558.76 2857.16 1609.79 2845.29 1631.36C2838.05 1644.52 2827.37 1643.62 2821.23 1630.01C2798.43 1579.48 2845.66 1507.86 2889.46 1490.3C2900.07 1486.05 2917.21 1478.43 2921.74 1493.5C2928.29 1515.28 2926.41 1541.08 2926.41 1563.49C2926.41 1587.4 2926.45 1611.98 2921.38 1635.47C2920.65 1638.85 2915.47 1649.43 2918.34 1640.5C2927.89 1610.78 2941.99 1579.3 2971 1564.76" stroke="black" stroke-opacity="0.3" stroke-width="5" stroke-linecap="round"/>
<path d="M2889.46 1490.3C2900.07 1486.05 2917.21 1478.43 2921.74 1493.5C2928.29 1515.28 2926.41 1541.08 2926.41 1563.49C2926.41 1587.4 2926.45 1611.98 2921.38 1635.47C2920.65 1638.85 2915.47 1649.43 2918.34 1640.5C2927.89 1610.78 2941.99 1579.3 2971 1564.76" stroke="black" stroke-width="5" stroke-linecap="round"/>
<line y1="1908.5" x2="3090" y2="1908.5" stroke="black" stroke-dasharray="10 10"/>
<line y1="1996.5" x2="3090" y2="1996.5" stroke="black" stroke-dasharray="10 10"/>
<line y1="1848.5" x2="3090" y2="1848.5" stroke="black" stroke-dasharray="10 10"/>
<line y1="1758.5" x2="3090" y2="1758.5" stroke="black" stroke-dasharray="10 10"/>
<path d="M103.249 1901.42C116.972 1900.8 129.135 1890.71 139.777 1883.09C153.014 1873.6 167.696 1863.38 177.035 1849.7C179.901 1845.51 178.793 1840.1 179.738 1847.51C182.373 1868.15 195.146 1888.84 205.235 1906.61C213.707 1921.53 232.895 1951.82 235.928 1969.17C238.588 1984.39 221.346 1989.85 209.335 1990.8C179.839 1993.11 148.232 1984.81 119.623 1978.74C98.9842 1974.36 78.4392 1969.42 58.5491 1962.3C44.546 1957.29 28.0135 1951.48 17.7842 1940.02C1.12341 1921.36 24.467 1883.17 37.3535 1872.49C70.9971 1844.63 109.981 1820.96 147.959 1799.59C175.692 1783.98 205.36 1771.02 236.21 1762.91C244.089 1760.84 255.234 1757.64 263.241 1761.16C270.457 1764.33 271.588 1773.89 272.592 1780.59C276.652 1807.7 280.873 1822.1 290.952 1847.81C294.63 1857.19 319.54 1900.09 300.01 1905.23C285.065 1909.17 257.157 1897.68 258.442 1879.3C259.563 1863.26 269.916 1859.26 289.814 1854.71" stroke="black" stroke-opacity="0.3" stroke-width="5" stroke-linecap="round"/>
<path d="M103.249 1901.42C116.972 1900.8 129.135 1890.71 139.777 1883.09C153.014 1873.6 167.696 1863.38 177.035 1849.7C179.901 1845.51 178.793 1840.1 179.738 1847.51C182.373 1868.15 195.146 1888.84 205.235 1906.61C213.707 1921.53 232.895 1951.82 235.928 1969.17C238.588 1984.39 221.346 1989.85 209.335 1990.8C179.839 1993.11 148.232 1984.81 119.623 1978.74C98.9842 1974.36 78.4392 1969.42 58.5491 1962.3C44.546 1957.29 28.0135 1951.48 17.7842 1940.02C1.12341 1921.36 24.467 1883.17 37.3535 1872.49C70.9971 1844.63 109.981 1820.96 147.959 1799.59C175.692 1783.98 205.36 1771.02 236.21 1762.91" stroke="black" stroke-width="5" stroke-linecap="round"/>
<path d="M501.879 1899.54C501.586 1897.2 505.527 1901.32 507.651 1902.24C525.091 1909.82 547.851 1909.69 566.022 1905.24C580.45 1901.7 603.026 1891.11 605.91 1874.33C608.472 1859.43 596.324 1850.07 583.555 1846.21C545.481 1834.7 500.381 1840.82 462.283 1849.57C455.722 1851.08 460.524 1847.6 463.525 1845.4C487.076 1828.17 514.988 1816.61 540.818 1803.4C569.097 1788.93 597.062 1772.98 626.804 1761.61C639.979 1756.57 650.881 1756.39 659.679 1768.77C675.539 1791.09 682.025 1822.83 687.732 1848.98C694.685 1880.85 698.357 1914.41 695.549 1947.02C694.524 1958.92 691.255 1990.32 675.02 1992.83C659.364 1995.26 663.082 1949.8 664.354 1943.44C667.982 1925.3 676.155 1908.33 685.54 1892.53C692.424 1880.93 700.726 1868.69 712.425 1861.4C720.632 1856.29 731.92 1851.09 726.744 1864.03" stroke="black" stroke-opacity="0.3" stroke-width="5" stroke-linecap="round"/>
<path d="M659.679 1768.77C675.539 1791.09 682.025 1822.83 687.732 1848.98C694.685 1880.85 698.356 1914.41 695.549 1947.02C694.524 1958.92 691.255 1990.32 675.02 1992.83C659.364 1995.26 663.082 1949.8 664.354 1943.44C667.982 1925.3 676.155 1908.33 685.54 1892.53C692.424 1880.93 700.726 1868.69 712.425 1861.4C720.632 1856.29 731.92 1851.09 726.744 1864.03" stroke="black" stroke-width="5" stroke-linecap="round"/>
<path d="M957.671 1877.87C968.758 1885.93 997.62 1874 1002.2 1862.23C1005.4 1854.01 987.419 1849.33 982.471 1849.01C969.669 1848.2 953.022 1857.48 948.866 1870.12C943.517 1886.4 964.197 1901.67 976.773 1904.2C1004.01 1909.69 1036.37 1904.09 1060.79 1891.27C1074.09 1884.28 1087.11 1868.79 1091.76 1853.91C1092.33 1852.09 1091.38 1847.87 1091.84 1849.52C1094.67 1859.74 1099.75 1868.88 1105.28 1877.87C1118.62 1899.58 1132.41 1913.78 1141.44 1937.79C1149 1957.88 1146.75 1966 1145.24 1973.47C1142.71 1986 1134.61 1998.75 1127.92 1991.29C1122.65 1985.41 1123.22 1967.89 1124 1963.1C1127.88 1939.18 1132.13 1930.44 1145.9 1905.72C1159.67 1881 1172.37 1876.51 1195.35 1862.23C1213.75 1850.81 1240.86 1840.55 1263.08 1844.63C1272.17 1846.3 1259.34 1851.84 1256.72 1853.03" stroke="black" stroke-opacity="0.3" stroke-width="5" stroke-linecap="round"/>
<path d="M1091.83 1849.52C1094.67 1859.74 1099.75 1868.88 1105.28 1877.87C1118.62 1899.58 1132.41 1913.78 1141.44 1937.79C1149 1957.88 1146.75 1966 1145.24 1973.47C1142.71 1986 1134.61 1998.75 1127.92 1991.29C1122.65 1985.41 1123.22 1967.89 1124 1963.1C1127.88 1939.18 1132.13 1930.44 1145.9 1905.72C1159.67 1881 1172.37 1876.51 1195.35 1862.23C1213.75 1850.81 1240.86 1840.55 1263.08 1844.63C1272.17 1846.3 1259.34 1851.84 1256.72 1853.03" stroke="black" stroke-width="5" stroke-linecap="round"/>
<path d="M1579.07 1763.05C1626.09 1763.05 1391.24 1771.53 1438.26 1771.53C1443.79 1771.53 1448.89 1779.49 1451.84 1783.09C1469.93 1805.15 1483.14 1830.2 1494.68 1856.19C1508.74 1887.85 1521.14 1911.8 1523.79 1946.64C1524.71 1958.67 1524.98 1971.97 1519.89 1983.22C1517.67 1988.14 1512.76 1996.06 1506.45 1996.27C1490.6 1996.78 1489.74 1967.85 1490.17 1958.41C1491.65 1926.16 1506.19 1903.58 1527.16 1879.39C1537.52 1867.43 1555.71 1849.7 1573.35 1855.78C1593.43 1862.71 1598.28 1897.81 1601.26 1915.36C1604.36 1933.66 1609.61 1971.36 1601.26 1989.18C1594.58 2003.43 1589.51 1981.14 1589.09 1976.47C1586.56 1948.6 1593.99 1907.95 1612.96 1886.78C1619.36 1879.65 1628.05 1873.25 1637.71 1871.59C1645.41 1870.25 1649.79 1873.17 1656.54 1875.62" stroke="black" stroke-opacity="0.3" stroke-width="5" stroke-linecap="round"/>
<path d="M1573.35 1855.78C1593.43 1862.71 1598.28 1897.81 1601.26 1915.36C1604.36 1933.66 1609.61 1971.36 1601.26 1989.18C1594.58 2003.43 1589.51 1981.14 1589.09 1976.47C1586.56 1948.6 1593.99 1907.95 1612.96 1886.78C1619.36 1879.65 1628.05 1873.25 1637.71 1871.59C1645.41 1870.25 1649.79 1873.17 1656.54 1875.62" stroke="black" stroke-width="5" stroke-linecap="round"/>
<path d="M2324.45 1897.94C2306.52 1897.94 2360.58 1900.92 2378.23 1897.68C2389.32 1895.65 2404.43 1890.14 2409.47 1878.48C2413.32 1869.58 2407.69 1858.93 2400.41 1854.07C2391.06 1847.82 2378.41 1847.82 2368.19 1851.52C2362.06 1853.74 2354.19 1859.11 2357.65 1867.04C2362.89 1879.03 2380.92 1885.87 2391.83 1889.67C2411.02 1896.35 2431.25 1899.05 2451.37 1900.22C2481.04 1901.95 2475.89 1902.02 2504.74 1903.4C2516.06 1905.4 2481.79 1904.61 2470.31 1905.06C2400.41 1912.17 2365 1921 2336.81 1939.85C2316.46 1953.46 2302.17 1968.09 2299.12 1989.95C2297.95 1998.3 2305.62 1995.89 2310.02 1994.91" stroke="black" stroke-opacity="0.3" stroke-width="5" stroke-linecap="round"/>
<path d="M2504.74 1903.4C2516.06 1905.4 2481.79 1904.61 2470.31 1905.06C2400.41 1912.17 2365 1921 2336.81 1939.85C2316.46 1953.46 2302.17 1968.09 2299.12 1989.95C2297.95 1998.3 2305.62 1995.89 2310.02 1994.91" stroke="black" stroke-width="5" stroke-linecap="round"/>
<path d="M1865.41 1880.34C1857.86 1899.78 1911.32 1906.9 1921.96 1907.68C1938.01 1908.84 1954.91 1907.47 1964.93 1893.42C1971.76 1883.85 1976.91 1870.2 1970.71 1859.12C1955.19 1831.41 1912.91 1833.47 1886.66 1838.56C1858.71 1843.98 1830.94 1851.88 1803.34 1858.79C1801.95 1859.14 1805.19 1856.51 1806.43 1855.77C1824.61 1845 1843.96 1836.84 1863.96 1830.08C1931.89 1807.16 2004.31 1796.57 2069.84 1766.55C2069.84 1766.55 2081.62 1761.77 2079.81 1759.72C2077.37 1756.95 2071.14 1763.02 2069.58 1764.05C2053.86 1774.51 2036.31 1782.22 2021.95 1794.67C2018.86 1797.34 2012.37 1802.64 2012.63 1807.61C2012.8 1810.77 2015.89 1809.83 2017.75 1810.57" stroke="black" stroke-opacity="0.3" stroke-width="5" stroke-linecap="round"/>
<path d="M2079.81 1759.72C2077.37 1756.95 2071.14 1763.02 2069.58 1764.05C2053.86 1774.51 2036.31 1782.22 2021.95 1794.67C2018.86 1797.34 2012.37 1802.64 2012.63 1807.61C2012.8 1810.77 2015.89 1809.83 2017.75 1810.57" stroke="black" stroke-width="5" stroke-linecap="round"/>
<path d="M2907.79 1762.7C2918.04 1762.7 2887.28 1762.15 2877.02 1761.81C2858.58 1761.2 2840.14 1760.72 2821.7 1760.16C2813.43 1759.91 2805.16 1759.51 2796.89 1759.34C2794.94 1759.3 2787.06 1760.38 2785.05 1758.71C2784.51 1758.26 2788.37 1758.16 2788.85 1758.33C2797.28 1761.31 2804.42 1772.29 2808.79 1779.28C2820.91 1798.67 2827.17 1822.34 2832.34 1844.35C2836.29 1861.2 2839.21 1878.26 2841.39 1895.43C2843.48 1911.92 2846.07 1939.65 2843.48 1956.26C2842.14 1964.8 2838.21 1981.17 2828.41 1984.36C2818.12 1987.71 2813.57 1974.73 2811.83 1967.08C2807.43 1947.74 2813.22 1918.61 2821.57 1901.19C2832.71 1877.97 2848.21 1860.21 2872.21 1850.05C2881.58 1846.08 2897.17 1836.9 2905.72 1847.13C2919.19 1863.25 2915.84 1889.26 2914.7 1909.42C2913.34 1924.76 2910.84 1977.76 2908.86 1993.11" stroke="black" stroke-opacity="0.3" stroke-width="5" stroke-linecap="round"/>
<path d="M2872.21 1850.05C2881.58 1846.08 2897.17 1836.9 2905.72 1847.13C2919.19 1863.25 2915.84 1889.26 2914.7 1909.42C2913.34 1924.76 2910.84 1977.76 2908.86 1993.11" stroke="black" stroke-width="5" stroke-linecap="round"/>
<line y1="2259.5" x2="3090" y2="2259.5" stroke="black" stroke-dasharray="10 10"/>
<line y1="2347.5" x2="3090" y2="2347.5" stroke="black" stroke-dasharray="10 10"/>
<line y1="2199.5" x2="3090" y2="2199.5" stroke="black" stroke-dasharray="10 10"/>
<line y1="2109.5" x2="3090" y2="2109.5" stroke="black" stroke-dasharray="10 10"/>
<path d="M82.4529 2259.11C80.6045 2259.11 76.4162 2259.81 78.7103 2256.8C90.4496 2241.39 106.108 2229.62 122.641 2219.91C134.167 2213.13 158.313 2195.79 173.165 2200.48C183.079 2203.61 161.721 2224.58 159.442 2226.95C157.56 2228.9 136.432 2248.78 142.334 2251.09C156.018 2256.47 171.7 2255.25 185.105 2262.74C203.109 2272.8 208.259 2278.97 201.719 2297.34C193.824 2319.52 159.442 2333.03 155.076 2334.98C130.747 2345.86 105.998 2347.44 80.3143 2340.33C51.6114 2332.39 19.7047 2308.92 13.3049 2277.87C4.87667 2236.97 38.8928 2206.93 68.8193 2184.8C106.414 2156.99 156.812 2115.41 204.531 2122.47C232.003 2126.54 260.663 2142.14 264.323 2172.1C267.504 2198.15 256.452 2234.75 235.897 2251.05C213.981 2264.76 199.06 2242.65 207.66 2226.07C214.712 2212.49 225.897 2206.24 244.075 2206.24" stroke="black" stroke-opacity="0.3" stroke-width="5" stroke-linecap="round"/>
<path d="M82.4529 2259.11C80.6045 2259.11 76.4162 2259.81 78.7103 2256.8C90.4496 2241.39 106.108 2229.62 122.641 2219.91C134.167 2213.13 158.313 2195.79 173.165 2200.48C183.079 2203.61 161.721 2224.58 159.442 2226.95C157.56 2228.9 136.432 2248.78 142.334 2251.09C156.018 2256.47 171.7 2255.25 185.105 2262.74C203.109 2272.8 208.259 2278.97 201.719 2297.34C193.824 2319.52 159.442 2333.03 155.076 2334.98C130.747 2345.86 105.998 2347.44 80.3143 2340.33C51.6114 2332.39 19.7047 2308.92 13.3049 2277.87C4.87667 2236.97 38.8928 2206.93 68.8193 2184.8C106.414 2156.99 156.812 2115.41 204.531 2122.47" stroke="black" stroke-width="5" stroke-linecap="round"/>
<path d="M541.71 2240.86C531.26 2242.6 533.445 2246.96 541.371 2252.2C562.895 2266.41 594.697 2261.65 616.669 2251.18C638.306 2240.88 646.04 2216.7 624.791 2201.6C600.321 2184.22 562.142 2187.66 534.434 2192.81C509.815 2197.38 484.961 2207.66 460.067 2210.15C456.74 2210.48 462.253 2207.03 462.267 2207.02C472.264 2199.92 482.543 2193.24 492.809 2186.55C531.719 2161.16 571.836 2138.1 615.738 2122.42C640.848 2113.45 669.688 2104.08 695.689 2115.48C714.952 2123.92 731.795 2142.15 726.992 2164.29C724.41 2176.2 719.084 2187.75 713.794 2198.64C708.803 2208.92 686.521 2230.48 685.581 2242.23C685.087 2248.4 689.645 2250.63 694.718 2252.38C704.84 2255.88 714.939 2258.06 723.652 2264.74C740.943 2277.99 732.615 2302.44 725.683 2319.22C723.689 2324.05 715.05 2348.37 707.239 2346.63C694.756 2343.86 701.537 2326.92 705.716 2320.24C723.098 2292.43 752.355 2266.95 780.929 2251.37C787.28 2247.9 795.733 2242.93 803.18 2242.15C804.326 2242.03 800.835 2247.02 800.303 2247.82" stroke="black" stroke-opacity="0.3" stroke-width="5" stroke-linecap="round"/>
<path d="M695.689 2115.48C714.952 2123.92 731.795 2142.15 726.992 2164.29C724.41 2176.2 719.084 2187.75 713.794 2198.64C708.803 2208.92 686.521 2230.48 685.58 2242.23C685.087 2248.4 689.645 2250.63 694.718 2252.38C704.84 2255.88 714.939 2258.06 723.652 2264.74C740.943 2277.99 732.615 2302.44 725.683 2319.22C723.689 2324.05 715.05 2348.37 707.239 2346.63C694.756 2343.86 701.537 2326.92 705.716 2320.24C723.098 2292.43 752.354 2266.95 780.929 2251.37C787.28 2247.9 795.733 2242.93 803.18 2242.15C804.326 2242.03 800.835 2247.02 800.303 2247.82" stroke="black" stroke-width="5" stroke-linecap="round"/>
<path d="M967.308 2237.31C977.65 2244.66 1001.35 2230.31 1007.56 2220.47C1012.44 2212.73 1006 2205.59 1000.36 2202.49C988.343 2195.88 972.559 2202.34 962.2 2210.53C953.665 2217.27 947.077 2229.42 948.106 2242.52C949.497 2260.21 966.285 2264 977.524 2259.51C995.12 2252.47 1009.35 2233.61 1024.91 2221.85C1041.1 2209.62 1063.51 2197.48 1083.01 2201.19C1108.31 2206 1052.99 2250.91 1052.79 2258.51C1052.62 2265.24 1066 2261.5 1077.92 2270.18C1091.07 2281.14 1106.76 2304.72 1099.87 2325.13C1096.98 2333.69 1084.41 2349.7 1075.62 2344.87C1069.14 2341.31 1071.69 2326.01 1072.79 2320.08C1075.85 2303.61 1082.53 2287.86 1091.69 2275.38C1106.53 2255.15 1128.09 2240.47 1149.11 2232.99C1151.89 2231.99 1171.24 2226.98 1158.95 2232.07" stroke="black" stroke-opacity="0.3" stroke-width="5" stroke-linecap="round"/>
<path d="M1024.91 2221.85C1041.09 2209.62 1063.51 2197.48 1083.01 2201.19C1108.31 2206 1052.99 2250.91 1052.79 2258.51C1052.62 2265.24 1066 2261.5 1077.92 2270.18C1091.07 2281.14 1106.76 2304.72 1099.87 2325.13C1096.98 2333.69 1084.41 2349.7 1075.62 2344.87C1069.14 2341.31 1071.69 2326.01 1072.79 2320.08C1075.85 2303.61 1082.53 2287.86 1091.69 2275.38C1106.53 2255.15 1128.09 2240.47 1149.11 2232.99C1151.89 2231.99 1171.24 2226.98 1158.95 2232.07" stroke="black" stroke-width="5" stroke-linecap="round"/>
<path d="M1555.61 2115.38C1583.36 2115.38 1500.1 2114.93 1472.36 2115.72C1459.75 2116.08 1421.93 2116.91 1434.54 2116.91C1437.01 2116.91 1440.24 2116.39 1442.58 2117.24C1458.92 2128.36 1457.43 2134.15 1481.49 2168.42C1505.56 2202.69 1532.68 2237.05 1542.75 2278.58C1548.79 2303.52 1546.48 2320.84 1532.85 2343.11C1520.61 2363.1 1515.08 2335.1 1513.05 2323.57C1507.43 2291.62 1508.87 2276.42 1516.35 2244.92C1521.83 2221.82 1533.92 2201.57 1557.98 2201.57C1571.54 2201.57 1586.27 2203.78 1586.05 2222.05C1585.88 2236.2 1569.43 2244.53 1568.7 2258.34C1567.83 2274.95 1590.72 2265.98 1599.08 2278.61C1608.32 2292.56 1610.47 2340.1 1591.92 2347.36C1571.8 2355.23 1571.56 2323.36 1584.36 2299.59C1597.72 2274.77 1616.36 2252.17 1633.93 2230.21" stroke="black" stroke-opacity="0.3" stroke-width="5" stroke-linecap="round"/>
<path d="M1516.35 2244.92C1521.83 2221.82 1533.92 2201.57 1557.98 2201.57C1571.54 2201.57 1586.27 2203.78 1586.05 2222.05C1585.88 2236.2 1569.43 2244.53 1568.7 2258.34C1567.83 2274.95 1590.72 2265.98 1599.08 2278.61C1608.32 2292.56 1610.47 2340.1 1591.92 2347.36C1571.8 2355.23 1571.56 2323.36 1584.36 2299.59C1597.72 2274.77 1616.36 2252.17 1633.93 2230.21" stroke="black" stroke-width="5" stroke-linecap="round"/>
<path d="M2303.33 2246.98C2302.22 2245.99 2300.92 2244.96 2299.31 2245.42C2296.8 2246.14 2310.2 2253.06 2311.1 2253.37C2336.61 2262.03 2389.83 2249.79 2394.21 2218.21C2398.02 2190.67 2354.23 2187.34 2345.8 2209.53C2340.19 2224.3 2357.27 2250.97 2369.18 2254.76C2385.25 2259.87 2402.05 2257.59 2416.58 2249.37C2437.18 2237.72 2464.63 2189.91 2491.29 2196.74C2513.68 2202.49 2505.16 2230.76 2474.12 2242.46C2451.16 2257.57 2517.66 2257.91 2530.61 2257.57C2555.66 2257.91 2551.23 2258.06 2576.78 2257.91C2582.5 2257.87 2588.16 2257.02 2593.22 2259.55" stroke="black" stroke-opacity="0.3" stroke-width="5" stroke-linecap="round"/>
<path d="M2416.58 2249.37C2437.18 2237.72 2464.63 2189.91 2491.29 2196.74C2513.68 2202.49 2505.16 2230.76 2474.12 2242.46C2451.16 2257.57 2517.66 2257.91 2530.61 2257.57C2555.66 2257.91 2551.23 2258.06 2576.78 2257.91C2582.5 2257.87 2588.16 2257.02 2593.22 2259.55" stroke="black" stroke-width="5" stroke-linecap="round"/>
<path d="M2957.73 2108.17C2960.86 2111.7 2956.29 2111.43 2953.35 2111.46C2926.37 2111.78 2899.41 2112.72 2872.43 2113.01C2844.55 2113.32 2816.39 2111.8 2788.59 2114.38C2781.18 2115.07 2787.02 2114.5 2790.32 2115.94C2805.63 2122.57 2819.44 2144.19 2829.32 2156.76C2856.09 2190.82 2880.36 2230.19 2894.42 2271.11C2902.61 2294.94 2910.7 2312.21 2899.46 2337.23C2894.69 2347.86 2879.8 2347.56 2872.7 2339.42C2862.59 2327.82 2862.32 2311.7 2865.33 2298.83C2874.39 2260.11 2890.4 2242.95 2917.48 2213.16C2925.94 2203.85 2946.29 2192.18 2960.95 2202.06C2974.62 2211.27 2974.87 2221.8 2971.73 2236.17C2969.99 2244.12 2965.57 2249.23 2968.05 2257.5C2970.58 2265.93 2998.81 2258.53 3003.58 2257.77C3030.3 2253.53 3111.37 2254.55 3084.32 2254.55" stroke="black" stroke-opacity="0.3" stroke-width="5" stroke-linecap="round"/>
<path d="M2917.48 2213.16C2925.94 2203.85 2946.29 2192.18 2960.95 2202.06C2974.62 2211.27 2974.87 2221.8 2971.73 2236.17C2969.99 2244.12 2965.57 2249.23 2968.05 2257.5C2970.58 2265.93 2998.81 2258.53 3003.58 2257.77C3030.3 2253.53 3111.37 2254.55 3084.32 2254.55" stroke="black" stroke-width="5" stroke-linecap="round"/>
<path d="M1903.82 2238.76C1899.34 2239.32 1907.82 2247.61 1908.57 2248.25C1923.89 2261.33 1949.36 2262.87 1968.12 2258.76C1981.13 2255.91 2000.58 2246.66 2002.28 2231.36C2004.7 2209.5 1968.59 2202.07 1953.69 2200.03C1924.38 2196.03 1894.12 2192.76 1864.62 2192.76C1850.88 2194.55 1837.62 2195.76 1823.73 2198.16C1817.61 2199.34 1809.68 2202.27 1803.27 2202.27C1802.12 2202.27 1804.97 2200.73 1805.92 2200.08C1817.62 2193.76 1817.62 2193.92 1828.93 2188C1864.73 2169.26 1886.91 2157.34 1917.89 2142.86C1937.38 2133.75 2061.1 2082.68 2055.25 2137.93C2052.95 2159.66 2039.45 2179.37 2033.15 2200.03C2028.72 2214.53 2021.16 2238.84 2022.46 2254.45C2024.12 2260.26 2035.21 2260.26 2045.12 2259.76C2069.25 2258.54 2086.93 2256.26 2110.23 2256.04" stroke="black" stroke-opacity="0.3" stroke-width="5" stroke-linecap="round"/>
<path d="M2055.25 2137.93C2052.95 2159.66 2039.45 2179.37 2033.15 2200.03C2028.72 2214.53 2021.16 2238.84 2022.46 2254.45C2024.12 2260.26 2035.21 2260.26 2045.12 2259.76C2069.25 2258.54 2086.93 2256.26 2110.23 2256.04" stroke="black" stroke-width="5" stroke-linecap="round"/>
<line y1="2610.5" x2="3090" y2="2610.5" stroke="black" stroke-dasharray="10 10"/>
<line y1="2698.5" x2="3090" y2="2698.5" stroke="black" stroke-dasharray="10 10"/>
<line y1="2550.5" x2="3090" y2="2550.5" stroke="black" stroke-dasharray="10 10"/>
<line y1="2460.5" x2="3090" y2="2460.5" stroke="black" stroke-dasharray="10 10"/>
<path d="M43.3503 2574.14C50.1247 2578.53 57.6388 2579.3 65.4786 2579.24C83.8351 2579.24 101.096 2568.31 91.8964 2556.92C82.9521 2545.84 60.3363 2552.2 50.2952 2556.78C34.5453 2563.95 24.327 2577.65 39.3331 2592.25C59.9618 2612.32 96.0828 2611.12 120.357 2604.19C136.689 2599.53 153.788 2597.39 167.269 2586.36C173.483 2581.27 184.348 2569.12 179.048 2559.79C172.143 2547.63 141.783 2548.06 137.991 2563.05C134.728 2575.95 137.991 2586.36 155.679 2596.14C195.46 2618.13 218 2608.03 218 2608.03" stroke="black" stroke-opacity="0.3" stroke-width="5" stroke-linecap="round"/>
<path d="M43.3503 2574.14C50.1247 2578.53 57.6388 2579.3 65.4786 2579.24C83.8351 2579.24 101.096 2568.31 91.8964 2556.92C82.9521 2545.84 60.3363 2552.2 50.2952 2556.78C34.5453 2563.95 24.327 2577.65 39.3331 2592.25C59.9618 2612.32 96.0828 2611.12 120.357 2604.19" stroke="black" stroke-width="5" stroke-linecap="round"/>
<path d="M559.281 2600.1C559.724 2608.07 571.97 2608.53 577.92 2609.42C595.761 2612.11 614.359 2609.77 631.732 2605.21C656.971 2598.59 677.01 2569.96 650.671 2550.41C631.194 2535.95 602.318 2536.57 579.348 2536.8C550.708 2537.1 522.778 2540.41 494.646 2545.45C483.406 2547.46 451.186 2556.64 460.751 2550.41C481.595 2536.81 504.607 2526.2 527.565 2516.81C569.817 2499.53 613.87 2476.69 658.788 2468.15C679.273 2464.26 711.132 2457.09 726.579 2476.27C731.706 2482.63 734.319 2490.56 736.801 2498.21C741.825 2513.71 752.175 2537.43 757.08 2552.96C762.52 2570.19 765.227 2576 761.151 2594.48C754.777 2623.38 705.749 2608.61 724.851 2581.63C755.082 2538.92 818.948 2555.98 862.312 2571.75" stroke="black" stroke-opacity="0.3" stroke-width="5" stroke-linecap="round"/>
<path d="M726.579 2476.27C731.705 2482.63 734.319 2490.56 736.801 2498.21C741.825 2513.71 752.175 2537.43 757.08 2552.96C762.52 2570.19 765.227 2576 761.151 2594.48C754.776 2623.38 705.749 2608.61 724.851 2581.63C755.082 2538.92 818.947 2555.98 862.312 2571.75" stroke="black" stroke-width="5" stroke-linecap="round"/>
<path d="M954.656 2580.71C953.171 2583.68 981.559 2577.44 983.516 2576.65C996.37 2571.47 1002.85 2559.44 985.47 2554.26C970.862 2549.9 949.034 2562.08 948.043 2578.31C946.492 2603.7 987.738 2608.51 1005.31 2610.58C1033.65 2613.91 1078.75 2608.09 1099.56 2584.48C1116.24 2565.55 1081.82 2555.02 1068.89 2555.02C1060.35 2555.02 1049.58 2556.45 1044.47 2564.27C1038.56 2573.3 1044.04 2584.4 1051.46 2590.65C1067.94 2604.52 1093.47 2607.47 1114.06 2608.76C1134.82 2610.06 1154.73 2608.32 1175.17 2605.83" stroke="black" stroke-opacity="0.3" stroke-width="5" stroke-linecap="round"/>
<path d="M1005.31 2610.58C1033.65 2613.91 1078.75 2608.09 1099.56 2584.48C1116.24 2565.55 1081.82 2555.02 1068.89 2555.02C1060.35 2555.02 1049.58 2556.45 1044.47 2564.27C1038.56 2573.3 1044.04 2584.4 1051.46 2590.65C1067.94 2604.52 1093.47 2607.47 1114.06 2608.76C1134.82 2610.06 1154.73 2608.32 1175.17 2605.83" stroke="black" stroke-width="5" stroke-linecap="round"/>
<path d="M1571.47 2468.88C1573.64 2466.4 1565.4 2467.51 1564.11 2467.52C1543.31 2467.8 1522.57 2468.88 1501.73 2468.88C1481.13 2468.88 1460.58 2469.44 1440.1 2466.92C1436.26 2466.45 1431.1 2464.5 1432.13 2465.42C1465.81 2495.35 1479.96 2524.54 1491.89 2566.17C1500.28 2595.48 1508.09 2625.45 1510.75 2655.91C1511.86 2668.54 1516.51 2693.32 1500.53 2699.26C1489.59 2703.33 1484.86 2696.57 1483.85 2685.88C1481.07 2656.56 1495.84 2628.2 1508.27 2602.55C1518.21 2582.04 1530.99 2562.88 1550.96 2550.99C1564.89 2542.7 1585.81 2534.64 1597.93 2549.94C1607.3 2561.76 1613.52 2578.81 1615.22 2593.68C1616.4 2604.03 1610.25 2618.92 1597.11 2611.19C1583.79 2603.36 1595.54 2577.37 1602.07 2569.18C1612.83 2555.68 1629.64 2545.4 1646.94 2546.63" stroke="black" stroke-opacity="0.3" stroke-width="5" stroke-linecap="round"/>
<path d="M1550.96 2550.99C1564.89 2542.7 1585.81 2534.64 1597.93 2549.94C1607.3 2561.76 1613.52 2578.81 1615.22 2593.68C1616.4 2604.03 1610.25 2618.92 1597.11 2611.19C1583.79 2603.36 1595.54 2577.37 1602.07 2569.18C1612.83 2555.68 1629.64 2545.4 1646.94 2546.63" stroke="black" stroke-width="5" stroke-linecap="round"/>
<path d="M1860.59 2593.65C1858.01 2591.39 1861.43 2595.69 1861.72 2595.98C1871.84 2606.1 1885.63 2611.59 1899.82 2612.52C1923.54 2614.06 1972.58 2589.5 1971.37 2559.54C1970.11 2528.12 1922.13 2530.87 1901.7 2533.16C1869.47 2536.79 1837.27 2544.67 1805.73 2552.18C1792.36 2555.36 1831.81 2543.48 1844.96 2539.48C1900.34 2522.64 1956.55 2510.01 2012.41 2495.06C2026.61 2491.26 2049.18 2488.17 2060.43 2477.47C2069.04 2469.29 2047.43 2466.53 2043.75 2465.97C2030.46 2463.97 2012.82 2461.36 2000.38 2468.15C1985.63 2476.22 2006.02 2483.4 2012.11 2486.19" stroke="black" stroke-opacity="0.3" stroke-width="5" stroke-linecap="round"/>
<path d="M2012.41 2495.06C2026.6 2491.26 2049.18 2488.17 2060.43 2477.47C2069.03 2469.29 2047.43 2466.53 2043.75 2465.97C2030.46 2463.97 2012.82 2461.36 2000.38 2468.15C1985.63 2476.22 2006.02 2483.4 2012.11 2486.19" stroke="black" stroke-width="5" stroke-linecap="round"/>
<path d="M2301.12 2595.77C2290.63 2595.77 2321.9 2599.76 2332.39 2599.38C2345.26 2598.9 2389.81 2588.48 2383.79 2568.04C2378.86 2551.25 2351.05 2553.35 2340.8 2563C2333.21 2570.16 2336.92 2581.57 2342.38 2588.78C2350.73 2599.81 2365.27 2606.02 2378.53 2608.4C2406.86 2613.47 2433.81 2598.09 2453.92 2579.54C2472.49 2562.39 2486.74 2549.17 2511.45 2565.03C2525.04 2573.75 2528.55 2595.57 2508.08 2601.52C2490.28 2606.69 2480.41 2603.25 2470.22 2587.24" stroke="black" stroke-opacity="0.3" stroke-width="5" stroke-linecap="round"/>
<path d="M2453.92 2579.54C2472.49 2562.39 2486.74 2549.17 2511.45 2565.03C2525.04 2573.75 2528.55 2595.57 2508.08 2601.52C2490.28 2606.69 2480.41 2603.25 2470.22 2587.24" stroke="black" stroke-width="5" stroke-linecap="round"/>
<path d="M2916.76 2466.78C2916.31 2470.39 2871.86 2467.49 2868.66 2467.49C2842.23 2467.49 2816.19 2464.08 2789.89 2464.08C2789.23 2464.08 2785.41 2463.64 2785.08 2464.3C2783.43 2467.61 2807.3 2494.3 2809.03 2496.84C2828.22 2524.98 2844.21 2555.18 2856.15 2587.08C2866.24 2614.03 2874.85 2646.55 2865.55 2675.01C2861.52 2687.32 2852.61 2700.24 2838.34 2699.74C2825.39 2699.28 2818.48 2686.36 2817.3 2674.86C2814.74 2650.14 2825.44 2622.59 2835.11 2600.46C2842.46 2583.63 2856.98 2566.31 2874.66 2557.26C2902.17 2543.18 2937.37 2581.22 2925.66 2605.76C2922.56 2612.27 2900.01 2619.89 2895.16 2608.26C2890.51 2597.1 2900.16 2587.08 2910.64 2577.01" stroke="black" stroke-opacity="0.3" stroke-width="5" stroke-linecap="round"/>
<path d="M2874.66 2557.26C2902.17 2543.18 2937.37 2581.22 2925.66 2605.76C2922.56 2612.27 2900.01 2619.89 2895.16 2608.26C2890.51 2597.1 2900.16 2587.08 2910.64 2577.01" stroke="black" stroke-width="5" stroke-linecap="round"/>
</svg>
