<svg fill="none" height="2703" viewBox="0 0 3092 2703" width="3092" xmlns="http://www.w3.org/2000/svg"><g stroke="#000"><path d="m0 153.262h3090" stroke-dasharray="10 10"/><path d="m0 241.262h3090" stroke-dasharray="10 10"/><path d="m0 93.2617h3090" stroke-dasharray="10 10"/><path d="m0 3.26172h3090" stroke-dasharray="10 10"/><path d="m73.5458 156.924c-4.8685 0 .5868-1.492 2.5608-1.953 29.0664-6.785 50.2714-10.984 75.9564-26.504 11.714-7.078 24.359-20.511 4.78-27.782-30.726-11.4106-64.7294-6.7855-90.4673 11.149-6.0858 4.24-21.197 15.032-15.706 24.853 6.0417 10.805 25.2998 8.926 34.9971 8.698 32.9492-.776 74.2342-16.41 103.6252 4.409 15.898 11.26 25.614 44.239 8.451 59.484-24.194 21.489-51.538 32.221-98.0774 29.229-17.7152-1.891-33.128-4.316-51.8128-11.173-11.2353-4.124-23.7101-11.11-30.1316-22.379-19.45417-34.136 15.07-98.303 38.3261-119.5123 39.7102-36.2155 93.4457-59.7771 144.5127-71.9842 44.28-10.58507 93.966-12.938605 133.159 13.4914 18.114 12.2151 45.152 29.8349 47.972 54.4986 3.378 29.5505-21.533 54.7175-46.52 63.6405-12.571 4.489-28.555 6.538-39.351-3.461-7.9-7.318-13.422-17.521-6.743-27.398 9.343-13.817 32.952-17.5298 47.545-20.1482 8.157-1.4636 20.04-5.0097 24.242 3.7279" stroke-linecap="round" stroke-opacity=".3" stroke-width="5"/><path d="m73.5458 156.924c-4.8685 0 .5868-1.492 2.5608-1.953 29.0664-6.785 50.2714-10.984 75.9564-26.504 11.714-7.078 24.359-20.511 4.78-27.782-30.726-11.4106-64.7294-6.7855-90.4673 11.149-6.0858 4.24-21.197 15.032-15.706 24.853 6.0417 10.805 25.2998 8.926 34.9971 8.698 32.9492-.776 74.2342-16.41 103.6252 4.409 15.898 11.26 25.614 44.239 8.451 59.484-24.194 21.489-51.538 32.221-98.0774 29.229-17.7152-1.891-33.128-4.316-51.8128-11.173-11.2353-4.124-23.7101-11.11-30.1316-22.378-19.45417-34.137 15.07-98.304 38.3261-119.5133 39.7102-36.2155 93.4457-59.7771 144.5127-71.9842 44.28-10.58507 93.966-12.938606 133.159 13.4914" stroke-linecap="round" stroke-width="5"/><path d="m524.392 145.756c12.609 1.261 23.521 8.61 36.693 9.543 22.771 1.614 50.106-5.328 67.765-20.27 13.092-11.078 9.397-22.679-4.291-30.849-27.685-16.5242-61.512-18.2552-92.917-18.3468-22.519-.0656-43.647 2.1785-65.101 9.0994-4.106 1.3242-11.532 6.8744-4.883 2.4413 47.774-31.8491 97.824-61.7589 152.692-79.8969 21.265-7.0299 48.786-15.76195 71.241-9.09932 18.678 5.54182 19.262 28.14842 16.867 44.31312-3.506 23.6676-12.863 46.8739-19.308 69.8362-8.353 29.758-15.967 62.637-13.02 93.804.741 7.849 3.811 29.597 16.053 20.416 22.553-16.915 40.974-36.069 64.583-52.004 17.8-12.015 38.912-24.497 60.811-26.707 5.781-.583 6.673 1.894 4.438 6.362" stroke-linecap="round" stroke-opacity=".3" stroke-width="5"/><path d="m685.591 8.37744c18.678 5.54186 19.262 28.14846 16.867 44.31316-3.506 23.6675-12.863 46.8739-19.308 69.8354-8.353 29.758-15.967 62.637-13.02 93.805.741 7.849 3.811 29.597 16.053 20.416 22.553-16.915 40.974-36.069 64.583-52.005 17.8-12.015 38.912-24.496 60.811-26.706 5.781-.583 6.673 1.893 4.438 6.362" stroke-linecap="round" stroke-width="5"/><path d="m968.107 123.407c12.728 3.411 15.298 8.039 28.476 5.466 7.857-1.533 22.197-4.744 25.597-13.634 5.2-13.577-14.92-20.9026-24.509-21.9004-18.749-1.9513-33.697 4.6597-44.576 20.3514-8.645 12.468-6.683 27.617 8.92 32.343 35.819 10.849 72.155-11.508 108.345-7.977 1.15.112 9.64.619 4.49 1.088-11.1 1.009-23.82 7.973-33.21 13.416-18.44 10.696-34.72 26.345-43.221 46.121-5.938 13.812-9.664 24.957 3.921 35.321 12.47 9.517 29.36 5.184 42.42-.653 25.3-11.312 46.76-25.341 65.63-45.255 21.91-23.129 41.88-48.878 72.3-61.279 23-9.375 49.48-11.59 73.46-5.148 7.67 2.06 15.25 4.7 22.77 7.251 1.53.518 5.78 1.65 4.28 2.249-1.51.604-4.11.072-5.73.072" stroke-linecap="round" stroke-opacity=".3" stroke-width="5"/><path d="m1074.85 139.144c-11.1 1.01-23.82 7.973-33.21 13.416-18.44 10.696-34.72 26.345-43.221 46.122-5.938 13.812-9.664 24.956 3.921 35.32 12.47 9.517 29.36 5.185 42.42-.653 25.3-11.312 46.76-25.34 65.63-45.255 21.91-23.129 41.88-48.877 72.3-61.278 23-9.376 49.48-11.591 73.46-5.149 7.67 2.061 15.25 4.7 22.77 7.252 1.53.517 5.78 1.649 4.28 2.248-1.51.604-4.11.072-5.73.072" stroke-linecap="round" stroke-width="5"/><path d="m1549.15 14.9218c2.06 0 3.46-.1616 5.37-.8007 3.08-1.0248-5.67-.2222-6.4-.2287-21.13-.187-42.1-1.4808-63.25-.5719-17.76.7629-35.12 3.7051-52.73 5.6619-1.07.1187 4.5.8627 5.71 1.4298 22.08 10.331 38.61 36.0642 50.79 55.99 22.36 36.5958 38.79 75.1268 42.49 118.2708 1.14 13.232 2.39 54.717-21.79 51.588-10.16-1.314-17.16-8.791-21.96-16.873-6.88-11.599-12.48-25.016-14.98-38.318-5.18-27.549 5.52-70.696 28.71-85.567 12.96-8.3121 36.78 3.592 47.01 19.454 5.93 7.73 8.78 17.845 11.55 26.995 5.06 16.697 8.49 33.922 14.3 50.385 2.47 7.005 13.96 48.498 26.54 42.713 5.38-2.479 7.63-10.343 9.49-15.327 4.01-10.715 7.5-31.542 12.52-41.855 7.23-14.851 19.08-39.188 36.84-43.923 3.02-.807 5.09-.444 5.09 2.745" stroke-linecap="round" stroke-opacity=".3" stroke-width="5"/><path d="m1501.11 105.503c12.96-8.3123 36.78 3.592 47.01 19.454 5.93 7.73 8.78 17.844 11.55 26.994 5.06 16.698 8.49 33.923 14.3 50.386 2.47 7.004 13.96 48.498 26.54 42.713 5.39-2.479 7.63-10.343 9.49-15.327 4.01-10.715 7.5-31.543 12.52-41.856 7.23-14.85 19.08-39.187 36.84-43.922 3.02-.807 5.09-.444 5.09 2.745" stroke-linecap="round" stroke-width="5"/><path d="m2370.94 143.334c-4.51-2.404 13.25 3.193 13.83 3.313 24.07 5.024 51.02.65 71.36-13.636 11.92-8.366 13.85-17.086 2.08-28.938-11.56-11.6348-26.84-13.6205-37.56.51-12.24 16.144 1.69 28.378 14.71 35.883 18.82 10.845 47.67 15.832 67.99 6.5 16.3-7.487 22.36-28.568 16.25-44.732-6.73-17.8076-23.51-33.4114-39.83-42.4376-41.12-22.7493-89.44-7.5712-133.55-8.2199-14.38-.2114-33.7-2.0991-44.8-12.6166-10.61-10.0516 16.73-24.4855 22.69-26.6947 47.47-17.59894 97.39-6.72992 143.94 7.5189 30.45 9.3184 61.25 11.6124 93.29 7.774 4.88-.5855 15.19-1.2742 10.32-7.7739" stroke-linecap="round" stroke-opacity=".3" stroke-width="5"/><path d="m2503.35 146.966c16.3-7.487 22.36-28.568 16.25-44.732-6.73-17.8076-23.51-33.4113-39.83-42.4375-41.12-22.7494-89.44-7.5713-133.55-8.2199-14.38-.2115-33.7-2.0992-44.8-12.6166-10.61-10.0516 16.73-24.4855 22.69-26.6948 47.47-17.5989 97.39-6.72988 143.94 7.519 30.45 9.3183 61.25 11.6123 93.29 7.774 4.88-.5856 15.19-1.2743 10.32-7.7739" stroke-linecap="round" stroke-width="5"/><path d="m1869.51 140.996c0-3.284 3.34 4.502 6.56 6.437 24.02 14.409 61.22 2.405 83.43-9.531 23.42-12.584 32.9-27.665 9.53-46.1876-14.37-11.3975-33.27-14.6531-51.12-14.9776-21.32-.3877-43.24 1.9007-64.24 5.5702-16 2.7962-63.43 13.9345-47.41 11.2642 1.6-.2669 4.37-3.7433 5.63-4.6419 6.93-4.9242 13.69-9.7029 20.24-15.1633 27.47-22.8923 58.06-46.7088 91.97-58.9204 24.24-8.72822 64.22-18.42951 84.79 3.5897 9.09 9.7296 8.32 22.0601 5.01 34.0401-4.92 17.8511-13.33 34.4247-17.76 52.4836-9.18 37.449-13.87 88.251 13.99 119.46 18.11 20.296 50.64 19.041 66.84-2.723 19.03-25.561 24.31-71.568 3.34-97.427-9.28-11.441-21.41-20.478-34.78-26.4892-.06-.0288-11.76-4.3237-11.76-4.8275 0-2.5376 4.95 1.114 7.43 1.671 7.07 1.5912 14.31 2.2044 21.54 2.5376 35.36 1.6296 70.66 4.4521 106.08 4.7041 3.93.027 9.18.012 13.24.247 1.43.083 5.4.012 4.21.805-.51.341-2 .062-2.6.062" stroke-linecap="round" stroke-opacity=".3" stroke-width="5"/><path d="m2008.89 18.4351c9.09 9.7296 8.32 22.0601 5.01 34.0401-4.92 17.8511-13.33 34.4246-17.76 52.4838-9.18 37.448-13.87 88.251 13.99 119.46 18.11 20.295 50.64 19.041 66.84-2.724 19.03-25.56 24.31-71.567 3.34-97.426-9.27-11.441-21.41-20.479-34.78-26.4894-.06-.0288-11.76-4.3237-11.76-4.8276 0-2.5375 4.95 1.1141 7.43 1.6711 7.07 1.5912 14.31 2.2044 21.54 2.5375 35.36 1.6297 70.66 4.4524 106.08 4.7034 3.93.028 9.18.013 13.24.248 1.43.083 5.4.012 4.21.805-.51.341-1.99.061-2.6.061" stroke-linecap="round" stroke-width="5"/><path d="m2902.52 4.92059c.87-.12258-29.06.33195-30.7-.02449-28.03-.83861-44.81 2.08731-74.41.61334-1.14-.05673-18.8-1.84914-9.93-1.45208 17.3.77388 35.95 11.31474 44.78 23.80584 13.14 18.5696 22.01 36.3765 29.83 57.5072 9.61 25.9236 18.2 52.6416 22.73 79.9306 2.35 14.153 14.15 69.765-11.26 73.396-24.19 3.458-34.46-38.137-34.86-54.255-.86-34.55 14.94-62.994 43.04-82.901 5.52-3.9139 30.41-13.198 34.99.496 7.21 21.555-.23 36.473-1.61 58.248-1.53 24.036-1.28 54.437 17.03 73.132 14.93 15.246 36.14 1.09 45.31-12.937 8.45-12.916 9.27-28.35 7.78-43.232-1.87-18.609-5.6-38.901-13.54-56.037-2.88-6.214-12.35-15.038-13.07-21.7818-.27-2.501 10.05.4302 10.79.6598 17.93 5.558 35.72 7.617 54.57 7.789 1.77.016 9.64 1.188 4.02 1.188" stroke-linecap="round" stroke-opacity=".3" stroke-width="5"/><path d="m2916.73 102.037c7.21 21.556-.23 36.473-1.61 58.248-1.53 24.036-1.28 54.437 17.03 73.132 14.93 15.247 36.14 1.09 45.31-12.937 8.45-12.916 9.27-28.349 7.78-43.232-1.87-18.609-5.6-38.901-13.54-56.037-2.88-6.214-12.35-15.038-13.07-21.7817-.27-2.5011 10.05.4302 10.79.6597 17.93 5.558 35.72 7.617 54.57 7.789 1.77.016 9.64 1.188 4.02 1.188" stroke-linecap="round" stroke-width="5"/><path d="m0 504.5h3090" stroke-dasharray="10 10"/><path d="m0 592.5h3090" stroke-dasharray="10 10"/><path d="m0 444.5h3090" stroke-dasharray="10 10"/><path d="m0 354.5h3090" stroke-dasharray="10 10"/><path d="m163.973 356.104c19.012 0-37.591 3.09-56.563 4.314-4.76.307-95.41 2.148-95.41-2.732 0-.27 18.1293 17.514 19.017 18.247 26.3519 21.769 47.892 48.192 63.8775 78.425 15.5095 29.333 32.9995 63.812 35.5955 97.442.487 6.302 1.021 46.501-15.441 38.27-15.0875-7.544-24.9483-31.711-27.3875-47.373-3.5827-23.004 1.0398-45.496 16.8225-62.902 15.853-17.484 34.353-26.558 55.539-36.634 10.015-4.764 22.848-10.469 31.126 0 5.963 7.541 37.596 48.601 10.096 59.101-18.5 2-37-17.5-37-27s6-18.5 21.5-18.5" stroke-linecap="round" stroke-opacity=".3" stroke-width="5"/><path d="m163.973 356.104c19.012 0-37.591 3.09-56.563 4.314-4.76.307-95.41 2.148-95.41-2.732 0-.27 18.1293 17.514 19.017 18.247 26.3519 21.769 47.892 48.192 63.8775 78.425 15.5095 29.333 32.9995 63.812 35.5955 97.442.487 6.302 1.021 46.501-15.441 38.27-15.0875-7.544-24.9483-31.711-27.3875-47.373-3.5827-23.004 1.0398-45.496 16.8225-62.902 15.853-17.484 34.353-26.558 55.539-36.634" stroke-linecap="round" stroke-width="5"/><path d="m529.705 491.04c-4.661 4.661 4.241 7.151 8.289 8.777 21.939 8.812 48.437 2.405 67.779-9.752 9.026-5.674 24.382-24.782 19.179-37.932-6.838-17.285-31.419-25.403-47.298-30.07-28.954-8.508-61.39-11.841-91.509-9.589-4.674.349-27.289 3.501-27.144 3.413 56.366-34.31 125.591-39.005 187.406-57.864 10.493-3.201 7.148 3.618 8.696 12.191 5.245 29.049 20.604 56.016 32.589 82.65 14.408 32.018 27.484 64.897 25.762 100.774-.697 14.525-7.807 32.275-23.324 37.447-13.831 4.611-12.637-15.545-12.353-23.225 1-27.005 8.935-54.263 24.95-76.149 15.246-20.837 22.252-28.754 43.969-42.994 1.896-1.243 8.956-6.727 11.784-4.551 2.013 1.548.558 3.099-.406 4.063" stroke-linecap="round" stroke-opacity=".3" stroke-width="5"/><path d="m655.103 370.214c5.245 29.049 20.604 56.017 32.589 82.651 14.408 32.017 27.484 64.897 25.762 100.773-.697 14.526-7.807 32.275-23.324 37.447-13.831 4.611-12.637-15.545-12.353-23.225 1-27.005 8.935-54.262 24.95-76.149 15.246-20.836 22.252-28.754 43.969-42.994 1.896-1.243 8.956-6.727 11.784-4.551 2.013 1.548.558 3.1-.406 4.063" stroke-linecap="round" stroke-width="5"/><path d="m960.576 480.131c1.584 14.259 47.284-3.476 53.154-7.315 6.39-4.179 14.8-11.566 6.34-18.204-11.37-8.91-25.746-7.832-39.014-4.876-9.377 2.089-28.637 5.836-32.345 16.742-3.992 11.741 9.735 22.597 18.692 26.818 20.193 9.518 44.247 9.04 65.987 8.127 37.96-1.593 77.77-5.185 114.92-13.409 15.31-3.392 33.25-7.505 41.61-22.024 7.66-13.321 3.87-24.164-4.39-36.246-22.52-32.951-67.54-63.588-106.06-65.769-4.73-.268-26.62-3.234-29.25 3.089-3.79 9.079 3.58 26.429 5.6 34.945 15.28 64.46 14.86 126.744 17.4 192.703" stroke-linecap="round" stroke-opacity=".3" stroke-width="5"/><path d="m1033.39 501.423c37.96-1.593 77.77-5.185 114.92-13.409 15.31-3.392 33.25-7.505 41.61-22.024 7.66-13.321 3.87-24.164-4.39-36.246-22.52-32.951-67.54-63.588-106.06-65.769-4.73-.268-26.62-3.234-29.25 3.089-3.79 9.079 3.58 26.429 5.6 34.945 15.28 64.46 14.86 126.744 17.39 192.703" stroke-linecap="round" stroke-width="5"/><path d="m1557.25 363.975c-.61-4.876-110.3 6.035-121.74 6.989-8.7.725.99 1.778 5.36 5.689 31.96 28.595 47.61 56.475 60.95 95.964 8.36 24.755 13.06 50.27 14.87 76.312 1.02 14.611 4.08 29.385-5.12 42.355-15.35 21.646-35.57-6.546-37.05-20.494-3.31-31.098 25.73-54.408 46.97-72.167 30.87-25.809 60.62-38.582 74.12-78.152 4.95-14.53 2.83-25.554 1.22-40.066-.85-7.614 4.04 14.934 4.22 22.593.88 36.338.66 61.996-.73 98.307-.8 20.781-1.14 35.761-2.76 56.496-.93 11.843-2.36 24.189-8.78 34.458-9.55 15.278-12.98 1.57-15.28-10.727-5.15-27.579 9.49-54.142 27.14-74.7 10.13-11.792 22.92-21 35.93-29.339 8.87-5.69 19.25-10.921 25.51-19.748 4.08-5.737-1.77-8.371-6.82-8.371" stroke-linecap="round" stroke-opacity=".3" stroke-width="5"/><path d="m1595.61 420.471c4.95-14.529 2.83-25.554 1.22-40.065-.85-7.615 4.04 14.933 4.22 22.593.88 36.337.66 61.996-.73 98.306-.8 20.781-1.14 35.761-2.76 56.496-.93 11.843-2.36 24.189-8.78 34.459-9.55 15.278-12.98 1.569-15.28-10.728-5.15-27.578 9.49-54.142 27.14-74.7 10.13-11.792 22.92-21 35.93-29.338 8.87-5.69 19.25-10.922 25.51-19.749 4.08-5.737-1.77-8.37-6.82-8.37" stroke-linecap="round" stroke-width="5"/><path d="m2299 478.718c0 20.82 37.5 20.215 51.29 18.199 12.49-1.826 35.31-5.356 43.27-16.926 7.92-11.519-4.69-20.525-14.64-23.29-10.71-2.975-25.58-2.791-34.68 4.518-9.83 7.899-1.66 18.779 6.11 24.371 18.23 13.125 42.91 17.039 64.78 18.645 29.26 2.149 58.88.041 87.88-4.009 32.77-4.578 101.81-12.955 94.3-61.087-7.44-47.665-70.81-72.233-111.42-78.005-16.81-2.388-39.05-3.786-52.12 9.673-13.23 13.629-1.61 42.915 4.08 57.132 11.03 27.598 19.75 53.757 21.76 83.677 1.41 21.049.89 60.229.89 81.314" stroke-linecap="round" stroke-opacity=".3" stroke-width="5"/><path d="m2415.13 504.235c29.26 2.149 58.88.041 87.88-4.009 32.77-4.578 101.81-12.955 94.3-61.087-7.44-47.665-70.81-72.233-111.42-78.005-16.81-2.388-39.05-3.786-52.12 9.673-13.23 13.629-1.61 42.915 4.08 57.132 11.03 27.598 19.75 53.757 21.76 83.677 1.41 21.049.89 60.229.89 81.314" stroke-linecap="round" stroke-width="5"/><path d="m1831.49 484.591c.93 5.57 5.87 8.258 10.69 10.247 24.3 10.034 51.29 13.584 77.38 10.619 28.13-3.196 101.12-32.57 60.15-69.283-15.72-14.082-37.78-22.037-57.77-27.476-27.97-7.606-57.25-10.18-86-6.164-9.57 1.337-23.96 1.729-32.75 6.461-1.33.72 4.62-2.867 5.43-3.268 14.75-7.375 31.16-12.083 47.08-16.04 36.62-9.105 73.92-16.576 111.38-21.163 22.88-2.802 46.34-5.76 69.44-5.347 13.8.246 19.36 2.256 22.2 15.966 11.51 55.549-5.25 111.252-12.55 166.117-1.48 11.109-15.32 57.75-.82 57.75" stroke-linecap="round" stroke-opacity=".3" stroke-width="5"/><path d="m2036.52 363.177c13.8.246 19.36 2.256 22.2 15.965 11.5 55.55-5.25 111.253-12.55 166.118-1.48 11.109-15.32 57.75-.82 57.75" stroke-linecap="round" stroke-width="5"/><path d="m2895.22 357.954c-30.14-1.838-59.63 0-90.3.049-11.96.019-24.04.138-18.56 3.178 7.49 4.165 12.85 10.906 17 17.689 15.43 25.222 28.43 33.95 39.43 61.383 13.38 33.363 27.07 71.564 23.02 108.121-1.98 17.906-8.69 32.906-26.58 41.685-13.76 6.751-30.15-.848-30.82-16.635-.92-21.67 15.04-32.597 27.18-49.036 19.22-26.021 39.93-50.958 59.7-76.561 15.19-19.67 34.75-40.009 44.11-63.417 1.41-3.509 2.09-7.073 1.71-10.842-.02-.175-1.11-6.156-2.37-3.416-5.88 12.739-3.39 33.368-3.72 46.783-.99 40.296.72 80.632-1.71 120.894-.84 13.936-2.59 27.832-2.59 41.808 0 2.196.97-3.747 1.33-4.827" stroke-linecap="round" stroke-opacity=".3" stroke-width="5"/><path d="m2939.4 384.41c1.41-3.509 2.09-7.073 1.71-10.842-.02-.175-1.11-6.156-2.37-3.416-5.88 12.739-3.39 33.368-3.72 46.784-.99 40.295.72 80.631-1.71 120.894-.84 13.935-2.59 27.831-2.59 41.807 0 2.196.97-3.747 1.33-4.826" stroke-linecap="round" stroke-width="5"/><path d="m0 855.5h3090" stroke-dasharray="10 10"/><path d="m0 943.5h3090" stroke-dasharray="10 10"/><path d="m0 795.5h3090" stroke-dasharray="10 10"/><path d="m0 705.5h3090" stroke-dasharray="10 10"/><g stroke-linecap="round" stroke-width="5"><path d="m85.4218 791.792c-1.0946-9.851 21.9122-6.775 27.8062-6.105 14.824 1.684 33.73 8.796 38.756 24.62 3.946 12.421-6.936 24.33-16.591 30.329-35.33 21.952-83.9853 17.945-108.9019-13.228-14.3695-17.977-20.28921-41.924-7.3-62.249 14.6153-22.868 40.2139-32.017 64.7707-41.914 44.5602-17.958 91.4262-25.745 134.4522 2.181 17.974 11.666 29.474 20.074 44.53 33.331 16.944 14.919 19.153 22.401 23.426 37.282 7.107 24.752-8.98 57.468-37.296 58.267-14.139.4-22.887-12.833-16.724-25.881 6.724-14.235 23.619-18.616 37.031-23.493" stroke-opacity=".3"/><path d="m85.4218 791.792c-1.0946-9.851 21.9122-6.775 27.8062-6.105 14.824 1.684 33.73 8.796 38.756 24.62 3.946 12.421-6.936 24.33-16.591 30.329-35.33 21.952-83.9853 17.945-108.9019-13.228-14.3695-17.977-20.28921-41.924-7.3-62.249 14.6153-22.868 40.2139-32.017 64.7707-41.914 44.5602-17.958 91.4262-25.745 134.4522 2.181"/><path d="m546.028 841.468c.883 0-1.047-.16-.57.854 2.723 5.785 12.314 9.26 17.872 10.529 13.381 3.057 28.117 1.575 40.921-3.073 9.353-3.395 23.533-13.014 28.742-22.327 10.135-18.119-40.736-27.009-48.605-28.684-32.042-6.823-67.533-10.662-100.056-4.895-8.072 1.431-15.931 3.994-23.847 6.09-3.426.907.002-.404 1.081-1.423 9.109-8.602 18.469-16.609 28.799-23.79 33.566-23.333 71.039-38.047 110.073-50.045 17.148-5.27 34.594-10.406 52.247-13.716 10.729-2.012 23.56-5.101 34.491-2.789 17.651 3.734 16.861 27.115 18.668 41.206 3.523 27.487 5.118 52.254 10.244 79.526.248 1.319 7.363 29.059 9.448 27.205 2.335-2.075.858-9.098 1.073-13.407.61-12.224.921-22.856 8.57-31.897 8.802-10.402 27.152-13.553 40.068-11.838 12.283 1.632 21.127 5.865 33.807 2.846 3.608-.859 10.397-2.609 3.529-4.326" stroke-opacity=".3"/><path d="m687.176 708.199c17.651 3.734 16.861 27.116 18.667 41.206 3.524 27.487 5.119 52.254 10.245 79.526.248 1.319 7.363 29.059 9.448 27.206 2.335-2.076.858-9.099 1.073-13.408.61-12.224.921-22.856 8.57-31.896 8.802-10.403 27.152-13.554 40.068-11.839 12.283 1.632 21.127 5.865 33.807 2.846 3.608-.859 10.397-2.608 3.529-4.325"/><path d="m959.56 830.045c-3.308 0-1.497 2.291.616 3.453 11.348 6.241 24.967 7.46 37.24 3.33 9.064-3.052 24.004-11.749 17.144-22.998-7.79-12.761-24.569-17.23-38.353-12.763-12.123 3.929-32.234 17.399-27.499 32.739 5.358 17.36 31.577 21.427 46.612 22.628 24.05 1.921 55.72-.401 75.5-14.172 12.74-8.873 19.05-28.286 19.2-45.018m-.86-4.685c5.58 17.976-5.98 38.183 8.66 53.203 26.5 15.5 66.11 7.893 94 5.37 11.98-1.085 23.6 0 35.63 0 4.4 0-.22.847-1.54 1.11" stroke-opacity=".3"/><path d="m1089.16 792.559c5.58 17.976-5.98 38.183 8.66 53.203 26.5 15.5 66.11 7.893 94 5.37 11.98-1.085 23.6 0 35.64 0 4.39 0-.23.847-1.55 1.11"/><path d="m1570.44 717.281c-31.1 0-58.26-1.125-89.6-1.125-16.66 0-32.38-1.068-48.64-3.57-.96-.148 1.88 1.806 2.09 2.034 6.25 6.704 10.68 15.343 15.48 23.06 19.43 31.239 34.47 51.925 43.66 87.807 7.03 27.432 12.4 85.208-.68 111.806-5.61 11.408-17.89 14.847-20.84.123-5.3-26.516-.23-81.406 13.2-104.9 9.71-16.992 28.46-28.877 48.46-27.93 18.51.876 24.15 13.991 24.48 30.889.25 12.881-.87 14.381 1.32 27.015.47 1.619 2.35-2.577 2.83-4.192 2.29-7.58 2.98-14.942 4.46-22.505 2.94-14.937 2.81-24.385 18.69-28.575 15.77-4.164 43.38-2.403 58.89.104 15.42 2.492 31.23 2.029 46.8 3.364 5.75.492 6.58-.533 1.48-3.083" stroke-opacity=".3"/><path d="m1558.05 835.475c.25 12.881-.87 14.381 1.32 27.015.47 1.619 2.35-2.577 2.83-4.193 2.29-7.579 2.98-14.941 4.46-22.504 2.94-14.937 2.81-24.385 18.69-28.575 15.77-4.164 43.38-2.403 58.89.104 15.42 2.491 31.23 2.029 46.8 3.364 5.75.492 6.58-.533 1.48-3.083"/><path d="m1559.37 862.49c.47 1.619 2.35-2.577 2.83-4.193 2.29-7.579 2.98-14.941 4.46-22.504 2.94-14.937 2.81-24.385 18.69-28.575 15.77-4.164 43.38-2.403 58.89.104 15.42 2.491 31.23 2.029 46.8 3.364 5.75.492 6.58-.533 1.48-3.083"/><path d="m2299.51 848.135c-3.15 0 9.23 5.397 10.16 5.65 21.65 5.834 45.35-.384 63.55-12.588 8.1-5.435 15.74-12.227 17.67-22.257 1.25-6.479-.24-14.036-5.65-18.275-6.89-5.399-19.77-6.202-26.35.228-7.95 7.765-15.07 20.157-11.3 31.469 5.34 16.007 25.23 19.138 39.77 20.096 12 .79 24.06.088 35.83-2.427 9.05-1.931 19.14-4.896 25.44-12.133 8.64-9.91 9.84-25.411 2.85-36.323-.96-1.502-2.87-2.638-1.29-1.062 2.06 2.057 3.83 6.639 4.5 9.328 2.85 11.374 3.13 22.976 11.12 32 9.15 10.333 21.41 6.924 35.22 8.944 23.5 0 40 1.977 61.5 1.977 11.5 0 23.35-.848 33.86-3.532 6.43-1.642 14.03-3.484 19.04-8.189 8.43-7.939 4.6-21.159-2.13-28.774-2.56-2.896-6-5.269-9.48-6.938-1.59-.766-.26.726.08 1.175" stroke-opacity=".3"/><path d="m2448.63 837.898c8.64-9.91 9.84-25.411 2.85-36.323-.96-1.502-2.87-2.638-1.29-1.062 2.06 2.057 3.83 6.639 4.5 9.328 2.85 11.374 3.13 22.976 11.12 32 9.15 10.333 21.41 6.924 35.22 8.944 23.5 0 40 1.977 61.5 1.977 11.5 0 23.35-.848 33.86-3.532 6.43-1.642 14.03-3.484 19.04-8.19 8.43-7.938 4.6-21.158-2.13-28.773-2.56-2.896-6-5.269-9.48-6.938-1.59-.766-.26.726.08 1.175"/><path d="m1863.15 846.162c1.3 0-.87.406-1.12.638-3.09 2.921 12.39 5.069 12.6 5.103 16.87 2.845 33.9 2.61 50.55-1.594 14.53-3.667 33.81-9.693 44.1-21.449 18.7-21.372-20.53-35.678-35.33-38.353-35.77-6.468-72.96-.571-107.48 9.727-7.07 2.11-13.74 4.923-20.57 7.655-1.58.63-4.26.912-2.08-1.276 15.43-15.421 38.81-27.478 57.02-38.831 41.04-25.591 54.39-43.959 101.67-55.084 14.21-3.344 31.97-8.094 46.25-2.233 10.43 4.283 13.21 16.194 14.99 26.153 6.05 33.982 7.12 49.012 12.64 83.179.27 1.686 4.69 36.179 7.16 34.446 1.5-7.981 1.5-9.981 1.5-14.911 0-21.07 9.54-25.152 25.74-33.715 23.05-12.191 31.45-12.293 64.87-11.323 18.91.55 32.52 2.968 48.08 4.808s29.35 2.148 41.22 10.23c19.67 13.38 18.59 29.422 1.28 42.406" stroke-opacity=".3"/><path d="m2036.39 819.797c.27 1.686 4.69 36.179 7.16 34.446 1.5-7.981 1.5-9.981 1.5-14.911 0-21.07 9.54-25.151 25.74-33.715 23.05-12.191 31.45-12.293 64.87-11.322 18.91.549 32.52 2.967 48.08 4.807s29.35 2.148 41.22 10.23c19.67 13.38 18.59 29.422 1.28 42.406"/><path d="m2966.38 713.167c-3.81 0-6.61-1.566-10.36-2.153-17.45-2.727-35.52-2.153-53.11-2.153-39.28 0-78.56 0-117.85 0-.61 0 3.52.974 3.67 1.036 8.5 3.452 15.28 11.617 21.37 18.1 32.9 35.052 58.22 78.592 67.46 126.143 5.46 28.128 6.94 64.623-18.66 84.36-25.26 19.468-14.49-45.778-12.6-52.785 7.89-29.194 27.78-63.482 52.31-81.968 17.33-13.066 25.36 2.515 30.3 18.977 3.31 11.038 2.31 7.538 3.82 13.25 1.89 7.149 3.2 13.927 6.38 18.419.93 1.304 2.17-11.57 2.23-12.2 1.15-10.802 1.46-13.172 5.38-20.431 10.87-20.125 34.06-18.07 54.75-20.806 23.99-3.172 53.28.941 68.73 22.007 5.26 7.178 9.57 14.691 9.57 23.682 0 6.647-5.87 8.846-6.55 6.117" stroke-opacity=".3"/><path d="m2939.11 854.393c.93 1.304 2.17-11.57 2.23-12.2 1.15-10.802 1.46-13.172 5.38-20.431 10.87-20.125 34.06-18.07 54.75-20.806 23.99-3.172 53.28.941 68.73 22.007 5.26 7.178 9.57 14.691 9.57 23.682 0 6.647-5.87 8.846-6.55 6.117"/></g><path d="m0 1206.5h3090" stroke-dasharray="10 10"/><path d="m0 1294.5h3090" stroke-dasharray="10 10"/><path d="m0 1146.5h3090" stroke-dasharray="10 10"/><path d="m0 1056.5h3090" stroke-dasharray="10 10"/><g stroke-linecap="round" stroke-width="5"><path d="m69.7138 1188.61c4.7412 26.08 52.2872 17.76 67.6482 12.49 16.328-5.59 43.747-19 45.421-39.1 1.763-21.15-26.85-27.21-42.447-28.4-28.921-2.21-49.2827.06-77.4228 5.86-23.1422 3.66-23.6422 3.66-48.3246 5.46-7.13885 1.78 2.5835-3.45 4.163-4.54 22.6176-15.52 24.1468-19.18 47.7298-33.19 53.9146-32.01 89.1936-43.18 152.9126-51.42 16.663-2.15 20.877 1.73 33.601 16.51 18.276 23.72 24.465 34.14 37.251 61.17 7.617 16.11 19.684 40.21 9.738 57.91-8.986 16-35.214 10.14-47.131.97-17.498-13.46-8.582-30.57 4.918-37.07 13-5.5 16.5-5.5 33-3.5" stroke-opacity=".3"/><path d="m69.7138 1188.61c4.7412 26.08 52.2872 17.76 67.6482 12.49 16.328-5.59 43.747-19 45.421-39.1 1.763-21.15-26.85-27.21-42.447-28.4-28.921-2.21-49.2827.06-77.4228 5.86-23.1422 3.66-23.6422 3.66-48.3246 5.46-7.13885 1.78 2.5835-3.45 4.163-4.54 22.6176-15.52 24.1468-19.18 47.7298-33.19 53.9146-32.01 89.1936-43.18 152.9126-51.42"/><path d="m540.437 1193.71c-2.425-2.15-.387-.7 1.933.3 13.069 5.6 26.009 9.86 40.366 10.7 21.227 1.25 42.739-4.46 61.627-13.9 13.459-6.73 28.686-15.97 31.371-32.08 6.364-38.18-68.113-33.77-89.356-33.32-42.178.9-84.202 10.92-123.105 26.84-20.293 8.3 37.262-23.12 56.052-34.42 43.121-25.93 89.285-55.55 140.649-60.66 18.429-1.84 30.402 4.45 38.805 21.26 11.483 22.97 16.76 47.55 31.519 69.14 14.418 21.08 33.714 40.56 55.754 53.67 5.459 3.24 11.983 6.83 18.288 8.25 3.921.88 1.041-1.22 1.041-2.75" stroke-opacity=".3"/><path d="m698.779 1078.43c11.483 22.97 16.76 47.55 31.519 69.14 14.418 21.08 33.714 40.56 55.754 53.67 5.459 3.24 11.983 6.83 18.288 8.25 3.921.88 1.041-1.22 1.041-2.75"/><path d="m767.252 1146.85c13.89 0 27.173 13.92 37.169 21.71 19.213 14.95 38.857 30.96 63.188 35.83"/><path d="m982.778 1176.25c-8.194 0 16.562.34 24.532-1.56 16.2-3.87 13.34-16.3 1.34-24.98-14.491-10.48-34.946-4.03-48.472 4.83-20.199 13.24-13.218 33.2 5.948 43.12 26.175 13.54 59.304 13.96 84.824-1.42 14.23-8.57 26.12-30.88 20.74-47.8-.63-1.97-2-2.62-1.64.3 1.01 8.08 6.39 15.82 10.71 22.45 9.08 13.95 21.02 31.12 37.17 37.17" stroke-opacity=".3"/><path d="m1071.69 1148.44c-.63-1.97-2-2.62-1.64.3 1.01 8.08 6.39 15.82 10.71 22.45 9.08 13.95 21.02 31.12 37.17 37.17"/><path d="m1107.22 1145.47c.3 0 10.66 18.67 12.64 23.49 8.17 19.95 13.53 32.1 36.87 33.75 27.14 1.93 54.38-1.7 81.55-.96 10.69.28 21.09 2.22 31.52 4.46 7.14 1.53-.49 1.8-3.35 2.15"/><path d="m1559.47 1065.25c1.39 0 5.55 0 4.16 0-8.03 0-16.06 0-24.08 0-35.8 0-70.63-3.85-106.01 1.73-3.22.51-.65.82 1.04 3.13 7.76 10.57 15.5 27.36 21.85 38.85 12.2 22.06 20.57 46.31 28.4 70.18 8.77 26.7 19.69 58.17 12.49 86.53-3.25 12.81-10.64 28.79-24.16 33.38-9.32 3.16-16.75.18-19.1-9.74-4.95-20.88 2.74-46 9.29-65.64 7.47-22.43 19.18-43.42 35.98-60.22 9.18-9.18 24.18-22.32 38.43-21.33 12.26.84 18.09 20.54 21.63 29.73 6.2 16.08 11.63 32.11 20.37 47.06 3.6 6.15 3.79 4.26 3.79-1.12" stroke-opacity=".3"/><path d="m1499.33 1163.45c9.18-9.18 24.18-22.31 38.43-21.33 12.26.84 18.09 20.54 21.63 29.73 6.2 16.08 11.63 32.11 20.37 47.06 3.6 6.15 3.79 4.26 3.79-1.11"/><path d="m1583.55 1149.55c-7.42-18.96-3.54 46.72 11.97 59.92 13.94 11.86 43.4 9.11 60.44 8.03 1.09-.07 13.46-2.49 7.88.3"/><path d="m2362.52 1201.32c-2.71-7.22 4.28-1.3 9.82-.08 18.03 4.01 37.86 3.66 55.45-2.15 11.36-3.75 31.13-12.23 30.56-27.13-.51-13.19-18.58-14.69-28.33-13.61-11.31 1.25-24.37 9.65-17.32 22.3 10.29 18.47 37.63 21.59 56.28 23.05 24.59 1.92 53.95 2.83 77.46-6.17 15.2-5.83 33.03-19.06 22.3-36.95-10.32-17.2-32.17-25.94-49.96-32.56-28.5-10.61-58.62-16.09-88.76-19.48-32.8-3.68-67.26-2.89-99.76 3.13-10.13 1.87-39.31 11.88-29.14 10.26 4.23-.68 8.35-3.22 12.19-4.91 12.87-5.68 26.26-10.02 39.7-14.13 41.59-12.7 84.62-20.78 127.49-27.8 38.13-6.24 76.5-10.75 114.85-15.31.25-.03 21.5-1.64 12.05-1.64" stroke-opacity=".3"/><path d="m2468.98 1203.7c24.59 1.92 53.95 2.83 77.46-6.17 15.2-5.83 33.03-19.06 22.3-36.95-10.32-17.2-32.17-25.94-49.96-32.56-28.5-10.61-58.62-16.09-88.76-19.48-32.8-3.68-67.26-2.89-99.76 3.13-10.13 1.87-39.31 11.88-29.14 10.26 4.23-.68 8.35-3.22 12.19-4.91 12.87-5.68 26.26-10.02 39.7-14.13 41.59-12.7 84.62-20.78 127.49-27.8 38.13-6.24 76.5-10.75 114.85-15.31.25-.03 21.5-1.64 12.05-1.64"/><path d="m1876.69 1194.33c9.78 3.19 18.55 8.33 28.77 10.34 20.61 4.05 40.33 1.83 59.25-7.14 15.36-7.28 25.72-14.77 28.54-32.09 2.24-13.69-3.16-23.93-15.98-29.36-19.23-8.15-43.55-6.14-63.63-3.27-23.82 3.4-47.37 10.24-70.62 16.28-12.66 3.28-25.01 7.09-37.4 11.22-7.01 2.34 2.13-2.1 3.42-2.75 41.22-20.6 83.78-38.27 123.85-61.18 17.83-10.19 33.94-22.97 51.59-33.3 6.11-3.58 13.75-6.49 20.52-2.83 15.14 8.2 21.87 28.37 28.55 42.97 11.62 25.41 22.43 51.12 37.46 74.79 7.39 11.63 6.99 17.02 19.89 23.83 5.02 2.65 1.53-3.06.59-4.46" stroke-opacity=".3"/><path d="m2033.55 1103.22c11.62 25.41 22.43 51.12 37.46 74.79 7.39 11.63 6.99 17.02 19.89 23.83 5.02 2.65 1.53-3.06.59-4.46"/><path d="m2088.82 1146.12c0-4.36 7.69 8.73 8.62 10.55 4.86 9.55 7.72 20.36 13.83 29.22 9.42 13.67 26.35 16.98 41.92 17.47 33.2 1.05 66.48-3.34 99.77-2.3.81.02 14.92.71 11.15 2.6"/><path d="m2941.91 1057.16c1.3 0 3.26 0 .44 0-10.75 0-21.51.04-32.26-.3-40.32-1.29-80.56 1.47-120.88.61-3.73-.08-5.16-2.05-3.56-.45 7.07 7.08 13.35 16.35 18.73 24.68 16.05 24.84 27.07 45.25 37.76 72.69 14.71 37.76 20.02 42.42 26.36 82.71 2.52 15.99 4.53 37.22-8.18 49.81-9.65 9.56-21.14 4.74-25.72-6.84-19.16-48.5 20.42-73.48 59.43-103.23 13.03-9.93 35.1-26.56 52.63-26.17 13.59.31 13.88 25.72 15.61 34.65 2.22 11.42 4.1 25.28 10.11 35.53 1.98 3.37 1.64-4.82 1.64-5.8" stroke-opacity=".3"/><path d="m2946.66 1150.67c13.59.31 13.88 25.72 15.61 34.65 2.22 11.42 4.1 25.28 10.11 35.53 1.98 3.37 1.64-4.82 1.64-5.8"/><path d="m2980.71 1147.49c.89-8.01 6.35 4.08 6.62 6.39 1.87 15.9-5.06 42.4 13.15 50.25 10.17 4.39 54.31 2.3 64.94 2.16"/></g><path d="m0 1557.5h3090" stroke-dasharray="10 10"/><path d="m0 1645.5h3090" stroke-dasharray="10 10"/><path d="m0 1497.5h3090" stroke-dasharray="10 10"/><path d="m0 1407.5h3090" stroke-dasharray="10 10"/><path d="m13.3521 1510.29c0-.16.0793-2.47-.5719-1.97-2.96772 2.3 3.4236 16.09 4.321 18.18 13.4427 31.21 62.0399 39.33 89.5338 21.07 17.126-11.38 19.49-30.46 19-49.17-.517-19.73-3.92-51.33-5.274-71.02-.364-5.28-.636-10.54-.636-15.83 0-3.91.256 7.81.636 11.7 2.602 26.67 4.907 66.98 9.649 92.83 11.506 37.22 58.933 53.18 91.25 41.22 13.842-5.13 27.244-12.9 34.695-25.76 5.614-9.69 10.132-24.58.127-33.27-10.333-8.96-25.65-3.73-31.137 7.77-6.639 13.9 9.678 25.35 18.047 33.76" stroke-linecap="round" stroke-opacity=".3" stroke-width="5"/><path d="m13.3521 1510.29c0-.16.0793-2.47-.5719-1.97-2.96772 2.3 3.4236 16.09 4.321 18.18 13.4427 31.21 62.0399 39.33 89.5338 21.07 17.126-11.38 19.49-30.46 19-49.17-.517-19.73-3.92-51.33-5.274-71.02-.364-5.28-.636-10.54-.636-15.83 0-3.91.256 7.81.636 11.7" stroke-linecap="round" stroke-width="5"/><path d="m548.64 1536.5c-6.701 9.39 3.441 14.12 11.522 17.1 26.105 9.6 54.453 1.84 76.546-13.79 16.028-11.34 28.993-25.59 15.76-43.93-18.794-26.03-57.358-16.9-84.559-11.64-31.67 6.13-63.008 16.48-93.1 28.04-5.017 1.93-19.565 8.83-14.899 6.16 6.214-3.55 12.452-8.6 18.143-12.92 30.683-23.31 60.759-46.49 93.763-66.61 21.348-13.02 53.363-34.97 80.254-29.56 26.638 5.35 38.103 36.73 45.557 59.25 9.852 29.76 16.035 60.7 20.262 91.73 3.859 28.32 8.548 47.8 11.787 76.17 1.901 16.65 3.873-6.1 4.37-10.8 2.794-26.45 7.019-43.12 17.481-67.76 7.608-17.91 20.412-41.55 39.002-50.5 1.997-.96 14.483-4.08 10.793 1.46" stroke-linecap="round" stroke-opacity=".3" stroke-width="5"/><path d="m697.627 1468.6c9.852 29.76 16.035 60.7 20.262 91.73 3.859 28.32 8.548 47.8 11.787 76.17 1.901 16.65 3.873-6.1 4.37-10.8 2.794-26.45 7.019-43.12 17.481-67.76 7.608-17.91 20.412-41.55 39.002-50.5 1.997-.96 14.483-4.08 10.793 1.46" stroke-linecap="round" stroke-width="5"/><path d="m959.313 1528.33c8.573.49 16.341 5.82 25.332 6.39 9.095.57 35.135-2.83 30.475-18.79-5.65-19.3-34.05-18.39-47.991-12.25-17.286 7.61-28.882 32.94-7.672 45.65 22.519 13.5 57.583 8.77 81.493 2.33 28.68-7.72 63.59-24.81 70.65-57.72.55-22.57-.64-48.59-1.89-72.76 0-3.4-.58-6.16-.58-9.32 0-11.49 2.01 15.34 2.01 15.34 1.32 23.36.3 40.9 3.35 61.1 2.89 19.19 9.6 35.03 24.03 47.8 11.48 10.17 24.62 12.78 39.37 13.46 21.99 1 44.76 1.57 66.59-.94 17.88-2.05 35.86-1.24 53.7-3.64 3.25-.44-4.14 2.38-5.35 3" stroke-linecap="round" stroke-opacity=".3" stroke-width="5"/><path d="m1109.71 1421.18c0-3.4-.58-6.16-.58-9.32 0-11.49 2.01 15.34 2.01 15.34 1.32 23.36.3 40.9 3.35 61.1 2.89 19.19 9.6 35.03 24.03 47.8 11.48 10.17 24.62 12.78 39.37 13.46 21.99 1 44.76 1.57 66.59-.94 17.88-2.05 35.86-1.24 53.7-3.64 3.25-.44-4.14 2.38-5.35 3" stroke-linecap="round" stroke-width="5"/><path d="m1573.98 1417.09c22.83 0-45.67.92-68.5 1.55-23.81.66-49.89 1.01-73.34 5.76-1.08.22 4.41.4 5.55.84 11.38 4.4 20.2 13.59 28.2 22.34 20.81 22.79 35.05 48.61 46.42 77.14 15.53 38.96 27.21 44.75 23.64 86.99-1.66 19.73-13.81 51.19-37.81 31.05-20.73-17.41-10.62-45.43-5.68-68.02 8.66-23 20.66-46.77 49.4-67.65 7.09-5.15 17.83-11.01 27.06-8.29 8.26 2.43 10.38 13.11 11.96 20.16 7.38 32.91 6.82 68.15 8.97 101.66.63 9.81.29 39.31-.42 29.5-1.76-24.24 3.27-51.64 11.6-74.32 8.9-24.24 26.76-39.76 50.98-48.83 1.43-.53 17.63-6.99 11.68-1.12" stroke-linecap="round" stroke-opacity=".3" stroke-width="5"/><path d="m1568.92 1498.8c8.26 2.43 10.38 13.11 11.96 20.16 7.38 32.91 6.82 68.15 8.97 101.66.63 9.81.29 39.31-.42 29.5-1.76-24.24 3.27-51.64 11.6-74.32 8.9-24.24 26.76-39.76 50.98-48.83 1.43-.53 17.63-6.99 11.68-1.12" stroke-linecap="round" stroke-width="5"/><path d="m2305.61 1540.59c-16.47.78 2.27 8.33 8.45 10.4 26.45 8.81 56.15 8.66 81.4-3.9 16.78-8.36 32.79-29.59 11.27-43.2-15.96-10.09-45.53-1.89-40.59 21.17 5.97 27.89 45.36 31.55 68.03 30.84 30.76-.97 61.55-11.96 67.9-45.43 6.53-34.5-3.79-59.67-6.36-93.92-1.01-13.45 4.17-7.96 4.91 1.73" stroke-linecap="round" stroke-opacity=".3" stroke-width="5"/><path d="m2434.17 1555.9c30.76-.97 61.55-11.96 67.9-45.43 6.53-34.5-3.79-59.67-6.36-93.92-1.01-13.45 4.17-7.96 4.91 1.73" stroke-linecap="round" stroke-width="5"/><path d="m1851.83 1541.22c-.76 0-2.35-.32-1.22.97 6.57 7.48 16.14 12.07 25.05 14.27 28.75 7.13 70.8-10.7 72.42-49.41 1.71-40.8-51.48-35.93-74.24-35.61-18.8.26-37.48 2.13-56.19 4.22-1.96.22-14.77 1.26-14.65 1.18 6.48-4.16 14.72-6.27 21.71-8.8 25.28-9.15 50.99-15.07 76.98-20.93 27.47-6.19 54.97-12.24 82.45-18.43 12.84-2.89 25.64-5.68 37.7-11.64 1.3-.65 6.96-2.96 2.43-3.05-9.16-.19-18.33.08-27.48 0-11.79-.1-24.77.32-36.24-3.47-2.72-.89 5.57-1.2 8.39-1.52" stroke-linecap="round" stroke-opacity=".3" stroke-width="5"/><path d="m2021.84 1417.04c1.3-.65 6.96-2.96 2.43-3.05-9.16-.19-18.33.08-27.48 0-11.79-.1-24.77.32-36.24-3.47-2.72-.89 5.57-1.2 8.39-1.52" stroke-linecap="round" stroke-width="5"/><path d="m2913.67 1412.87c1.82 0-3.64-.02-5.45-.15-23.07-1.62-45.84 2.43-68.87.33-17.85-1.62-35.78-2.66-53.65-4.04-2.84-.22 3.83 3.4 4.67 4.04 39.04 29.65 55.88 76.25 62 122.36 3.1 23.35 4.79 74.38-7.08 95.95-7.24 13.16-17.92 12.26-24.06-1.35-22.8-50.53 24.43-122.15 68.23-139.71 10.61-4.25 27.75-11.87 32.28 3.2 6.55 21.78 4.67 47.58 4.67 69.99 0 23.91.04 48.49-5.03 71.98-.73 3.38-5.91 13.96-3.04 5.03 9.55-29.72 23.65-61.2 52.66-75.74" stroke-linecap="round" stroke-opacity=".3" stroke-width="5"/><path d="m2889.46 1490.3c10.61-4.25 27.75-11.87 32.28 3.2 6.55 21.78 4.67 47.58 4.67 69.99 0 23.91.04 48.49-5.03 71.98-.73 3.38-5.91 13.96-3.04 5.03 9.55-29.72 23.65-61.2 52.66-75.74" stroke-linecap="round" stroke-width="5"/><path d="m0 1908.5h3090" stroke-dasharray="10 10"/><path d="m0 1996.5h3090" stroke-dasharray="10 10"/><path d="m0 1848.5h3090" stroke-dasharray="10 10"/><path d="m0 1758.5h3090" stroke-dasharray="10 10"/><path d="m103.249 1901.42c13.723-.62 25.886-10.71 36.528-18.33 13.237-9.49 27.919-19.71 37.258-33.39 2.866-4.19 1.758-9.6 2.703-2.19 2.635 20.64 15.408 41.33 25.497 59.1 8.472 14.92 27.66 45.21 30.693 62.56 2.66 15.22-14.582 20.68-26.593 21.63-29.496 2.31-61.103-5.99-89.712-12.06-20.6388-4.38-41.1838-9.32-61.0739-16.44-14.0031-5.01-30.5356-10.82-40.7649-22.28-16.66079-18.66 6.6828-56.85 19.5693-67.53 33.6436-27.86 72.6275-51.53 110.6055-72.9 27.733-15.61 57.401-28.57 88.251-36.68 7.879-2.07 19.024-5.27 27.031-1.75 7.216 3.17 8.347 12.73 9.351 19.43 4.06 27.11 8.281 41.51 18.36 67.22 3.678 9.38 28.588 52.28 9.058 57.42-14.945 3.94-42.853-7.55-41.568-25.93 1.121-16.04 11.474-20.04 31.372-24.59" stroke-linecap="round" stroke-opacity=".3" stroke-width="5"/><path d="m103.249 1901.42c13.723-.62 25.886-10.71 36.528-18.33 13.237-9.49 27.919-19.71 37.258-33.39 2.866-4.19 1.758-9.6 2.703-2.19 2.635 20.64 15.408 41.33 25.497 59.1 8.472 14.92 27.66 45.21 30.693 62.56 2.66 15.22-14.582 20.68-26.593 21.63-29.496 2.31-61.103-5.99-89.712-12.06-20.6388-4.38-41.1838-9.32-61.0739-16.44-14.0031-5.01-30.5356-10.82-40.7649-22.28-16.66079-18.66 6.6828-56.85 19.5693-67.53 33.6436-27.86 72.6275-51.53 110.6055-72.9 27.733-15.61 57.401-28.57 88.251-36.68" stroke-linecap="round" stroke-width="5"/><path d="m501.879 1899.54c-.293-2.34 3.648 1.78 5.772 2.7 17.44 7.58 40.2 7.45 58.371 3 14.428-3.54 37.004-14.13 39.888-30.91 2.562-14.9-9.586-24.26-22.355-28.12-38.074-11.51-83.174-5.39-121.272 3.36-6.561 1.51-1.759-1.97 1.242-4.17 23.551-17.23 51.463-28.79 77.293-42 28.279-14.47 56.244-30.42 85.986-41.79 13.175-5.04 24.077-5.22 32.875 7.16 15.86 22.32 22.346 54.06 28.053 80.21 6.953 31.87 10.625 65.43 7.817 98.04-1.025 11.9-4.294 43.3-20.529 45.81-15.656 2.43-11.938-43.03-10.666-49.39 3.628-18.14 11.801-35.11 21.186-50.91 6.884-11.6 15.186-23.84 26.885-31.13 8.207-5.11 19.495-10.31 14.319 2.63" stroke-linecap="round" stroke-opacity=".3" stroke-width="5"/><path d="m659.679 1768.77c15.86 22.32 22.346 54.06 28.053 80.21 6.953 31.87 10.624 65.43 7.817 98.04-1.025 11.9-4.294 43.3-20.529 45.81-15.656 2.43-11.938-43.03-10.666-49.39 3.628-18.14 11.801-35.11 21.186-50.91 6.884-11.6 15.186-23.84 26.885-31.13 8.207-5.11 19.495-10.31 14.319 2.63" stroke-linecap="round" stroke-width="5"/><path d="m957.671 1877.87c11.087 8.06 39.949-3.87 44.529-15.64 3.2-8.22-14.781-12.9-19.729-13.22-12.802-.81-29.449 8.47-33.605 21.11-5.349 16.28 15.331 31.55 27.907 34.08 27.237 5.49 59.597-.11 84.017-12.93 13.3-6.99 26.32-22.48 30.97-37.36.57-1.82-.38-6.04.08-4.39 2.83 10.22 7.91 19.36 13.44 28.35 13.34 21.71 27.13 35.91 36.16 59.92 7.56 20.09 5.31 28.21 3.8 35.68-2.53 12.53-10.63 25.28-17.32 17.82-5.27-5.88-4.7-23.4-3.92-28.19 3.88-23.92 8.13-32.66 21.9-57.38s26.47-29.21 49.45-43.49c18.4-11.42 45.51-21.68 67.73-17.6 9.09 1.67-3.74 7.21-6.36 8.4" stroke-linecap="round" stroke-opacity=".3" stroke-width="5"/><path d="m1091.83 1849.52c2.84 10.22 7.92 19.36 13.45 28.35 13.34 21.71 27.13 35.91 36.16 59.92 7.56 20.09 5.31 28.21 3.8 35.68-2.53 12.53-10.63 25.28-17.32 17.82-5.27-5.88-4.7-23.4-3.92-28.19 3.88-23.92 8.13-32.66 21.9-57.38s26.47-29.21 49.45-43.49c18.4-11.42 45.51-21.68 67.73-17.6 9.09 1.67-3.74 7.21-6.36 8.4" stroke-linecap="round" stroke-width="5"/><path d="m1579.07 1763.05c47.02 0-187.83 8.48-140.81 8.48 5.53 0 10.63 7.96 13.58 11.56 18.09 22.06 31.3 47.11 42.84 73.1 14.06 31.66 26.46 55.61 29.11 90.45.92 12.03 1.19 25.33-3.9 36.58-2.22 4.92-7.13 12.84-13.44 13.05-15.85.51-16.71-28.42-16.28-37.86 1.48-32.25 16.02-54.83 36.99-79.02 10.36-11.96 28.55-29.69 46.19-23.61 20.08 6.93 24.93 42.03 27.91 59.58 3.1 18.3 8.35 56 0 73.82-6.68 14.25-11.75-8.04-12.17-12.71-2.53-27.87 4.9-68.52 23.87-89.69 6.4-7.13 15.09-13.53 24.75-15.19 7.7-1.34 12.08 1.58 18.83 4.03" stroke-linecap="round" stroke-opacity=".3" stroke-width="5"/><path d="m1573.35 1855.78c20.08 6.93 24.93 42.03 27.91 59.58 3.1 18.3 8.35 56 0 73.82-6.68 14.25-11.75-8.04-12.17-12.71-2.53-27.87 4.9-68.52 23.87-89.69 6.4-7.13 15.09-13.53 24.75-15.19 7.7-1.34 12.08 1.58 18.83 4.03" stroke-linecap="round" stroke-width="5"/><path d="m2324.45 1897.94c-17.93 0 36.13 2.98 53.78-.26 11.09-2.03 26.2-7.54 31.24-19.2 3.85-8.9-1.78-19.55-9.06-24.41-9.35-6.25-22-6.25-32.22-2.55-6.13 2.22-14 7.59-10.54 15.52 5.24 11.99 23.27 18.83 34.18 22.63 19.19 6.68 39.42 9.38 59.54 10.55 29.67 1.73 24.52 1.8 53.37 3.18 11.32 2-22.95 1.21-34.43 1.66-69.9 7.11-105.31 15.94-133.5 34.79-20.35 13.61-34.64 28.24-37.69 50.1-1.17 8.35 6.5 5.94 10.9 4.96" stroke-linecap="round" stroke-opacity=".3" stroke-width="5"/><path d="m2504.74 1903.4c11.32 2-22.95 1.21-34.43 1.66-69.9 7.11-105.31 15.94-133.5 34.79-20.35 13.61-34.64 28.24-37.69 50.1-1.17 8.35 6.5 5.94 10.9 4.96" stroke-linecap="round" stroke-width="5"/><path d="m1865.41 1880.34c-7.55 19.44 45.91 26.56 56.55 27.34 16.05 1.16 32.95-.21 42.97-14.26 6.83-9.57 11.98-23.22 5.78-34.3-15.52-27.71-57.8-25.65-84.05-20.56-27.95 5.42-55.72 13.32-83.32 20.23-1.39.35 1.85-2.28 3.09-3.02 18.18-10.77 37.53-18.93 57.53-25.69 67.93-22.92 140.35-33.51 205.88-63.53 0 0 11.78-4.78 9.97-6.83-2.44-2.77-8.67 3.3-10.23 4.33-15.72 10.46-33.27 18.17-47.63 30.62-3.09 2.67-9.58 7.97-9.32 12.94.17 3.16 3.26 2.22 5.12 2.96" stroke-linecap="round" stroke-opacity=".3" stroke-width="5"/><path d="m2079.81 1759.72c-2.44-2.77-8.67 3.3-10.23 4.33-15.72 10.46-33.27 18.17-47.63 30.62-3.09 2.67-9.58 7.97-9.32 12.94.17 3.16 3.26 2.22 5.12 2.96" stroke-linecap="round" stroke-width="5"/><path d="m2907.79 1762.7c10.25 0-20.51-.55-30.77-.89-18.44-.61-36.88-1.09-55.32-1.65-8.27-.25-16.54-.65-24.81-.82-1.95-.04-9.83 1.04-11.84-.63-.54-.45 3.32-.55 3.8-.38 8.43 2.98 15.57 13.96 19.94 20.95 12.12 19.39 18.38 43.06 23.55 65.07 3.95 16.85 6.87 33.91 9.05 51.08 2.09 16.49 4.68 44.22 2.09 60.83-1.34 8.54-5.27 24.91-15.07 28.1-10.29 3.35-14.84-9.63-16.58-17.28-4.4-19.34 1.39-48.47 9.74-65.89 11.14-23.22 26.64-40.98 50.64-51.14 9.37-3.97 24.96-13.15 33.51-2.92 13.47 16.12 10.12 42.13 8.98 62.29-1.36 15.34-3.86 68.34-5.84 83.69" stroke-linecap="round" stroke-opacity=".3" stroke-width="5"/><path d="m2872.21 1850.05c9.37-3.97 24.96-13.15 33.51-2.92 13.47 16.12 10.12 42.13 8.98 62.29-1.36 15.34-3.86 68.34-5.84 83.69" stroke-linecap="round" stroke-width="5"/><path d="m0 2259.5h3090" stroke-dasharray="10 10"/><path d="m0 2347.5h3090" stroke-dasharray="10 10"/><path d="m0 2199.5h3090" stroke-dasharray="10 10"/><path d="m0 2109.5h3090" stroke-dasharray="10 10"/><path d="m82.4529 2259.11c-1.8484 0-6.0367.7-3.7426-2.31 11.7393-15.41 27.3977-27.18 43.9307-36.89 11.526-6.78 35.672-24.12 50.524-19.43 9.914 3.13-11.444 24.1-13.723 26.47-1.882 1.95-23.01 21.83-17.108 24.14 13.684 5.38 29.366 4.16 42.771 11.65 18.004 10.06 23.154 16.23 16.614 34.6-7.895 22.18-42.277 35.69-46.643 37.64-24.329 10.88-49.078 12.46-74.7617 5.35-28.7029-7.94-60.6096-31.41-67.0094-62.46-8.42823-40.9 25.5879-70.94 55.5144-93.07 37.5947-27.81 87.9927-69.39 135.7117-62.33 27.472 4.07 56.132 19.67 59.792 49.63 3.181 26.05-7.871 62.65-28.426 78.95-21.916 13.71-36.837-8.4-28.237-24.98 7.052-13.58 18.237-19.83 36.415-19.83" stroke-linecap="round" stroke-opacity=".3" stroke-width="5"/><path d="m82.4529 2259.11c-1.8484 0-6.0367.7-3.7426-2.31 11.7393-15.41 27.3977-27.18 43.9307-36.89 11.526-6.78 35.672-24.12 50.524-19.43 9.914 3.13-11.444 24.1-13.723 26.47-1.882 1.95-23.01 21.83-17.108 24.14 13.684 5.38 29.366 4.16 42.771 11.65 18.004 10.06 23.154 16.23 16.614 34.6-7.895 22.18-42.277 35.69-46.643 37.64-24.329 10.88-49.078 12.46-74.7617 5.35-28.7029-7.94-60.6096-31.41-67.0094-62.46-8.42823-40.9 25.5879-70.94 55.5144-93.07 37.5947-27.81 87.9927-69.39 135.7117-62.33" stroke-linecap="round" stroke-width="5"/><path d="m541.71 2240.86c-10.45 1.74-8.265 6.1-.339 11.34 21.524 14.21 53.326 9.45 75.298-1.02 21.637-10.3 29.371-34.48 8.122-49.58-24.47-17.38-62.649-13.94-90.357-8.79-24.619 4.57-49.473 14.85-74.367 17.34-3.327.33 2.186-3.12 2.2-3.13 9.997-7.1 20.276-13.78 30.542-20.47 38.91-25.39 79.027-48.45 122.929-64.13 25.11-8.97 53.95-18.34 79.951-6.94 19.263 8.44 36.106 26.67 31.303 48.81-2.582 11.91-7.908 23.46-13.198 34.35-4.991 10.28-27.273 31.84-28.213 43.59-.494 6.17 4.064 8.4 9.137 10.15 10.122 3.5 20.221 5.68 28.934 12.36 17.291 13.25 8.963 37.7 2.031 54.48-1.994 4.83-10.633 29.15-18.444 27.41-12.483-2.77-5.702-19.71-1.523-26.39 17.382-27.81 46.639-53.29 75.213-68.87 6.351-3.47 14.804-8.44 22.251-9.22 1.146-.12-2.345 4.87-2.877 5.67" stroke-linecap="round" stroke-opacity=".3" stroke-width="5"/><path d="m695.689 2115.48c19.263 8.44 36.106 26.67 31.303 48.81-2.582 11.91-7.908 23.46-13.198 34.35-4.991 10.28-27.273 31.84-28.214 43.59-.493 6.17 4.065 8.4 9.138 10.15 10.122 3.5 20.221 5.68 28.934 12.36 17.291 13.25 8.963 37.7 2.031 54.48-1.994 4.83-10.633 29.15-18.444 27.41-12.483-2.77-5.702-19.71-1.523-26.39 17.382-27.81 46.638-53.29 75.213-68.87 6.351-3.47 14.804-8.44 22.251-9.22 1.146-.12-2.345 4.87-2.877 5.67" stroke-linecap="round" stroke-width="5"/><path d="m967.308 2237.31c10.342 7.35 34.042-7 40.252-16.84 4.88-7.74-1.56-14.88-7.2-17.98-12.017-6.61-27.801-.15-38.16 8.04-8.535 6.74-15.123 18.89-14.094 31.99 1.391 17.69 18.179 21.48 29.418 16.99 17.596-7.04 31.826-25.9 47.386-37.66 16.19-12.23 38.6-24.37 58.1-20.66 25.3 4.81-30.02 49.72-30.22 57.32-.17 6.73 13.21 2.99 25.13 11.67 13.15 10.96 28.84 34.54 21.95 54.95-2.89 8.56-15.46 24.57-24.25 19.74-6.48-3.56-3.93-18.86-2.83-24.79 3.06-16.47 9.74-32.22 18.9-44.7 14.84-20.23 36.4-34.91 57.42-42.39 2.78-1 22.13-6.01 9.84-.92" stroke-linecap="round" stroke-opacity=".3" stroke-width="5"/><path d="m1024.91 2221.85c16.18-12.23 38.6-24.37 58.1-20.66 25.3 4.81-30.02 49.72-30.22 57.32-.17 6.73 13.21 2.99 25.13 11.67 13.15 10.96 28.84 34.54 21.95 54.95-2.89 8.56-15.46 24.57-24.25 19.74-6.48-3.56-3.93-18.86-2.83-24.79 3.06-16.47 9.74-32.22 18.9-44.7 14.84-20.23 36.4-34.91 57.42-42.39 2.78-1 22.13-6.01 9.84-.92" stroke-linecap="round" stroke-width="5"/><path d="m1555.61 2115.38c27.75 0-55.51-.45-83.25.34-12.61.36-50.43 1.19-37.82 1.19 2.47 0 5.7-.52 8.04.33 16.34 11.12 14.85 16.91 38.91 51.18 24.07 34.27 51.19 68.63 61.26 110.16 6.04 24.94 3.73 42.26-9.9 64.53-12.24 19.99-17.77-8.01-19.8-19.54-5.62-31.95-4.18-47.15 3.3-78.65 5.48-23.1 17.57-43.35 41.63-43.35 13.56 0 28.29 2.21 28.07 20.48-.17 14.15-16.62 22.48-17.35 36.29-.87 16.61 22.02 7.64 30.38 20.27 9.24 13.95 11.39 61.49-7.16 68.75-20.12 7.87-20.36-24-7.56-47.77 13.36-24.82 32-47.42 49.57-69.38" stroke-linecap="round" stroke-opacity=".3" stroke-width="5"/><path d="m1516.35 2244.92c5.48-23.1 17.57-43.35 41.63-43.35 13.56 0 28.29 2.21 28.07 20.48-.17 14.15-16.62 22.48-17.35 36.29-.87 16.61 22.02 7.64 30.38 20.27 9.24 13.95 11.39 61.49-7.16 68.75-20.12 7.87-20.36-24-7.56-47.77 13.36-24.82 32-47.42 49.57-69.38" stroke-linecap="round" stroke-width="5"/><path d="m2303.33 2246.98c-1.11-.99-2.41-2.02-4.02-1.56-2.51.72 10.89 7.64 11.79 7.95 25.51 8.66 78.73-3.58 83.11-35.16 3.81-27.54-39.98-30.87-48.41-8.68-5.61 14.77 11.47 41.44 23.38 45.23 16.07 5.11 32.87 2.83 47.4-5.39 20.6-11.65 48.05-59.46 74.71-52.63 22.39 5.75 13.87 34.02-17.17 45.72-22.96 15.11 43.54 15.45 56.49 15.11 25.05.34 20.62.49 46.17.34 5.72-.04 11.38-.89 16.44 1.64" stroke-linecap="round" stroke-opacity=".3" stroke-width="5"/><path d="m2416.58 2249.37c20.6-11.65 48.05-59.46 74.71-52.63 22.39 5.75 13.87 34.02-17.17 45.72-22.96 15.11 43.54 15.45 56.49 15.11 25.05.34 20.62.49 46.17.34 5.72-.04 11.38-.89 16.44 1.64" stroke-linecap="round" stroke-width="5"/><path d="m2957.73 2108.17c3.13 3.53-1.44 3.26-4.38 3.29-26.98.32-53.94 1.26-80.92 1.55-27.88.31-56.04-1.21-83.84 1.37-7.41.69-1.57.12 1.73 1.56 15.31 6.63 29.12 28.25 39 40.82 26.77 34.06 51.04 73.43 65.1 114.35 8.19 23.83 16.28 41.1 5.04 66.12-4.77 10.63-19.66 10.33-26.76 2.19-10.11-11.6-10.38-27.72-7.37-40.59 9.06-38.72 25.07-55.88 52.15-85.67 8.46-9.31 28.81-20.98 43.47-11.1 13.67 9.21 13.92 19.74 10.78 34.11-1.74 7.95-6.16 13.06-3.68 21.33 2.53 8.43 30.76 1.03 35.53.27 26.72-4.24 107.79-3.22 80.74-3.22" stroke-linecap="round" stroke-opacity=".3" stroke-width="5"/><path d="m2917.48 2213.16c8.46-9.31 28.81-20.98 43.47-11.1 13.67 9.21 13.92 19.74 10.78 34.11-1.74 7.95-6.16 13.06-3.68 21.33 2.53 8.43 30.76 1.03 35.53.27 26.72-4.24 107.79-3.22 80.74-3.22" stroke-linecap="round" stroke-width="5"/><path d="m1903.82 2238.76c-4.48.56 4 8.85 4.75 9.49 15.32 13.08 40.79 14.62 59.55 10.51 13.01-2.85 32.46-12.1 34.16-27.4 2.42-21.86-33.69-29.29-48.59-31.33-29.31-4-59.57-7.27-89.07-7.27-13.74 1.79-27 3-40.89 5.4-6.12 1.18-14.05 4.11-20.46 4.11-1.15 0 1.7-1.54 2.65-2.19 11.7-6.32 11.7-6.16 23.01-12.08 35.8-18.74 57.98-30.66 88.96-45.14 19.49-9.11 143.21-60.18 137.36-4.93-2.3 21.73-15.8 41.44-22.1 62.1-4.43 14.5-11.99 38.81-10.69 54.42 1.66 5.81 12.75 5.81 22.66 5.31 24.13-1.22 41.81-3.5 65.11-3.72" stroke-linecap="round" stroke-opacity=".3" stroke-width="5"/><path d="m2055.25 2137.93c-2.3 21.73-15.8 41.44-22.1 62.1-4.43 14.5-11.99 38.81-10.69 54.42 1.66 5.81 12.75 5.81 22.66 5.31 24.13-1.22 41.81-3.5 65.11-3.72" stroke-linecap="round" stroke-width="5"/><path d="m0 2610.5h3090" stroke-dasharray="10 10"/><path d="m0 2698.5h3090" stroke-dasharray="10 10"/><path d="m0 2550.5h3090" stroke-dasharray="10 10"/><path d="m0 2460.5h3090" stroke-dasharray="10 10"/><path d="m43.3503 2574.14c6.7744 4.39 14.2885 5.16 22.1283 5.1 18.3565 0 35.6174-10.93 26.4178-22.32-8.9443-11.08-31.5601-4.72-41.6012-.14-15.7499 7.17-25.9682 20.87-10.9621 35.47 20.6287 20.07 56.7497 18.87 81.0239 11.94 16.332-4.66 33.431-6.8 46.912-17.83 6.214-5.09 17.079-17.24 11.779-26.57-6.905-12.16-37.265-11.73-41.057 3.26-3.263 12.9 0 23.31 17.688 33.09 39.781 21.99 62.321 11.89 62.321 11.89" stroke-linecap="round" stroke-opacity=".3" stroke-width="5"/><path d="m43.3503 2574.14c6.7744 4.39 14.2885 5.16 22.1283 5.1 18.3565 0 35.6174-10.93 26.4178-22.32-8.9443-11.08-31.5601-4.72-41.6012-.14-15.7499 7.17-25.9682 20.87-10.9621 35.47 20.6287 20.07 56.7497 18.87 81.0239 11.94" stroke-linecap="round" stroke-width="5"/><path d="m559.281 2600.1c.443 7.97 12.689 8.43 18.639 9.32 17.841 2.69 36.439.35 53.812-4.21 25.239-6.62 45.278-35.25 18.939-54.8-19.477-14.46-48.353-13.84-71.323-13.61-28.64.3-56.57 3.61-84.702 8.65-11.24 2.01-43.46 11.19-33.895 4.96 20.844-13.6 43.856-24.21 66.814-33.6 42.252-17.28 86.305-40.12 131.223-48.66 20.485-3.89 52.344-11.06 67.791 8.12 5.127 6.36 7.74 14.29 10.222 21.94 5.024 15.5 15.374 39.22 20.279 54.75 5.44 17.23 8.147 23.04 4.071 41.52-6.374 28.9-55.402 14.13-36.3-12.85 30.231-42.71 94.097-25.65 137.461-9.88" stroke-linecap="round" stroke-opacity=".3" stroke-width="5"/><path d="m726.579 2476.27c5.126 6.36 7.74 14.29 10.222 21.94 5.024 15.5 15.374 39.22 20.279 54.75 5.44 17.23 8.147 23.04 4.071 41.52-6.375 28.9-55.402 14.13-36.3-12.85 30.231-42.71 94.096-25.65 137.461-9.88" stroke-linecap="round" stroke-width="5"/><path d="m954.656 2580.71c-1.485 2.97 26.903-3.27 28.86-4.06 12.854-5.18 19.334-17.21 1.954-22.39-14.608-4.36-36.436 7.82-37.427 24.05-1.551 25.39 39.695 30.2 57.267 32.27 28.34 3.33 73.44-2.49 94.25-26.1 16.68-18.93-17.74-29.46-30.67-29.46-8.54 0-19.31 1.43-24.42 9.25-5.91 9.03-.43 20.13 6.99 26.38 16.48 13.87 42.01 16.82 62.6 18.11 20.76 1.3 40.67-.44 61.11-2.93" stroke-linecap="round" stroke-opacity=".3" stroke-width="5"/><path d="m1005.31 2610.58c28.34 3.33 73.44-2.49 94.25-26.1 16.68-18.93-17.74-29.46-30.67-29.46-8.54 0-19.31 1.43-24.42 9.25-5.91 9.03-.43 20.13 6.99 26.38 16.48 13.87 42.01 16.82 62.6 18.11 20.76 1.3 40.67-.44 61.11-2.93" stroke-linecap="round" stroke-width="5"/><path d="m1571.47 2468.88c2.17-2.48-6.07-1.37-7.36-1.36-20.8.28-41.54 1.36-62.38 1.36-20.6 0-41.15.56-61.63-1.96-3.84-.47-9-2.42-7.97-1.5 33.68 29.93 47.83 59.12 59.76 100.75 8.39 29.31 16.2 59.28 18.86 89.74 1.11 12.63 5.76 37.41-10.22 43.35-10.94 4.07-15.67-2.69-16.68-13.38-2.78-29.32 11.99-57.68 24.42-83.33 9.94-20.51 22.72-39.67 42.69-51.56 13.93-8.29 34.85-16.35 46.97-1.05 9.37 11.82 15.59 28.87 17.29 43.74 1.18 10.35-4.97 25.24-18.11 17.51-13.32-7.83-1.57-33.82 4.96-42.01 10.76-13.5 27.57-23.78 44.87-22.55" stroke-linecap="round" stroke-opacity=".3" stroke-width="5"/><path d="m1550.96 2550.99c13.93-8.29 34.85-16.35 46.97-1.05 9.37 11.82 15.59 28.87 17.29 43.74 1.18 10.35-4.97 25.24-18.11 17.51-13.32-7.83-1.57-33.82 4.96-42.01 10.76-13.5 27.57-23.78 44.87-22.55" stroke-linecap="round" stroke-width="5"/><path d="m1860.59 2593.65c-2.58-2.26.84 2.04 1.13 2.33 10.12 10.12 23.91 15.61 38.1 16.54 23.72 1.54 72.76-23.02 71.55-52.98-1.26-31.42-49.24-28.67-69.67-26.38-32.23 3.63-64.43 11.51-95.97 19.02-13.37 3.18 26.08-8.7 39.23-12.7 55.38-16.84 111.59-29.47 167.45-44.42 14.2-3.8 36.77-6.89 48.02-17.59 8.61-8.18-13-10.94-16.68-11.5-13.29-2-30.93-4.61-43.37 2.18-14.75 8.07 5.64 15.25 11.73 18.04" stroke-linecap="round" stroke-opacity=".3" stroke-width="5"/><path d="m2012.41 2495.06c14.19-3.8 36.77-6.89 48.02-17.59 8.6-8.18-13-10.94-16.68-11.5-13.29-2-30.93-4.61-43.37 2.18-14.75 8.07 5.64 15.25 11.73 18.04" stroke-linecap="round" stroke-width="5"/><path d="m2301.12 2595.77c-10.49 0 20.78 3.99 31.27 3.61 12.87-.48 57.42-10.9 51.4-31.34-4.93-16.79-32.74-14.69-42.99-5.04-7.59 7.16-3.88 18.57 1.58 25.78 8.35 11.03 22.89 17.24 36.15 19.62 28.33 5.07 55.28-10.31 75.39-28.86 18.57-17.15 32.82-30.37 57.53-14.51 13.59 8.72 17.1 30.54-3.37 36.49-17.8 5.17-27.67 1.73-37.86-14.28" stroke-linecap="round" stroke-opacity=".3" stroke-width="5"/><path d="m2453.92 2579.54c18.57-17.15 32.82-30.37 57.53-14.51 13.59 8.72 17.1 30.54-3.37 36.49-17.8 5.17-27.67 1.73-37.86-14.28" stroke-linecap="round" stroke-width="5"/><path d="m2916.76 2466.78c-.45 3.61-44.9.71-48.1.71-26.43 0-52.47-3.41-78.77-3.41-.66 0-4.48-.44-4.81.22-1.65 3.31 22.22 30 23.95 32.54 19.19 28.14 35.18 58.34 47.12 90.24 10.09 26.95 18.7 59.47 9.4 87.93-4.03 12.31-12.94 25.23-27.21 24.73-12.95-.46-19.86-13.38-21.04-24.88-2.56-24.72 8.14-52.27 17.81-74.4 7.35-16.83 21.87-34.15 39.55-43.2 27.51-14.08 62.71 23.96 51 48.5-3.1 6.51-25.65 14.13-30.5 2.5-4.65-11.16 5-21.18 15.48-31.25" stroke-linecap="round" stroke-opacity=".3" stroke-width="5"/><path d="m2874.66 2557.26c27.51-14.08 62.71 23.96 51 48.5-3.1 6.51-25.65 14.13-30.5 2.5-4.65-11.16 5-21.18 15.48-31.25" stroke-linecap="round" stroke-width="5"/></g></svg>