<svg fill="none" height="886" viewBox="0 0 3731 886" width="3731" xmlns="http://www.w3.org/2000/svg"><g fill="#000"><path clip-rule="evenodd" d="m2673 138.168c-4 4-4 11 0 12 4 2 12-5 12-10 0-6-7-7-12-2zm95 88-42 1s-149 7-161 6c-24-3-18 20 20 84l22 40 14 23 17 31c18.44 36.192 38.46 71.559 60 106 22 34 24 40 13 58-31 57-43 109-30 128 12 20 50 27 72 15 34-19 34-66-1-153-10-26-13-23 10-57 25-37 39-53 60-73 0 0 5-6 13-11 3-3 8-6 14-7 21-5 62 29 52 41-36 41-26 119 10 87 16-13 18-54 6-82-4-11-4-11 10-22 19-14 31-19 45-19 38 0 43 28 10 62-14 15-14 16 2 25s40 28 40 32l-7 12c-49 63-52 103-11 123 24 11 46 1 62-27 11-22-1-62-31-103l-5-6 4-4c38-43 61-72 73-92 10-15 10-15 14-4 11 30 23 51 42 73 9 10 16 10 8 0-16.33-19.12-29.49-40.726-39-64-15-37-14-42-19-26-5 15-30 49-58 82l-18 20-10 11-11-11c-6-6-17-15-24-19-16-8-16-10-4-21 34-34 24-70-19-72-10 0-27 8-46 23l-16 11-5-8c-27-22-47-40-79-16-30.83 28.194-58.03 60.105-81 95-7 9-7 9-25-29-12.55-26.396-25.89-52.408-40-78-24.47-51.974-53.24-101.814-86-149-20-27-20-25-8-25l35-1 45-3 44-2c16.5-1.501 58-2 58-2s66 0 127 1 112 2 118 3c7 1 9-2 2-4-7-1-224-4-246-3zm-2074 39-20 2c-49.525 4.187-97.929 17.05-143 38-6 0-6 0-6 8 0 9 0 9 44 60 17.337 19.596 33.371 40.307 48 62 5-2 57 79 54 83-3 3-57 13-93 12-59-3-106-16-144-47-23.755-17.988-45.542-38.434-65-61-16-14-28-13-28 2 0 10-19 48-32 64l-20 26c-3 4-6 7-6 9 0 10 38-39 52-66 10-21 8-21 20-2 21 34 65 69 96 79 50 15 123 20 169 10 45-9 61-16 61-16l4 1 10 15 26 46c42 73 56 105 70 154 2 6 3 8 6 8h5l-1-24c0-35 14-76 41-119 32-51 59-81 103-113 49-33 67-43 74-26 0 1 3 3 3 5 2 2 3 2 3 4-1 1 0 3 2 4l4 13 16 28c7 12 25 27 26 28 0 3 2 5 4 5 3 0 4-1 3-4 0-1-22-19-29-34l-13-25c-23-39-17-36-39-33-8 1-41 20-47 24l-18 14c-58.563 47.006-104.025 108.31-132 178-8 20-11 17-19-16-3-13-40-90-57-119s-17-24-2-27c24-5 83-32 115-49 95-50 98-113 7-169-41-25-105-38-152-32zm60 8c11.471 1.122 22.838 3.128 34 6 32 0 106 57 116 92 12 35-34 81-106 107l-25 9c-24 9-57 23-65 23-4 0-16-19-24-34-26.329-42.885-56.809-83.078-91-120-14.593-17.348-30.652-33.407-48-48 4-4 15-9 24-11l16-6c54.712-16.515 112.037-22.62 169-18zm-415 41c0 5 3 8 6 8 6-1 5-10-1-11-4 0-5 1-5 3zm1965-12c-12.9 3.619-25.59 7.959-38 13-20 6-49 23-49 30 0 5 2 4 13-3 10-7 25-15 43-22 34-13 44-17 45-19 0-2-3-2-14 1zm-678 71c0 5 6 8 12 6 5-1 3-5-3-7-8-3-9-3-9 1zm470 38c-7 2-10 14-8 37l3 21-8 11c-53 78-128 94-211 85-30.9-3.469-61.6-8.475-92-15-27-4-101-38-115-53-5-6-17-19-23-28s-18-4-20 9c-1 13-12 32-30 56-16 21-19 26-17 27 2 3 30-34 41-55 11-18 11-18 17-6 8 17 22 30 48 42 45.71 21.951 95.35 34.531 146 37 85 4 109-4 147-11 17-6 57-25 76-44 13-13 36-39 41-46 3-5 3-5 10 10l7 12 8 10 8 10 11 9c10 10 25 20 42 26l13 7c25 18 121 22 162 6 88-33 21-139-75-118-12 3-3 5 21 5 35 0 55 7 73 27 54 60-40 105-142 69-51-19-94-65-112-121-3-11-14-21-21-19zm1087 4c-17 15 15 73 52 96 34 20 128 25 204 11 18-4 12-8-9-6-43 4-100 0-127-9-46-15-64-31-95-83-8-14-17-17-25-9zm-2104 45c-17 19 18 68 65 84 38 13 183 8 250-9 11-2 3-5-13-3l-36 3c-32 2-112 0-131-3-42-8-60-17-100-55-20-19-25-27-35-17zm1834 11c12 33 3 76-16 74-21-2-17-48 6-80 5-5 5-5 10 6zm123 85c37 51 38 96 2 114-27 14-62-16-54-46 4-18 38-77 44-77zm-299 36c39 83 33 128-17 123-29-3-40-16-38-45 2-22 34-101 41-101 2 0 8 10 14 23zm-2383 13c-4 4-1 8 5 8s6-1 3-7c-2-4-6-4-8-1zm1293 35-26 12c-13 6-23 6-31-5-3-1-3-1-3 2 0 5 8 19 14 19 5 0 64-29 65-32s-5-2-19 4z" fill-rule="evenodd"/><path d="m3157 328.168c-20 10-12 3 20-19 31-22 41-27 40-20l-13 9c-16.05 9.389-31.73 19.396-47 30zm-2076-22c-4-6-3-12 2-12 6 1 8 3 8 8-1 7-7 9-10 4zm15 37c5-4 15-9 22-12 14-7 19-6 11 2-11 11-102 48-104 42-1-1 13-7 30-14zm-70-12c-3-1-3-3-1-9 3-8 6-8 10-2 3 3-5 12-9 11zm849-90c109-27 208-65 259-99 12-8 23-11 23-5-16.68 7.626-33.03 15.967-49 25-44 23-63 31-105 45-138.43 48.521-283.4 75.829-430 81-37 0-33 3 11 9 71 10 69 10 133 16l60 7c95 10 176 40 195 72 11 19-2 59-26 77l-12 10c-34 22-82 29-125 6-23-12-39-25-47-46-9-30 4 2 13 12 12 13 22 21 39 29 55 26 126 1 149-45 28-56-57-98-229-115-132-13-201-23-204-31-1-5 3-6 50-7 31.43-.868 62.79-3.204 94-7 63-6 147-20 201-34zm70-69c-5 0-7-2-6-6 1-3 6-3 10-1s1 7-4 7zm-197 46 93-23c9-3 23-4 24-1 2 3-2 5-14 6-13 1-31 6-83 20-49 13-75 17-75 11 0-5 0-5 24-8z"/></g></svg>