<svg fill="none" height="153" viewBox="0 0 282 153" width="282" xmlns="http://www.w3.org/2000/svg"><path d="m76.5336 87.7921c-1.0946-9.851 21.9117-6.7753 27.8064-6.1055 14.824 1.6846 33.729 8.7959 38.756 24.6204 3.945 12.421-6.936 24.33-16.591 30.329-35.3301 21.952-83.9855 17.945-108.9021-13.228-14.36946-17.977-20.28919-41.9243-7.3-62.2485 14.6153-22.8687 40.214-32.0176 64.7707-41.9144 44.5604-17.95846 91.4264-25.74497 134.4524 2.1809 17.974 11.6661 29.474 20.074 44.53 33.3307 16.944 14.9198 19.153 22.4016 23.426 37.2826 7.107 24.7517-8.98 57.4677-37.296 58.2667-14.14.4-22.888-12.833-16.724-25.881 6.724-14.235 23.619-18.616 37.031-23.493" stroke="#000" stroke-linecap="round" stroke-width="5"/></svg>