<svg fill="none" height="154" viewBox="0 0 362 154" width="362" xmlns="http://www.w3.org/2000/svg"><path d="m89.8083 136.725c.8838 0-1.0465-.161-.5691.854 2.7221 5.784 12.3138 9.259 17.8708 10.529 13.382 3.057 28.118 1.574 40.922-3.074 9.352-3.395 23.533-13.013 28.742-22.326 10.134-18.12-40.737-27.0096-48.605-28.6851-32.0427-6.823-67.5328-10.6612-100.056-4.8946-8.0725 1.4313-15.9314 3.9944-23.84721 6.0898-3.426097.9069.00219-.4036 1.08138-1.4228 9.10833-8.6024 18.46813-16.6093 28.79873-23.7903 33.5658-23.3324 71.0391-38.047 110.0731-50.0443 17.147-5.2706 34.594-10.40646 52.247-13.71644 10.729-2.01169 23.56-5.10097 34.49-2.78881 17.652 3.73399 16.862 27.11535 18.668 41.20615 3.524 27.4866 5.119 52.2533 10.245 79.5264.248 1.318 7.363 29.058 9.448 27.205 2.334-2.076.858-9.099 1.073-13.408.61-12.223.921-22.856 8.57-31.896 8.802-10.4026 27.152-13.5538 40.068-11.8384 12.283 1.6313 21.127 5.8644 33.807 2.8457 3.608-.8589 10.397-2.6085 3.529-4.3255" stroke="#000" stroke-linecap="round" stroke-width="5"/></svg>