<svg width="362" height="154" viewBox="0 0 362 154" fill="none" xmlns="http://www.w3.org/2000/svg">
<path d="M89.8083 136.725C90.6921 136.725 88.7618 136.564 89.2392 137.579C91.9613 143.363 101.553 146.838 107.11 148.108C120.492 151.165 135.228 149.682 148.032 145.034C157.384 141.639 171.565 132.021 176.774 122.708C186.908 104.588 136.037 95.6984 128.169 94.0229C96.1263 87.1999 60.6362 83.3617 28.113 89.1283C20.0405 90.5596 12.1816 93.1227 4.26579 95.2181C0.839693 96.125 4.26798 94.8145 5.34717 93.7953C14.4555 85.1929 23.8153 77.186 34.1459 70.005C67.7117 46.6726 105.185 31.958 144.219 19.9607C161.366 14.6901 178.813 9.55424 196.466 6.24426C207.195 4.23257 220.026 1.14329 230.956 3.45545C248.608 7.18944 247.818 30.5708 249.624 44.6616C253.148 72.1482 254.743 96.9149 259.869 124.188C260.117 125.506 267.232 153.246 269.317 151.393C271.651 149.317 270.175 142.294 270.39 137.985C271 125.762 271.311 115.129 278.96 106.089C287.762 95.6864 306.112 92.5352 319.028 94.2506C331.311 95.8819 340.155 100.115 352.835 97.0963C356.443 96.2374 363.232 94.4878 356.364 92.7708" stroke="black" stroke-width="5" stroke-linecap="round"/>
</svg>
