<svg fill="none" height="70" viewBox="0 0 287 70" width="287" xmlns="http://www.w3.org/2000/svg"><path d="m14.2435 40.0454c-3.3078 0-1.4966 2.2905.6165 3.4528 11.3478 6.2412 24.9669 7.4598 37.2403 3.3294 9.0661-3.0511 24.0039-11.749 17.1403-22.9977-7.7864-12.761-24.566-17.22983-38.35-12.7628-12.1226 3.9286-32.23328 17.3989-27.49857 32.7393 5.35788 17.3596 31.57717 21.4269 46.61187 22.6278 24.0503 1.9209 55.7181-.4008 75.4961-14.1725 12.743-8.8728 19.054-28.2859 19.208-45.01725m-.864-4.68586c5.579 17.97681-5.978 38.18371 8.656 53.20311 26.5 15.5 66.116 7.8929 94 5.3701 11.986-1.0845 23.604 0 35.639 0 4.395 0-.229.8473-1.542 1.1098" stroke="#000" stroke-linecap="round" stroke-width="5"/></svg>