<svg width="270" height="241" viewBox="0 0 270 241" fill="none" xmlns="http://www.w3.org/2000/svg">
<path d="M141.759 8.18617C110.664 8.18617 83.5 7.06108 52.1654 7.06108C35.5 7.06108 19.7849 5.99337 3.51879 3.4909C2.55658 3.34287 5.403 5.29775 5.61509 5.52555C11.856 12.2288 16.2916 20.8686 21.0907 28.5849C40.5203 59.8246 55.5592 80.5099 64.7508 116.392C71.7777 143.824 77.1488 201.6 64.0726 228.198C58.4643 239.606 46.1777 243.046 43.2329 228.321C37.9297 201.805 43.002 146.915 56.4273 123.421C66.1368 106.429 84.8921 94.5444 104.889 95.491C123.4 96.3673 129.038 109.482 129.366 126.381C129.616 139.262 128.5 140.762 130.688 153.395C131.164 155.014 133.036 150.818 133.524 149.203C135.814 141.623 136.5 134.262 137.985 126.698C140.917 111.762 140.787 102.314 156.668 98.1229C172.444 93.9597 200.053 95.7204 215.561 98.2268C230.98 100.719 246.791 100.257 262.358 101.591C268.107 102.084 268.938 101.058 263.838 98.5081" stroke="black" stroke-width="5" stroke-linecap="round"/>
</svg>
