<svg fill="none" height="241" viewBox="0 0 270 241" width="270" xmlns="http://www.w3.org/2000/svg"><path d="m141.759 8.18617c-31.095 0-58.259-1.12509-89.5936-1.12509-16.6654 0-32.3805-1.06771-48.64661-3.57018-.96221-.14803 1.88421 1.80685 2.0963 2.03465 6.24091 6.70325 10.67651 15.34305 15.47561 23.05935 19.4296 31.2397 34.4685 51.925 43.6601 87.8071 7.0269 27.432 12.398 85.208-.6782 111.806-5.6083 11.408-17.8949 14.848-20.8397.123-5.3032-26.516-.2309-81.406 13.1944-104.9 9.7095-16.992 28.4648-28.8766 48.4617-27.93 18.511.8763 24.149 13.991 24.477 30.89.25 12.881-.866 14.381 1.322 27.014.476 1.619 2.348-2.577 2.836-4.192 2.29-7.58 2.976-14.941 4.461-22.505 2.932-14.936 2.802-24.384 18.683-28.5751 15.776-4.1632 43.385-2.4025 58.893.1039 15.419 2.4922 31.23 2.0302 46.797 3.3642 5.749.493 6.58-.533 1.48-3.0829" stroke="#000" stroke-linecap="round" stroke-width="5"/></svg>