<svg fill="none" height="152" viewBox="0 0 472 152" width="472" xmlns="http://www.w3.org/2000/svg"><path d="m62.968 141.162c1.3031 0-.8699.406-1.1163.638-3.0922 2.921 12.3927 5.069 12.5983 5.103 16.8658 2.845 33.9 2.61 50.553-1.594 14.523-3.667 33.807-9.693 44.094-21.449 18.7-21.372-20.522-35.6776-35.323-38.3533-35.7766-6.4672-72.965-.5709-107.4846 9.7278-7.0716 2.1098-13.7427 4.9225-20.57184 7.6545-1.57467.63-4.26122.912-2.07313-1.276 15.42127-15.4209 38.80137-27.478 57.01127-38.8311 41.0463-25.5907 84.3923-43.9592 131.6743-55.08432 14.208-3.34313 31.973-8.093494 46.247-2.23261 10.43 4.28284 13.215 16.19373 14.99 26.15343 6.056 33.9816 7.121 49.0117 12.641 83.1786.273 1.686 4.688 36.179 7.163 34.446 1.502-7.981 1.502-9.981 1.502-14.911 0-21.07 9.539-25.152 25.735-33.715 23.057-12.1911 31.448-12.2934 64.872-11.3226 18.906.5491 32.52 2.9673 48.081 4.8076 15.561 1.8402 29.349 2.148 41.224 10.23 19.66 13.38 18.587 29.422 1.275 42.406" stroke="#000" stroke-linecap="round" stroke-width="5"/></svg>