<svg fill="none" height="66" viewBox="0 0 328 66" width="328" xmlns="http://www.w3.org/2000/svg"><path d="m3.98054 55.1354c-3.152731 0 9.22536 5.3971 10.16136 5.6494 21.6437 5.8344 45.3489-.3835 63.5466-12.588 8.1037-5.4347 15.7384-12.227 17.6687-22.2564 1.2472-6.4799-.2409-14.0363-5.6494-18.27538-6.8885-5.39907-19.7721-6.20228-26.3514.22749-7.9464 7.76579-15.0697 20.15749-11.2988 31.46999 5.3355 16.0065 25.2325 19.1375 39.7735 20.0953 11.9999.7904 24.0539.0877 35.8299-2.4266 9.044-1.931 19.136-4.8962 25.442-12.133 8.635-9.9106 9.838-25.4113 2.843-36.3232-.962-1.50215-2.865-2.63784-1.289-1.06164 2.057 2.05641 3.831 6.63834 4.503 9.32724 2.843 11.374 3.13 22.9767 11.119 32.0008 9.146 10.3323 21.406 6.924 35.221 8.9434 23.5 0 40 1.9769 61.5 1.9769 11.5 0 23.35-.8481 33.86-3.5314 6.431-1.642 14.032-3.4846 19.034-8.1898 8.439-7.9383 4.605-21.159-2.124-28.7733-2.559-2.8965-6-5.2688-9.479-6.9386-1.595-.7658-.26.7264.076 1.1754" stroke="#000" stroke-linecap="round" stroke-width="5"/></svg>