<svg width="301" height="239" viewBox="0 0 301 239" fill="none" xmlns="http://www.w3.org/2000/svg">
<path d="M184.664 7.16655C180.85 7.16655 178.057 5.6009 174.298 5.01368C156.851 2.28747 138.778 2.86081 121.194 2.86081C81.9109 2.86081 42.6277 2.86081 3.34442 2.86081C2.73064 2.86081 6.85862 3.83495 7.01227 3.89737C15.5082 7.34884 22.296 15.5135 28.3815 21.9974C61.2787 57.0486 86.6061 100.589 95.8382 148.14C101.299 176.268 102.786 212.763 77.1799 232.5C51.9247 251.968 62.6878 186.722 64.5817 179.715C72.4719 150.521 92.3626 116.233 116.888 97.7466C134.222 84.6815 142.249 100.262 147.188 116.724C150.5 127.762 149.5 124.262 151.009 129.974C152.897 137.123 154.213 143.901 157.394 148.393C158.318 149.697 159.56 136.823 159.627 136.193C160.773 125.391 161.08 123.021 165 115.762C175.869 95.6369 199.058 97.6917 219.748 94.9559C243.737 91.7837 273.032 95.8973 288.48 116.963C293.744 124.141 298.049 131.654 298.049 140.645C298.049 147.292 292.182 149.491 291.5 146.762" stroke="black" stroke-width="5" stroke-linecap="round"/>
</svg>
