<svg fill="none" height="246" viewBox="0 0 3090 246" width="3090" xmlns="http://www.w3.org/2000/svg"><g stroke="#000"><g stroke-dasharray="10 10"><path d="m0 151.5h3090"/><path d="m0 239.5h3090"/><path d="m0 91.5h3090"/><path d="m0 1.5h3090"/></g><g stroke-linecap="round" stroke-width="5"><path d="m85.4218 87.7921c-1.0946-9.851 21.9122-6.7753 27.8062-6.1055 14.824 1.6846 33.73 8.7959 38.756 24.6204 3.946 12.421-6.936 24.33-16.591 30.329-35.33 21.952-83.9853 17.945-108.9019-13.228-14.3695-17.977-20.28921-41.9243-7.3-62.2485 14.6153-22.8687 40.2139-32.0176 64.7707-41.9144 44.5602-17.95846 91.4262-25.74497 134.4522 2.1809 17.974 11.6661 29.474 20.074 44.53 33.3307 16.944 14.9198 19.153 22.4016 23.426 37.2826 7.107 24.7517-8.98 57.4677-37.296 58.2667-14.139.4-22.887-12.833-16.724-25.881 6.724-14.235 23.619-18.616 37.031-23.493" stroke-opacity=".3"/><path d="m85.4218 87.7921c-1.0946-9.851 21.9122-6.7753 27.8062-6.1055 14.824 1.6846 33.73 8.7959 38.756 24.6204 3.946 12.421-6.936 24.33-16.591 30.329-35.33 21.952-83.9853 17.945-108.9019-13.228-14.3695-17.977-20.28921-41.9243-7.3-62.2485 14.6153-22.8687 40.2139-32.0176 64.7707-41.9144 44.5602-17.95846 91.4262-25.74497 134.4522 2.1809"/><path d="m546.028 137.468c.883 0-1.047-.16-.57.854 2.723 5.785 12.314 9.26 17.872 10.529 13.381 3.057 28.117 1.575 40.921-3.073 9.353-3.395 23.533-13.014 28.742-22.327 10.135-18.119-40.736-27.0089-48.605-28.6844-32.042-6.8231-67.533-10.6612-100.056-4.8947-8.072 1.4313-15.931 3.9945-23.847 6.0899-3.426.9069.002-.4037 1.081-1.4229 9.109-8.6023 18.469-16.6092 28.799-23.7903 33.566-23.3323 71.039-38.0469 110.073-50.0443 17.148-5.2705 34.594-10.4064 52.247-13.71639 10.729-2.01169 23.56-5.10096 34.491-2.78881 17.651 3.73399 16.861 27.1154 18.668 41.2061 3.523 27.4866 5.118 52.2533 10.244 79.5258.248 1.319 7.363 29.059 9.448 27.205 2.335-2.075.858-9.098 1.073-13.407.61-12.224.921-22.856 8.57-31.897 8.802-10.4019 27.152-13.5532 40.068-11.8378 12.283 1.6314 21.127 5.8648 33.807 2.8458 3.608-.859 10.397-2.6086 3.529-4.3256" stroke-opacity=".3"/><path d="m687.176 4.19922c17.651 3.73399 16.861 27.11538 18.667 41.20608 3.524 27.4867 5.119 52.2533 10.245 79.5257.248 1.319 7.363 29.059 9.448 27.206 2.335-2.076.858-9.099 1.073-13.408.61-12.224.921-22.856 8.57-31.896 8.802-10.4028 27.152-13.5541 40.068-11.8387 12.283 1.6314 21.127 5.8647 33.807 2.8458 3.608-.8589 10.397-2.6086 3.529-4.3255"/><path d="m959.56 126.045c-3.308 0-1.497 2.291.616 3.453 11.348 6.241 24.967 7.46 37.24 3.33 9.064-3.052 24.004-11.749 17.144-22.998-7.79-12.7611-24.569-17.2299-38.353-12.7629-12.123 3.9289-32.234 17.3989-27.499 32.7389 5.358 17.36 31.577 21.427 46.612 22.628 24.05 1.921 55.72-.401 75.5-14.172 12.74-8.873 19.05-28.286 19.2-45.0176m-.86-4.6858c5.58 17.9764-5.98 38.1834 8.66 53.2034 26.5 15.5 66.11 7.893 94 5.37 11.98-1.085 23.6 0 35.63 0 4.4 0-.22.847-1.54 1.11" stroke-opacity=".3"/><path d="m1089.16 88.5586c5.58 17.9764-5.98 38.1834 8.66 53.2034 26.5 15.5 66.11 7.893 94 5.37 11.98-1.085 23.6 0 35.64 0 4.39 0-.23.847-1.55 1.11"/><path d="m1570.44 13.2809c-31.1 0-58.26-1.1251-89.6-1.1251-16.66 0-32.38-1.0677-48.64-3.57017-.96-.14803 1.88 1.80687 2.09 2.03467 6.25 6.7032 10.68 15.3431 15.48 23.0593 19.43 31.2398 34.47 51.9251 43.66 87.8074 7.03 27.432 12.4 85.208-.68 111.806-5.61 11.408-17.89 14.847-20.84.123-5.3-26.516-.23-81.406 13.2-104.9 9.71-16.992 28.46-28.8768 48.46-27.93 18.51.876 24.15 13.991 24.48 30.889.25 12.881-.87 14.381 1.32 27.015.47 1.619 2.35-2.577 2.83-4.192 2.29-7.58 2.98-14.942 4.46-22.505 2.94-14.937 2.81-24.385 18.69-28.575 15.77-4.1636 43.38-2.403 58.89.104 15.42 2.492 31.23 2.029 46.8 3.364 5.75.492 6.58-.533 1.48-3.083" stroke-opacity=".3"/><path d="m1558.05 131.475c.25 12.881-.87 14.381 1.32 27.015.47 1.619 2.35-2.577 2.83-4.193 2.29-7.579 2.98-14.941 4.46-22.504 2.94-14.937 2.81-24.385 18.69-28.575 15.77-4.1636 43.38-2.403 58.89.104 15.42 2.491 31.23 2.029 46.8 3.364 5.75.492 6.58-.533 1.48-3.083"/><path d="m1559.37 158.49c.47 1.619 2.35-2.577 2.83-4.193 2.29-7.579 2.98-14.941 4.46-22.504 2.94-14.937 2.81-24.385 18.69-28.575 15.77-4.1636 43.38-2.403 58.89.104 15.42 2.491 31.23 2.029 46.8 3.364 5.75.492 6.58-.533 1.48-3.083"/><path d="m2299.51 144.135c-3.15 0 9.23 5.397 10.16 5.65 21.65 5.834 45.35-.384 63.55-12.588 8.1-5.435 15.74-12.227 17.67-22.257 1.25-6.479-.24-14.036-5.65-18.275-6.89-5.399-19.77-6.2023-26.35.2275-7.95 7.7655-15.07 20.1575-11.3 31.4695 5.34 16.007 25.23 19.138 39.77 20.096 12 .79 24.06.088 35.83-2.427 9.05-1.931 19.14-4.896 25.44-12.133 8.64-9.91 9.84-25.411 2.85-36.323-.96-1.5021-2.87-2.6378-1.29-1.0616 2.06 2.0564 3.83 6.6386 4.5 9.3276 2.85 11.374 3.13 22.976 11.12 32 9.15 10.333 21.41 6.924 35.22 8.944 23.5 0 40 1.977 61.5 1.977 11.5 0 23.35-.848 33.86-3.532 6.43-1.642 14.03-3.484 19.04-8.189 8.43-7.939 4.6-21.159-2.13-28.774-2.56-2.896-6-5.269-9.48-6.938-1.59-.766-.26.726.08 1.175" stroke-opacity=".3"/><path d="m2448.63 133.898c8.64-9.91 9.84-25.411 2.85-36.323-.96-1.5022-2.87-2.6379-1.29-1.0617 2.06 2.0564 3.83 6.6387 4.5 9.3277 2.85 11.374 3.13 22.976 11.12 32 9.15 10.333 21.41 6.924 35.22 8.944 23.5 0 40 1.977 61.5 1.977 11.5 0 23.35-.848 33.86-3.532 6.43-1.642 14.03-3.484 19.04-8.19 8.43-7.938 4.6-21.158-2.13-28.773-2.56-2.896-6-5.269-9.48-6.938-1.59-.766-.26.726.08 1.175"/><path d="m1863.15 142.162c1.3 0-.87.406-1.12.638-3.09 2.921 12.39 5.069 12.6 5.103 16.87 2.845 33.9 2.61 50.55-1.594 14.53-3.667 33.81-9.693 44.1-21.449 18.7-21.372-20.53-35.6776-35.33-38.3533-35.77-6.4672-72.96-.5709-107.48 9.7278-7.07 2.1098-13.74 4.9225-20.57 7.6545-1.58.63-4.26.912-2.08-1.276 15.43-15.4209 38.81-27.478 57.02-38.8311 41.04-25.5907 54.39-43.9592 101.67-55.08432 14.21-3.34313 31.97-8.093494 46.25-2.23261 10.43 4.28283 13.21 16.19373 14.99 26.15343 6.05 33.9816 7.12 49.0117 12.64 83.1786.27 1.686 4.69 36.179 7.16 34.446 1.5-7.981 1.5-9.981 1.5-14.911 0-21.07 9.54-25.152 25.74-33.715 23.05-12.1911 31.45-12.2934 64.87-11.3226 18.91.5491 32.52 2.9673 48.08 4.8076 15.56 1.8402 29.35 2.148 41.22 10.23 19.67 13.38 18.59 29.422 1.28 42.406" stroke-opacity=".3"/><path d="m2036.39 115.797c.27 1.686 4.69 36.179 7.16 34.446 1.5-7.981 1.5-9.981 1.5-14.911 0-21.07 9.54-25.151 25.74-33.715 23.05-12.1908 31.45-12.2932 64.87-11.3224 18.91.5492 32.52 2.9673 48.08 4.8076 15.56 1.8402 29.35 2.148 41.22 10.2298 19.67 13.38 18.59 29.422 1.28 42.406"/><path d="m2966.38 9.16655c-3.81 0-6.61-1.56565-10.36-2.15287-17.45-2.72621-35.52-2.15287-53.11-2.15287-39.28 0-78.56 0-117.85 0-.61 0 3.52.97414 3.67 1.03656 8.5 3.45147 15.28 11.61613 21.37 18.10003 32.9 35.0512 58.22 78.5916 67.46 126.1426 5.46 28.128 6.94 64.623-18.66 84.36-25.26 19.468-14.49-45.778-12.6-52.785 7.89-29.194 27.78-63.482 52.31-81.9684 17.33-13.0651 25.36 2.5154 30.3 18.9774 3.31 11.038 2.31 7.538 3.82 13.25 1.89 7.149 3.2 13.927 6.38 18.419.93 1.304 2.17-11.57 2.23-12.2 1.15-10.802 1.46-13.172 5.38-20.431 10.87-20.1251 34.06-18.0703 54.75-20.8061 23.99-3.1722 53.28.9414 68.73 22.0071 5.26 7.178 9.57 14.691 9.57 23.682 0 6.647-5.87 8.846-6.55 6.117" stroke-opacity=".3"/><path d="m2939.11 150.393c.93 1.304 2.17-11.57 2.23-12.2 1.15-10.802 1.46-13.172 5.38-20.431 10.87-20.125 34.06-18.0703 54.75-20.806 23.99-3.1722 53.28.9414 68.73 22.007 5.26 7.178 9.57 14.691 9.57 23.682 0 6.647-5.87 8.846-6.55 6.117"/></g></g></svg>