<svg width="3090" height="246" viewBox="0 0 3090 246" fill="none" xmlns="http://www.w3.org/2000/svg">
<line y1="151.5" x2="3090" y2="151.5" stroke="black" stroke-dasharray="10 10"/>
<line y1="239.5" x2="3090" y2="239.5" stroke="black" stroke-dasharray="10 10"/>
<line y1="91.5" x2="3090" y2="91.5" stroke="black" stroke-dasharray="10 10"/>
<line y1="1.5" x2="3090" y2="1.5" stroke="black" stroke-dasharray="10 10"/>
<path d="M85.4218 87.7921C84.3272 77.9411 107.334 81.0168 113.228 81.6866C128.052 83.3712 146.958 90.4825 151.984 106.307C155.93 118.728 145.048 130.637 135.393 136.636C100.063 158.588 51.4077 154.581 26.4911 123.408C12.1216 105.431 6.20189 81.4837 19.1911 61.1595C33.8064 38.2908 59.405 29.1419 83.9618 19.2451C128.522 1.28664 175.388 -6.49987 218.414 21.426C236.388 33.0921 247.888 41.5 262.944 54.7567C279.888 69.6765 282.097 77.1583 286.37 92.0393C293.477 116.791 277.39 149.507 249.074 150.306C234.935 150.706 226.187 137.473 232.35 124.425C239.074 110.19 255.969 105.809 269.381 100.932" stroke="black" stroke-opacity="0.3" stroke-width="5" stroke-linecap="round"/>
<path d="M85.4218 87.7921C84.3272 77.9411 107.334 81.0168 113.228 81.6866C128.052 83.3712 146.958 90.4825 151.984 106.307C155.93 118.728 145.048 130.637 135.393 136.636C100.063 158.588 51.4077 154.581 26.4911 123.408C12.1216 105.431 6.20189 81.4837 19.1911 61.1595C33.8064 38.2908 59.405 29.1419 83.9618 19.2451C128.522 1.28664 175.388 -6.49987 218.414 21.426" stroke="black" stroke-width="5" stroke-linecap="round"/>
<path d="M546.028 137.468C546.911 137.468 544.981 137.308 545.458 138.322C548.181 144.107 557.772 147.582 563.33 148.851C576.711 151.908 591.447 150.426 604.251 145.778C613.604 142.383 627.784 132.764 632.993 123.451C643.128 105.332 592.257 96.4421 584.388 94.7666C552.346 87.9435 516.855 84.1054 484.332 89.8719C476.26 91.3032 468.401 93.8664 460.485 95.9618C457.059 96.8687 460.487 95.5581 461.566 94.5389C470.675 85.9366 480.035 77.9297 490.365 70.7486C523.931 47.4163 561.404 32.7017 600.438 20.7043C617.586 15.4338 635.032 10.2979 652.685 6.98791C663.414 4.97622 676.245 1.88695 687.176 4.1991C704.827 7.93309 704.037 31.3145 705.844 45.4052C709.367 72.8918 710.962 97.6585 716.088 124.931C716.336 126.25 723.451 153.99 725.536 152.136C727.871 150.061 726.394 143.038 726.609 138.729C727.219 126.505 727.53 115.873 735.179 106.832C743.981 96.4301 762.331 93.2788 775.247 94.9942C787.53 96.6256 796.374 100.859 809.054 97.84C812.662 96.981 819.451 95.2314 812.583 93.5144" stroke="black" stroke-opacity="0.3" stroke-width="5" stroke-linecap="round"/>
<path d="M687.176 4.19922C704.827 7.93321 704.037 31.3146 705.843 45.4053C709.367 72.892 710.962 97.6586 716.088 124.931C716.336 126.25 723.451 153.99 725.536 152.137C727.871 150.061 726.394 143.038 726.609 138.729C727.219 126.505 727.53 115.873 735.179 106.833C743.981 96.4302 762.331 93.2789 775.247 94.9943C787.53 96.6257 796.374 100.859 809.054 97.8401C812.662 96.9812 819.451 95.2315 812.583 93.5146" stroke="black" stroke-width="5" stroke-linecap="round"/>
<path d="M959.56 126.045C956.252 126.045 958.063 128.336 960.176 129.498C971.524 135.739 985.143 136.958 997.416 132.828C1006.48 129.776 1021.42 121.079 1014.56 109.83C1006.77 97.0689 989.991 92.6001 976.207 97.0671C964.084 100.996 943.973 114.466 948.708 129.806C954.066 147.166 980.285 151.233 995.32 152.434C1019.37 154.355 1051.04 152.033 1070.82 138.262C1083.56 129.389 1089.87 109.976 1090.02 93.2444M1089.16 88.5586C1094.74 106.535 1083.18 126.742 1097.82 141.762C1124.32 157.262 1163.93 149.655 1191.82 147.132C1203.8 146.047 1215.42 147.132 1227.45 147.132C1231.85 147.132 1227.23 147.979 1225.91 148.242" stroke="black" stroke-opacity="0.3" stroke-width="5" stroke-linecap="round"/>
<path d="M1089.16 88.5586C1094.74 106.535 1083.18 126.742 1097.82 141.762C1124.32 157.262 1163.93 149.655 1191.82 147.132C1203.8 146.047 1215.42 147.132 1227.46 147.132C1231.85 147.132 1227.23 147.979 1225.91 148.242" stroke="black" stroke-width="5" stroke-linecap="round"/>
<path d="M1570.44 13.2809C1539.34 13.2809 1512.18 12.1558 1480.84 12.1558C1464.18 12.1558 1448.46 11.0881 1432.2 8.58563C1431.24 8.4376 1434.08 10.3925 1434.29 10.6203C1440.54 17.3235 1444.97 25.9634 1449.77 33.6796C1469.2 64.9194 1484.24 85.6047 1493.43 121.487C1500.46 148.919 1505.83 206.695 1492.75 233.293C1487.14 244.701 1474.86 248.14 1471.91 233.416C1466.61 206.9 1471.68 152.01 1485.11 128.516C1494.82 111.524 1513.57 99.6392 1533.57 100.586C1552.08 101.462 1557.72 114.577 1558.05 131.475C1558.3 144.356 1557.18 145.856 1559.37 158.49C1559.84 160.109 1561.72 155.913 1562.2 154.298C1564.49 146.718 1565.18 139.356 1566.66 131.793C1569.6 116.856 1569.47 107.408 1585.35 103.218C1601.12 99.0544 1628.73 100.815 1644.24 103.322C1659.66 105.814 1675.47 105.351 1691.04 106.686C1696.79 107.178 1697.62 106.153 1692.52 103.603" stroke="black" stroke-opacity="0.3" stroke-width="5" stroke-linecap="round"/>
<path d="M1558.05 131.475C1558.3 144.356 1557.18 145.856 1559.37 158.49C1559.84 160.109 1561.72 155.913 1562.2 154.297C1564.49 146.718 1565.18 139.356 1566.66 131.793C1569.6 116.856 1569.47 107.408 1585.35 103.218C1601.12 99.0544 1628.73 100.815 1644.24 103.322C1659.66 105.813 1675.47 105.351 1691.04 106.686C1696.79 107.178 1697.62 106.153 1692.52 103.603" stroke="black" stroke-width="5" stroke-linecap="round"/>
<path d="M1559.37 158.49C1559.84 160.109 1561.72 155.913 1562.2 154.297C1564.49 146.718 1565.18 139.356 1566.66 131.793C1569.6 116.856 1569.47 107.408 1585.35 103.218C1601.12 99.0544 1628.73 100.815 1644.24 103.322C1659.66 105.813 1675.47 105.351 1691.04 106.686C1696.79 107.178 1697.62 106.153 1692.52 103.603" stroke="black" stroke-width="5" stroke-linecap="round"/>
<path d="M2299.51 144.135C2296.36 144.135 2308.74 149.532 2309.67 149.785C2331.32 155.619 2355.02 149.401 2373.22 137.197C2381.32 131.762 2388.96 124.97 2390.89 114.94C2392.14 108.461 2390.65 100.904 2385.24 96.665C2378.35 91.266 2365.47 90.4627 2358.89 96.8925C2350.94 104.658 2343.82 117.05 2347.59 128.362C2352.93 144.369 2372.82 147.5 2387.36 148.458C2399.36 149.248 2411.42 148.546 2423.19 146.031C2432.24 144.1 2442.33 141.135 2448.63 133.898C2457.27 123.988 2458.47 108.487 2451.48 97.575C2450.52 96.0729 2448.61 94.9372 2450.19 96.5134C2452.25 98.5698 2454.02 103.152 2454.69 105.841C2457.54 117.215 2457.82 128.817 2465.81 137.841C2474.96 148.174 2487.22 144.765 2501.03 146.785C2524.53 146.785 2541.03 148.762 2562.53 148.762C2574.03 148.762 2585.88 147.914 2596.39 145.23C2602.82 143.588 2610.42 141.746 2615.43 137.041C2623.86 129.102 2620.03 115.882 2613.3 108.267C2610.74 105.371 2607.3 102.998 2603.82 101.329C2602.23 100.563 2603.56 102.055 2603.9 102.504" stroke="black" stroke-opacity="0.3" stroke-width="5" stroke-linecap="round"/>
<path d="M2448.63 133.898C2457.27 123.988 2458.47 108.487 2451.48 97.575C2450.52 96.0728 2448.61 94.9371 2450.19 96.5133C2452.25 98.5697 2454.02 103.152 2454.69 105.841C2457.54 117.215 2457.82 128.817 2465.81 137.841C2474.96 148.174 2487.22 144.765 2501.03 146.785C2524.53 146.785 2541.03 148.762 2562.53 148.762C2574.03 148.762 2585.88 147.914 2596.39 145.23C2602.82 143.588 2610.42 141.746 2615.43 137.04C2623.86 129.102 2620.03 115.882 2613.3 108.267C2610.74 105.371 2607.3 102.998 2603.82 101.329C2602.23 100.563 2603.56 102.055 2603.9 102.504" stroke="black" stroke-width="5" stroke-linecap="round"/>
<path d="M1863.15 142.162C1864.45 142.162 1862.28 142.568 1862.03 142.8C1858.94 145.721 1874.42 147.869 1874.63 147.903C1891.5 150.748 1908.53 150.513 1925.18 146.309C1939.71 142.642 1958.99 136.616 1969.28 124.86C1987.98 103.488 1948.75 89.1824 1933.95 86.5067C1898.18 80.0395 1860.99 85.9358 1826.47 96.2345C1819.4 98.3443 1812.73 101.157 1805.9 103.889C1804.32 104.519 1801.64 104.801 1803.82 102.613C1819.25 87.1921 1842.63 75.135 1860.84 63.7819C1901.88 38.1912 1915.23 19.8227 1962.51 8.69758C1976.72 5.35445 1994.48 0.604086 2008.76 6.46497C2019.19 10.7478 2021.97 22.6587 2023.75 32.6184C2029.8 66.6 2030.87 81.6301 2036.39 115.797C2036.66 117.483 2041.08 151.976 2043.55 150.243C2045.05 142.262 2045.05 140.262 2045.05 135.332C2045.05 114.262 2054.59 110.18 2070.79 101.617C2093.84 89.4259 2102.24 89.3236 2135.66 90.2944C2154.57 90.8435 2168.18 93.2617 2183.74 95.102C2199.3 96.9422 2213.09 97.25 2224.96 105.332C2244.63 118.712 2243.55 134.754 2226.24 147.738" stroke="black" stroke-opacity="0.3" stroke-width="5" stroke-linecap="round"/>
<path d="M2036.39 115.797C2036.66 117.483 2041.08 151.976 2043.55 150.243C2045.05 142.262 2045.05 140.262 2045.05 135.332C2045.05 114.262 2054.59 110.181 2070.79 101.617C2093.84 89.4262 2102.24 89.3238 2135.66 90.2946C2154.57 90.8438 2168.18 93.2619 2183.74 95.1022C2199.3 96.9424 2213.09 97.2502 2224.96 105.332C2244.63 118.712 2243.55 134.754 2226.24 147.738" stroke="black" stroke-width="5" stroke-linecap="round"/>
<path d="M2966.38 9.16655C2962.57 9.16655 2959.77 7.6009 2956.02 7.01368C2938.57 4.28747 2920.5 4.86081 2902.91 4.86081C2863.63 4.86081 2824.35 4.86081 2785.06 4.86081C2784.45 4.86081 2788.58 5.83495 2788.73 5.89737C2797.23 9.34884 2804.01 17.5135 2810.1 23.9974C2843 59.0486 2868.32 102.589 2877.56 150.14C2883.02 178.268 2884.5 214.763 2858.9 234.5C2833.64 253.968 2844.41 188.722 2846.3 181.715C2854.19 152.521 2874.08 118.233 2898.61 99.7466C2915.94 86.6815 2923.97 102.262 2928.91 118.724C2932.22 129.762 2931.22 126.262 2932.73 131.974C2934.62 139.123 2935.93 145.901 2939.11 150.393C2940.04 151.697 2941.28 138.823 2941.34 138.193C2942.49 127.391 2942.8 125.021 2946.72 117.762C2957.59 97.6369 2980.78 99.6917 3001.47 96.9559C3025.46 93.7837 3054.75 97.8973 3070.2 118.963C3075.46 126.141 3079.77 133.654 3079.77 142.645C3079.77 149.292 3073.9 151.491 3073.22 148.762" stroke="black" stroke-opacity="0.3" stroke-width="5" stroke-linecap="round"/>
<path d="M2939.11 150.393C2940.04 151.697 2941.28 138.823 2941.34 138.193C2942.49 127.391 2942.8 125.021 2946.72 117.762C2957.59 97.637 2980.78 99.6917 3001.47 96.956C3025.46 93.7838 3054.75 97.8974 3070.2 118.963C3075.46 126.141 3079.77 133.654 3079.77 142.645C3079.77 149.292 3073.9 151.491 3073.22 148.762" stroke="black" stroke-width="5" stroke-linecap="round"/>
</svg>
