<svg fill="none" height="229" viewBox="0 0 259 229" width="259" xmlns="http://www.w3.org/2000/svg"><path d="m73.4714 140.114c-1.8484 0-6.0367.694-3.7425-2.317 11.7392-15.407 27.3979-27.174 43.9301-36.89 11.527-6.7746 35.672-24.1162 50.525-19.426 9.914 3.1309-11.444 24.102-13.723 26.465-1.882 1.952-23.011 21.83-17.109 24.148 13.684 5.376 29.367 4.153 42.772 11.644 18.003 10.061 23.154 16.234 16.614 34.604-7.895 22.175-42.277 35.69-46.643 37.643-24.329 10.878-49.0783 12.454-74.7622 5.346-28.7029-7.943-60.6095-31.414-67.0093-62.465-8.42828-40.892 25.5879-70.935 55.5144-93.0681 37.5947-27.8044 87.9931-69.39045 135.7121-62.32636 27.471 4.06677 56.131 19.66596 59.791 49.63326 3.182 26.0497-7.87 62.6482-28.425 78.9502-21.916 13.707-36.838-8.41-28.238-24.98 7.053-13.5893 18.238-19.8319 36.416-19.8319" stroke="#000" stroke-linecap="round" stroke-width="5"/></svg>