<svg fill="none" height="243" viewBox="0 0 351 243" width="351" xmlns="http://www.w3.org/2000/svg"><path d="m86.1398 134.117c-10.4499 1.742-8.2653 6.103-.3384 11.337 21.5226 14.214 53.3256 9.448 75.2976-1.015 21.637-10.303 29.371-34.48 8.122-49.5777-24.47-17.3865-62.649-13.9446-90.3571-8.7988-24.6192 4.5721-49.4732 14.8545-74.3667 17.3435-3.32708.333 2.18602-3.12 2.19969-3.13 9.99721-7.0949 20.27651-13.7774 30.54201-20.4742 38.9103-25.3835 79.0271-48.4504 122.9291-64.1296 25.11-8.96771 53.949-18.33132 79.951-6.93752 19.263 8.44132 36.106 26.66792 31.303 48.81632-2.582 11.9054-7.908 23.4522-13.198 34.3492-4.991 10.2808-27.273 31.8318-28.214 43.5878-.493 6.172 4.065 8.402 9.138 10.152 10.122 3.494 20.221 5.672 28.934 12.352 17.291 13.257 8.963 37.707 2.031 54.485-1.994 4.825-10.633 29.148-18.444 27.412-12.483-2.774-5.702-19.709-1.523-26.396 17.382-27.811 46.638-53.282 75.213-68.868 6.351-3.464 14.804-8.438 22.251-9.222 1.146-.12-2.345 4.87-2.877 5.669" stroke="#000" stroke-linecap="round" stroke-width="5"/></svg>