<svg width="221" height="152" viewBox="0 0 221 152" fill="none" xmlns="http://www.w3.org/2000/svg">
<path d="M22.3078 40.3116C32.6497 47.6604 56.3505 33.3094 62.5574 23.4748C67.4439 15.7322 61.0002 8.59396 55.3567 5.48996C43.3427 -1.118 27.5589 5.34389 17.1997 13.5257C8.66537 20.2661 2.07673 32.4192 3.10615 45.5157C4.49682 63.2082 21.2846 67.001 32.524 62.5056C50.12 55.4678 64.3498 36.6129 79.9127 24.8523C96.0951 12.6236 118.506 0.483565 138.01 4.18893C163.309 8.99538 107.989 53.9088 107.792 61.5107C107.617 68.2401 121 64.5 132.917 73.1792C146.07 84.1448 161.761 107.724 154.873 128.128C151.983 136.691 139.406 152.698 130.625 147.874C124.139 144.31 126.693 129.011 127.794 123.077C130.849 106.611 137.534 90.8604 146.688 78.3833C161.535 58.1452 183.086 43.4704 204.108 35.9851C206.892 34.9938 226.238 29.9752 213.955 35.0667" stroke="black" stroke-width="5" stroke-linecap="round"/>
</svg>
