<svg fill="none" height="152" viewBox="0 0 221 152" width="221" xmlns="http://www.w3.org/2000/svg"><path d="m22.3078 40.3116c10.3419 7.3488 34.0427-7.0022 40.2496-16.8368 4.8865-7.7426-1.5572-14.88084-7.2007-17.98484-12.014-6.60796-27.7978-.14607-38.157 8.03574-8.53433 6.7404-15.12297 18.8935-14.09355 31.99 1.39067 17.6925 18.17845 21.4853 29.41785 16.9899 17.596-7.0378 31.8258-25.8927 47.3887-37.6533 16.1824-12.2287 38.5933-24.368735 58.0973-20.66337 25.299 4.80645-30.021 49.71987-30.218 57.32177-.175 6.7294 13.208 2.9893 25.125 11.6685 13.153 10.9656 28.844 34.5448 21.956 54.9488-2.89 8.563-15.467 24.57-24.248 19.746-6.486-3.564-3.932-18.863-2.831-24.797 3.055-16.466 9.74-32.2166 18.894-44.6937 14.847-20.2381 36.398-34.9129 57.42-42.3982 2.784-.9913 22.13-6.0099 9.847-.9184" stroke="#000" stroke-linecap="round" stroke-width="5"/></svg>