<svg fill="none" height="241" viewBox="0 0 208 241" width="208" xmlns="http://www.w3.org/2000/svg"><path d="m126.187 3.2882c27.75 0-55.5115-.45413-83.2504.33841-12.607.3602-50.43004 1.18445-37.8179 1.18445 2.47586 0 5.6969-.51975 8.0374.33842 16.3439 11.11222 14.85 16.90812 38.9177 51.17842s51.1892 68.6231 61.2532 110.1541c6.045 24.946 3.735 42.267-9.899 64.536-12.2357 19.985-17.7701-8.016-19.797-19.544-5.6172-31.947-4.1768-47.149 3.2995-78.648 5.4837-23.103 17.5695-43.3472 41.6255-43.3472 13.568 0 28.291 2.2024 28.071 20.4742-.17 14.157-16.616 22.48-17.343 36.295-.875 16.607 22.013 7.642 30.372 20.263 9.243 13.954 11.394 61.492-7.156 68.751-20.12 7.873-20.363-24-7.565-47.769 13.366-24.822 32.008-47.413 49.578-69.375" stroke="#000" stroke-linecap="round" stroke-width="5"/></svg>