<svg width="208" height="241" viewBox="0 0 208 241" fill="none" xmlns="http://www.w3.org/2000/svg">
<path d="M126.187 3.2882C153.937 3.2882 70.6755 2.83407 42.9366 3.62661C30.3296 3.98681 -7.49344 4.81106 5.1187 4.81106C7.59456 4.81106 10.8156 4.29131 13.1561 5.14948C29.5 16.2617 28.0061 22.0576 52.0738 56.3279C76.1415 90.5982 103.263 124.951 113.327 166.482C119.372 191.428 117.062 208.749 103.428 231.018C91.1923 251.003 85.6579 223.002 83.631 211.474C78.0138 179.527 79.4542 164.325 86.9305 132.826C92.4142 109.723 104.5 89.4788 128.556 89.4788C142.124 89.4788 156.847 91.6812 156.627 109.953C156.457 124.11 140.011 132.433 139.284 146.248C138.409 162.855 161.297 153.89 169.656 166.511C178.899 180.465 181.05 228.003 162.5 235.262C142.38 243.135 142.137 211.262 154.935 187.493C168.301 162.671 186.943 140.08 204.513 118.118" stroke="black" stroke-width="5" stroke-linecap="round"/>
</svg>
