<svg width="313" height="154" viewBox="0 0 313 154" fill="none" xmlns="http://www.w3.org/2000/svg">
<path d="M103.698 128.756C99.2127 129.317 107.693 137.611 108.447 138.255C123.763 151.333 149.239 152.866 167.994 148.758C181.009 145.907 200.452 136.661 202.152 121.359C204.58 99.5012 168.464 92.0691 153.564 90.0324C124.256 86.0263 94 82.7617 64.5 82.7617C50.7597 84.5521 37.5 85.7617 23.6014 88.1608C17.4894 89.3421 9.55502 92.2707 3.14349 92.2707C1.99751 92.2707 4.84628 90.7258 5.79207 90.0787C17.5 83.7617 17.5 83.9243 28.8073 78.0046C64.6087 59.2617 86.788 47.3391 117.763 32.8598C137.254 23.7484 260.973 -27.3189 255.123 27.9279C252.822 49.6606 239.33 69.3734 233.021 90.0324C228.596 104.527 221.035 128.841 222.336 144.451C224 150.262 235.087 150.263 245 149.762C269.124 148.542 286.807 146.262 310.104 146.044" stroke="black" stroke-width="5" stroke-linecap="round"/>
</svg>
