<svg fill="none" height="154" viewBox="0 0 313 154" width="313" xmlns="http://www.w3.org/2000/svg"><path d="m103.698 128.756c-4.4853.561 3.995 8.855 4.749 9.499 15.316 13.078 40.792 14.611 59.547 10.503 13.015-2.851 32.458-12.097 34.158-27.399 2.428-21.8578-33.688-29.2899-48.588-31.3266-29.308-4.0061-59.564-7.2707-89.064-7.2707-13.7403 1.7904-27 3-40.8986 5.3991-6.112 1.1813-14.04638 4.1099-20.45791 4.1099-1.14598 0 1.70279-1.5449 2.64858-2.192 11.70793-6.317 11.70793-6.1544 23.01523-12.0741 35.8014-18.7429 57.9807-30.6655 88.9557-45.1448 19.491-9.1114 143.21-60.1787 137.36-4.9319-2.301 21.7327-15.793 41.4455-22.102 62.1045-4.425 14.4946-11.986 38.8086-10.685 54.4186 1.664 5.811 12.751 5.812 22.664 5.311 24.124-1.22 41.807-3.5 65.104-3.718" stroke="#000" stroke-linecap="round" stroke-width="5"/></svg>