<svg fill="none" height="71" viewBox="0 0 301 71" width="301" xmlns="http://www.w3.org/2000/svg"><path d="m7.67465 54.976c-1.11372-.9899-2.41101-2.0119-4.01853-1.5526-2.51698.7192 10.88168 7.6401 11.78158 7.9457 25.5107 8.6641 78.7377-3.5811 83.1104-35.1621 3.8129-27.54002-39.9729-30.86587-48.4049-8.6763-5.611 14.7657 11.472 41.4412 23.3805 45.2303 16.0712 5.1135 32.8693 2.833 47.4003-5.3885 20.596-11.653 48.048-59.46383 74.708-52.62803 22.394 5.74203 13.868 34.01723-17.17 45.71133-22.962 15.1145 43.538 15.4521 56.491 15.1145 25.047.3376 20.621.4905 46.169.3376 5.716-.0343 11.38-.8858 16.44 1.6439" stroke="#000" stroke-linecap="round" stroke-width="5"/></svg>