<svg width="301" height="71" viewBox="0 0 301 71" fill="none" xmlns="http://www.w3.org/2000/svg">
<path d="M7.67465 54.976C6.56093 53.9861 5.26364 52.9641 3.65612 53.4234C1.13914 54.1426 14.5378 61.0635 15.4377 61.3691C40.9484 70.0332 94.1754 57.788 98.5481 26.207C102.361 -1.33302 58.5752 -4.65887 50.1432 17.5307C44.5322 32.2964 61.6152 58.9719 73.5237 62.761C89.5949 67.8745 106.393 65.594 120.924 57.3725C141.52 45.7195 168.972 -2.09133 195.632 4.74447C218.026 10.4865 209.5 38.7617 178.462 50.4558C155.5 65.5703 222 65.9079 234.953 65.5703C260 65.9079 255.574 66.0608 281.122 65.9079C286.838 65.8736 292.502 65.0221 297.562 67.5518" stroke="black" stroke-width="5" stroke-linecap="round"/>
</svg>
