<svg fill="none" height="243" viewBox="0 0 310 243" width="310" xmlns="http://www.w3.org/2000/svg"><path d="m175.389 3.17285c3.132 3.52332-1.442 3.25286-4.384 3.28789-26.977.32115-53.941 1.25938-80.9185 1.55261-27.8824.30307-56.0381-1.21637-83.84106 1.36995-7.41009.6893-1.56927.12064 1.73527 1.5526 15.31069 6.6346 29.11989 28.2575 38.99799 40.8246 26.773 34.0613 51.0411 73.4285 65.1003 114.3455 8.188 23.831 16.276 41.107 5.041 66.119-4.777 10.637-19.6629 10.333-26.7595 2.192-10.112-11.599-10.3783-27.713-7.37-40.583 9.0523-38.723 25.0685-55.881 52.1445-85.678 8.46-9.3089 28.813-20.9769 43.474-11.0971 13.667 9.2111 13.916 19.7461 10.776 34.1121-1.737 7.953-6.157 13.055-3.676 21.327 2.529 8.43 30.757 1.032 35.528.274 26.716-4.245 107.786-3.22 80.735-3.22" stroke="#000" stroke-linecap="round" stroke-width="5"/></svg>