<svg width="310" height="243" viewBox="0 0 310 243" fill="none" xmlns="http://www.w3.org/2000/svg">
<path d="M175.389 3.17285C178.521 6.69617 173.947 6.42571 171.005 6.46074C144.028 6.78189 117.064 7.72012 90.0865 8.01335C62.2041 8.31642 34.0484 6.79698 6.24544 9.3833C-1.16465 10.0726 4.67617 9.50394 7.98071 10.9359C23.2914 17.5705 37.1006 39.1934 46.9787 51.7605C73.7517 85.8218 98.0198 125.189 112.079 166.106C120.267 189.937 128.355 207.213 117.12 232.225C112.343 242.862 97.4571 242.558 90.3605 234.417C80.2485 222.818 79.9822 206.704 82.9905 193.834C92.0428 155.111 108.059 137.953 135.135 108.156C143.595 98.8471 163.948 87.1791 178.609 97.0589C192.276 106.27 192.525 116.805 189.385 131.171C187.648 139.124 183.228 144.226 185.709 152.498C188.238 160.928 216.466 153.53 221.237 152.772C247.953 148.527 329.023 149.552 301.972 149.552" stroke="black" stroke-width="5" stroke-linecap="round"/>
</svg>
