<svg fill="none" height="248" viewBox="0 0 3092 248" width="3092" xmlns="http://www.w3.org/2000/svg"><g stroke="#000"><g stroke-dasharray="10 10"><path d="m0 154.5h3090"/><path d="m0 242.5h3090"/><path d="m0 94.5h3090"/><path d="m0 4.5h3090"/></g><g stroke-linecap="round" stroke-width="5"><path d="m82.4529 154.114c-1.8484 0-6.0367.694-3.7426-2.317 11.7393-15.407 27.3977-27.174 43.9307-36.89 11.526-6.775 35.672-24.1162 50.524-19.426 9.914 3.1309-11.444 24.102-13.723 26.465-1.882 1.952-23.01 21.83-17.108 24.148 13.684 5.376 29.366 4.153 42.771 11.644 18.004 10.061 23.154 16.234 16.614 34.604-7.895 22.175-42.277 35.69-46.643 37.643-24.329 10.878-49.078 12.454-74.7617 5.346-28.7029-7.943-60.6096-31.414-67.0094-62.465-8.42823-40.892 25.5879-70.935 55.5144-93.0681 37.5947-27.8044 87.9927-69.3904 135.7117-62.3264 27.472 4.0668 56.132 19.666 59.792 49.6333 3.181 26.0497-7.871 62.6482-28.426 78.9502-21.916 13.707-36.837-8.41-28.237-24.98 7.052-13.589 18.237-19.832 36.415-19.832" stroke-opacity=".3"/><path d="m82.4529 154.114c-1.8484 0-6.0367.694-3.7426-2.317 11.7393-15.407 27.3977-27.174 43.9307-36.89 11.526-6.775 35.672-24.1162 50.524-19.426 9.914 3.1309-11.444 24.102-13.723 26.465-1.882 1.952-23.01 21.83-17.108 24.148 13.684 5.376 29.366 4.153 42.771 11.644 18.004 10.061 23.154 16.234 16.614 34.604-7.895 22.175-42.277 35.69-46.643 37.643-24.329 10.878-49.078 12.454-74.7617 5.346-28.7029-7.943-60.6096-31.414-67.0094-62.465-8.42823-40.892 25.5879-70.935 55.5144-93.0681 37.5947-27.8044 87.9927-69.3904 135.7117-62.3264"/><path d="m541.71 135.861c-10.45 1.742-8.265 6.102-.339 11.337 21.524 14.213 53.326 9.447 75.298-1.015 21.637-10.304 29.371-34.48 8.122-49.578-24.47-17.3865-62.649-13.9447-90.357-8.7988-24.619 4.5721-49.473 14.8548-74.367 17.3438-3.327.333 2.186-3.121 2.2-3.13 9.997-7.0952 20.276-13.7777 30.542-20.4745 38.91-25.3836 79.027-48.4505 122.929-64.1297 25.11-8.96765 53.95-18.331272 79.951-6.9375 19.263 8.4414 36.106 26.668 31.303 48.8164-2.582 11.9054-7.908 23.4521-13.198 34.3491-4.991 10.2812-27.273 31.8312-28.213 43.5882-.494 6.172 4.064 8.401 9.137 10.152 10.122 3.493 20.221 5.672 28.934 12.352 17.291 13.257 8.963 37.706 2.031 54.485-1.994 4.825-10.633 29.147-18.444 27.412-12.483-2.774-5.702-19.71-1.523-26.397 17.382-27.81 46.639-53.281 75.213-68.867 6.351-3.465 14.804-8.438 22.251-9.222 1.146-.121-2.345 4.87-2.877 5.668" stroke-opacity=".3"/><path d="m695.689 10.4783c19.263 8.4413 36.106 26.6679 31.303 48.8163-2.582 11.9054-7.908 23.4522-13.198 34.3492-4.991 10.2812-27.273 31.8312-28.214 43.5872-.493 6.173 4.065 8.402 9.138 10.153 10.122 3.493 20.221 5.672 28.934 12.352 17.291 13.256 8.963 37.706 2.031 54.485-1.994 4.825-10.633 29.147-18.444 27.412-12.483-2.774-5.702-19.71-1.523-26.397 17.382-27.81 46.638-53.281 75.213-68.867 6.351-3.465 14.804-8.438 22.251-9.222 1.146-.121-2.345 4.87-2.877 5.668"/><path d="m967.308 132.312c10.342 7.348 34.042-7.003 40.252-16.837 4.88-7.743-1.56-14.881-7.2-17.985-12.017-6.608-27.801-.1461-38.16 8.036-8.535 6.74-15.123 18.893-14.094 31.99 1.391 17.692 18.179 21.485 29.418 16.99 17.596-7.038 31.826-25.893 47.386-37.654 16.19-12.228 38.6-24.3684 58.1-20.6631 25.3 4.8061-30.02 49.7201-30.22 57.3221-.17 6.729 13.21 2.989 25.13 11.668 13.15 10.966 28.84 34.545 21.95 54.949-2.89 8.563-15.46 24.57-24.25 19.746-6.48-3.564-3.93-18.863-2.83-24.797 3.06-16.466 9.74-32.217 18.9-44.694 14.84-20.238 36.4-34.913 57.42-42.398 2.78-.991 22.13-6.01 9.84-.918" stroke-opacity=".3"/><path d="m1024.91 116.852c16.18-12.228 38.6-24.3684 58.1-20.663 25.3 4.806-30.02 49.72-30.22 57.322-.17 6.729 13.21 2.989 25.13 11.668 13.15 10.966 28.84 34.545 21.95 54.95-2.89 8.562-15.46 24.57-24.25 19.745-6.48-3.564-3.93-18.863-2.83-24.796 3.06-16.467 9.74-32.218 18.9-44.695 14.84-20.238 36.4-34.913 57.42-42.398 2.78-.991 22.13-6.01 9.84-.918"/><path d="m1555.61 10.3829c27.75 0-55.51-.4541-83.25.3384-12.61.3602-50.43 1.1845-37.82 1.1845 2.47 0 5.7-.5198 8.04.3384 16.34 11.1122 14.85 16.9082 38.91 51.1784 24.07 34.2703 51.19 68.6224 61.26 110.1544 6.04 24.946 3.73 42.267-9.9 64.536-12.24 19.985-17.77-8.016-19.8-19.544-5.62-31.947-4.18-47.149 3.3-78.648 5.48-23.103 17.57-43.3474 41.63-43.3474 13.56 0 28.29 2.2023 28.07 20.4744-.17 14.157-16.62 22.479-17.35 36.295-.87 16.607 22.02 7.642 30.38 20.263 9.24 13.954 11.39 61.492-7.16 68.75-20.12 7.874-20.36-24-7.56-47.769 13.36-24.821 32-47.412 49.57-69.375" stroke-opacity=".3"/><path d="m1516.35 139.921c5.48-23.103 17.57-43.3475 41.63-43.3475 13.56 0 28.29 2.2023 28.07 20.4745-.17 14.157-16.62 22.479-17.35 36.295-.87 16.606 22.02 7.642 30.38 20.263 9.24 13.954 11.39 61.492-7.16 68.75-20.12 7.874-20.36-24-7.56-47.769 13.36-24.821 32-47.413 49.57-69.375"/><path d="m2303.33 141.976c-1.11-.99-2.41-2.012-4.02-1.553-2.51.72 10.89 7.641 11.79 7.946 25.51 8.664 78.73-3.581 83.11-35.162 3.81-27.54-39.98-30.8659-48.41-8.676-5.61 14.765 11.47 41.441 23.38 45.23 16.07 5.114 32.87 2.833 47.4-5.389 20.6-11.652 48.05-59.4633 74.71-52.6275 22.39 5.742 13.87 34.0175-17.17 45.7115-22.96 15.114 43.54 15.452 56.49 15.114 25.05.338 20.62.491 46.17.338 5.72-.034 11.38-.886 16.44 1.644" stroke-opacity=".3"/><path d="m2416.58 144.373c20.6-11.653 48.05-59.4642 74.71-52.6284 22.39 5.742 13.87 34.0174-17.17 45.7114-22.96 15.114 43.54 15.452 56.49 15.114 25.05.338 20.62.491 46.17.338 5.72-.034 11.38-.886 16.44 1.644"/><path d="m2957.73 3.17285c3.13 3.52332-1.44 3.25286-4.38 3.28789-26.98.32115-53.94 1.25938-80.92 1.55261-27.88.30307-56.04-1.21637-83.84 1.36995-7.41.6893-1.57.12064 1.73 1.5526 15.31 6.6346 29.12 28.2575 39 40.8246 26.77 34.0613 51.04 73.4285 65.1 114.3455 8.19 23.831 16.28 41.107 5.04 66.119-4.77 10.637-19.66 10.333-26.76 2.192-10.11-11.599-10.38-27.713-7.37-40.583 9.06-38.723 25.07-55.881 52.15-85.678 8.46-9.3089 28.81-20.9769 43.47-11.0971 13.67 9.2111 13.92 19.7461 10.78 34.1121-1.74 7.953-6.16 13.055-3.68 21.327 2.53 8.43 30.76 1.032 35.53.274 26.72-4.245 107.79-3.22 80.74-3.22" stroke-opacity=".3"/><path d="m2917.48 108.156c8.46-9.3088 28.81-20.9767 43.47-11.097 13.67 9.211 13.92 19.746 10.78 34.112-1.74 7.953-6.16 13.056-3.68 21.327 2.53 8.43 30.76 1.032 35.53.274 26.72-4.245 107.79-3.22 80.74-3.22"/><path d="m1903.82 133.756c-4.48.561 4 8.855 4.75 9.499 15.32 13.078 40.79 14.611 59.55 10.503 13.01-2.851 32.46-12.097 34.16-27.399 2.42-21.858-33.69-29.2899-48.59-31.3266-29.31-4.0061-59.57-7.2707-89.07-7.2707-13.74 1.7904-27 3-40.89 5.3991-6.12 1.1813-14.05 4.1099-20.46 4.1099-1.15 0 1.7-1.5449 2.65-2.192 11.7-6.317 11.7-6.1544 23.01-12.0741 35.8-18.7429 57.98-30.6655 88.96-45.1448 19.49-9.1114 143.21-60.1787 137.36-4.9319-2.3 21.7327-15.8 41.4455-22.1 62.1045-4.43 14.4946-11.99 38.8086-10.69 54.4186 1.66 5.811 12.75 5.812 22.66 5.311 24.13-1.22 41.81-3.5 65.11-3.718" stroke-opacity=".3"/><path d="m2055.25 32.928c-2.3 21.7327-15.8 41.4454-22.1 62.1045-4.43 14.4945-11.99 38.8085-10.69 54.4185 1.66 5.811 12.75 5.812 22.66 5.311 24.13-1.22 41.81-3.5 65.11-3.718"/></g></g></svg>