<svg fill="none" height="241" viewBox="0 0 207 241" width="207" xmlns="http://www.w3.org/2000/svg"><path d="m154.728 3.10352c19.011 0-37.591 3.09022-56.5634 4.31421-4.7605.30713-95.40996 2.14873-95.40996-2.73142 0-.27045 18.12936 17.51359 19.01696 18.24689 26.352 21.769 47.8921 48.1913 63.8775 78.4248 15.5099 29.333 32.9999 63.812 35.5959 97.442.487 6.302 1.021 46.501-15.441 38.27-15.0879-7.544-24.9487-31.711-27.3878-47.373-3.5827-23.004 1.0397-45.496 16.8227-62.902 15.8531-17.484 36.3531-30.5584 57.5381-40.6345 10.016-4.7633 22.849-10.4688 31.126 0 5.963 7.5412 35.597 52.6015 8.097 63.1015-18.5 2-25-6.5-25-16s6-18.5 21.5-18.5" stroke="#000" stroke-linecap="round" stroke-width="5"/></svg>