<svg width="252" height="238" viewBox="0 0 252 238" fill="none" xmlns="http://www.w3.org/2000/svg">
<path d="M15.1263 120.131C16.7107 134.39 62.4084 116.655 68.2763 112.816C74.6658 108.637 83.0806 101.25 74.6153 94.6122C63.2515 85.702 48.8739 86.78 35.6061 89.7361C26.2293 91.8252 6.96886 95.5722 3.26104 106.478C-0.731108 118.219 12.9964 129.075 21.9529 133.296C42.1462 142.814 66.202 142.336 87.9434 141.423C125.895 139.83 165.714 136.238 202.858 128.014C218.174 124.622 236.114 120.509 244.468 105.99C252.132 92.6691 248.338 81.8261 240.079 69.7439C217.556 36.7931 172.544 6.15591 134.023 3.97545C129.287 3.70738 107.401 0.741078 104.766 7.06368C100.983 16.1433 108.355 33.4928 110.374 42.0094C125.653 106.469 125.228 168.753 127.765 234.712" stroke="black" stroke-width="5" stroke-linecap="round"/>
</svg>
