<svg fill="none" height="238" viewBox="0 0 252 238" width="252" xmlns="http://www.w3.org/2000/svg"><path d="m15.1263 120.131c1.5844 14.259 47.2821-3.476 53.15-7.315 6.3895-4.179 14.8043-11.566 6.339-18.2038-11.3638-8.9102-25.7414-7.8322-39.0092-4.8761-9.3768 2.0891-28.63724 5.8361-32.34506 16.7419-3.992148 11.741 9.73536 22.597 18.69186 26.818 20.1933 9.518 44.2491 9.04 65.9905 8.127 37.9516-1.593 77.7706-5.185 114.9146-13.409 15.316-3.392 33.256-7.505 41.61-22.024 7.664-13.3209 3.87-24.1639-4.389-36.2461-22.523-32.9508-67.535-63.58799-106.056-65.76845-4.736-.26807-26.622-3.234372-29.257 3.08823-3.783 9.07962 3.589 26.42912 5.608 34.94572 15.279 64.4596 14.854 126.7436 17.391 192.7026" stroke="#000" stroke-linecap="round" stroke-width="5"/></svg>