<svg width="238" height="242" viewBox="0 0 238 242" fill="none" xmlns="http://www.w3.org/2000/svg">
<path d="M128.636 3.88049C128.026 -0.995348 18.342 9.9157 6.89472 10.8696C-1.80302 11.5944 7.88684 12.647 12.2585 16.5585C44.2176 45.1535 59.872 73.0328 73.2103 112.523C81.5717 137.278 86.2722 162.793 88.0826 188.834C89.0983 203.445 92.1598 218.219 82.9626 231.189C67.6134 252.836 47.3843 224.643 45.9039 210.696C42.603 179.597 71.6355 156.287 92.8774 138.529C123.75 112.719 153.494 99.9464 166.995 60.3764C171.952 45.8466 169.826 34.8222 168.214 20.3108C167.368 12.6961 172.255 35.2442 172.44 42.9036C173.315 79.2413 173.097 104.9 171.708 141.211C170.914 161.991 170.565 176.972 168.945 197.706C168.02 209.549 166.587 221.895 160.168 232.165C150.619 247.443 147.185 233.734 144.89 221.437C139.742 193.859 154.38 167.295 172.034 146.737C182.159 134.945 194.952 125.737 207.954 117.399C216.827 111.709 227.209 106.477 233.473 97.6503C237.544 91.9132 231.698 89.2796 226.646 89.2796" stroke="black" stroke-width="5" stroke-linecap="round"/>
</svg>
