<svg fill="none" height="242" viewBox="0 0 238 242" width="238" xmlns="http://www.w3.org/2000/svg"><path d="m128.636 3.88049c-.61-4.875838-110.294 6.03521-121.74128 6.98911-8.69774.7248.99212 1.7774 5.36378 5.6889 31.9591 28.595 47.6135 56.4743 60.9518 95.9645 8.3614 24.755 13.0619 50.27 14.8723 76.311 1.0157 14.611 4.0772 29.385-5.12 42.355-15.3492 21.647-35.5783-6.546-37.0587-20.493-3.3009-31.099 25.7316-54.409 46.9735-72.167 30.8726-25.81 60.6166-38.5826 74.1176-78.1526 4.957-14.5298 2.831-25.5542 1.219-40.0656-.846-7.6147 4.041 14.9334 4.226 22.5928.875 36.3377.657 61.9964-.732 98.3074-.794 20.78-1.143 35.761-2.763 56.495-.925 11.843-2.358 24.189-8.777 34.459-9.549 15.278-12.983 1.569-15.278-10.728-5.148-27.578 9.49-54.142 27.144-74.7 10.125-11.792 22.918-21 35.92-29.338 8.873-5.69 19.255-10.922 25.519-19.7487 4.071-5.7371-1.775-8.3707-6.827-8.3707" stroke="#000" stroke-linecap="round" stroke-width="5"/></svg>