<svg width="266" height="246" viewBox="0 0 266 246" fill="none" xmlns="http://www.w3.org/2000/svg">
<path d="M31.4877 124.591C32.4161 130.161 37.3639 132.849 42.181 134.838C66.4817 144.872 93.4687 148.422 119.559 145.457C147.687 142.261 220.679 112.887 179.709 76.1737C163.994 62.0917 141.934 54.1366 121.935 48.6978C93.9687 41.0921 64.6926 38.5178 35.9432 42.5342C26.373 43.8713 11.9829 44.2628 3.19494 48.9948C1.85717 49.7151 7.81404 46.1283 8.61586 45.7274C23.3671 38.3518 39.7815 33.6441 55.6962 29.6874C92.3217 20.5816 129.619 13.1113 167.085 8.52355C189.965 5.72196 213.422 2.76447 236.517 3.17689C250.322 3.42341 255.882 5.4331 258.721 19.1426C270.225 74.692 253.468 130.395 246.171 185.26C244.693 196.369 230.852 243.01 245.354 243.01" stroke="black" stroke-width="5" stroke-linecap="round"/>
</svg>
