<svg width="304" height="239" viewBox="0 0 304 239" fill="none" xmlns="http://www.w3.org/2000/svg">
<path d="M2.58789 121.718C2.58789 142.538 40.0843 141.933 53.8755 139.917C66.3656 138.091 89.1847 134.561 97.1455 122.991C105.071 111.472 92.4621 102.466 82.5101 99.7013C71.8007 96.7265 56.9258 96.9104 47.8305 104.219C38.0007 112.118 46.1719 122.998 53.9392 128.59C72.1677 141.715 96.8515 145.629 118.717 147.235C147.976 149.384 177.597 147.276 206.593 143.226C239.366 138.648 308.406 130.271 300.896 82.1388C293.459 34.4738 230.093 9.90624 189.476 4.13439C172.668 1.74592 150.424 0.347744 137.361 13.8065C124.132 27.4361 135.747 56.7221 141.434 70.9395C152.473 98.5374 161.192 124.696 163.196 154.616C164.605 175.665 164.087 214.845 164.087 235.93" stroke="black" stroke-width="5" stroke-linecap="round"/>
</svg>
