<svg fill="none" height="239" viewBox="0 0 304 239" width="304" xmlns="http://www.w3.org/2000/svg"><path d="m2.58789 121.718c0 20.82 37.49641 20.215 51.28761 18.199 12.4901-1.826 35.3092-5.356 43.27-16.926 7.9255-11.519-4.6834-20.525-14.6354-23.2897-10.7094-2.9748-25.5843-2.7909-34.6796 4.5177-9.8298 7.899-1.6586 18.779 6.1087 24.371 18.2285 13.125 42.9123 17.039 64.7778 18.645 29.259 2.149 58.88.041 87.876-4.009 32.773-4.578 101.813-12.955 94.303-61.0872-7.437-47.665-70.803-72.23256-111.42-78.00441-16.808-2.38847-39.052-3.786646-52.115 9.67211-13.229 13.6296-1.614 42.9156 4.073 57.133 11.039 27.5979 19.758 53.7565 21.762 83.6765 1.409 21.049.891 60.229.891 81.314" stroke="#000" stroke-linecap="round" stroke-width="5"/></svg>