<svg fill="none" height="242" viewBox="0 0 162 242" width="162" xmlns="http://www.w3.org/2000/svg"><path d="m113.22 3.95369c-30.141-1.83785-59.6304-.00003-90.2994.04927-11.9582.01922-24.03646.13835-18.56481 3.17815 7.49651 4.16479 12.85691 10.90619 17.00531 17.68869 15.4272 25.2222 28.4332 33.9501 39.4317 61.3831 13.376 33.3631 27.0716 71.5641 23.0203 108.1211-1.9842 17.906-8.695 32.906-26.5848 41.685-13.7583 6.751-30.1458-.848-30.8175-16.635-.9222-21.67 15.0376-32.597 27.1788-49.036 19.2182-26.021 39.9336-50.958 59.7044-76.5607 15.189-19.6698 34.747-40.0098 44.11-63.4174 1.403-3.5086 2.085-7.0726 1.708-10.8418-.018-.1749-1.112-6.156-2.376-3.4159-5.88 12.7385-3.383 33.3679-3.713 46.7833-.991 40.2955.72 80.6315-1.708 120.8935-.841 13.936-2.599 27.832-2.599 41.808 0 2.196.976-3.747 1.336-4.827" stroke="#000" stroke-linecap="round" stroke-width="5"/></svg>