<svg width="3090" height="253" viewBox="0 0 3090 253" fill="none" xmlns="http://www.w3.org/2000/svg">
<line y1="151.5" x2="3090" y2="151.5" stroke="black" stroke-dasharray="10 10"/>
<line y1="239.5" x2="3090" y2="239.5" stroke="black" stroke-dasharray="10 10"/>
<line y1="91.5" x2="3090" y2="91.5" stroke="black" stroke-dasharray="10 10"/>
<line y1="1.5" x2="3090" y2="1.5" stroke="black" stroke-dasharray="10 10"/>
<path d="M163.973 3.10352C182.985 3.10352 126.382 6.19374 107.41 7.41773C102.65 7.72486 12 9.56646 12 4.68631C12 4.41586 30.1293 22.1999 31.017 22.9332C57.3689 44.7022 78.909 71.1245 94.8945 101.358C110.404 130.691 127.894 165.17 130.49 198.8C130.977 205.102 131.511 245.301 115.049 237.07C99.9615 229.526 90.1007 205.359 87.6615 189.697C84.0788 166.693 88.7013 144.201 104.484 126.795C120.337 109.311 138.837 100.237 160.023 90.1605C170.038 85.3972 182.871 79.6917 191.149 90.1605C197.112 97.7017 228.745 138.762 201.245 149.262C182.745 151.262 164.245 131.762 164.245 122.262C164.245 112.762 170.245 103.762 185.745 103.762" stroke="black" stroke-opacity="0.3" stroke-width="5" stroke-linecap="round"/>
<path d="M163.973 3.10352C182.985 3.10352 126.382 6.19374 107.41 7.41773C102.65 7.72486 12 9.56646 12 4.68631C12 4.41586 30.1293 22.1999 31.017 22.9332C57.3689 44.7022 78.909 71.1245 94.8945 101.358C110.404 130.691 127.894 165.17 130.49 198.8C130.977 205.102 131.511 245.301 115.049 237.07C99.9615 229.526 90.1007 205.359 87.6615 189.697C84.0788 166.693 88.7013 144.201 104.484 126.795C120.337 109.311 138.837 100.237 160.023 90.1605" stroke="black" stroke-width="5" stroke-linecap="round"/>
<path d="M529.705 138.04C525.044 142.701 533.946 145.191 537.994 146.817C559.933 155.629 586.431 149.222 605.773 137.065C614.799 131.391 630.155 112.283 624.952 99.133C618.114 81.8479 593.533 73.73 577.654 69.0634C548.7 60.5545 516.264 57.2218 486.145 59.4737C481.471 59.8231 458.856 62.9748 459.001 62.887C515.367 28.5773 584.592 23.8822 646.407 5.02336C656.9 1.82208 653.555 8.64097 655.103 17.2137C660.348 46.2632 675.707 73.2304 687.692 99.8644C702.1 131.882 715.176 164.761 713.454 200.638C712.757 215.163 705.647 232.913 690.13 238.085C676.299 242.696 677.493 222.54 677.777 214.86C678.777 187.855 686.712 160.597 702.727 138.711C717.973 117.874 724.979 109.957 746.696 95.7166C748.592 94.4735 755.652 88.9901 758.48 91.1656C760.493 92.7139 759.038 94.2654 758.074 95.229" stroke="black" stroke-opacity="0.3" stroke-width="5" stroke-linecap="round"/>
<path d="M655.103 17.2139C660.348 46.2634 675.707 73.2306 687.692 99.8645C702.1 131.882 715.176 164.762 713.454 200.638C712.757 215.164 705.647 232.913 690.13 238.085C676.299 242.696 677.493 222.54 677.777 214.86C678.777 187.855 686.712 160.598 702.727 138.711C717.973 117.875 724.979 109.957 746.696 95.7168C748.592 94.4737 755.652 88.9903 758.48 91.1657C760.493 92.7141 759.038 94.2655 758.074 95.2291" stroke="black" stroke-width="5" stroke-linecap="round"/>
<path d="M960.576 127.131C962.16 141.39 1007.86 123.655 1013.73 119.816C1020.12 115.637 1028.53 108.25 1020.07 101.612C1008.7 92.702 994.324 93.78 981.056 96.7361C971.679 98.8252 952.419 102.572 948.711 113.478C944.719 125.219 958.446 136.075 967.403 140.296C987.596 149.814 1011.65 149.336 1033.39 148.423C1071.35 146.83 1111.16 143.238 1148.31 135.014C1163.62 131.622 1181.56 127.509 1189.92 112.99C1197.58 99.6691 1193.79 88.8261 1185.53 76.7439C1163.01 43.7931 1117.99 13.1559 1079.47 10.9755C1074.74 10.7074 1052.85 7.74108 1050.22 14.0637C1046.43 23.1433 1053.8 40.4928 1055.82 49.0094C1071.1 113.469 1070.68 175.753 1073.22 241.712" stroke="black" stroke-opacity="0.3" stroke-width="5" stroke-linecap="round"/>
<path d="M1033.39 148.423C1071.35 146.83 1111.16 143.238 1148.31 135.014C1163.62 131.622 1181.56 127.509 1189.92 112.99C1197.58 99.6691 1193.79 88.8261 1185.53 76.7439C1163.01 43.7931 1117.99 13.1559 1079.47 10.9755C1074.74 10.7074 1052.85 7.74108 1050.22 14.0637C1046.43 23.1433 1053.8 40.4928 1055.82 49.0094C1071.1 113.469 1070.68 175.753 1073.21 241.712" stroke="black" stroke-width="5" stroke-linecap="round"/>
<path d="M1557.25 10.9752C1556.64 6.09938 1446.95 17.0104 1435.51 17.9644C1426.81 18.6892 1436.5 19.7417 1440.87 23.6532C1472.83 52.2482 1488.48 80.1276 1501.82 119.617C1510.18 144.372 1514.88 169.887 1516.69 195.929C1517.71 210.54 1520.77 225.314 1511.57 238.284C1496.22 259.93 1476 231.738 1474.52 217.79C1471.21 186.692 1500.25 163.382 1521.49 145.623C1552.36 119.814 1582.11 107.041 1595.61 67.4712C1600.56 52.9413 1598.44 41.9169 1596.83 27.4055C1595.98 19.7908 1600.87 42.339 1601.05 49.9983C1601.93 86.336 1601.71 111.994 1600.32 148.305C1599.52 169.086 1599.18 184.066 1597.56 204.801C1596.63 216.644 1595.2 228.99 1588.78 239.259C1579.23 254.537 1575.8 240.829 1573.5 228.532C1568.35 200.953 1582.99 174.39 1600.64 153.832C1610.77 142.04 1623.56 132.832 1636.57 124.493C1645.44 118.803 1655.82 113.572 1662.08 104.745C1666.16 99.0079 1660.31 96.3743 1655.26 96.3743" stroke="black" stroke-opacity="0.3" stroke-width="5" stroke-linecap="round"/>
<path d="M1595.61 67.4714C1600.56 52.9416 1598.44 41.9172 1596.83 27.4057C1595.98 19.791 1600.87 42.3392 1601.05 49.9985C1601.93 86.3362 1601.71 111.995 1600.32 148.305C1599.52 169.086 1599.18 184.066 1597.56 204.801C1596.63 216.644 1595.2 228.99 1588.78 239.26C1579.23 254.538 1575.8 240.829 1573.5 228.532C1568.35 200.954 1582.99 174.39 1600.64 153.832C1610.77 142.04 1623.56 132.832 1636.57 124.494C1645.44 118.804 1655.82 113.572 1662.08 104.745C1666.16 99.0081 1660.31 96.3745 1655.26 96.3745" stroke="black" stroke-width="5" stroke-linecap="round"/>
<path d="M2299 125.718C2299 146.538 2336.5 145.933 2350.29 143.917C2362.78 142.091 2385.6 138.561 2393.56 126.991C2401.48 115.472 2388.87 106.466 2378.92 103.701C2368.21 100.726 2353.34 100.91 2344.24 108.219C2334.41 116.118 2342.58 126.998 2350.35 132.59C2368.58 145.715 2393.26 149.629 2415.13 151.235C2444.39 153.384 2474.01 151.276 2503.01 147.226C2535.78 142.648 2604.82 134.271 2597.31 86.1388C2589.87 38.4738 2526.5 13.9062 2485.89 8.13439C2469.08 5.74592 2446.84 4.34774 2433.77 17.8065C2420.54 31.4361 2432.16 60.7221 2437.85 74.9395C2448.88 102.537 2457.6 128.696 2459.61 158.616C2461.02 179.665 2460.5 218.845 2460.5 239.93" stroke="black" stroke-opacity="0.3" stroke-width="5" stroke-linecap="round"/>
<path d="M2415.13 151.235C2444.39 153.384 2474.01 151.276 2503.01 147.226C2535.78 142.648 2604.82 134.271 2597.31 86.1388C2589.87 38.4738 2526.5 13.9062 2485.89 8.13439C2469.08 5.74592 2446.84 4.34774 2433.77 17.8065C2420.54 31.4361 2432.16 60.7221 2437.85 74.9395C2448.88 102.537 2457.6 128.696 2459.61 158.616C2461.02 179.665 2460.5 218.845 2460.5 239.93" stroke="black" stroke-width="5" stroke-linecap="round"/>
<path d="M1831.49 131.591C1832.42 137.161 1837.36 139.849 1842.18 141.838C1866.48 151.872 1893.47 155.422 1919.56 152.457C1947.69 149.261 2020.68 119.887 1979.71 83.1737C1963.99 69.0917 1941.93 61.1366 1921.94 55.6978C1893.97 48.0921 1864.69 45.5178 1835.94 49.5342C1826.37 50.8713 1811.98 51.2628 1803.19 55.9948C1801.86 56.7151 1807.81 53.1283 1808.62 52.7274C1823.37 45.3518 1839.78 40.6441 1855.7 36.6874C1892.32 27.5816 1929.62 20.1113 1967.08 15.5235C1989.96 12.722 2013.42 9.76447 2036.52 10.1769C2050.32 10.4234 2055.88 12.4331 2058.72 26.1426C2070.23 81.692 2053.47 137.395 2046.17 192.26C2044.69 203.369 2030.85 250.01 2045.35 250.01" stroke="black" stroke-opacity="0.3" stroke-width="5" stroke-linecap="round"/>
<path d="M2036.52 10.1768C2050.32 10.4233 2055.88 12.433 2058.72 26.1425C2070.22 81.6919 2053.47 137.395 2046.17 192.26C2044.69 203.369 2030.85 250.01 2045.35 250.01" stroke="black" stroke-width="5" stroke-linecap="round"/>
<path d="M2895.22 4.95369C2865.08 3.11584 2835.59 4.95366 2804.92 5.00296C2792.96 5.02218 2780.88 5.14131 2786.36 8.18111C2793.85 12.3459 2799.21 19.0873 2803.36 25.8698C2818.79 51.092 2831.79 59.8199 2842.79 87.2529C2856.17 120.616 2869.86 158.817 2865.81 195.374C2863.83 213.28 2857.12 228.28 2839.23 237.059C2825.47 243.81 2809.08 236.211 2808.41 220.424C2807.49 198.754 2823.45 187.827 2835.59 171.388C2854.81 145.367 2875.52 120.43 2895.29 94.8273C2910.48 75.1575 2930.04 54.8175 2939.4 31.4099C2940.81 27.9013 2941.49 24.3373 2941.11 20.5681C2941.09 20.3932 2940 14.4121 2938.74 17.1522C2932.86 29.8907 2935.35 50.5201 2935.02 63.9355C2934.03 104.231 2935.74 144.567 2933.31 184.829C2932.47 198.765 2930.72 212.661 2930.72 226.637C2930.72 228.833 2931.69 222.89 2932.05 221.81" stroke="black" stroke-opacity="0.3" stroke-width="5" stroke-linecap="round"/>
<path d="M2939.4 31.4101C2940.81 27.9014 2941.49 24.3374 2941.11 20.5683C2941.09 20.3934 2940 14.4123 2938.74 17.1523C2932.86 29.8909 2935.35 50.5203 2935.02 63.9356C2934.03 104.231 2935.74 144.567 2933.31 184.83C2932.47 198.765 2930.72 212.661 2930.72 226.637C2930.72 228.833 2931.69 222.89 2932.05 221.811" stroke="black" stroke-width="5" stroke-linecap="round"/>
</svg>
