<svg fill="none" height="253" viewBox="0 0 3090 253" width="3090" xmlns="http://www.w3.org/2000/svg"><g stroke="#000"><g stroke-dasharray="10 10"><path d="m0 151.5h3090"/><path d="m0 239.5h3090"/><path d="m0 91.5h3090"/><path d="m0 1.5h3090"/></g><g stroke-linecap="round" stroke-width="5"><path d="m163.973 3.10352c19.012 0-37.591 3.09022-56.563 4.31421-4.76.30713-95.41 2.14873-95.41-2.73142 0-.27045 18.1293 17.51359 19.017 18.24689 26.3519 21.769 47.892 48.1913 63.8775 78.4248 15.5095 29.333 32.9995 63.812 35.5955 97.442.487 6.302 1.021 46.501-15.441 38.27-15.0875-7.544-24.9483-31.711-27.3875-47.373-3.5827-23.004 1.0398-45.496 16.8225-62.902 15.853-17.484 34.353-26.558 55.539-36.6345 10.015-4.7633 22.848-10.4688 31.126 0 5.963 7.5412 37.596 48.6015 10.096 59.1015-18.5 2-37-17.5-37-27s6-18.5 21.5-18.5" stroke-opacity=".3"/><path d="m163.973 3.10352c19.012 0-37.591 3.09022-56.563 4.31421-4.76.30713-95.41 2.14873-95.41-2.73142 0-.27045 18.1293 17.51359 19.017 18.24689 26.3519 21.769 47.892 48.1913 63.8775 78.4248 15.5095 29.333 32.9995 63.812 35.5955 97.442.487 6.302 1.021 46.501-15.441 38.27-15.0875-7.544-24.9483-31.711-27.3875-47.373-3.5827-23.004 1.0398-45.496 16.8225-62.902 15.853-17.484 34.353-26.558 55.539-36.6345"/><path d="m529.705 138.04c-4.661 4.661 4.241 7.151 8.289 8.777 21.939 8.812 48.437 2.405 67.779-9.752 9.026-5.674 24.382-24.782 19.179-37.932-6.838-17.2851-31.419-25.403-47.298-30.0696-28.954-8.5089-61.39-11.8416-91.509-9.5897-4.674.3494-27.289 3.5011-27.144 3.4133 56.366-34.3097 125.591-39.0048 187.406-57.86364 10.493-3.20128 7.148 3.61761 8.696 12.19034 5.245 29.0495 20.604 56.0167 32.589 82.6507 14.408 32.0176 27.484 64.8966 25.762 100.7736-.697 14.525-7.807 32.275-23.324 37.447-13.831 4.611-12.637-15.545-12.353-23.225 1-27.005 8.935-54.263 24.95-76.149 15.246-20.837 22.252-28.754 43.969-42.9944 1.896-1.2431 8.956-6.7265 11.784-4.551 2.013 1.5483.558 3.0998-.406 4.0634" stroke-opacity=".3"/><path d="m655.103 17.2139c5.245 29.0495 20.604 56.0167 32.589 82.6506 14.408 32.0175 27.484 64.8975 25.762 100.7735-.697 14.526-7.807 32.275-23.324 37.447-13.831 4.611-12.637-15.545-12.353-23.225 1-27.005 8.935-54.262 24.95-76.149 15.246-20.836 22.252-28.754 43.969-42.9942 1.896-1.2431 8.956-6.7265 11.784-4.5511 2.013 1.5484.558 3.0998-.406 4.0634"/><path d="m960.576 127.131c1.584 14.259 47.284-3.476 53.154-7.315 6.39-4.179 14.8-11.566 6.34-18.204-11.37-8.91-25.746-7.832-39.014-4.8759-9.377 2.0891-28.637 5.8359-32.345 16.7419-3.992 11.741 9.735 22.597 18.692 26.818 20.193 9.518 44.247 9.04 65.987 8.127 37.96-1.593 77.77-5.185 114.92-13.409 15.31-3.392 33.25-7.505 41.61-22.024 7.66-13.3209 3.87-24.1639-4.39-36.2461-22.52-32.9508-67.54-63.588-106.06-65.7684-4.73-.2681-26.62-3.23442-29.25 3.0882-3.79 9.0796 3.58 26.4291 5.6 34.9457 15.28 64.4596 14.86 126.7436 17.4 192.7026" stroke-opacity=".3"/><path d="m1033.39 148.423c37.96-1.593 77.77-5.185 114.92-13.409 15.31-3.392 33.25-7.505 41.61-22.024 7.66-13.3209 3.87-24.1639-4.39-36.2461-22.52-32.9508-67.54-63.588-106.06-65.7684-4.73-.2681-26.62-3.23442-29.25 3.0882-3.79 9.0796 3.58 26.4291 5.6 34.9457 15.28 64.4596 14.86 126.7436 17.39 192.7026"/><path d="m1557.25 10.9752c-.61-4.87582-110.3 6.0352-121.74 6.9892-8.7.7248.99 1.7773 5.36 5.6888 31.96 28.595 47.61 56.4744 60.95 95.9638 8.36 24.755 13.06 50.27 14.87 76.312 1.02 14.611 4.08 29.385-5.12 42.355-15.35 21.646-35.57-6.546-37.05-20.494-3.31-31.098 25.73-54.408 46.97-72.167 30.87-25.809 60.62-38.582 74.12-78.1518 4.95-14.5299 2.83-25.5543 1.22-40.0657-.85-7.6147 4.04 14.9335 4.22 22.5928.88 36.3377.66 61.9957-.73 98.3067-.8 20.781-1.14 35.761-2.76 56.496-.93 11.843-2.36 24.189-8.78 34.458-9.55 15.278-12.98 1.57-15.28-10.727-5.15-27.579 9.49-54.142 27.14-74.7 10.13-11.792 22.92-21 35.93-29.339 8.87-5.69 19.25-10.921 25.51-19.748 4.08-5.7371-1.77-8.3707-6.82-8.3707" stroke-opacity=".3"/><path d="m1595.61 67.4714c4.95-14.5298 2.83-25.5542 1.22-40.0657-.85-7.6147 4.04 14.9335 4.22 22.5928.88 36.3377.66 61.9965-.73 98.3065-.8 20.781-1.14 35.761-2.76 56.496-.93 11.843-2.36 24.189-8.78 34.459-9.55 15.278-12.98 1.569-15.28-10.728-5.15-27.578 9.49-54.142 27.14-74.7 10.13-11.792 22.92-21 35.93-29.338 8.87-5.69 19.25-10.922 25.51-19.749 4.08-5.7369-1.77-8.3705-6.82-8.3705"/><path d="m2299 125.718c0 20.82 37.5 20.215 51.29 18.199 12.49-1.826 35.31-5.356 43.27-16.926 7.92-11.519-4.69-20.525-14.64-23.29-10.71-2.975-25.58-2.791-34.68 4.518-9.83 7.899-1.66 18.779 6.11 24.371 18.23 13.125 42.91 17.039 64.78 18.645 29.26 2.149 58.88.041 87.88-4.009 32.77-4.578 101.81-12.955 94.3-61.0872-7.44-47.665-70.81-72.2326-111.42-78.00441-16.81-2.38847-39.05-3.78665-52.12 9.67211-13.23 13.6296-1.61 42.9156 4.08 57.133 11.03 27.5975 19.75 53.7565 21.76 83.6765 1.41 21.049.89 60.229.89 81.314" stroke-opacity=".3"/><path d="m2415.13 151.235c29.26 2.149 58.88.041 87.88-4.009 32.77-4.578 101.81-12.955 94.3-61.0872-7.44-47.665-70.81-72.2326-111.42-78.00441-16.81-2.38847-39.05-3.78665-52.12 9.67211-13.23 13.6296-1.61 42.9156 4.08 57.133 11.03 27.5975 19.75 53.7565 21.76 83.6765 1.41 21.049.89 60.229.89 81.314"/><path d="m1831.49 131.591c.93 5.57 5.87 8.258 10.69 10.247 24.3 10.034 51.29 13.584 77.38 10.619 28.13-3.196 101.12-32.57 60.15-69.2833-15.72-14.082-37.78-22.0371-57.77-27.4759-27.97-7.6057-57.25-10.18-86-6.1636-9.57 1.3371-23.96 1.7286-32.75 6.4606-1.33.7203 4.62-2.8665 5.43-3.2674 14.75-7.3756 31.16-12.0833 47.08-16.04 36.62-9.1058 73.92-16.5761 111.38-21.1639 22.88-2.8015 46.34-5.75903 69.44-5.3466 13.8.2465 19.36 2.2562 22.2 15.9657 11.51 55.5494-5.25 111.2524-12.55 166.1174-1.48 11.109-15.32 57.75-.82 57.75" stroke-opacity=".3"/><path d="m2036.52 10.1768c13.8.2465 19.36 2.2562 22.2 15.9657 11.5 55.5494-5.25 111.2525-12.55 166.1175-1.48 11.109-15.32 57.75-.82 57.75"/><path d="m2895.22 4.95369c-30.14-1.83785-59.63-.00003-90.3.04927-11.96.01922-24.04.13835-18.56 3.17815 7.49 4.16479 12.85 10.90619 17 17.68869 15.43 25.2222 28.43 33.9501 39.43 61.3831 13.38 33.3631 27.07 71.5641 23.02 108.1211-1.98 17.906-8.69 32.906-26.58 41.685-13.76 6.751-30.15-.848-30.82-16.635-.92-21.67 15.04-32.597 27.18-49.036 19.22-26.021 39.93-50.958 59.7-76.5607 15.19-19.6698 34.75-40.0098 44.11-63.4174 1.41-3.5086 2.09-7.0726 1.71-10.8418-.02-.1749-1.11-6.156-2.37-3.4159-5.88 12.7385-3.39 33.3679-3.72 46.7833-.99 40.2955.72 80.6315-1.71 120.8935-.84 13.936-2.59 27.832-2.59 41.808 0 2.196.97-3.747 1.33-4.827" stroke-opacity=".3"/><path d="m2939.4 31.4101c1.41-3.5087 2.09-7.0727 1.71-10.8418-.02-.1749-1.11-6.156-2.37-3.416-5.88 12.7386-3.39 33.368-3.72 46.7833-.99 40.2954.72 80.6314-1.71 120.8944-.84 13.935-2.59 27.831-2.59 41.807 0 2.196.97-3.747 1.33-4.826"/></g></g></svg>