<svg width="301" height="237" viewBox="0 0 301 237" fill="none" xmlns="http://www.w3.org/2000/svg">
<path d="M93.8332 144.425C107.556 143.801 119.719 133.715 130.361 126.088C143.598 116.602 158.279 106.378 167.619 92.7017C170.485 88.505 169.376 83.1 170.322 90.51C172.957 111.15 185.729 131.843 195.819 149.612C204.29 164.532 223.478 194.823 226.511 212.171C229.172 227.389 211.93 232.853 199.919 233.795C170.423 236.109 138.815 227.814 110.207 221.741C89.568 217.36 69.0229 212.422 49.1328 205.304C35.1297 200.292 18.5972 194.479 8.3679 183.022C-8.29285 164.362 15.0508 126.17 27.9373 115.495C61.5809 87.6252 100.564 63.9591 138.543 42.5857C166.276 26.9786 195.944 14.0166 226.794 5.91186C234.673 3.84191 245.818 0.635646 253.825 4.15853C261.04 7.3335 262.172 16.8899 263.176 23.5913C267.235 50.7009 271.457 65.103 281.535 90.8108C285.214 100.193 310.124 143.093 290.594 148.232C275.649 152.165 247.741 140.68 249.026 122.298C250.146 106.262 260.5 102.262 280.398 97.715" stroke="black" stroke-width="5" stroke-linecap="round"/>
</svg>
