<svg fill="none" height="237" viewBox="0 0 301 237" width="301" xmlns="http://www.w3.org/2000/svg"><path d="m93.8332 144.425c13.7228-.624 25.8858-10.71 36.5278-18.337 13.237-9.486 27.918-19.71 37.258-33.3863 2.866-4.1967 1.757-9.6017 2.703-2.1917 2.635 20.64 15.407 41.333 25.497 59.102 8.471 14.92 27.659 45.211 30.692 62.559 2.661 15.218-14.581 20.682-26.592 21.624-29.496 2.314-61.104-5.981-89.712-12.054-20.639-4.381-41.1841-9.319-61.0742-16.437-14.0031-5.012-30.5356-10.825-40.7649-22.282-16.66075-18.66 6.6829-56.852 19.5694-67.527 33.6436-27.8698 72.6267-51.5359 110.6057-72.9093 27.733-15.6071 57.401-28.5691 88.251-36.67384 7.879-2.06995 19.024-5.276214 27.031-1.75333 7.215 3.17497 8.347 12.73137 9.351 19.43277 4.059 27.1096 8.281 41.5117 18.359 67.2195 3.679 9.3822 28.589 52.2822 9.059 57.4212-14.945 3.933-42.853-7.552-41.568-25.934 1.12-16.036 11.474-20.036 31.372-24.583" stroke="#000" stroke-linecap="round" stroke-width="5"/></svg>