<svg width="275" height="240" viewBox="0 0 275 240" fill="none" xmlns="http://www.w3.org/2000/svg">
<path d="M45.467 143.795C45.1742 141.452 49.1145 145.574 51.2384 146.498C68.6788 154.081 91.4388 153.949 109.61 149.493C124.037 145.955 146.614 135.37 149.498 118.591C152.06 103.684 139.912 94.3232 127.143 90.4644C89.0693 78.9587 43.9687 85.0728 5.871 93.825C-0.690149 95.3323 4.11168 91.8569 7.11295 89.6608C30.6643 72.4282 58.5762 60.8635 84.4055 47.654C112.685 33.1913 140.65 17.238 170.392 5.86632C183.567 0.828842 194.469 0.644294 203.267 13.0257C219.127 35.348 225.613 67.0852 231.32 93.2406C238.273 125.11 241.944 158.67 239.137 191.281C238.112 203.181 234.843 234.581 218.608 237.091C202.952 239.512 206.67 194.061 207.942 187.701C211.57 169.561 219.743 152.589 229.128 136.782C236.012 125.188 244.314 112.942 256.013 105.66C264.219 100.551 275.508 95.3482 270.331 108.29" stroke="black" stroke-width="5" stroke-linecap="round"/>
</svg>
