<svg fill="none" height="240" viewBox="0 0 275 240" width="275" xmlns="http://www.w3.org/2000/svg"><path d="m45.467 143.795c-.2928-2.343 3.6475 1.779 5.7714 2.703 17.4404 7.583 40.2004 7.451 58.3716 2.995 14.427-3.538 37.004-14.123 39.888-30.902 2.562-14.907-9.586-24.2678-22.355-28.1266-38.0737-11.5057-83.1743-5.3916-121.272 3.3606-6.561149 1.5073-1.75932-1.9681 1.24195-4.1642 23.55135-17.2326 51.46325-28.7973 77.29255-42.0068 28.2795-14.4627 56.2445-30.416 85.9865-41.78768 13.175-5.037478 24.077-5.222026 32.875 7.15938 15.86 22.3223 22.346 54.0595 28.053 80.2149 6.953 31.8694 10.624 65.4294 7.817 98.0404-1.025 11.9-4.294 43.3-20.529 45.81-15.656 2.421-11.938-43.03-10.666-49.39 3.628-18.14 11.801-35.112 21.186-50.919 6.884-11.594 15.186-23.84 26.885-31.122 8.206-5.109 19.495-10.3118 14.318 2.63" stroke="#000" stroke-linecap="round" stroke-width="5"/></svg>