<svg fill="none" height="156" viewBox="0 0 324 156" width="324" xmlns="http://www.w3.org/2000/svg"><path d="m12.5 36.8688c11.087 8.0632 39.9495-3.8675 44.5253-15.6339 3.1995-8.2274-14.7773-12.90985-19.725-13.22299-12.802-.81025-29.449 8.46679-33.60544 21.11299-5.34892 16.2744 15.33144 31.5428 27.90714 34.0761 27.2385 5.4869 59.5952-.1067 84.014-12.9308 13.301-6.9854 26.325-22.4827 30.975-37.3636.567-1.8133-.386-6.0366.073-4.3833 2.838 10.2166 7.914 19.3523 13.442 28.3455 13.345 21.7104 27.13 35.9137 36.163 59.9187 7.56 20.0915 5.307 28.2125 3.799 35.6815-2.531 12.531-10.627 25.284-17.314 17.826-5.278-5.887-4.706-23.409-3.927-28.2 3.885-23.9179 8.133-32.6549 21.903-57.3749 13.77-24.7201 26.469-29.2077 49.454-43.4852 18.395-11.42625 45.51-21.686085 67.722-17.60631 9.097 1.67087-3.737 7.21091-6.356 8.40141" stroke="#000" stroke-linecap="round" stroke-width="5"/></svg>