<svg width="324" height="156" viewBox="0 0 324 156" fill="none" xmlns="http://www.w3.org/2000/svg">
<path d="M12.5 36.8688C23.587 44.932 52.4495 33.0013 57.0253 21.2349C60.2248 13.0075 42.248 8.32505 37.3003 8.01191C24.4983 7.20166 7.8513 16.4787 3.69486 29.1249C-1.65406 45.3993 19.0263 60.6677 31.602 63.201C58.8405 68.6879 91.1972 63.0943 115.616 50.2702C128.917 43.2848 141.941 27.7875 146.591 12.9066C147.158 11.0933 146.205 6.87 146.664 8.5233C149.502 18.7399 154.578 27.8756 160.106 36.8688C173.451 58.5792 187.236 72.7825 196.269 96.7875C203.829 116.879 201.576 125 200.068 132.469C197.537 145 189.441 157.753 182.754 150.295C177.476 144.408 178.048 126.886 178.827 122.095C182.712 98.1771 186.96 89.4401 200.73 64.7201C214.5 40 227.199 35.5124 250.184 21.2349C268.579 9.80865 295.694 -0.451185 317.906 3.62859C327.003 5.29946 314.169 10.8395 311.55 12.03" stroke="black" stroke-width="5" stroke-linecap="round"/>
</svg>
