<svg fill="none" height="239" viewBox="0 0 230 239" width="230" xmlns="http://www.w3.org/2000/svg"><path d="m149.836 2.95801c47.021 0-187.8325 8.47279-140.81077 8.47279 5.52707 0 10.62867 7.9628 13.58347 11.5661 18.0839 22.0536 31.2974 47.1078 42.8348 73.095 14.0591 31.6671 26.4671 55.6141 29.117 90.4551.9145 12.024 1.1886 25.325-3.9002 36.581-2.2211 4.912-7.1305 12.842-13.449 13.045-15.847.512-16.7049-28.414-16.2732-37.858 1.4743-32.251 16.0218-54.828 36.9846-79.024 10.3623-11.96 28.5563-29.6857 46.1973-23.6026 20.078 6.9236 24.93 42.0306 27.906 59.5786 3.104 18.299 8.352 55.998 0 73.815-6.681 14.254-11.746-8.037-12.171-12.709-2.533-27.868 4.905-68.519 23.872-89.685 6.395-7.136 15.093-13.529 24.746-15.197 7.705-1.332 12.079 1.58 18.828 4.035" stroke="#000" stroke-linecap="round" stroke-width="5"/></svg>