<svg fill="none" height="155" viewBox="0 0 283 155" width="283" xmlns="http://www.w3.org/2000/svg"><path d="m65.4068 124.345c-7.5491 19.439 45.9152 26.56 56.5532 27.331 16.053 1.163 32.949-.204 42.973-14.257 6.824-9.567 11.976-23.217 5.774-34.296-15.516-27.7152-57.799-25.6507-84.0434-20.5639-27.9559 5.4185-55.7209 13.3258-83.32134 20.2359-1.39527.349 1.84585-2.289 3.08355-3.0224 18.18319-10.7768 37.53309-18.937 57.53769-25.6889 67.9255-22.9258 140.3465-33.5138 205.8755-63.5323.002-.0007 11.778-4.7839 9.973-6.83284-2.442-2.771806-8.672 3.29671-10.235 4.33623-15.717 10.45091-33.264 18.16191-47.631 30.61641-3.084 2.6733-9.577 7.9733-9.316 12.943.166 3.1531 3.261 2.2129 5.117 2.9565" stroke="#000" stroke-linecap="round" stroke-width="5"/></svg>