<svg fill="none" height="153" viewBox="0 0 214 153" width="214" xmlns="http://www.w3.org/2000/svg"><path d="m28.4497 51.9352c-17.9279 0 36.1286 2.9834 53.783-.2543 11.0828-2.0326 26.1983-7.5393 31.2403-19.2011 3.85-8.9033-1.784-19.5455-9.066-24.41466-9.3435-6.2486-21.9963-6.24667-32.2204-2.54319-6.1282 2.21985-14.0012 7.58635-10.536 15.51345 5.2432 11.9949 23.2719 18.8345 34.181 22.6344 19.1874 6.6834 39.4174 9.3836 59.5414 10.5543 29.671 1.726 24.516 1.7933 53.364 3.1789 11.325 1.9962-22.947 1.2103-34.426 1.6531-69.904 7.1144-105.311 15.9439-133.5013 34.7944-20.3528 13.6095-34.63558 28.2405-37.69031 50.1005-1.1672 8.353 6.50101 5.939 10.90361 4.96" stroke="#000" stroke-linecap="round" stroke-width="5"/></svg>