<svg width="214" height="153" viewBox="0 0 214 153" fill="none" xmlns="http://www.w3.org/2000/svg">
<path d="M28.4497 51.9352C10.5218 51.9352 64.5783 54.9186 82.2327 51.6809C93.3155 49.6483 108.431 44.1416 113.473 32.4798C117.323 23.5765 111.689 12.9343 104.407 8.06514C95.0635 1.81654 82.4107 1.81847 72.1866 5.52195C66.0584 7.7418 58.1854 13.1083 61.6506 21.0354C66.8938 33.0303 84.9225 39.8699 95.8316 43.6698C115.019 50.3532 135.249 53.0534 155.373 54.2241C185.044 55.9501 179.889 56.0174 208.737 57.403C220.062 59.3992 185.79 58.6133 174.311 59.0561C104.407 66.1705 69 75 40.8097 93.8505C20.4569 107.46 6.17412 122.091 3.11939 143.951C1.95219 152.304 9.6204 149.89 14.023 148.911" stroke="black" stroke-width="5" stroke-linecap="round"/>
</svg>
