<svg fill="none" height="241" viewBox="0 0 137 241" width="137" xmlns="http://www.w3.org/2000/svg"><path d="m125.942 7.69592c10.259 0-20.509-.54567-30.7623-.88616-18.4382-.61234-36.8819-1.08695-55.3218-1.64574-8.2717-.25065-16.5384-.65738-24.8126-.82286-1.9459-.03892-9.83158 1.03789-11.83662-.63298-.54127-.45105 3.31483-.55025 3.79785-.37978 8.43397 2.97671 15.57157 13.964 19.93867 20.9514 12.119 19.3904 18.3783 43.0599 23.5466 65.0697 3.9567 16.8505 6.8738 33.9155 9.0515 51.0805 2.0922 16.491 4.6803 44.219 2.0888 60.828-1.3333 8.546-5.266 24.914-15.0647 28.104-10.2914 3.351-14.8448-9.628-16.5839-17.28-4.3969-19.346 1.3933-48.469 9.7478-65.891 11.1357-23.223 26.637-40.984 50.6378-51.1447 9.3632-3.964 24.9579-13.1449 33.5099-2.9117 13.469 16.1164 10.121 42.1274 8.975 62.2844-1.354 15.343-3.854 68.343-5.837 83.688" stroke="#000" stroke-linecap="round" stroke-width="5"/></svg>