<svg fill="none" height="244" viewBox="0 0 3090 244" width="3090" xmlns="http://www.w3.org/2000/svg"><g stroke="#000"><g stroke-dasharray="10 10"><path d="m0 153.5h3090"/><path d="m0 241.5h3090"/><path d="m0 93.5h3090"/><path d="m0 3.5h3090"/></g><g stroke-linecap="round" stroke-width="5"><path d="m103.249 146.425c13.723-.624 25.886-10.71 36.528-18.337 13.237-9.486 27.919-19.71 37.258-33.3863 2.866-4.1967 1.758-9.6017 2.703-2.1917 2.635 20.64 15.408 41.333 25.497 59.102 8.472 14.92 27.66 45.211 30.693 62.559 2.66 15.218-14.582 20.682-26.593 21.624-29.496 2.314-61.103-5.981-89.712-12.054-20.6388-4.381-41.1838-9.319-61.0739-16.437-14.0031-5.012-30.5356-10.825-40.7649-22.282-16.66079-18.66 6.6828-56.852 19.5693-67.527 33.6436-27.8698 72.6275-51.5359 110.6055-72.9093 27.733-15.6071 57.401-28.5691 88.251-36.67384 7.879-2.06995 19.024-5.27621 27.031-1.75333 7.216 3.17497 8.347 12.73137 9.351 19.43277 4.06 27.1096 8.281 41.5117 18.36 67.2195 3.678 9.3822 28.588 52.2822 9.058 57.4212-14.945 3.933-42.853-7.552-41.568-25.934 1.121-16.036 11.474-20.036 31.372-24.583" stroke-opacity=".3"/><path d="m103.249 146.425c13.723-.624 25.886-10.71 36.528-18.337 13.237-9.486 27.919-19.71 37.258-33.3863 2.866-4.1967 1.758-9.6017 2.703-2.1917 2.635 20.64 15.408 41.333 25.497 59.102 8.472 14.92 27.66 45.211 30.693 62.559 2.66 15.218-14.582 20.682-26.593 21.624-29.496 2.314-61.103-5.981-89.712-12.054-20.6388-4.381-41.1838-9.319-61.0739-16.437-14.0031-5.012-30.5356-10.825-40.7649-22.282-16.66079-18.66 6.6828-56.852 19.5693-67.527 33.6436-27.8698 72.6275-51.5359 110.6055-72.9093 27.733-15.6071 57.401-28.5691 88.251-36.67383"/><path d="m501.879 144.539c-.293-2.343 3.648 1.779 5.772 2.703 17.44 7.582 40.2 7.451 58.371 2.995 14.428-3.538 37.004-14.123 39.888-30.903 2.562-14.906-9.586-24.2671-22.355-28.1259-38.074-11.5058-83.174-5.3916-121.272 3.3605-6.561 1.5073-1.759-1.9681 1.242-4.1641 23.551-17.2327 51.463-28.7973 77.293-42.0069 28.279-14.4627 56.244-30.4159 85.986-41.78763 13.175-5.03748 24.077-5.22202 32.875 7.15943 15.86 22.3223 22.346 54.0595 28.053 80.2148 6.953 31.8698 10.625 65.4298 7.817 98.0408-1.025 11.9-4.294 43.299-20.529 45.81-15.656 2.421-11.938-43.03-10.666-49.39 3.628-18.14 11.801-35.113 21.186-50.92 6.884-11.594 15.186-23.839 26.885-31.121 8.207-5.109 19.495-10.3121 14.319 2.63" stroke-opacity=".3"/><path d="m659.679 13.7693c15.86 22.3223 22.346 54.0595 28.053 80.2148 6.953 31.8689 10.624 65.4289 7.817 98.0399-1.025 11.901-4.294 43.3-20.529 45.811-15.656 2.421-11.938-43.031-10.666-49.39 3.628-18.14 11.801-35.113 21.186-50.92 6.884-11.594 15.186-23.839 26.885-31.121 8.207-5.109 19.495-10.3122 14.319 2.63"/><path d="m957.671 122.869c11.087 8.063 39.949-3.868 44.529-15.634 3.2-8.2275-14.781-12.9099-19.729-13.2231-12.802-.8102-29.449 8.4671-33.605 21.1131-5.349 16.274 15.331 31.543 27.907 34.076 27.237 5.487 59.597-.107 84.017-12.931 13.3-6.985 26.32-22.482 30.97-37.3634.57-1.8133-.38-6.0366.08-4.3833 2.83 10.2167 7.91 19.3527 13.44 28.3457 13.34 21.71 27.13 35.914 36.16 59.919 7.56 20.091 5.31 28.212 3.8 35.681-2.53 12.531-10.63 25.284-17.32 17.826-5.27-5.887-4.7-23.409-3.92-28.2 3.88-23.918 8.13-32.655 21.9-57.375s26.47-29.208 49.45-43.485c18.4-11.4264 45.51-21.6862 67.73-17.6064 9.09 1.6709-3.74 7.2109-6.36 8.4014" stroke-opacity=".3"/><path d="m1091.83 94.5233c2.84 10.2167 7.92 19.3527 13.45 28.3457 13.34 21.71 27.13 35.914 36.16 59.919 7.56 20.091 5.31 28.212 3.8 35.681-2.53 12.531-10.63 25.284-17.32 17.826-5.27-5.887-4.7-23.409-3.92-28.2 3.88-23.918 8.13-32.655 21.9-57.375s26.47-29.208 49.45-43.485c18.4-11.4264 45.51-21.6862 67.73-17.6064 9.09 1.6709-3.74 7.2109-6.36 8.4014"/><path d="m1579.07 8.05273c47.02 0-187.83 8.47287-140.81 8.47287 5.53 0 10.63 7.9627 13.58 11.5661 18.09 22.0535 31.3 47.1077 42.84 73.0953 14.06 31.667 26.46 55.613 29.11 90.454.92 12.025 1.19 25.326-3.9 36.582-2.22 4.912-7.13 12.841-13.44 13.045-15.85.511-16.71-28.414-16.28-37.859 1.48-32.25 16.02-54.827 36.99-79.023 10.36-11.961 28.55-29.686 46.19-23.603 20.08 6.924 24.93 42.031 27.91 59.579 3.1 18.299 8.35 55.997 0 73.815-6.68 14.254-11.75-8.037-12.17-12.709-2.53-27.868 4.9-68.519 23.87-89.685 6.4-7.137 15.09-13.529 24.75-15.197 7.7-1.332 12.08 1.58 18.83 4.034" stroke-opacity=".3"/><path d="m1573.35 100.783c20.08 6.924 24.93 42.031 27.91 59.579 3.1 18.299 8.35 55.997 0 73.815-6.68 14.254-11.75-8.037-12.17-12.709-2.53-27.868 4.9-68.519 23.87-89.685 6.4-7.136 15.09-13.529 24.75-15.197 7.7-1.332 12.08 1.58 18.83 4.034"/><path d="m2324.45 142.935c-17.93 0 36.13 2.984 53.78-.254 11.09-2.033 26.2-7.539 31.24-19.201 3.85-8.904-1.78-19.546-9.06-24.4149-9.35-6.2486-22-6.2466-32.22-2.5431-6.13 2.2198-14 7.586-10.54 15.513 5.24 11.995 23.27 18.835 34.18 22.635 19.19 6.683 39.42 9.383 59.54 10.554 29.67 1.726 24.52 1.793 53.37 3.179 11.32 1.996-22.95 1.21-34.43 1.653-69.9 7.114-105.31 15.944-133.5 34.794-20.35 13.61-34.64 28.241-37.69 50.101-1.17 8.353 6.5 5.939 10.9 4.96" stroke-opacity=".3"/><path d="m2504.74 148.403c11.32 1.996-22.95 1.21-34.43 1.653-69.9 7.114-105.31 15.944-133.5 34.794-20.35 13.61-34.64 28.241-37.69 50.101-1.17 8.353 6.5 5.939 10.9 4.96"/><path d="m1865.41 125.345c-7.55 19.439 45.91 26.56 56.55 27.331 16.05 1.163 32.95-.204 42.97-14.257 6.83-9.567 11.98-23.217 5.78-34.296-15.52-27.7152-57.8-25.6507-84.05-20.5639-27.95 5.4185-55.72 13.3258-83.32 20.2359-1.39.349 1.85-2.289 3.09-3.022 18.18-10.7772 37.53-18.9374 57.53-25.6893 67.93-22.9258 140.35-33.5138 205.88-63.5323 0-.0007 11.78-4.7839 9.97-6.83284-2.44-2.77181-8.67 3.29671-10.23 4.33623-15.72 10.45091-33.27 18.16191-47.63 30.61641-3.09 2.6733-9.58 7.9733-9.32 12.943.17 3.1531 3.26 2.2129 5.12 2.9565" stroke-opacity=".3"/><path d="m2079.81 4.71856c-2.44-2.77181-8.67 3.29671-10.23 4.33623-15.72 10.45091-33.27 18.16191-47.63 30.61641-3.09 2.6733-9.58 7.9733-9.32 12.943.17 3.1531 3.26 2.2129 5.12 2.9565"/><path d="m2907.79 7.69592c10.25 0-20.51-.54567-30.77-.88616-18.44-.61234-36.88-1.08695-55.32-1.64574-8.27-.25065-16.54-.65738-24.81-.82286-1.95-.03892-9.83 1.03789-11.84-.63298-.54-.45105 3.32-.55025 3.8-.37978 8.43 2.97671 15.57 13.964 19.94 20.9514 12.12 19.3904 18.38 43.0599 23.55 65.0697 3.95 16.8505 6.87 33.9155 9.05 51.0805 2.09 16.491 4.68 44.219 2.09 60.828-1.34 8.546-5.27 24.914-15.07 28.104-10.29 3.351-14.84-9.628-16.58-17.28-4.4-19.346 1.39-48.469 9.74-65.891 11.14-23.223 26.64-40.984 50.64-51.1447 9.37-3.964 24.96-13.1449 33.51-2.9117 13.47 16.1164 10.12 42.1274 8.98 62.2844-1.36 15.343-3.86 68.343-5.84 83.688" stroke-opacity=".3"/><path d="m2872.21 95.0463c9.37-3.964 24.96-13.1449 33.51-2.9117 13.47 16.1164 10.12 42.1274 8.98 62.2844-1.36 15.343-3.86 68.343-5.84 83.688"/></g></g></svg>