<svg width="3090" height="244" viewBox="0 0 3090 244" fill="none" xmlns="http://www.w3.org/2000/svg">
<line y1="153.5" x2="3090" y2="153.5" stroke="black" stroke-dasharray="10 10"/>
<line y1="241.5" x2="3090" y2="241.5" stroke="black" stroke-dasharray="10 10"/>
<line y1="93.5" x2="3090" y2="93.5" stroke="black" stroke-dasharray="10 10"/>
<line y1="3.5" x2="3090" y2="3.5" stroke="black" stroke-dasharray="10 10"/>
<path d="M103.249 146.425C116.972 145.801 129.135 135.715 139.777 128.088C153.014 118.602 167.696 108.378 177.035 94.7017C179.901 90.505 178.793 85.1 179.738 92.51C182.373 113.15 195.146 133.843 205.235 151.612C213.707 166.532 232.895 196.823 235.928 214.171C238.588 229.389 221.346 234.853 209.335 235.795C179.839 238.109 148.232 229.814 119.623 223.741C98.9842 219.36 78.4392 214.422 58.5491 207.304C44.546 202.292 28.0135 196.479 17.7842 185.022C1.12341 166.362 24.467 128.17 37.3535 117.495C70.9971 89.6252 109.981 65.9591 147.959 44.5857C175.692 28.9786 205.36 16.0166 236.21 7.91186C244.089 5.84191 255.234 2.63565 263.241 6.15853C270.457 9.3335 271.588 18.8899 272.592 25.5913C276.652 52.7009 280.873 67.103 290.952 92.8108C294.63 102.193 319.54 145.093 300.01 150.232C285.065 154.165 257.157 142.68 258.442 124.298C259.563 108.262 269.916 104.262 289.814 99.715" stroke="black" stroke-opacity="0.3" stroke-width="5" stroke-linecap="round"/>
<path d="M103.249 146.425C116.972 145.801 129.135 135.715 139.777 128.088C153.014 118.602 167.696 108.378 177.035 94.7017C179.901 90.505 178.793 85.1 179.738 92.51C182.373 113.15 195.146 133.843 205.235 151.612C213.707 166.532 232.895 196.823 235.928 214.171C238.588 229.389 221.346 234.853 209.335 235.795C179.839 238.109 148.232 229.814 119.623 223.741C98.9842 219.36 78.4392 214.422 58.5491 207.304C44.546 202.292 28.0135 196.479 17.7842 185.022C1.12341 166.362 24.467 128.17 37.3535 117.495C70.9971 89.6252 109.981 65.9591 147.959 44.5857C175.692 28.9786 205.36 16.0166 236.21 7.91187" stroke="black" stroke-width="5" stroke-linecap="round"/>
<path d="M501.879 144.539C501.586 142.196 505.527 146.318 507.651 147.242C525.091 154.824 547.851 154.693 566.022 150.237C580.45 146.699 603.026 136.114 605.91 119.334C608.472 104.428 596.324 95.0669 583.555 91.2081C545.481 79.7023 500.381 85.8165 462.283 94.5686C455.722 96.0759 460.524 92.6005 463.525 90.4045C487.076 73.1718 514.988 61.6072 540.818 48.3976C569.097 33.9349 597.062 17.9817 626.804 6.60997C639.979 1.57249 650.881 1.38795 659.679 13.7694C675.539 36.0917 682.025 67.8289 687.732 93.9842C694.685 125.854 698.357 159.414 695.549 192.025C694.524 203.925 691.255 235.324 675.02 237.835C659.364 240.256 663.082 194.805 664.354 188.445C667.982 170.305 676.155 153.332 685.54 137.525C692.424 125.931 700.726 113.686 712.425 106.404C720.632 101.295 731.92 96.0919 726.744 109.034" stroke="black" stroke-opacity="0.3" stroke-width="5" stroke-linecap="round"/>
<path d="M659.679 13.7693C675.539 36.0916 682.025 67.8288 687.732 93.9841C694.685 125.853 698.356 159.413 695.549 192.024C694.524 203.925 691.255 235.324 675.02 237.835C659.364 240.256 663.082 194.804 664.354 188.445C667.982 170.305 676.155 153.332 685.54 137.525C692.424 125.931 700.726 113.686 712.425 106.404C720.632 101.295 731.92 96.0918 726.744 109.034" stroke="black" stroke-width="5" stroke-linecap="round"/>
<path d="M957.671 122.869C968.758 130.932 997.62 119.001 1002.2 107.235C1005.4 99.0075 987.419 94.3251 982.471 94.0119C969.669 93.2017 953.022 102.479 948.866 115.125C943.517 131.399 964.197 146.668 976.773 149.201C1004.01 154.688 1036.37 149.094 1060.79 136.27C1074.09 129.285 1087.11 113.788 1091.76 98.9066C1092.33 97.0933 1091.38 92.87 1091.84 94.5233C1094.67 104.74 1099.75 113.876 1105.28 122.869C1118.62 144.579 1132.41 158.783 1141.44 182.788C1149 202.879 1146.75 211 1145.24 218.469C1142.71 231 1134.61 243.753 1127.92 236.295C1122.65 230.408 1123.22 212.886 1124 208.095C1127.88 184.177 1132.13 175.44 1145.9 150.72C1159.67 126 1172.37 121.512 1195.35 107.235C1213.75 95.8086 1240.86 85.5488 1263.08 89.6286C1272.17 91.2995 1259.34 96.8395 1256.72 98.03" stroke="black" stroke-opacity="0.3" stroke-width="5" stroke-linecap="round"/>
<path d="M1091.83 94.5233C1094.67 104.74 1099.75 113.876 1105.28 122.869C1118.62 144.579 1132.41 158.783 1141.44 182.788C1149 202.879 1146.75 211 1145.24 218.469C1142.71 231 1134.61 243.753 1127.92 236.295C1122.65 230.408 1123.22 212.886 1124 208.095C1127.88 184.177 1132.13 175.44 1145.9 150.72C1159.67 126 1172.37 121.512 1195.35 107.235C1213.75 95.8086 1240.86 85.5488 1263.08 89.6286C1272.17 91.2995 1259.34 96.8395 1256.72 98.03" stroke="black" stroke-width="5" stroke-linecap="round"/>
<path d="M1579.07 8.05273C1626.09 8.05273 1391.24 16.5256 1438.26 16.5256C1443.79 16.5256 1448.89 24.4883 1451.84 28.0917C1469.93 50.1452 1483.14 75.1994 1494.68 101.187C1508.74 132.854 1521.14 156.8 1523.79 191.641C1524.71 203.666 1524.98 216.967 1519.89 228.223C1517.67 233.135 1512.76 241.064 1506.45 241.268C1490.6 241.779 1489.74 212.854 1490.17 203.409C1491.65 171.159 1506.19 148.582 1527.16 124.386C1537.52 112.425 1555.71 94.7 1573.35 100.783C1593.43 107.707 1598.28 142.814 1601.26 160.362C1604.36 178.661 1609.61 216.359 1601.26 234.177C1594.58 248.431 1589.51 226.14 1589.09 221.468C1586.56 193.6 1593.99 152.949 1612.96 131.783C1619.36 124.646 1628.05 118.254 1637.71 116.586C1645.41 115.254 1649.79 118.166 1656.54 120.62" stroke="black" stroke-opacity="0.3" stroke-width="5" stroke-linecap="round"/>
<path d="M1573.35 100.783C1593.43 107.707 1598.28 142.814 1601.26 160.362C1604.36 178.661 1609.61 216.359 1601.26 234.177C1594.58 248.431 1589.51 226.14 1589.09 221.468C1586.56 193.6 1593.99 152.949 1612.96 131.783C1619.36 124.647 1628.05 118.254 1637.71 116.586C1645.41 115.254 1649.79 118.166 1656.54 120.62" stroke="black" stroke-width="5" stroke-linecap="round"/>
<path d="M2324.45 142.935C2306.52 142.935 2360.58 145.919 2378.23 142.681C2389.32 140.648 2404.43 135.142 2409.47 123.48C2413.32 114.576 2407.69 103.934 2400.41 99.0651C2391.06 92.8165 2378.41 92.8185 2368.19 96.522C2362.06 98.7418 2354.19 104.108 2357.65 112.035C2362.89 124.03 2380.92 130.87 2391.83 134.67C2411.02 141.353 2431.25 144.053 2451.37 145.224C2481.04 146.95 2475.89 147.017 2504.74 148.403C2516.06 150.399 2481.79 149.613 2470.31 150.056C2400.41 157.17 2365 166 2336.81 184.85C2316.46 198.46 2302.17 213.091 2299.12 234.951C2297.95 243.304 2305.62 240.89 2310.02 239.911" stroke="black" stroke-opacity="0.3" stroke-width="5" stroke-linecap="round"/>
<path d="M2504.74 148.403C2516.06 150.399 2481.79 149.613 2470.31 150.056C2400.41 157.17 2365 166 2336.81 184.85C2316.46 198.46 2302.17 213.091 2299.12 234.951C2297.95 243.304 2305.62 240.89 2310.02 239.911" stroke="black" stroke-width="5" stroke-linecap="round"/>
<path d="M1865.41 125.345C1857.86 144.784 1911.32 151.905 1921.96 152.676C1938.01 153.839 1954.91 152.472 1964.93 138.419C1971.76 128.852 1976.91 115.202 1970.71 104.123C1955.19 76.4078 1912.91 78.4723 1886.66 83.5591C1858.71 88.9776 1830.94 96.8849 1803.34 103.795C1801.95 104.144 1805.19 101.506 1806.43 100.773C1824.61 89.9958 1843.96 81.8356 1863.96 75.0837C1931.89 52.1579 2004.31 41.5699 2069.84 11.5514C2069.84 11.5507 2081.62 6.7675 2079.81 4.71856C2077.37 1.94675 2071.14 8.01527 2069.58 9.05479C2053.86 19.5057 2036.31 27.2167 2021.95 39.6712C2018.86 42.3445 2012.37 47.6445 2012.63 52.6142C2012.8 55.7673 2015.89 54.8271 2017.75 55.5707" stroke="black" stroke-opacity="0.3" stroke-width="5" stroke-linecap="round"/>
<path d="M2079.81 4.71856C2077.37 1.94675 2071.14 8.01527 2069.58 9.05479C2053.86 19.5057 2036.31 27.2167 2021.95 39.6712C2018.86 42.3445 2012.37 47.6445 2012.63 52.6142C2012.8 55.7673 2015.89 54.8271 2017.75 55.5707" stroke="black" stroke-width="5" stroke-linecap="round"/>
<path d="M2907.79 7.69592C2918.04 7.69592 2887.28 7.15025 2877.02 6.80976C2858.58 6.19742 2840.14 5.72281 2821.7 5.16402C2813.43 4.91337 2805.16 4.50664 2796.89 4.34116C2794.94 4.30224 2787.06 5.37905 2785.05 3.70818C2784.51 3.25713 2788.37 3.15793 2788.85 3.3284C2797.28 6.30511 2804.42 17.2924 2808.79 24.2798C2820.91 43.6702 2827.17 67.3397 2832.34 89.3495C2836.29 106.2 2839.21 123.265 2841.39 140.43C2843.48 156.921 2846.07 184.649 2843.48 201.258C2842.14 209.804 2838.21 226.172 2828.41 229.362C2818.12 232.713 2813.57 219.734 2811.83 212.082C2807.43 192.736 2813.22 163.613 2821.57 146.191C2832.71 122.968 2848.21 105.207 2872.21 95.0463C2881.58 91.0823 2897.17 81.9014 2905.72 92.1346C2919.19 108.251 2915.84 134.262 2914.7 154.419C2913.34 169.762 2910.84 222.762 2908.86 238.107" stroke="black" stroke-opacity="0.3" stroke-width="5" stroke-linecap="round"/>
<path d="M2872.21 95.0463C2881.58 91.0823 2897.17 81.9014 2905.72 92.1346C2919.19 108.251 2915.84 134.262 2914.7 154.419C2913.34 169.762 2910.84 222.762 2908.86 238.107" stroke="black" stroke-width="5" stroke-linecap="round"/>
</svg>
