<svg width="417" height="345" viewBox="0 0 417 345" fill="none" xmlns="http://www.w3.org/2000/svg">
<path d="M55.8205 213.974C55.5609 221.408 57.836 199.2 59.702 191.999C60.5993 188.537 60.4619 187.956 62.8721 190.397C68.723 196.323 76.5349 199.754 84.3339 202.28C110.625 210.794 138.386 210.518 165.272 209.812C193.671 210.144 210.793 211.047 239.084 208.42C247.538 207.635 262.414 196.975 260.563 187.569C260.479 187.142 257.856 180.005 257.433 181.309C256.233 185.017 260.874 191.561 262.82 194.265C268.48 202.128 280.221 206.431 289.091 208.885C311.238 213.012 314.705 212.618 328.101 211.205C340.854 208.692 368.256 204.668 374.516 190.715C379.148 180.392 366.476 174.763 359.444 171.971" stroke="black" stroke-width="4" stroke-linecap="round"/>
<path d="M97.0026 170.857C94.5235 170.857 96.0367 170.939 97.624 171.478C105.552 174.171 112.801 176.468 121.316 176.839C151.273 178.141 182.441 171.483 209.948 159.669C219.117 155.732 236.879 145.323 225.717 133.255C209.883 116.135 175.179 115.452 154.097 114.299C122.342 112.562 90.1682 116.159 58.9397 121.912C53.316 122.948 36.4595 125.047 42.161 125.486C51.1564 126.178 63.0326 121.3 71.2131 118.649C118.806 103.23 166.009 84.1048 212.434 65.5099C227.507 59.4728 242.599 53.4304 257.643 47.3307C261.204 45.887 260.292 45.6235 257.799 45" stroke="black" stroke-width="4" stroke-linecap="round"/>
<path d="M65.1788 87.6471C60.0523 87.3784 87.1018 73.4728 88.8734 72.6051C108.735 62.8778 129.151 52.9553 150.114 45.8182" stroke="black" stroke-width="4" stroke-linecap="round"/>
<path d="M188 37C189.263 35.4406 190.036 33.7848 191 32" stroke="black" stroke-width="4" stroke-linecap="round"/>
<path d="M65.7431 259C65.7431 258.627 65.5511 259.723 65.4315 260.077C64.5374 262.726 64.8229 263 68.3135 263C83.0104 263 94.8801 250.086 105 241" stroke="black" stroke-width="4" stroke-linecap="round"/>
</svg>
