<svg width="352" height="224" viewBox="0 0 352 224" fill="none" xmlns="http://www.w3.org/2000/svg">
<path d="M60.5537 139.32C56.001 139.32 61.1024 137.926 62.9483 137.496C90.129 131.157 119.31 118.827 143.329 104.328C154.283 97.7163 166.108 85.1675 147.799 78.375C119.066 67.7151 77.9171 80.4435 53.8486 97.1974C48.1575 101.159 34.0266 111.24 39.1614 120.414C44.8112 130.509 62.8201 128.754 71.8884 128.54C102.7 127.816 141.307 117.882 168.792 137.33C183.659 147.849 192.745 178.658 176.695 192.899C154.07 212.974 128.5 223 84.9792 220.204C68.4131 218.438 54 216.173 36.5272 209.767C26.0207 205.915 14.355 199.388 8.35006 188.861C-9.84219 156.971 22.4426 97.0277 44.1902 77.2141C81.3245 43.3822 131.575 21.3714 179.329 9.96758C220.737 0.0792031 267.2 -2.11943 303.851 22.5711C320.79 33.9823 346.074 50.4424 348.711 73.4828C351.87 101.088 328.575 124.599 305.208 132.935C293.453 137.129 278.506 139.043 268.41 129.701C261.022 122.865 255.859 108.663 262.104 99.4362C270.841 86.5283 292.919 83.0598 306.565 80.6138C314.193 79.2465 325.306 75.9338 329.235 84.0964" stroke="black" stroke-width="5" stroke-linecap="round"/>
</svg>
