<svg fill="none" height="224" viewBox="0 0 352 224" width="352" xmlns="http://www.w3.org/2000/svg"><path d="m60.5537 139.32c-4.5527 0 .5487-1.394 2.3946-1.824 27.1807-6.339 56.3617-18.669 80.3807-33.168 10.954-6.6117 22.779-19.1605 4.47-25.953-28.733-10.6599-69.8819 2.0685-93.9504 18.8224-5.6911 3.9616-19.822 14.0426-14.6872 23.2166 5.6498 10.095 23.6587 8.34 32.727 8.126 30.8116-.724 69.4186-10.658 96.9036 8.79 14.867 10.519 23.953 41.328 7.903 55.569-22.625 20.075-48.195 30.101-91.7158 27.305-16.5661-1.766-30.9792-4.031-48.452-10.437-10.5065-3.852-22.1722-10.379-28.17714-20.906-18.19225-31.89 14.09254-91.8333 35.84014-111.6469 37.1343-33.8319 87.3848-55.8427 135.1388-67.24652 41.408-9.8883769 87.871-12.08701 124.522 12.60352 16.939 11.4112 42.223 27.8713 44.86 50.9117 3.159 27.6052-20.136 51.1162-43.503 59.4522-11.755 4.194-26.702 6.108-36.798-3.234-7.388-6.836-12.551-21.038-6.306-30.2648 8.737-12.9079 30.815-16.3764 44.461-18.8224 7.628-1.3673 18.741-4.68 22.67 3.4826" stroke="#000" stroke-linecap="round" stroke-width="5"/></svg>