<svg width="364" height="239" viewBox="0 0 364 239" fill="none" xmlns="http://www.w3.org/2000/svg">
<path d="M67.8838 143.012C80.4928 144.273 91.4052 151.622 104.577 152.555C127.348 154.169 154.683 147.227 172.341 132.285C185.434 121.207 181.739 109.606 168.051 101.436C140.366 84.9122 106.539 83.1811 75.1337 83.0896C52.6145 83.0239 31.4874 85.268 10.0325 92.1889C5.92735 93.5132 -1.49927 99.063 5.14996 94.6302C52.9235 62.7812 102.974 32.8714 157.842 14.7334C179.107 7.70349 206.628 -1.0286 229.083 5.63403C247.761 11.1759 248.345 33.7824 245.95 49.9472C242.444 73.6147 233.087 96.8211 226.642 119.783C218.289 149.541 210.675 182.42 213.622 213.588C214.363 221.436 217.433 243.184 229.675 234.003C252.228 217.088 270.649 197.935 294.258 181.999C312.058 169.984 333.17 157.503 355.069 155.293C360.85 154.709 361.742 157.186 359.507 161.655" stroke="black" stroke-width="5" stroke-linecap="round"/>
</svg>
