<svg fill="none" height="153" viewBox="0 0 341 153" width="341" xmlns="http://www.w3.org/2000/svg"><path d="m22.6544 33.4071c12.7282 3.4108 15.2981 8.039 28.4769 5.4656 7.8517-1.5332 22.1942-4.7432 25.599-13.6335 5.1997-13.577-14.9239-20.90282-24.5113-21.9006-18.749-1.95125-33.6967 4.65973-44.57595 20.351-8.64485 12.4685-6.683125 27.6174 8.91975 32.3433 35.8193 10.8491 72.1536-11.5077 108.3432-7.9771 1.153.1125 9.645.6197 4.496 1.0878-11.107 1.0097-23.829 7.9735-33.2137 13.416-18.4445 10.696-34.719 26.3451-43.2211 46.1214-5.9379 13.812-9.6646 24.957 3.916 35.321 12.4706 9.517 29.3691 5.184 42.4234-.653 25.2974-11.312 46.7584-25.341 65.6294-45.2553 21.916-23.1285 41.88-48.8773 72.301-61.2782 23-9.3759 49.485-11.5903 73.461-5.1489 7.671 2.0607 15.25 4.7 22.771 7.2519 1.526.5176 5.775 1.6497 4.279 2.2481-1.51.6039-4.111.0725-5.729.0725" stroke="#000" stroke-linecap="round" stroke-width="5"/></svg>