<svg width="341" height="153" viewBox="0 0 341 153" fill="none" xmlns="http://www.w3.org/2000/svg">
<path d="M22.6544 33.4071C35.3826 36.8179 37.9525 41.4461 51.1313 38.8727C58.983 37.3395 73.3255 34.1295 76.7303 25.2392C81.93 11.6622 61.8064 4.33638 52.219 3.3386C33.47 1.38735 18.5223 7.99833 7.64305 23.6896C-1.0018 36.1581 0.959925 51.307 16.5628 56.0329C52.3821 66.882 88.7164 44.5252 124.906 48.0558C126.059 48.1683 134.551 48.6755 129.402 49.1436C118.295 50.1533 105.573 57.1171 96.1883 62.5596C77.7438 73.2556 61.4693 88.9047 52.9672 108.681C47.0293 122.493 43.3026 133.638 56.8832 144.002C69.3538 153.519 86.2523 149.186 99.3066 143.349C124.604 132.037 146.065 118.008 164.936 98.0937C186.852 74.9652 206.816 49.2164 237.237 36.8155C260.237 27.4396 286.722 25.2252 310.698 31.6666C318.369 33.7273 325.948 36.3666 333.469 38.9185C334.995 39.4361 339.244 40.5682 337.748 41.1666C336.238 41.7705 333.637 41.2391 332.019 41.2391" stroke="black" stroke-width="5" stroke-linecap="round"/>
</svg>
