<svg fill="none" height="239" viewBox="0 0 238 239" width="238" xmlns="http://www.w3.org/2000/svg"><path d="m119.76 4.8271c2.061 0 3.459-.16164 5.376-.80068 3.075-1.02487-5.674-.22229-6.405-.22876-21.1251-.18695-42.0971-1.48079-63.2537-.57191-17.7597.76294-35.119 3.70511-52.73019 5.66191-1.06869.11874 4.50765.86272 5.7191 1.42974 22.07079 10.331 38.60879 36.0642 50.78569 55.9901 22.364 36.5955 38.7896 75.1275 42.4931 118.2715 1.136 13.231 2.387 54.716-21.7899 51.588-10.1593-1.315-17.1677-8.792-21.9614-16.873-6.8806-11.6-12.4844-25.017-14.9841-38.318-5.1771-27.55 5.518-70.697 28.7099-85.5674 12.964-8.3125 36.7805 3.5914 47.0115 19.4544 5.929 7.729 8.782 17.844 11.552 26.994 5.055 16.697 8.488 33.923 14.298 50.385 2.472 7.005 13.961 48.498 26.537 42.714 5.389-2.479 7.63-10.343 9.493-15.328 4.006-10.715 7.504-31.542 12.525-41.855 7.23-14.85 19.076-39.188 36.831-43.923 3.025-.807 5.09-.444 5.09 2.745" stroke="#000" stroke-linecap="round" stroke-width="5"/></svg>