<svg width="238" height="239" viewBox="0 0 238 239" fill="none" xmlns="http://www.w3.org/2000/svg">
<path d="M119.76 4.8271C121.821 4.8271 123.219 4.66546 125.136 4.02642C128.211 3.00155 119.462 3.80413 118.731 3.79766C97.6059 3.61071 76.6339 2.31687 55.4773 3.22575C37.7176 3.98869 20.3583 6.93086 2.74711 8.88766C1.67842 9.0064 7.25476 9.75038 8.46621 10.3174C30.537 20.6484 47.075 46.3816 59.2519 66.3075C81.6159 102.903 98.0415 141.435 101.745 184.579C102.881 197.81 104.132 239.295 79.9551 236.167C69.7958 234.852 62.7874 227.375 57.9937 219.294C51.1131 207.694 45.5093 194.277 43.0096 180.976C37.8325 153.426 48.5276 110.279 71.7195 95.4086C84.6835 87.0961 108.5 99 118.731 114.863C124.66 122.592 127.513 132.707 130.283 141.857C135.338 158.554 138.771 175.78 144.581 192.242C147.053 199.247 158.542 240.74 171.118 234.956C176.507 232.477 178.748 224.613 180.611 219.628C184.617 208.913 188.115 188.086 193.136 177.773C200.366 162.923 212.212 138.585 229.967 133.85C232.992 133.043 235.057 133.406 235.057 136.595" stroke="black" stroke-width="5" stroke-linecap="round"/>
</svg>
