<svg fill="none" height="240" viewBox="0 0 389 240" width="389" xmlns="http://www.w3.org/2000/svg"><path d="m69.5115 138.996c0-3.284 3.3349 4.502 6.5605 6.437 24.015 14.409 61.218 2.405 83.429-9.531 23.418-12.584 32.895-27.665 9.532-46.1876-14.377-11.3975-33.273-14.6531-51.123-14.9776-21.3196-.3877-43.2449 1.9007-64.2426 5.5702-16.0003 2.7962-63.43047 13.9345-47.40866 11.2642 1.60133-.2669 4.36746-3.7433 5.63206-4.6419 6.9305-4.9242 13.6859-9.7029 20.2385-15.1633 27.4707-22.8923 58.0597-46.7088 91.9707-58.9204 24.237-8.72822 64.22-18.42951 84.79 3.5897 9.09 9.7296 8.318 22.0601 5.014 34.0401-4.925 17.8511-13.338 34.4247-17.763 52.4836-9.176 37.449-13.867 88.251 13.987 119.46 18.115 20.296 50.638 19.041 66.843-2.723 19.031-25.561 24.311-71.568 3.342-97.427-9.278-11.441-21.409-20.478-34.783-26.4892-.064-.0288-11.759-4.3237-11.759-4.8275 0-2.5376 4.951 1.114 7.427 1.671 7.071 1.5912 14.309 2.2044 21.538 2.5376 35.363 1.6296 70.668 4.4525 106.081 4.7037 3.931.0279 9.186.0122 13.245.2474 1.426.083 5.397.012 4.209.805-.512.341-1.996.062-2.6.062" stroke="#000" stroke-linecap="round" stroke-width="5"/></svg>