<svg width="251" height="242" viewBox="0 0 251 242" fill="none" xmlns="http://www.w3.org/2000/svg">
<path d="M120.517 3.92059C121.389 3.79801 91.4639 4.25254 89.8222 3.8961C61.7939 3.05749 45.013 5.98341 15.4056 4.50944C14.266 4.45271 -3.38738 2.6603 5.48434 3.05736C22.7758 3.83124 41.4305 14.3721 50.264 26.8632C63.396 45.4328 72.2657 63.2397 80.0948 84.3704C89.6997 110.294 98.2907 137.012 102.82 164.301C105.169 178.454 116.966 234.066 91.5578 237.697C67.3675 241.155 57.1024 199.56 56.6994 183.442C55.8356 148.892 71.6391 120.448 99.7362 100.541C105.261 96.6271 130.147 87.343 134.729 101.037C141.94 122.592 134.502 137.51 133.12 159.285C131.594 183.321 131.837 213.722 150.147 232.417C165.078 247.663 186.294 233.507 195.463 219.48C203.906 206.564 204.734 191.13 203.239 176.248C201.37 157.639 197.638 137.347 189.698 120.211C186.819 113.997 177.347 105.173 176.626 98.4292C176.358 95.9282 186.677 98.8594 187.419 99.0893C205.348 104.647 223.143 106.706 241.985 106.878C243.758 106.894 251.627 108.066 246.007 108.066" stroke="black" stroke-width="5" stroke-linecap="round"/>
</svg>
