<svg fill="none" height="242" viewBox="0 0 251 242" width="251" xmlns="http://www.w3.org/2000/svg"><path d="m120.517 3.92059c.872-.12258-29.0531.33195-30.6948-.02449-28.0283-.83861-44.8092 2.08731-74.4166.61334-1.1396-.05673-18.79298-1.84914-9.92126-1.45208 17.29146.77388 35.94616 11.31474 44.77966 23.80584 13.132 18.5696 22.0017 36.3765 29.8308 57.5072 9.6049 25.9236 18.1959 52.6416 22.7252 79.9306 2.349 14.153 14.146 69.765-11.2622 73.396-24.1903 3.458-34.4554-38.137-34.8584-54.255-.8638-34.55 14.9397-62.994 43.0368-82.901 5.5248-3.9139 30.4108-13.198 34.9928.496 7.211 21.555-.227 36.473-1.609 58.248-1.526 24.036-1.283 54.437 17.027 73.132 14.931 15.246 36.147 1.09 45.316-12.937 8.443-12.916 9.271-28.35 7.776-43.232-1.869-18.609-5.601-38.901-13.541-56.037-2.879-6.214-12.351-15.038-13.072-21.7818-.268-2.501 10.051.4302 10.793.6601 17.929 5.5577 35.724 7.6167 54.566 7.7887 1.773.016 9.642 1.188 4.022 1.188" stroke="#000" stroke-linecap="round" stroke-width="5"/></svg>