<svg fill="none" height="249" viewBox="0 0 3090 249" width="3090" xmlns="http://www.w3.org/2000/svg"><g stroke="#000"><g stroke-dasharray="10 10"><path d="m0 153.262h3090"/><path d="m0 241.262h3090"/><path d="m0 93.2617h3090"/><path d="m0 3.26172h3090"/></g><g stroke-linecap="round" stroke-width="5"><path d="m73.5458 156.924c-4.8685 0 .5868-1.492 2.5608-1.953 29.0664-6.785 50.2714-10.984 75.9564-26.504 11.714-7.078 24.359-20.511 4.78-27.782-30.726-11.4106-64.7294-6.7855-90.4673 11.149-6.0858 4.24-21.197 15.032-15.706 24.853 6.0417 10.805 25.2998 8.926 34.9971 8.698 32.9492-.776 74.2342-16.41 103.6252 4.409 15.898 11.26 25.614 44.239 8.451 59.484-24.194 21.489-51.538 32.221-98.0774 29.229-17.7152-1.891-33.128-4.316-51.8128-11.173-11.2353-4.124-23.7101-11.11-30.1316-22.379-19.45417-34.136 15.07-98.303 38.3261-119.5123 39.7102-36.2155 93.4457-59.7771 144.5127-71.9842 44.28-10.58507 93.966-12.938605 133.159 13.4914 18.114 12.2151 45.152 29.8349 47.972 54.4986 3.378 29.5505-21.533 54.7175-46.52 63.6405-12.571 4.489-28.555 6.538-39.351-3.461-7.9-7.318-13.422-17.521-6.743-27.398 9.343-13.817 32.952-17.5298 47.545-20.1482 8.157-1.4636 20.04-5.0097 24.242 3.7279" stroke-opacity=".3"/><path d="m73.5458 156.924c-4.8685 0 .5868-1.492 2.5608-1.953 29.0664-6.785 50.2714-10.984 75.9564-26.504 11.714-7.078 24.359-20.511 4.78-27.782-30.726-11.4106-64.7294-6.7855-90.4673 11.149-6.0858 4.24-21.197 15.032-15.706 24.853 6.0417 10.805 25.2998 8.926 34.9971 8.698 32.9492-.776 74.2342-16.41 103.6252 4.409 15.898 11.26 25.614 44.239 8.451 59.484-24.194 21.489-51.538 32.221-98.0774 29.229-17.7152-1.891-33.128-4.316-51.8128-11.173-11.2353-4.124-23.7101-11.11-30.1316-22.378-19.45417-34.137 15.07-98.304 38.3261-119.5133 39.7102-36.2155 93.4457-59.7771 144.5127-71.9842 44.28-10.58507 93.966-12.938606 133.159 13.4914"/><path d="m524.392 145.756c12.609 1.261 23.521 8.61 36.693 9.543 22.771 1.614 50.106-5.328 67.765-20.27 13.092-11.078 9.397-22.679-4.291-30.849-27.685-16.5242-61.512-18.2552-92.917-18.3468-22.519-.0656-43.647 2.1785-65.101 9.0994-4.106 1.3242-11.532 6.8744-4.883 2.4413 47.774-31.8491 97.824-61.7589 152.692-79.8969 21.265-7.0299 48.786-15.76195 71.241-9.09932 18.678 5.54182 19.262 28.14842 16.867 44.31312-3.506 23.6676-12.863 46.8739-19.308 69.8362-8.353 29.758-15.967 62.637-13.02 93.804.741 7.849 3.811 29.597 16.053 20.416 22.553-16.915 40.974-36.069 64.583-52.004 17.8-12.015 38.912-24.497 60.811-26.707 5.781-.583 6.673 1.894 4.438 6.362" stroke-opacity=".3"/><path d="m685.591 8.37744c18.678 5.54186 19.262 28.14846 16.867 44.31316-3.506 23.6675-12.863 46.8739-19.308 69.8354-8.353 29.758-15.967 62.637-13.02 93.805.741 7.849 3.811 29.597 16.053 20.416 22.553-16.915 40.974-36.069 64.583-52.005 17.8-12.015 38.912-24.496 60.811-26.706 5.781-.583 6.673 1.893 4.438 6.362"/><path d="m968.107 123.407c12.728 3.411 15.298 8.039 28.476 5.466 7.857-1.533 22.197-4.744 25.597-13.634 5.2-13.577-14.92-20.9026-24.509-21.9004-18.749-1.9513-33.697 4.6597-44.576 20.3514-8.645 12.468-6.683 27.617 8.92 32.343 35.819 10.849 72.155-11.508 108.345-7.977 1.15.112 9.64.619 4.49 1.088-11.1 1.009-23.82 7.973-33.21 13.416-18.44 10.696-34.72 26.345-43.221 46.121-5.938 13.812-9.664 24.957 3.921 35.321 12.47 9.517 29.36 5.184 42.42-.653 25.3-11.312 46.76-25.341 65.63-45.255 21.91-23.129 41.88-48.878 72.3-61.279 23-9.375 49.48-11.59 73.46-5.148 7.67 2.06 15.25 4.7 22.77 7.251 1.53.518 5.78 1.65 4.28 2.249-1.51.604-4.11.072-5.73.072" stroke-opacity=".3"/><path d="m1074.85 139.144c-11.1 1.01-23.82 7.973-33.21 13.416-18.44 10.696-34.72 26.345-43.221 46.122-5.938 13.812-9.664 24.956 3.921 35.32 12.47 9.517 29.36 5.185 42.42-.653 25.3-11.312 46.76-25.34 65.63-45.255 21.91-23.129 41.88-48.877 72.3-61.278 23-9.376 49.48-11.591 73.46-5.149 7.67 2.061 15.25 4.7 22.77 7.252 1.53.517 5.78 1.649 4.28 2.248-1.51.604-4.11.072-5.73.072"/><path d="m1549.15 14.9218c2.06 0 3.46-.1616 5.37-.8007 3.08-1.0248-5.67-.2222-6.4-.2287-21.13-.187-42.1-1.4808-63.25-.5719-17.76.7629-35.12 3.7051-52.73 5.6619-1.07.1187 4.5.8627 5.71 1.4298 22.08 10.331 38.61 36.0642 50.79 55.99 22.36 36.5958 38.79 75.1268 42.49 118.2708 1.14 13.232 2.39 54.717-21.79 51.588-10.16-1.314-17.16-8.791-21.96-16.873-6.88-11.599-12.48-25.016-14.98-38.318-5.18-27.549 5.52-70.696 28.71-85.567 12.96-8.3121 36.78 3.592 47.01 19.454 5.93 7.73 8.78 17.845 11.55 26.995 5.06 16.697 8.49 33.922 14.3 50.385 2.47 7.005 13.96 48.498 26.54 42.713 5.38-2.479 7.63-10.343 9.49-15.327 4.01-10.715 7.5-31.542 12.52-41.855 7.23-14.851 19.08-39.188 36.84-43.923 3.02-.807 5.09-.444 5.09 2.745" stroke-opacity=".3"/><path d="m1501.11 105.503c12.96-8.3123 36.78 3.592 47.01 19.454 5.93 7.73 8.78 17.844 11.55 26.994 5.06 16.698 8.49 33.923 14.3 50.386 2.47 7.004 13.96 48.498 26.54 42.713 5.39-2.479 7.63-10.343 9.49-15.327 4.01-10.715 7.5-31.543 12.52-41.856 7.23-14.85 19.08-39.187 36.84-43.922 3.02-.807 5.09-.444 5.09 2.745"/><path d="m2370.94 143.334c-4.51-2.404 13.25 3.193 13.83 3.313 24.07 5.024 51.02.65 71.36-13.636 11.92-8.366 13.85-17.086 2.08-28.938-11.56-11.6348-26.84-13.6205-37.56.51-12.24 16.144 1.69 28.378 14.71 35.883 18.82 10.845 47.67 15.832 67.99 6.5 16.3-7.487 22.36-28.568 16.25-44.732-6.73-17.8076-23.51-33.4114-39.83-42.4376-41.12-22.7493-89.44-7.5712-133.55-8.2199-14.38-.2114-33.7-2.0991-44.8-12.6166-10.61-10.0516 16.73-24.4855 22.69-26.6947 47.47-17.59894 97.39-6.72992 143.94 7.5189 30.45 9.3184 61.25 11.6124 93.29 7.774 4.88-.5855 15.19-1.2742 10.32-7.7739" stroke-opacity=".3"/><path d="m2503.35 146.966c16.3-7.487 22.36-28.568 16.25-44.732-6.73-17.8076-23.51-33.4113-39.83-42.4375-41.12-22.7494-89.44-7.5713-133.55-8.2199-14.38-.2115-33.7-2.0992-44.8-12.6166-10.61-10.0516 16.73-24.4855 22.69-26.6948 47.47-17.5989 97.39-6.72988 143.94 7.519 30.45 9.3183 61.25 11.6123 93.29 7.774 4.88-.5856 15.19-1.2743 10.32-7.7739"/><path d="m1869.51 140.996c0-3.284 3.34 4.502 6.56 6.437 24.02 14.409 61.22 2.405 83.43-9.531 23.42-12.584 32.9-27.665 9.53-46.1876-14.37-11.3975-33.27-14.6531-51.12-14.9776-21.32-.3877-43.24 1.9007-64.24 5.5702-16 2.7962-63.43 13.9345-47.41 11.2642 1.6-.2669 4.37-3.7433 5.63-4.6419 6.93-4.9242 13.69-9.7029 20.24-15.1633 27.47-22.8923 58.06-46.7088 91.97-58.9204 24.24-8.72822 64.22-18.42951 84.79 3.5897 9.09 9.7296 8.32 22.0601 5.01 34.0401-4.92 17.8511-13.33 34.4247-17.76 52.4836-9.18 37.449-13.87 88.251 13.99 119.46 18.11 20.296 50.64 19.041 66.84-2.723 19.03-25.561 24.31-71.568 3.34-97.427-9.28-11.441-21.41-20.478-34.78-26.4892-.06-.0288-11.76-4.3237-11.76-4.8275 0-2.5376 4.95 1.114 7.43 1.671 7.07 1.5912 14.31 2.2044 21.54 2.5376 35.36 1.6296 70.66 4.4521 106.08 4.7041 3.93.027 9.18.012 13.24.247 1.43.083 5.4.012 4.21.805-.51.341-2 .062-2.6.062" stroke-opacity=".3"/><path d="m2008.89 18.4351c9.09 9.7296 8.32 22.0601 5.01 34.0401-4.92 17.8511-13.33 34.4246-17.76 52.4838-9.18 37.448-13.87 88.251 13.99 119.46 18.11 20.295 50.64 19.041 66.84-2.724 19.03-25.56 24.31-71.567 3.34-97.426-9.27-11.441-21.41-20.479-34.78-26.4894-.06-.0288-11.76-4.3237-11.76-4.8276 0-2.5375 4.95 1.1141 7.43 1.6711 7.07 1.5912 14.31 2.2044 21.54 2.5375 35.36 1.6297 70.66 4.4524 106.08 4.7034 3.93.028 9.18.013 13.24.248 1.43.083 5.4.012 4.21.805-.51.341-1.99.061-2.6.061"/><path d="m2902.52 4.92059c.87-.12258-29.06.33195-30.7-.02449-28.03-.83861-44.81 2.08731-74.41.61334-1.14-.05673-18.8-1.84914-9.93-1.45208 17.3.77388 35.95 11.31474 44.78 23.80584 13.14 18.5696 22.01 36.3765 29.83 57.5072 9.61 25.9236 18.2 52.6416 22.73 79.9306 2.35 14.153 14.15 69.765-11.26 73.396-24.19 3.458-34.46-38.137-34.86-54.255-.86-34.55 14.94-62.994 43.04-82.901 5.52-3.9139 30.41-13.198 34.99.496 7.21 21.555-.23 36.473-1.61 58.248-1.53 24.036-1.28 54.437 17.03 73.132 14.93 15.246 36.14 1.09 45.31-12.937 8.45-12.916 9.27-28.35 7.78-43.232-1.87-18.609-5.6-38.901-13.54-56.037-2.88-6.214-12.35-15.038-13.07-21.7818-.27-2.501 10.05.4302 10.79.6598 17.93 5.558 35.72 7.617 54.57 7.789 1.77.016 9.64 1.188 4.02 1.188" stroke-opacity=".3"/><path d="m2916.73 102.037c7.21 21.556-.23 36.473-1.61 58.248-1.53 24.036-1.28 54.437 17.03 73.132 14.93 15.247 36.14 1.09 45.31-12.937 8.45-12.916 9.27-28.349 7.78-43.232-1.87-18.609-5.6-38.901-13.54-56.037-2.88-6.214-12.35-15.038-13.07-21.7817-.27-2.5011 10.05.4302 10.79.6597 17.93 5.558 35.72 7.617 54.57 7.789 1.77.016 9.64 1.188 4.02 1.188"/></g></g></svg>