<svg width="3090" height="249" viewBox="0 0 3090 249" fill="none" xmlns="http://www.w3.org/2000/svg">
<line y1="153.262" x2="3090" y2="153.262" stroke="black" stroke-dasharray="10 10"/>
<line y1="241.262" x2="3090" y2="241.262" stroke="black" stroke-dasharray="10 10"/>
<line y1="93.2617" x2="3090" y2="93.2617" stroke="black" stroke-dasharray="10 10"/>
<line y1="3.26172" x2="3090" y2="3.26172" stroke="black" stroke-dasharray="10 10"/>
<path d="M73.5458 156.924C68.6773 156.924 74.1326 155.432 76.1066 154.971C105.173 148.186 126.378 143.987 152.063 128.467C163.777 121.389 176.422 107.956 156.843 100.685C126.117 89.2744 92.1136 93.8995 66.3757 111.834C60.2899 116.074 45.1787 126.866 50.6697 136.687C56.7114 147.492 75.9695 145.613 85.6668 145.385C118.616 144.609 159.901 128.975 189.292 149.794C205.19 161.054 214.906 194.033 197.743 209.278C173.549 230.767 146.205 241.499 99.6656 238.507C81.9504 236.616 66.5376 234.191 47.8528 227.334C36.6175 223.21 24.1427 216.224 17.7212 204.955C-1.73297 170.819 32.7912 106.652 56.0473 85.4427C95.7575 49.2272 149.493 25.6656 200.56 13.4585C244.84 2.87343 294.526 0.519895 333.719 26.9499C351.833 39.165 378.871 56.7848 381.691 81.4485C385.069 110.999 360.158 136.166 335.171 145.089C322.6 149.578 306.616 151.627 295.82 141.628C287.92 134.31 282.398 124.107 289.077 114.23C298.42 100.413 322.029 96.7002 336.622 94.0818C344.779 92.6182 356.662 89.0721 360.864 97.8097" stroke="black" stroke-opacity="0.3" stroke-width="5" stroke-linecap="round"/>
<path d="M73.5458 156.924C68.6773 156.924 74.1326 155.432 76.1066 154.971C105.173 148.186 126.378 143.987 152.063 128.467C163.777 121.389 176.422 107.956 156.843 100.685C126.117 89.2744 92.1136 93.8995 66.3757 111.834C60.2899 116.074 45.1787 126.866 50.6697 136.687C56.7114 147.492 75.9695 145.613 85.6668 145.385C118.616 144.609 159.901 128.975 189.292 149.794C205.19 161.054 214.906 194.033 197.743 209.278C173.549 230.767 146.205 241.499 99.6656 238.507C81.9504 236.616 66.5376 234.191 47.8528 227.334C36.6175 223.21 24.1427 216.224 17.7212 204.956C-1.73297 170.819 32.7912 106.652 56.0473 85.4427C95.7575 49.2272 149.493 25.6656 200.56 13.4585C244.84 2.87343 294.526 0.519894 333.719 26.9499" stroke="black" stroke-width="5" stroke-linecap="round"/>
<path d="M524.392 145.756C537.001 147.017 547.913 154.366 561.085 155.299C583.856 156.913 611.191 149.971 628.85 135.029C641.942 123.951 638.247 112.35 624.559 104.18C596.874 87.6558 563.047 85.9248 531.642 85.8332C509.123 85.7676 487.995 88.0117 466.541 94.9326C462.435 96.2568 455.009 101.807 461.658 97.3739C509.432 65.5248 559.482 35.615 614.35 17.477C635.615 10.4471 663.136 1.71505 685.591 8.37768C704.269 13.9195 704.853 36.5261 702.458 52.6908C698.952 76.3584 689.595 99.5647 683.15 122.527C674.797 152.285 667.183 185.164 670.13 216.331C670.871 224.18 673.941 245.928 686.183 236.747C708.736 219.832 727.157 200.678 750.766 184.743C768.566 172.728 789.678 160.246 811.577 158.036C817.358 157.453 818.25 159.93 816.015 164.398" stroke="black" stroke-opacity="0.3" stroke-width="5" stroke-linecap="round"/>
<path d="M685.591 8.37744C704.269 13.9193 704.853 36.5259 702.458 52.6906C698.952 76.3581 689.595 99.5645 683.15 122.526C674.797 152.284 667.183 185.163 670.13 216.331C670.871 224.18 673.941 245.928 686.183 236.747C708.736 219.832 727.157 200.678 750.766 184.742C768.566 172.727 789.678 160.246 811.577 158.036C817.358 157.453 818.25 159.929 816.015 164.398" stroke="black" stroke-width="5" stroke-linecap="round"/>
<path d="M968.107 123.407C980.835 126.818 983.405 131.446 996.583 128.873C1004.44 127.34 1018.78 124.129 1022.18 115.239C1027.38 101.662 1007.26 94.3364 997.671 93.3386C978.922 91.3873 963.974 97.9983 953.095 113.69C944.45 126.158 946.412 141.307 962.015 146.033C997.834 156.882 1034.17 134.525 1070.36 138.056C1071.51 138.168 1080 138.675 1074.85 139.144C1063.75 140.153 1051.03 147.117 1041.64 152.56C1023.2 163.256 1006.92 178.905 998.419 198.681C992.481 212.493 988.755 223.638 1002.34 234.002C1014.81 243.519 1031.7 239.186 1044.76 233.349C1070.06 222.037 1091.52 208.008 1110.39 188.094C1132.3 164.965 1152.27 139.216 1182.69 126.815C1205.69 117.44 1232.17 115.225 1256.15 121.667C1263.82 123.727 1271.4 126.367 1278.92 128.918C1280.45 129.436 1284.7 130.568 1283.2 131.167C1281.69 131.771 1279.09 131.239 1277.47 131.239" stroke="black" stroke-opacity="0.3" stroke-width="5" stroke-linecap="round"/>
<path d="M1074.85 139.144C1063.75 140.154 1051.03 147.117 1041.64 152.56C1023.2 163.256 1006.92 178.905 998.419 198.682C992.481 212.494 988.755 223.638 1002.34 234.002C1014.81 243.519 1031.7 239.187 1044.76 233.349C1070.06 222.037 1091.52 208.009 1110.39 188.094C1132.3 164.965 1152.27 139.217 1182.69 126.816C1205.69 117.44 1232.17 115.225 1256.15 121.667C1263.82 123.728 1271.4 126.367 1278.92 128.919C1280.45 129.436 1284.7 130.568 1283.2 131.167C1281.69 131.771 1279.09 131.239 1277.47 131.239" stroke="black" stroke-width="5" stroke-linecap="round"/>
<path d="M1549.15 14.9218C1551.21 14.9218 1552.61 14.7602 1554.52 14.1211C1557.6 13.0963 1548.85 13.8989 1548.12 13.8924C1526.99 13.7054 1506.02 12.4116 1484.87 13.3205C1467.11 14.0834 1449.75 17.0256 1432.14 18.9824C1431.07 19.1011 1436.64 19.8451 1437.85 20.4122C1459.93 30.7432 1476.46 56.4764 1488.64 76.4022C1511 112.998 1527.43 151.529 1531.13 194.673C1532.27 207.905 1533.52 249.39 1509.34 246.261C1499.18 244.947 1492.18 237.47 1487.38 229.388C1480.5 217.789 1474.9 204.372 1472.4 191.07C1467.22 163.521 1477.92 120.374 1501.11 105.503C1514.07 97.1909 1537.89 109.095 1548.12 124.957C1554.05 132.687 1556.9 142.802 1559.67 151.952C1564.73 168.649 1568.16 185.874 1573.97 202.337C1576.44 209.342 1587.93 250.835 1600.51 245.05C1605.89 242.571 1608.14 234.707 1610 229.723C1614.01 219.008 1617.5 198.181 1622.52 187.868C1629.75 173.017 1641.6 148.68 1659.36 143.945C1662.38 143.138 1664.45 143.501 1664.45 146.69" stroke="black" stroke-opacity="0.3" stroke-width="5" stroke-linecap="round"/>
<path d="M1501.11 105.503C1514.07 97.1907 1537.89 109.095 1548.12 124.957C1554.05 132.687 1556.9 142.801 1559.67 151.951C1564.73 168.649 1568.16 185.874 1573.97 202.337C1576.44 209.341 1587.93 250.835 1600.51 245.05C1605.9 242.571 1608.14 234.707 1610 229.723C1614.01 219.008 1617.5 198.18 1622.52 187.867C1629.75 173.017 1641.6 148.68 1659.36 143.945C1662.38 143.138 1664.45 143.501 1664.45 146.69" stroke="black" stroke-width="5" stroke-linecap="round"/>
<path d="M2370.94 143.334C2366.43 140.93 2384.19 146.527 2384.77 146.647C2408.84 151.671 2435.79 147.297 2456.13 133.011C2468.05 124.645 2469.98 115.925 2458.21 104.073C2446.65 92.4382 2431.37 90.4525 2420.65 104.583C2408.41 120.727 2422.34 132.961 2435.36 140.466C2454.18 151.311 2483.03 156.298 2503.35 146.966C2519.65 139.479 2525.71 118.398 2519.6 102.234C2512.87 84.4264 2496.09 68.8226 2479.77 59.7964C2438.65 37.0471 2390.33 52.2252 2346.22 51.5765C2331.84 51.3651 2312.52 49.4774 2301.42 38.9599C2290.81 28.9083 2318.15 14.4744 2324.11 12.2652C2371.58 -5.33374 2421.5 5.53528 2468.05 19.7841C2498.5 29.1025 2529.3 31.3965 2561.34 27.5581C2566.22 26.9726 2576.53 26.2839 2571.66 19.7842" stroke="black" stroke-opacity="0.3" stroke-width="5" stroke-linecap="round"/>
<path d="M2503.35 146.966C2519.65 139.479 2525.71 118.398 2519.6 102.234C2512.87 84.4264 2496.09 68.8227 2479.77 59.7965C2438.65 37.0471 2390.33 52.2252 2346.22 51.5766C2331.84 51.3651 2312.52 49.4774 2301.42 38.96C2290.81 28.9084 2318.15 14.4745 2324.11 12.2652C2371.58 -5.3337 2421.5 5.53532 2468.05 19.7842C2498.5 29.1025 2529.3 31.3965 2561.34 27.5582C2566.22 26.9726 2576.53 26.2839 2571.66 19.7843" stroke="black" stroke-width="5" stroke-linecap="round"/>
<path d="M1869.51 140.996C1869.51 137.712 1872.85 145.498 1876.07 147.433C1900.09 161.842 1937.29 149.838 1959.5 137.902C1982.92 125.318 1992.4 110.237 1969.03 91.7144C1954.66 80.3169 1935.76 77.0613 1917.91 76.7368C1896.59 76.3491 1874.67 78.6375 1853.67 82.307C1837.67 85.1032 1790.24 96.2415 1806.26 93.5712C1807.86 93.3043 1810.63 89.8279 1811.89 88.9293C1818.82 84.0051 1825.58 79.2264 1832.13 73.766C1859.6 50.8737 1890.19 27.0572 1924.1 14.8456C1948.34 6.11738 1988.32 -3.58391 2008.89 18.4353C2017.98 28.1649 2017.21 40.4954 2013.9 52.4754C2008.98 70.3265 2000.57 86.9001 1996.14 104.959C1986.96 142.408 1982.27 193.21 2010.13 224.419C2028.24 244.715 2060.77 243.46 2076.97 221.696C2096 196.135 2101.28 150.128 2080.31 124.269C2071.03 112.828 2058.9 103.791 2045.53 97.7798C2045.47 97.751 2033.77 93.4561 2033.77 92.9523C2033.77 90.4147 2038.72 94.0663 2041.2 94.6233C2048.27 96.2145 2055.51 96.8277 2062.74 97.1609C2098.1 98.7905 2133.4 101.613 2168.82 101.865C2172.75 101.892 2178 101.877 2182.06 102.112C2183.49 102.195 2187.46 102.124 2186.27 102.917C2185.76 103.258 2184.27 102.979 2183.67 102.979" stroke="black" stroke-opacity="0.3" stroke-width="5" stroke-linecap="round"/>
<path d="M2008.89 18.4351C2017.98 28.1647 2017.21 40.4952 2013.9 52.4752C2008.98 70.3263 2000.57 86.8998 1996.14 104.959C1986.96 142.407 1982.27 193.21 2010.13 224.419C2028.24 244.714 2060.77 243.46 2076.97 221.695C2096 196.135 2101.28 150.128 2080.31 124.269C2071.04 112.828 2058.9 103.79 2045.53 97.7796C2045.47 97.7508 2033.77 93.4559 2033.77 92.952C2033.77 90.4145 2038.72 94.0661 2041.2 94.6231C2048.27 96.2143 2055.51 96.8275 2062.74 97.1606C2098.1 98.7903 2133.4 101.613 2168.82 101.864C2172.75 101.892 2178 101.877 2182.06 102.112C2183.49 102.195 2187.46 102.124 2186.27 102.917C2185.76 103.258 2184.28 102.978 2183.67 102.978" stroke="black" stroke-width="5" stroke-linecap="round"/>
<path d="M2902.52 4.92059C2903.39 4.79801 2873.46 5.25254 2871.82 4.8961C2843.79 4.05749 2827.01 6.98341 2797.41 5.50944C2796.27 5.45271 2778.61 3.6603 2787.48 4.05736C2804.78 4.83124 2823.43 15.3721 2832.26 27.8632C2845.4 46.4328 2854.27 64.2397 2862.09 85.3704C2871.7 111.294 2880.29 138.012 2884.82 165.301C2887.17 179.454 2898.97 235.066 2873.56 238.697C2849.37 242.155 2839.1 200.56 2838.7 184.442C2837.84 149.892 2853.64 121.448 2881.74 101.541C2887.26 97.6271 2912.15 88.343 2916.73 102.037C2923.94 123.592 2916.5 138.51 2915.12 160.285C2913.59 184.321 2913.84 214.722 2932.15 233.417C2947.08 248.663 2968.29 234.507 2977.46 220.48C2985.91 207.564 2986.73 192.13 2985.24 177.248C2983.37 158.639 2979.64 138.347 2971.7 121.211C2968.82 114.997 2959.35 106.173 2958.63 99.4292C2958.36 96.9282 2968.68 99.8594 2969.42 100.089C2987.35 105.647 3005.14 107.706 3023.99 107.878C3025.76 107.894 3033.63 109.066 3028.01 109.066" stroke="black" stroke-opacity="0.3" stroke-width="5" stroke-linecap="round"/>
<path d="M2916.73 102.037C2923.94 123.593 2916.5 138.51 2915.12 160.285C2913.59 184.321 2913.84 214.722 2932.15 233.417C2947.08 248.664 2968.29 234.507 2977.46 220.48C2985.91 207.564 2986.73 192.131 2985.24 177.248C2983.37 158.639 2979.64 138.347 2971.7 121.211C2968.82 114.997 2959.35 106.173 2958.63 99.4293C2958.36 96.9282 2968.68 99.8595 2969.42 100.089C2987.35 105.647 3005.14 107.706 3023.99 107.878C3025.76 107.894 3033.63 109.066 3028.01 109.066" stroke="black" stroke-width="5" stroke-linecap="round"/>
</svg>
