<svg fill="none" height="65" viewBox="0 0 192 65" width="192" xmlns="http://www.w3.org/2000/svg"><path d="m14.3503 26.1424c6.7744 4.3859 14.2885 5.1552 22.1283 5.1008 18.3565 0 35.6176-10.9302 26.4178-22.32584-8.9443-11.07917-31.5601-4.71262-41.6012-.14169-15.74992 7.16963-25.96822 20.87903-10.9621 35.47733 20.6287 20.0681 56.7497 18.8634 81.0237 11.9393 16.3322-4.6586 33.4312-6.8046 46.9122-17.8371 6.214-5.0856 17.079-17.2349 11.779-26.5667-6.905-12.158877-37.265-11.7326833-41.057 3.2589-3.263 12.9013 0 23.3078 17.688 33.0883 39.781 21.9973 62.321 11.8936 62.321 11.8936" stroke="#000" stroke-linecap="round" stroke-width="5"/></svg>