<svg width="192" height="65" viewBox="0 0 192 65" fill="none" xmlns="http://www.w3.org/2000/svg">
<path d="M14.3503 26.1424C21.1247 30.5283 28.6388 31.2976 36.4786 31.2432C54.8351 31.2432 72.0962 20.313 62.8964 8.91736C53.9521 -2.16181 31.3363 4.20474 21.2952 8.77567C5.54528 15.9453 -4.67302 29.6547 10.3331 44.253C30.9618 64.3211 67.0828 63.1164 91.3568 56.1923C107.689 51.5337 124.788 49.3877 138.269 38.3552C144.483 33.2696 155.348 21.1203 150.048 11.7885C143.143 -0.370377 112.783 0.0558167 108.991 15.0474C105.728 27.9487 108.991 38.3552 126.679 48.1357C166.46 70.133 189 60.0293 189 60.0293" stroke="black" stroke-width="5" stroke-linecap="round"/>
</svg>
