<svg fill="none" height="153" viewBox="0 0 409 153" width="409" xmlns="http://www.w3.org/2000/svg"><path d="m103.234 139.358c.443 7.968 12.688 8.424 18.639 9.319 17.84 2.686 36.439.353 53.812-4.209 25.239-6.627 45.278-35.251 18.939-54.8053-19.477-14.4601-48.354-13.8401-71.323-13.6033-28.6397.2952-56.5698 3.6089-84.7017 8.643-11.2403 2.0114-43.46011 11.1981-33.89555 4.9603 20.84415-13.594 43.85595-24.203 66.81415-33.5949 42.2521-17.2848 86.3041-40.1175 131.2231-48.65969 20.485-3.89556 52.344-11.059 67.791 8.11689 5.126 6.3636 7.74 14.2933 10.222 21.9457 5.024 15.4917 15.374 39.2141 20.279 54.7473 5.44 17.226 8.147 23.039 4.071 41.518-6.375 28.899-55.402 14.133-36.3-12.852 30.231-42.7073 94.096-25.6457 137.461-9.877" stroke="#000" stroke-linecap="round" stroke-width="5"/></svg>