<svg width="409" height="153" viewBox="0 0 409 153" fill="none" xmlns="http://www.w3.org/2000/svg">
<path d="M103.234 139.358C103.677 147.326 115.922 147.782 121.873 148.677C139.713 151.363 158.312 149.03 175.685 144.468C200.924 137.841 220.963 109.217 194.624 89.6627C175.147 75.2026 146.27 75.8226 123.301 76.0594C94.6613 76.3546 66.7312 79.6683 38.5993 84.7024C27.359 86.7138 -4.86081 95.9005 4.70375 89.6627C25.5479 76.0687 48.5597 65.4597 71.5179 56.0678C113.77 38.783 157.822 15.9503 202.741 7.40811C223.226 3.51255 255.085 -3.65089 270.532 15.525C275.658 21.8886 278.272 29.8183 280.754 37.4707C285.778 52.9624 296.128 76.6848 301.033 92.218C306.473 109.444 309.18 115.257 305.104 133.736C298.729 162.635 249.702 147.869 268.804 120.884C299.035 78.1767 362.9 95.2383 406.265 111.007" stroke="black" stroke-width="5" stroke-linecap="round"/>
</svg>
