<svg fill="none" height="64" viewBox="0 0 233 64" width="233" xmlns="http://www.w3.org/2000/svg"><path d="m9.24811 30.7128c-1.48511 2.9702 26.90219-3.2692 28.86009-4.0585 12.8539-5.1814 19.3324-17.21358 1.9541-22.39659-14.6085-4.3569064-36.43682 7.82019-37.42796 24.05009-1.55062 25.3914 39.69586 30.2039 57.26926 32.2713 28.3337 3.3334 73.4404-2.4845 94.2464-26.096 16.679-18.9285-17.741-29.4613-30.664-29.4613-8.539 0-19.315 1.42781-24.4259 9.2442-5.9044 9.0303-.4306 20.1336 6.9899 26.38 16.483 13.8757 42.007 16.8191 62.605 18.1127 20.753 1.3033 40.67-.4394 61.102-2.9311" stroke="#000" stroke-linecap="round" stroke-width="5"/></svg>