<svg fill="none" height="241" viewBox="0 0 221 241" width="221" xmlns="http://www.w3.org/2000/svg"><path d="m142.953 6.78179c2.167-2.47707-6.07-1.37032-7.366-1.35282-20.797.28105-41.5421 1.35282-62.3795 1.35282-20.5942 0-41.1525.56051-61.6283-1.95407-3.84464-.47215-8.99537-2.41762-7.96657-1.50313 33.67317 29.93171 47.82797 59.11901 59.75567 100.75341 8.3948 29.303 16.2047 59.273 18.8643 89.737 1.1024 12.628 5.7602 37.407-10.2213 43.349-10.9393 4.067-15.6728-2.69-16.6847-13.378-2.7757-29.318 11.9937-57.679 24.4258-83.332 9.9396-20.51 22.7206-39.671 42.6886-51.5575 13.933-8.2935 34.846-16.3558 46.973-1.0522 9.366 11.8193 15.59 28.8747 17.286 43.7407 1.181 10.348-4.971 25.242-18.113 17.512-13.314-7.832-1.572-33.821 4.961-42.013 10.761-13.4945 27.568-23.7823 44.868-22.5466" stroke="#000" stroke-linecap="round" stroke-width="5"/></svg>