<svg width="265" height="155" viewBox="0 0 265 155" fill="none" xmlns="http://www.w3.org/2000/svg">
<path d="M60.478 132.652C57.8977 130.395 61.3173 134.694 61.6053 134.982C71.7273 145.104 85.5152 150.591 99.7096 151.517C123.422 153.063 172.465 128.503 171.259 98.5439C169.993 67.1191 122.015 69.8675 101.589 72.1639C69.3545 75.7879 37.1557 83.6685 5.61373 91.1785C-7.75799 94.3623 31.6944 82.4757 44.8454 78.4771C100.224 61.639 156.439 49.0107 212.294 34.0596C226.491 30.2593 249.07 27.1736 260.319 16.473C268.921 8.29029 247.32 5.53032 243.634 4.97404C230.347 2.96834 212.702 0.355724 200.269 7.15357C185.519 15.2185 205.91 22.4029 211.993 25.1911" stroke="black" stroke-width="5" stroke-linecap="round"/>
</svg>
