<svg fill="none" height="155" viewBox="0 0 265 155" width="265" xmlns="http://www.w3.org/2000/svg"><path d="m60.478 132.652c-2.5803-2.257.8393 2.042 1.1273 2.33 10.122 10.122 23.9099 15.609 38.1043 16.535 23.7124 1.546 72.7554-23.014 71.5494-52.9731-1.266-31.4248-49.244-28.6764-69.67-26.38-32.2345 3.624-64.4333 11.5046-95.97527 19.0146-13.37172 3.1838 26.08067-8.7028 39.23167-12.7014 55.3786-16.8381 111.5936-29.4664 167.4486-44.4175 14.197-3.8003 36.776-6.886 48.025-17.5866 8.602-8.18271-12.999-10.94268-16.685-11.49896-13.287-2.0057-30.932-4.618316-43.365 2.17953-14.75 8.06493 5.641 15.24933 11.724 18.03753" stroke="#000" stroke-linecap="round" stroke-width="5"/></svg>