<svg width="149" height="242" viewBox="0 0 149 242" fill="none" xmlns="http://www.w3.org/2000/svg">
<path d="M134.594 5.78179C134.143 9.39119 89.699 6.48742 86.4941 6.48742C60.0655 6.48742 34.0255 3.07615 7.73014 3.07615C7.06366 3.07615 3.24954 2.6428 2.92013 3.30162C1.26452 6.61284 25.1354 33.3014 26.8658 35.8381C46.0628 63.9792 62.0502 94.1846 73.9889 126.078C84.0772 153.028 92.6846 185.547 83.3835 214.011C79.3603 226.323 70.4455 239.238 56.1769 238.738C43.2325 238.283 36.3222 225.356 35.133 213.861C32.5753 189.136 43.2766 161.592 52.9451 139.456C60.2943 122.63 74.8195 105.311 92.5002 96.2617C120.007 82.1835 155.209 120.218 143.5 144.762C140.394 151.273 117.846 158.892 113 147.262C108.35 136.101 118 126.078 128.477 116.007" stroke="black" stroke-width="5" stroke-linecap="round"/>
</svg>
