<svg fill="none" height="243" viewBox="0 0 3090 243" width="3090" xmlns="http://www.w3.org/2000/svg"><g stroke="#000"><g stroke-dasharray="10 10"><path d="m0 150.5h3090"/><path d="m0 238.5h3090"/><path d="m0 90.5h3090"/><path d="m0 .5h3090"/></g><g stroke-linecap="round" stroke-width="5"><path d="m43.3503 114.142c6.7744 4.386 14.2885 5.156 22.1283 5.101 18.3565 0 35.6174-10.93 26.4178-22.3256-8.9443-11.0792-31.5601-4.7127-41.6012-.1417-15.7499 7.1693-25.9682 20.8793-10.9621 35.4773 20.6287 20.068 56.7497 18.863 81.0239 11.939 16.332-4.658 33.431-6.804 46.912-17.837 6.214-5.085 17.079-17.235 11.779-26.5665-6.905-12.1589-37.265-11.7327-41.057 3.2585-3.263 12.902 0 23.308 17.688 33.089 39.781 21.997 62.321 11.893 62.321 11.893" stroke-opacity=".3"/><path d="m43.3503 114.142c6.7744 4.386 14.2885 5.156 22.1283 5.101 18.3565 0 35.6174-10.93 26.4178-22.3256-8.9443-11.0792-31.5601-4.7127-41.6012-.1417-15.7499 7.1693-25.9682 20.8793-10.9621 35.4773 20.6287 20.068 56.7497 18.863 81.0239 11.939"/><path d="m559.281 140.102c.443 7.968 12.689 8.423 18.639 9.319 17.841 2.686 36.439.353 53.812-4.209 25.239-6.627 45.278-35.251 18.939-54.8056-19.477-14.4601-48.353-13.8402-71.323-13.6034-28.64.2953-56.57 3.6089-84.702 8.643-11.24 2.0115-43.46 11.1981-33.895 4.9604 20.844-13.594 43.856-24.203 66.814-33.595 42.252-17.2848 86.305-40.1174 131.223-48.65964 20.485-3.89555 52.344-11.059 67.791 8.11694 5.127 6.3636 7.74 14.2933 10.222 21.9457 5.024 15.4917 15.374 39.214 20.279 54.7473 5.44 17.2253 8.147 23.0393 4.071 41.5173-6.374 28.9-55.402 14.134-36.3-12.851 30.231-42.7077 94.097-25.6461 137.461-9.877" stroke-opacity=".3"/><path d="m726.579 16.2686c5.126 6.3636 7.74 14.2933 10.222 21.9456 5.024 15.4918 15.374 39.2141 20.279 54.7474 5.44 17.2254 8.147 23.0394 4.071 41.5174-6.375 28.899-55.402 14.134-36.3-12.852 30.231-42.7068 94.096-25.6452 137.461-9.876"/><path d="m954.656 120.713c-1.485 2.97 26.903-3.269 28.86-4.059 12.854-5.181 19.334-17.2133 1.954-22.3963-14.608-4.3569-36.436 7.8203-37.427 24.0503-1.551 25.391 39.695 30.204 57.267 32.271 28.34 3.334 73.44-2.484 94.25-26.096 16.68-18.928-17.74-29.4612-30.67-29.4612-8.54 0-19.31 1.4278-24.42 9.2442-5.91 9.03-.43 20.134 6.99 26.38 16.48 13.876 42.01 16.819 62.6 18.113 20.76 1.303 40.67-.44 61.11-2.931" stroke-opacity=".3"/><path d="m1005.31 150.579c28.34 3.333 73.44-2.485 94.25-26.096 16.68-18.928-17.74-29.4613-30.67-29.4613-8.54 0-19.31 1.4278-24.42 9.2443-5.91 9.03-.43 20.134 6.99 26.38 16.48 13.876 42.01 16.819 62.6 18.113 20.76 1.303 40.67-.44 61.11-2.931"/><path d="m1571.47 8.87652c2.17-2.47708-6.07-1.37033-7.36-1.35282-20.8.28105-41.54 1.35282-62.38 1.35282-20.6 0-41.15.5605-61.63-1.95407-3.84-.47215-9-2.41762-7.97-1.50313 33.68 29.93178 47.83 59.11908 59.76 100.75368 8.39 29.303 16.2 59.272 18.86 89.737 1.11 12.627 5.76 37.406-10.22 43.348-10.94 4.067-15.67-2.689-16.68-13.378-2.78-29.317 11.99-57.678 24.42-83.331 9.94-20.511 22.72-39.672 42.69-51.5578 13.93-8.2935 34.85-16.3558 46.97-1.0522 9.37 11.819 15.59 28.874 17.29 43.741 1.18 10.348-4.97 25.242-18.11 17.512-13.32-7.833-1.57-33.821 4.96-42.013 10.76-13.4947 27.57-23.7826 44.87-22.5469" stroke-opacity=".3"/><path d="m1550.96 90.9912c13.93-8.2935 34.85-16.3558 46.97-1.0522 9.37 11.819 15.59 28.874 17.29 43.741 1.18 10.348-4.97 25.242-18.11 17.512-13.32-7.833-1.57-33.821 4.96-42.013 10.76-13.4948 27.57-23.7826 44.87-22.5469"/><path d="m1860.59 133.652c-2.58-2.257.84 2.042 1.13 2.33 10.12 10.122 23.91 15.609 38.1 16.535 23.72 1.546 72.76-23.014 71.55-52.9731-1.26-31.4248-49.24-28.6764-69.67-26.38-32.23 3.624-64.43 11.5046-95.97 19.0146-13.37 3.1838 26.08-8.7028 39.23-12.7014 55.38-16.8381 111.59-29.4664 167.45-44.4175 14.2-3.8003 36.77-6.886 48.02-17.5866 8.61-8.18271-13-10.94268-16.68-11.49896-13.29-2.0057-30.93-4.61832-43.37 2.17953-14.75 8.06493 5.64 15.24933 11.73 18.03753" stroke-opacity=".3"/><path d="m2012.41 35.0596c14.19-3.8003 36.77-6.886 48.02-17.5866 8.6-8.18271-13-10.94268-16.68-11.49896-13.29-2.0057-30.93-4.61832-43.37 2.17953-14.75 8.06493 5.64 15.24933 11.73 18.03753"/><path d="m2301.12 135.769c-10.49 0 20.78 3.996 31.27 3.608 12.87-.477 57.42-10.897 51.4-31.341-4.93-16.7855-32.74-14.6861-42.99-5.035-7.59 7.154-3.88 18.565 1.58 25.779 8.35 11.028 22.89 17.239 36.15 19.615 28.33 5.075 55.28-10.302 75.39-28.86 18.57-17.147 32.82-30.3671 57.53-14.505 13.59 8.725 17.1 30.54-3.37 36.491-17.8 5.172-27.67 1.728-37.86-14.28" stroke-opacity=".3"/><path d="m2453.92 119.535c18.57-17.147 32.82-30.3672 57.53-14.505 13.59 8.724 17.1 30.54-3.37 36.491-17.8 5.172-27.67 1.728-37.86-14.28"/><path d="m2916.76 6.78179c-.45 3.60941-44.9.70563-48.1.70563-26.43 0-52.47-3.41127-78.77-3.41127-.66 0-4.48-.43335-4.81.22547-1.65 3.31122 22.22 29.99978 23.95 32.53648 19.19 28.1411 35.18 58.3465 47.12 90.2399 10.09 26.95 18.7 59.469 9.4 87.933-4.03 12.312-12.94 25.227-27.21 24.727-12.95-.455-19.86-13.382-21.04-24.877-2.56-24.725 8.14-52.269 17.81-74.405 7.35-16.826 21.87-34.145 39.55-43.1943 27.51-14.0782 62.71 23.9563 51 48.5003-3.1 6.511-25.65 14.13-30.5 2.5-4.65-11.161 5-21.184 15.48-31.255" stroke-opacity=".3"/><path d="m2874.66 97.2617c27.51-14.0781 62.71 23.9563 51 48.5003-3.1 6.511-25.65 14.13-30.5 2.5-4.65-11.161 5-21.184 15.48-31.255"/></g></g></svg>