<svg width="256" height="156" viewBox="0 0 256 156" fill="none" xmlns="http://www.w3.org/2000/svg">
<path d="M4.35211 102.293C4.35211 102.131 4.43141 99.8163 3.78021 100.321C0.812475 102.623 7.20383 116.412 8.10123 118.496C21.5439 149.707 70.1411 157.831 97.6351 139.566C114.761 128.189 117.125 109.107 116.635 90.4024C116.118 70.6702 112.715 39.0727 111.361 19.3815C110.997 14.0988 110.725 8.84043 110.725 3.5481C110.725 -0.359168 110.981 11.3638 111.361 15.2537C113.963 41.9224 116.268 82.2283 121.01 108.084C132.516 145.295 179.943 161.26 212.26 149.295C226.102 144.17 239.504 136.402 246.955 123.543C252.569 113.854 257.087 98.9566 247.082 90.2741C236.749 81.3068 221.432 86.5444 215.945 98.0368C209.306 111.944 225.623 123.394 233.992 131.798" stroke="black" stroke-width="5" stroke-linecap="round"/>
</svg>
