<svg fill="none" height="156" viewBox="0 0 256 156" width="256" xmlns="http://www.w3.org/2000/svg"><path d="m4.35211 102.293c0-.162.0793-2.4767-.5719-1.972-2.967735 2.302 3.42362 16.091 4.32102 18.175 13.44267 31.211 62.03987 39.335 89.53387 21.07 17.1259-11.377 19.4899-30.459 18.9999-49.1636-.517-19.7322-3.92-51.3297-5.274-71.0209-.364-5.2827-.636-10.54107-.636-15.8334 0-3.907268.256 7.8157.636 11.7056 2.602 26.6687 4.907 66.9746 9.649 92.8303 11.506 37.211 58.933 53.176 91.25 41.211 13.842-5.125 27.244-12.893 34.695-25.752 5.614-9.689 10.132-24.5864.127-33.2689-10.333-8.9673-25.65-3.7297-31.137 7.7627-6.639 13.9072 9.678 25.3572 18.047 33.7612" stroke="#000" stroke-linecap="round" stroke-width="5"/></svg>