<svg width="349" height="240" viewBox="0 0 349 240" fill="none" xmlns="http://www.w3.org/2000/svg">
<path d="M92.64 130.751C85.939 140.142 96.0808 144.878 104.162 147.851C130.267 157.458 158.615 149.691 180.708 134.065C196.736 122.729 209.701 108.472 196.468 90.1397C177.674 64.1046 139.11 73.2367 111.909 78.4978C80.239 84.6234 48.9006 94.9725 18.8086 106.534C13.7917 108.461 -0.755869 115.367 3.90985 112.698C10.1236 109.144 16.3618 104.098 22.0532 99.7734C52.7361 76.462 82.8118 53.2913 115.816 33.1629C137.164 20.1433 169.179 -1.80494 196.07 3.60236C222.708 8.9588 234.173 40.3362 241.627 62.8559C251.479 92.6199 257.662 123.559 261.889 154.586C265.748 182.907 270.437 202.385 273.676 230.755C275.577 247.406 277.549 224.655 278.046 219.952C280.84 193.509 285.065 176.84 295.527 152.2C303.135 134.282 315.939 110.642 334.529 101.696C336.526 100.734 349.012 97.6142 345.322 103.154" stroke="black" stroke-width="5" stroke-linecap="round"/>
</svg>
