<svg fill="none" height="240" viewBox="0 0 349 240" width="349" xmlns="http://www.w3.org/2000/svg"><path d="m92.64 130.751c-6.701 9.391 3.4408 14.127 11.522 17.1 26.105 9.607 54.453 1.84 76.546-13.786 16.028-11.336 28.993-25.593 15.76-43.9253-18.794-26.0351-57.358-16.903-84.559-11.6419-31.67 6.1256-63.0084 16.4747-93.1004 28.0362-5.0169 1.927-19.564469 8.833-14.89875 6.164 6.21375-3.554 12.45195-8.6 18.14335-12.9246 30.6829-23.3114 60.7586-46.4821 93.7628-66.6105 21.348-13.0196 53.363-34.96784 80.254-29.56054 26.638 5.35644 38.103 36.73384 45.557 59.25354 9.852 29.764 16.035 60.7031 20.262 91.7301 3.859 28.321 8.548 47.799 11.787 76.169 1.901 16.651 3.873-6.1 4.37-10.803 2.794-26.443 7.019-43.112 17.481-67.752 7.608-17.918 20.412-41.558 39.002-50.504 1.997-.962 14.483-4.0818 10.793 1.458" stroke="#000" stroke-linecap="round" stroke-width="5"/></svg>