<svg fill="none" height="155" viewBox="0 0 357 155" width="357" xmlns="http://www.w3.org/2000/svg"><path d="m14.3127 122.329c8.5732.495 16.3413 5.823 25.3322 6.389 9.0951.572 35.1382-2.824 30.4709-18.79-5.6409-19.296-34.046-18.3878-47.9863-12.2511-17.28697 7.6101-28.88254 32.9391-7.672 45.6551 22.5181 13.5 57.5859 8.767 81.4971 2.33 28.6724-7.72 63.5864-24.812 70.6404-57.7228.556-22.5691-.636-48.5845-1.882-72.7544 0-3.4066-.579-6.16138-.579-9.31981 0-11.49965 2.004 15.33251 2.004 15.33251 1.324 23.3603.307 40.8988 3.352 61.1048 2.892 19.1877 9.596 35.0237 24.029 47.8017 11.481 10.162 24.616 12.781 39.374 13.453 21.983 1.003 44.756 1.572 66.587-.936 17.884-2.055 35.865-1.242 53.704-3.643 3.243-.436-4.148 2.379-5.356 3.006" stroke="#000" stroke-linecap="round" stroke-width="5"/></svg>