<svg width="357" height="155" viewBox="0 0 357 155" fill="none" xmlns="http://www.w3.org/2000/svg">
<path d="M14.3127 122.329C22.8859 122.824 30.654 128.152 39.6449 128.718C48.74 129.29 74.7831 125.894 70.1158 109.928C64.4749 90.632 36.0698 91.5402 22.1295 97.6769C4.84253 105.287 -6.75304 130.616 14.4575 143.332C36.9756 156.832 72.0434 152.099 95.9546 145.662C124.627 137.942 159.541 120.85 166.595 87.9392C167.151 65.3701 165.959 39.3547 164.713 15.1848C164.713 11.7782 164.134 9.02342 164.134 5.86499C164.134 -5.63466 166.138 21.1975 166.138 21.1975C167.462 44.5578 166.445 62.0963 169.49 82.3023C172.382 101.49 179.086 117.326 193.519 130.104C205 140.266 218.135 142.885 232.893 143.557C254.876 144.56 277.649 145.129 299.48 142.621C317.364 140.566 335.345 141.379 353.184 138.978C356.427 138.542 349.036 141.357 347.828 141.984" stroke="black" stroke-width="5" stroke-linecap="round"/>
</svg>
