<svg width="239" height="241" viewBox="0 0 239 241" fill="none" xmlns="http://www.w3.org/2000/svg">
<path d="M144.976 3C167.814 3 99.3079 3.91188 76.4785 4.54556C52.6683 5.20647 26.5938 5.55931 3.13917 10.3063C2.06252 10.5242 7.55024 10.7081 8.69302 11.1493C20.0725 15.5427 28.8899 24.7306 36.8895 33.4898C57.7023 56.2787 71.9417 82.092 83.314 110.627C98.8398 149.585 110.521 155.373 106.953 197.613C105.287 217.345 93.1428 248.809 69.1445 228.665C48.4087 211.259 58.5209 183.234 63.4645 160.649C72.1227 137.64 84.1196 113.877 112.863 92.994C119.955 87.8419 130.693 81.9864 139.921 84.7041C148.18 87.1366 150.301 97.8174 151.883 104.867C159.264 137.772 158.702 173.013 160.854 206.523C161.485 216.339 161.137 245.84 160.427 236.029C158.672 211.781 163.705 184.381 172.033 161.701C180.932 137.469 198.787 121.943 223.015 112.876C224.443 112.341 240.642 105.88 234.692 111.751" stroke="black" stroke-width="5" stroke-linecap="round"/>
</svg>
