<svg fill="none" height="241" viewBox="0 0 239 241" width="239" xmlns="http://www.w3.org/2000/svg"><path d="m144.976 3c22.838 0-45.6681.91188-68.4975 1.54556-23.8102.66091-49.8847 1.01375-73.33933 5.76074-1.07665.2179 4.41107.4018 5.55385.843 11.37948 4.3934 20.19688 13.5813 28.19648 22.3405 20.8128 22.7889 35.0522 48.6022 46.4245 77.1372 15.5258 38.958 27.207 44.746 23.639 86.986-1.666 19.732-13.8102 51.196-37.8085 31.052-20.7358-17.406-10.6236-45.431-5.68-68.016 8.6582-23.009 20.6551-46.772 49.3985-67.655 7.092-5.1521 17.83-11.0076 27.058-8.2899 8.259 2.4325 10.38 13.1133 11.962 20.1629 7.381 32.905 6.819 68.146 8.971 101.656.631 9.816.283 39.317-.427 29.506-1.755-24.248 3.278-51.648 11.606-74.328 8.899-24.232 26.754-39.758 50.982-48.825 1.428-.535 17.627-6.996 11.677-1.125" stroke="#000" stroke-linecap="round" stroke-width="5"/></svg>