<svg fill="none" height="155" viewBox="0 0 229 155" width="229" xmlns="http://www.w3.org/2000/svg"><path d="m51.8271 135.217c-.7611 0-2.3435-.314-1.2161.971 6.568 7.485 16.1409 12.067 25.0516 14.275 28.7494 7.122 70.8014-10.7 72.4184-49.409 1.705-40.8025-51.4763-35.9383-74.2425-35.618-18.8008.2645-37.4823 2.1338-56.1837 4.2271-1.9622.2196-14.77643 1.2566-14.65393 1.178 6.48332-4.1561 14.71893-6.2701 21.70733-8.8006 25.2782-9.1532 50.9913-15.0704 76.9788-20.9275 27.476-6.1924 54.975-12.2475 82.451-18.4328 12.847-2.892 25.642-5.6816 37.699-11.6418 1.307-.6459 6.966-2.95512 2.433-3.04906-9.157-.18974-18.326.07789-27.484 0-11.791-.10028-24.765.32083-36.24-3.46482-2.721-.89754 5.573-1.20333 8.391-1.52452" stroke="#000" stroke-linecap="round" stroke-width="5"/></svg>