<svg fill="none" height="241" viewBox="0 0 192 241" width="192" xmlns="http://www.w3.org/2000/svg"><path d="m131.668 6.86652c1.817 0-3.637-.01437-5.45-.14183-23.071-1.62205-45.8379 2.42464-68.8698.32688-17.8469-1.62551-35.7807-2.66483-53.65158-4.0421-2.832331-.21829 3.83221 3.40466 4.67151 4.0421 39.04057 29.65123 55.88137 76.25113 62.00377 122.35443 3.1009 23.351 4.788 74.384-7.0781 95.949-7.2424 13.163-17.9235 12.263-24.0654-1.347-22.801-50.526 24.4336-122.151 68.2326-139.7032 10.614-4.2535 27.747-11.8716 32.276 3.1911 6.549 21.7861 4.671 47.5801 4.671 69.9921 0 23.917.044 48.491-5.025 71.978-.73 3.384-5.912 13.965-3.044 5.035 9.549-29.724 23.648-61.202 52.661-75.736" stroke="#000" stroke-linecap="round" stroke-width="5"/></svg>