<svg width="192" height="241" viewBox="0 0 192 241" fill="none" xmlns="http://www.w3.org/2000/svg">
<path d="M131.668 6.86652C133.485 6.86652 128.031 6.85215 126.218 6.72469C103.147 5.10264 80.3801 9.14933 57.3482 7.05157C39.5013 5.42606 21.5675 4.38674 3.69662 3.00947C0.864289 2.79118 7.52883 6.41413 8.36813 7.05157C47.4087 36.7028 64.2495 83.3027 70.3719 129.406C73.4728 152.757 75.1599 203.79 63.2938 225.355C56.0514 238.518 45.3703 237.618 39.2284 224.008C16.4274 173.482 63.662 101.857 107.461 84.3048C118.075 80.0513 135.208 72.4332 139.737 87.4959C146.286 109.282 144.408 135.076 144.408 157.488C144.408 181.405 144.452 205.979 139.383 229.466C138.653 232.85 133.471 243.431 136.339 234.501C145.888 204.777 159.987 173.299 189 158.765" stroke="black" stroke-width="5" stroke-linecap="round"/>
</svg>
