<svg fill="none" height="249" viewBox="0 0 3090 249" width="3090" xmlns="http://www.w3.org/2000/svg"><g stroke="#000"><g stroke-dasharray="10 10"><path d="m0 151.5h3090"/><path d="m0 239.5h3090"/><path d="m0 91.5h3090"/><path d="m0 1.5h3090"/></g><g stroke-linecap="round" stroke-width="5"><path d="m13.3521 104.293c0-.162.0793-2.477-.5719-1.972-2.96772 2.302 3.4236 16.091 4.321 18.175 13.4427 31.211 62.0399 39.335 89.5338 21.07 17.126-11.377 19.49-30.459 19-49.1636-.517-19.7322-3.92-51.3297-5.274-71.0209-.364-5.2827-.636-10.5411-.636-15.8334 0-3.90727.256 7.8157.636 11.7056 2.602 26.6687 4.907 66.9746 9.649 92.8303 11.506 37.211 58.933 53.176 91.25 41.211 13.842-5.125 27.244-12.893 34.695-25.752 5.614-9.689 10.132-24.586.127-33.2689-10.333-8.9673-25.65-3.7297-31.137 7.7629-6.639 13.907 9.678 25.357 18.047 33.761" stroke-opacity=".3"/><path d="m13.3521 104.293c0-.162.0793-2.477-.5719-1.972-2.96772 2.302 3.4236 16.091 4.321 18.175 13.4427 31.211 62.0399 39.335 89.5338 21.07 17.126-11.377 19.49-30.459 19-49.1636-.517-19.7322-3.92-51.3297-5.274-71.0209-.364-5.2827-.636-10.5411-.636-15.8334 0-3.90727.256 7.8157.636 11.7056"/><path d="m548.64 130.495c-6.701 9.39 3.441 14.126 11.522 17.1 26.105 9.607 54.453 1.84 76.546-13.786 16.028-11.336 28.993-25.594 15.76-43.9256-18.794-26.0351-57.358-16.9031-84.559-11.6419-31.67 6.1256-63.008 16.4747-93.1 28.0365-5.017 1.927-19.565 8.832-14.899 6.164 6.214-3.555 12.452-8.601 18.143-12.9249 30.683-23.3115 60.759-46.4822 93.763-66.6106 21.348-13.0195 53.363-34.96779 80.254-29.56048 26.638 5.35643 38.103 36.73378 45.557 59.25358 9.852 29.7639 16.035 60.7024 20.262 91.7304 3.859 28.321 8.548 47.799 11.787 76.169 1.901 16.65 3.873-6.1 4.37-10.804 2.794-26.442 7.019-43.111 17.481-67.751 7.608-17.918 20.412-41.559 39.002-50.505 1.997-.961 14.483-4.0812 10.793 1.458" stroke-opacity=".3"/><path d="m697.627 62.5996c9.852 29.764 16.035 60.7024 20.262 91.7304 3.859 28.321 8.548 47.799 11.787 76.169 1.901 16.65 3.873-6.1 4.37-10.804 2.794-26.442 7.019-43.111 17.481-67.751 7.608-17.918 20.412-41.559 39.002-50.505 1.997-.961 14.483-4.0811 10.793 1.458"/><path d="m959.313 122.329c8.573.495 16.341 5.823 25.332 6.389 9.095.572 35.135-2.824 30.475-18.79-5.65-19.296-34.05-18.3878-47.991-12.2511-17.286 7.6101-28.882 32.9391-7.672 45.6551 22.519 13.5 57.583 8.767 81.493 2.33 28.68-7.72 63.59-24.812 70.65-57.7228.55-22.5691-.64-48.5845-1.89-72.7544 0-3.4066-.58-6.16138-.58-9.31981 0-11.49965 2.01 15.33251 2.01 15.33251 1.32 23.3603.3 40.8988 3.35 61.1048 2.89 19.1877 9.6 35.0237 24.03 47.8017 11.48 10.162 24.62 12.781 39.37 13.453 21.99 1.003 44.76 1.572 66.59-.936 17.88-2.055 35.86-1.242 53.7-3.643 3.25-.436-4.14 2.379-5.35 3.006" stroke-opacity=".3"/><path d="m1109.71 15.1848c0-3.4066-.58-6.16138-.58-9.31981 0-11.49965 2.01 15.33251 2.01 15.33251 1.32 23.3603.3 40.8988 3.35 61.1048 2.89 19.1877 9.6 35.0237 24.03 47.8017 11.48 10.162 24.62 12.781 39.37 13.453 21.99 1.003 44.76 1.572 66.59-.936 17.88-2.055 35.86-1.242 53.7-3.643 3.25-.436-4.14 2.379-5.35 3.006"/><path d="m1573.98 11.0947c22.83 0-45.67.9119-68.5 1.5456-23.81.6609-49.89 1.0137-73.34 5.7607-1.08.2179 4.41.4019 5.55.8431 11.38 4.3934 20.2 13.5812 28.2 22.3404 20.81 22.7889 35.05 48.6022 46.42 77.1375 15.53 38.958 27.21 44.746 23.64 86.986-1.66 19.732-13.81 51.196-37.81 31.052-20.73-17.406-10.62-45.431-5.68-68.017 8.66-23.008 20.66-46.771 49.4-67.654 7.09-5.1524 17.83-11.0079 27.06-8.2902 8.26 2.4325 10.38 13.1132 11.96 20.1622 7.38 32.906 6.82 68.147 8.97 101.656.63 9.817.29 39.318-.42 29.507-1.76-24.249 3.27-51.649 11.6-74.328 8.9-24.233 26.76-39.759 50.98-48.826 1.43-.534 17.63-6.995 11.68-1.124" stroke-opacity=".3"/><path d="m1568.92 92.7988c8.26 2.4325 10.38 13.1132 11.96 20.1622 7.38 32.906 6.82 68.147 8.97 101.656.63 9.817.29 39.318-.42 29.507-1.76-24.249 3.27-51.649 11.6-74.328 8.9-24.233 26.76-39.759 50.98-48.826 1.43-.534 17.63-6.995 11.68-1.124"/><path d="m2305.61 134.585c-16.47.785 2.27 8.34 8.45 10.401 26.45 8.816 56.15 8.666 81.4-3.9 16.78-8.352 32.79-29.583 11.27-43.1913-15.96-10.094-45.53-1.8921-40.59 21.1623 5.97 27.891 45.36 31.553 68.03 30.84 30.76-.967 61.55-11.958 67.9-45.43 6.53-34.4927-3.79-59.6705-6.36-93.9213-1.01-13.44131 4.17-7.9584 4.91 1.7335" stroke-opacity=".3"/><path d="m2434.17 149.897c30.76-.967 61.55-11.958 67.9-45.43 6.53-34.4927-3.79-59.6705-6.36-93.9213-1.01-13.44131 4.17-7.9584 4.91 1.7335"/><path d="m1851.83 135.217c-.76 0-2.35-.314-1.22.971 6.57 7.485 16.14 12.067 25.05 14.275 28.75 7.122 70.8-10.7 72.42-49.409 1.71-40.8025-51.48-35.9383-74.24-35.618-18.8.2645-37.48 2.1338-56.19 4.2271-1.96.2196-14.77 1.2566-14.65 1.178 6.48-4.1561 14.72-6.2701 21.71-8.8006 25.28-9.1532 50.99-15.0704 76.98-20.9275 27.47-6.1924 54.97-12.2475 82.45-18.4328 12.84-2.892 25.64-5.6816 37.7-11.6418 1.3-.6459 6.96-2.95512 2.43-3.04906-9.16-.18974-18.33.07789-27.48 0-11.79-.10028-24.77.32083-36.24-3.46482-2.72-.89754 5.57-1.20333 8.39-1.52452" stroke-opacity=".3"/><path d="m2021.84 11.0384c1.3-.6459 6.96-2.95512 2.43-3.04906-9.16-.18974-18.33.07789-27.48 0-11.79-.10028-24.77.32083-36.24-3.46482-2.72-.89754 5.57-1.20333 8.39-1.52452"/><path d="m2913.67 6.86652c1.82 0-3.64-.01437-5.45-.14183-23.07-1.62205-45.84 2.42464-68.87.32688-17.85-1.62551-35.78-2.66483-53.65-4.0421-2.84-.21829 3.83 3.40466 4.67 4.0421 39.04 29.65123 55.88 76.25113 62 122.35443 3.1 23.351 4.79 74.384-7.08 95.949-7.24 13.163-17.92 12.263-24.06-1.347-22.8-50.526 24.43-122.151 68.23-139.7032 10.61-4.2535 27.75-11.8716 32.28 3.1911 6.55 21.7861 4.67 47.5801 4.67 69.9921 0 23.917.04 48.491-5.03 71.978-.73 3.384-5.91 13.965-3.04 5.035 9.55-29.724 23.65-61.202 52.66-75.736" stroke-opacity=".3"/><path d="m2889.46 84.3049c10.61-4.2535 27.75-11.8716 32.28 3.1911 6.55 21.786 4.67 47.58 4.67 69.992 0 23.917.04 48.491-5.03 71.978-.73 3.384-5.91 13.965-3.04 5.035 9.55-29.724 23.65-61.202 52.66-75.736"/></g></g></svg>