<svg width="3090" height="249" viewBox="0 0 3090 249" fill="none" xmlns="http://www.w3.org/2000/svg">
<line y1="151.5" x2="3090" y2="151.5" stroke="black" stroke-dasharray="10 10"/>
<line y1="239.5" x2="3090" y2="239.5" stroke="black" stroke-dasharray="10 10"/>
<line y1="91.5" x2="3090" y2="91.5" stroke="black" stroke-dasharray="10 10"/>
<line y1="1.5" x2="3090" y2="1.5" stroke="black" stroke-dasharray="10 10"/>
<path d="M13.3521 104.293C13.3521 104.131 13.4314 101.816 12.7802 102.321C9.81248 104.623 16.2038 118.412 17.1012 120.496C30.5439 151.707 79.1411 159.831 106.635 141.566C123.761 130.189 126.125 111.107 125.635 92.4024C125.118 72.6702 121.715 41.0727 120.361 21.3815C119.997 16.0988 119.725 10.8404 119.725 5.5481C119.725 1.64083 119.981 13.3638 120.361 17.2537C122.963 43.9224 125.268 84.2283 130.01 110.084C141.516 147.295 188.943 163.26 221.26 151.295C235.102 146.17 248.504 138.402 255.955 125.543C261.569 115.854 266.087 100.957 256.082 92.2741C245.749 83.3068 230.432 88.5444 224.945 100.037C218.306 113.944 234.623 125.394 242.992 133.798" stroke="black" stroke-opacity="0.3" stroke-width="5" stroke-linecap="round"/>
<path d="M13.3521 104.293C13.3521 104.131 13.4314 101.816 12.7802 102.321C9.81248 104.623 16.2038 118.412 17.1012 120.496C30.5439 151.707 79.1411 159.831 106.635 141.566C123.761 130.189 126.125 111.107 125.635 92.4024C125.118 72.6702 121.715 41.0727 120.361 21.3815C119.997 16.0988 119.725 10.8404 119.725 5.5481C119.725 1.64083 119.981 13.3638 120.361 17.2537" stroke="black" stroke-width="5" stroke-linecap="round"/>
<path d="M548.64 130.495C541.939 139.885 552.081 144.621 560.162 147.595C586.267 157.202 614.615 149.435 636.708 133.809C652.736 122.473 665.701 108.215 652.468 89.8834C633.674 63.8483 595.11 72.9803 567.909 78.2415C536.239 84.3671 504.901 94.7162 474.809 106.278C469.792 108.205 455.244 115.11 459.91 112.442C466.124 108.887 472.362 103.841 478.053 99.5171C508.736 76.2056 538.812 53.0349 571.816 32.9065C593.164 19.887 625.179 -2.06129 652.07 3.34602C678.708 8.70245 690.173 40.0798 697.627 62.5996C707.479 92.3635 713.662 123.302 717.889 154.33C721.748 182.651 726.437 202.129 729.676 230.499C731.577 247.149 733.549 224.399 734.046 219.695C736.84 193.253 741.065 176.584 751.527 151.944C759.135 134.026 771.939 110.385 790.529 101.439C792.526 100.478 805.012 97.3578 801.322 102.897" stroke="black" stroke-opacity="0.3" stroke-width="5" stroke-linecap="round"/>
<path d="M697.627 62.5996C707.479 92.3636 713.662 123.302 717.889 154.33C721.748 182.651 726.437 202.129 729.676 230.499C731.577 247.149 733.549 224.399 734.046 219.695C736.84 193.253 741.065 176.584 751.527 151.944C759.135 134.026 771.939 110.385 790.529 101.439C792.526 100.478 805.012 97.3579 801.322 102.897" stroke="black" stroke-width="5" stroke-linecap="round"/>
<path d="M959.313 122.329C967.886 122.824 975.654 128.152 984.645 128.718C993.74 129.29 1019.78 125.894 1015.12 109.928C1009.47 90.632 981.07 91.5402 967.129 97.6769C949.843 105.287 938.247 130.616 959.457 143.332C981.976 156.832 1017.04 152.099 1040.95 145.662C1069.63 137.942 1104.54 120.85 1111.6 87.9392C1112.15 65.3701 1110.96 39.3547 1109.71 15.1848C1109.71 11.7782 1109.13 9.02342 1109.13 5.86499C1109.13 -5.63466 1111.14 21.1975 1111.14 21.1975C1112.46 44.5578 1111.44 62.0963 1114.49 82.3023C1117.38 101.49 1124.09 117.326 1138.52 130.104C1150 140.266 1163.14 142.885 1177.89 143.557C1199.88 144.56 1222.65 145.129 1244.48 142.621C1262.36 140.566 1280.34 141.379 1298.18 138.978C1301.43 138.542 1294.04 141.357 1292.83 141.984" stroke="black" stroke-opacity="0.3" stroke-width="5" stroke-linecap="round"/>
<path d="M1109.71 15.1848C1109.71 11.7782 1109.13 9.02342 1109.13 5.86499C1109.13 -5.63466 1111.14 21.1975 1111.14 21.1975C1112.46 44.5578 1111.44 62.0963 1114.49 82.3023C1117.38 101.49 1124.09 117.326 1138.52 130.104C1150 140.266 1163.14 142.885 1177.89 143.557C1199.88 144.56 1222.65 145.129 1244.48 142.621C1262.36 140.566 1280.34 141.379 1298.18 138.978C1301.43 138.542 1294.04 141.357 1292.83 141.984" stroke="black" stroke-width="5" stroke-linecap="round"/>
<path d="M1573.98 11.0947C1596.81 11.0947 1528.31 12.0066 1505.48 12.6403C1481.67 13.3012 1455.59 13.654 1432.14 18.401C1431.06 18.6189 1436.55 18.8029 1437.69 19.2441C1449.07 23.6375 1457.89 32.8253 1465.89 41.5845C1486.7 64.3734 1500.94 90.1867 1512.31 118.722C1527.84 157.68 1539.52 163.468 1535.95 205.708C1534.29 225.44 1522.14 256.904 1498.14 236.76C1477.41 219.354 1487.52 191.329 1492.46 168.743C1501.12 145.735 1513.12 121.972 1541.86 101.089C1548.95 95.9366 1559.69 90.0811 1568.92 92.7988C1577.18 95.2313 1579.3 105.912 1580.88 112.961C1588.26 145.867 1587.7 181.108 1589.85 214.617C1590.48 224.434 1590.14 253.935 1589.43 244.124C1587.67 219.875 1592.7 192.475 1601.03 169.796C1609.93 145.563 1627.79 130.037 1652.01 120.97C1653.44 120.436 1669.64 113.975 1663.69 119.846" stroke="black" stroke-opacity="0.3" stroke-width="5" stroke-linecap="round"/>
<path d="M1568.92 92.7988C1577.18 95.2313 1579.3 105.912 1580.88 112.961C1588.26 145.867 1587.7 181.108 1589.85 214.617C1590.48 224.434 1590.14 253.935 1589.43 244.124C1587.67 219.875 1592.7 192.475 1601.03 169.796C1609.93 145.563 1627.79 130.037 1652.01 120.97C1653.44 120.436 1669.64 113.975 1663.69 119.846" stroke="black" stroke-width="5" stroke-linecap="round"/>
<path d="M2305.61 134.585C2289.14 135.37 2307.88 142.925 2314.06 144.986C2340.51 153.802 2370.21 153.652 2395.46 141.086C2412.24 132.734 2428.25 111.503 2406.73 97.8947C2390.77 87.8007 2361.2 96.0026 2366.14 119.057C2372.11 146.948 2411.5 150.61 2434.17 149.897C2464.93 148.93 2495.72 137.939 2502.07 104.467C2508.6 69.9743 2498.28 44.7965 2495.71 10.5457C2494.7 -2.89561 2499.88 2.5873 2500.62 12.2792" stroke="black" stroke-opacity="0.3" stroke-width="5" stroke-linecap="round"/>
<path d="M2434.17 149.897C2464.93 148.93 2495.72 137.939 2502.07 104.467C2508.6 69.9743 2498.28 44.7965 2495.71 10.5457C2494.7 -2.89561 2499.88 2.5873 2500.62 12.2792" stroke="black" stroke-width="5" stroke-linecap="round"/>
<path d="M1851.83 135.217C1851.07 135.217 1849.48 134.903 1850.61 136.188C1857.18 143.673 1866.75 148.255 1875.66 150.463C1904.41 157.585 1946.46 139.763 1948.08 101.054C1949.79 60.2515 1896.6 65.1157 1873.84 65.436C1855.04 65.7005 1836.36 67.5698 1817.65 69.6631C1815.69 69.8827 1802.88 70.9197 1803 70.8411C1809.48 66.685 1817.72 64.571 1824.71 62.0405C1849.99 52.8873 1875.7 46.9701 1901.69 41.113C1929.16 34.9206 1956.66 28.8655 1984.14 22.6802C1996.98 19.7882 2009.78 16.9986 2021.84 11.0384C2023.14 10.3925 2028.8 8.08328 2024.27 7.98934C2015.11 7.7996 2005.94 8.06723 1996.79 7.98934C1985 7.88906 1972.02 8.31017 1960.55 4.52452C1957.83 3.62698 1966.12 3.32119 1968.94 3" stroke="black" stroke-opacity="0.3" stroke-width="5" stroke-linecap="round"/>
<path d="M2021.84 11.0384C2023.14 10.3925 2028.8 8.08328 2024.27 7.98934C2015.11 7.7996 2005.94 8.06723 1996.79 7.98934C1985 7.88906 1972.02 8.31017 1960.55 4.52452C1957.83 3.62698 1966.12 3.32119 1968.94 3" stroke="black" stroke-width="5" stroke-linecap="round"/>
<path d="M2913.67 6.86652C2915.49 6.86652 2910.03 6.85215 2908.22 6.72469C2885.15 5.10264 2862.38 9.14933 2839.35 7.05157C2821.5 5.42606 2803.57 4.38674 2785.7 3.00947C2782.86 2.79118 2789.53 6.41413 2790.37 7.05157C2829.41 36.7028 2846.25 83.3027 2852.37 129.406C2855.47 152.757 2857.16 203.79 2845.29 225.355C2838.05 238.518 2827.37 237.618 2821.23 224.008C2798.43 173.482 2845.66 101.857 2889.46 84.3048C2900.07 80.0513 2917.21 72.4332 2921.74 87.4959C2928.29 109.282 2926.41 135.076 2926.41 157.488C2926.41 181.405 2926.45 205.979 2921.38 229.466C2920.65 232.85 2915.47 243.431 2918.34 234.501C2927.89 204.777 2941.99 173.299 2971 158.765" stroke="black" stroke-opacity="0.3" stroke-width="5" stroke-linecap="round"/>
<path d="M2889.46 84.3049C2900.07 80.0514 2917.21 72.4333 2921.74 87.496C2928.29 109.282 2926.41 135.076 2926.41 157.488C2926.41 181.405 2926.45 205.979 2921.38 229.466C2920.65 232.85 2915.47 243.431 2918.34 234.501C2927.89 204.777 2941.99 173.299 2971 158.765" stroke="black" stroke-width="5" stroke-linecap="round"/>
</svg>
