<svg fill="none" height="158" viewBox="0 0 297 158" width="297" xmlns="http://www.w3.org/2000/svg"><path d="m60.4428 136.614c4.7412 26.077 52.2872 17.754 67.6482 12.489 16.328-5.596 43.747-19.007 45.421-39.102 1.763-21.1512-26.85-27.206-42.447-28.3975-28.921-2.2092-49.2826.0599-77.4228 5.8535-23.1422 3.6619-23.6422 3.6619-48.32461 5.4625-7.13884 1.7847 2.58354-3.4507 4.16298-4.5347 22.61763-15.5219 24.14683-19.1885 47.72983-33.1909 53.9146-32.0118 89.1936-43.1809 152.9126-51.42034 16.663-2.15473 20.877 1.72644 33.601 16.50324 18.276 23.7233 24.465 34.1421 37.251 61.1781 7.617 16.1058 19.684 40.2011 9.738 57.9101-8.986 15.999-35.214 10.133-47.131.966-17.498-13.46-8.582-30.569 4.918-37.069 13-5.5002 16.5-5.5002 33-3.5002" stroke="#000" stroke-linecap="round" stroke-width="5"/></svg>