<svg width="297" height="158" viewBox="0 0 297 158" fill="none" xmlns="http://www.w3.org/2000/svg">
<path d="M60.4428 136.614C65.184 162.691 112.73 154.368 128.091 149.103C144.419 143.507 171.838 130.096 173.512 110.001C175.275 88.8498 146.662 82.795 131.065 81.6035C102.144 79.3943 81.7824 81.6634 53.6422 87.457C30.5 91.1189 30 91.1189 5.31759 92.9195C-1.82125 94.7042 7.90113 89.4688 9.48057 88.3848C32.0982 72.8629 33.6274 69.1963 57.2104 55.1939C111.125 23.1821 146.404 12.013 210.123 3.77356C226.786 1.61883 231 5.5 243.724 20.2768C262 44.0001 268.189 54.4189 280.975 81.4549C288.592 97.5607 300.659 121.656 290.713 139.365C281.727 155.364 255.499 149.498 243.582 140.331C226.084 126.871 235 109.762 248.5 103.262C261.5 97.7618 265 97.7618 281.5 99.7618" stroke="black" stroke-width="5" stroke-linecap="round"/>
</svg>
