<svg width="414" height="159" viewBox="0 0 414 159" fill="none" xmlns="http://www.w3.org/2000/svg">
<path d="M84.1587 139.967C81.7343 137.812 83.7718 139.27 86.0915 140.264C99.1614 145.866 112.101 150.125 126.458 150.969C147.685 152.218 169.197 146.511 188.084 137.068C201.544 130.338 216.771 121.096 219.455 104.987C225.82 66.8022 151.343 71.2144 130.1 71.6688C87.9218 72.571 45.8981 82.5902 6.99493 98.5051C-13.2979 106.807 44.2568 75.385 63.0464 64.0862C106.168 38.1561 152.332 8.54079 203.696 3.42569C222.125 1.59039 234.098 7.88108 242.501 24.6866C253.984 47.6528 259.261 72.2349 274.02 93.8218C288.438 114.909 307.734 134.387 329.774 147.494C335.233 150.741 341.757 154.327 348.062 155.746C351.983 156.628 349.102 154.527 349.102 152.996" stroke="black" stroke-width="5" stroke-linecap="round"/>
<path d="M310.974 93.1045C324.864 93.1045 338.146 107.028 348.143 114.811C367.355 129.771 387 145.777 411.331 150.643" stroke="black" stroke-width="5" stroke-linecap="round"/>
</svg>
