<svg fill="none" height="159" viewBox="0 0 414 159" width="414" xmlns="http://www.w3.org/2000/svg"><g stroke="#000" stroke-linecap="round" stroke-width="5"><path d="m84.1587 139.967c-2.4244-2.155-.3869-.697 1.9328.297 13.0699 5.602 26.0095 9.861 40.3665 10.705 21.227 1.249 42.739-4.458 61.626-13.901 13.46-6.73 28.687-15.972 31.371-32.081 6.365-38.1848-68.112-33.7726-89.355-33.3182-42.1782.9022-84.2019 10.9214-123.10507 26.8363-20.29283 8.3019 37.26187-23.1201 56.05147-34.4189 43.1216-25.9301 89.2856-55.54541 140.6496-60.66051 18.429-1.8353 30.402 4.45539 38.805 21.26091 11.483 22.9662 16.76 47.5483 31.519 69.1352 14.418 21.0872 33.714 40.5652 55.754 53.6722 5.459 3.247 11.983 6.833 18.288 8.252 3.921.882 1.04-1.219 1.04-2.75"/><path d="m310.974 93.1045c13.89 0 27.172 13.9235 37.169 21.7065 19.212 14.96 38.857 30.966 63.188 35.832"/></g></svg>