<svg width="330" height="70" viewBox="0 0 330 70" fill="none" xmlns="http://www.w3.org/2000/svg">
<path d="M37.465 35.2475C29.2712 35.2475 54.0271 35.5896 61.9968 33.6864C78.1934 29.8186 75.3374 17.3912 63.3349 8.70856C48.8461 -1.77275 28.3917 4.67574 14.866 13.5406C-5.33387 26.7797 1.64792 46.7441 20.8131 56.6571C46.9882 70.196 80.1146 70.6177 105.634 55.2447C119.865 46.6718 131.756 24.3572 126.374 7.4448C125.746 5.4694 124.373 4.81829 124.739 7.74215C125.749 15.8226 131.124 23.56 135.444 30.1925C144.526 44.1368 156.464 61.306 172.613 67.3619" stroke="black" stroke-width="5" stroke-linecap="round"/>
<path d="M161.908 4.47119C162.204 4.47119 172.57 23.1404 174.546 27.9623C182.721 47.9096 188.082 60.0584 211.418 61.7121C238.553 63.6351 265.801 60.0115 292.968 60.7457C303.662 61.0348 314.055 62.9705 324.488 65.2061C331.628 66.7362 323.996 67.0051 321.142 67.3619" stroke="black" stroke-width="5" stroke-linecap="round"/>
</svg>
