<svg fill="none" height="70" viewBox="0 0 330 70" width="330" xmlns="http://www.w3.org/2000/svg"><g stroke="#000" stroke-linecap="round" stroke-width="5"><path d="m37.465 35.2475c-8.1938 0 16.5621.3421 24.5318-1.5611 16.1966-3.8678 13.3406-16.2952 1.3381-24.97784-14.4888-10.48131-34.9432-4.03282-48.4689 4.83204-20.19987 13.2391-13.21808 33.2035 5.9471 43.1165 26.1751 13.5389 59.3015 13.9606 84.8209-1.4124 14.231-8.5729 26.122-30.8875 20.74-47.7999-.628-1.9754-2.001-2.62651-1.635.29735 1.01 8.08045 6.385 15.81785 10.705 22.45035 9.082 13.9443 21.02 31.1135 37.169 37.1694"/><path d="m161.908 4.47119c.296 0 10.662 18.66921 12.638 23.49111 8.175 19.9473 13.536 32.0961 36.872 33.7498 27.135 1.923 54.383-1.7006 81.55-.9664 10.694.2891 21.087 2.2248 31.52 4.4604 7.14 1.5301-.492 1.799-3.346 2.1558"/></g></svg>