<svg fill="none" height="242" viewBox="0 0 239 242" width="239" xmlns="http://www.w3.org/2000/svg"><g stroke="#000" stroke-linecap="round" stroke-width="5"><path d="m130.395 4.15685c1.388 0 5.551 0 4.163 0-8.028 0-16.057 0-24.085 0-35.7957 0-70.6238-3.855683-106.00765 1.73124-3.21799.50811-.64925.82097 1.04075 3.12224 7.7652 10.57387 15.5007 27.36797 21.8556 38.85777 12.1983 22.0545 20.5613 46.3058 28.3975 70.1759 8.7659 26.702 19.6925 58.166 12.4889 86.53-3.2545 12.815-10.6388 28.795-24.1601 33.379-9.3176 3.158-16.7545.186-19.1051-9.739-4.945-20.878 2.7461-46.002 9.2923-65.641 7.4761-22.428 19.1842-43.419 35.9801-60.214 9.181-9.1815 24.1794-22.3188 38.4327-21.3358 12.259.8455 18.092 20.5458 21.633 29.7358 6.195 16.077 11.624 32.105 20.369 47.056 3.596 6.148 3.791 4.261 3.791-1.115"/><path d="m154.482 88.4573c-7.422-18.9666-3.542 46.7167 11.968 59.9167 13.937 11.861 43.4 9.111 60.438 8.029 1.085-.069 13.459-2.492 7.88.297"/></g></svg>