<svg width="239" height="242" viewBox="0 0 239 242" fill="none" xmlns="http://www.w3.org/2000/svg">
<path d="M130.395 4.15685C131.783 4.15685 135.946 4.15685 134.558 4.15685C126.53 4.15685 118.501 4.15685 110.473 4.15685C74.6773 4.15685 39.8492 0.301167 4.46535 5.88809C1.24736 6.3962 3.8161 6.70906 5.5061 9.01033C13.2713 19.5842 21.0068 36.3783 27.3617 47.8681C39.56 69.9226 47.923 94.1739 55.7592 118.044C64.5251 144.746 75.4517 176.21 68.2481 204.574C64.9936 217.389 57.6093 233.369 44.088 237.953C34.7704 241.111 27.3335 238.139 24.9829 228.214C20.0379 207.336 27.729 182.212 34.2752 162.573C41.7513 140.145 53.4594 119.154 70.2553 102.359C79.4363 93.1775 94.4347 80.0402 108.688 81.0232C120.947 81.8687 126.78 101.569 130.321 110.759C136.516 126.836 141.945 142.864 150.69 157.815C154.286 163.963 154.481 162.076 154.481 156.7" stroke="black" stroke-width="5" stroke-linecap="round"/>
<path d="M154.482 88.4573C147.06 69.4907 150.94 135.174 166.45 148.374C180.387 160.235 209.85 157.485 226.888 156.403C227.973 156.334 240.347 153.911 234.768 156.7" stroke="black" stroke-width="5" stroke-linecap="round"/>
</svg>
