<svg width="468" height="154" viewBox="0 0 468 154" fill="none" xmlns="http://www.w3.org/2000/svg">
<path d="M77.1268 138.334C86.9022 141.516 95.68 146.657 105.896 148.667C126.509 152.722 146.225 150.5 165.144 141.53C180.503 134.248 190.867 126.756 193.69 109.442C195.923 95.7483 190.525 85.5071 177.707 80.0784C158.479 71.9347 134.157 73.9385 114.073 76.8075C90.2589 80.2096 66.709 87.0514 43.4513 93.0878C30.7965 96.3722 18.4476 100.183 6.0588 104.313C-0.959416 106.652 8.18206 102.211 9.47839 101.562C50.6916 80.9558 93.2584 63.2933 133.327 40.3815C151.158 30.1856 167.27 17.4124 184.918 7.07766C191.024 3.50201 198.667 0.591103 205.436 4.25279C220.579 12.4451 227.301 32.6209 233.982 47.2207C245.61 72.6306 256.42 98.3357 271.449 122.006C278.833 133.636 278.432 139.034 291.333 145.837C296.357 148.486 292.861 142.777 291.928 141.377" stroke="black" stroke-width="5" stroke-linecap="round"/>
<path d="M289.251 90.1188C289.251 85.7632 296.947 98.8519 297.875 100.675C302.732 110.217 305.594 121.028 311.702 129.89C321.122 143.559 338.058 146.865 353.629 147.36C386.825 148.414 420.11 144.015 453.392 145.055C454.201 145.08 468.319 145.769 464.543 147.657" stroke="black" stroke-width="5" stroke-linecap="round"/>
</svg>
