<svg fill="none" height="154" viewBox="0 0 468 154" width="468" xmlns="http://www.w3.org/2000/svg"><g stroke="#000" stroke-linecap="round" stroke-width="5"><path d="m77.1268 138.334c9.7754 3.182 18.5532 8.323 28.7692 10.333 20.613 4.055 40.329 1.833 59.248-7.137 15.359-7.282 25.723-14.774 28.546-32.088 2.233-13.6937-3.165-23.9349-15.983-29.3636-19.228-8.1437-43.55-6.1399-63.634-3.2709-23.8141 3.4021-47.364 10.2439-70.6217 16.2803-12.6548 3.2844-25.0037 7.0952-37.3925 11.2252-7.018216 2.339 2.12326-2.102 3.41959-2.751 41.21321-20.6062 83.78001-38.2687 123.84861-61.1805 17.831-10.1959 33.943-22.9691 51.591-33.30384 6.106-3.57565 13.749-6.486557 20.518-2.82487 15.143 8.19231 21.865 28.36811 28.546 42.96791 11.628 25.4099 22.438 51.115 37.467 74.7853 7.384 11.63 6.983 17.028 19.884 23.831 5.024 2.649 1.528-3.06.595-4.46"/><path d="m289.251 90.1188c0-4.3556 7.696 8.7331 8.624 10.5562 4.857 9.542 7.719 20.353 13.827 29.215 9.42 13.669 26.356 16.975 41.927 17.47 33.196 1.054 66.481-3.345 99.763-2.305.809.025 14.927.714 11.151 2.602"/></g></svg>