<svg width="317" height="153" viewBox="0 0 317 153" fill="none" xmlns="http://www.w3.org/2000/svg">
<path d="M66.7918 146.319C64.0831 139.096 71.0721 145.016 76.6045 146.245C94.6371 150.252 114.473 149.902 132.061 144.089C143.415 140.336 163.188 131.864 162.615 116.955C162.107 103.769 144.043 102.274 134.291 103.351C122.98 104.601 109.918 113 116.971 125.653C127.262 144.117 154.595 147.243 173.245 148.698C197.837 150.617 227.202 151.534 250.706 142.528C265.913 136.701 283.741 123.47 273.008 105.582C262.685 88.3773 240.842 79.6418 223.052 73.0211C194.553 62.4148 164.433 56.9292 134.291 53.5443C101.484 49.86 67.0331 50.6515 34.5287 56.6666C24.4027 58.5404 -4.78077 68.5523 5.38785 66.9253C9.61424 66.2491 13.7418 63.7113 17.5794 62.019C30.4467 56.3446 43.8387 51.9995 57.2764 47.8946C98.8733 35.1877 141.898 27.1123 184.768 20.0918C222.894 13.8482 261.266 9.34004 299.621 4.77803C299.872 4.74822 321.116 3.14258 311.664 3.14258" stroke="black" stroke-width="5" stroke-linecap="round"/>
</svg>
