<svg width="348" height="242" viewBox="0 0 348 242" fill="none" xmlns="http://www.w3.org/2000/svg">
<path d="M159.586 4.1565C160.893 4.1565 162.855 4.1565 160.032 4.1565C149.276 4.1565 138.522 4.20354 127.769 3.85914C87.4517 2.56784 47.2073 5.33295 6.89414 4.466C3.16542 4.38581 1.72786 2.42196 3.32587 4.01997C10.401 11.0951 16.677 20.3679 22.0593 28.7005C38.1064 53.5438 49.1349 73.9454 59.8234 101.392C74.5278 139.15 79.8421 143.806 86.1823 184.104C88.6982 200.095 90.7127 221.322 78.005 233.911C68.3541 243.472 56.8593 238.652 52.2838 227.072C33.119 178.568 72.6995 153.587 111.712 123.842C124.744 113.906 146.811 97.2763 164.344 97.6748C177.935 97.9837 178.222 123.386 179.955 132.317C182.173 143.742 184.049 157.601 190.065 167.851C192.043 171.22 191.701 163.035 191.701 162.052" stroke="black" stroke-width="5" stroke-linecap="round"/>
<path d="M198.391 94.4856C199.28 86.4829 204.736 98.5725 205.007 100.879C206.878 116.777 199.952 143.275 218.165 151.132C228.331 155.517 242.475 153.427 253.105 153.288C275.714 152.992 298.285 152.024 320.902 152.024C322.256 152.024 354.886 153.362 341.568 153.362" stroke="black" stroke-width="5" stroke-linecap="round"/>
</svg>
