<svg fill="none" height="242" viewBox="0 0 348 242" width="348" xmlns="http://www.w3.org/2000/svg"><g stroke="#000" stroke-linecap="round" stroke-width="5"><path d="m159.586 4.1565c1.307 0 3.269 0 .446 0-10.756 0-21.51.04704-32.263-.29736-40.3173-1.2913-80.5617 1.47381-120.87486.60686-3.72872-.08019-5.16628-2.04404-3.56827-.44603 7.07513 7.07513 13.35113 16.34793 18.73343 24.68053 16.0471 24.8433 27.0756 45.2449 37.7641 72.6915 14.7044 37.758 20.0187 42.414 26.3589 82.712 2.5159 15.991 4.5304 37.218-8.1773 49.807-9.6509 9.561-21.1457 4.741-25.7212-6.839-19.1648-48.504 20.4157-73.485 59.4282-103.23 13.032-9.936 35.099-26.5657 52.632-26.1672 13.591.3089 13.878 25.7112 15.611 34.6422 2.218 11.425 4.094 25.284 10.11 35.534 1.978 3.369 1.636-4.816 1.636-5.799"/><path d="m198.391 94.4856c.889-8.0027 6.345 4.0869 6.616 6.3934 1.871 15.898-5.055 42.396 13.158 50.253 10.166 4.385 24.31 2.295 34.94 2.156 22.609-.296 45.18-1.264 67.797-1.264 1.354 0 33.984 1.338 20.666 1.338"/></g></svg>