<svg fill="none" height="251" viewBox="0 0 3090 251" width="3090" xmlns="http://www.w3.org/2000/svg"><g stroke="#000"><g stroke-dasharray="10 10"><path d="m0 154.5h3090"/><path d="m0 242.5h3090"/><path d="m0 94.5h3090"/><path d="m0 4.5h3090"/></g><g stroke-linecap="round" stroke-width="5"><path d="m69.7138 136.614c4.7412 26.077 52.2872 17.754 67.6482 12.489 16.328-5.596 43.747-19.007 45.421-39.102 1.763-21.1512-26.85-27.206-42.447-28.3975-28.921-2.2092-49.2827.0599-77.4228 5.8535-23.1422 3.6619-23.6422 3.6619-48.3246 5.4625-7.13885 1.7847 2.5835-3.4507 4.163-4.5347 22.6176-15.5219 24.1468-19.1885 47.7298-33.1909 53.9146-32.0118 89.1936-43.1809 152.9126-51.42034 16.663-2.15473 20.877 1.72644 33.601 16.50324 18.276 23.7233 24.465 34.1421 37.251 61.1781 7.617 16.1058 19.684 40.2011 9.738 57.9101-8.986 15.999-35.214 10.133-47.131.966-17.498-13.46-8.582-30.569 4.918-37.069 13-5.5002 16.5-5.5002 33-3.5002" stroke-opacity=".3"/><path d="m69.7138 136.614c4.7412 26.077 52.2872 17.754 67.6482 12.489 16.328-5.597 43.747-19.007 45.421-39.102 1.763-21.1513-26.85-27.2061-42.447-28.3976-28.921-2.2092-49.2827.0599-77.4228 5.8535-23.1422 3.6619-23.6422 3.6619-48.3246 5.4625-7.13885 1.7847 2.5835-3.4508 4.163-4.5347 22.6176-15.5219 24.1468-19.1885 47.7298-33.1909 53.9146-32.0118 89.1936-43.1809 152.9126-51.42036"/><path d="m540.437 141.711c-2.425-2.155-.387-.697 1.933.297 13.069 5.601 26.009 9.86 40.366 10.705 21.227 1.248 42.739-4.458 61.627-13.902 13.459-6.73 28.686-15.971 31.371-32.08 6.364-38.1851-68.113-33.773-89.356-33.3186-42.178.9022-84.202 10.9214-123.105 26.8366-20.293 8.301 37.262-23.1203 56.052-34.4191 43.121-25.9302 89.285-55.5455 140.649-60.66056 18.429-1.8353 30.402 4.4554 38.805 21.26096 11.483 22.9662 16.76 47.5483 31.519 69.1351 14.418 21.0876 33.714 40.5656 55.754 53.6726 5.459 3.247 11.983 6.833 18.288 8.252 3.921.882 1.041-1.22 1.041-2.751" stroke-opacity=".3"/><path d="m698.779 26.4302c11.483 22.9662 16.76 47.5483 31.519 69.1351 14.418 21.0877 33.714 40.5647 55.754 53.6727 5.459 3.246 11.983 6.833 18.288 8.252 3.921.882 1.041-1.22 1.041-2.751"/><path d="m767.252 94.8481c13.89 0 27.173 13.9229 37.169 21.7069 19.213 14.959 38.857 30.965 63.188 35.831"/><path d="m982.778 124.248c-8.194 0 16.562.342 24.532-1.562 16.2-3.867 13.34-16.295 1.34-24.9774-14.491-10.4813-34.946-4.0329-48.472 4.8324-20.199 13.239-13.218 33.203 5.948 43.116 26.175 13.539 59.304 13.961 84.824-1.412 14.23-8.573 26.12-30.888 20.74-47.8002-.63-1.9754-2-2.6265-1.64.2974 1.01 8.0808 6.39 15.8178 10.71 22.4498 9.08 13.945 21.02 31.114 37.17 37.17" stroke-opacity=".3"/><path d="m1071.69 96.4448c-.63-1.9754-2-2.6265-1.64.2974 1.01 8.0808 6.39 15.8178 10.71 22.4508 9.08 13.944 21.02 31.113 37.17 37.169"/><path d="m1107.22 93.4712c.3 0 10.66 18.6688 12.64 23.4908 8.17 19.948 13.53 32.096 36.87 33.75 27.14 1.923 54.38-1.701 81.55-.966 10.69.289 21.09 2.224 31.52 4.46 7.14 1.53-.49 1.799-3.35 2.156"/><path d="m1559.47 13.2516c1.39 0 5.55 0 4.16 0-8.03 0-16.06 0-24.08 0-35.8 0-70.63-3.85571-106.01 1.7312-3.22.5081-.65.821 1.04 3.1223 7.76 10.5738 15.5 27.368 21.85 38.8577 12.2 22.0545 20.57 46.3062 28.4 70.1762 8.77 26.702 19.69 58.166 12.49 86.53-3.25 12.815-10.64 28.795-24.16 33.378-9.32 3.159-16.75.187-19.1-9.738-4.95-20.879 2.74-46.002 9.29-65.641 7.47-22.429 19.18-43.419 35.98-60.215 9.18-9.181 24.18-22.318 38.43-21.335 12.26.8454 18.09 20.546 21.63 29.736 6.2 16.077 11.63 32.105 20.37 47.056 3.6 6.147 3.79 4.261 3.79-1.115" stroke-opacity=".3"/><path d="m1499.33 111.453c9.18-9.181 24.18-22.318 38.43-21.335 12.26.8455 18.09 20.546 21.63 29.736 6.2 16.077 11.63 32.105 20.37 47.056 3.6 6.147 3.79 4.261 3.79-1.115"/><path d="m1583.55 97.552c-7.42-18.9666-3.54 46.717 11.97 59.917 13.94 11.861 43.4 9.11 60.44 8.029 1.09-.069 13.46-2.493 7.88.297"/><path d="m2362.52 149.319c-2.71-7.223 4.28-1.303 9.82-.074 18.03 4.007 37.86 3.657 55.45-2.156 11.36-3.753 31.13-12.225 30.56-27.134-.51-13.186-18.58-14.681-28.33-13.604-11.31 1.25-24.37 9.649-17.32 22.302 10.29 18.464 37.63 21.59 56.28 23.045 24.59 1.919 53.95 2.836 77.46-6.17 15.2-5.827 33.03-19.058 22.3-36.946-10.32-17.2047-32.17-25.9402-49.96-32.5609-28.5-10.6063-58.62-16.0919-88.76-19.4768-32.8-3.6843-67.26-2.8928-99.76 3.1223-10.13 1.8738-39.31 11.8857-29.14 10.2587 4.23-.6762 8.35-3.214 12.19-4.9063 12.87-5.6744 26.26-10.0195 39.7-14.1244 41.59-12.7069 84.62-20.7823 127.49-27.8028 38.13-6.2436 76.5-10.7518 114.85-15.31377.25-.02981 21.5-1.63545 12.05-1.63545" stroke-opacity=".3"/><path d="m2468.98 151.698c24.59 1.919 53.95 2.836 77.46-6.17 15.2-5.827 33.03-19.058 22.3-36.946-10.32-17.2047-32.17-25.9402-49.96-32.5609-28.5-10.6063-58.62-16.0919-88.76-19.4768-32.8-3.6843-67.26-2.8928-99.76 3.1223-10.13 1.8738-39.31 11.8857-29.14 10.2587 4.23-.6762 8.35-3.214 12.19-4.9063 12.87-5.6744 26.26-10.0195 39.7-14.1244 41.59-12.7069 84.62-20.7823 127.49-27.8028 38.13-6.2436 76.5-10.7518 114.85-15.31377.25-.02981 21.5-1.63545 12.05-1.63545"/><path d="m1876.69 142.334c9.78 3.182 18.55 8.323 28.77 10.333 20.61 4.055 40.33 1.833 59.25-7.137 15.36-7.282 25.72-14.774 28.54-32.088 2.24-13.6937-3.16-23.9349-15.98-29.3636-19.23-8.1437-43.55-6.1399-63.63-3.2709-23.82 3.4021-47.37 10.2439-70.62 16.2803-12.66 3.2842-25.01 7.0952-37.4 11.2252-7.01 2.339 2.13-2.102 3.42-2.751 41.22-20.6062 83.78-38.2687 123.85-61.1805 17.83-10.1959 33.94-22.9691 51.59-33.3038 6.11-3.57569 13.75-6.4866 20.52-2.82491 15.14 8.19231 21.87 28.36811 28.55 42.96791 11.62 25.4099 22.43 51.1153 37.46 74.7853 7.39 11.63 6.99 17.028 19.89 23.831 5.02 2.649 1.53-3.06.59-4.46" stroke-opacity=".3"/><path d="m2033.55 51.2207c11.62 25.41 22.43 51.1153 37.46 74.7853 7.39 11.63 6.99 17.028 19.89 23.831 5.02 2.649 1.53-3.06.59-4.46"/><path d="m2088.82 94.1188c0-4.3556 7.69 8.7332 8.62 10.5562 4.86 9.542 7.72 20.353 13.83 29.215 9.42 13.669 26.35 16.975 41.92 17.47 33.2 1.054 66.48-3.345 99.77-2.305.81.025 14.92.714 11.15 2.602"/><path d="m2941.91 5.1565c1.3 0 3.26 0 .44 0-10.75 0-21.51.04704-32.26-.29736-40.32-1.2913-80.56 1.47381-120.88.60686-3.73-.08019-5.16-2.04404-3.56-.44603 7.07 7.07513 13.35 16.34793 18.73 24.68053 16.05 24.8433 27.07 45.2449 37.76 72.6915 14.71 37.758 20.02 42.414 26.36 82.712 2.52 15.991 4.53 37.218-8.18 49.807-9.65 9.561-21.14 4.741-25.72-6.839-19.16-48.504 20.42-73.485 59.43-103.23 13.03-9.936 35.1-26.5657 52.63-26.1672 13.59.3089 13.88 25.7112 15.61 34.6422 2.22 11.425 4.1 25.284 10.11 35.534 1.98 3.369 1.64-4.816 1.64-5.799" stroke-opacity=".3"/><path d="m2946.66 98.6748c13.59.3089 13.88 25.7112 15.61 34.6422 2.22 11.425 4.1 25.284 10.11 35.534 1.98 3.369 1.64-4.816 1.64-5.799"/><path d="m2980.71 95.4856c.89-8.0027 6.35 4.0869 6.62 6.3934 1.87 15.898-5.06 42.396 13.15 50.253 10.17 4.385 54.31 2.295 64.94 2.156"/></g></g></svg>