<svg width="3090" height="251" viewBox="0 0 3090 251" fill="none" xmlns="http://www.w3.org/2000/svg">
<line y1="154.5" x2="3090" y2="154.5" stroke="black" stroke-dasharray="10 10"/>
<line y1="242.5" x2="3090" y2="242.5" stroke="black" stroke-dasharray="10 10"/>
<line y1="94.5" x2="3090" y2="94.5" stroke="black" stroke-dasharray="10 10"/>
<line y1="4.5" x2="3090" y2="4.5" stroke="black" stroke-dasharray="10 10"/>
<path d="M69.7138 136.614C74.455 162.691 122.001 154.368 137.362 149.103C153.69 143.507 181.109 130.096 182.783 110.001C184.546 88.8498 155.933 82.795 140.336 81.6035C111.415 79.3943 91.0533 81.6634 62.9132 87.457C39.771 91.1189 39.271 91.1189 14.5886 92.9195C7.44975 94.7042 17.1721 89.4688 18.7516 88.3848C41.3692 72.8629 42.8984 69.1963 66.4814 55.1939C120.396 23.1821 155.675 12.013 219.394 3.77356C236.057 1.61883 240.271 5.5 252.995 20.2768C271.271 44.0001 277.46 54.4189 290.246 81.4549C297.863 97.5607 309.93 121.656 299.984 139.365C290.998 155.364 264.77 149.498 252.853 140.331C235.355 126.871 244.271 109.762 257.771 103.262C270.771 97.7618 274.271 97.7618 290.771 99.7618" stroke="black" stroke-opacity="0.3" stroke-width="5" stroke-linecap="round"/>
<path d="M69.7138 136.614C74.455 162.691 122.001 154.368 137.362 149.103C153.69 143.506 181.109 130.096 182.783 110.001C184.546 88.8497 155.933 82.7949 140.336 81.6034C111.415 79.3942 91.0533 81.6633 62.9132 87.4569C39.771 91.1188 39.271 91.1188 14.5886 92.9194C7.44975 94.7041 17.1721 89.4686 18.7516 88.3847C41.3692 72.8628 42.8984 69.1962 66.4814 55.1938C120.396 23.182 155.675 12.0129 219.394 3.77344" stroke="black" stroke-width="5" stroke-linecap="round"/>
<path d="M540.437 141.711C538.012 139.556 540.05 141.014 542.37 142.008C555.439 147.609 568.379 151.868 582.736 152.713C603.963 153.961 625.475 148.255 644.363 138.811C657.822 132.081 673.049 122.84 675.734 106.731C682.098 68.5459 607.621 72.958 586.378 73.4124C544.2 74.3146 502.176 84.3338 463.273 100.249C442.98 108.55 500.535 77.1287 519.325 65.8299C562.446 39.8997 608.61 10.2844 659.974 5.16934C678.403 3.33404 690.376 9.62474 698.779 26.4303C710.262 49.3965 715.539 73.9786 730.298 95.5654C744.716 116.653 764.012 136.131 786.052 149.238C791.511 152.485 798.035 156.071 804.34 157.49C808.261 158.372 805.381 156.27 805.381 154.739" stroke="black" stroke-opacity="0.3" stroke-width="5" stroke-linecap="round"/>
<path d="M698.779 26.4302C710.262 49.3964 715.539 73.9785 730.298 95.5653C744.716 116.653 764.012 136.13 786.052 149.238C791.511 152.484 798.035 156.071 804.34 157.49C808.261 158.372 805.381 156.27 805.381 154.739" stroke="black" stroke-width="5" stroke-linecap="round"/>
<path d="M767.252 94.8481C781.142 94.8481 794.425 108.771 804.421 116.555C823.634 131.514 843.278 147.52 867.609 152.386" stroke="black" stroke-width="5" stroke-linecap="round"/>
<path d="M982.778 124.248C974.584 124.248 999.34 124.59 1007.31 122.686C1023.51 118.819 1020.65 106.391 1008.65 97.7086C994.159 87.2273 973.704 93.6757 960.178 102.541C939.979 115.78 946.96 135.744 966.126 145.657C992.301 159.196 1025.43 159.618 1050.95 144.245C1065.18 135.672 1077.07 113.357 1071.69 96.4448C1071.06 94.4694 1069.69 93.8183 1070.05 96.7422C1071.06 104.823 1076.44 112.56 1080.76 119.192C1089.84 133.137 1101.78 150.306 1117.93 156.362" stroke="black" stroke-opacity="0.3" stroke-width="5" stroke-linecap="round"/>
<path d="M1071.69 96.4448C1071.06 94.4694 1069.69 93.8183 1070.05 96.7422C1071.06 104.823 1076.44 112.56 1080.76 119.193C1089.84 133.137 1101.78 150.306 1117.93 156.362" stroke="black" stroke-width="5" stroke-linecap="round"/>
<path d="M1107.22 93.4712C1107.52 93.4712 1117.88 112.14 1119.86 116.962C1128.03 136.91 1133.39 149.058 1156.73 150.712C1183.87 152.635 1211.11 149.011 1238.28 149.746C1248.97 150.035 1259.37 151.97 1269.8 154.206C1276.94 155.736 1269.31 156.005 1266.45 156.362" stroke="black" stroke-width="5" stroke-linecap="round"/>
<path d="M1559.47 13.2516C1560.86 13.2516 1565.02 13.2516 1563.63 13.2516C1555.6 13.2516 1547.57 13.2516 1539.55 13.2516C1503.75 13.2516 1468.92 9.39589 1433.54 14.9828C1430.32 15.4909 1432.89 15.8038 1434.58 18.1051C1442.34 28.6789 1450.08 45.4731 1456.43 56.9628C1468.63 79.0173 1477 103.269 1484.83 127.139C1493.6 153.841 1504.52 185.305 1497.32 213.669C1494.07 226.484 1486.68 242.464 1473.16 247.047C1463.84 250.206 1456.41 247.234 1454.06 237.309C1449.11 216.43 1456.8 191.307 1463.35 171.668C1470.82 149.239 1482.53 128.249 1499.33 111.453C1508.51 102.272 1523.51 89.135 1537.76 90.118C1550.02 90.9634 1555.85 110.664 1559.39 119.854C1565.59 135.931 1571.02 151.959 1579.76 166.91C1583.36 173.057 1583.55 171.171 1583.55 165.795" stroke="black" stroke-opacity="0.3" stroke-width="5" stroke-linecap="round"/>
<path d="M1499.33 111.453C1508.51 102.272 1523.51 89.135 1537.76 90.118C1550.02 90.9635 1555.85 110.664 1559.39 119.854C1565.59 135.931 1571.02 151.959 1579.76 166.91C1583.36 173.057 1583.55 171.171 1583.55 165.795" stroke="black" stroke-width="5" stroke-linecap="round"/>
<path d="M1583.55 97.552C1576.13 78.5854 1580.01 144.269 1595.52 157.469C1609.46 169.33 1638.92 166.579 1655.96 165.498C1657.05 165.429 1669.42 163.005 1663.84 165.795" stroke="black" stroke-width="5" stroke-linecap="round"/>
<path d="M2362.52 149.319C2359.81 142.096 2366.8 148.016 2372.34 149.245C2390.37 153.252 2410.2 152.902 2427.79 147.089C2439.15 143.336 2458.92 134.864 2458.35 119.955C2457.84 106.769 2439.77 105.274 2430.02 106.351C2418.71 107.601 2405.65 116 2412.7 128.653C2422.99 147.117 2450.33 150.243 2468.98 151.698C2493.57 153.617 2522.93 154.534 2546.44 145.528C2561.64 139.701 2579.47 126.47 2568.74 108.582C2558.42 91.3773 2536.57 82.6418 2518.78 76.0211C2490.28 65.4148 2460.16 59.9292 2430.02 56.5443C2397.22 52.86 2362.76 53.6515 2330.26 59.6666C2320.13 61.5404 2290.95 71.5523 2301.12 69.9253C2305.35 69.2491 2309.47 66.7113 2313.31 65.019C2326.18 59.3446 2339.57 54.9995 2353.01 50.8946C2394.6 38.1877 2437.63 30.1123 2480.5 23.0918C2518.63 16.8482 2557 12.34 2595.35 7.77803C2595.6 7.74822 2616.85 6.14258 2607.4 6.14258" stroke="black" stroke-opacity="0.3" stroke-width="5" stroke-linecap="round"/>
<path d="M2468.98 151.698C2493.57 153.617 2522.93 154.534 2546.44 145.528C2561.64 139.701 2579.47 126.47 2568.74 108.582C2558.42 91.3773 2536.57 82.6418 2518.78 76.0211C2490.28 65.4148 2460.16 59.9292 2430.02 56.5443C2397.22 52.86 2362.76 53.6515 2330.26 59.6666C2320.13 61.5404 2290.95 71.5523 2301.12 69.9253C2305.35 69.2491 2309.47 66.7113 2313.31 65.019C2326.18 59.3446 2339.57 54.9995 2353.01 50.8946C2394.6 38.1877 2437.63 30.1123 2480.5 23.0918C2518.63 16.8482 2557 12.34 2595.35 7.77803C2595.6 7.74822 2616.85 6.14258 2607.4 6.14258" stroke="black" stroke-width="5" stroke-linecap="round"/>
<path d="M1876.69 142.334C1886.47 145.516 1895.24 150.657 1905.46 152.667C1926.07 156.722 1945.79 154.5 1964.71 145.53C1980.07 138.248 1990.43 130.756 1993.25 113.442C1995.49 99.7483 1990.09 89.5071 1977.27 84.0784C1958.04 75.9347 1933.72 77.9385 1913.64 80.8075C1889.82 84.2096 1866.27 91.0514 1843.02 97.0878C1830.36 100.372 1818.01 104.183 1805.62 108.313C1798.61 110.652 1807.75 106.211 1809.04 105.562C1850.26 84.9558 1892.82 67.2933 1932.89 44.3815C1950.72 34.1856 1966.83 21.4124 1984.48 11.0777C1990.59 7.50201 1998.23 4.5911 2005 8.25279C2020.14 16.4451 2026.87 36.6209 2033.55 51.2207C2045.17 76.6306 2055.98 102.336 2071.01 126.006C2078.4 137.636 2078 143.034 2090.9 149.837C2095.92 152.486 2092.43 146.777 2091.49 145.377" stroke="black" stroke-opacity="0.3" stroke-width="5" stroke-linecap="round"/>
<path d="M2033.55 51.2207C2045.17 76.6307 2055.98 102.336 2071.01 126.006C2078.4 137.636 2078 143.034 2090.9 149.837C2095.92 152.486 2092.43 146.777 2091.49 145.377" stroke="black" stroke-width="5" stroke-linecap="round"/>
<path d="M2088.82 94.1188C2088.82 89.7632 2096.51 102.852 2097.44 104.675C2102.3 114.217 2105.16 125.028 2111.27 133.89C2120.69 147.559 2137.62 150.865 2153.19 151.36C2186.39 152.414 2219.67 148.015 2252.96 149.055C2253.77 149.08 2267.88 149.769 2264.11 151.657" stroke="black" stroke-width="5" stroke-linecap="round"/>
<path d="M2941.91 5.1565C2943.21 5.1565 2945.17 5.1565 2942.35 5.1565C2931.6 5.1565 2920.84 5.20354 2910.09 4.85914C2869.77 3.56784 2829.53 6.33295 2789.21 5.466C2785.48 5.38581 2784.05 3.42196 2785.65 5.01997C2792.72 12.0951 2799 21.3679 2804.38 29.7005C2820.43 54.5438 2831.45 74.9454 2842.14 102.392C2856.85 140.15 2862.16 144.806 2868.5 185.104C2871.02 201.095 2873.03 222.322 2860.32 234.911C2850.67 244.472 2839.18 239.652 2834.6 228.072C2815.44 179.568 2855.02 154.587 2894.03 124.842C2907.06 114.906 2929.13 98.2763 2946.66 98.6748C2960.25 98.9837 2960.54 124.386 2962.27 133.317C2964.49 144.742 2966.37 158.601 2972.38 168.851C2974.36 172.22 2974.02 164.035 2974.02 163.052" stroke="black" stroke-opacity="0.3" stroke-width="5" stroke-linecap="round"/>
<path d="M2946.66 98.6748C2960.25 98.9837 2960.54 124.386 2962.27 133.317C2964.49 144.742 2966.37 158.601 2972.38 168.851C2974.36 172.22 2974.02 164.035 2974.02 163.052" stroke="black" stroke-width="5" stroke-linecap="round"/>
<path d="M2980.71 95.4856C2981.6 87.4829 2987.06 99.5725 2987.33 101.879C2989.2 117.777 2982.27 144.275 3000.48 152.132C3010.65 156.517 3054.79 154.427 3065.42 154.288" stroke="black" stroke-width="5" stroke-linecap="round"/>
</svg>
