<svg width="632" height="350" viewBox="0 0 632 350" fill="none" xmlns="http://www.w3.org/2000/svg">
<path d="M76.8173 101.641C78.7557 101.122 80.3544 100.237 82.1833 99.3595" stroke="black" stroke-width="4" stroke-linecap="round"/>
<path d="M22.3036 126.137C19.9087 126.012 32.5452 119.516 33.3728 119.11C42.6513 114.566 52.1888 109.931 61.982 106.597" stroke="black" stroke-width="4" stroke-linecap="round"/>
<path d="M41.2789 281.504C39.1226 281.391 50.5003 275.541 51.2455 275.177C59.5997 271.085 68.1872 266.911 77.0049 263.909" stroke="black" stroke-width="4" stroke-linecap="round"/>
<path d="M230.293 187.571C229.484 187.369 240.784 183.803 241.583 183.564C248.115 181.604 254.36 179.213 260.546 176.327C261.681 175.797 274.662 167.542 267.111 164.144C256.171 159.22 220.602 163.883 216.575 177.976C213.117 190.08 270.816 195.19 279.294 198.129C284.988 200.103 292.816 203.366 296.791 208.206C302.695 215.393 288.89 224.991 284.333 228.175C264.064 242.338 229.391 242.314 205.919 239.535C190.446 237.702 169.467 231.122 166.345 213.244C162.288 190.005 186.35 168.031 201.339 154.159C222.705 134.383 246.592 112.415 279.294 109.5C321.722 105.718 362.671 131.5 362.671 173.937C361.321 203.055 361.428 231.899 359.709 260.962C359.271 268.358 358.07 283.708 362.64 268.474" stroke="black" stroke-width="4" stroke-linecap="round"/>
<path d="M267.324 272.069C268.348 267.976 273.898 276.363 275.218 277.367C279 282.5 279.649 288.441 272.271 296.803" stroke="black" stroke-width="4" stroke-linecap="round"/>
<path d="M39.3025 171.506C44.4999 184.5 40.4999 209 61.3364 217.915" stroke="black" stroke-width="4" stroke-linecap="round"/>
<path d="M61.2892 170.039C67.4863 176.944 73.0342 203.951 81.8099 207.579C96.6447 213.713 136.723 209.779 152.212 209.045C196.415 206.95 240.045 209.38 284.355 209.38C306.112 209.38 451.359 209.73 429.603 209.73" stroke="black" stroke-width="4" stroke-linecap="round"/>
<path d="M428.503 209.5C461.503 211 508.5 209.5 527.5 184.5C538.73 169.724 513.2 137 443.003 118.922C414.678 111.628 358.5 105 358.5 105C358.5 105 507 114 609 63.5" stroke="black" stroke-width="4" stroke-linecap="round"/>
</svg>
