<svg width="480" height="350" viewBox="0 0 480 350" fill="none" xmlns="http://www.w3.org/2000/svg">
<path d="M79.8173 99.641C81.7557 99.1219 80.3544 100.237 82.1833 99.3593" stroke="black" stroke-width="5" stroke-linecap="round"/>
<path d="M22.3036 126.137C19.9087 126.011 32.5452 119.515 33.3728 119.11C42.6513 114.566 52.1888 109.93 61.982 106.596" stroke="black" stroke-width="4" stroke-linecap="round"/>
<path d="M41.2789 291.503C39.1226 291.39 50.5003 285.541 51.2455 285.176C59.5997 281.084 68.1872 276.911 77.0049 273.909" stroke="black" stroke-width="4" stroke-linecap="round"/>
<path d="M267.324 272.069C268.348 267.976 273.898 276.363 275.218 277.367C279 282.5 279.649 288.441 272.271 296.803" stroke="black" stroke-width="4" stroke-linecap="round"/>
<path d="M39.3025 171.506C44.4999 184.5 40.4999 209 61.3364 217.915" stroke="black" stroke-width="4" stroke-linecap="round"/>
<path d="M61.2892 170.039C67.4863 176.944 73.0342 203.951 81.8099 207.579C96.6447 213.713 136.723 209.779 152.212 209.045C196.415 206.95 380.044 209.38 424.355 209.38" stroke="black" stroke-width="4" stroke-linecap="round"/>
<path d="M254.211 186.336C255.629 185.806 288.071 170.17 272.401 164.153C254.211 157.168 226.326 166.892 221.297 180.985C216.978 193.089 289.037 198.199 299.626 201.138C306.736 203.112 316.512 206.375 321.477 211.215C328.85 218.402 311.609 228 305.918 231.184C280.604 245.347 237.303 245.323 207.989 242.543C188.666 240.711 162.466 234.131 158.567 216.253C153.5 193.014 183.551 171.04 202.269 157.168C228.954 137.392 249.507 119.251 280.071 103.487C295.26 95.5267 314.382 91.2423 322.803 91.1734C365.5 90.8248 359.816 150.037 358.258 176.946C356.573 206.064 359.711 234.908 357.564 263.971C357.017 271.367 355.517 286.717 361.225 271.483" stroke="black" stroke-width="4" stroke-linecap="round"/>
</svg>
