<svg width="416" height="350" viewBox="0 0 416 350" fill="none" xmlns="http://www.w3.org/2000/svg">
<path d="M220.293 187.571C219.484 187.369 230.784 183.803 231.583 183.563C238.115 181.604 244.36 179.213 250.546 176.327C251.681 175.797 264.662 167.541 257.111 164.143C246.171 159.22 210.602 163.883 206.575 177.976C203.117 190.08 260.816 195.189 269.294 198.129C274.988 200.102 282.816 203.366 286.791 208.205C292.695 215.393 278.89 224.991 274.333 228.175C254.064 242.337 219.391 242.314 195.919 239.534C180.446 237.702 159.467 231.121 156.345 213.243C152.288 190.004 176.35 168.03 191.339 154.158C212.705 134.382 231.569 116.242 256.042 100.478C274.61 88.5173 276.309 86.2329 299.067 84.164C341.996 80.2614 337.918 147.028 336.671 173.937C335.321 203.055 331.428 231.898 329.709 260.962C329.271 268.358 328.07 283.707 332.64 268.473" stroke="black" stroke-width="4" stroke-linecap="round"/>
<path d="M237.324 262.069C238.348 257.976 245.898 264.362 247.218 265.367C258.614 274.042 249.649 278.441 242.271 286.802" stroke="black" stroke-width="4" stroke-linecap="round"/>
<path d="M23 170.741C23 184.795 45.2988 204.566 57.6397 208.68" stroke="black" stroke-width="4" stroke-linecap="round"/>
<path d="M61.2892 170.039C70.0989 174.938 74.2283 183.024 79.8164 189.251C86.0136 196.157 93.0342 203.951 101.81 207.579C116.645 213.713 136.723 209.779 152.212 209.045C196.415 206.95 240.045 209.38 284.355 209.38C306.112 209.38 421.359 209.73 399.603 209.73" stroke="black" stroke-width="4" stroke-linecap="round"/>
</svg>
