<svg width="1123" height="350" viewBox="0 0 1123 350" fill="none" xmlns="http://www.w3.org/2000/svg">
<path d="M950.669 209.571C949.659 209.369 952.532 208.803 953.529 208.564C961.687 206.604 947.486 211.213 955.211 208.327C956.629 207.797 982.832 189.542 973.401 186.143C959.738 181.22 927.326 188.883 922.297 202.976C917.978 215.08 990.037 220.19 1000.63 223.129C1007.74 225.103 1017.51 228.366 1022.48 233.205C1029.85 240.393 1012.61 249.991 1006.92 253.175C981.604 267.338 938.303 267.314 908.989 264.534C889.666 262.702 863.466 256.121 859.567 238.244C854.5 215.005 884.551 193.031 903.269 179.158C929.954 159.383 958.507 141.242 989.071 125.478C1004.26 117.518 1023.38 113.233 1031.8 113.164C1075.42 109.262 1068.82 172.028 1067.26 198.937C1065.57 228.055 1060.71 256.899 1058.56 285.962C1058.02 293.358 1056.52 308.708 1062.22 293.474" stroke="black" stroke-width="4" stroke-linecap="round"/>
<path d="M960.567 287.51C961.368 283.431 967.283 289.795 968.317 290.797C977.244 299.442 970.221 303.826 964.442 312.159" stroke="black" stroke-width="4" stroke-linecap="round"/>
<path d="M55 181C58.5 190.5 75.5 207.5 84 212" stroke="black" stroke-width="4" stroke-linecap="round"/>
<path d="M87.2892 172C96.0989 180.899 100.228 184.985 105.816 191.212C112.014 198.118 119.034 205.912 127.81 209.54C142.645 215.674 162.723 211.74 178.212 211.006C222.415 208.911 266.045 211.341 310.355 211.341C332.112 211.341 447.359 211.691 425.603 211.691" stroke="black" stroke-width="4" stroke-linecap="round"/>
<path d="M485.82 219.974C485.561 227.408 487.836 205.2 489.702 197.999C490.599 194.537 490.462 193.956 492.872 196.397C498.723 202.323 506.535 205.754 514.334 208.28C540.625 216.794 568.386 216.518 595.272 215.812C623.671 216.144 640.793 217.047 669.084 214.42C677.538 213.635 692.414 202.975 690.563 193.569C690.479 193.142 687.856 186.005 687.433 187.309C686.233 191.017 690.874 197.561 692.82 200.265C698.48 208.128 710.221 212.431 719.091 214.885C741.238 219.012 744.705 218.618 758.101 217.205C770.854 214.692 798.256 210.668 804.516 196.715C809.148 186.392 796.476 180.763 789.444 177.971" stroke="black" stroke-width="4" stroke-linecap="round"/>
<path d="M542.003 176.857C539.524 176.857 541.037 176.939 542.624 177.478C550.552 180.171 557.801 182.468 566.316 182.839C596.273 184.141 627.441 177.483 654.948 165.669C664.117 161.732 681.879 151.323 670.717 139.255C654.883 122.135 620.179 121.452 599.097 120.299C567.342 118.562 535.168 122.159 503.94 127.912C498.316 128.948 481.46 131.047 487.161 131.486C496.156 132.178 508.033 127.3 516.213 124.649C563.806 109.23 611.009 90.1048 657.434 71.5099C672.507 65.4728 687.599 59.4304 702.643 53.3307C706.204 51.887 705.292 51.6235 702.799 51" stroke="black" stroke-width="4" stroke-linecap="round"/>
<path d="M510.179 93.6471C505.052 93.3784 532.102 79.4728 533.873 78.6051C553.735 68.8778 574.151 58.9553 595.114 51.8182" stroke="black" stroke-width="4" stroke-linecap="round"/>
<path d="M633 43C634.263 41.4406 635.036 39.7848 636 38" stroke="black" stroke-width="4" stroke-linecap="round"/>
<path d="M495.743 265C495.743 264.627 495.551 265.723 495.432 266.077C494.537 268.726 494.823 269 498.313 269C513.01 269 524.88 256.086 535 247" stroke="black" stroke-width="4" stroke-linecap="round"/>
<path d="M250.785 188.131C247.717 191.711 257.563 181.571 260.786 178.13C265.12 173.502 269.261 168.886 272.811 163.619C273.298 162.896 274.625 160.168 275.701 159.63C276.377 159.292 276.128 161.087 276.453 161.769C278.76 166.615 282.366 170.878 285.356 175.297C296.276 191.439 307.094 208.368 314.608 226.402C319.263 237.574 323.265 248.697 314.493 258.776C301.932 273.207 279.822 270.79 263.099 267.39C248.274 264.376 233.736 259.837 219.162 255.828C207.386 252.588 194.613 250.319 183.435 245.248C163.296 236.113 180.226 216.152 189.736 205.243C208.549 183.664 231.076 164.961 253.329 147.085C269.982 133.707 288.668 117.441 309.637 111.358C315.312 109.711 325.122 106.515 329.35 112.398C336.291 122.055 340.169 135.381 343.976 146.449C350.806 166.304 354.576 186.96 357.735 207.671C360.385 225.042 360.378 243.945 365.251 260.857C368.394 271.765 376.253 262.005 377.957 256.232C382.732 240.049 390.827 175.297 420.865 178.13" stroke="black" stroke-width="4" stroke-linecap="round"/>
<path d="M391.266 130.898C386.698 140.777 381.291 150.193 376.697 160.035" stroke="black" stroke-width="4" stroke-linecap="round"/>
<path d="M264.313 234.552C260.269 236.349 260.738 235.512 263.272 232.471" stroke="black" stroke-width="4" stroke-linecap="round"/>
</svg>
