<svg width="541" height="350" viewBox="0 0 541 350" fill="none" xmlns="http://www.w3.org/2000/svg">
<path d="M112.386 206.318C113.001 206.318 107.677 205.617 110.717 208.488C125.849 222.779 150.748 212.719 165.2 202.897C181.435 191.864 206.459 162.284 182.638 145.578C155.351 126.441 120.654 132.054 90.4423 139.487C74.3353 143.45 27.5462 160.591 43.1348 154.922C48.2527 153.061 53.2415 151.966 57.7359 149.061C78.2285 139.459 132.503 121.162 157.572 109.444C208.711 84.2047 226.473 75.3718 280.34 50.6638C282.968 49.5914 302.855 41.2708 292.313 36" stroke="black" stroke-width="4" stroke-linecap="round"/>
<path d="M68.0478 91.9295C58.3594 90.2212 78.0721 85.1465 80.9901 83.8755C96.4348 77.1484 112.395 71.7086 127.86 65.029C134.068 62.3477 141.285 59.9529 146.167 55.3793" stroke="black" stroke-width="4" stroke-linecap="round"/>
<path d="M182.421 45.2439C185.045 45.2439 185.425 44.8635 185.425 42.2402" stroke="black" stroke-width="4" stroke-linecap="round"/>
<path d="M347.47 210.676C346.46 210.473 349.333 209.908 350.331 209.668C358.488 207.708 344.287 212.318 352.012 209.431C353.43 208.901 379.633 190.646 370.202 187.248C356.539 182.325 324.127 189.988 319.099 204.08C314.78 216.184 386.839 221.294 397.427 224.233C404.537 226.207 414.313 229.47 419.278 234.31C426.652 241.498 409.41 251.096 403.719 254.28C378.406 268.442 335.104 268.418 305.79 265.639C286.467 263.806 260.267 257.226 256.368 239.348C251.301 216.109 281.352 194.135 300.07 180.263C326.755 160.487 355.309 142.346 385.872 126.582C409.061 114.622 411.183 112.337 439.604 110.269C493.217 106.366 495.617 173.132 494.059 200.041C492.374 229.159 487.513 258.003 485.365 287.066C484.818 294.462 483.318 309.812 489.026 294.578" stroke="black" stroke-width="4" stroke-linecap="round"/>
<path d="M357.368 288.615C358.17 284.535 364.084 290.9 365.118 291.901C374.045 300.547 367.022 304.931 361.243 313.264" stroke="black" stroke-width="4" stroke-linecap="round"/>
</svg>
