<svg width="464" height="350" viewBox="0 0 464 350" fill="none" xmlns="http://www.w3.org/2000/svg">
<path d="M112.386 207.318C113.001 207.318 107.677 206.617 110.717 209.488C125.849 223.779 150.748 213.719 165.2 203.897C181.435 192.864 206.459 163.284 182.638 146.578C155.351 127.441 120.654 133.054 90.4423 140.487C74.3353 144.45 27.5462 161.591 43.1348 155.922C48.2527 154.061 53.2415 152.966 57.7359 150.061C78.2285 140.459 132.503 122.162 157.572 110.444C208.711 85.2047 226.473 76.3718 280.34 51.6638C282.968 50.5914 302.855 42.2708 292.313 37" stroke="black" stroke-width="4" stroke-linecap="round"/>
<path d="M68.0478 92.9295C58.3594 91.2212 78.0721 86.1465 80.9901 84.8755C96.4348 78.1484 112.395 72.7086 127.86 66.029C134.068 63.3477 141.285 60.9529 146.167 56.3793" stroke="black" stroke-width="4" stroke-linecap="round"/>
<path d="M182.421 46.2439C185.045 46.2439 185.425 45.8635 185.425 43.2402" stroke="black" stroke-width="4" stroke-linecap="round"/>
<path d="M277.47 211.676C276.46 211.473 279.333 210.908 280.331 210.668C288.488 208.708 274.287 213.318 282.012 210.431C283.43 209.901 309.633 191.646 300.202 188.248C286.539 183.325 254.127 190.988 249.099 205.08C244.78 217.184 316.839 222.294 327.427 225.233C334.537 227.207 344.313 230.47 349.278 235.31C356.652 242.498 339.41 252.096 333.719 255.28C308.406 269.442 265.104 269.418 235.79 266.639C216.467 264.806 190.267 258.226 186.368 240.348C181.301 217.109 211.352 195.135 230.07 181.263C256.755 161.487 285.309 143.346 315.872 127.582C339.061 115.622 341.183 113.337 369.604 111.269C423.217 107.366 425.617 174.132 424.059 201.041C422.374 230.159 417.513 259.003 415.365 288.066C414.818 295.462 413.318 310.812 419.026 295.578" stroke="black" stroke-width="4" stroke-linecap="round"/>
<path d="M287.368 289.615C288.17 285.535 294.084 291.9 295.118 292.901C304.045 301.547 297.022 305.931 291.243 314.264" stroke="black" stroke-width="4" stroke-linecap="round"/>
</svg>
