<svg width="480" height="350" viewBox="0 0 480 350" fill="none" xmlns="http://www.w3.org/2000/svg">
<path d="M79.8173 99.641C81.7557 99.1219 80.3544 100.237 82.1833 99.3593" stroke="black" stroke-width="5" stroke-linecap="round"/>
<path d="M22.3036 126.137C19.9087 126.011 32.5452 119.515 33.3728 119.11C42.6513 114.566 52.1888 109.93 61.982 106.596" stroke="black" stroke-width="4" stroke-linecap="round"/>
<path d="M230.293 187.571C229.484 187.369 240.784 183.803 241.583 183.563C248.115 181.604 254.36 179.213 260.546 176.326C261.681 175.797 274.662 167.541 267.111 164.143C256.171 159.22 220.602 163.883 216.575 177.975C213.117 190.08 270.816 195.189 279.294 198.128C284.988 200.102 292.816 203.366 296.791 208.205C302.695 215.393 288.89 224.991 284.333 228.175C264.064 242.337 229.391 242.314 205.919 239.534C190.446 237.702 169.467 231.121 166.345 213.243C162.288 190.004 186.35 168.03 201.339 154.158C222.705 134.382 246.592 112.415 279.294 109.5C321.722 105.717 362.671 131.5 362.671 173.937C361.321 203.054 361.428 231.898 359.709 260.962C359.271 268.358 358.07 283.707 362.64 268.473" stroke="black" stroke-width="4" stroke-linecap="round"/>
<path d="M267.324 272.069C268.348 267.976 273.898 276.363 275.218 277.367C279 282.5 279.649 288.441 272.271 296.803" stroke="black" stroke-width="4" stroke-linecap="round"/>
<path d="M39.3025 171.506C44.4999 184.5 40.4999 209 61.3364 217.915" stroke="black" stroke-width="4" stroke-linecap="round"/>
<path d="M61.2892 170.039C67.4863 176.944 73.0342 203.951 81.8099 207.579C96.6447 213.713 136.723 209.779 152.212 209.045C196.415 206.95 330.044 209.38 374.355 209.38C458 214.5 442.5 118 437.355 60.5" stroke="black" stroke-width="4" stroke-linecap="round"/>
</svg>
