<svg fill="none" height="559" viewBox="0 0 552 559" width="552" xmlns="http://www.w3.org/2000/svg"><g stroke="#000" stroke-linecap="round" stroke-width="3"><path d="m176.974 38.6009c-.358.2605-1.465.9199-1.867.3333-.729-1.0662 4.73-5.5517 5.134-5.9334 10.758-10.1601 22.756-19.0778 34.534-28.0008"/><path d="m205.879 32c-.299.2661-1.289.6-.6.6"/><path d="m179.899 116.326c2.539-.685 4.046-1.465 7.542 0 6.4 2.682 9.254 8.662 8.268 13.997-1.592 8.614-4.025 12.024-13.271 19.818"/><path d="m207.899 133.141h1.2"/><path d="m188.423 227.218h-.6"/><path d="m202.823 227.818v-.6"/><path d="m193.8 333.728c-1.478 7.39-16.875-.231-13.234-8.033 3.224-6.908 13.687-2.832 16.467 2.233 2.94 5.355-4.939 8.579-8.633 10"/><path d="m209.011 329.928c.25 1.033 1.038.481 0 1"/><path d="m172.244 430.453c-4.73.189-4.779 11.243.933 10.334 7.387-1.175 14.425-8.967 19.667-13.667 9.445-8.469 18.722-16.917 28.601-24.868"/><path d="m216.226 431.453c-.17-1.019-.252-1.897-1-.4"/><path d="m17.6222 37.6007c-1.6265-2.7108 35.9095-27.0922 35.401-27.6007"/><path d="m26.0288 108.771c1.6689-2.835 8.3835-.145 9.7335.6 5.7297 3.161 9.935 8.822 9.3336 15.667-.653 7.431-6.3321 13.365-10.9336 18.734"/><path d="m33.5 227.304c1.2613-.404 3.6123-.487 2.0667 1.5-1.4047 1.806-1.6603-.291.0667-1.233 1.297-.708 2.1967.859 1.1334 1.466-.568.325-2.0039.036-.8667-.533"/><path d="m42.2943 320.492c.1761-1.408.4772-1.62-1.8667-1.766-5.0443-.316-11.0596 1.424-13.0003 6.6-2.6593 7.091 4.9882 9.125 10.4003 6.767 2.6466-1.154 7.4849-4.605 6.5001-8.134-.8839-3.167-5.6357-2.627-8.0335-2.867"/><path d="m11.2697 426.786c-.8923 1.865-5.77085 12.736-.4 11.333 7.6131-1.989 14.8559-7.179 21.3006-11.333 9.6451-6.218 19.5182-14.95 29.5008-22.601"/><path d="m1.73659 543.059c6.42037-5.208 13.89001-10.202 20.99351-15.592.1056-.095 3.1969-2.33 2.7362-.736-.2695 4.515-.651 6.497-.516 11.181.4629 16.067 16.8444-.584 21.9741-5.028 9.5248-9.339 14.6943-16.093 21.2912-27.454"/><path d="m356.522 333.133c4 3.367 16.086-2.354 12.445-10.156-4.945-8.977-13.686-2.832-16.467 2.233-2.94 5.355 4.939 8.58 8.633 10"/><path d="m340.522 332.21c-.25 1.034-1.038.481 0 1"/><path d="m340.522 322.21c-.25 1.034-1.038.481 0 1"/><path d="m516.522 337.206c4 3.366 16.086-2.354 12.445-10.157-4.945-8.977-13.686-2.832-16.467 2.233-2.94 5.355 4.939 8.58 8.633 10.001"/><path d="m500.522 331.283c-.25 1.033-1.038.48 0 1"/><path d="m496.156 41.5927c-4.609-.3223 6.655-9.1583 7.723-10.0862 6.886-5.9865 14.226-11.3418 21.677-16.5954 3.081-2.1723 6.743-4.005 8.468-7.36082"/><path d="m501.153 11c-.532.4655-.316.2843-.6 0"/><path d="m481.257 545.65c-.663 2.807 1.041.603 3.119-1.024 6.511-5.095 13.085-10.149 19.3-15.604.107-.094 4.6-4.047 4.111-2.461-1.329 4.319-3.109 8.066-3.056 12.752.183 16.072 17.834-.1 22.059-4.644 8.705-9.362 16.909-20.551 22.721-31.986"/><path d="m493.658 515.889c1.293-.827-.91-.2.6-.2"/></g></svg>