<svg width="3012" height="814" fill="none" xmlns="http://www.w3.org/2000/svg"><path d="M1177 155c-6 2-8 12-3 19 3 5 7 7 10 4l7-4c5-2 5-3 6-8 0-4 0-6-3-8-3-4-12-5-17-3ZM400 233c-4 4-4 5-3 11l2 14 2 17c-1 54-1 86 1 93 2 13 1 22-2 27s-6 7-18 9l-15 3-18 2c-11 0-12 0-17-3-4-3-4-4-4-8l3-9c3-3 3-4 1-5-1-1-1-1 1-1 4 1 5-2 3-7l-2-5c0-3-15-1-24 4l-11 5-6 3-6 4c-3 0-15 7-19 12l-6 4c-2 0-5 1-6 3-2 2-6 6-10 7-6 3-10 9-10 15 0 3 7 9 10 9 2 0 13-10 13-12s17-19 22-21c3-1 5-3 5-4 1-3 12-6 15-5 1 1 3 0 5-1 4-3 4-2 6 9 1 7 5 14 8 14l5 1c6 3 11 4 19 3a507 507 0 0 1 36-5l5-1c1 1 3 0 5-1l6-2 5-2 3-1 3-3 4-5c2-3 3-6 3-15a312 312 0 0 0-2-49c1 0 2-2 2-7l-2-6-1-1c-1-1 0-2 1-2 1-1 2-5 1-19a164 164 0 0 1 3-36l2-20c2-12 0-16-8-16-6-1-7 0-10 3ZM2576 231l-7 2-15 2-15 1c-3 0-9 1-13 3l-10 2-10 2-23 5-8 3-8 2-4 1-7 3-10 4-16 8a94 94 0 0 0-21 10c-6 3-8 6-3 5 8-1 11-2 14-4 2-2 5-3 7-3l6-2 3-3 6-3 7-3 4-3 8-1c5 1 8 0 12-2 8-4 18-7 24-7l6-1c2-2 19-4 25-4l9-1 9-2 20-1h20c3-2 10-1 34 1a61 61 0 0 1 18 4l14 5 12 5c1 0 2 0 3 2l2 1c2-1 9 5 11 10 5 13 14 12 14-2 0-5 0-6-3-8a248 248 0 0 0-21-13l-7-4-9-3c-7-5-15-7-19-7-2 1-4 0-5-1l-26-2a104 104 0 0 1-28-1Z" fill="#000"/><path fill-rule="evenodd" clip-rule="evenodd" d="m1239 269 10-2 22 1c24 3 30 8 21 19l-4 4-8-2-16-4a340 340 0 0 0-82 2l-18 1-15 1c-2 2 8 29 12 32l1 4c-1 1 1 5 3 10l6 17 5 12 3 10 1 7 1 3 2 6 10 29 5 14 3 9c0 5 3 13 5 13l6-8a238 238 0 0 1 15-21l2-3 15-19c1-3 9-7 12-6h2c-1-2 5-7 7-7l4-2c1-2 11-7 18-8 22-4 30-2 38 14 2 6 4 6 7 0l4-5 9-7c10-8 13-10 16-10h6c5 1 11 2 14 4 6 3 20 18 20 21 0 2 3 6 7 9 7 7 7 7 10 5l3-4c0-4 23-25 27-24 3 1 11-5 12-7s3-2 6-2l9-3c4-2 4-2 7 2 4 5 4 14 0 18-3 2-4 2-11 1l-8-1-11 7c-13 9-20 16-24 25-4 10-11 18-15 19-2 0-3-2-5-6a175 175 0 0 0-30-48c-6-4-16-3-22 1l-7 5c-4 2-6 5-10 16-2 4 0 9 2 13l3 8-1 4c-1 3-1 4-3 5 0 3-9 15-13 18-5 6-21 6-24 2-2-3-2-4 1-10l4-9c4-7 6-15 5-30 0-8 0-8-6-14-6-7-10-8-16-4l-10 4-12 5a189 189 0 0 0-36 32c-1 0-2 1-2 3 1 2 0 3-2 4-2 0-4 3-5 5l-3 6-5 9c-5 9-5 9-3 17l2 8 8 1a612 612 0 0 0 100-3 2198 2198 0 0 0 76-4c48-2 57-2 60-4l20-2 32-3a409 409 0 0 1 54-4h10l21-2 32-1c12 0 15 0 18-2s4-2 7-1l6 2c7 0 8 7 4 16-4 6-6 7-11 5-7-4-13-5-38-4a1249 1249 0 0 0-171 11l-20 1c-25 0-35 0-36 2h-50a404 404 0 0 1-44 2l-6 2c-6 2-51 2-59 1-7-1-7-1-10 3-1 2-2 4-1 5 2 3 4 15 6 31l2 16-1 5-3 19-3 17-2 4c2 2-7 26-9 27l-3 4c0 2-10 8-13 8l-5-5c-5-5-8-16-10-29a388 388 0 0 1 10-86c2-16 2-17-12-18l-19-2c-17-3-42-4-73-5-42 0-50-2-61-13l-4-4-3 3-5 10-5 7-3 4-10 12c-6 5-9 7-12 7s-4-1-7-6c-3-6-3-6 0-9l7-6 6-6 5-7 8-10 3-5 4-6c5-6 6-8 6-17 0-7 2-13 4-18 3-6 4-7 9-8 5-2 5-2 7 3 2 4 2 6 0 12-3 11-4 17-2 18l2 5c0 7 3 11 11 15l8 4h31a369 369 0 0 1 38 2l51 6c21 3 22 3 24-1 3-7 3-12 1-21l-3-9c1-1-1-7-5-14l-7-21-7-20-2-12-3-10-3-10-3-8c-2-2-2-4-2-7 1-4 0-5-4-8l-4-5-14-29-9-12c-9-6-11-17-5-21l3-3h5a266 266 0 0 0 50-2l9-2h5a2341 2341 0 0 0 26-2l17-1Zm-33 249-3-13c1-3 1-4-1-4l-3 8-3 12-2 18a335 335 0 0 1-4 54c-1 10 0 14 2 18 1 4 3 6 4 6 2 0 9-19 10-28l2-10c2-11 4-27 2-30l-1-12c0-7-1-13-3-19Zm121-89 1 8-5 8 2-8 2-8Z" fill="#000"/><path d="M2796 255a422 422 0 0 0-33 41l-9 11-10 13c-7 9-8 15-2 15a480 480 0 0 1 74-75v-9c1-3 1-3-4-3l-7-1c-1 0-5 3-9 8ZM811 279c-6 3-9 4-14 3l-8 1-5 2a268 268 0 0 0-52 6c-15 1-21 2-22 4l-8 1-13 2-7 1c-2-2-19 1-22 3l-10 1-10 2-9 2-7 2-5 1h-5c0 1-3 2-7 2l-17 3-17 5c-7 1-16 4-26 8l-8 3c-3 0-19 7-24 10-2 2-5 3-7 3-4 0-4 1-5 4 0 6 3 9 11 9l7-1c1-1 6-2 13-2l12-1 27-1h30c2 2 11 3 27 3a241 241 0 0 1 43 4l10 2h7c5-1 7-1 11 1 4 3 20 6 27 7l2 1c3 1 18 6 19 5l2 2 5 2c2 0 9 2 14 5 6 3 13 6 16 6l6 3c0 1 1 2 3 2 1 0 8 2 15 6l16 7 4 4c2 5 1 6-9 11-7 4-11 5-22 7l-10 4-16 5a291 291 0 0 0-32 7l-9 2c-3 2-11 3-20 4l-12 2a1377 1377 0 0 0-82 11l-28 1c-16 2-80 1-115-1a989 989 0 0 0-138-1l-63 3h-55c-39-1-43-1-48-3-2-2-6-3-7-3-2 0-6-1-8-3-4-3-6-5-7-9-2-6-3-36-2-38v-4l-2-6c1-1-1-3-3-4-5-4-9-2-12 6l-11 14-10 13-4 5-2 3-1 2-4 4c-3 6-23 27-26 27-2 0-13 13-13 16 0 5 5 10 9 10 3 0 6-2 14-9l11-13 5-7 4-5 3-5 6-7 17-22 2 12 1 14 2 5c0 2 8 10 13 12l6 3 6 2c2 0 7 1 9 3 5 2 10 2 45 1a364 364 0 0 1 62 0h10l20-1 6-1h7c2-1 17-2 40-2a328 328 0 0 0 43-2l32 1 40 2a1220 1220 0 0 0 182-5l17-2 20-2 15-3 13-3 13-2c2-2 8-3 17-5l6-1 7-1c3 1 5 0 6-1l4-1 5-1c1-2 13-6 21-6l10-3 21-8c12-4 19-19 14-27-3-5-8-9-13-11l-21-10-18-7-16-7a88 88 0 0 0-23-9l-14-3-9-3a427 427 0 0 0-77-9l-24-3a750 750 0 0 0-82-1c-1-3 3-6 10-6l11-3 7-2 4-1 3-1c1 0 5 0 8-2s7-3 10-3c2 1 6 0 7-1 2-2 5-2 6-2l7-2 15-2c7 0 11 0 12-2 2-2 13-4 26-5l10-2 4-1 4-1 20-2 10-1c3-2 9-3 14-3l15-2 15-2 9-1h5l6-1 7-3 30-5c3 1 4 0 4-3 2-11-2-13-14-6Z" fill="#000"/><path fill-rule="evenodd" clip-rule="evenodd" d="m2561 319-14 2h-2a653 653 0 0 1-36 6c-3 0-8 1-11 3-5 2-7 3-8 2h-5l-7 1c-4 0-11 2-37 13l-13 5a622 622 0 0 0-99 47 122 122 0 0 0-31 27l-1 2-4 9c-14 22-10 37 14 55l9 4 8 3 16 6a413 413 0 0 1 39 11l11 3c17 6 61 10 68 6l5-1c2 0 15-8 18-12 3-3 7-11 7-14s-6-9-14-13l-1-1-18-9-16-4h-3a60 60 0 0 1-18-5l-1-1c0-1 3-3 9-4l13-3a393 393 0 0 1 28-7l20-4 11-3 10-3 10-1 7-2c8 0 12-8 6-13-3-3-4-3-10-2l-10-1h-5c-2 2-17 3-50 4a233 233 0 0 0-39 4 793 793 0 0 0-63 15c-11 3-13 5-13 12 0 3 1 4 7 7 9 4 16 5 53 10l41 7c11 2 17 5 23 10l6 3 4 3c2 2 2 2-1 6-1 2-6 5-11 7-7 4-9 4-26 5l-20-1c-1-2-4-2-11-2-10 0-25-3-33-7l-9-1-6-3c-2-2-4-3-8-3s-8-1-13-4l-10-4c-4 0-17-6-17-8l-5-4c-5-2-7-6-9-16 0-4 0-8 4-13l3-8c7-15 21-28 39-37l9-6 2-2c3 0 22-10 25-13l6-3c2 0 6-1 8-3l7-3c1 1 6-2 11-4l14-6 11-4c5-3 10-4 12-4l6-3 7-2c2 1 6-1 10-3l9-3 7-2c3-1 10-3 17-3l18-3c3-2 8-3 13-3l20-1a502 502 0 0 1 56 0l4 3 7 5 6 5v15c0 15 0 15-4 23-2 4-6 10-9 12l-20 19c-10 11-11 14-13 23-1 11 1 19 7 23l4 3 15-5 5-6 2-2c2-3 7-7 10-13 6-12 4-18 2-23v-7c4-9 15-13 37-15h10l6 6 8 5 1 4 3 7c1 2 3 10 5 26 2 14 3 16 7 15 5 0 8-3 9-8 2-10 22-33 34-40l7-4a167 167 0 0 1 39-15l12-1c8 1 9 2 12 5l3 10c1 3-2 5-6 7s-7 3-11 7c-7 7-7 18-6 24 0 5 1 6 8 11a41 41 0 0 0 26 3l6-1c6-1 8-15 7-23 0-3-2-6-3-7l-3-7c-1-5-1-6 2-9 7-6 15-10 25-13l15-5c5-2 8 0 8 5-1 4 5 16 10 20 3 3 4 3 3 8-2 5 0 22 2 25l1 8c0 3 0 7 2 9l1 5c-1 1 0 7 1 13 2 9 2 17 1 32v19l4 4c5 5 8 5 12 0 3-4 3-6 3-18 0-11 1-14 3-18l3-7c0-3 5-6 9-6 2 0 6-1 7-3 3-2 4-3 3-9 0-9 0-10-6-11-5-1-10 2-19 9l-7 5-2-6c0-3 0-7-2-9l-2-15-1-13-1-3c1-1 0-3-1-5-1-3-2-6-1-7 1-4-2-15-4-16s-2-2-2-4l-3-7-3-9c-2-8-6-10-17-8l-13 2-11 4c-6 2-10 4-15 8-5 5-7 6-9 5l-1-3-3-8c-3-6-4-7-9-8l-6-3c0-2-2-3-3-1l-24 4c-5 0-25 7-37 13-7 4-13 8-24 19l-14 16-4 2c-4 0-4-1-5-6-1-6-11-25-14-29-9-10-31-15-44-11-5 2-6 2-7 0-2-3-2-8 0-17 1-6-1-16-5-25-2-4-4-5-14-11l-13-5-7-2-16-1-13-1h-9Zm-138 121-2 2c-6 0-11 3-15 8-3 3-5 6-4 7 2 5-4 7-11 3-3-2-10-3-21-3-11-1-6-7 7-9a270 270 0 0 0 22-6l4-2c1 1 5 0 9-1 8-2 11-2 11 1Zm174-2 2-5 5-7 5-4v5l-2 5-2 4-4 3-2 3-2 2v-6Zm224-14 2 5v8l-4 1h-3l-1-1v-5l1-3 5-5Z" fill="#000"/><path d="M1959 402c-2 1-4 5-5 9-2 5-4 10-9 15l-9 9c-1 0-5 4-7 8l-6 8 3 5c2 3 3 5 7 5 3 0 4 0 8-5l11-12c3-4 7-8 7-10 1-3 4-3 15 4l11 6 6 3a603 603 0 0 0 82 5c2 2 0 2-19 4l-22 2-19 2-17 3-10 1-9 2-14 3a364 364 0 0 0-74 17c-3 0-10 2-15 5l-12 4-9 3-15 6-13 5-8 3-7 2-6 2c-1 0-4 1-5 3l-4 2-11 5-11 5-6 3-31 15-32 15-11 7-10 6c-1 2-11 8-13 8l-4 2-4 2-5 4c-1 1-3 3-5 3l-4 2c-3 4-15 13-16 13l-15 13-15 13-6 12c0 2 2 7 5 9l7 2c4 0 6-1 11-6s6-7 5-9c-3-5-2-7 5-13l10-10 6-3 11-10c6-6 12-11 14-11 4-1 15-8 20-14l7-3c2 0 5-1 7-3l6-3 6-3a1043 1043 0 0 1 216-85c3-1 22-5 38-6l10-2 12-1 11-3c4-2 6-2 11-2l8 1c5-2 23-5 33-5 22 0 48-4 49-7 0-1 1-1 3 1h24c19-2 20-2 24-6s4-6-2-11c-3-2-7-3-18-4a597 597 0 0 1-42-3c-2-1-12-2-51-2-30-1-36-1-44-5l-9-3c-2 0-10-8-13-13l-2-7-3-6c-4-4-8-4-12-1Z" fill="#000"/><path fill-rule="evenodd" clip-rule="evenodd" d="m2552 502 6-1h6l12 1c9 1 13 5 15 14 1 5 0 6-5 12-3 4-7 7-10 8l-22 8c-8 4-14 3-19-1-3-4-4-6-4-11 0-7 1-8 5-12l8-4c3 0 4-2 4-8 0-5 0-5 4-6Zm16 18-5 5-5 3-4-2-2-1 5-4 4-2 5-2 4-1v2l-2 2Z" fill="#000"/><path d="M990 543c-3 3-12 9-14 9l-10 7-9 6-3 2-4 2-4 1c-1 2-4 4-8 5-5 3-5 3-5 10l-1 7 6 3c6 2 7 2 9 1a807 807 0 0 0 47-42c3-3 3-5 2-9-1-5-2-6-6-2ZM1964 549l-9 6c-4 4-4 5-3 11l2 9 8 1c6 0 7 0 10-5s3-6 2-10l-5-14-5 2ZM102 552c-2 2-4 4-4 6 0 3 4 15 6 16h13c11-1 11-1 13-5 2-6 1-10-2-10l-4-3c-2-2-8-5-13-6-3 0-6 0-9 2ZM278 567l-4 4c-2 5-2 14 0 18 4 4 11 4 16-1 2-2 4-4 6-4 3-1 4-1 5-6s0-5-5-8l-6-3c-1-2-8-1-12 0Z" fill="#000"/></svg>