<svg width="3012" height="814" viewBox="0 0 3012 814" fill="none" xmlns="http://www.w3.org/2000/svg">
<path d="M1177.4 154.908C1170.87 157.442 1169 166.642 1173.53 174.108C1176.6 179.042 1180.87 180.775 1183.53 178.242C1184.47 177.175 1187.67 175.308 1190.73 173.975C1195.53 171.842 1196.2 170.908 1196.73 165.975C1197.13 161.708 1196.73 159.842 1194.47 157.708C1191.13 154.375 1182.47 152.908 1177.4 154.908Z" fill="black"/>
<path d="M399.8 233.042C396.467 236.509 396.2 237.575 396.733 244.109C397.133 247.975 398.2 254.109 399.133 257.842C400.067 261.442 400.867 269.042 400.733 274.509C400.067 328.909 400.333 360.509 401.533 367.842C403.8 381.309 403.4 389.709 400.333 394.909C397.267 400.109 394.2 401.575 381.667 403.842C376.867 404.642 370.333 405.975 367 406.775C363.667 407.575 355.533 408.509 349 408.775C338.067 409.309 336.6 409.042 332.333 406.109C328.333 403.442 327.667 402.242 327.8 398.242C327.933 395.575 329.267 391.575 331 389.175C333.533 385.575 333.667 384.642 332.2 383.575C330.867 382.642 331.133 382.509 333.133 383.175C337 384.242 338.333 380.509 335.667 376.375C334.6 374.642 333.667 372.509 333.667 371.442C333.667 367.975 319.267 370.242 309.933 375.309C305.267 377.842 300.333 379.842 299 379.842C297.667 379.842 294.733 381.309 292.6 383.175C290.333 385.042 287.933 386.509 287 386.509C284.333 386.509 272.2 394.375 268.2 398.642C266.2 400.775 263.267 402.509 261.667 402.509C260.067 402.509 257.4 404.242 255.667 406.242C253.933 408.375 249.667 411.575 246.333 413.309C240.333 416.375 236.333 422.109 236.333 427.575C236.333 430.509 243 437.175 245.8 437.175C248.467 437.175 259 427.442 259 425.042C259 422.642 276.467 406.375 281.267 404.375C283.533 403.309 285.8 401.442 286.2 400.109C287.133 397.442 297.533 393.975 300.867 395.309C301.933 395.709 304.333 395.042 306.067 393.842C309.933 391.309 310.067 391.575 311.533 402.509C312.6 410.242 316.733 417.175 320.333 417.175C321.8 417.175 324.067 417.709 325.4 418.375C330.733 421.042 336.2 421.842 344.333 421.042C349.133 420.509 358.333 419.709 364.867 419.309C371.533 418.775 377.933 417.575 379.667 416.375C381.267 415.309 383.533 414.775 384.733 415.309C385.933 415.709 388.2 415.175 389.933 413.975C391.533 412.775 394.2 411.842 395.933 411.842C397.533 411.842 399.667 411.042 400.6 410.109C401.533 409.042 403 408.509 403.933 408.775C404.733 409.042 406.2 407.975 407.133 406.242C407.933 404.509 409.8 401.975 411 400.509C412.867 398.375 413.533 395.175 413.8 385.842C414.2 371.975 413 346.109 411.667 340.775C411 338.509 411.267 337.175 412.2 337.175C413.133 337.175 413.667 334.509 413.667 330.375C413.667 326.775 413.133 323.975 412.467 324.375C411.8 324.775 411 324.375 410.6 323.309C410.2 322.242 410.6 321.042 411.667 320.642C413.133 320.109 413.533 316.109 413.4 301.575C413.4 291.442 413.8 281.709 414.333 279.842C414.867 277.975 415.8 271.709 416.333 265.842C417 259.975 417.8 251.175 418.333 246.375C419.667 234.242 417.667 230.375 409.533 229.709C404.333 229.175 403 229.709 399.8 233.042Z" fill="black"/>
<path d="M2576.07 230.642C2575.27 231.442 2572.07 232.242 2568.87 232.509C2565.67 232.909 2558.87 233.709 2553.67 234.509C2548.6 235.309 2541.93 235.975 2539 235.975C2536.07 236.109 2530.2 237.309 2525.8 238.642C2521.53 240.109 2517.13 241.175 2515.8 241.042C2514.6 240.775 2510.33 241.709 2506.33 242.775C2495.53 245.975 2486.73 247.842 2483 247.842C2481.27 247.842 2477.8 249.042 2475.4 250.509C2473 251.975 2469.4 253.175 2467.4 253.175C2465.4 253.175 2463.53 253.709 2463.13 254.375C2462.73 255.042 2459.4 256.242 2455.67 257.175C2452.07 258.109 2447.67 259.842 2446.07 261.042C2444.33 262.375 2437.13 265.709 2429.93 268.509C2422.73 271.309 2416.6 274.109 2416.2 274.642C2415.8 275.309 2412.6 277.175 2409 278.775C2402.6 281.709 2400.6 284.909 2405.8 284.109C2414.33 282.642 2416.73 281.842 2419.93 279.709C2421.8 278.242 2425.13 277.175 2427.27 277.175C2429.53 277.175 2431.67 276.109 2432.73 274.509C2433.67 273.042 2435.27 271.842 2436.47 271.842C2437.67 271.842 2440.2 270.775 2442.07 269.309C2444.07 267.975 2447 266.509 2448.6 265.975C2450.07 265.442 2452.07 264.242 2452.87 263.309C2453.8 262.109 2456.47 261.709 2460.73 262.242C2465.67 262.642 2468.6 262.109 2473 259.842C2480.73 255.975 2491.27 252.909 2496.87 253.042C2499.27 253.175 2502.07 252.642 2502.87 251.975C2505 250.375 2522.07 247.575 2528.33 247.975C2531.27 248.109 2535 247.575 2536.6 246.775C2538.2 245.842 2542.47 245.175 2546.2 245.175C2549.93 245.175 2558.87 244.509 2566.2 243.709C2576.6 242.509 2580.07 242.509 2581.53 243.709C2583 245.042 2584.2 245.042 2586.33 243.842C2589.27 242.242 2595.53 242.509 2619.8 245.042C2626.2 245.575 2632.2 246.642 2633 247.175C2633.93 247.842 2636.07 248.375 2637.67 248.509C2639.27 248.775 2645.53 251.042 2651.53 253.709C2657.53 256.375 2663.27 258.509 2664.2 258.509C2665.27 258.509 2666.47 259.442 2666.87 260.642C2667.27 261.709 2668.33 262.242 2669.13 261.842C2671 260.509 2677.8 267.175 2679.8 272.375C2684.73 284.909 2694.33 283.709 2694.33 270.375C2694.33 265.442 2693.8 264.109 2690.6 262.242C2688.6 260.909 2683.93 257.842 2680.07 255.575C2676.33 253.175 2671.8 249.975 2670.07 248.509C2668.33 247.042 2665.13 245.709 2663 245.442C2660.73 245.175 2656.73 243.575 2654.07 241.709C2647.4 237.442 2639.13 234.775 2635 235.442C2633.13 235.842 2630.73 235.309 2629.53 234.375C2627.93 233.042 2621.27 232.509 2604.2 232.375C2589.4 232.242 2580.47 231.709 2579.27 230.775C2578.07 229.709 2577 229.709 2576.07 230.642Z" fill="black"/>
<path fill-rule="evenodd" clip-rule="evenodd" d="M1238.9 268.775C1243.97 268.375 1248.23 267.842 1248.63 267.442C1249.7 266.509 1259.7 266.642 1270.5 267.975C1294.77 270.909 1300.63 276.109 1291.97 286.509L1288.1 291.175L1279.7 288.775C1275.03 287.442 1267.83 285.842 1263.83 285.175C1252.63 283.309 1206.5 283.309 1201.97 285.175C1199.57 285.975 1195.17 286.242 1190.9 285.709C1185.97 285.175 1183.17 285.442 1181.83 286.509C1180.37 287.709 1174.9 288.242 1164.37 288.242C1155.97 288.242 1148.77 288.642 1148.5 289.309C1147.3 291.175 1157.3 317.709 1160.63 321.309C1161.83 322.642 1162.37 324.242 1161.83 325.042C1161.43 325.842 1162.9 330.375 1165.17 335.175C1167.43 339.975 1170.23 347.309 1171.3 351.575C1172.37 355.709 1174.5 361.175 1175.97 363.575C1177.43 366.109 1178.5 370.509 1178.5 373.842C1178.5 377.042 1179.17 380.109 1179.83 380.509C1180.63 380.909 1181.17 382.509 1181.17 384.109C1181.17 385.575 1181.97 388.375 1183.03 390.242C1185.03 394.109 1189.43 406.642 1193.03 419.175C1194.37 423.575 1196.77 429.842 1198.23 433.175C1199.83 436.509 1201.17 440.642 1201.17 442.375C1201.17 446.909 1204.1 454.509 1205.83 454.509C1206.5 454.509 1209.3 451.309 1211.83 447.442C1215.83 441.442 1219.57 436.242 1223.7 431.042C1224.23 430.375 1225.57 428.242 1226.5 426.375C1227.43 424.642 1228.63 422.909 1229.17 422.509C1231.17 421.042 1243.43 405.709 1244.23 403.575C1245.3 400.509 1252.9 396.775 1256.1 397.575C1257.57 397.975 1258.37 397.975 1257.97 397.575C1256.63 396.242 1262.77 390.509 1265.3 390.509C1266.63 390.509 1268.1 389.842 1268.5 389.175C1269.97 386.775 1280.23 382.109 1286.5 380.909C1309.43 376.642 1317.3 379.442 1324.5 394.909C1327.17 400.642 1329.03 400.775 1331.83 394.909C1332.9 392.642 1334.77 390.375 1335.97 389.709C1337.17 389.042 1341.43 385.975 1345.3 382.909C1354.77 375.488 1357.52 373.087 1360.59 372.6C1362.31 372.325 1364.13 372.658 1367.3 373.042C1371.57 373.575 1377.57 375.309 1380.63 376.909C1387.03 380.109 1401.17 394.909 1401.17 398.242C1401.17 399.575 1404.37 403.709 1408.23 407.442C1414.77 413.842 1415.3 414.109 1418.23 412.242C1419.83 411.042 1421.17 409.309 1421.17 408.242C1421.17 403.575 1443.97 383.309 1448.23 384.109C1450.5 384.509 1459.43 378.775 1460.37 376.509C1460.77 375.309 1462.9 374.509 1465.97 374.509C1468.63 374.509 1472.5 373.442 1474.77 372.109C1478.63 369.842 1478.77 369.842 1481.97 373.575C1486.37 378.642 1486.37 387.575 1482.1 391.575C1479.3 394.242 1478.37 394.375 1470.9 393.175L1462.63 391.842L1452.37 398.775C1438.77 407.975 1432.1 414.909 1428.23 423.842C1423.57 434.375 1417.17 442.375 1413.43 442.509C1411.3 442.509 1409.97 441.175 1408.37 437.442C1402.23 423.042 1392.77 405.709 1388.23 400.909C1386.77 399.175 1385.03 396.642 1384.63 395.042C1384.23 393.575 1381.3 390.909 1378.37 389.309C1371.57 385.442 1361.57 385.975 1356.1 390.375C1354.1 391.975 1350.63 394.109 1348.5 395.309C1345.17 397.042 1343.3 399.975 1338.63 410.909C1336.88 415.181 1339.36 420.109 1341.48 424.317C1343.06 427.463 1344.44 430.207 1343.7 431.975C1343.09 433.428 1342.89 434.865 1342.7 436.152C1342.36 438.525 1342.09 440.39 1339.5 440.909C1339.5 444.242 1330.63 455.575 1326.77 459.442C1321.7 464.909 1306.37 465.309 1303.3 460.642C1301.43 457.575 1301.43 456.909 1303.97 450.909C1305.43 447.442 1307.17 443.442 1307.97 442.109C1312.1 434.509 1313.57 426.642 1313.3 412.109C1313.17 404.109 1312.9 403.575 1307.17 397.842C1300.77 391.309 1296.63 390.375 1291.17 393.975C1289.43 395.042 1284.9 396.909 1281.17 397.842C1277.57 398.775 1271.83 401.175 1268.77 402.909C1261.83 407.042 1237.57 429.709 1236.5 433.042C1236.1 434.375 1234.77 435.442 1233.43 435.309C1231.83 435.175 1231.3 436.109 1231.43 438.109C1231.7 439.975 1230.9 441.309 1229.03 441.842C1227.43 442.375 1225.43 444.775 1224.37 447.175C1223.43 449.709 1221.83 452.109 1221.03 452.509C1220.23 453.042 1217.83 457.309 1215.57 462.109C1211.43 470.642 1211.43 470.775 1213.3 478.909L1215.17 487.175L1223.17 488.109C1231.03 488.909 1272.77 488.375 1283.17 487.175C1290.63 486.375 1304.5 485.442 1323.3 484.642C1332.1 484.242 1344.77 483.575 1351.3 483.175C1357.83 482.775 1379.03 481.842 1398.5 481.042C1447.17 479.175 1455.97 478.509 1459.17 476.909C1460.63 475.975 1469.7 475.175 1479.17 474.909C1488.77 474.642 1502.77 473.442 1510.5 472.375C1518.23 471.309 1532.37 470.242 1541.83 469.842C1551.43 469.575 1561.83 468.909 1565.17 468.375C1568.5 467.975 1573.03 467.575 1575.17 467.709C1577.43 467.842 1586.63 467.175 1595.83 466.375C1605.03 465.442 1619.3 464.909 1627.57 465.042C1639.83 465.309 1643.3 464.909 1646.1 463.175C1648.77 461.309 1650.1 461.175 1652.77 462.375C1654.5 463.175 1657.3 463.842 1658.9 463.842C1665.57 463.842 1667.03 470.775 1662.5 479.975C1659.17 486.375 1657.17 487.309 1652.23 484.775C1644.63 480.909 1638.63 480.242 1613.83 480.509C1578.9 480.909 1539.83 482.375 1536.1 483.175C1534.37 483.575 1526.63 484.242 1518.9 484.642C1511.03 484.909 1504.1 485.709 1503.3 486.375C1502.5 487.042 1499.43 487.575 1496.5 487.575C1493.57 487.575 1482.77 488.375 1472.5 489.309C1462.23 490.242 1451.3 490.909 1448.23 490.775C1445.03 490.642 1442.5 491.042 1442.5 491.575C1442.5 492.242 1433.7 492.775 1422.9 492.642C1397.7 492.642 1387.97 493.175 1387.03 494.775C1386.5 495.442 1382.1 495.709 1376.63 495.175C1366.5 494.375 1357.7 494.375 1336.5 495.175C1311.43 496.109 1308.5 496.109 1301.57 495.842C1297.7 495.575 1293.83 495.975 1292.9 496.775C1291.97 497.575 1289.43 498.509 1287.3 499.042C1281.03 500.509 1235.83 501.309 1228.1 500.109C1221.3 498.909 1221.03 499.042 1218.37 502.775C1216.5 505.309 1215.97 507.175 1216.77 508.242C1218.63 510.642 1220.9 522.776 1222.5 539.042C1223.3 547.042 1224.23 554.109 1224.63 554.775C1225.03 555.309 1224.77 557.842 1223.97 560.242C1223.3 562.509 1221.97 570.775 1221.03 578.509C1220.23 586.242 1218.63 593.842 1217.7 595.575C1216.63 597.175 1215.97 599.042 1216.37 599.709C1217.7 601.709 1209.17 625.575 1206.5 627.442C1205.03 628.509 1203.83 630.242 1203.83 631.175C1203.83 632.909 1193.83 638.509 1190.9 638.509C1190.23 638.509 1187.83 636.509 1185.57 634.242C1181.03 629.309 1177.57 618.242 1176.23 604.909C1175.17 593.309 1179.83 544.242 1182.77 535.175C1183.57 532.909 1184.9 525.442 1185.83 518.509C1188.1 502.909 1187.57 502.242 1174.1 500.775C1168.9 500.242 1160.37 499.175 1155.17 498.509C1137.83 495.975 1112.63 494.509 1081.83 494.375C1040.1 494.109 1031.57 492.242 1021.43 481.309L1017.03 476.509L1014.37 479.842C1013.03 481.709 1010.37 486.375 1008.5 490.109C1006.63 493.975 1004.5 497.175 1003.83 497.175C1003.17 497.175 1001.7 499.042 1000.5 501.175C999.3 503.442 995.033 508.509 990.9 512.509C985.033 518.242 982.367 519.842 979.3 519.842C975.833 519.709 974.767 518.775 972.233 513.709C969.433 508.109 969.3 507.709 971.567 505.042C972.767 503.442 976.1 500.775 978.9 499.042C981.7 497.175 984.367 494.642 984.767 493.442C985.3 492.242 987.7 488.642 990.367 485.709C993.033 482.642 996.367 478.375 997.833 476.109C998.591 474.938 999.883 473.055 1001.32 470.957C1002.67 468.994 1004.14 466.842 1005.43 464.909C1009.83 458.642 1010.5 456.775 1010.9 447.842C1011.3 441.042 1012.5 435.442 1014.77 430.375C1017.83 423.709 1018.77 422.775 1023.57 421.575C1028.9 420.242 1028.9 420.242 1031.03 425.042C1033.03 429.442 1033.03 430.509 1031.17 437.175C1027.97 448.375 1027.3 454.109 1029.03 455.042C1029.83 455.575 1030.5 457.842 1030.5 459.975C1030.5 466.775 1033.83 471.175 1042.1 475.309L1049.83 479.175L1080.5 479.442C1097.43 479.575 1112.63 480.109 1114.5 480.642C1116.37 481.175 1118.5 481.442 1119.17 481.309C1120.77 480.909 1158.1 484.775 1169.83 486.509C1190.77 489.709 1191.57 489.575 1193.57 485.575C1197.17 478.642 1197.3 474.109 1194.63 465.442C1193.03 460.775 1191.97 456.642 1192.1 456.109C1192.5 454.509 1190.5 448.909 1187.17 441.842C1185.43 438.109 1182.1 428.909 1179.83 421.175C1177.57 413.442 1174.63 404.109 1173.17 400.509C1171.7 396.775 1170.5 391.709 1170.5 389.175C1170.5 386.642 1169.3 381.975 1167.97 379.042C1166.63 375.975 1165.03 371.442 1164.5 369.042C1163.97 366.509 1162.63 363.042 1161.57 361.309C1160.37 359.309 1159.83 356.509 1160.23 353.709C1160.9 349.975 1160.37 349.042 1156.37 346.242C1153.97 344.509 1151.83 342.242 1151.83 341.175C1151.7 339.309 1146.77 329.042 1137.57 311.975C1135.17 307.575 1131.03 302.375 1128.5 300.375C1119.7 293.709 1117.57 283.442 1123.97 279.442C1125.3 278.642 1126.5 277.175 1126.5 276.242C1126.5 275.175 1127.97 274.909 1131.57 275.575C1135.97 276.375 1142.37 276.509 1172.5 275.842C1176.9 275.709 1181.3 274.909 1182.37 274.109C1183.43 273.175 1187.3 272.375 1191.03 272.242C1192.17 272.161 1193.91 272.043 1196.03 271.899C1200.88 271.57 1207.71 271.106 1213.83 270.642C1216.4 270.447 1219.19 270.23 1221.97 270.013C1228.71 269.487 1235.41 268.964 1238.9 268.775ZM1205.97 517.575C1204.23 512.375 1203.03 506.642 1203.43 504.642C1203.97 502.242 1203.57 501.175 1202.23 501.175C1200.9 501.175 1199.7 503.709 1198.63 508.775C1197.7 513.042 1196.37 518.642 1195.7 521.175C1195.03 523.709 1194.23 531.842 1193.83 539.175C1192.9 558.642 1191.97 572.109 1191.03 575.842C1190.63 577.575 1190.1 585.175 1189.83 592.509C1189.43 603.309 1189.83 606.909 1191.83 611.442C1193.17 614.642 1195.03 617.175 1195.7 617.175C1198.23 617.175 1205.3 597.975 1205.97 589.175C1206.1 586.642 1206.9 581.842 1207.7 578.509C1210.23 568.375 1211.83 551.575 1210.37 549.042C1209.7 547.709 1209.17 542.242 1209.17 536.775C1209.17 529.975 1208.23 524.109 1205.97 517.575ZM1326.5 428.509C1326.5 428.509 1328.24 433.774 1327.5 437.009C1326.72 440.413 1322.5 445.009 1322.5 445.009L1324.5 436.759L1326.5 428.509Z" fill="black"/>
<path d="M2795.53 254.775C2791.53 259.442 2786.6 265.575 2784.33 268.509C2782.2 271.442 2780.07 274.109 2779.67 274.509C2778.73 275.309 2767.67 289.442 2762.73 296.242C2760.6 299.042 2756.87 303.975 2754.33 307.175C2751.8 310.375 2747.13 316.375 2744.07 320.242C2737.4 328.642 2736.33 334.509 2741.53 334.509C2743.93 334.509 2745.8 332.775 2749.13 327.442C2754.73 318.509 2798.07 275.042 2807.27 269.175C2813.13 265.575 2814.47 263.975 2815.13 259.975C2815.53 257.309 2816.2 253.575 2816.47 251.442C2817.13 247.975 2817 247.842 2811.93 247.842C2809 247.842 2805.67 247.575 2804.73 247.175C2803.53 246.775 2800.07 249.709 2795.53 254.775Z" fill="black"/>
<path d="M811 278.642C805 281.842 802.333 282.509 796.733 282.109C792.867 281.842 789.533 282.242 789.267 282.909C789 283.709 786.733 284.375 784.2 284.509C763.133 285.842 752.2 286.909 747.667 288.109C744.733 288.775 737.8 289.975 732.333 290.509C717.4 292.242 711 293.442 710.2 294.642C709.8 295.309 706.067 295.842 701.933 295.842C697.8 295.842 691.933 296.775 689 297.709C685.933 298.775 682.867 299.175 681.667 298.509C679.667 297.442 663 300.242 659.8 302.109C659 302.642 654.733 303.175 650.467 303.309C646.067 303.575 641.267 304.242 639.8 305.042C638.2 305.709 634.2 306.642 630.733 307.175C627.267 307.575 624.067 308.642 623.533 309.309C623.133 310.109 621 310.242 619 309.842C616.867 309.442 614.867 309.575 614.333 310.375C613.933 311.175 610.6 311.842 607 311.842C603.267 311.842 595.8 313.442 590.067 315.442C584.333 317.309 576.733 319.309 573 319.842C566.067 320.775 557.267 323.575 547.267 327.975C544.2 329.442 540.467 330.509 539.133 330.509C536.2 330.509 519.8 337.842 515 341.175C513.133 342.509 509.8 343.842 507.667 344.109C504.467 344.375 503.533 345.175 503.267 348.242C502.6 354.109 506.2 357.175 513.667 357.175C517 357.175 520.467 356.509 521.4 355.575C522.333 354.642 527.133 354.109 533.933 354.109C540.067 354.242 545.667 353.842 546.333 353.175C547.133 352.642 559.267 352.242 573.4 352.375C587.667 352.509 599.533 352.109 599.8 351.575C600.2 351.042 601.8 351.309 603.4 352.375C605.4 353.575 613.533 354.509 629.667 355.042C642.467 355.442 655.667 356.509 659 357.309C662.333 358.109 668.733 358.775 673.267 358.909C677.8 359.042 682.2 359.842 683 360.642C684.067 361.709 686.333 361.709 690.333 360.909C695.267 359.842 697.133 360.109 701.267 362.375C705.267 364.509 720.867 368.109 727.667 368.509C728.467 368.509 729.667 369.042 730.467 369.575C732.867 371.042 748.2 375.575 748.733 375.042C749 374.642 750.067 375.309 751 376.509C751.933 377.575 754.2 378.509 756.2 378.509C758.2 378.509 764.6 380.775 770.333 383.709C776.2 386.509 783.267 389.575 785.933 390.375C788.733 391.309 791.267 392.642 791.667 393.309C792.2 393.975 793.4 394.509 794.6 394.509C795.667 394.509 802.733 397.442 810.2 400.909C817.533 404.509 824.733 407.842 826.067 408.242C827.267 408.775 829 410.642 829.933 412.375C831.8 416.775 830.6 418.242 821.133 423.042C814.2 426.509 809.8 427.975 799 430.375C796.467 430.909 791.933 432.642 789 433.975C786.067 435.442 778.867 437.709 773 439.042C767.133 440.242 759.133 442.242 755.4 443.309C751.533 444.375 745.267 445.709 741.4 446.109C737.533 446.509 733.133 447.575 731.667 448.242C729.133 449.575 721 451.309 711.667 452.375C709.533 452.642 704.067 453.175 699.667 453.709C691.667 454.642 662.6 458.909 653.667 460.509C651.133 461.042 647.533 461.575 645.667 461.709C643.8 461.975 640.6 462.509 638.333 462.909C636.2 463.309 627.133 464.109 618.333 464.642C609.533 465.042 597 465.842 590.333 466.375C573.533 467.709 509.933 466.642 475 464.509C434.6 461.975 410.733 461.309 387 461.842C350.067 462.642 338.333 463.309 336.867 464.242C335.267 465.175 291 467.042 274.333 466.909C267.8 466.775 243 466.642 219.267 466.509C180.2 466.109 175.667 465.842 171.267 463.709C168.6 462.242 165.133 461.175 163.667 461.175C162.067 461.175 158.467 459.575 155.533 457.709C151.533 455.042 149.8 452.909 148.6 448.642C147 442.909 145.933 413.442 147.267 411.175C147.667 410.375 147.4 408.375 146.6 406.509C145.933 404.642 145.4 402.242 145.4 401.175C145.533 400.109 144.067 398.109 142.2 396.642C137.4 393.175 133 395.442 129.8 402.775C128.467 405.975 123.667 412.375 119.133 417.175C114.467 421.975 109.8 427.575 108.733 429.842C107.533 431.975 105.8 434.375 104.867 434.909C103.8 435.442 103 436.909 103 437.842C103 438.909 102.467 439.842 101.667 439.842C101 439.842 99.4 441.709 98.2 444.109C95.4 449.575 75 470.509 72.3333 470.642C69.5333 470.642 59 483.842 59 487.309C59 491.975 63.9333 497.175 68.3333 497.175C71.4 497.175 74.3333 495.042 81.5333 487.842C86.7333 482.642 91.8 476.775 92.8667 474.775C93.9333 472.775 96.3333 469.842 98.2 468.242C100.067 466.509 101.667 464.375 101.667 463.442C101.667 462.375 103.267 460.242 105.133 458.375C107 456.642 109.533 453.442 110.6 451.175C112.867 447.042 127.133 429.442 128.467 429.309C129 429.175 129.4 434.375 129.533 440.642C129.667 447.042 130.467 453.442 131.267 455.042C132.2 456.509 132.867 458.642 133 459.575C133 462.242 141.267 469.975 146.067 471.975C148.467 472.909 151.133 474.509 152.067 475.442C153 476.375 155.8 477.175 158.2 477.175C160.467 477.175 164.6 478.375 167.4 479.709C172.467 482.242 176.733 482.375 212.333 480.509C228.867 479.575 247.4 479.842 261 481.042C267.667 481.709 273.533 481.842 274.2 481.442C274.867 481.175 279.267 480.909 284.2 480.909C300.867 481.175 302.067 481.175 303.8 479.709C304.733 478.909 307.533 478.775 310.067 479.175C312.6 479.709 315.933 479.442 317.4 478.642C319.133 477.709 334.2 476.909 356.867 476.642C377.133 476.242 394.733 475.442 396.067 474.642C397.267 473.975 399.267 473.842 400.333 474.509C401.4 475.042 415.533 475.842 431.667 476.375C447.8 476.775 465.8 477.709 471.667 478.375C483 479.709 532.733 480.642 563 480.109C572.867 479.975 587.8 479.842 596.067 479.842C604.733 479.709 611 479.175 611 478.509C611 477.709 614.2 477.175 618.067 477.175C621.8 477.042 629.267 476.509 634.333 475.709C639.533 474.909 648.2 473.842 653.667 473.175C659.133 472.509 666.867 471.442 670.867 470.642C674.867 469.842 683.8 468.909 690.733 468.642C698.2 468.242 704.467 467.175 706.2 466.109C707.8 465.042 713.533 463.709 719 463.175C724.467 462.642 730.2 461.442 731.667 460.642C734.333 458.909 739.533 457.575 749 456.242C751.933 455.842 754.867 455.042 755.4 454.509C756.067 453.975 758.867 453.709 761.667 454.109C764.6 454.509 767 454.242 767.533 453.309C768.067 452.509 770.2 451.842 772.333 451.842C774.467 451.842 776.467 451.309 777 450.642C778.2 448.509 789.933 445.175 797.8 444.642C801.933 444.375 806.733 443.309 808.467 442.375C811.4 440.775 815.933 438.909 829.4 433.842C841 429.575 848.2 415.309 843 406.909C839.8 401.842 835.267 397.842 829.667 395.575C827.133 394.375 817.667 390.109 808.6 385.975C799.667 381.842 791.533 378.509 790.6 378.509C789.667 378.509 782.733 375.442 775.267 371.842C767.8 368.109 760.6 365.175 759.4 365.175C758.067 365.175 754.733 364.375 751.667 363.309C748.733 362.242 742.733 360.642 738.333 359.709C733.933 358.775 729.8 357.709 729 357.175C727.667 356.242 707.533 353.309 684.333 350.509C678.067 349.842 663.667 348.642 652.333 347.842C641 347.175 629.933 345.975 627.667 345.442C622.867 344.109 554.2 344.242 550.2 345.575C548.067 346.375 547.133 345.975 546.467 344.375C545.133 340.775 548.733 338.242 556.2 337.709C559.933 337.442 564.733 336.375 566.867 335.175C569.133 334.109 572.333 333.175 574.2 333.175C576.067 333.175 577.933 332.509 578.333 331.709C578.867 330.909 580.2 330.642 581.267 331.042C582.333 331.442 585.667 330.509 588.733 328.909C591.933 327.309 596.2 326.242 598.733 326.375C601.133 326.509 604.6 325.842 606.333 324.642C608.067 323.442 610.867 322.509 612.333 322.509C613.933 322.509 616.733 321.709 618.733 320.775C620.867 319.842 627 319.042 633.667 319.175C641.267 319.175 645.4 318.642 646.333 317.442C647.933 315.442 658.733 313.309 671.667 312.375C676.867 311.975 681.533 311.042 682.333 310.375C683 309.709 684.867 309.175 686.467 309.175C688.2 309.175 689.8 308.642 690.2 308.109C690.867 306.909 700.733 306.109 709.667 306.242C712.2 306.375 716.733 305.575 719.667 304.509C722.6 303.442 729.267 302.242 734.333 301.842C739.533 301.309 746.067 300.375 749 299.842C752.067 299.175 758.467 298.509 763.533 298.242C768.467 298.109 772.867 297.442 773.267 296.775C773.667 296.242 775.667 296.109 777.8 296.509C780.2 297.042 782.6 296.775 783.8 295.842C784.867 294.909 788.2 293.575 791.4 292.909C804.6 290.109 817.267 288.109 821 288.375C824.467 288.509 825 287.975 825.4 284.642C826.733 273.842 823 272.242 811 278.642Z" fill="black"/>
<path fill-rule="evenodd" clip-rule="evenodd" d="M2561 319.442C2558.18 319.555 2552.49 320.241 2547.42 320.853L2547.39 320.857C2546.47 320.966 2545.58 321.074 2544.73 321.175C2539.13 321.975 2531.67 322.908 2528.07 323.308C2524.6 323.708 2519.93 324.642 2517.8 325.308C2515.67 325.975 2511.8 326.508 2509.13 326.508C2506.47 326.508 2501.4 328.108 2497.67 329.842C2493.13 332.108 2490.6 332.642 2489.53 331.708C2488.33 330.775 2487 330.775 2485.13 331.708C2483.67 332.508 2480.47 333.175 2478.07 333.175C2473.93 333.175 2467.27 335.442 2441 345.975C2434.73 348.508 2429 350.508 2428.33 350.508C2426.07 350.508 2381.4 368.642 2375 372.242C2373.53 373.042 2369.93 374.908 2367 376.242C2364.07 377.708 2360.07 379.975 2358.07 381.308C2356.07 382.775 2352.2 384.775 2349.4 385.708C2346.6 386.775 2341.53 389.442 2338.33 391.708C2335 393.975 2330.87 396.908 2329 398.242C2317.8 405.842 2308.2 413.842 2304.2 419.042C2301.67 422.375 2299 425.175 2298.33 425.175C2297.53 425.175 2297 425.975 2297 426.908C2297 427.842 2295 431.975 2292.6 435.975C2279.4 457.975 2283.27 472.642 2306.87 490.508C2310.33 493.042 2314.2 495.042 2315.67 494.775C2317.13 494.508 2320.87 495.842 2323.93 497.575C2327.13 499.442 2334.2 502.242 2339.67 503.842C2345.13 505.442 2353 507.842 2357.13 509.308C2361.27 510.642 2365.8 511.842 2367.4 511.842C2368.87 511.842 2370.47 512.375 2370.87 513.042C2371.4 513.708 2374.87 514.642 2378.73 515.175C2382.47 515.708 2387.8 516.908 2390.33 517.842C2406.6 523.842 2451 527.842 2458.2 523.975C2459.67 523.175 2461.67 522.508 2462.87 522.508C2465.4 522.508 2478.33 514.642 2481.4 511.175C2484.2 507.975 2487.67 500.242 2487.67 497.308C2487.53 493.975 2481.93 488.375 2473.67 483.575C2473.3 483.361 2472.94 483.151 2472.59 482.945C2463.45 477.6 2459.2 475.118 2454.64 473.579C2450.68 472.245 2446.49 471.621 2438.65 470.455C2437.91 470.344 2437.14 470.229 2436.33 470.108C2430.47 469.175 2424.2 467.575 2422.33 466.508C2420.47 465.442 2418.6 464.775 2418.07 464.908C2417.4 465.042 2417 464.642 2417 463.975C2417 462.508 2420.07 461.175 2426.33 459.842C2428.87 459.308 2434.6 457.975 2439 456.775C2443.4 455.708 2451.27 454.108 2456.33 453.175C2461.53 452.242 2466.33 450.908 2467.27 450.242C2469.4 448.508 2477 446.775 2487 445.708C2491.4 445.175 2496.33 443.842 2498.07 442.775C2499.8 441.708 2504.33 440.642 2508.2 440.375C2512.07 440.242 2516.6 439.442 2518.07 438.642C2519.53 437.842 2522.47 437.175 2524.6 437.175C2532.87 437.042 2536.73 429.175 2531.13 423.975C2528.2 421.175 2527 420.908 2521.27 421.708C2517.53 422.108 2513 421.975 2511 421.175C2508.73 420.375 2506.73 420.242 2505.8 421.042C2503.93 422.508 2489 423.575 2456.33 424.642C2442.47 425.042 2430.07 425.842 2429 426.375C2427.93 426.908 2422.47 428.108 2417 429.042C2408.73 430.375 2395.4 433.308 2375 437.975C2373.53 438.375 2370.6 438.908 2368.33 439.175C2366.2 439.575 2359.53 441.442 2353.8 443.575C2342.87 447.442 2341.27 449.042 2341.13 456.108C2341 459.308 2341.93 460.242 2348.07 462.908C2356.87 467.042 2363.53 468.375 2401 473.175C2409.53 474.375 2422.33 476.508 2442.33 480.242C2452.87 482.242 2459.27 484.908 2465.4 490.108C2467.53 491.708 2469.93 493.175 2470.87 493.175C2471.8 493.175 2473.53 494.242 2474.87 495.575C2476.87 497.975 2476.87 498.375 2474.2 501.708C2472.6 503.708 2467.8 507.042 2463.4 509.308C2455.93 513.042 2454.33 513.308 2437.4 513.842C2422.87 514.242 2419 513.975 2417.4 512.508C2416.07 511.175 2412.6 510.508 2406.07 510.508C2396.33 510.508 2380.87 507.575 2373.27 504.375C2370.87 503.308 2366.87 502.508 2364.47 502.508C2361.8 502.508 2359.13 501.442 2357.67 499.842C2355.93 497.975 2353.53 497.175 2349.53 497.175C2345.53 497.175 2341.67 495.975 2337 493.175C2333.27 491.042 2328.73 489.175 2326.73 489.175C2323.13 489.175 2310.33 482.775 2310.33 481.042C2310.33 480.375 2307.93 478.642 2305.13 477.175C2299.8 474.508 2298.07 471.442 2296.33 461.175C2295.53 456.908 2296.47 453.042 2299.53 447.842C2300.07 446.775 2301.8 443.175 2303.4 439.842C2309.8 425.442 2324.07 411.708 2342.33 402.508C2346.87 400.242 2350.73 397.575 2351.27 396.508C2351.67 395.442 2352.47 394.508 2353.27 394.508C2355.8 394.508 2375 384.908 2378.07 382.108C2379.8 380.508 2382.47 379.175 2384.2 379.175C2385.93 379.042 2389.53 377.708 2392.33 376.108C2395 374.375 2397.93 373.308 2398.73 373.442C2399.67 373.575 2404.73 371.442 2410.07 368.642C2415.53 365.975 2421.53 363.442 2423.53 363.175C2425.67 362.908 2430.87 360.908 2435.4 358.642C2439.93 356.375 2445 354.508 2446.6 354.508C2448.33 354.508 2451.4 353.442 2453.4 351.975C2455.53 350.642 2458.47 349.842 2460.33 350.242C2462.33 350.508 2466.07 349.442 2469.8 347.308C2473.27 345.442 2477.4 343.842 2479 343.842C2480.6 343.842 2483.8 342.908 2486.2 341.708C2488.73 340.508 2495.53 339.308 2503.4 338.908C2512.07 338.375 2517.93 337.308 2521.27 335.708C2524.33 334.108 2529.13 333.175 2533.93 333.175C2538.2 333.175 2547.4 332.508 2554.33 331.708C2561.27 331.042 2576.2 330.375 2587.27 330.242C2604.6 330.108 2608.07 330.375 2610.07 332.242C2611.4 333.575 2613.13 334.508 2613.8 334.508C2614.47 334.508 2617.53 336.775 2620.73 339.575L2626.6 344.508L2627 359.842C2627.4 374.775 2627.4 375.308 2623.4 382.908C2621.13 387.042 2616.87 392.642 2613.8 395.175C2608.2 399.842 2606.87 401.175 2594.33 414.242C2584.2 424.775 2582.6 427.708 2581.27 437.442C2579.8 448.375 2582.33 456.375 2588.2 459.975L2592.33 462.508L2606.73 458.108C2609.27 455.842 2611.67 452.908 2612.2 451.842C2612.32 451.523 2612.99 450.833 2613.99 449.799C2616.34 447.377 2620.53 443.062 2623.8 437.175C2630.34 425.28 2628.11 419.069 2626.46 414.473C2625.52 411.857 2624.77 409.763 2625.93 407.442C2630.33 398.375 2641.4 393.708 2662.6 392.242L2672.87 391.575L2679.4 397.708C2683 401.042 2686.2 403.442 2686.6 403.042C2687 402.642 2687.8 404.642 2688.33 407.442C2688.87 410.242 2689.93 413.308 2690.6 414.242C2692.47 416.375 2694.07 424.242 2696.07 439.842C2697.93 454.242 2698.6 455.842 2702.73 455.442C2707.93 454.908 2711.27 452.108 2712.2 447.442C2714.2 436.642 2733.8 413.575 2746.33 407.175C2748.87 405.975 2751.93 404.108 2753 403.175C2755.67 400.908 2775.93 392.508 2783.67 390.508C2787 389.575 2790.73 388.375 2792.2 387.575C2793.67 386.775 2798.47 386.642 2803.8 387.175C2812.07 387.975 2813.27 388.508 2815.8 392.108C2817.4 394.242 2819 398.775 2819.4 402.108C2819.77 405.307 2816.74 406.846 2812.69 408.901C2809.48 410.53 2805.63 412.482 2802.33 415.842C2794.73 423.442 2794.73 433.708 2795.53 439.575C2796.33 445.042 2797 445.842 2804.47 450.508C2811 454.508 2823.27 455.308 2826.73 454.508C2827.71 454.346 2828.94 454.119 2830.24 453.879L2830.24 453.878C2832.16 453.526 2834.21 453.146 2835.8 452.908C2842.07 452.108 2844.33 438.108 2843.13 430.375C2842.6 427.308 2841.27 424.108 2840.2 423.175C2839 422.375 2837.53 419.042 2837 415.842C2836.07 410.775 2836.33 409.842 2839.13 407.175C2846.2 400.508 2853.53 396.642 2864.07 393.842C2870.07 392.242 2876.73 390.108 2878.73 389.175C2883.67 386.775 2887.13 388.775 2886.6 393.575C2886.2 397.975 2892.2 409.575 2897 413.708C2900.33 416.508 2900.73 417.308 2899.67 421.575C2898.47 427.175 2900.07 444.375 2902.07 446.908C2902.73 447.708 2903.13 451.175 2903 454.508C2902.73 458.108 2903.4 461.708 2904.6 463.575C2905.67 465.308 2906.2 467.575 2905.8 468.642C2905.4 469.842 2905.93 475.842 2907 482.242C2908.6 490.908 2908.87 498.908 2908.33 513.575L2907.53 533.308L2911.8 537.308C2917.13 542.242 2920.07 542.242 2924.2 536.775C2927.13 532.908 2927.4 531.308 2927.4 519.175C2927.27 507.975 2927.8 505.042 2930.2 500.508C2931.67 497.708 2933 494.508 2933 493.575C2933 491.175 2938.47 487.842 2942.47 487.842C2944.33 487.842 2947.53 486.642 2949.4 485.175C2952.2 482.908 2952.73 481.575 2952.47 475.575C2952.2 466.908 2951.53 465.708 2946.07 464.775C2940.6 463.975 2935.53 466.508 2927.27 474.108C2923.8 477.308 2920.33 479.575 2919.67 479.175C2918.87 478.775 2918.33 475.975 2918.33 473.042C2918.33 470.108 2917.53 466.108 2916.47 464.108C2915.4 461.975 2914.6 455.842 2914.47 449.308C2914.33 443.175 2913.67 437.175 2913 435.842C2912.33 434.642 2912.07 433.175 2912.47 432.775C2912.87 432.375 2912.2 430.108 2911 427.842C2909.8 425.442 2909.13 422.242 2909.53 420.775C2910.6 416.775 2907.8 405.575 2905.53 404.642C2904.47 404.242 2903.67 402.775 2903.67 401.308C2903.67 399.842 2902.6 396.642 2901.27 394.242C2899.8 391.842 2898.33 387.708 2897.8 384.908C2896.47 377.442 2892.07 375.308 2880.6 376.508C2875.53 376.908 2869.93 378.242 2868.47 379.175C2866.87 380.242 2861.8 382.108 2857 383.308C2850.6 384.908 2846.73 386.908 2841.8 391.308C2836.73 395.708 2834.73 396.775 2833.4 395.575C2832.47 394.775 2831.67 393.575 2831.67 392.908C2831.67 392.242 2830.33 388.642 2828.87 385.042C2826.33 379.175 2825.4 378.375 2820.2 377.042C2816.73 376.108 2814.33 374.775 2814.33 373.708C2814.33 371.575 2812.2 371.175 2811.13 373.042C2810.47 373.975 2797.4 375.975 2787 376.642C2781.67 376.908 2761.53 384.242 2749.8 390.108C2742.6 393.708 2736.87 398.375 2726.07 409.042C2718.2 416.775 2711.67 423.975 2711.67 424.775C2711.67 425.842 2709.93 426.508 2707.8 426.508C2704.47 426.508 2703.8 425.975 2703 421.442C2701.93 415.442 2692.47 396.375 2688.6 392.108C2679.53 382.242 2658.07 376.908 2644.87 381.175C2639.8 382.908 2639.13 382.775 2637.67 380.642C2635.93 378.242 2635.93 373.042 2637.67 363.575C2638.73 358.242 2636.73 347.575 2633.13 339.442C2631.27 335.175 2629.27 333.575 2619.27 328.375C2612.87 325.175 2606.87 322.508 2605.93 322.642C2605.13 322.908 2601.67 322.242 2598.6 321.308C2595.4 320.375 2588.2 319.708 2582.6 319.842C2576.87 319.975 2571.13 319.842 2569.67 319.442C2568.2 319.175 2564.33 319.175 2561 319.442ZM2423 439.842C2423 440.908 2422.07 441.842 2421 441.842C2415 441.975 2409.93 444.508 2405.67 449.575C2403 452.642 2401.27 455.842 2401.53 456.775C2403.67 462.108 2398.47 463.975 2391.4 460.375C2387.67 458.375 2381.4 457.308 2369.8 456.775C2359.27 456.242 2364.2 450.108 2377.13 447.708C2381.13 447.042 2386.73 445.975 2389.67 445.308C2392.6 444.775 2396.6 443.308 2398.6 441.975C2400.6 440.642 2402.73 439.975 2403.27 440.242C2403.93 440.642 2407.67 440.108 2411.67 439.175C2420.33 437.042 2423 437.175 2423 439.842ZM2597 438.455L2599.4 433.401L2604.2 426.266L2609 421.509L2608.7 426.563L2607.2 431.617L2605.4 435.779L2601.2 438.752L2599.1 442.32L2597 443.509V438.455ZM2820.5 424.009L2823 429.009V432.009V436.509L2819 438.009H2816L2814.5 436.509V432.009L2816 429.009L2820.5 424.009Z" fill="black"/>
<path d="M1958.73 401.842C1957.13 403.042 1955 407.042 1953.67 411.175C1952.2 416.375 1949.53 420.775 1944.73 426.242C1941 430.375 1937 434.375 1935.8 434.909C1934.6 435.442 1931.4 439.309 1928.6 443.442L1923.4 450.909L1925.93 455.709C1927.93 459.442 1929.4 460.642 1932.6 460.909C1936.07 461.309 1937.4 460.509 1941.13 455.709C1943.67 452.642 1948.47 447.175 1951.93 443.575C1955.4 439.975 1958.6 435.842 1959 434.375C1960.2 430.509 1963.13 431.175 1973.8 437.842C1979 441.175 1984.07 443.842 1985 443.842C1985.93 443.842 1988.73 445.175 1991.27 446.642C1995.13 449.042 1998.47 449.575 2012.73 450.109C2032.2 450.775 2056.2 450.775 2065.27 449.975C2069.53 449.709 2072.07 450.109 2073.13 451.309C2075 453.575 2073 453.975 2053.67 455.842C2045.67 456.509 2036.07 457.442 2032.33 457.842C2028.73 458.242 2019.8 459.175 2012.6 459.975C2005.53 460.775 1997.93 461.842 1995.93 462.509C1993.93 463.175 1989.27 463.975 1985.53 464.242C1981.8 464.509 1977.93 465.175 1977.13 465.842C1976.2 466.375 1969.93 467.575 1963.27 468.642C1938.73 472.242 1912.6 478.242 1900.33 482.909C1897.4 483.975 1892.33 485.309 1889.13 485.709C1885.93 486.242 1879.13 488.375 1874.07 490.509C1868.87 492.775 1863.53 494.509 1862.2 494.509C1860.73 494.509 1856.73 495.975 1853.13 497.709C1849.67 499.575 1843 502.242 1838.33 503.842C1833.67 505.442 1827.53 507.842 1824.87 509.309C1822.07 510.642 1818.33 511.842 1816.73 511.842C1815 511.975 1812.2 512.775 1810.33 513.842C1808.47 514.909 1805.8 515.709 1804.2 515.842C1802.73 515.842 1800.33 517.042 1799 518.509C1797.67 519.975 1796.07 521.175 1795.4 521.175C1794.73 521.175 1789.67 523.309 1784.2 525.842C1778.73 528.375 1773.67 530.509 1773 530.509C1772.2 530.509 1769.4 531.842 1766.6 533.575C1761.8 536.642 1751.27 541.842 1735.67 548.775C1722.47 554.775 1705.67 562.642 1703.67 563.842C1702.6 564.509 1697.67 567.442 1692.73 570.509C1687.8 573.442 1683.4 576.509 1683 577.309C1681.67 579.309 1671.93 585.175 1669.8 585.175C1668.87 585.175 1667.27 586.109 1666.33 587.175C1665.4 588.242 1663.53 589.175 1662.33 589.175C1661 589.175 1658.73 590.642 1657.27 592.509C1655.8 594.375 1653.67 595.842 1652.47 595.842C1651.4 595.842 1649.4 597.042 1648.07 598.375C1644.73 601.842 1633.27 610.509 1631.93 610.509C1631.27 610.509 1624.6 616.509 1617 623.842C1609.27 631.175 1602.73 637.175 1602.33 637.175C1601.4 637.175 1596.73 646.242 1596.2 649.042C1595.8 651.442 1598.07 655.975 1600.73 657.975C1601.8 658.775 1605 659.575 1607.8 659.575C1612.2 659.842 1613.8 659.042 1619 653.842C1624.07 648.775 1624.87 647.309 1623.67 645.175C1621.13 640.375 1622.33 637.575 1629.13 631.709C1632.87 628.509 1637.4 624.242 1639.4 622.109C1641.27 620.109 1643.53 618.509 1644.6 618.509C1645.53 618.509 1650.87 613.975 1656.2 608.509C1661.8 603.042 1667.8 598.242 1669.93 597.709C1673.93 596.642 1684.73 589.575 1690.47 584.375C1692.33 582.642 1695.13 581.175 1696.87 581.175C1698.6 581.175 1701.67 579.709 1703.93 577.842C1706.07 575.975 1709 574.509 1710.2 574.509C1711.53 574.509 1714.07 573.442 1715.8 571.975C1719.13 569.442 1778.87 539.842 1780.87 539.842C1781.53 539.842 1782.73 538.909 1783.67 537.842C1784.6 536.775 1787 535.842 1788.87 535.842C1790.87 535.842 1795.27 534.109 1798.73 531.842C1802.2 529.575 1806.2 527.842 1807.53 527.842C1809.93 527.842 1822.07 522.909 1829.27 519.042C1831.13 517.975 1833.4 517.175 1834.2 517.175C1835.13 517.175 1837.93 516.242 1840.73 515.042C1843.4 513.709 1846.33 512.642 1847 512.509C1850.2 512.109 1856.6 510.109 1860.33 508.509C1862.6 507.575 1866.47 506.109 1869 505.175C1877.27 502.242 1881.67 500.509 1883.67 499.175C1884.73 498.509 1887 498.109 1888.47 498.242C1891.27 498.642 1909.93 493.309 1917 490.242C1918.87 489.442 1922.33 488.642 1924.73 488.509C1927.13 488.375 1930.33 487.575 1932.07 486.909C1934.73 485.575 1953.93 482.375 1970.33 480.509C1973.67 480.109 1978.2 479.575 1980.33 479.175C1982.6 478.909 1987.53 478.242 1991.53 477.709C1995.4 477.175 2000.73 475.842 2003.27 474.509C2007 472.775 2009.27 472.509 2014.2 473.442C2017.53 473.975 2021.27 474.109 2022.33 473.709C2027.13 471.709 2045.27 469.175 2055.13 469.175C2077 469.175 2102.87 465.442 2103.93 462.242C2104.33 461.309 2105.27 461.309 2107.27 462.509C2109.67 463.975 2113.67 464.109 2130.6 462.642C2150.33 461.042 2151.13 460.909 2155 457.042C2159.4 452.642 2159 450.775 2152.6 445.975C2149.93 443.975 2145.8 443.175 2135.4 442.375C2127.8 441.842 2116.47 440.775 2109.93 439.975C2103.53 439.175 2097.4 438.909 2096.33 439.309C2095.27 439.709 2093.67 439.575 2092.73 439.042C2090.87 437.842 2080.73 437.442 2041.67 436.775C2011.93 436.242 2006.47 435.709 1997.93 431.975C1994.33 430.375 1990.47 429.175 1989.13 429.175C1986.73 429.175 1978.87 421.442 1975.93 416.242C1975.13 414.509 1974.33 411.442 1974.33 409.309C1974.33 406.642 1973.13 404.509 1970.87 402.642C1966.6 399.309 1962.73 399.042 1958.73 401.842Z" fill="black"/>
<path fill-rule="evenodd" clip-rule="evenodd" d="M2551.53 502.375C2553.4 502.375 2556.2 501.842 2557.67 501.175C2559.13 500.508 2562.2 500.242 2564.33 500.508C2566.6 500.908 2571.8 501.575 2576.07 501.975C2585.13 503.042 2589.4 507.042 2590.87 515.842C2591.67 520.908 2591.27 521.842 2586.33 527.842C2582.73 532.108 2579.4 534.642 2576.07 535.575C2568.6 537.708 2560.07 540.908 2554.2 543.842C2546.47 547.842 2539.67 547.308 2535 542.508C2531.67 539.042 2531.13 537.442 2531.27 531.575C2531.4 525.308 2531.93 524.108 2536.2 520.242C2538.87 517.842 2542.2 515.842 2543.53 515.842C2547 515.842 2548.07 513.975 2548.07 507.708C2548.07 503.042 2548.33 502.508 2551.53 502.375ZM2568 520.009L2562.75 525.009L2557.5 528.009L2553.75 526.259L2552 524.509L2556.5 520.884L2561 519.259L2565.5 516.634L2570 516.009V518.009L2568 520.009Z" fill="black"/>
<path d="M990.2 542.642C987.267 545.975 978.333 551.842 976.333 551.842C975.533 551.842 971 554.775 966.333 558.508C961.667 562.108 957.133 565.175 956.6 565.175C955.933 565.175 954.6 566.108 953.667 567.175C952.733 568.375 951.267 569.042 950.467 568.775C949.667 568.375 947.933 569.175 946.467 570.375C945.133 571.575 941.533 573.708 938.467 575.175C933.133 577.708 933 578.108 932.6 584.908L932.2 591.975L938.333 594.642C943.533 596.908 944.867 597.042 946.733 595.575C947.933 594.642 955.133 588.642 962.733 582.108C970.333 575.708 977.133 570.508 977.8 570.508C978.467 570.508 979 569.575 979 568.508C979 565.708 985.4 559.842 988.467 559.842C989.933 559.842 991 559.308 991 558.642C991 557.975 992.467 555.708 994.2 553.575C996.867 550.508 997.267 548.908 996.467 545.175C995.4 539.708 993.533 538.908 990.2 542.642Z" fill="black"/>
<path d="M1964.07 549.175C1961.8 550.375 1957.8 553.175 1955.27 555.442C1950.73 559.308 1950.73 559.575 1951.8 566.375C1952.33 570.108 1953.27 573.708 1953.67 574.508C1954.07 575.175 1957.67 575.842 1961.53 575.842C1968.33 575.842 1968.87 575.575 1972.07 570.642C1974.87 566.375 1975.27 564.775 1974.33 561.042C1973.27 556.508 1969.27 546.375 1968.6 546.642C1968.47 546.775 1966.47 547.842 1964.07 549.175Z" fill="black"/>
<path d="M102.067 552.242C99.5334 553.975 97.8 556.375 97.6667 557.975C97.6667 561.308 102.467 572.642 104.333 573.842C105 574.242 110.733 574.242 116.867 573.708C127.933 572.775 128.2 572.775 129.533 568.775C131.8 562.508 131.4 558.508 128.467 558.508C127.133 558.508 125.267 557.575 124.2 556.375C121.8 553.575 116.467 551.042 111 550.108C107.533 549.575 105.133 550.242 102.067 552.242Z" fill="black"/>
<path d="M278.467 566.908C276.733 567.442 274.733 569.442 273.8 571.308C271.667 576.108 271.933 585.442 274.467 588.908C277.533 593.308 284.733 592.908 289.533 588.108C291.667 586.108 294.467 584.242 295.8 584.108C299.133 583.442 299.8 582.642 300.733 577.575C301.533 573.442 301.267 573.042 295.933 570.375C292.867 568.775 290.067 567.042 289.667 566.642C288.733 565.442 282.333 565.575 278.467 566.908Z" fill="black"/>
</svg>
