<svg id="svg" xmlns="http://www.w3.org/2000/svg" xmlns:xlink="http://www.w3.org/1999/xlink" width="400" height="400" viewBox="0, 0, 400,400"><g id="svgg"><path id="path0" d="M189.212 1.360 C 82.819 7.024,-0.816 96.568,0.825 203.055 C 2.658 321.915,106.404 412.313,224.535 397.982 C 333.431 384.772,411.207 285.142,397.793 176.038 C 385.016 72.108,293.882 -4.213,189.212 1.360 M245.632 48.670 C 254.558 50.578,266.219 53.081,271.545 54.232 C 283.798 56.880,283.256 56.884,285.726 54.124 C 294.802 43.983,309.000 42.376,320.734 50.161 C 333.700 58.762,335.465 77.125,324.432 88.620 C 310.240 103.406,285.917 97.779,279.496 78.223 C 278.066 73.868,277.763 73.636,271.981 72.468 C 270.091 72.086,262.315 70.434,254.702 68.797 C 235.317 64.628,233.866 64.330,233.236 64.388 L 232.676 64.439 224.679 89.327 C 220.280 103.015,216.716 114.250,216.759 114.292 C 216.801 114.335,219.277 114.628,222.261 114.944 C 251.397 118.028,272.638 125.126,293.938 138.897 C 296.438 140.513,296.766 140.516,298.840 138.933 C 309.617 130.710,320.294 128.793,332.382 132.909 C 344.765 137.127,352.974 146.202,355.416 158.373 C 358.251 172.501,353.800 184.253,342.155 193.387 C 337.387 197.127,337.107 197.794,337.856 203.628 C 341.497 231.944,328.733 259.422,302.004 280.809 C 273.483 303.631,229.765 315.644,187.494 312.275 C 110.420 306.132,57.104 258.126,64.927 201.915 C 65.578 197.237,65.656 197.416,61.760 194.629 C 39.563 178.750,41.215 146.422,64.821 134.709 C 76.269 129.029,84.609 129.604,100.143 137.144 C 105.086 139.543,106.236 140.031,107.116 140.100 L 108.169 140.183 110.743 138.481 C 134.033 123.084,164.452 113.640,193.239 112.869 C 200.150 112.684,198.947 114.136,203.071 101.002 C 220.180 46.526,219.172 49.536,221.006 47.397 C 223.803 44.135,224.611 44.177,245.632 48.670 M151.599 174.548 C 134.233 175.815,126.232 197.472,138.520 209.952 C 149.226 220.826,165.922 217.915,172.615 204.010 C 179.429 189.852,167.675 173.374,151.599 174.548 M245.919 174.646 C 228.740 177.649,222.150 197.717,234.229 210.247 C 244.417 220.816,261.890 217.625,268.162 204.049 C 274.944 189.371,261.716 171.885,245.919 174.646 M153.890 245.554 C 145.916 247.100,144.979 255.266,152.140 260.811 C 179.195 281.764,230.858 280.654,252.150 258.664 C 256.365 254.310,256.691 251.450,253.346 248.177 C 249.864 244.769,246.106 244.474,241.814 247.273 C 216.470 263.800,189.121 264.219,162.864 248.484 C 157.810 245.455,156.541 245.041,153.890 245.554 " stroke="none" fill="#000000" fill-rule="evenodd"></path></g></svg>