<svg id="svg" version="1.1" xmlns="http://www.w3.org/2000/svg" xmlns:xlink="http://www.w3.org/1999/xlink" width="400" height="400" viewBox="0, 0, 400,400"><g id="svgg"><path id="path0" d="M185.689 0.925 C 150.738 1.500,104.494 4.718,84.452 7.970 C 43.591 14.599,14.599 43.591,7.970 84.452 C 1.795 122.515,-0.727 197.609,2.310 253.004 C 6.290 325.587,11.461 344.369,33.546 366.454 C 55.631 388.539,74.413 393.710,146.996 397.690 C 216.857 401.520,306.716 396.804,332.358 387.962 C 360.870 378.131,383.082 353.852,390.241 324.692 C 396.286 300.073,400.597 219.147,398.626 167.314 C 397.100 127.202,393.628 89.101,390.241 75.308 C 382.402 43.379,356.621 17.598,324.692 9.759 C 303.477 4.550,233.936 0.131,185.689 0.925 M238.163 37.087 C 270.101 38.596,302.077 41.390,313.604 43.679 C 334.925 47.914,352.086 65.075,356.321 86.396 C 358.650 98.126,361.445 130.353,362.971 163.074 C 363.564 175.780,363.564 224.220,362.971 236.926 C 361.445 269.647,358.650 301.874,356.321 313.604 C 352.086 334.925,334.925 352.086,313.604 356.321 C 301.874 358.650,269.647 361.445,236.926 362.971 C 224.220 363.564,175.780 363.564,163.074 362.971 C 130.353 361.445,98.126 358.650,86.396 356.321 C 65.075 352.086,47.914 334.925,43.679 313.604 C 41.350 301.874,38.555 269.647,37.029 236.926 C 36.436 224.220,36.436 175.780,37.029 163.074 C 38.555 130.353,41.350 98.126,43.679 86.396 C 47.914 65.075,65.075 47.914,86.396 43.679 C 100.747 40.829,137.844 37.923,176.678 36.607 C 183.820 36.365,230.618 36.730,238.163 37.087 " stroke="none" fill="#fbfbfb" fill-rule="evenodd"></path><path id="path1" d="M176.678 36.607 C 137.844 37.923,100.747 40.829,86.396 43.679 C 65.075 47.914,47.914 65.075,43.679 86.396 C 41.350 98.126,38.555 130.353,37.029 163.074 C 36.436 175.780,36.436 224.220,37.029 236.926 C 38.555 269.647,41.350 301.874,43.679 313.604 C 47.914 334.925,65.075 352.086,86.396 356.321 C 98.126 358.650,130.353 361.445,163.074 362.971 C 175.780 363.564,224.220 363.564,236.926 362.971 C 269.647 361.445,301.874 358.650,313.604 356.321 C 334.925 352.086,352.086 334.925,356.321 313.604 C 358.650 301.874,361.445 269.647,362.971 236.926 C 363.564 224.220,363.564 175.780,362.971 163.074 C 361.445 130.353,358.650 98.126,356.321 86.396 C 352.086 65.075,334.925 47.914,313.604 43.679 C 302.077 41.390,270.101 38.596,238.163 37.087 C 230.618 36.730,183.820 36.365,176.678 36.607 " stroke="none" fill="#242424" fill-rule="evenodd"></path></g></svg>