<?xml version="1.0" encoding="UTF-8"?>
<!DOCTYPE svg PUBLIC "-//W3C//DTD SVG 1.1//EN" "http://www.w3.org/Graphics/SVG/1.1/DTD/svg11.dtd">
<svg version="1.2" viewBox="23932 9115 19867 19868" preserveAspectRatio="xMidYMid" fill-rule="evenodd" stroke-width="28.222" stroke-linejoin="round" xmlns="http://www.w3.org/2000/svg" xmlns:ooo="http://xml.openoffice.org/svg/export" xmlns:xlink="http://www.w3.org/1999/xlink" xmlns:presentation="http://sun.com/xmlns/staroffice/presentation" xmlns:smil="http://www.w3.org/2001/SMIL20/" xmlns:anim="urn:oasis:names:tc:opendocument:xmlns:animation:1.0" xml:space="preserve">
 <defs class="EmbeddedBulletChars">
  <g id="bullet-char-template-57356" transform="scale(0.00048828125,-0.00048828125)">
   <path d="M 580,1141 L 1163,571 580,0 -4,571 580,1141 Z"/>
  </g>
  <g id="bullet-char-template-57354" transform="scale(0.00048828125,-0.00048828125)">
   <path d="M 8,1128 L 1137,1128 1137,0 8,0 8,1128 Z"/>
  </g>
  <g id="bullet-char-template-10146" transform="scale(0.00048828125,-0.00048828125)">
   <path d="M 174,0 L 602,739 174,1481 1456,739 174,0 Z M 1358,739 L 309,1346 659,739 1358,739 Z"/>
  </g>
  <g id="bullet-char-template-10132" transform="scale(0.00048828125,-0.00048828125)">
   <path d="M 2015,739 L 1276,0 717,0 1260,543 174,543 174,936 1260,936 717,1481 1274,1481 2015,739 Z"/>
  </g>
  <g id="bullet-char-template-10007" transform="scale(0.00048828125,-0.00048828125)">
   <path d="M 0,-2 C -7,14 -16,27 -25,37 L 356,567 C 262,823 215,952 215,954 215,979 228,992 255,992 264,992 276,990 289,987 310,991 331,999 354,1012 L 381,999 492,748 772,1049 836,1024 860,1049 C 881,1039 901,1025 922,1006 886,937 835,863 770,784 769,783 710,716 594,584 L 774,223 C 774,196 753,168 711,139 L 727,119 C 717,90 699,76 672,76 641,76 570,178 457,381 L 164,-76 C 142,-110 111,-127 72,-127 30,-127 9,-110 8,-76 1,-67 -2,-52 -2,-32 -2,-23 -1,-13 0,-2 Z"/>
  </g>
  <g id="bullet-char-template-10004" transform="scale(0.00048828125,-0.00048828125)">
   <path d="M 285,-33 C 182,-33 111,30 74,156 52,228 41,333 41,471 41,549 55,616 82,672 116,743 169,778 240,778 293,778 328,747 346,684 L 369,508 C 377,444 397,411 428,410 L 1163,1116 C 1174,1127 1196,1133 1229,1133 1271,1133 1292,1118 1292,1087 L 1292,965 C 1292,929 1282,901 1262,881 L 442,47 C 390,-6 338,-33 285,-33 Z"/>
  </g>
  <g id="bullet-char-template-9679" transform="scale(0.00048828125,-0.00048828125)">
   <path d="M 813,0 C 632,0 489,54 383,161 276,268 223,411 223,592 223,773 276,916 383,1023 489,1130 632,1184 813,1184 992,1184 1136,1130 1245,1023 1353,916 1407,772 1407,592 1407,412 1353,268 1245,161 1136,54 992,0 813,0 Z"/>
  </g>
  <g id="bullet-char-template-8226" transform="scale(0.00048828125,-0.00048828125)">
   <path d="M 346,457 C 273,457 209,483 155,535 101,586 74,649 74,723 74,796 101,859 155,911 209,963 273,989 346,989 419,989 480,963 531,910 582,859 608,796 608,723 608,648 583,586 532,535 482,483 420,457 346,457 Z"/>
  </g>
  <g id="bullet-char-template-8211" transform="scale(0.00048828125,-0.00048828125)">
   <path d="M -4,459 L 1135,459 1135,606 -4,606 -4,459 Z"/>
  </g>
  <g id="bullet-char-template-61548" transform="scale(0.00048828125,-0.00048828125)">
   <path d="M 173,740 C 173,903 231,1043 346,1159 462,1274 601,1332 765,1332 928,1332 1067,1274 1183,1159 1299,1043 1357,903 1357,740 1357,577 1299,437 1183,322 1067,206 928,148 765,148 601,148 462,206 346,322 231,437 173,577 173,740 Z"/>
  </g>
 </defs>
 <g ooo:name="page10" class="Page">
  <g class="com.sun.star.drawing.CustomShape">
   <g id="id3">
    <rect class="BoundingBox" stroke="none" fill="none" x="23932" y="9115" width="19867" height="19868"/>
    <path fill="rgb(22,42,53)" stroke="none" d="M 38841,10258 C 39304,10306 39768,10362 40208,10515 40719,10694 41171,10993 41546,11367 41920,11742 42219,12194 42398,12705 42551,13145 42607,13609 42655,14072 43003,17380 43003,20716 42655,24024 42607,24487 42551,24951 42398,25391 42219,25902 41920,26354 41546,26729 41171,27103 40719,27402 40208,27581 39768,27734 39304,27790 38841,27838 35533,28186 32197,28186 28889,27838 28426,27790 27962,27734 27522,27581 27011,27402 26559,27103 26184,26729 25810,26354 25511,25902 25332,25391 25179,24951 25123,24487 25075,24024 24728,20716 24728,17380 25075,14072 25123,13609 25179,13145 25332,12705 25511,12194 25810,11742 26184,11367 26559,10993 27011,10694 27522,10515 27962,10362 28426,10306 28889,10258 32197,9911 35533,9911 38841,10258 L 38841,10258 Z"/>
    <path fill="none" stroke="rgb(255,255,255)" stroke-width="1764" stroke-linejoin="miter" d="M 38841,10258 C 39304,10306 39768,10362 40208,10515 40719,10694 41171,10993 41546,11367 41920,11742 42219,12194 42398,12705 42551,13145 42607,13609 42655,14072 43003,17380 43003,20716 42655,24024 42607,24487 42551,24951 42398,25391 42219,25902 41920,26354 41546,26729 41171,27103 40719,27402 40208,27581 39768,27734 39304,27790 38841,27838 35533,28186 32197,28186 28889,27838 28426,27790 27962,27734 27522,27581 27011,27402 26559,27103 26184,26729 25810,26354 25511,25902 25332,25391 25179,24951 25123,24487 25075,24024 24728,20716 24728,17380 25075,14072 25123,13609 25179,13145 25332,12705 25511,12194 25810,11742 26184,11367 26559,10993 27011,10694 27522,10515 27962,10362 28426,10306 28889,10258 32197,9911 35533,9911 38841,10258 Z"/>
   </g>
  </g>
 </g>
</svg>