<svg id="svg" xmlns="http://www.w3.org/2000/svg" xmlns:xlink="http://www.w3.org/1999/xlink" width="400" height="331.39293139293136" viewBox="0, 0, 400,331.39293139293136"><g id="svgg"><path id="path0" d="M299.376 21.508 C 294.521 22.608,289.586 26.330,284.615 32.640 C 282.070 35.872,281.649 37.212,282.446 39.550 C 283.276 41.985,286.960 43.702,289.006 42.606 C 289.234 42.484,289.508 42.414,289.616 42.450 C 289.865 42.533,285.400 47.867,265.273 71.532 C 246.801 93.252,235.663 107.490,220.969 128.170 C 203.913 152.176,185.461 181.270,174.426 201.559 C 173.244 203.732,172.261 205.534,172.242 205.564 C 172.222 205.594,171.279 205.282,170.146 204.871 C 160.709 201.444,152.706 199.940,147.297 200.578 C 145.266 200.818,145.364 200.941,146.322 199.354 C 157.179 181.361,148.718 165.215,132.493 172.965 C 122.316 177.826,114.424 184.744,106.747 195.530 C 101.479 202.933,95.417 213.285,89.035 225.776 C 82.866 237.851,80.735 239.588,77.184 235.434 C 74.444 232.228,73.843 228.525,74.429 218.437 C 74.541 216.514,74.820 210.059,75.050 204.092 C 75.280 198.125,75.607 192.074,75.778 190.644 C 76.393 185.489,76.200 184.314,74.530 183.040 C 71.786 180.948,68.006 183.405,66.568 188.216 C 65.517 191.731,60.039 200.158,50.732 212.578 C 38.940 228.313,37.667 230.298,31.868 241.996 C 28.987 247.809,27.979 250.040,27.906 250.766 C 27.629 253.525,30.989 255.017,32.232 252.687 C 32.399 252.374,33.219 251.079,34.053 249.811 C 34.888 248.543,36.815 244.979,38.337 241.892 C 41.478 235.519,42.417 233.810,48.375 223.628 C 55.030 212.256,59.078 206.193,64.827 198.982 C 65.220 198.489,65.226 198.568,65.342 206.778 C 65.501 217.996,65.687 219.256,68.509 228.274 C 69.458 231.305,70.716 235.327,71.306 237.214 C 72.798 241.990,73.884 244.168,75.652 245.936 C 81.688 251.972,90.115 248.876,95.998 238.462 C 98.375 234.253,100.287 228.628,102.500 219.335 C 106.837 201.122,115.416 187.408,126.398 181.133 C 130.820 178.606,138.086 178.224,139.248 180.457 C 140.026 181.952,138.939 186.448,136.435 192.100 C 132.160 201.746,129.882 205.974,128.725 206.410 C 128.420 206.525,127.590 206.806,126.882 207.034 C 120.768 209.006,119.971 216.715,125.580 219.618 L 127.131 220.421 129.522 220.318 C 132.120 220.207,133.685 219.766,138.150 217.890 C 140.199 217.028,142.669 216.114,144.906 215.388 C 158.181 211.081,159.287 210.810,163.617 210.816 C 165.825 210.819,168.956 211.090,169.163 211.297 C 169.196 211.331,168.499 212.802,167.614 214.567 C 159.986 229.770,152.789 247.367,149.507 258.836 C 144.468 276.445,143.837 294.240,147.962 302.391 C 153.584 313.499,163.191 314.428,177.963 305.290 C 193.848 295.464,206.752 269.939,205.213 251.387 C 203.674 232.830,193.566 216.886,178.015 208.487 C 175.900 207.345,175.928 207.383,176.477 206.405 C 176.689 206.027,177.546 204.454,178.381 202.911 C 183.309 193.798,192.459 178.522,200.858 165.385 C 204.366 159.898,205.279 158.519,207.407 155.497 C 208.579 153.832,210.145 151.470,210.886 150.247 C 218.418 137.827,239.675 109.009,257.069 87.640 C 259.120 85.120,269.200 73.203,274.750 66.736 C 275.682 65.650,279.604 61.019,283.466 56.445 C 299.144 37.875,298.043 39.109,299.460 38.505 C 307.895 34.904,310.187 32.771,310.187 28.527 C 310.186 23.334,305.304 20.164,299.376 21.508 M376.609 25.935 C 371.113 27.893,366.619 33.088,352.911 53.326 C 343.537 67.167,337.294 75.804,325.789 90.852 C 320.955 97.175,318.579 100.339,299.168 126.299 C 272.629 161.792,258.897 181.066,250.733 194.283 C 249.320 196.570,247.875 198.675,247.523 198.960 C 247.170 199.246,246.133 200.141,245.219 200.949 C 244.304 201.756,242.154 203.580,240.441 205.001 C 235.583 209.031,235.037 209.848,235.033 213.098 C 235.027 219.084,240.721 222.158,246.444 219.258 C 252.679 216.100,259.759 209.850,266.141 201.871 C 276.343 189.116,289.809 180.847,304.262 178.465 C 308.183 177.818,311.635 178.046,313.995 179.105 C 316.142 180.069,316.165 179.963,313.385 181.917 C 293.460 195.924,274.543 214.694,268.864 226.091 C 262.696 238.471,266.283 250.104,276.268 250.104 C 287.786 250.104,302.211 242.658,311.709 231.809 C 328.764 212.328,334.984 190.479,326.573 179.596 C 325.748 178.529,325.617 178.666,329.678 176.354 C 347.726 166.079,365.311 160.782,371.293 163.820 C 378.302 167.380,378.298 185.607,371.284 201.497 C 365.283 215.093,350.916 229.839,343.025 230.500 C 341.197 230.654,341.054 230.435,341.233 227.767 C 341.749 220.109,351.535 204.372,368.390 184.096 C 370.890 181.089,371.158 180.147,369.868 178.911 C 368.394 177.499,367.918 177.713,362.892 182.038 C 342.408 199.667,331.922 214.908,331.940 227.027 C 331.956 238.247,339.314 239.661,352.457 230.972 C 363.212 223.861,376.988 206.046,381.884 192.918 C 390.925 168.673,380.102 154.356,357.225 160.301 C 347.751 162.762,336.800 167.470,326.307 173.592 L 322.433 175.852 321.248 175.267 C 310.979 170.192,292.205 175.139,259.253 191.603 C 257.825 192.316,256.625 192.869,256.587 192.831 C 256.125 192.369,280.260 158.338,297.505 135.135 C 300.862 130.619,306.789 122.620,310.677 117.360 C 324.676 98.419,333.887 86.301,339.600 79.307 C 342.920 75.244,344.133 73.843,352.894 63.950 C 362.380 53.238,363.470 51.895,369.243 43.795 C 374.449 36.491,378.673 32.063,380.743 31.743 C 382.635 31.450,383.567 29.249,382.481 27.637 C 381.245 25.802,378.894 25.120,376.609 25.935 M291.788 80.333 C 283.785 82.871,285.633 93.451,294.080 93.451 C 302.841 93.451,304.321 82.222,295.818 80.262 C 294.593 79.979,292.804 80.011,291.788 80.333 M263.692 109.363 C 260.398 110.376,258.129 114.632,259.122 117.934 L 259.409 118.886 258.122 120.944 C 252.083 130.598,243.505 142.281,236.247 150.735 C 231.028 156.813,228.373 160.471,224.633 166.736 C 223.507 168.623,221.675 171.626,220.563 173.410 C 218.317 177.012,217.489 178.571,216.952 180.210 C 215.073 185.945,220.313 188.608,224.581 184.087 C 229.424 178.956,234.890 170.038,241.969 155.717 C 249.395 140.694,255.237 132.131,262.819 125.160 C 265.179 122.991,265.274 122.928,266.396 122.812 C 273.335 122.096,275.152 112.943,268.991 109.747 C 267.975 109.220,264.884 108.996,263.692 109.363 M318.918 185.339 C 319.904 188.787,320.223 195.761,319.652 201.373 C 317.541 222.120,301.127 241.721,283.594 244.434 C 273.812 245.947,273.499 240.893,282.217 222.252 C 288.536 208.741,298.361 197.875,315.372 185.583 C 318.466 183.348,318.351 183.356,318.918 185.339 M175.432 212.816 C 189.632 218.441,199.879 233.883,201.235 251.700 C 202.407 267.109,192.017 289.934,179.522 299.399 C 172.404 304.791,165.066 307.302,161.277 305.644 C 149.875 300.653,149.975 269.331,161.491 238.565 C 164.715 229.954,172.928 212.266,173.703 212.266 C 173.891 212.266,174.670 212.513,175.432 212.816 M102.908 255.272 C 101.725 256.455,102.389 257.379,104.869 258.005 C 106.948 258.530,106.896 258.407,105.622 259.802 C 99.692 266.290,94.948 279.772,94.915 290.229 C 94.873 303.523,111.555 299.449,119.178 284.304 C 124.046 274.632,121.769 261.816,114.449 257.690 C 113.877 257.368,113.176 256.891,112.890 256.631 C 112.538 256.309,111.906 256.083,110.931 255.927 C 110.140 255.801,109.434 255.662,109.362 255.617 C 109.225 255.533,106.207 255.014,104.519 254.786 C 103.611 254.663,103.477 254.703,102.908 255.272 M72.817 256.241 C 69.713 257.813,61.500 273.124,58.210 283.472 C 57.846 284.615,57.221 286.580,56.820 287.838 C 55.410 292.259,52.308 299.704,47.912 309.215 C 46.448 312.384,46.402 312.646,47.227 313.166 C 47.988 313.647,48.518 313.165,49.981 310.664 C 54.126 303.574,61.436 292.189,64.041 288.764 C 67.724 283.923,75.658 269.063,78.370 261.925 C 79.951 257.767,76.593 254.330,72.817 256.241 M114.100 264.012 C 116.369 268.337,114.946 274.700,110.070 282.027 C 107.480 285.920,101.769 290.625,100.804 289.661 C 99.835 288.691,100.375 286.322,103.211 279.106 C 106.459 270.842,106.819 270.054,110.132 263.965 L 111.697 261.089 112.593 261.969 C 113.086 262.452,113.764 263.372,114.100 264.012 " stroke="none" fill="#000000" fill-rule="evenodd"></path></g></svg>