<svg width="452" height="183" viewBox="0 0 452 183" fill="none" xmlns="http://www.w3.org/2000/svg">
<path d="M2 119H0.5V119.762L1.11537 120.211L2 119ZM2 2V0.5H0.5V2H2ZM69.0991 168H70.5991V167.238L69.9837 166.789L69.0991 168ZM69.0991 181.5H67.5991V183H69.0991V181.5ZM382.901 181.5V183H384.401V181.5H382.901ZM382.901 168L382.016 166.789L381.401 167.238V168H382.901ZM450 119L450.885 120.211L451.5 119.762V119H450ZM450 2H451.5V0.5H450V2ZM3.5 119V2H0.5V119H3.5ZM69.9837 166.789L2.88463 117.789L1.11537 120.211L68.2145 169.211L69.9837 166.789ZM70.5991 181.5V168H67.5991V181.5H70.5991ZM219.946 180H69.0991V183H219.946V180ZM219.946 183H232.054V180H219.946V183ZM232.054 183H382.901V180H232.054V183ZM384.401 181.5V168H381.401V181.5H384.401ZM383.786 169.211L450.885 120.211L449.115 117.789L382.016 166.789L383.786 169.211ZM451.5 119V2H448.5V119H451.5ZM450 0.5H232.054V3.5H450V0.5ZM232.054 0.5H219.946V3.5H232.054V0.5ZM2 3.5H219.946V0.5H2V3.5Z" fill="black"/>
<path fill-rule="evenodd" clip-rule="evenodd" d="M215 140H186.806C187 140.477 187.209 141.015 187.419 141.595C188.18 143.704 189.008 146.533 189.008 149C189.008 151.467 188.18 154.296 187.419 156.405C187.03 157.482 186.642 158.414 186.35 159.079C186.205 159.411 186.082 159.678 185.996 159.863C185.974 159.911 185.954 159.954 185.936 159.99C185.92 160.025 185.906 160.054 185.894 160.079L185.866 160.137L185.858 160.153L185.856 160.158L185.855 160.16L185.855 160.16C185.855 160.161 185.854 160.161 184.508 159.5L185.854 160.161L185.443 161H184.508H101.008H100.589L100.23 160.783L101.008 159.5C100.23 160.783 100.23 160.782 100.23 160.782L100.229 160.782L100.227 160.781L100.222 160.778L100.204 160.766L100.136 160.725L100.05 160.671C100.005 160.643 99.9509 160.609 99.8897 160.57C99.6781 160.437 99.376 160.242 99.0076 159.997C98.2719 159.507 97.2658 158.808 96.1849 157.976C94.0824 156.357 91.4788 154.07 90.1923 151.72C88.9047 149.369 88.3915 145.963 88.1711 143.338C88.0578 141.988 88.0172 140.774 88.0048 139.898C87.9986 139.459 87.9994 139.103 88.0018 138.854C88.003 138.73 88.0047 138.633 88.006 138.565L88.0077 138.487L88.0083 138.466L88.0085 138.459L88.0085 138.457L88.0085 138.457C88.0086 138.456 88.0086 138.456 89.5079 138.5L88.0086 138.456L88.0511 137H89.5079H184.508H215H235.008H265.5H360.5H361.957L361.999 138.456L360.5 138.5C361.999 138.456 361.999 138.456 361.999 138.457V138.457L361.999 138.459L362 138.466L362 138.487L362.002 138.565C362.003 138.633 362.005 138.73 362.006 138.854C362.009 139.103 362.009 139.459 362.003 139.898C361.991 140.774 361.95 141.988 361.837 143.338C361.616 145.963 361.103 149.369 359.816 151.72C358.529 154.07 355.926 156.357 353.823 157.976C352.742 158.808 351.736 159.507 351 159.997C350.632 160.242 350.33 160.437 350.118 160.57C350.057 160.609 350.003 160.643 349.958 160.671L349.871 160.725L349.804 160.766L349.786 160.778L349.781 160.781L349.779 160.782L349.778 160.782C349.778 160.782 349.778 160.783 349 159.5L349.778 160.783L349.419 161H349H265.5H264.565L264.153 160.161L265.5 159.5C264.153 160.161 264.153 160.161 264.153 160.16L264.153 160.16L264.152 160.158L264.15 160.153L264.142 160.137L264.114 160.079C264.09 160.028 264.055 159.956 264.012 159.863C263.925 159.678 263.803 159.411 263.657 159.079C263.366 158.414 262.978 157.482 262.589 156.405C261.827 154.296 261 151.467 261 149C261 146.533 261.827 143.704 262.589 141.595C262.799 141.015 263.008 140.477 263.202 140H235.008H215ZM183.603 140.126L183.547 140H91.0068C91.0208 140.813 91.0606 141.896 91.1606 143.087C91.3789 145.687 91.8656 148.53 92.8236 150.28C93.7825 152.031 95.929 153.993 98.0151 155.599C99.0285 156.379 99.9764 157.037 100.671 157.5C100.986 157.71 101.247 157.879 101.438 158H183.547L183.603 157.874C183.874 157.255 184.236 156.386 184.597 155.386C185.335 153.342 186.008 150.921 186.008 149C186.008 147.079 185.335 144.658 184.597 142.614C184.236 141.614 183.874 140.745 183.603 140.126ZM266.405 140.126L266.46 140H359.001C358.987 140.813 358.947 141.896 358.847 143.087C358.629 145.687 358.142 148.53 357.184 150.28C356.225 152.031 354.079 153.993 351.993 155.599C350.979 156.379 350.032 157.037 349.337 157.5C349.022 157.71 348.76 157.879 348.57 158H266.46L266.405 157.874C266.134 157.255 265.772 156.386 265.411 155.386C264.672 153.342 264 150.921 264 149C264 147.079 264.672 144.658 265.411 142.614C265.772 141.614 266.134 140.745 266.405 140.126Z" fill="black"/>
<path d="M155 59.2968H175.112V63.595H168.364V76.7032H161.748V63.595H155V59.2968Z" fill="black"/>
<path d="M177.288 68.0119C177.288 65.1702 178.262 62.9578 180.209 61.3747C182.156 59.7916 184.868 59 188.344 59C191.908 59 194.654 59.7797 196.582 61.3391C198.51 62.8905 199.474 65.0673 199.474 67.8694C199.474 69.9037 199.05 71.5739 198.203 72.8799C197.366 74.1781 196.148 75.1913 194.552 75.9195C192.964 76.6398 190.983 77 188.607 77C186.192 77 184.191 76.6873 182.604 76.062C181.027 75.4367 179.746 74.4472 178.763 73.0937C177.78 71.7401 177.288 70.0462 177.288 68.0119ZM183.904 68.0356C183.904 69.7929 184.303 71.0554 185.102 71.8232C185.91 72.591 187.005 72.9749 188.388 72.9749C189.81 72.9749 190.91 72.5989 191.689 71.847C192.468 71.095 192.857 69.7454 192.857 67.7982C192.857 66.1596 192.448 64.9644 191.63 64.2124C190.822 63.4525 189.722 63.0726 188.33 63.0726C186.996 63.0726 185.925 63.4565 185.116 64.2243C184.308 64.9921 183.904 66.2625 183.904 68.0356Z" fill="black"/>
<path d="M200.876 59.2968H208.222L212.545 65.1741L216.869 59.2968H224.171L215.846 69.4129V76.7032H209.215V69.4129L200.876 59.2968Z" fill="black"/>
<path d="M225.486 68.0119C225.486 65.1702 226.46 62.9578 228.407 61.3747C230.354 59.7916 233.066 59 236.542 59C240.106 59 242.852 59.7797 244.78 61.3391C246.708 62.8905 247.672 65.0673 247.672 67.8694C247.672 69.9037 247.248 71.5739 246.401 72.8799C245.563 74.1781 244.346 75.1913 242.75 75.9195C241.162 76.6398 239.181 77 236.805 77C234.39 77 232.389 76.6873 230.802 76.062C229.225 75.4367 227.944 74.4472 226.961 73.0937C225.978 71.7401 225.486 70.0462 225.486 68.0119ZM232.102 68.0356C232.102 69.7929 232.501 71.0554 233.3 71.8232C234.108 72.591 235.203 72.9749 236.586 72.9749C238.008 72.9749 239.108 72.5989 239.887 71.847C240.666 71.095 241.055 69.7454 241.055 67.7982C241.055 66.1596 240.646 64.9644 239.828 64.2124C239.02 63.4525 237.92 63.0726 236.528 63.0726C235.194 63.0726 234.123 63.4565 233.314 64.2243C232.506 64.9921 232.102 66.2625 232.102 68.0356Z" fill="black"/>
<path d="M249.731 59.2968H269.843V63.595H263.095V76.7032H256.479V63.595H249.731V59.2968Z" fill="black"/>
<path d="M286.025 73.8298H278.489L277.452 76.7032H270.69L278.737 59.2968H285.952L294 76.7032H287.077L286.025 73.8298ZM284.638 70.066L282.272 63.8087L279.92 70.066H284.638Z" fill="black"/>
<path d="M49.0634 19.5026C49.0711 19.5017 49.0783 19.5008 49.0851 19.5H400.898C400.9 19.5002 400.901 19.5004 400.902 19.5006C400.969 19.5101 401.072 19.5255 401.209 19.5477C401.483 19.5921 401.892 19.6641 402.417 19.7719C403.468 19.9876 404.982 20.3464 406.803 20.9153C410.449 22.0545 415.304 24.0276 420.15 27.3589C429.781 33.9793 439.5 46.0351 439.5 68C439.5 89.9649 429.781 102.021 420.15 108.641C415.304 111.972 410.449 113.946 406.803 115.085C404.982 115.654 403.468 116.012 402.417 116.228C401.892 116.336 401.483 116.408 401.209 116.452C401.072 116.475 400.969 116.49 400.902 116.499C400.901 116.5 400.9 116.5 400.898 116.5H49.0851C49.0783 116.499 49.0711 116.498 49.0634 116.497C48.9949 116.489 48.8892 116.476 48.7486 116.456C48.4676 116.416 48.0476 116.352 47.5087 116.253C46.4304 116.055 44.8784 115.722 43.0109 115.181C39.2713 114.098 34.2946 112.193 29.3276 108.907C19.4603 102.379 9.5 90.3305 9.5 68C9.5 45.6695 19.4603 33.6209 29.3276 27.0933C34.2946 23.8075 39.2713 21.902 43.0109 20.8192C44.8784 20.2784 46.4304 19.9449 47.5087 19.7472C48.0476 19.6485 48.4676 19.5838 48.7486 19.5442C48.8892 19.5244 48.9949 19.5109 49.0634 19.5026Z" stroke="black" stroke-width="3"/>
<path d="M343.792 37.5C342.285 38.6379 340.546 40.1444 338.808 42.0681C334.056 47.3276 329.342 55.6752 329.342 68C329.342 80.3248 334.056 88.6724 338.808 93.9319C340.546 95.8556 342.285 97.3621 343.792 98.5H105.857C107.192 97.3917 108.72 95.9274 110.246 94.0529C114.493 88.8364 118.666 80.506 118.666 68C118.666 55.494 114.493 47.1636 110.246 41.9471C108.72 40.0726 107.192 38.6083 105.857 37.5H343.792Z" stroke="black" stroke-width="3"/>
<circle cx="60" cy="68" r="38.5" stroke="black" stroke-width="3"/>
<circle cx="389" cy="68" r="38.5" stroke="black" stroke-width="3"/>
</svg>
