<?xml version="1.0" standalone="yes"?><svg xmlns="http://www.w3.org/2000/svg" xmlns:xlink="http://www.w3.org/1999/xlink" id="svg" version="1.1" width="400" height="182.77449046679814" viewBox="0, 0, 400,182.77449046679814" style="zoom: 1;"><g id="svgg"><path id="path1" d="M39.583 14.591 C 27.662 15.315,24.596 16.032,21.127 18.907 C 15.908 23.231,14.759 28.843,14.759 50.000 C 14.759 71.103,15.963 76.925,21.190 81.096 C 24.305 83.581,26.224 84.188,33.000 84.830 C 51.185 86.553,72.297 85.472,77.309 82.561 C 84.291 78.508,85.913 72.355,85.913 49.917 C 85.913 32.558,84.809 24.978,81.733 21.219 C 77.869 16.496,75.157 15.586,62.167 14.653 C 58.047 14.358,44.060 14.319,39.583 14.591 M61.250 16.262 C 73.190 16.963,75.968 17.678,79.251 20.900 C 82.607 24.193,83.337 27.041,84.080 39.750 C 84.699 50.337,84.047 67.424,82.826 72.634 C 81.661 77.608,77.804 81.424,72.849 82.505 C 62.977 84.660,32.153 84.316,25.903 81.981 C 22.501 80.710,19.464 77.643,18.223 74.226 C 15.712 67.306,15.659 33.050,18.149 26.000 C 20.192 20.216,24.020 17.685,32.000 16.842 C 41.078 15.883,51.329 15.679,61.250 16.262 M45.907 31.049 C 45.861 31.168,45.845 32.386,45.870 33.757 L 45.917 36.250 49.000 36.250 L 52.083 36.250 52.129 33.542 L 52.175 30.833 49.082 30.833 C 46.706 30.833,45.970 30.883,45.907 31.049 M41.609 41.076 C 39.808 41.719,39.266 43.800,40.563 45.096 C 41.317 45.850,42.049 45.998,45.042 45.999 L 47.667 46.000 47.667 52.401 L 47.667 58.802 43.792 58.866 C 40.716 58.916,39.796 58.984,39.333 59.193 C 37.340 60.095,37.292 62.767,39.252 63.750 C 39.895 64.073,40.249 64.083,50.250 64.083 C 60.254 64.083,60.604 64.073,61.239 63.750 C 62.233 63.245,62.583 62.658,62.583 61.500 C 62.583 59.282,61.810 58.935,56.708 58.859 L 52.833 58.802 52.833 49.818 L 52.833 40.833 47.542 40.841 C 43.497 40.846,42.099 40.902,41.609 41.076" stroke="none" fill="#0f2e36" fill-rule="evenodd"></path><path id="path2" d="M48.208 14.291 C 49.377 14.320,51.290 14.320,52.458 14.291 C 53.627 14.263,52.671 14.239,50.333 14.239 C 47.996 14.239,47.040 14.263,48.208 14.291 M121.750 14.273 C 110.392 14.536,102.334 15.448,99.459 16.795 C 93.763 19.464,91.333 23.477,90.506 31.583 C 88.950 46.830,89.555 69.078,91.682 74.833 C 93.202 78.945,96.821 82.449,100.862 83.723 C 107.835 85.922,134.668 86.311,146.917 84.392 C 153.084 83.426,157.719 79.411,159.333 73.638 C 161.316 66.544,161.517 37.585,159.652 27.667 C 158.499 21.531,153.968 16.954,147.846 15.741 C 143.351 14.850,129.782 14.087,121.750 14.273 M194.833 14.339 C 187.840 14.561,180.144 15.211,177.384 15.813 C 172.322 16.918,168.141 20.713,166.527 25.667 C 164.400 32.194,164.036 59.887,165.922 71.638 C 167.033 78.562,171.837 83.313,178.833 84.407 C 191.346 86.364,219.179 85.870,225.271 83.583 C 229.376 82.041,232.882 78.393,234.157 74.333 C 236.328 67.426,236.680 39.525,234.741 28.083 C 233.634 21.552,229.056 16.882,222.583 15.681 C 217.319 14.704,203.854 14.053,194.833 14.339 M271.833 14.274 C 265.121 14.436,256.223 15.102,253.162 15.670 C 247.302 16.758,242.922 20.715,241.356 26.333 C 239.276 33.800,239.206 65.055,241.252 73.207 C 242.772 79.265,247.520 83.472,253.891 84.406 C 266.602 86.269,292.679 85.925,299.666 83.801 C 303.376 82.673,306.831 79.605,308.599 75.869 C 311.734 69.242,311.945 32.562,308.894 24.775 C 307.130 20.274,302.909 16.751,298.083 15.754 C 293.903 14.890,279.641 14.086,271.833 14.274 M346.833 14.273 C 337.536 14.505,328.680 15.321,326.000 16.194 C 321.980 17.502,318.542 20.705,316.986 24.592 C 313.718 32.754,313.992 69.498,317.372 76.250 C 319.139 79.780,322.503 82.666,326.168 83.796 C 334.310 86.308,368.138 86.183,375.212 83.615 C 379.506 82.057,383.099 78.232,384.337 73.903 C 386.362 66.821,386.685 41.077,384.903 28.833 C 383.846 21.575,379.233 16.768,372.189 15.585 C 367.466 14.792,353.992 14.094,346.833 14.273 M42.042 14.453 C 42.294 14.491,42.706 14.491,42.958 14.453 C 43.210 14.415,43.004 14.383,42.500 14.383 C 41.996 14.383,41.790 14.415,42.042 14.453 M57.628 14.454 C 57.928 14.491,58.378 14.490,58.628 14.452 C 58.878 14.414,58.633 14.384,58.083 14.385 C 57.533 14.386,57.328 14.417,57.628 14.454 M38.455 14.620 C 38.750 14.657,39.275 14.658,39.621 14.622 C 39.967 14.586,39.725 14.555,39.083 14.555 C 38.442 14.554,38.159 14.583,38.455 14.620 M60.958 14.621 C 61.256 14.658,61.744 14.658,62.042 14.621 C 62.340 14.584,62.096 14.553,61.500 14.553 C 60.904 14.553,60.660 14.584,60.958 14.621 M36.125 14.784 C 36.331 14.824,36.669 14.824,36.875 14.784 C 37.081 14.745,36.912 14.712,36.500 14.712 C 36.087 14.712,35.919 14.745,36.125 14.784 M63.711 14.786 C 63.964 14.825,64.339 14.824,64.544 14.784 C 64.749 14.744,64.542 14.713,64.083 14.714 C 63.625 14.716,63.457 14.748,63.711 14.786 M67.542 15.115 C 67.702 15.157,67.965 15.157,68.125 15.115 C 68.285 15.073,68.154 15.039,67.833 15.039 C 67.512 15.039,67.381 15.073,67.542 15.115 M30.625 15.284 C 30.831 15.324,31.169 15.324,31.375 15.284 C 31.581 15.245,31.412 15.212,31.000 15.212 C 30.587 15.212,30.419 15.245,30.625 15.284 M69.294 15.285 C 69.501 15.324,69.801 15.323,69.960 15.281 C 70.120 15.239,69.950 15.207,69.583 15.209 C 69.217 15.211,69.086 15.245,69.294 15.285 M48.958 15.957 C 49.715 15.988,50.952 15.988,51.708 15.957 C 52.465 15.926,51.846 15.901,50.333 15.901 C 48.821 15.901,48.202 15.926,48.958 15.957 M42.792 16.121 C 43.090 16.158,43.577 16.158,43.875 16.121 C 44.173 16.084,43.929 16.053,43.333 16.053 C 42.737 16.053,42.494 16.084,42.792 16.121 M56.795 16.121 C 57.094 16.158,57.544 16.157,57.795 16.119 C 58.045 16.081,57.800 16.051,57.250 16.052 C 56.700 16.053,56.495 16.084,56.795 16.121 M138.250 16.397 C 150.685 17.344,154.004 18.779,156.792 24.417 C 160.143 31.190,160.206 68.782,156.878 75.417 C 155.427 78.309,152.693 80.817,149.812 81.898 C 142.518 84.635,107.810 84.578,100.651 81.817 C 97.091 80.444,94.050 77.062,93.001 73.306 C 90.776 65.346,90.904 32.940,93.187 26.083 C 94.374 22.519,97.272 19.432,100.678 18.105 C 102.736 17.303,105.766 16.875,112.583 16.421 C 114.692 16.281,116.829 16.139,117.333 16.105 C 119.842 15.937,134.983 16.148,138.250 16.397 M213.250 16.397 C 222.530 17.105,224.493 17.510,227.237 19.284 C 229.286 20.609,231.224 22.894,232.183 25.115 C 234.656 30.845,235.078 63.004,232.808 72.729 C 231.853 76.819,228.603 80.536,224.763 81.930 C 217.438 84.589,182.965 84.566,175.855 81.898 C 172.824 80.761,170.029 78.114,168.651 75.075 C 165.550 68.237,165.618 31.493,168.744 24.728 C 171.459 18.852,175.153 17.228,187.636 16.422 C 189.807 16.282,191.958 16.139,192.417 16.105 C 194.689 15.933,209.981 16.148,213.250 16.397 M288.333 16.404 C 299.479 17.256,302.140 18.126,305.217 21.922 C 307.749 25.047,308.145 26.705,309.038 37.917 C 309.770 47.109,309.044 67.780,307.814 72.799 C 306.755 77.117,303.553 80.678,299.494 82.050 C 292.063 84.561,257.899 84.497,251.000 81.959 C 247.856 80.802,244.900 77.983,243.616 74.916 C 241.167 69.068,240.578 42.492,242.597 28.905 C 243.455 23.127,247.088 18.925,252.379 17.591 C 257.790 16.227,277.498 15.576,288.333 16.404 M363.250 16.395 C 371.038 16.999,373.524 17.388,375.593 18.325 C 378.558 19.670,381.044 22.283,382.288 25.362 C 384.646 31.200,385.128 59.739,383.071 71.721 C 382.127 77.222,378.166 81.386,372.831 82.488 C 362.523 84.616,332.143 84.266,326.012 81.948 C 322.123 80.478,319.055 77.055,317.994 73.000 C 316.041 65.541,315.902 38.254,317.765 28.021 C 318.724 22.746,322.547 18.708,327.715 17.506 C 333.257 16.217,352.996 15.600,363.250 16.395 M39.794 16.285 C 40.001 16.324,40.301 16.323,40.460 16.281 C 40.620 16.239,40.450 16.207,40.083 16.209 C 39.717 16.211,39.586 16.245,39.794 16.285 M60.125 16.284 C 60.331 16.324,60.669 16.324,60.875 16.284 C 61.081 16.245,60.913 16.212,60.500 16.212 C 60.087 16.212,59.919 16.245,60.125 16.284 M37.042 16.453 C 37.294 16.491,37.706 16.491,37.958 16.453 C 38.210 16.415,38.004 16.383,37.500 16.383 C 36.996 16.383,36.790 16.415,37.042 16.453 M62.708 16.453 C 62.960 16.491,63.373 16.491,63.625 16.453 C 63.877 16.415,63.671 16.383,63.167 16.383 C 62.663 16.383,62.456 16.415,62.708 16.453 M34.792 16.618 C 34.998 16.657,35.335 16.657,35.542 16.618 C 35.748 16.578,35.579 16.545,35.167 16.545 C 34.754 16.545,34.585 16.578,34.792 16.618 M65.125 16.618 C 65.331 16.657,65.669 16.657,65.875 16.618 C 66.081 16.578,65.912 16.545,65.500 16.545 C 65.087 16.545,64.919 16.578,65.125 16.618 M29.875 17.115 C 30.035 17.157,30.298 17.157,30.458 17.115 C 30.619 17.073,30.488 17.039,30.167 17.039 C 29.846 17.039,29.715 17.073,29.875 17.115 M70.208 17.115 C 70.369 17.157,70.631 17.157,70.792 17.115 C 70.952 17.073,70.821 17.039,70.500 17.039 C 70.179 17.039,70.048 17.073,70.208 17.115 M79.167 18.552 C 79.167 18.581,79.410 18.825,79.708 19.094 L 80.250 19.583 79.760 19.042 C 79.304 18.537,79.167 18.423,79.167 18.552 M19.906 19.875 L 19.417 20.417 19.958 19.927 C 20.256 19.658,20.500 19.414,20.500 19.385 C 20.500 19.257,20.362 19.370,19.906 19.875 M77.333 19.379 C 77.333 19.411,77.577 19.616,77.875 19.834 C 78.210 20.079,78.327 20.119,78.180 19.939 C 77.958 19.666,77.333 19.253,77.333 19.379 M21.162 21.125 L 20.083 22.250 21.208 21.171 C 22.253 20.170,22.410 20.000,22.287 20.000 C 22.261 20.000,21.755 20.506,21.162 21.125 M80.667 20.052 C 80.667 20.081,80.910 20.325,81.208 20.594 L 81.750 21.083 81.260 20.542 C 80.804 20.037,80.667 19.923,80.667 20.052 M79.250 21.000 C 79.608 21.367,79.938 21.667,79.984 21.667 C 80.030 21.667,79.775 21.367,79.417 21.000 C 79.059 20.633,78.728 20.333,78.682 20.333 C 78.637 20.333,78.892 20.633,79.250 21.000 M83.209 30.083 C 83.211 30.450,83.245 30.580,83.285 30.373 C 83.324 30.166,83.323 29.866,83.281 29.706 C 83.239 29.547,83.207 29.717,83.209 30.083 M85.045 31.000 C 85.045 31.412,85.078 31.581,85.118 31.375 C 85.157 31.169,85.157 30.831,85.118 30.625 C 85.078 30.419,85.045 30.587,85.045 31.000 M17.209 31.083 C 17.211 31.450,17.245 31.580,17.285 31.373 C 17.324 31.166,17.323 30.866,17.281 30.706 C 17.239 30.547,17.207 30.717,17.209 31.083 M45.833 30.792 C 45.833 30.860,46.789 30.897,47.958 30.873 C 51.891 30.793,52.270 30.732,49.042 30.699 C 47.277 30.681,45.833 30.723,45.833 30.792 M15.375 32.083 C 15.377 32.450,15.411 32.580,15.451 32.373 C 15.491 32.166,15.490 31.866,15.448 31.706 C 15.406 31.547,15.374 31.717,15.375 32.083 M17.042 32.750 C 17.044 33.117,17.078 33.247,17.118 33.040 C 17.158 32.832,17.156 32.532,17.115 32.373 C 17.073 32.214,17.040 32.383,17.042 32.750 M15.214 33.917 C 15.216 34.375,15.248 34.543,15.286 34.289 C 15.325 34.036,15.324 33.661,15.284 33.456 C 15.244 33.251,15.213 33.458,15.214 33.917 M16.872 34.667 C 16.872 34.987,16.906 35.119,16.948 34.958 C 16.990 34.798,16.990 34.535,16.948 34.375 C 16.906 34.215,16.872 34.346,16.872 34.667 M83.714 35.417 C 83.716 35.875,83.748 36.043,83.786 35.789 C 83.825 35.536,83.824 35.161,83.784 34.956 C 83.744 34.751,83.713 34.958,83.714 35.417 M15.042 36.083 C 15.044 36.450,15.078 36.580,15.118 36.373 C 15.158 36.166,15.156 35.866,15.115 35.706 C 15.073 35.547,15.040 35.717,15.042 36.083 M16.705 36.500 C 16.705 36.821,16.740 36.952,16.782 36.792 C 16.823 36.631,16.823 36.369,16.782 36.208 C 16.740 36.048,16.705 36.179,16.705 36.500 M85.545 36.667 C 85.545 37.079,85.578 37.248,85.618 37.042 C 85.657 36.835,85.657 36.498,85.618 36.292 C 85.578 36.085,85.545 36.254,85.545 36.667 M45.942 36.375 C 45.985 36.444,47.403 36.500,49.093 36.500 C 50.784 36.500,52.167 36.444,52.167 36.375 C 52.167 36.306,50.749 36.250,49.016 36.250 C 47.283 36.250,45.900 36.306,45.942 36.375 M83.883 37.667 C 83.883 38.171,83.915 38.377,83.953 38.125 C 83.991 37.873,83.991 37.460,83.953 37.208 C 83.915 36.956,83.883 37.162,83.883 37.667 M14.875 38.250 C 14.877 38.617,14.911 38.747,14.951 38.540 C 14.991 38.332,14.990 38.032,14.948 37.873 C 14.906 37.714,14.874 37.883,14.875 38.250 M16.555 39.250 C 16.555 39.892,16.586 40.134,16.622 39.788 C 16.658 39.442,16.657 38.917,16.620 38.621 C 16.583 38.325,16.554 38.608,16.555 39.250 M85.720 39.500 C 85.720 40.096,85.750 40.340,85.787 40.042 C 85.824 39.744,85.824 39.256,85.787 38.958 C 85.750 38.660,85.720 38.904,85.720 39.500 M84.045 40.500 C 84.045 40.912,84.078 41.081,84.118 40.875 C 84.157 40.669,84.157 40.331,84.118 40.125 C 84.078 39.919,84.045 40.087,84.045 40.500 M14.724 41.417 C 14.724 42.150,14.754 42.429,14.789 42.037 C 14.824 41.645,14.824 41.045,14.788 40.704 C 14.752 40.363,14.723 40.683,14.724 41.417 M45.219 40.791 C 46.668 40.819,48.993 40.819,50.385 40.791 C 51.778 40.763,50.592 40.741,47.750 40.741 C 44.908 40.741,43.769 40.764,45.219 40.791 M119.500 41.323 C 118.623 41.591,117.368 42.334,116.551 43.069 C 115.484 44.029,115.500 44.032,115.500 42.833 L 115.500 41.833 113.344 41.833 C 110.925 41.833,110.403 41.961,110.155 42.613 C 109.820 43.496,110.374 43.908,111.976 43.965 L 113.333 44.013 113.333 53.000 L 113.333 61.987 111.976 62.035 C 110.054 62.103,109.236 63.424,110.758 64.003 C 111.318 64.216,117.515 64.216,118.075 64.003 C 119.597 63.424,118.780 62.103,116.858 62.035 L 115.500 61.987 115.500 54.779 L 115.500 47.571 116.573 46.230 C 119.075 43.102,121.443 42.443,123.283 44.361 C 124.357 45.480,124.333 45.235,124.333 55.161 L 124.333 64.167 126.644 64.167 C 129.171 64.167,129.833 63.946,129.833 63.103 C 129.833 62.309,129.462 62.089,127.972 62.000 L 126.583 61.917 126.540 54.842 L 126.496 47.768 127.058 46.926 C 129.497 43.266,132.698 42.235,134.492 44.532 C 135.341 45.619,135.333 45.525,135.333 55.161 L 135.333 64.167 137.674 64.167 C 139.937 64.167,140.029 64.153,140.424 63.758 C 141.414 62.768,140.721 62.000,138.839 62.000 L 137.512 62.000 137.464 53.708 L 137.417 45.417 136.979 44.500 C 135.048 40.454,130.724 40.001,127.177 43.472 C 126.292 44.338,126.067 44.483,125.924 44.283 C 125.828 44.149,125.515 43.704,125.229 43.294 C 123.989 41.520,121.572 40.689,119.500 41.323 M196.833 41.490 C 192.223 42.466,190.842 43.048,190.836 44.016 C 190.830 45.074,191.479 45.185,193.667 44.501 C 200.065 42.500,204.776 43.158,206.188 46.250 C 206.447 46.817,206.686 51.167,206.458 51.167 C 206.435 51.167,205.854 51.061,205.167 50.931 C 195.945 49.192,188.934 51.881,188.242 57.422 C 187.304 64.933,197.929 67.584,205.575 61.748 C 205.994 61.428,206.373 61.167,206.418 61.167 C 206.463 61.167,206.500 61.842,206.500 62.667 L 206.500 64.167 209.261 64.167 C 212.548 64.167,212.991 64.024,212.997 62.968 C 213.002 62.195,212.492 62.000,210.469 62.000 L 208.679 62.000 208.631 54.125 L 208.583 46.250 208.097 45.290 C 206.382 41.905,201.945 40.408,196.833 41.490 M271.667 41.271 C 267.653 42.042,263.918 45.731,263.082 49.750 C 260.751 60.949,273.678 68.202,281.555 60.115 L 282.694 58.946 282.639 62.936 L 282.583 66.925 282.029 68.051 C 281.348 69.433,280.163 70.647,278.883 71.276 L 277.917 71.750 273.559 71.833 C 268.758 71.925,268.500 71.985,268.500 73.000 C 268.500 73.994,268.668 74.025,273.691 73.966 C 279.284 73.900,279.929 73.695,282.515 71.165 C 284.808 68.922,284.820 68.835,284.827 55.208 L 284.833 44.000 286.667 44.000 C 288.673 44.000,289.167 43.791,289.167 42.942 C 289.167 42.054,288.725 41.921,285.566 41.864 L 282.667 41.812 282.667 43.764 L 282.667 45.716 281.542 44.547 C 278.968 41.872,275.143 40.604,271.667 41.271 M347.374 41.502 C 337.789 44.013,335.217 56.428,343.034 62.443 C 350.736 68.370,361.999 63.277,362.445 53.667 C 362.823 45.507,355.291 39.427,347.374 41.502 M16.390 42.917 C 16.391 43.650,16.420 43.929,16.456 43.537 C 16.491 43.145,16.490 42.545,16.454 42.204 C 16.419 41.863,16.390 42.183,16.390 42.917 M85.887 43.167 C 85.887 43.762,85.917 44.006,85.954 43.708 C 85.991 43.410,85.991 42.923,85.954 42.625 C 85.917 42.327,85.887 42.571,85.887 43.167 M84.224 44.083 C 84.224 44.817,84.254 45.096,84.289 44.704 C 84.324 44.312,84.324 43.712,84.288 43.371 C 84.252 43.029,84.223 43.350,84.224 44.083 M276.369 43.664 C 283.600 45.897,284.851 55.872,278.424 60.035 C 273.300 63.353,266.214 60.180,265.156 54.094 C 263.982 47.343,270.040 41.709,276.369 43.664 M352.923 43.587 C 360.309 45.472,362.804 54.538,357.419 59.918 C 352.811 64.523,345.134 63.496,341.839 57.833 C 337.554 50.469,344.568 41.454,352.923 43.587 M14.575 49.917 C 14.575 53.217,14.597 54.590,14.625 52.969 C 14.652 51.348,14.652 48.648,14.625 46.969 C 14.598 45.290,14.575 46.617,14.575 49.917 M40.703 45.375 C 40.961 45.627,41.264 45.831,41.378 45.828 C 41.491 45.825,41.433 45.740,41.250 45.639 C 41.067 45.537,40.763 45.333,40.575 45.186 C 40.388 45.038,40.445 45.123,40.703 45.375 M45.123 46.125 L 47.496 46.176 47.542 52.546 L 47.587 58.917 47.627 52.458 L 47.667 46.000 45.208 46.037 L 42.750 46.073 45.123 46.125 M16.234 50.000 C 16.234 51.421,16.259 52.002,16.291 51.292 C 16.322 50.581,16.322 49.419,16.291 48.708 C 16.259 47.998,16.234 48.579,16.234 50.000 M86.067 49.917 C 86.067 51.292,86.093 51.832,86.124 51.117 C 86.155 50.403,86.155 49.278,86.124 48.617 C 86.092 47.957,86.066 48.542,86.067 49.917 M204.750 53.001 C 205.667 53.183,206.435 53.332,206.458 53.333 C 206.481 53.333,206.500 54.415,206.500 55.737 L 206.500 58.140 205.542 58.998 C 199.442 64.461,190.427 64.015,190.427 58.250 C 190.427 53.839,196.948 51.449,204.750 53.001 M84.224 55.750 C 84.224 56.483,84.254 56.763,84.289 56.371 C 84.324 55.979,84.324 55.379,84.288 55.037 C 84.252 54.696,84.223 55.017,84.224 55.750 M16.392 57.000 C 16.392 57.779,16.420 58.098,16.455 57.708 C 16.490 57.319,16.490 56.681,16.455 56.292 C 16.420 55.902,16.392 56.221,16.392 57.000 M85.887 56.667 C 85.887 57.262,85.917 57.506,85.954 57.208 C 85.991 56.910,85.991 56.423,85.954 56.125 C 85.917 55.827,85.887 56.071,85.887 56.667 M14.724 58.583 C 14.724 59.317,14.754 59.596,14.789 59.204 C 14.824 58.812,14.824 58.212,14.788 57.871 C 14.752 57.529,14.723 57.850,14.724 58.583 M84.042 59.417 C 84.044 59.783,84.078 59.914,84.118 59.706 C 84.158 59.499,84.156 59.199,84.115 59.040 C 84.073 58.880,84.040 59.050,84.042 59.417 M85.721 60.417 C 85.722 61.058,85.752 61.300,85.788 60.955 C 85.824 60.609,85.824 60.084,85.787 59.788 C 85.750 59.492,85.721 59.775,85.721 60.417 M16.555 60.583 C 16.555 61.225,16.586 61.467,16.622 61.121 C 16.658 60.775,16.657 60.250,16.620 59.955 C 16.583 59.659,16.554 59.942,16.555 60.583 M37.712 61.500 C 37.712 61.913,37.745 62.081,37.784 61.875 C 37.824 61.669,37.824 61.331,37.784 61.125 C 37.745 60.919,37.712 61.087,37.712 61.500 M62.705 61.500 C 62.705 61.821,62.740 61.952,62.782 61.792 C 62.823 61.631,62.823 61.369,62.782 61.208 C 62.740 61.048,62.705 61.179,62.705 61.500 M14.872 61.667 C 14.872 61.987,14.906 62.119,14.948 61.958 C 14.990 61.798,14.990 61.535,14.948 61.375 C 14.906 61.215,14.872 61.346,14.872 61.667 M83.883 62.333 C 83.883 62.837,83.915 63.044,83.953 62.792 C 83.991 62.540,83.991 62.127,83.953 61.875 C 83.915 61.623,83.883 61.829,83.883 62.333 M85.548 63.250 C 85.549 63.708,85.581 63.876,85.620 63.623 C 85.658 63.369,85.657 62.994,85.617 62.789 C 85.578 62.584,85.546 62.792,85.548 63.250 M16.705 63.333 C 16.705 63.654,16.740 63.785,16.782 63.625 C 16.823 63.465,16.823 63.202,16.782 63.042 C 16.740 62.881,16.705 63.012,16.705 63.333 M15.039 63.833 C 15.039 64.154,15.073 64.285,15.115 64.125 C 15.157 63.965,15.157 63.702,15.115 63.542 C 15.073 63.381,15.039 63.512,15.039 63.833 M83.714 64.583 C 83.716 65.042,83.748 65.209,83.786 64.956 C 83.825 64.703,83.824 64.328,83.784 64.123 C 83.744 63.918,83.713 64.125,83.714 64.583 M15.214 66.083 C 15.216 66.542,15.248 66.709,15.286 66.456 C 15.325 66.203,15.324 65.828,15.284 65.623 C 15.244 65.418,15.213 65.625,15.214 66.083 M17.045 67.167 C 17.045 67.579,17.078 67.748,17.118 67.542 C 17.157 67.335,17.157 66.998,17.118 66.792 C 17.078 66.585,17.045 66.754,17.045 67.167 M15.372 67.833 C 15.372 68.154,15.406 68.285,15.448 68.125 C 15.490 67.965,15.490 67.702,15.448 67.542 C 15.406 67.381,15.372 67.512,15.372 67.833 M17.212 68.833 C 17.212 69.246,17.245 69.415,17.284 69.208 C 17.324 69.002,17.324 68.665,17.284 68.458 C 17.245 68.252,17.212 68.421,17.212 68.833 M85.042 68.917 C 85.044 69.283,85.078 69.414,85.118 69.206 C 85.158 68.999,85.156 68.699,85.115 68.540 C 85.073 68.380,85.040 68.550,85.042 68.917 M83.205 69.833 C 83.205 70.154,83.240 70.285,83.282 70.125 C 83.323 69.965,83.323 69.702,83.282 69.542 C 83.240 69.381,83.205 69.512,83.205 69.833 M21.167 78.917 C 21.478 79.237,21.770 79.500,21.815 79.500 C 21.861 79.500,21.644 79.237,21.333 78.917 C 21.022 78.596,20.730 78.333,20.685 78.333 C 20.639 78.333,20.856 78.596,21.167 78.917 M80.411 80.208 L 79.417 81.250 80.458 80.255 C 81.426 79.331,81.576 79.167,81.453 79.167 C 81.427 79.167,80.959 79.635,80.411 80.208 M78.667 81.687 C 78.086 82.196,78.086 82.197,78.620 81.841 C 78.915 81.645,79.201 81.413,79.255 81.326 C 79.416 81.065,79.282 81.147,78.667 81.687 M30.294 82.951 C 30.501 82.991,30.801 82.990,30.960 82.948 C 31.120 82.906,30.950 82.874,30.583 82.875 C 30.217 82.877,30.086 82.911,30.294 82.951 M69.708 82.948 C 69.869 82.990,70.131 82.990,70.292 82.948 C 70.452 82.906,70.321 82.872,70.000 82.872 C 69.679 82.872,69.548 82.906,69.708 82.948 M31.960 83.118 C 32.168 83.158,32.468 83.156,32.627 83.115 C 32.786 83.073,32.617 83.040,32.250 83.042 C 31.883 83.044,31.753 83.078,31.960 83.118 M68.042 83.115 C 68.202 83.157,68.465 83.157,68.625 83.115 C 68.785 83.073,68.654 83.039,68.333 83.039 C 68.012 83.039,67.881 83.073,68.042 83.115 M35.542 83.448 C 35.702 83.490,35.965 83.490,36.125 83.448 C 36.285 83.406,36.154 83.372,35.833 83.372 C 35.512 83.372,35.381 83.406,35.542 83.448 M64.460 83.451 C 64.668 83.491,64.968 83.490,65.127 83.448 C 65.286 83.406,65.117 83.374,64.750 83.375 C 64.383 83.377,64.253 83.411,64.460 83.451 M37.795 83.621 C 38.094 83.658,38.544 83.657,38.795 83.619 C 39.045 83.581,38.800 83.551,38.250 83.552 C 37.700 83.553,37.495 83.584,37.795 83.621 M61.792 83.621 C 62.090 83.658,62.577 83.658,62.875 83.621 C 63.173 83.584,62.929 83.553,62.333 83.553 C 61.737 83.553,61.494 83.584,61.792 83.621 M40.795 83.787 C 41.094 83.825,41.544 83.824,41.795 83.786 C 42.045 83.748,41.800 83.717,41.250 83.718 C 40.700 83.719,40.495 83.750,40.795 83.787 M58.875 83.786 C 59.127 83.824,59.540 83.824,59.792 83.786 C 60.044 83.748,59.837 83.717,59.333 83.717 C 58.829 83.717,58.623 83.748,58.875 83.786 M44.792 83.955 C 45.181 83.990,45.819 83.990,46.208 83.955 C 46.598 83.920,46.279 83.892,45.500 83.892 C 44.721 83.892,44.402 83.920,44.792 83.955 M54.458 83.955 C 54.848 83.990,55.485 83.990,55.875 83.955 C 56.265 83.920,55.946 83.892,55.167 83.892 C 54.387 83.892,54.069 83.920,54.458 83.955 M31.294 84.785 C 31.501 84.824,31.801 84.823,31.960 84.781 C 32.120 84.739,31.950 84.707,31.583 84.709 C 31.217 84.711,31.086 84.745,31.294 84.785 M68.794 84.785 C 69.001 84.824,69.301 84.823,69.460 84.781 C 69.620 84.739,69.450 84.707,69.083 84.709 C 68.717 84.711,68.586 84.745,68.794 84.785 M32.958 84.951 C 33.165 84.991,33.502 84.991,33.708 84.951 C 33.915 84.911,33.746 84.879,33.333 84.879 C 32.921 84.879,32.752 84.911,32.958 84.951 M66.958 84.951 C 67.165 84.991,67.502 84.991,67.708 84.951 C 67.915 84.911,67.746 84.879,67.333 84.879 C 66.921 84.879,66.752 84.911,66.958 84.951 M37.042 85.282 C 37.202 85.323,37.465 85.323,37.625 85.282 C 37.785 85.240,37.654 85.205,37.333 85.205 C 37.012 85.205,36.881 85.240,37.042 85.282 M63.042 85.282 C 63.202 85.323,63.465 85.323,63.625 85.282 C 63.785 85.240,63.654 85.205,63.333 85.205 C 63.012 85.205,62.881 85.240,63.042 85.282 M39.455 85.454 C 39.750 85.490,40.275 85.491,40.621 85.455 C 40.967 85.419,40.725 85.389,40.083 85.388 C 39.442 85.387,39.159 85.417,39.455 85.454 M59.955 85.454 C 60.250 85.490,60.775 85.491,61.121 85.455 C 61.467 85.419,61.225 85.389,60.583 85.388 C 59.942 85.387,59.659 85.417,59.955 85.454 M43.042 85.623 C 43.477 85.657,44.190 85.657,44.625 85.623 C 45.060 85.588,44.704 85.560,43.833 85.560 C 42.962 85.560,42.606 85.588,43.042 85.623 M56.042 85.623 C 56.477 85.657,57.190 85.657,57.625 85.623 C 58.060 85.588,57.704 85.560,56.833 85.560 C 55.962 85.560,55.606 85.588,56.042 85.623 M47.333 96.932 C 28.049 97.713,24.316 98.806,20.182 104.885 C 17.730 108.490,16.751 116.437,16.757 132.667 C 16.765 153.796,18.081 159.769,23.678 164.090 C 27.728 167.216,34.850 168.240,52.500 168.235 C 60.454 168.233,62.932 168.127,69.833 167.491 C 78.997 166.647,83.745 163.755,85.958 157.667 C 88.495 150.685,88.842 118.665,86.482 109.250 C 85.057 103.566,80.384 99.291,74.474 98.266 C 69.440 97.393,54.317 96.650,47.333 96.932 M120.417 97.016 C 113.760 97.280,106.506 97.944,104.167 98.505 C 99.214 99.692,95.029 103.636,93.526 108.533 C 91.116 116.379,91.172 149.080,93.608 156.900 C 94.990 161.333,98.662 165.010,103.083 166.386 C 111.138 168.892,143.695 168.892,151.750 166.386 C 156.284 164.975,160.097 161.062,161.384 156.500 C 163.633 148.522,163.641 116.417,161.395 108.806 C 159.882 103.680,155.765 99.727,150.667 98.505 C 145.832 97.346,130.786 96.606,120.417 97.016 M197.417 96.933 C 179.571 97.717,176.417 98.392,172.403 102.288 C 168.712 105.871,167.900 108.688,167.084 120.750 C 166.162 134.364,167.050 152.643,168.876 157.667 C 171.086 163.748,175.846 166.648,185.000 167.491 C 196.466 168.547,208.887 168.551,219.834 167.503 C 229.035 166.621,233.318 164.100,235.818 158.095 C 239.086 150.245,238.862 113.290,235.506 106.422 C 233.394 102.101,229.386 99.129,224.500 98.263 C 219.644 97.402,204.107 96.639,197.417 96.933 M272.500 96.931 C 258.423 97.578,254.058 98.127,251.083 99.625 C 247.759 101.299,244.872 104.598,243.759 107.993 C 241.143 115.977,241.143 149.738,243.760 157.228 C 245.288 161.602,248.916 165.098,253.349 166.467 C 260.097 168.551,286.100 168.899,298.667 167.074 C 305.150 166.132,310.006 162.031,311.485 156.250 C 313.709 147.557,313.652 116.492,311.398 108.702 C 309.842 103.326,305.501 99.433,299.833 98.329 C 295.275 97.442,279.236 96.621,272.500 96.931 M347.500 96.932 C 337.183 97.350,330.704 97.991,328.000 98.863 C 323.565 100.294,319.735 104.320,318.518 108.833 C 316.606 115.922,316.277 140.492,317.924 153.209 C 319.007 161.569,323.893 166.258,332.541 167.236 C 345.255 168.674,359.745 168.674,372.459 167.236 C 378.274 166.578,381.945 164.507,384.686 160.337 C 386.567 157.475,387.061 155.090,387.843 145.083 C 388.600 135.383,387.942 115.468,386.670 109.644 C 385.595 104.717,381.702 100.378,377.000 98.864 C 373.148 97.624,356.826 96.555,347.500 96.932 M59.349 98.752 C 65.303 98.932,73.010 99.622,75.250 100.175 C 79.712 101.276,83.304 104.664,84.643 109.035 C 86.828 116.170,86.883 148.473,84.723 155.976 C 83.455 160.381,79.829 163.872,75.337 165.015 C 67.467 167.017,37.346 167.011,29.417 165.006 C 25.086 163.911,21.392 160.428,20.148 156.265 C 17.844 148.560,17.902 116.040,20.232 108.750 C 21.573 104.556,25.394 101.087,29.750 100.110 C 32.257 99.548,40.634 98.861,47.250 98.675 C 51.467 98.556,53.271 98.568,59.349 98.752 M134.349 98.752 C 139.410 98.905,147.433 99.570,149.667 100.021 C 154.068 100.909,157.859 104.097,159.407 108.209 C 162.073 115.292,162.029 150.108,159.346 157.191 C 158.272 160.024,155.536 162.916,152.720 164.192 C 145.811 167.325,109.322 167.390,102.304 164.282 C 99.563 163.067,96.933 160.437,95.718 157.696 C 92.762 151.021,92.655 115.008,95.571 107.833 C 96.921 104.510,100.153 101.528,103.583 100.441 C 106.114 99.640,113.768 98.918,122.333 98.675 C 126.473 98.557,128.300 98.569,134.349 98.752 M209.417 98.755 C 214.944 98.916,222.757 99.593,225.083 100.112 C 229.706 101.143,233.463 104.701,234.735 109.250 C 236.922 117.076,236.973 147.172,234.813 155.745 C 233.628 160.451,229.633 164.183,224.750 165.146 C 213.255 167.414,183.124 166.855,177.268 164.265 C 174.641 163.103,171.885 160.321,170.707 157.641 C 167.604 150.582,167.789 113.370,170.958 107.083 C 174.183 100.687,178.799 99.210,197.250 98.677 C 201.470 98.555,202.842 98.563,209.417 98.755 M284.500 98.757 C 301.080 99.262,305.826 100.862,308.912 106.991 C 311.629 112.385,312.391 139.450,310.231 153.825 C 309.343 159.734,305.397 163.999,299.750 165.152 C 289.274 167.292,258.864 166.877,252.866 164.513 C 250.067 163.410,247.409 160.959,246.013 158.193 C 242.622 151.474,242.624 113.922,246.017 107.053 C 249.148 100.713,253.913 99.196,272.333 98.676 C 276.647 98.554,278.188 98.565,284.500 98.757 M359.643 98.755 C 374.034 99.213,378.792 100.369,382.040 104.197 C 384.836 107.492,385.389 109.770,386.200 121.333 C 386.886 131.107,386.141 150.925,384.908 155.707 C 383.701 160.386,379.608 164.194,374.750 165.156 C 363.975 167.290,333.987 166.888,328.000 164.529 C 323.369 162.705,320.471 158.889,319.687 153.583 C 317.849 141.161,318.290 114.607,320.437 108.419 C 322.336 102.943,326.424 100.309,334.250 99.519 C 343.023 98.633,349.591 98.436,359.643 98.755 M350.333 116.250 L 350.333 119.000 351.917 119.000 L 353.500 119.000 353.500 116.250 L 353.500 113.500 351.917 113.500 L 350.333 113.500 350.333 116.250 M282.219 114.666 C 281.494 114.962,281.300 115.800,281.833 116.333 C 282.126 116.626,282.389 116.667,284.000 116.667 L 285.833 116.667 285.833 122.664 L 285.833 128.662 284.449 127.289 C 277.166 120.067,265.481 124.772,265.042 135.103 C 264.578 146.059,276.740 151.759,284.375 144.163 L 285.833 142.712 285.833 144.773 L 285.833 146.833 288.572 146.833 C 291.578 146.833,292.088 146.728,292.345 146.054 C 292.715 145.079,292.164 144.757,290.025 144.703 L 288.168 144.656 288.126 129.620 L 288.083 114.583 285.333 114.550 C 283.821 114.532,282.419 114.584,282.219 114.666 M46.307 124.066 C 45.398 124.390,44.192 125.136,43.409 125.859 C 42.511 126.686,42.500 126.681,42.500 125.500 L 42.500 124.500 40.292 124.502 C 37.671 124.505,37.274 124.637,37.199 125.530 C 37.126 126.402,37.574 126.667,39.120 126.667 L 40.333 126.667 40.333 135.667 L 40.333 144.667 39.026 144.667 C 37.495 144.667,37.106 144.920,37.197 145.856 C 37.285 146.776,37.609 146.844,41.640 146.794 C 45.152 146.751,45.201 146.745,45.515 146.357 C 46.340 145.337,45.672 144.667,43.833 144.667 L 42.500 144.667 42.500 137.473 L 42.500 130.280 43.161 129.405 C 45.793 125.918,48.410 125.043,50.272 127.027 C 51.291 128.114,51.243 127.635,51.333 137.583 L 51.417 146.750 53.680 146.796 C 56.191 146.847,56.833 146.632,56.833 145.738 C 56.833 144.963,56.304 144.667,54.917 144.667 L 53.667 144.667 53.667 137.442 L 53.667 130.217 54.125 129.536 C 56.721 125.678,60.140 124.827,61.787 127.629 L 62.250 128.417 62.333 137.583 L 62.417 146.750 64.807 146.750 C 67.118 146.750,67.207 146.737,67.515 146.357 C 68.315 145.368,67.774 144.775,65.972 144.667 L 64.583 144.583 64.500 136.250 L 64.417 127.917 63.948 127.027 C 61.865 123.073,57.641 122.686,54.194 126.133 C 53.216 127.111,53.085 127.193,52.927 126.921 C 51.402 124.308,48.787 123.180,46.307 124.066 M201.044 124.081 C 199.451 124.527,197.353 125.829,196.094 127.152 C 195.383 127.899,195.333 127.829,195.333 126.083 L 195.333 124.500 193.106 124.500 C 190.669 124.500,190.000 124.729,190.000 125.564 C 190.000 126.357,190.371 126.577,191.861 126.667 L 193.250 126.750 193.250 135.667 L 193.250 144.583 191.528 144.667 C 189.375 144.771,188.793 145.296,189.652 146.357 L 189.971 146.750 194.333 146.750 L 198.696 146.750 199.015 146.357 C 199.874 145.296,199.291 144.771,197.139 144.667 L 195.417 144.583 195.373 137.876 L 195.330 131.168 196.658 129.687 C 201.070 124.765,207.172 124.599,209.323 129.343 C 209.644 130.049,209.660 130.425,209.663 137.375 L 209.667 144.667 208.454 144.667 C 206.794 144.667,206.015 145.349,206.628 146.267 C 207.097 146.970,213.879 147.155,214.728 146.488 C 215.835 145.617,215.167 144.784,213.267 144.667 L 211.917 144.583 211.833 137.000 L 211.750 129.417 211.210 128.276 C 209.554 124.780,205.103 122.943,201.044 124.081 M114.439 124.845 C 113.171 125.843,114.104 126.667,116.500 126.667 L 118.333 126.667 118.333 134.009 C 118.333 143.320,118.520 144.231,120.835 146.213 C 123.597 148.577,129.264 147.914,133.496 144.731 C 134.152 144.237,134.721 143.833,134.761 143.833 C 134.801 143.833,134.833 144.508,134.833 145.333 L 134.833 146.833 136.989 146.833 C 139.378 146.833,139.912 146.708,140.198 146.082 C 140.587 145.227,139.962 144.759,138.358 144.702 L 137.000 144.653 137.000 134.567 L 137.000 124.481 133.506 124.532 C 129.689 124.588,129.458 124.647,129.458 125.574 C 129.458 126.538,129.809 126.667,132.442 126.667 L 134.833 126.667 134.833 133.659 L 134.833 140.651 133.990 141.494 C 129.988 145.496,124.492 146.680,121.909 144.097 C 120.478 142.666,120.500 142.841,120.500 132.970 L 120.500 124.500 117.689 124.500 C 115.098 124.500,114.844 124.527,114.439 124.845 M344.250 124.699 C 343.799 124.955,343.672 125.171,343.669 125.688 C 343.664 126.514,343.930 126.577,347.817 126.667 L 351.417 126.750 351.417 135.667 L 351.417 144.583 346.695 144.667 C 341.538 144.758,341.500 144.766,341.500 145.770 C 341.500 146.850,341.324 146.833,352.450 146.833 C 363.712 146.833,363.490 146.857,363.497 145.645 C 363.502 144.791,363.320 144.757,358.266 144.667 L 353.583 144.583 353.540 134.542 L 353.497 124.500 349.040 124.505 C 346.034 124.508,344.475 124.572,344.250 124.699 M278.812 126.242 C 286.018 128.160,288.330 137.989,282.744 142.961 C 276.468 148.549,267.139 144.178,267.132 135.647 C 267.127 129.364,272.943 124.680,278.812 126.242" stroke="none" fill="#9c9c9c" fill-rule="evenodd"></path></g></svg>