<svg id="svg" xmlns="http://www.w3.org/2000/svg" xmlns:xlink="http://www.w3.org/1999/xlink" width="400" height="250.57142857142858" viewBox="0, 0, 400,250.57142857142858"><g id="svgg"><path id="path0" d="M343.107 17.653 C 342.891 17.770,342.714 17.914,342.714 17.972 C 342.714 18.031,342.421 18.591,342.062 19.218 C 341.399 20.376,340.410 22.551,339.432 25.000 C 339.134 25.746,338.344 27.707,337.676 29.357 C 335.965 33.585,333.985 38.999,332.502 43.500 C 327.177 59.669,317.176 79.165,304.069 98.929 C 301.120 103.376,299.998 104.992,296.875 109.286 C 294.161 113.018,294.384 112.787,291.757 114.597 C 285.099 119.183,279.335 125.024,277.490 129.054 C 276.559 131.087,277.378 132.929,279.214 132.929 C 280.242 132.929,280.508 132.707,282.068 130.548 C 283.624 128.397,284.357 127.494,285.990 125.714 C 287.410 124.167,290.470 120.769,292.806 118.143 C 301.335 108.558,316.935 98.971,328.571 96.162 C 338.821 93.688,343.970 95.038,346.729 100.925 C 347.426 102.414,347.458 102.247,346.322 103.080 C 328.186 116.363,310.520 136.095,307.064 146.929 C 304.451 155.116,307.715 160.616,314.227 159.000 C 325.842 156.116,338.179 142.632,347.359 122.786 C 351.401 114.047,352.306 108.654,350.672 103.037 L 350.329 101.860 351.915 100.807 C 364.080 92.731,374.868 88.688,379.000 90.657 C 382.936 92.532,384.773 97.481,384.765 106.187 C 384.761 110.809,385.027 110.128,382.571 111.797 C 363.663 124.650,352.545 135.099,347.520 144.738 C 341.225 156.812,346.691 170.464,356.750 167.793 C 365.481 165.475,373.367 154.799,380.772 135.269 C 383.684 127.591,386.036 118.302,387.070 110.405 C 387.118 110.038,387.250 109.660,387.364 109.566 C 387.596 109.373,387.643 108.907,387.438 108.833 C 387.355 108.804,387.355 107.845,387.439 106.308 C 388.042 95.185,384.109 88.714,376.747 88.714 C 371.111 88.714,360.888 93.097,351.163 99.682 C 350.427 100.180,349.813 100.568,349.797 100.544 C 349.781 100.520,349.497 100.036,349.166 99.468 C 346.137 94.283,339.378 92.455,330.286 94.363 C 321.580 96.189,313.862 99.877,300.956 108.377 C 299.242 109.506,297.889 110.349,297.948 110.250 C 298.007 110.152,298.997 108.754,300.149 107.143 C 302.049 104.484,306.476 97.906,308.419 94.857 C 308.844 94.189,309.398 93.321,309.650 92.929 C 315.224 84.239,322.453 70.881,328.398 58.286 C 328.713 57.618,329.465 56.043,330.069 54.786 C 332.133 50.488,335.217 43.540,337.329 38.429 C 337.767 37.368,338.553 35.471,339.075 34.214 C 340.792 30.081,342.095 26.815,342.781 24.929 C 343.152 23.907,343.771 22.258,344.156 21.265 C 345.021 19.035,345.073 18.350,344.418 17.798 C 343.918 17.378,343.666 17.350,343.107 17.653 M303.475 28.010 C 301.403 28.406,299.364 31.275,300.081 32.785 C 300.522 33.714,301.125 33.850,303.000 33.440 C 303.841 33.257,304.832 33.709,305.758 34.700 C 307.126 36.162,306.804 37.881,304.134 43.357 C 298.744 54.412,290.893 66.194,272.960 90.143 C 256.132 112.616,249.419 122.084,242.016 133.786 C 240.675 135.907,239.555 137.705,239.528 137.782 C 239.501 137.858,238.490 137.620,237.275 137.251 C 229.217 134.803,225.323 133.865,221.143 133.363 C 216.728 132.834,214.462 132.364,213.796 131.840 C 212.433 130.767,215.071 125.702,220.148 119.643 C 228.776 109.345,230.635 106.665,232.139 102.357 C 233.833 97.503,232.763 93.902,229.636 93.939 C 228.719 93.949,228.899 93.870,224.714 96.114 C 218.408 99.495,206.943 109.035,194.715 121.074 C 187.399 128.276,185.998 129.119,183.452 127.846 C 179.085 125.664,178.673 113.794,182.607 103.500 C 182.878 102.793,183.553 101.025,184.109 99.571 C 184.665 98.118,185.346 96.286,185.622 95.500 C 186.757 92.273,187.637 89.872,188.031 88.929 C 189.935 84.366,190.054 83.918,189.632 82.901 C 189.116 81.654,187.719 81.178,186.594 81.863 C 186.124 82.150,185.160 83.956,184.144 86.451 C 183.657 87.649,178.958 93.605,172.779 100.857 C 170.022 104.092,162.186 114.939,155.650 124.566 C 154.048 126.925,153.908 127.401,154.606 128.099 C 156.018 129.512,157.258 128.277,163.882 118.857 C 170.494 109.456,172.880 105.834,176.493 99.714 C 178.312 96.634,181.882 91.549,182.085 91.751 C 182.109 91.776,181.936 92.404,181.701 93.148 C 180.451 97.095,179.931 100.176,178.941 109.500 C 177.465 123.403,179.447 130.625,185.044 131.735 C 188.360 132.393,192.805 129.056,199.771 120.679 C 200.604 119.677,201.966 118.037,202.798 117.036 C 210.819 107.372,223.898 96.714,227.737 96.714 C 228.265 96.714,228.286 96.732,228.286 97.198 C 228.286 99.672,224.033 108.485,217.965 118.585 C 210.663 130.740,209.916 132.977,212.365 135.357 C 214.693 137.620,218.006 138.370,227.500 138.785 C 232.547 139.006,234.324 139.150,236.750 139.539 L 238.286 139.786 236.697 142.429 C 229.520 154.358,224.412 164.282,220.997 172.929 C 220.594 173.950,220.175 175.011,220.066 175.286 C 218.966 178.063,216.575 185.354,215.943 187.857 C 215.894 188.054,215.631 189.082,215.359 190.143 C 207.609 220.370,218.959 241.623,237.977 232.496 C 246.775 228.274,254.802 218.316,260.717 204.286 C 267.312 188.643,268.079 173.159,262.960 159.000 C 259.615 149.746,253.478 143.704,242.857 139.205 C 241.796 138.755,240.906 138.369,240.878 138.346 C 240.730 138.223,247.454 127.816,250.979 122.714 C 256.695 114.441,262.818 106.046,274.215 90.857 C 295.543 62.434,304.312 48.582,308.250 37.091 C 309.672 32.942,309.563 31.596,307.638 29.579 C 306.404 28.285,304.935 27.731,303.475 28.010 M316.571 42.014 C 315.059 42.900,315.010 44.976,316.476 46.058 C 317.303 46.668,320.389 46.302,321.138 45.506 C 322.196 44.379,321.236 42.286,319.660 42.286 C 319.458 42.286,319.082 42.157,318.825 42.001 C 318.209 41.625,317.225 41.631,316.571 42.014 M11.431 48.036 C 9.312 49.118,9.287 52.224,11.390 53.162 C 12.392 53.609,12.320 53.572,14.714 54.858 C 15.932 55.513,17.346 56.305,17.857 56.619 C 18.368 56.932,20.129 57.890,21.770 58.747 C 23.411 59.604,26.111 61.145,27.770 62.171 C 31.014 64.177,33.995 65.851,37.027 67.370 C 50.011 73.876,74.191 95.988,90.328 116.114 L 91.851 118.013 91.112 119.185 C 82.233 133.263,76.492 147.138,74.359 159.677 C 73.336 165.691,73.523 176.190,74.784 183.534 C 78.020 202.377,90.835 213.771,102.354 208.046 C 112.761 202.874,116.674 188.925,114.070 166.286 C 112.137 149.482,105.334 133.052,94.469 118.950 C 93.557 117.766,93.499 118.172,94.880 116.103 C 104.278 102.029,113.445 93.067,123.192 88.426 C 127.985 86.144,130.819 86.078,131.902 88.224 C 132.802 90.007,133.115 95.061,132.525 98.286 C 131.381 104.537,130.189 108.670,127.314 116.357 C 124.175 124.750,122.968 130.043,123.628 132.521 C 124.744 136.715,129.733 139.420,138.730 140.711 C 153.026 142.764,158.333 147.790,160.224 161.071 C 161.497 170.011,157.452 183.793,151.083 192.214 C 144.714 200.637,135.602 198.442,133.300 187.929 C 131.177 178.237,133.147 167.739,140.439 149.886 C 141.098 148.272,141.127 147.947,140.643 147.630 C 139.947 147.174,139.757 147.477,138.027 151.811 C 129.501 173.162,127.609 183.971,130.949 192.256 C 134.880 202.006,145.298 203.293,151.322 194.772 C 160.352 181.999,164.706 165.345,161.697 155.088 C 159.653 148.125,156.506 144.364,149.667 140.713 C 146.343 138.939,143.642 137.956,136.714 135.998 C 126.631 133.148,124.745 131.449,125.781 126.143 C 126.543 122.236,129.199 115.451,132.711 108.434 C 139.058 95.755,138.270 84.198,131.086 84.609 C 120.243 85.230,106.369 96.454,94.206 114.446 C 92.541 116.908,92.792 116.784,91.849 115.612 C 79.265 99.993,63.141 84.133,47.301 71.795 C 43.597 68.910,41.745 67.320,39.087 64.748 C 34.697 60.498,29.827 56.787,25.174 54.144 C 24.444 53.730,23.866 53.372,23.889 53.350 C 23.938 53.300,29.913 53.665,30.929 53.780 C 38.669 54.653,61.115 55.048,77.429 54.599 C 85.554 54.375,107.403 54.356,115.786 54.567 C 138.490 55.137,138.204 55.137,160.571 54.564 C 165.243 54.444,168.257 54.451,173.643 54.594 C 191.939 55.078,200.286 54.379,200.286 52.364 C 200.286 51.559,199.981 51.336,198.035 50.714 C 194.204 49.489,188.196 49.671,174.786 51.418 C 173.607 51.572,171.646 51.827,170.429 51.985 C 160.086 53.328,138.057 53.809,117.571 53.139 C 110.247 52.899,90.238 52.810,82.786 52.983 C 64.681 53.404,61.127 53.442,53.330 53.293 C 30.394 52.855,20.428 51.625,15.482 48.622 C 13.846 47.628,12.586 47.446,11.431 48.036 M308.034 66.619 C 306.362 67.226,305.314 69.534,306.143 70.786 C 307.019 72.109,304.803 75.479,297.783 83.500 C 292.355 89.701,289.381 93.350,287.185 96.500 C 285.414 99.042,283.612 101.402,282.299 102.901 C 279.922 105.614,279.571 106.415,280.271 107.529 C 282.556 111.165,288.628 105.006,296.146 91.429 C 298.550 87.086,300.873 83.361,304.698 77.714 C 306.961 74.373,308.169 73.020,309.660 72.155 C 310.122 71.887,310.645 71.580,310.822 71.473 C 313.540 69.831,311.064 65.520,308.034 66.619 M89.217 72.470 C 88.168 73.064,87.665 74.658,88.202 75.686 C 89.322 77.831,92.302 77.534,92.997 75.209 C 93.611 73.157,91.151 71.375,89.217 72.470 M347.970 104.940 C 350.876 120.544,333.126 150.194,317.056 156.578 C 307.738 160.279,306.750 151.027,314.966 137.000 C 320.602 127.377,331.811 115.798,345.731 105.219 C 347.792 103.652,347.731 103.659,347.970 104.940 M72.546 110.934 C 71.801 111.338,70.821 113.408,68.999 118.429 C 65.191 128.914,60.341 137.833,54.479 145.129 C 52.951 147.031,52.812 147.342,53.402 147.539 C 53.834 147.683,58.686 142.412,62.657 137.486 C 66.495 132.724,66.990 132.060,68.449 129.714 C 70.814 125.908,73.942 118.489,74.230 116.000 C 74.270 115.646,74.470 114.678,74.674 113.848 C 75.280 111.376,74.272 109.996,72.546 110.934 M384.513 112.179 C 384.474 112.434,384.402 113.125,384.353 113.714 C 383.134 128.409,375.250 148.513,366.608 158.965 C 360.985 165.766,354.616 168.370,351.214 165.260 C 346.644 161.084,345.913 152.952,349.435 145.463 C 353.905 135.958,362.427 127.652,383.143 112.609 C 384.558 111.581,384.607 111.566,384.513 112.179 M94.437 121.393 C 101.257 130.554,107.228 142.586,109.769 152.286 C 109.882 152.718,110.175 153.825,110.420 154.746 C 113.027 164.553,114.083 178.439,112.863 186.875 C 110.565 202.761,104.268 208.973,93.714 205.767 C 85.382 203.236,77.743 192.437,75.940 180.643 C 75.184 175.692,74.944 166.392,75.471 162.429 C 77.113 150.073,82.856 135.223,91.091 122.037 C 91.619 121.192,92.201 120.259,92.385 119.964 C 92.844 119.226,92.801 119.196,94.437 121.393 M241.878 140.728 C 251.582 143.948,258.154 150.223,261.616 159.571 C 267.747 176.126,265.008 196.106,254.115 214.291 C 243.044 232.773,227.080 238.816,219.520 227.387 C 211.496 215.255,212.818 195.727,223.357 170.714 C 226.821 162.493,233.378 150.220,239.519 140.464 C 239.784 140.042,239.822 140.046,241.878 140.728 M185.998 145.012 C 185.057 145.358,184.478 147.185,183.068 154.252 C 181.215 163.541,178.826 168.463,167.535 186.249 C 166.934 187.196,166.909 187.625,167.459 187.546 C 168.313 187.423,177.811 172.394,181.212 165.786 C 182.061 164.136,182.962 162.400,183.216 161.929 C 187.377 154.184,188.519 151.226,188.401 148.500 C 188.322 146.670,187.203 144.643,186.397 144.868 C 186.375 144.875,186.196 144.939,185.998 145.012 M208.643 147.501 C 206.135 148.846,200.591 157.939,198.447 164.221 C 196.211 170.775,195.628 176.185,196.893 178.643 C 200.771 186.181,213.207 178.205,216.382 166.143 C 218.076 159.707,216.699 156.459,210.969 153.366 C 208.650 152.114,208.163 152.916,210.406 154.294 C 215.110 157.184,216.500 160.220,215.113 164.571 C 212.730 172.046,203.698 179.832,199.460 178.064 C 196.660 176.897,197.022 172.945,200.572 165.929 C 203.541 160.059,208.550 152.114,209.959 151.039 C 210.211 150.846,210.459 150.550,210.511 150.380 C 210.562 150.210,210.740 149.923,210.906 149.742 C 212.015 148.532,210.155 146.690,208.643 147.501 " stroke="none" fill="#000000" fill-rule="evenodd"></path></g></svg>