<svg width="700" height="700" viewBox="0 0 700 700" fill="none" xmlns="http://www.w3.org/2000/svg">
<path d="M351.783 402.684C308.053 402.684 268.553 390.999 240.046 372.213C211.522 353.417 194.206 327.676 194.206 299.524C194.206 271.373 211.522 245.632 240.046 226.836C268.553 208.05 308.053 196.365 351.783 196.365C395.514 196.365 435.014 208.05 463.521 226.836C492.044 245.632 509.361 271.373 509.361 299.524C509.361 327.676 492.044 353.417 463.521 372.213C435.014 390.999 395.514 402.684 351.783 402.684Z" stroke="black" stroke-width="4"/>
<path d="M348.474 413.714C297.539 413.714 251.517 399.934 218.286 377.758C185.042 355.573 164.791 325.144 164.791 291.803C164.791 258.462 185.042 228.033 218.286 205.848C251.517 183.673 297.539 169.892 348.474 169.892C399.409 169.892 445.431 183.673 478.662 205.848C511.906 228.033 532.157 258.462 532.157 291.803C532.157 325.144 511.906 355.573 478.662 377.758C445.431 399.934 399.409 413.714 348.474 413.714Z" stroke="black" stroke-width="4"/>
<path d="M351.416 481.369C274.081 481.369 204.158 460.509 153.627 426.888C103.082 393.257 72.1335 347.018 72.1335 296.215C72.1335 245.413 103.082 199.173 153.627 165.543C204.158 131.922 274.081 111.061 351.416 111.061C428.751 111.061 498.674 131.922 549.205 165.543C599.75 199.173 630.698 245.413 630.698 296.215C630.698 347.018 599.75 393.257 549.205 426.888C498.674 460.509 428.751 481.369 351.416 481.369Z" stroke="black" stroke-width="4"/>
<path d="M347.003 517.403C258.095 517.403 177.694 493.292 119.579 454.416C61.4495 415.531 25.8038 362.03 25.8038 303.201C25.8038 244.373 61.4495 190.871 119.579 151.986C177.694 113.11 258.095 89 347.003 89C435.91 89 516.311 113.11 574.427 151.986C632.556 190.871 668.202 244.373 668.202 303.201C668.202 362.03 632.556 415.531 574.427 454.416C516.311 493.292 435.91 517.403 347.003 517.403Z" stroke="black" stroke-width="4"/>
<path d="M353.254 398.271C311.541 398.271 273.871 387.486 246.691 370.154C219.488 352.807 203.031 329.088 203.031 303.201C203.031 277.315 219.488 253.596 246.691 236.249C273.871 218.917 311.541 208.131 353.254 208.131C394.967 208.131 432.637 218.917 459.817 236.249C487.02 253.596 503.478 277.315 503.478 303.201C503.478 329.088 487.02 352.807 459.817 370.154C432.637 387.486 394.967 398.271 353.254 398.271Z" stroke="black" stroke-width="4"/>
<path d="M346.636 388.711C314.707 388.711 285.886 379.673 265.102 365.164C244.311 350.649 231.711 330.791 231.711 309.084C231.711 287.378 244.311 267.52 265.102 253.005C285.886 238.496 314.707 229.457 346.636 229.457C378.565 229.457 407.385 238.496 428.17 253.005C448.961 267.52 461.561 287.378 461.561 309.084C461.561 330.791 448.961 350.649 428.17 365.164C407.385 379.673 378.565 388.711 346.636 388.711Z" stroke="black" stroke-width="4"/>
<path d="M346.636 376.21C317.133 376.21 290.511 368.072 271.322 355.018C252.122 341.957 240.535 324.121 240.535 304.672C240.535 285.223 252.122 267.388 271.322 254.327C290.511 241.273 317.133 233.134 346.636 233.134C376.139 233.134 402.76 241.273 421.95 254.327C441.149 267.388 452.736 285.223 452.736 304.672C452.736 324.121 441.149 341.957 421.95 355.018C402.76 368.072 376.139 376.21 346.636 376.21Z" stroke="black" stroke-width="4"/>
<path d="M347.371 376.21C325.345 376.21 305.498 370.687 291.224 361.862C276.918 353.019 268.48 341.064 268.48 328.204C268.48 315.345 276.918 303.39 291.224 294.546C305.498 285.722 325.345 280.198 347.371 280.198C369.398 280.198 389.244 285.722 403.519 294.546C417.824 303.39 426.263 315.345 426.263 328.204C426.263 341.064 417.824 353.019 403.519 361.862C389.244 370.687 369.398 376.21 347.371 376.21Z" stroke="black" stroke-width="4"/>
<path d="M348.107 354.149C334.371 354.149 322.034 351.038 313.202 346.11C304.304 341.145 299.366 334.603 299.366 327.837C299.366 321.07 304.304 314.528 313.202 309.563C322.034 304.635 334.371 301.525 348.107 301.525C361.843 301.525 374.179 304.635 383.012 309.563C391.91 314.528 396.848 321.07 396.848 327.837C396.848 334.603 391.91 341.145 383.012 346.11C374.179 351.038 361.843 354.149 348.107 354.149Z" stroke="black" stroke-width="4"/>
<path d="M349.21 335.029C336.827 335.029 325.713 331.933 317.759 327.034C309.773 322.114 305.248 315.582 305.248 308.717C305.248 301.851 309.773 295.319 317.759 290.4C325.713 285.5 336.827 282.405 349.21 282.405C361.592 282.405 372.706 285.5 380.66 290.4C388.646 295.319 393.171 301.851 393.171 308.717C393.171 315.582 388.646 322.114 380.66 327.034C372.706 331.933 361.592 335.029 349.21 335.029Z" fill="white" stroke="black" stroke-width="4"/>
<path d="M350.68 302.672C340.588 302.672 331.535 299.77 325.057 295.179C318.575 290.584 314.808 284.422 314.808 277.831C314.808 271.239 318.575 265.077 325.057 260.483C331.535 255.892 340.588 252.99 350.68 252.99C360.773 252.99 369.826 255.892 376.304 260.483C382.786 265.077 386.552 271.239 386.552 277.831C386.552 284.422 382.786 290.584 376.304 295.179C369.826 299.77 360.773 302.672 350.68 302.672Z" fill="white" stroke="black" stroke-width="4"/>
<path d="M350.313 287.965C344.129 287.965 338.626 286.394 334.733 283.961C330.811 281.51 328.781 278.38 328.781 275.257C328.781 272.134 330.811 269.004 334.733 266.553C338.626 264.12 344.129 262.549 350.313 262.549C356.496 262.549 361.999 264.12 365.892 266.553C369.814 269.004 371.845 272.134 371.845 275.257C371.845 278.38 369.814 281.51 365.892 283.961C361.999 286.394 356.496 287.965 350.313 287.965Z" stroke="black" stroke-width="4"/>
<path d="M366.124 278.934C372.942 270.109 358.402 265.697 358.402 265.697L356.196 271.58L349.578 270.109L351.416 265.329C351.416 265.329 336.719 265.564 333.399 271.58C327.516 282.243 342.224 283.346 342.224 283.346L345.533 277.463L352.519 278.934L348.842 285.185C348.842 285.185 361.362 285.096 366.124 278.934Z" stroke="black" stroke-width="4"/>
<path d="M37.1165 247.88C37.1165 247.88 7.5536 305.993 21.955 396.901C44.0356 536.283 196.814 610.857 339.446 612.95C486.015 615.1 632.669 548.538 667.989 436.566C709.923 303.622 637.084 210 637.084 210" stroke="black" stroke-width="4"/>
<path d="M407.672 342.912V354.678M395.906 342.912V354.678" stroke="black" stroke-width="4"/>
<path d="M402.157 336.499C400.308 336.499 398.733 336.067 397.689 335.471C396.589 334.842 396.435 334.278 396.435 334.087C396.435 333.896 396.589 333.332 397.689 332.704C398.733 332.107 400.308 331.675 402.157 331.675C404.006 331.675 405.581 332.107 406.625 332.704C407.725 333.332 407.878 333.896 407.878 334.087C407.878 334.278 407.725 334.842 406.625 335.471C405.581 336.067 404.006 336.499 402.157 336.499Z" stroke="black" stroke-width="4"/>
<path d="M409.511 333.719L411.717 338.499L407.672 342.912H395.906L391.862 338.499L394.803 333.719" stroke="black" stroke-width="4"/>
<path d="M411.717 350.266L407.672 354.678H395.906L391.862 350.266" stroke="black" stroke-width="4"/>
<path d="M391.862 338.499C391.862 338.499 391.862 346.469 391.862 350.633M411.717 338.499V350.633" stroke="black" stroke-width="4"/>
<path d="M338.179 355.413V367.179M326.413 355.413V367.179" stroke="black" stroke-width="4"/>
<path d="M332.664 349.001C330.815 349.001 329.24 348.569 328.196 347.972C327.096 347.344 326.942 346.78 326.942 346.589C326.942 346.398 327.096 345.834 328.196 345.205C329.24 344.609 330.815 344.177 332.664 344.177C334.512 344.177 336.087 344.609 337.131 345.205C338.231 345.834 338.385 346.398 338.385 346.589C338.385 346.78 338.231 347.344 337.131 347.972C336.087 348.569 334.512 349.001 332.664 349.001Z" stroke="black" stroke-width="4"/>
<path d="M340.017 346.221L342.224 351.001L338.179 355.413H326.413L322.368 351.001L325.31 346.221" stroke="black" stroke-width="4"/>
<path d="M342.224 362.767L338.179 367.179H326.413L322.368 362.767" stroke="black" stroke-width="4"/>
<path d="M322.368 351.001C322.368 351.001 322.368 358.971 322.368 363.135M342.224 351.001V363.135" stroke="black" stroke-width="4"/>
<path d="M293.321 316.438V328.204M281.555 316.438V328.204" stroke="black" stroke-width="4"/>
<path d="M287.806 310.026C285.957 310.026 284.382 309.593 283.338 308.997C282.238 308.368 282.084 307.805 282.084 307.614C282.084 307.423 282.238 306.859 283.338 306.23C284.382 305.634 285.957 305.201 287.806 305.201C289.654 305.201 291.23 305.634 292.273 306.23C293.373 306.859 293.527 307.423 293.527 307.614C293.527 307.805 293.373 308.368 292.273 308.997C291.23 309.593 289.654 310.026 287.806 310.026Z" stroke="black" stroke-width="4"/>
<path d="M295.159 307.246L297.366 312.026L293.321 316.438H281.555L277.51 312.026L280.452 307.246" stroke="black" stroke-width="4"/>
<path d="M297.366 323.792L293.321 328.204H281.555L277.51 323.792" stroke="black" stroke-width="4"/>
<path d="M277.51 312.026C277.51 312.026 277.51 319.995 277.51 324.16M297.366 312.026V324.16" stroke="black" stroke-width="4"/>
<path d="M404.363 291.435V303.201M392.597 291.435V303.201" stroke="black" stroke-width="4"/>
<path d="M398.848 285.023C396.999 285.023 395.424 284.591 394.38 283.994C393.28 283.366 393.126 282.802 393.126 282.611C393.126 282.42 393.28 281.856 394.38 281.227C395.424 280.631 396.999 280.198 398.848 280.198C400.696 280.198 402.272 280.631 403.315 281.227C404.415 281.856 404.569 282.42 404.569 282.611C404.569 282.802 404.415 283.366 403.315 283.994C402.272 284.591 400.696 285.023 398.848 285.023Z" stroke="black" stroke-width="4"/>
<path d="M406.201 282.243L408.408 287.023L404.363 291.435H392.597L388.552 287.023L391.494 282.243" stroke="black" stroke-width="4"/>
<path d="M408.408 298.789L404.363 303.201H392.597L388.552 298.789" stroke="black" stroke-width="4"/>
<path d="M388.552 287.023C388.552 287.023 388.552 294.993 388.552 299.157M408.408 287.023V299.157" stroke="black" stroke-width="4"/>
</svg>
