<?xml version="1.0" encoding="UTF-8"?>
<!DOCTYPE svg PUBLIC "-//W3C//DTD SVG 1.1//EN" "http://www.w3.org/Graphics/SVG/1.1/DTD/svg11.dtd">
<svg version="1.2" viewBox="4586 10566 58562 16969" preserveAspectRatio="xMidYMid" fill-rule="evenodd" stroke-width="28.222" stroke-linejoin="round" xmlns="http://www.w3.org/2000/svg" xmlns:ooo="http://xml.openoffice.org/svg/export" xmlns:xlink="http://www.w3.org/1999/xlink" xmlns:presentation="http://sun.com/xmlns/staroffice/presentation" xmlns:smil="http://www.w3.org/2001/SMIL20/" xmlns:anim="urn:oasis:names:tc:opendocument:xmlns:animation:1.0" xml:space="preserve">
 <defs class="EmbeddedBulletChars">
  <g id="bullet-char-template-57356" transform="scale(0.00048828125,-0.00048828125)">
   <path d="M 580,1141 L 1163,571 580,0 -4,571 580,1141 Z"/>
  </g>
  <g id="bullet-char-template-57354" transform="scale(0.00048828125,-0.00048828125)">
   <path d="M 8,1128 L 1137,1128 1137,0 8,0 8,1128 Z"/>
  </g>
  <g id="bullet-char-template-10146" transform="scale(0.00048828125,-0.00048828125)">
   <path d="M 174,0 L 602,739 174,1481 1456,739 174,0 Z M 1358,739 L 309,1346 659,739 1358,739 Z"/>
  </g>
  <g id="bullet-char-template-10132" transform="scale(0.00048828125,-0.00048828125)">
   <path d="M 2015,739 L 1276,0 717,0 1260,543 174,543 174,936 1260,936 717,1481 1274,1481 2015,739 Z"/>
  </g>
  <g id="bullet-char-template-10007" transform="scale(0.00048828125,-0.00048828125)">
   <path d="M 0,-2 C -7,14 -16,27 -25,37 L 356,567 C 262,823 215,952 215,954 215,979 228,992 255,992 264,992 276,990 289,987 310,991 331,999 354,1012 L 381,999 492,748 772,1049 836,1024 860,1049 C 881,1039 901,1025 922,1006 886,937 835,863 770,784 769,783 710,716 594,584 L 774,223 C 774,196 753,168 711,139 L 727,119 C 717,90 699,76 672,76 641,76 570,178 457,381 L 164,-76 C 142,-110 111,-127 72,-127 30,-127 9,-110 8,-76 1,-67 -2,-52 -2,-32 -2,-23 -1,-13 0,-2 Z"/>
  </g>
  <g id="bullet-char-template-10004" transform="scale(0.00048828125,-0.00048828125)">
   <path d="M 285,-33 C 182,-33 111,30 74,156 52,228 41,333 41,471 41,549 55,616 82,672 116,743 169,778 240,778 293,778 328,747 346,684 L 369,508 C 377,444 397,411 428,410 L 1163,1116 C 1174,1127 1196,1133 1229,1133 1271,1133 1292,1118 1292,1087 L 1292,965 C 1292,929 1282,901 1262,881 L 442,47 C 390,-6 338,-33 285,-33 Z"/>
  </g>
  <g id="bullet-char-template-9679" transform="scale(0.00048828125,-0.00048828125)">
   <path d="M 813,0 C 632,0 489,54 383,161 276,268 223,411 223,592 223,773 276,916 383,1023 489,1130 632,1184 813,1184 992,1184 1136,1130 1245,1023 1353,916 1407,772 1407,592 1407,412 1353,268 1245,161 1136,54 992,0 813,0 Z"/>
  </g>
  <g id="bullet-char-template-8226" transform="scale(0.00048828125,-0.00048828125)">
   <path d="M 346,457 C 273,457 209,483 155,535 101,586 74,649 74,723 74,796 101,859 155,911 209,963 273,989 346,989 419,989 480,963 531,910 582,859 608,796 608,723 608,648 583,586 532,535 482,483 420,457 346,457 Z"/>
  </g>
  <g id="bullet-char-template-8211" transform="scale(0.00048828125,-0.00048828125)">
   <path d="M -4,459 L 1135,459 1135,606 -4,606 -4,459 Z"/>
  </g>
  <g id="bullet-char-template-61548" transform="scale(0.00048828125,-0.00048828125)">
   <path d="M 173,740 C 173,903 231,1043 346,1159 462,1274 601,1332 765,1332 928,1332 1067,1274 1183,1159 1299,1043 1357,903 1357,740 1357,577 1299,437 1183,322 1067,206 928,148 765,148 601,148 462,206 346,322 231,437 173,577 173,740 Z"/>
  </g>
 </defs>
 <g ooo:name="page1" class="Page">
  <g class="Group">
   <g class="Group">
    <g class="com.sun.star.drawing.CustomShape">
     <g id="id3">
      <rect class="BoundingBox" stroke="none" fill="none" x="29986" y="10601" width="3176" height="3176"/>
      <path fill="rgb(22,42,53)" stroke="none" d="M 32446,10646 C 32527,10655 32608,10664 32685,10691 32775,10723 32854,10775 32920,10841 32986,10906 33038,10986 33070,11075 33096,11153 33106,11234 33115,11315 33176,11895 33176,12480 33115,13061 33106,13142 33096,13223 33070,13300 33038,13390 32986,13469 32920,13535 32854,13601 32775,13653 32685,13685 32608,13711 32527,13721 32446,13730 31865,13791 31280,13791 30700,13730 30619,13721 30538,13711 30460,13685 30371,13653 30291,13601 30226,13535 30160,13469 30108,13390 30076,13300 30049,13223 30040,13142 30031,13061 29971,12480 29971,11895 30031,11315 30040,11234 30049,11153 30076,11075 30108,10986 30160,10906 30226,10841 30291,10775 30371,10723 30460,10691 30538,10664 30619,10655 30700,10646 31280,10586 31865,10586 32446,10646 L 32446,10646 Z"/>
     </g>
    </g>
    <g class="com.sun.star.drawing.CustomShape">
     <g id="id4">
      <rect class="BoundingBox" stroke="none" fill="none" x="34572" y="10566" width="3176" height="3176"/>
      <path fill="rgb(219,67,54)" stroke="none" d="M 37032,10611 C 37113,10620 37194,10629 37271,10656 37361,10688 37440,10740 37506,10806 37572,10871 37624,10951 37656,11040 37682,11118 37692,11199 37701,11280 37762,11860 37762,12445 37701,13026 37692,13107 37682,13188 37656,13265 37624,13355 37572,13434 37506,13500 37440,13566 37361,13618 37271,13650 37194,13676 37113,13686 37032,13695 36451,13756 35866,13756 35286,13695 35205,13686 35124,13676 35046,13650 34957,13618 34877,13566 34812,13500 34746,13434 34694,13355 34662,13265 34635,13188 34626,13107 34617,13026 34557,12445 34557,11860 34617,11280 34626,11199 34635,11118 34662,11040 34694,10951 34746,10871 34812,10806 34877,10740 34957,10688 35046,10656 35124,10629 35205,10620 35286,10611 35866,10551 36451,10551 37032,10611 L 37032,10611 Z"/>
     </g>
    </g>
    <g class="com.sun.star.drawing.CustomShape">
     <g id="id5">
      <rect class="BoundingBox" stroke="none" fill="none" x="29986" y="15187" width="3176" height="3176"/>
      <path fill="rgb(22,42,53)" stroke="none" d="M 32446,15232 C 32527,15241 32608,15250 32685,15277 32775,15309 32854,15361 32920,15427 32986,15492 33038,15572 33070,15661 33096,15739 33106,15820 33115,15901 33176,16481 33176,17066 33115,17647 33106,17728 33096,17809 33070,17886 33038,17976 32986,18055 32920,18121 32854,18187 32775,18239 32685,18271 32608,18297 32527,18307 32446,18316 31865,18377 31280,18377 30700,18316 30619,18307 30538,18297 30460,18271 30371,18239 30291,18187 30226,18121 30160,18055 30108,17976 30076,17886 30049,17809 30040,17728 30031,17647 29971,17066 29971,16481 30031,15901 30040,15820 30049,15739 30076,15661 30108,15572 30160,15492 30226,15427 30291,15361 30371,15309 30460,15277 30538,15250 30619,15241 30700,15232 31280,15172 31865,15172 32446,15232 L 32446,15232 Z"/>
     </g>
    </g>
    <g class="com.sun.star.drawing.CustomShape">
     <g id="id6">
      <rect class="BoundingBox" stroke="none" fill="none" x="34572" y="15152" width="3176" height="3176"/>
      <path fill="rgb(219,67,54)" stroke="none" d="M 37032,15197 C 37113,15206 37194,15215 37271,15242 37361,15274 37440,15326 37506,15392 37572,15457 37624,15537 37656,15626 37682,15704 37692,15785 37701,15866 37762,16446 37762,17031 37701,17612 37692,17693 37682,17774 37656,17851 37624,17941 37572,18020 37506,18086 37440,18152 37361,18204 37271,18236 37194,18262 37113,18272 37032,18281 36451,18342 35866,18342 35286,18281 35205,18272 35124,18262 35046,18236 34957,18204 34877,18152 34812,18086 34746,18020 34694,17941 34662,17851 34635,17774 34626,17693 34617,17612 34557,17031 34557,16446 34617,15866 34626,15785 34635,15704 34662,15626 34694,15537 34746,15457 34812,15392 34877,15326 34957,15274 35046,15242 35124,15215 35205,15206 35286,15197 35866,15137 36451,15137 37032,15197 L 37032,15197 Z"/>
     </g>
    </g>
    <g class="com.sun.star.drawing.CustomShape">
     <g id="id7">
      <rect class="BoundingBox" stroke="none" fill="none" x="29986" y="19773" width="3176" height="3176"/>
      <path fill="rgb(22,42,53)" stroke="none" d="M 32446,19818 C 32527,19827 32608,19836 32685,19863 32775,19895 32854,19947 32920,20013 32986,20078 33038,20158 33070,20247 33096,20325 33106,20406 33115,20487 33176,21067 33176,21652 33115,22233 33106,22314 33096,22395 33070,22472 33038,22562 32986,22641 32920,22707 32854,22773 32775,22825 32685,22857 32608,22883 32527,22893 32446,22902 31865,22963 31280,22963 30700,22902 30619,22893 30538,22883 30460,22857 30371,22825 30291,22773 30226,22707 30160,22641 30108,22562 30076,22472 30049,22395 30040,22314 30031,22233 29971,21652 29971,21067 30031,20487 30040,20406 30049,20325 30076,20247 30108,20158 30160,20078 30226,20013 30291,19947 30371,19895 30460,19863 30538,19836 30619,19827 30700,19818 31280,19758 31865,19758 32446,19818 L 32446,19818 Z"/>
     </g>
    </g>
    <g class="com.sun.star.drawing.CustomShape">
     <g id="id8">
      <rect class="BoundingBox" stroke="none" fill="none" x="34572" y="19738" width="3176" height="3176"/>
      <path fill="rgb(219,67,54)" stroke="none" d="M 37032,19783 C 37113,19792 37194,19801 37271,19828 37361,19860 37440,19912 37506,19978 37572,20043 37624,20123 37656,20212 37682,20290 37692,20371 37701,20452 37762,21032 37762,21617 37701,22198 37692,22279 37682,22360 37656,22437 37624,22527 37572,22606 37506,22672 37440,22738 37361,22790 37271,22822 37194,22848 37113,22858 37032,22867 36451,22928 35866,22928 35286,22867 35205,22858 35124,22848 35046,22822 34957,22790 34877,22738 34812,22672 34746,22606 34694,22527 34662,22437 34635,22360 34626,22279 34617,22198 34557,21617 34557,21032 34617,20452 34626,20371 34635,20290 34662,20212 34694,20123 34746,20043 34812,19978 34877,19912 34957,19860 35046,19828 35124,19801 35205,19792 35286,19783 35866,19723 36451,19723 37032,19783 L 37032,19783 Z"/>
     </g>
    </g>
    <g class="com.sun.star.drawing.CustomShape">
     <g id="id9">
      <rect class="BoundingBox" stroke="none" fill="none" x="29986" y="24359" width="3176" height="3176"/>
      <path fill="rgb(106,124,128)" stroke="none" d="M 32446,24404 C 32527,24413 32608,24422 32685,24449 32775,24481 32854,24533 32920,24599 32986,24664 33038,24744 33070,24833 33096,24911 33106,24992 33115,25073 33176,25653 33176,26238 33115,26819 33106,26900 33096,26981 33070,27058 33038,27148 32986,27227 32920,27293 32854,27359 32775,27411 32685,27443 32608,27469 32527,27479 32446,27488 31865,27549 31280,27549 30700,27488 30619,27479 30538,27469 30460,27443 30371,27411 30291,27359 30226,27293 30160,27227 30108,27148 30076,27058 30049,26981 30040,26900 30031,26819 29971,26238 29971,25653 30031,25073 30040,24992 30049,24911 30076,24833 30108,24744 30160,24664 30226,24599 30291,24533 30371,24481 30460,24449 30538,24422 30619,24413 30700,24404 31280,24344 31865,24344 32446,24404 L 32446,24404 Z"/>
     </g>
    </g>
   </g>
   <g class="Group">
    <g class="com.sun.star.drawing.CustomShape">
     <g id="id10">
      <rect class="BoundingBox" stroke="none" fill="none" x="4586" y="10566" width="3176" height="3176"/>
      <path fill="rgb(106,124,128)" stroke="none" d="M 7046,10611 C 7127,10620 7208,10629 7285,10656 7375,10688 7454,10740 7520,10806 7586,10871 7638,10951 7670,11040 7696,11118 7706,11199 7715,11280 7776,11860 7776,12445 7715,13026 7706,13107 7696,13188 7670,13265 7638,13355 7586,13434 7520,13500 7454,13566 7375,13618 7285,13650 7208,13676 7127,13686 7046,13695 6465,13756 5880,13756 5300,13695 5219,13686 5138,13676 5060,13650 4971,13618 4891,13566 4826,13500 4760,13434 4708,13355 4676,13265 4649,13188 4640,13107 4631,13026 4571,12445 4571,11860 4631,11280 4640,11199 4649,11118 4676,11040 4708,10951 4760,10871 4826,10806 4891,10740 4971,10688 5060,10656 5138,10629 5219,10620 5300,10611 5880,10551 6465,10551 7046,10611 L 7046,10611 Z"/>
     </g>
    </g>
    <g class="com.sun.star.drawing.CustomShape">
     <g id="id11">
      <rect class="BoundingBox" stroke="none" fill="none" x="9172" y="10601" width="3176" height="3176"/>
      <path fill="rgb(106,124,128)" stroke="none" d="M 11632,10646 C 11713,10655 11794,10664 11871,10691 11961,10723 12040,10775 12106,10841 12172,10906 12224,10986 12256,11075 12282,11153 12292,11234 12301,11315 12362,11895 12362,12480 12301,13061 12292,13142 12282,13223 12256,13300 12224,13390 12172,13469 12106,13535 12040,13601 11961,13653 11871,13685 11794,13711 11713,13721 11632,13730 11051,13791 10466,13791 9886,13730 9805,13721 9724,13711 9646,13685 9557,13653 9477,13601 9412,13535 9346,13469 9294,13390 9262,13300 9235,13223 9226,13142 9217,13061 9157,12480 9157,11895 9217,11315 9226,11234 9235,11153 9262,11075 9294,10986 9346,10906 9412,10841 9477,10775 9557,10723 9646,10691 9724,10664 9805,10655 9886,10646 10466,10586 11051,10586 11632,10646 L 11632,10646 Z"/>
     </g>
    </g>
    <g class="com.sun.star.drawing.CustomShape">
     <g id="id12">
      <rect class="BoundingBox" stroke="none" fill="none" x="13758" y="10566" width="3176" height="3176"/>
      <path fill="rgb(106,124,128)" stroke="none" d="M 16218,10611 C 16299,10620 16380,10629 16457,10656 16547,10688 16626,10740 16692,10806 16758,10871 16810,10951 16842,11040 16868,11118 16878,11199 16887,11280 16948,11860 16948,12445 16887,13026 16878,13107 16868,13188 16842,13265 16810,13355 16758,13434 16692,13500 16626,13566 16547,13618 16457,13650 16380,13676 16299,13686 16218,13695 15637,13756 15052,13756 14472,13695 14391,13686 14310,13676 14232,13650 14143,13618 14063,13566 13998,13500 13932,13434 13880,13355 13848,13265 13821,13188 13812,13107 13803,13026 13743,12445 13743,11860 13803,11280 13812,11199 13821,11118 13848,11040 13880,10951 13932,10871 13998,10806 14063,10740 14143,10688 14232,10656 14310,10629 14391,10620 14472,10611 15052,10551 15637,10551 16218,10611 L 16218,10611 Z"/>
     </g>
    </g>
    <g class="com.sun.star.drawing.CustomShape">
     <g id="id13">
      <rect class="BoundingBox" stroke="none" fill="none" x="18344" y="10601" width="3176" height="3176"/>
      <path fill="rgb(106,124,128)" stroke="none" d="M 20804,10646 C 20885,10655 20966,10664 21043,10691 21133,10723 21212,10775 21278,10841 21344,10906 21396,10986 21428,11075 21454,11153 21464,11234 21473,11315 21534,11895 21534,12480 21473,13061 21464,13142 21454,13223 21428,13300 21396,13390 21344,13469 21278,13535 21212,13601 21133,13653 21043,13685 20966,13711 20885,13721 20804,13730 20223,13791 19638,13791 19058,13730 18977,13721 18896,13711 18818,13685 18729,13653 18649,13601 18584,13535 18518,13469 18466,13390 18434,13300 18407,13223 18398,13142 18389,13061 18329,12480 18329,11895 18389,11315 18398,11234 18407,11153 18434,11075 18466,10986 18518,10906 18584,10841 18649,10775 18729,10723 18818,10691 18896,10664 18977,10655 19058,10646 19638,10586 20223,10586 20804,10646 L 20804,10646 Z"/>
     </g>
    </g>
    <g class="com.sun.star.drawing.CustomShape">
     <g id="id14">
      <rect class="BoundingBox" stroke="none" fill="none" x="22931" y="10566" width="3176" height="3176"/>
      <path fill="rgb(106,124,128)" stroke="none" d="M 25391,10611 C 25472,10620 25553,10629 25630,10656 25720,10688 25799,10740 25865,10806 25931,10871 25983,10951 26015,11040 26041,11118 26051,11199 26060,11280 26121,11860 26121,12445 26060,13026 26051,13107 26041,13188 26015,13265 25983,13355 25931,13434 25865,13500 25799,13566 25720,13618 25630,13650 25553,13676 25472,13686 25391,13695 24810,13756 24225,13756 23645,13695 23564,13686 23483,13676 23405,13650 23316,13618 23236,13566 23171,13500 23105,13434 23053,13355 23021,13265 22994,13188 22985,13107 22976,13026 22916,12445 22916,11860 22976,11280 22985,11199 22994,11118 23021,11040 23053,10951 23105,10871 23171,10806 23236,10740 23316,10688 23405,10656 23483,10629 23564,10620 23645,10611 24225,10551 24810,10551 25391,10611 L 25391,10611 Z"/>
     </g>
    </g>
    <g class="com.sun.star.drawing.CustomShape">
     <g id="id15">
      <rect class="BoundingBox" stroke="none" fill="none" x="41628" y="10601" width="3176" height="3176"/>
      <path fill="rgb(106,124,128)" stroke="none" d="M 44088,10646 C 44169,10655 44250,10664 44327,10691 44417,10723 44496,10775 44562,10841 44628,10906 44680,10986 44712,11075 44738,11153 44748,11234 44757,11315 44818,11895 44818,12480 44757,13061 44748,13142 44738,13223 44712,13300 44680,13390 44628,13469 44562,13535 44496,13601 44417,13653 44327,13685 44250,13711 44169,13721 44088,13730 43507,13791 42922,13791 42342,13730 42261,13721 42180,13711 42102,13685 42013,13653 41933,13601 41868,13535 41802,13469 41750,13390 41718,13300 41691,13223 41682,13142 41673,13061 41613,12480 41613,11895 41673,11315 41682,11234 41691,11153 41718,11075 41750,10986 41802,10906 41868,10841 41933,10775 42013,10723 42102,10691 42180,10664 42261,10655 42342,10646 42922,10586 43507,10586 44088,10646 L 44088,10646 Z"/>
     </g>
    </g>
    <g class="com.sun.star.drawing.CustomShape">
     <g id="id16">
      <rect class="BoundingBox" stroke="none" fill="none" x="46214" y="10566" width="3176" height="3176"/>
      <path fill="rgb(106,124,128)" stroke="none" d="M 48674,10611 C 48755,10620 48836,10629 48913,10656 49003,10688 49082,10740 49148,10806 49214,10871 49266,10951 49298,11040 49324,11118 49334,11199 49343,11280 49404,11860 49404,12445 49343,13026 49334,13107 49324,13188 49298,13265 49266,13355 49214,13434 49148,13500 49082,13566 49003,13618 48913,13650 48836,13676 48755,13686 48674,13695 48093,13756 47508,13756 46928,13695 46847,13686 46766,13676 46688,13650 46599,13618 46519,13566 46454,13500 46388,13434 46336,13355 46304,13265 46277,13188 46268,13107 46259,13026 46199,12445 46199,11860 46259,11280 46268,11199 46277,11118 46304,11040 46336,10951 46388,10871 46454,10806 46519,10740 46599,10688 46688,10656 46766,10629 46847,10620 46928,10611 47508,10551 48093,10551 48674,10611 L 48674,10611 Z"/>
     </g>
    </g>
    <g class="com.sun.star.drawing.CustomShape">
     <g id="id17">
      <rect class="BoundingBox" stroke="none" fill="none" x="50800" y="10601" width="3176" height="3176"/>
      <path fill="rgb(106,124,128)" stroke="none" d="M 53260,10646 C 53341,10655 53422,10664 53499,10691 53589,10723 53668,10775 53734,10841 53800,10906 53852,10986 53884,11075 53910,11153 53920,11234 53929,11315 53990,11895 53990,12480 53929,13061 53920,13142 53910,13223 53884,13300 53852,13390 53800,13469 53734,13535 53668,13601 53589,13653 53499,13685 53422,13711 53341,13721 53260,13730 52679,13791 52094,13791 51514,13730 51433,13721 51352,13711 51274,13685 51185,13653 51105,13601 51040,13535 50974,13469 50922,13390 50890,13300 50863,13223 50854,13142 50845,13061 50785,12480 50785,11895 50845,11315 50854,11234 50863,11153 50890,11075 50922,10986 50974,10906 51040,10841 51105,10775 51185,10723 51274,10691 51352,10664 51433,10655 51514,10646 52094,10586 52679,10586 53260,10646 L 53260,10646 Z"/>
     </g>
    </g>
    <g class="com.sun.star.drawing.CustomShape">
     <g id="id18">
      <rect class="BoundingBox" stroke="none" fill="none" x="55386" y="10566" width="3176" height="3176"/>
      <path fill="rgb(106,124,128)" stroke="none" d="M 57846,10611 C 57927,10620 58008,10629 58085,10656 58175,10688 58254,10740 58320,10806 58386,10871 58438,10951 58470,11040 58496,11118 58506,11199 58515,11280 58576,11860 58576,12445 58515,13026 58506,13107 58496,13188 58470,13265 58438,13355 58386,13434 58320,13500 58254,13566 58175,13618 58085,13650 58008,13676 57927,13686 57846,13695 57265,13756 56680,13756 56100,13695 56019,13686 55938,13676 55860,13650 55771,13618 55691,13566 55626,13500 55560,13434 55508,13355 55476,13265 55449,13188 55440,13107 55431,13026 55371,12445 55371,11860 55431,11280 55440,11199 55449,11118 55476,11040 55508,10951 55560,10871 55626,10806 55691,10740 55771,10688 55860,10656 55938,10629 56019,10620 56100,10611 56680,10551 57265,10551 57846,10611 L 57846,10611 Z"/>
     </g>
    </g>
    <g class="com.sun.star.drawing.CustomShape">
     <g id="id19">
      <rect class="BoundingBox" stroke="none" fill="none" x="59972" y="10601" width="3176" height="3176"/>
      <path fill="rgb(106,124,128)" stroke="none" d="M 62432,10646 C 62513,10655 62594,10664 62671,10691 62761,10723 62840,10775 62906,10841 62972,10906 63024,10986 63056,11075 63082,11153 63092,11234 63101,11315 63162,11895 63162,12480 63101,13061 63092,13142 63082,13223 63056,13300 63024,13390 62972,13469 62906,13535 62840,13601 62761,13653 62671,13685 62594,13711 62513,13721 62432,13730 61851,13791 61266,13791 60686,13730 60605,13721 60524,13711 60446,13685 60357,13653 60277,13601 60212,13535 60146,13469 60094,13390 60062,13300 60035,13223 60026,13142 60017,13061 59957,12480 59957,11895 60017,11315 60026,11234 60035,11153 60062,11075 60094,10986 60146,10906 60212,10841 60277,10775 60357,10723 60446,10691 60524,10664 60605,10655 60686,10646 61266,10586 61851,10586 62432,10646 L 62432,10646 Z"/>
     </g>
    </g>
    <g class="com.sun.star.drawing.CustomShape">
     <g id="id20">
      <rect class="BoundingBox" stroke="none" fill="none" x="4586" y="15152" width="3176" height="3176"/>
      <path fill="rgb(106,124,128)" stroke="none" d="M 7046,15197 C 7127,15206 7208,15215 7285,15242 7375,15274 7454,15326 7520,15392 7586,15457 7638,15537 7670,15626 7696,15704 7706,15785 7715,15866 7776,16446 7776,17031 7715,17612 7706,17693 7696,17774 7670,17851 7638,17941 7586,18020 7520,18086 7454,18152 7375,18204 7285,18236 7208,18262 7127,18272 7046,18281 6465,18342 5880,18342 5300,18281 5219,18272 5138,18262 5060,18236 4971,18204 4891,18152 4826,18086 4760,18020 4708,17941 4676,17851 4649,17774 4640,17693 4631,17612 4571,17031 4571,16446 4631,15866 4640,15785 4649,15704 4676,15626 4708,15537 4760,15457 4826,15392 4891,15326 4971,15274 5060,15242 5138,15215 5219,15206 5300,15197 5880,15137 6465,15137 7046,15197 L 7046,15197 Z"/>
     </g>
    </g>
    <g class="com.sun.star.drawing.CustomShape">
     <g id="id21">
      <rect class="BoundingBox" stroke="none" fill="none" x="9172" y="15187" width="3176" height="3176"/>
      <path fill="rgb(106,124,128)" stroke="none" d="M 11632,15232 C 11713,15241 11794,15250 11871,15277 11961,15309 12040,15361 12106,15427 12172,15492 12224,15572 12256,15661 12282,15739 12292,15820 12301,15901 12362,16481 12362,17066 12301,17647 12292,17728 12282,17809 12256,17886 12224,17976 12172,18055 12106,18121 12040,18187 11961,18239 11871,18271 11794,18297 11713,18307 11632,18316 11051,18377 10466,18377 9886,18316 9805,18307 9724,18297 9646,18271 9557,18239 9477,18187 9412,18121 9346,18055 9294,17976 9262,17886 9235,17809 9226,17728 9217,17647 9157,17066 9157,16481 9217,15901 9226,15820 9235,15739 9262,15661 9294,15572 9346,15492 9412,15427 9477,15361 9557,15309 9646,15277 9724,15250 9805,15241 9886,15232 10466,15172 11051,15172 11632,15232 L 11632,15232 Z"/>
     </g>
    </g>
    <g class="com.sun.star.drawing.CustomShape">
     <g id="id22">
      <rect class="BoundingBox" stroke="none" fill="none" x="13758" y="15152" width="3176" height="3176"/>
      <path fill="rgb(106,124,128)" stroke="none" d="M 16218,15197 C 16299,15206 16380,15215 16457,15242 16547,15274 16626,15326 16692,15392 16758,15457 16810,15537 16842,15626 16868,15704 16878,15785 16887,15866 16948,16446 16948,17031 16887,17612 16878,17693 16868,17774 16842,17851 16810,17941 16758,18020 16692,18086 16626,18152 16547,18204 16457,18236 16380,18262 16299,18272 16218,18281 15637,18342 15052,18342 14472,18281 14391,18272 14310,18262 14232,18236 14143,18204 14063,18152 13998,18086 13932,18020 13880,17941 13848,17851 13821,17774 13812,17693 13803,17612 13743,17031 13743,16446 13803,15866 13812,15785 13821,15704 13848,15626 13880,15537 13932,15457 13998,15392 14063,15326 14143,15274 14232,15242 14310,15215 14391,15206 14472,15197 15052,15137 15637,15137 16218,15197 L 16218,15197 Z"/>
     </g>
    </g>
    <g class="com.sun.star.drawing.CustomShape">
     <g id="id23">
      <rect class="BoundingBox" stroke="none" fill="none" x="18344" y="15187" width="3176" height="3176"/>
      <path fill="rgb(106,124,128)" stroke="none" d="M 20804,15232 C 20885,15241 20966,15250 21043,15277 21133,15309 21212,15361 21278,15427 21344,15492 21396,15572 21428,15661 21454,15739 21464,15820 21473,15901 21534,16481 21534,17066 21473,17647 21464,17728 21454,17809 21428,17886 21396,17976 21344,18055 21278,18121 21212,18187 21133,18239 21043,18271 20966,18297 20885,18307 20804,18316 20223,18377 19638,18377 19058,18316 18977,18307 18896,18297 18818,18271 18729,18239 18649,18187 18584,18121 18518,18055 18466,17976 18434,17886 18407,17809 18398,17728 18389,17647 18329,17066 18329,16481 18389,15901 18398,15820 18407,15739 18434,15661 18466,15572 18518,15492 18584,15427 18649,15361 18729,15309 18818,15277 18896,15250 18977,15241 19058,15232 19638,15172 20223,15172 20804,15232 L 20804,15232 Z"/>
     </g>
    </g>
    <g class="com.sun.star.drawing.CustomShape">
     <g id="id24">
      <rect class="BoundingBox" stroke="none" fill="none" x="22931" y="15152" width="3176" height="3176"/>
      <path fill="rgb(106,124,128)" stroke="none" d="M 25391,15197 C 25472,15206 25553,15215 25630,15242 25720,15274 25799,15326 25865,15392 25931,15457 25983,15537 26015,15626 26041,15704 26051,15785 26060,15866 26121,16446 26121,17031 26060,17612 26051,17693 26041,17774 26015,17851 25983,17941 25931,18020 25865,18086 25799,18152 25720,18204 25630,18236 25553,18262 25472,18272 25391,18281 24810,18342 24225,18342 23645,18281 23564,18272 23483,18262 23405,18236 23316,18204 23236,18152 23171,18086 23105,18020 23053,17941 23021,17851 22994,17774 22985,17693 22976,17612 22916,17031 22916,16446 22976,15866 22985,15785 22994,15704 23021,15626 23053,15537 23105,15457 23171,15392 23236,15326 23316,15274 23405,15242 23483,15215 23564,15206 23645,15197 24225,15137 24810,15137 25391,15197 L 25391,15197 Z"/>
     </g>
    </g>
    <g class="com.sun.star.drawing.CustomShape">
     <g id="id25">
      <rect class="BoundingBox" stroke="none" fill="none" x="41628" y="15187" width="3176" height="3176"/>
      <path fill="rgb(106,124,128)" stroke="none" d="M 44088,15232 C 44169,15241 44250,15250 44327,15277 44417,15309 44496,15361 44562,15427 44628,15492 44680,15572 44712,15661 44738,15739 44748,15820 44757,15901 44818,16481 44818,17066 44757,17647 44748,17728 44738,17809 44712,17886 44680,17976 44628,18055 44562,18121 44496,18187 44417,18239 44327,18271 44250,18297 44169,18307 44088,18316 43507,18377 42922,18377 42342,18316 42261,18307 42180,18297 42102,18271 42013,18239 41933,18187 41868,18121 41802,18055 41750,17976 41718,17886 41691,17809 41682,17728 41673,17647 41613,17066 41613,16481 41673,15901 41682,15820 41691,15739 41718,15661 41750,15572 41802,15492 41868,15427 41933,15361 42013,15309 42102,15277 42180,15250 42261,15241 42342,15232 42922,15172 43507,15172 44088,15232 L 44088,15232 Z"/>
     </g>
    </g>
    <g class="com.sun.star.drawing.CustomShape">
     <g id="id26">
      <rect class="BoundingBox" stroke="none" fill="none" x="46214" y="15152" width="3176" height="3176"/>
      <path fill="rgb(106,124,128)" stroke="none" d="M 48674,15197 C 48755,15206 48836,15215 48913,15242 49003,15274 49082,15326 49148,15392 49214,15457 49266,15537 49298,15626 49324,15704 49334,15785 49343,15866 49404,16446 49404,17031 49343,17612 49334,17693 49324,17774 49298,17851 49266,17941 49214,18020 49148,18086 49082,18152 49003,18204 48913,18236 48836,18262 48755,18272 48674,18281 48093,18342 47508,18342 46928,18281 46847,18272 46766,18262 46688,18236 46599,18204 46519,18152 46454,18086 46388,18020 46336,17941 46304,17851 46277,17774 46268,17693 46259,17612 46199,17031 46199,16446 46259,15866 46268,15785 46277,15704 46304,15626 46336,15537 46388,15457 46454,15392 46519,15326 46599,15274 46688,15242 46766,15215 46847,15206 46928,15197 47508,15137 48093,15137 48674,15197 L 48674,15197 Z"/>
     </g>
    </g>
    <g class="com.sun.star.drawing.CustomShape">
     <g id="id27">
      <rect class="BoundingBox" stroke="none" fill="none" x="50800" y="15187" width="3176" height="3176"/>
      <path fill="rgb(106,124,128)" stroke="none" d="M 53260,15232 C 53341,15241 53422,15250 53499,15277 53589,15309 53668,15361 53734,15427 53800,15492 53852,15572 53884,15661 53910,15739 53920,15820 53929,15901 53990,16481 53990,17066 53929,17647 53920,17728 53910,17809 53884,17886 53852,17976 53800,18055 53734,18121 53668,18187 53589,18239 53499,18271 53422,18297 53341,18307 53260,18316 52679,18377 52094,18377 51514,18316 51433,18307 51352,18297 51274,18271 51185,18239 51105,18187 51040,18121 50974,18055 50922,17976 50890,17886 50863,17809 50854,17728 50845,17647 50785,17066 50785,16481 50845,15901 50854,15820 50863,15739 50890,15661 50922,15572 50974,15492 51040,15427 51105,15361 51185,15309 51274,15277 51352,15250 51433,15241 51514,15232 52094,15172 52679,15172 53260,15232 L 53260,15232 Z"/>
     </g>
    </g>
    <g class="com.sun.star.drawing.CustomShape">
     <g id="id28">
      <rect class="BoundingBox" stroke="none" fill="none" x="55386" y="15152" width="3176" height="3176"/>
      <path fill="rgb(106,124,128)" stroke="none" d="M 57846,15197 C 57927,15206 58008,15215 58085,15242 58175,15274 58254,15326 58320,15392 58386,15457 58438,15537 58470,15626 58496,15704 58506,15785 58515,15866 58576,16446 58576,17031 58515,17612 58506,17693 58496,17774 58470,17851 58438,17941 58386,18020 58320,18086 58254,18152 58175,18204 58085,18236 58008,18262 57927,18272 57846,18281 57265,18342 56680,18342 56100,18281 56019,18272 55938,18262 55860,18236 55771,18204 55691,18152 55626,18086 55560,18020 55508,17941 55476,17851 55449,17774 55440,17693 55431,17612 55371,17031 55371,16446 55431,15866 55440,15785 55449,15704 55476,15626 55508,15537 55560,15457 55626,15392 55691,15326 55771,15274 55860,15242 55938,15215 56019,15206 56100,15197 56680,15137 57265,15137 57846,15197 L 57846,15197 Z"/>
     </g>
    </g>
    <g class="com.sun.star.drawing.CustomShape">
     <g id="id29">
      <rect class="BoundingBox" stroke="none" fill="none" x="59972" y="15187" width="3176" height="3176"/>
      <path fill="rgb(106,124,128)" stroke="none" d="M 62432,15232 C 62513,15241 62594,15250 62671,15277 62761,15309 62840,15361 62906,15427 62972,15492 63024,15572 63056,15661 63082,15739 63092,15820 63101,15901 63162,16481 63162,17066 63101,17647 63092,17728 63082,17809 63056,17886 63024,17976 62972,18055 62906,18121 62840,18187 62761,18239 62671,18271 62594,18297 62513,18307 62432,18316 61851,18377 61266,18377 60686,18316 60605,18307 60524,18297 60446,18271 60357,18239 60277,18187 60212,18121 60146,18055 60094,17976 60062,17886 60035,17809 60026,17728 60017,17647 59957,17066 59957,16481 60017,15901 60026,15820 60035,15739 60062,15661 60094,15572 60146,15492 60212,15427 60277,15361 60357,15309 60446,15277 60524,15250 60605,15241 60686,15232 61266,15172 61851,15172 62432,15232 L 62432,15232 Z"/>
     </g>
    </g>
    <g class="com.sun.star.drawing.CustomShape">
     <g id="id30">
      <rect class="BoundingBox" stroke="none" fill="none" x="4586" y="19738" width="3176" height="3176"/>
      <path fill="rgb(106,124,128)" stroke="none" d="M 7046,19783 C 7127,19792 7208,19801 7285,19828 7375,19860 7454,19912 7520,19978 7586,20043 7638,20123 7670,20212 7696,20290 7706,20371 7715,20452 7776,21032 7776,21617 7715,22198 7706,22279 7696,22360 7670,22437 7638,22527 7586,22606 7520,22672 7454,22738 7375,22790 7285,22822 7208,22848 7127,22858 7046,22867 6465,22928 5880,22928 5300,22867 5219,22858 5138,22848 5060,22822 4971,22790 4891,22738 4826,22672 4760,22606 4708,22527 4676,22437 4649,22360 4640,22279 4631,22198 4571,21617 4571,21032 4631,20452 4640,20371 4649,20290 4676,20212 4708,20123 4760,20043 4826,19978 4891,19912 4971,19860 5060,19828 5138,19801 5219,19792 5300,19783 5880,19723 6465,19723 7046,19783 L 7046,19783 Z"/>
     </g>
    </g>
    <g class="com.sun.star.drawing.CustomShape">
     <g id="id31">
      <rect class="BoundingBox" stroke="none" fill="none" x="9172" y="19773" width="3176" height="3176"/>
      <path fill="rgb(106,124,128)" stroke="none" d="M 11632,19818 C 11713,19827 11794,19836 11871,19863 11961,19895 12040,19947 12106,20013 12172,20078 12224,20158 12256,20247 12282,20325 12292,20406 12301,20487 12362,21067 12362,21652 12301,22233 12292,22314 12282,22395 12256,22472 12224,22562 12172,22641 12106,22707 12040,22773 11961,22825 11871,22857 11794,22883 11713,22893 11632,22902 11051,22963 10466,22963 9886,22902 9805,22893 9724,22883 9646,22857 9557,22825 9477,22773 9412,22707 9346,22641 9294,22562 9262,22472 9235,22395 9226,22314 9217,22233 9157,21652 9157,21067 9217,20487 9226,20406 9235,20325 9262,20247 9294,20158 9346,20078 9412,20013 9477,19947 9557,19895 9646,19863 9724,19836 9805,19827 9886,19818 10466,19758 11051,19758 11632,19818 L 11632,19818 Z"/>
     </g>
    </g>
    <g class="com.sun.star.drawing.CustomShape">
     <g id="id32">
      <rect class="BoundingBox" stroke="none" fill="none" x="13758" y="19738" width="3176" height="3176"/>
      <path fill="rgb(106,124,128)" stroke="none" d="M 16218,19783 C 16299,19792 16380,19801 16457,19828 16547,19860 16626,19912 16692,19978 16758,20043 16810,20123 16842,20212 16868,20290 16878,20371 16887,20452 16948,21032 16948,21617 16887,22198 16878,22279 16868,22360 16842,22437 16810,22527 16758,22606 16692,22672 16626,22738 16547,22790 16457,22822 16380,22848 16299,22858 16218,22867 15637,22928 15052,22928 14472,22867 14391,22858 14310,22848 14232,22822 14143,22790 14063,22738 13998,22672 13932,22606 13880,22527 13848,22437 13821,22360 13812,22279 13803,22198 13743,21617 13743,21032 13803,20452 13812,20371 13821,20290 13848,20212 13880,20123 13932,20043 13998,19978 14063,19912 14143,19860 14232,19828 14310,19801 14391,19792 14472,19783 15052,19723 15637,19723 16218,19783 L 16218,19783 Z"/>
     </g>
    </g>
    <g class="com.sun.star.drawing.CustomShape">
     <g id="id33">
      <rect class="BoundingBox" stroke="none" fill="none" x="18344" y="19773" width="3176" height="3176"/>
      <path fill="rgb(106,124,128)" stroke="none" d="M 20804,19818 C 20885,19827 20966,19836 21043,19863 21133,19895 21212,19947 21278,20013 21344,20078 21396,20158 21428,20247 21454,20325 21464,20406 21473,20487 21534,21067 21534,21652 21473,22233 21464,22314 21454,22395 21428,22472 21396,22562 21344,22641 21278,22707 21212,22773 21133,22825 21043,22857 20966,22883 20885,22893 20804,22902 20223,22963 19638,22963 19058,22902 18977,22893 18896,22883 18818,22857 18729,22825 18649,22773 18584,22707 18518,22641 18466,22562 18434,22472 18407,22395 18398,22314 18389,22233 18329,21652 18329,21067 18389,20487 18398,20406 18407,20325 18434,20247 18466,20158 18518,20078 18584,20013 18649,19947 18729,19895 18818,19863 18896,19836 18977,19827 19058,19818 19638,19758 20223,19758 20804,19818 L 20804,19818 Z"/>
     </g>
    </g>
    <g class="com.sun.star.drawing.CustomShape">
     <g id="id34">
      <rect class="BoundingBox" stroke="none" fill="none" x="22931" y="19738" width="3176" height="3176"/>
      <path fill="rgb(106,124,128)" stroke="none" d="M 25391,19783 C 25472,19792 25553,19801 25630,19828 25720,19860 25799,19912 25865,19978 25931,20043 25983,20123 26015,20212 26041,20290 26051,20371 26060,20452 26121,21032 26121,21617 26060,22198 26051,22279 26041,22360 26015,22437 25983,22527 25931,22606 25865,22672 25799,22738 25720,22790 25630,22822 25553,22848 25472,22858 25391,22867 24810,22928 24225,22928 23645,22867 23564,22858 23483,22848 23405,22822 23316,22790 23236,22738 23171,22672 23105,22606 23053,22527 23021,22437 22994,22360 22985,22279 22976,22198 22916,21617 22916,21032 22976,20452 22985,20371 22994,20290 23021,20212 23053,20123 23105,20043 23171,19978 23236,19912 23316,19860 23405,19828 23483,19801 23564,19792 23645,19783 24225,19723 24810,19723 25391,19783 L 25391,19783 Z"/>
     </g>
    </g>
    <g class="com.sun.star.drawing.CustomShape">
     <g id="id35">
      <rect class="BoundingBox" stroke="none" fill="none" x="41628" y="19773" width="3176" height="3176"/>
      <path fill="rgb(106,124,128)" stroke="none" d="M 44088,19818 C 44169,19827 44250,19836 44327,19863 44417,19895 44496,19947 44562,20013 44628,20078 44680,20158 44712,20247 44738,20325 44748,20406 44757,20487 44818,21067 44818,21652 44757,22233 44748,22314 44738,22395 44712,22472 44680,22562 44628,22641 44562,22707 44496,22773 44417,22825 44327,22857 44250,22883 44169,22893 44088,22902 43507,22963 42922,22963 42342,22902 42261,22893 42180,22883 42102,22857 42013,22825 41933,22773 41868,22707 41802,22641 41750,22562 41718,22472 41691,22395 41682,22314 41673,22233 41613,21652 41613,21067 41673,20487 41682,20406 41691,20325 41718,20247 41750,20158 41802,20078 41868,20013 41933,19947 42013,19895 42102,19863 42180,19836 42261,19827 42342,19818 42922,19758 43507,19758 44088,19818 L 44088,19818 Z"/>
     </g>
    </g>
    <g class="com.sun.star.drawing.CustomShape">
     <g id="id36">
      <rect class="BoundingBox" stroke="none" fill="none" x="46214" y="19738" width="3176" height="3176"/>
      <path fill="rgb(106,124,128)" stroke="none" d="M 48674,19783 C 48755,19792 48836,19801 48913,19828 49003,19860 49082,19912 49148,19978 49214,20043 49266,20123 49298,20212 49324,20290 49334,20371 49343,20452 49404,21032 49404,21617 49343,22198 49334,22279 49324,22360 49298,22437 49266,22527 49214,22606 49148,22672 49082,22738 49003,22790 48913,22822 48836,22848 48755,22858 48674,22867 48093,22928 47508,22928 46928,22867 46847,22858 46766,22848 46688,22822 46599,22790 46519,22738 46454,22672 46388,22606 46336,22527 46304,22437 46277,22360 46268,22279 46259,22198 46199,21617 46199,21032 46259,20452 46268,20371 46277,20290 46304,20212 46336,20123 46388,20043 46454,19978 46519,19912 46599,19860 46688,19828 46766,19801 46847,19792 46928,19783 47508,19723 48093,19723 48674,19783 L 48674,19783 Z"/>
     </g>
    </g>
    <g class="com.sun.star.drawing.CustomShape">
     <g id="id37">
      <rect class="BoundingBox" stroke="none" fill="none" x="50800" y="19773" width="3176" height="3176"/>
      <path fill="rgb(106,124,128)" stroke="none" d="M 53260,19818 C 53341,19827 53422,19836 53499,19863 53589,19895 53668,19947 53734,20013 53800,20078 53852,20158 53884,20247 53910,20325 53920,20406 53929,20487 53990,21067 53990,21652 53929,22233 53920,22314 53910,22395 53884,22472 53852,22562 53800,22641 53734,22707 53668,22773 53589,22825 53499,22857 53422,22883 53341,22893 53260,22902 52679,22963 52094,22963 51514,22902 51433,22893 51352,22883 51274,22857 51185,22825 51105,22773 51040,22707 50974,22641 50922,22562 50890,22472 50863,22395 50854,22314 50845,22233 50785,21652 50785,21067 50845,20487 50854,20406 50863,20325 50890,20247 50922,20158 50974,20078 51040,20013 51105,19947 51185,19895 51274,19863 51352,19836 51433,19827 51514,19818 52094,19758 52679,19758 53260,19818 L 53260,19818 Z"/>
     </g>
    </g>
    <g class="com.sun.star.drawing.CustomShape">
     <g id="id38">
      <rect class="BoundingBox" stroke="none" fill="none" x="55386" y="19738" width="3176" height="3176"/>
      <path fill="rgb(106,124,128)" stroke="none" d="M 57846,19783 C 57927,19792 58008,19801 58085,19828 58175,19860 58254,19912 58320,19978 58386,20043 58438,20123 58470,20212 58496,20290 58506,20371 58515,20452 58576,21032 58576,21617 58515,22198 58506,22279 58496,22360 58470,22437 58438,22527 58386,22606 58320,22672 58254,22738 58175,22790 58085,22822 58008,22848 57927,22858 57846,22867 57265,22928 56680,22928 56100,22867 56019,22858 55938,22848 55860,22822 55771,22790 55691,22738 55626,22672 55560,22606 55508,22527 55476,22437 55449,22360 55440,22279 55431,22198 55371,21617 55371,21032 55431,20452 55440,20371 55449,20290 55476,20212 55508,20123 55560,20043 55626,19978 55691,19912 55771,19860 55860,19828 55938,19801 56019,19792 56100,19783 56680,19723 57265,19723 57846,19783 L 57846,19783 Z"/>
     </g>
    </g>
    <g class="com.sun.star.drawing.CustomShape">
     <g id="id39">
      <rect class="BoundingBox" stroke="none" fill="none" x="59972" y="19773" width="3176" height="3176"/>
      <path fill="rgb(106,124,128)" stroke="none" d="M 62432,19818 C 62513,19827 62594,19836 62671,19863 62761,19895 62840,19947 62906,20013 62972,20078 63024,20158 63056,20247 63082,20325 63092,20406 63101,20487 63162,21067 63162,21652 63101,22233 63092,22314 63082,22395 63056,22472 63024,22562 62972,22641 62906,22707 62840,22773 62761,22825 62671,22857 62594,22883 62513,22893 62432,22902 61851,22963 61266,22963 60686,22902 60605,22893 60524,22883 60446,22857 60357,22825 60277,22773 60212,22707 60146,22641 60094,22562 60062,22472 60035,22395 60026,22314 60017,22233 59957,21652 59957,21067 60017,20487 60026,20406 60035,20325 60062,20247 60094,20158 60146,20078 60212,20013 60277,19947 60357,19895 60446,19863 60524,19836 60605,19827 60686,19818 61266,19758 61851,19758 62432,19818 L 62432,19818 Z"/>
     </g>
    </g>
    <g class="com.sun.star.drawing.CustomShape">
     <g id="id40">
      <rect class="BoundingBox" stroke="none" fill="none" x="4586" y="24324" width="3176" height="3176"/>
      <path fill="rgb(22,42,53)" stroke="none" d="M 7046,24369 C 7127,24378 7208,24387 7285,24414 7375,24446 7454,24498 7520,24564 7586,24629 7638,24709 7670,24798 7696,24876 7706,24957 7715,25038 7776,25618 7776,26203 7715,26784 7706,26865 7696,26946 7670,27023 7638,27113 7586,27192 7520,27258 7454,27324 7375,27376 7285,27408 7208,27434 7127,27444 7046,27453 6465,27514 5880,27514 5300,27453 5219,27444 5138,27434 5060,27408 4971,27376 4891,27324 4826,27258 4760,27192 4708,27113 4676,27023 4649,26946 4640,26865 4631,26784 4571,26203 4571,25618 4631,25038 4640,24957 4649,24876 4676,24798 4708,24709 4760,24629 4826,24564 4891,24498 4971,24446 5060,24414 5138,24387 5219,24378 5300,24369 5880,24309 6465,24309 7046,24369 L 7046,24369 Z"/>
     </g>
    </g>
    <g class="com.sun.star.drawing.CustomShape">
     <g id="id41">
      <rect class="BoundingBox" stroke="none" fill="none" x="9172" y="24359" width="3176" height="3176"/>
      <path fill="rgb(22,42,53)" stroke="none" d="M 11632,24404 C 11713,24413 11794,24422 11871,24449 11961,24481 12040,24533 12106,24599 12172,24664 12224,24744 12256,24833 12282,24911 12292,24992 12301,25073 12362,25653 12362,26238 12301,26819 12292,26900 12282,26981 12256,27058 12224,27148 12172,27227 12106,27293 12040,27359 11961,27411 11871,27443 11794,27469 11713,27479 11632,27488 11051,27549 10466,27549 9886,27488 9805,27479 9724,27469 9646,27443 9557,27411 9477,27359 9412,27293 9346,27227 9294,27148 9262,27058 9235,26981 9226,26900 9217,26819 9157,26238 9157,25653 9217,25073 9226,24992 9235,24911 9262,24833 9294,24744 9346,24664 9412,24599 9477,24533 9557,24481 9646,24449 9724,24422 9805,24413 9886,24404 10466,24344 11051,24344 11632,24404 L 11632,24404 Z"/>
     </g>
    </g>
    <g class="com.sun.star.drawing.CustomShape">
     <g id="id42">
      <rect class="BoundingBox" stroke="none" fill="none" x="13758" y="24324" width="3176" height="3176"/>
      <path fill="rgb(22,42,53)" stroke="none" d="M 16218,24369 C 16299,24378 16380,24387 16457,24414 16547,24446 16626,24498 16692,24564 16758,24629 16810,24709 16842,24798 16868,24876 16878,24957 16887,25038 16948,25618 16948,26203 16887,26784 16878,26865 16868,26946 16842,27023 16810,27113 16758,27192 16692,27258 16626,27324 16547,27376 16457,27408 16380,27434 16299,27444 16218,27453 15637,27514 15052,27514 14472,27453 14391,27444 14310,27434 14232,27408 14143,27376 14063,27324 13998,27258 13932,27192 13880,27113 13848,27023 13821,26946 13812,26865 13803,26784 13743,26203 13743,25618 13803,25038 13812,24957 13821,24876 13848,24798 13880,24709 13932,24629 13998,24564 14063,24498 14143,24446 14232,24414 14310,24387 14391,24378 14472,24369 15052,24309 15637,24309 16218,24369 L 16218,24369 Z"/>
     </g>
    </g>
    <g class="com.sun.star.drawing.CustomShape">
     <g id="id43">
      <rect class="BoundingBox" stroke="none" fill="none" x="18344" y="24359" width="3176" height="3176"/>
      <path fill="rgb(22,42,53)" stroke="none" d="M 20804,24404 C 20885,24413 20966,24422 21043,24449 21133,24481 21212,24533 21278,24599 21344,24664 21396,24744 21428,24833 21454,24911 21464,24992 21473,25073 21534,25653 21534,26238 21473,26819 21464,26900 21454,26981 21428,27058 21396,27148 21344,27227 21278,27293 21212,27359 21133,27411 21043,27443 20966,27469 20885,27479 20804,27488 20223,27549 19638,27549 19058,27488 18977,27479 18896,27469 18818,27443 18729,27411 18649,27359 18584,27293 18518,27227 18466,27148 18434,27058 18407,26981 18398,26900 18389,26819 18329,26238 18329,25653 18389,25073 18398,24992 18407,24911 18434,24833 18466,24744 18518,24664 18584,24599 18649,24533 18729,24481 18818,24449 18896,24422 18977,24413 19058,24404 19638,24344 20223,24344 20804,24404 L 20804,24404 Z"/>
     </g>
    </g>
    <g class="com.sun.star.drawing.CustomShape">
     <g id="id44">
      <rect class="BoundingBox" stroke="none" fill="none" x="22931" y="24324" width="3176" height="3176"/>
      <path fill="rgb(106,124,128)" stroke="none" d="M 25391,24369 C 25472,24378 25553,24387 25630,24414 25720,24446 25799,24498 25865,24564 25931,24629 25983,24709 26015,24798 26041,24876 26051,24957 26060,25038 26121,25618 26121,26203 26060,26784 26051,26865 26041,26946 26015,27023 25983,27113 25931,27192 25865,27258 25799,27324 25720,27376 25630,27408 25553,27434 25472,27444 25391,27453 24810,27514 24225,27514 23645,27453 23564,27444 23483,27434 23405,27408 23316,27376 23236,27324 23171,27258 23105,27192 23053,27113 23021,27023 22994,26946 22985,26865 22976,26784 22916,26203 22916,25618 22976,25038 22985,24957 22994,24876 23021,24798 23053,24709 23105,24629 23171,24564 23236,24498 23316,24446 23405,24414 23483,24387 23564,24378 23645,24369 24225,24309 24810,24309 25391,24369 L 25391,24369 Z"/>
     </g>
    </g>
    <g class="com.sun.star.drawing.CustomShape">
     <g id="id45">
      <rect class="BoundingBox" stroke="none" fill="none" x="34572" y="24359" width="10232" height="3176"/>
      <path fill="rgb(106,124,128)" stroke="none" d="M 44088,24405 C 44169,24413 44250,24423 44327,24450 44417,24481 44497,24534 44562,24599 44628,24665 44680,24744 44711,24834 44738,24911 44748,24993 44757,25074 44818,25654 44818,26239 44757,26820 44748,26901 44738,26982 44711,27059 44680,27149 44628,27228 44562,27294 44497,27360 44417,27412 44327,27444 44250,27470 44169,27480 44088,27489 43650,27534 43211,27534 42772,27533 40686,27531 38599,27507 36512,27522 36103,27525 35694,27530 35286,27489 35205,27481 35124,27470 35047,27444 34957,27412 34877,27360 34812,27294 34746,27228 34694,27149 34663,27059 34636,26982 34626,26901 34617,26820 34557,26239 34557,25654 34617,25074 34626,24993 34636,24911 34663,24834 34694,24744 34746,24665 34812,24599 34877,24534 34957,24481 35047,24450 35124,24423 35205,24413 35286,24405 35576,24376 35868,24373 36159,24371 38540,24353 40922,24356 43301,24375 43564,24377 43826,24379 44088,24405 L 44088,24405 Z"/>
     </g>
    </g>
    <g class="com.sun.star.drawing.CustomShape">
     <g id="id46">
      <rect class="BoundingBox" stroke="none" fill="none" x="46214" y="24324" width="3176" height="3176"/>
      <path fill="rgb(22,42,53)" stroke="none" d="M 48674,24369 C 48755,24378 48836,24387 48913,24414 49003,24446 49082,24498 49148,24564 49214,24629 49266,24709 49298,24798 49324,24876 49334,24957 49343,25038 49404,25618 49404,26203 49343,26784 49334,26865 49324,26946 49298,27023 49266,27113 49214,27192 49148,27258 49082,27324 49003,27376 48913,27408 48836,27434 48755,27444 48674,27453 48093,27514 47508,27514 46928,27453 46847,27444 46766,27434 46688,27408 46599,27376 46519,27324 46454,27258 46388,27192 46336,27113 46304,27023 46277,26946 46268,26865 46259,26784 46199,26203 46199,25618 46259,25038 46268,24957 46277,24876 46304,24798 46336,24709 46388,24629 46454,24564 46519,24498 46599,24446 46688,24414 46766,24387 46847,24378 46928,24369 47508,24309 48093,24309 48674,24369 L 48674,24369 Z"/>
     </g>
    </g>
    <g class="com.sun.star.drawing.CustomShape">
     <g id="id47">
      <rect class="BoundingBox" stroke="none" fill="none" x="50800" y="24359" width="3176" height="3176"/>
      <path fill="rgb(22,42,53)" stroke="none" d="M 53260,24404 C 53341,24413 53422,24422 53499,24449 53589,24481 53668,24533 53734,24599 53800,24664 53852,24744 53884,24833 53910,24911 53920,24992 53929,25073 53990,25653 53990,26238 53929,26819 53920,26900 53910,26981 53884,27058 53852,27148 53800,27227 53734,27293 53668,27359 53589,27411 53499,27443 53422,27469 53341,27479 53260,27488 52679,27549 52094,27549 51514,27488 51433,27479 51352,27469 51274,27443 51185,27411 51105,27359 51040,27293 50974,27227 50922,27148 50890,27058 50863,26981 50854,26900 50845,26819 50785,26238 50785,25653 50845,25073 50854,24992 50863,24911 50890,24833 50922,24744 50974,24664 51040,24599 51105,24533 51185,24481 51274,24449 51352,24422 51433,24413 51514,24404 52094,24344 52679,24344 53260,24404 L 53260,24404 Z"/>
     </g>
    </g>
    <g class="com.sun.star.drawing.CustomShape">
     <g id="id48">
      <rect class="BoundingBox" stroke="none" fill="none" x="55386" y="24324" width="3176" height="3176"/>
      <path fill="rgb(22,42,53)" stroke="none" d="M 57846,24369 C 57927,24378 58008,24387 58085,24414 58175,24446 58254,24498 58320,24564 58386,24629 58438,24709 58470,24798 58496,24876 58506,24957 58515,25038 58576,25618 58576,26203 58515,26784 58506,26865 58496,26946 58470,27023 58438,27113 58386,27192 58320,27258 58254,27324 58175,27376 58085,27408 58008,27434 57927,27444 57846,27453 57265,27514 56680,27514 56100,27453 56019,27444 55938,27434 55860,27408 55771,27376 55691,27324 55626,27258 55560,27192 55508,27113 55476,27023 55449,26946 55440,26865 55431,26784 55371,26203 55371,25618 55431,25038 55440,24957 55449,24876 55476,24798 55508,24709 55560,24629 55626,24564 55691,24498 55771,24446 55860,24414 55938,24387 56019,24378 56100,24369 56680,24309 57265,24309 57846,24369 L 57846,24369 Z"/>
     </g>
    </g>
    <g class="com.sun.star.drawing.CustomShape">
     <g id="id49">
      <rect class="BoundingBox" stroke="none" fill="none" x="59972" y="24359" width="3176" height="3176"/>
      <path fill="rgb(22,42,53)" stroke="none" d="M 62432,24404 C 62513,24413 62594,24422 62671,24449 62761,24481 62840,24533 62906,24599 62972,24664 63024,24744 63056,24833 63082,24911 63092,24992 63101,25073 63162,25653 63162,26238 63101,26819 63092,26900 63082,26981 63056,27058 63024,27148 62972,27227 62906,27293 62840,27359 62761,27411 62671,27443 62594,27469 62513,27479 62432,27488 61851,27549 61266,27549 60686,27488 60605,27479 60524,27469 60446,27443 60357,27411 60277,27359 60212,27293 60146,27227 60094,27148 60062,27058 60035,26981 60026,26900 60017,26819 59957,26238 59957,25653 60017,25073 60026,24992 60035,24911 60062,24833 60094,24744 60146,24664 60212,24599 60277,24533 60357,24481 60446,24449 60524,24422 60605,24413 60686,24404 61266,24344 61851,24344 62432,24404 L 62432,24404 Z"/>
     </g>
    </g>
   </g>
  </g>
 </g>
</svg>